<svg xmlns="http://www.w3.org/2000/svg" data-name="Layer 1" viewBox="0 0 512 512"><ellipse cx="384.82" cy="436.34" rx="17.12" ry="17.04"/><path fill="#aeadb3" d="M50.13,107.06V219.89c0,121.37,79.06,227.32,196.55,284,117.5-56.69,196.56-162.64,196.56-284V107.06A335.53,335.53,0,0,1,332.83,72,334.24,334.24,0,0,1,246.68,7.5a360.21,360.21,0,0,1-71.92,55.06A364.18,364.18,0,0,1,50.13,107.06Z"/><path fill="#8b8893" d="M246.68,465.62c-46.86-25.23-86.17-59.24-114.32-99.07-31.39-44.42-48-95.13-48-146.66V135A394.66,394.66,0,0,0,192,92a393.54,393.54,0,0,0,54.12-37.92,367.58,367.58,0,0,0,70.76,48.16A368.09,368.09,0,0,0,409,135.61v84.28c0,51.53-16.59,102.24-48,146.66C332.86,406.38,293.55,440.39,246.68,465.62Z"/><path fill="#787681" d="M316.92,102.22a367.58,367.58,0,0,1-70.76-48.16q-7.5,6.25-15.29,12.1a367.57,367.57,0,0,0,56.05,36.06A368.09,368.09,0,0,0,379,135.61v84.28c0,51.53-16.59,102.24-48,146.66-25.1,35.5-59.06,66.38-99.33,90.53q7.37,4.43,15,8.54c46.87-25.23,86.18-59.24,114.33-99.07,31.39-44.42,48-95.13,48-146.66V135.61A368.09,368.09,0,0,1,316.92,102.22Z"/><path fill="#dadadc" d="M433.33,416.81h-97a7.5,7.5,0,0,1-7.5-7.5V364.12a50.05,50.05,0,0,1,50-50h12a50.05,50.05,0,0,1,50,50v45.19A7.49,7.49,0,0,1,433.33,416.81Zm-89.53-15h82V364.12a35,35,0,0,0-35-35h-12a35,35,0,0,0-35,35Z"/><rect width="154.11" height="110.19" x="307.76" y="394.31" fill="#19ac66" rx="30"/><path fill="#17a454" d="M431.87,394.31h-21a30,30,0,0,1,30,30V474.5a30,30,0,0,1-30,30h21a30,30,0,0,0,30-30V424.31A30,30,0,0,0,431.87,394.31Z"/><ellipse cx="384.82" cy="436.34" fill="#fff" rx="17.12" ry="17.04"/><path fill="#fff" d="M384.82,478.49a7.5,7.5,0,0,1-7.5-7.5V441.46a7.5,7.5,0,0,1,15,0V471A7.5,7.5,0,0,1,384.82,478.49Z"/><path fill="#fed947" d="M246.68,353.49A97.44,97.44,0,1,1,315.75,325,97.24,97.24,0,0,1,246.68,353.49Z"/><path fill="#fecc30" d="M315.75,187.57a97.31,97.31,0,0,0-69.07-28.46,99.77,99.77,0,0,0-12.5.78,97.16,97.16,0,0,1,0,192.81,99.77,99.77,0,0,0,12.5.79A97.28,97.28,0,0,0,315.75,325a96.85,96.85,0,0,0,0-137.45Z"/><path fill="#f8be32" d="M246.68,361A104.94,104.94,0,1,1,321,330.34,104.7,104.7,0,0,1,246.68,361Zm0-194.38a89.81,89.81,0,0,0-63.77,26.28,89.35,89.35,0,0,0,0,126.82,90.52,90.52,0,0,0,127.55,0,89.35,89.35,0,0,0,0-126.82A89.81,89.81,0,0,0,246.68,166.61Z"/><path fill="#fff" d="M235.74,272.46H210.3a7.5,7.5,0,0,1,0-15h25.44a23.11,23.11,0,1,0,0-46.22H218a7.5,7.5,0,0,1,0-15h17.75a38.11,38.11,0,1,1,0,76.22Z"/><path fill="#fff" d="M283.07 211.24H210.3a7.5 7.5 0 0 1 0-15h72.77a7.5 7.5 0 0 1 0 15zM283.07 241.85H210.3a7.5 7.5 0 0 1 0-15h72.77a7.5 7.5 0 0 1 0 15zM265.32 325.44a7.43 7.43 0 0 1-5.2-2.1l-55-53a7.5 7.5 0 0 1 10.4-10.81l55 53a7.5 7.5 0 0 1-5.2 12.9z"/></svg>