<svg xmlns="http://www.w3.org/2000/svg" data-name="Layer 1" viewBox="0 0 512 512"><circle cx="227.14" cy="181" r="15"/><circle cx="420.39" cy="114.31" r="7.5"/><path fill="#e1e1e3" d="M398.06,512V350.9a64.43,64.43,0,0,0-38.56-59l-87.16-38.22a50.39,50.39,0,0,1-30.15-46.15v-2.74H162.57v3a50.37,50.37,0,0,1-30.12,46.12L46,291.87a64.45,64.45,0,0,0-38.52,59V512"/><path fill="#c8c5cc" d="M359.5,291.89l-87.16-38.22a50.39,50.39,0,0,1-30.15-46.15v-2.74h-30v2.74a50.39,50.39,0,0,0,30.15,46.15l87.16,38.22a64.43,64.43,0,0,1,38.56,59V512h30V350.9A64.43,64.43,0,0,0,359.5,291.89Z"/><polyline fill="#eb304a" points="212.4 291.68 228 475.79 202.79 504.5 176 475.79 193.18 291.68"/><path fill="#c8c5cc" d="M252.44,316.39l31.69-57.55-19-9.08-62.35,43.15L230.94,318A15,15,0,0,0,252.44,316.39Z"/><path fill="#c8c5cc" d="M153.11,316.39l-31.69-57.55,19-9.08,62.36,43.15L174.6,318A15,15,0,0,1,153.11,316.39Z"/><path fill="#fdd8ae" d="M265.11,249.76l-62.33,43.15h0l-62.35-43.15A45.51,45.51,0,0,0,157,231.93a48.9,48.9,0,0,0,4.4-12.42,56.39,56.39,0,0,0,1.2-11.74v-3h79.62v2.74a50.34,50.34,0,0,0,22.92,42.24Z"/><path fill="#c8c5cc" d="M310.3 394H273.48a7.5 7.5 0 0 1 0-15H310.3a7.5 7.5 0 0 1 0 15zM311.61 512a7.5 7.5 0 0 1-7.5-7.5V451.24a7.5 7.5 0 0 1 15 0V504.5A7.5 7.5 0 0 1 311.61 512zM101.61 512a7.5 7.5 0 0 1-7.5-7.5V451.24a7.5 7.5 0 0 1 15 0V504.5A7.5 7.5 0 0 1 101.61 512z"/><path fill="#57565c" d="M117.28,108c0-47.22,38.28-100.5,85.5-100.5h0A85.5,85.5,0,0,1,288.28,93v20.5Z"/><path fill="#3c3b41" d="M202.78,7.5h0A63.83,63.83,0,0,0,188.93,9a85.51,85.51,0,0,1,69.35,84v19.54l30,1V93A85.5,85.5,0,0,0,202.78,7.5Z"/><path fill="#787681" d="M288.28,121a7.5,7.5,0,0,1-7.5-7.5V93a78,78,0,1,0-156,0,7.5,7.5,0,0,1-15,0,93,93,0,1,1,186,0v20.5A7.5,7.5,0,0,1,288.28,121Z"/><path fill="#fbbf7d" d="M243.73,219.9a64.08,64.08,0,0,1-82.36-.39,56.39,56.39,0,0,0,1.2-11.74v-3h79.62v2.74A50.41,50.41,0,0,0,243.73,219.9Z"/><path fill="#fdd8ae" d="M266.86,155.61a64.08,64.08,0,0,1-128.16,0v-41.3c-.79-13.67,2.63-21.91,7.45-27,10.43-11.06,25.76-5.78,46.94-14a81.56,81.56,0,0,0,30.77-21.78c1,7.71,3.79,17.74,11.81,24.24,8.48,6.87,16.63,4.74,23.73,11.59,4.2,4,8.41,11.61,7.46,27Z"/><path fill="#fbbf7d" d="M259.39,87.27c-7.1-6.85-15.25-4.72-23.73-11.59-8-6.5-10.77-16.53-11.81-24.24a88.44,88.44,0,0,1-12.22,11.31,30.25,30.25,0,0,0,9,12.93c8.48,6.87,16.63,4.74,23.73,11.59,4.2,4,8.41,11.61,7.46,27v41.3a64.07,64.07,0,0,1-56.58,63.63,64,64,0,0,0,71.58-63.63v-41.3C267.8,98.88,263.59,91.32,259.39,87.27Z"/><path fill="#57565c" d="M258,188.5H219.64a7.5,7.5,0,0,1,0-15H258a32.9,32.9,0,0,0,32.86-32.87V117.5a7.5,7.5,0,0,1,15,0v23.13A47.92,47.92,0,0,1,258,188.5Z"/><path fill="#8b8893" d="M270.86,90.5h20a15,15,0,0,1,15,15v36a15,15,0,0,1-15,15h-20a4,4,0,0,1-4-4v-58A4,4,0,0,1,270.86,90.5Z"/><path fill="#787681" d="M290.86,90.5h-15a15,15,0,0,1,15,15v36a15,15,0,0,1-15,15h15a15,15,0,0,0,15-15v-36A15,15,0,0,0,290.86,90.5Z"/><path fill="#8b8893" d="M103.7,90.5h20a15,15,0,0,1,15,15v36a15,15,0,0,1-15,15h-20a4,4,0,0,1-4-4v-58A4,4,0,0,1,103.7,90.5Z" transform="rotate(-180 119.195 123.5)"/><path fill="#787681" d="M134.7,90.5h-15a4,4,0,0,1,4,4v58a4,4,0,0,1-4,4h15a4,4,0,0,0,4-4v-58A4,4,0,0,0,134.7,90.5Z"/><circle cx="227.14" cy="181" r="15" fill="#8b8893"/><circle cx="420.39" cy="72.5" r="65" fill="#fed947"/><path fill="#fecc30" d="M420.39,7.5a65.17,65.17,0,0,0-12.5,1.21,65,65,0,0,1,0,127.58A65,65,0,1,0,420.39,7.5Z"/><path fill="#f8be32" d="M420.39,145a72.5,72.5,0,1,1,72.5-72.5A72.58,72.58,0,0,1,420.39,145Zm0-130a57.5,57.5,0,1,0,57.5,57.5A57.56,57.56,0,0,0,420.39,15Z"/><path fill="#fff" d="M417.17,99.73a7.51,7.51,0,0,1-6.82-4.36c-4.47-9.7-3.41-21.88,2.64-30.29a42.24,42.24,0,0,1,9.16-8.7c2.64-2,4.93-3.78,6.34-5.87,2.06-3.08.9-8.35-2.36-10.65a9.23,9.23,0,0,0-10.9.25,8.82,8.82,0,0,0-3.56,9.81,7.5,7.5,0,0,1-14.39,4.26,23.73,23.73,0,0,1,9.21-26.26,24.13,24.13,0,0,1,28.3-.31c10,7,12.8,21.37,6.15,31.26-2.79,4.14-6.44,6.94-9.67,9.42a30.11,30.11,0,0,0-6.1,5.55c-2.91,4-3.41,10.45-1.2,15.24a7.5,7.5,0,0,1-6.8,10.65Z"/><circle cx="420.39" cy="114.31" r="7.5" fill="#fff"/></svg>