<svg width="35" height="34" viewBox="0 0 35 34" fill="none" xmlns="http://www.w3.org/2000/svg">
<path d="M21.1032 33.4924C21.1573 33.5626 21.2268 33.6196 21.3065 33.6587C21.3861 33.6979 21.4737 33.7183 21.5625 33.7183C21.6513 33.7183 21.7389 33.6979 21.8185 33.6587C21.8982 33.6196 21.9677 33.5626 22.0218 33.4924L28.8024 24.6875C28.8683 24.6019 28.9089 24.4996 28.9196 24.3922C28.9302 24.2848 28.9105 24.1766 28.8627 24.0798C28.8149 23.9829 28.7408 23.9014 28.649 23.8444C28.5571 23.7875 28.4511 23.7573 28.3429 23.7573H24.69V13.089C24.69 12.9357 24.629 12.7887 24.5204 12.6803C24.4118 12.5719 24.2644 12.511 24.1108 12.511H19.0138C18.8602 12.511 18.7129 12.5719 18.6042 12.6803C18.4956 12.7887 18.4346 12.9357 18.4346 13.089V23.7589H14.7817C14.6736 23.7589 14.5676 23.7891 14.4758 23.8461C14.384 23.9032 14.31 23.9847 14.2622 24.0815C14.2145 24.1783 14.1948 24.2865 14.2055 24.3939C14.2161 24.5012 14.2567 24.6035 14.3226 24.6891L21.1032 33.4924Z" fill="#2D4BAA"/>
<path d="M10.063 21.7359H15.16C15.3137 21.7359 15.461 21.675 15.5696 21.5666C15.6782 21.4582 15.7393 21.3112 15.7393 21.1579V10.4842H19.3921C19.5003 10.4842 19.6062 10.4539 19.698 10.3969C19.7898 10.3399 19.8638 10.2584 19.9116 10.1616C19.9594 10.0648 19.979 9.95656 19.9684 9.84918C19.9577 9.7418 19.9171 9.63954 19.8513 9.55398L13.0706 0.749118C13.0143 0.68226 12.944 0.628507 12.8647 0.59163C12.7853 0.554753 12.6989 0.535645 12.6113 0.535645C12.5238 0.535645 12.4373 0.554753 12.358 0.59163C12.2786 0.628507 12.2083 0.68226 12.152 0.749118L5.37141 9.55398C5.3055 9.63957 5.26493 9.74186 5.25428 9.84927C5.24363 9.95669 5.26333 10.0649 5.31116 10.1617C5.35898 10.2586 5.43302 10.3401 5.52488 10.3971C5.61674 10.454 5.72275 10.4842 5.83092 10.4842H9.4838V21.1579C9.4838 21.3112 9.54482 21.4582 9.65344 21.5666C9.76207 21.675 9.90939 21.7359 10.063 21.7359Z" fill="#2D4BAA"/>
</svg>
