<svg width="48" height="48" viewBox="0 0 48 48" fill="none" xmlns="http://www.w3.org/2000/svg">
<path d="M19.4167 27.4947V32.1224L8.52783 36.7502" stroke="#2D4BAA" stroke-miterlimit="10" stroke-linecap="round" stroke-linejoin="round"/>
<path d="M27.5835 27.4947V32.1224L38.4724 36.7502" stroke="#2D4BAA" stroke-miterlimit="10" stroke-linecap="round" stroke-linejoin="round"/>
<path d="M32.211 18.2392C32.211 23.9559 28.3999 28.5837 23.4999 28.5837C18.5999 28.5837 14.7888 23.9559 14.7888 18.2392C14.7888 12.5226 18.5999 7.89478 23.4999 7.89478C28.3999 7.62256 32.211 12.2503 32.211 18.2392Z" stroke="#2D4BAA" stroke-miterlimit="10" stroke-linecap="round" stroke-linejoin="round"/>
<path d="M32.2113 16.8779C31.9391 16.8779 31.6668 16.8779 31.1224 16.8779C28.4002 17.4224 26.4946 16.3335 24.8613 13.6113C24.0446 15.5168 21.0502 16.8779 18.6002 16.8779C17.5113 16.8779 15.8779 16.6057 15.0613 16.0613" stroke="#2D4BAA" stroke-miterlimit="10" stroke-linecap="round" stroke-linejoin="round"/>
<path d="M37.8678 42.1333C37.8714 42.036 37.8555 41.9388 37.8038 41.8549C37.7349 41.7447 37.6247 41.6661 37.4982 41.6369L33.9837 40.821C33.7183 40.7573 33.4558 40.924 33.3945 41.1875C33.3332 41.4515 33.498 41.7155 33.7615 41.7763L36.2361 42.3511C32.6134 44.7814 28.4101 46.0755 24 46.0755C11.8278 46.0755 1.92449 36.1726 1.92449 24C1.92449 19.24 3.41439 14.7113 6.23323 10.9042C6.3942 10.6867 6.34821 10.3791 6.13071 10.2182C5.91321 10.0581 5.60661 10.1022 5.44373 10.3207C2.49937 14.2979 0.943359 19.0282 0.943359 24C0.943359 36.7135 11.2864 47.0566 24 47.0566C28.537 47.0566 32.8658 45.7466 36.6119 43.2816L36.0926 45.5178C36.0313 45.7818 36.1961 46.0453 36.4596 46.1066C36.4969 46.1157 36.5343 46.1195 36.5707 46.1195C36.794 46.1195 36.9961 45.9667 37.0488 45.7401L37.8465 42.3058C37.8642 42.2493 37.8711 42.1926 37.8678 42.1333Z" fill="#2D4BAA"/>
<path d="M24 0.94339C19.1053 0.94339 14.4918 2.45126 10.5663 5.28297L11.1025 2.97416C11.1638 2.71019 10.999 2.44671 10.7355 2.38539C10.4682 2.32119 10.2076 2.48839 10.1463 2.75187L9.32994 6.26632C9.3012 6.39327 9.32323 6.52645 9.39126 6.63712C9.46025 6.7473 9.57043 6.82587 9.69691 6.85509L13.2114 7.67095C13.2487 7.68005 13.2861 7.68388 13.3225 7.68388C13.5457 7.68388 13.7479 7.53106 13.8006 7.30446C13.8619 7.04049 13.6971 6.77653 13.4336 6.71568L11.0311 6.15769C14.8125 3.39634 19.2686 1.92452 24 1.92452C36.1721 1.92452 46.0754 11.8273 46.0754 24C46.0754 29.0671 44.4064 33.8314 41.2474 37.7775C41.0788 37.9893 41.1123 38.2978 41.324 38.4669C41.4151 38.5397 41.5224 38.5747 41.6306 38.5747C41.7744 38.5747 41.9171 38.5119 42.0139 38.3907C45.3128 34.2683 47.0566 29.2923 47.0566 24C47.0566 11.2865 36.7135 0.94339 24 0.94339Z" fill="#2D4BAA"/>
</svg>
