<svg width="47" height="47" viewBox="0 0 47 47" fill="none" xmlns="http://www.w3.org/2000/svg">
<path d="M20.5 16.5C20.5 18.7 18.7 20.5 16.5 20.5H4.5C2.3 20.5 0.5 18.7 0.5 16.5V4.50003C0.5 2.30003 2.3 0.500031 4.5 0.500031H16.5C18.7 0.500031 20.5 2.30003 20.5 4.50003V16.5Z" stroke="#2D4BAA" stroke-miterlimit="10" stroke-linecap="round" stroke-linejoin="round"/>
<path d="M0.5 6.50003H20.5" stroke="#2D4BAA" stroke-miterlimit="10" stroke-linecap="round" stroke-linejoin="round"/>
<path d="M26.5 16.5C26.5 18.7 28.3 20.5 30.5 20.5H42.5C44.7 20.5 46.5 18.7 46.5 16.5V4.50003C46.5 2.30003 44.7 0.500031 42.5 0.500031H30.5C28.3 0.500031 26.5 2.30003 26.5 4.50003V16.5Z" stroke="#2D4BAA" stroke-miterlimit="10" stroke-linecap="round" stroke-linejoin="round"/>
<path d="M46.5 6.50003H26.5" stroke="#2D4BAA" stroke-miterlimit="10" stroke-linecap="round" stroke-linejoin="round"/>
<path d="M20.5 42.5C20.5 44.7 18.7 46.5 16.5 46.5H4.5C2.3 46.5 0.5 44.7 0.5 42.5V30.5C0.5 28.3 2.3 26.5 4.5 26.5H16.5C18.7 26.5 20.5 28.3 20.5 30.5V42.5Z" stroke="#2D4BAA" stroke-miterlimit="10" stroke-linecap="round" stroke-linejoin="round"/>
<path d="M0.5 32.5H20.5" stroke="#2D4BAA" stroke-miterlimit="10" stroke-linecap="round" stroke-linejoin="round"/>
<path d="M26.5 42.5C26.5 44.7 28.3 46.5 30.5 46.5H42.5C44.7 46.5 46.5 44.7 46.5 42.5V30.5C46.5 28.3 44.7 26.5 42.5 26.5H30.5C28.3 26.5 26.5 28.3 26.5 30.5V42.5Z" stroke="#2D4BAA" stroke-miterlimit="10" stroke-linecap="round" stroke-linejoin="round"/>
<path d="M46.5 32.5H26.5" stroke="#2D4BAA" stroke-miterlimit="10" stroke-linecap="round" stroke-linejoin="round"/>
</svg>
