<svg width="40" height="40" viewBox="0 0 40 40" fill="none" xmlns="http://www.w3.org/2000/svg">
<g clip-path="url(#clip0_119_4886)">
<path d="M0.833252 39.1667H39.1666" stroke="#2D4BAA" stroke-miterlimit="10" stroke-linecap="round" stroke-linejoin="round"/>
<path d="M7.5 30.8333H2.5V39.1667H7.5V30.8333Z" stroke="#2D4BAA" stroke-miterlimit="10" stroke-linecap="round" stroke-linejoin="round"/>
<path d="M17.5 22.5H12.5V39.1667H17.5V22.5Z" stroke="#2D4BAA" stroke-miterlimit="10" stroke-linecap="round" stroke-linejoin="round"/>
<path d="M27.5 25.8333H22.5V39.1667H27.5V25.8333Z" stroke="#2D4BAA" stroke-miterlimit="10" stroke-linecap="round" stroke-linejoin="round"/>
<path d="M37.5 14.1667H32.5V39.1667H37.5V14.1667Z" stroke="#2D4BAA" stroke-miterlimit="10" stroke-linecap="round" stroke-linejoin="round"/>
<path d="M4.99992 20.8333C5.92039 20.8333 6.66659 20.0871 6.66659 19.1667C6.66659 18.2462 5.92039 17.5 4.99992 17.5C4.07944 17.5 3.33325 18.2462 3.33325 19.1667C3.33325 20.0871 4.07944 20.8333 4.99992 20.8333Z" stroke="#2D4BAA" stroke-miterlimit="10" stroke-linecap="round" stroke-linejoin="round"/>
<path d="M14.9999 12.5C15.9204 12.5 16.6666 11.7538 16.6666 10.8334C16.6666 9.91288 15.9204 9.16669 14.9999 9.16669C14.0794 9.16669 13.3333 9.91288 13.3333 10.8334C13.3333 11.7538 14.0794 12.5 14.9999 12.5Z" stroke="#2D4BAA" stroke-miterlimit="10" stroke-linecap="round" stroke-linejoin="round"/>
<path d="M24.9999 15.8333C25.9204 15.8333 26.6666 15.0871 26.6666 14.1667C26.6666 13.2462 25.9204 12.5 24.9999 12.5C24.0794 12.5 23.3333 13.2462 23.3333 14.1667C23.3333 15.0871 24.0794 15.8333 24.9999 15.8333Z" stroke="#2D4BAA" stroke-miterlimit="10" stroke-linecap="round" stroke-linejoin="round"/>
<path d="M34.9999 4.16668C35.9204 4.16668 36.6666 3.42048 36.6666 2.50001C36.6666 1.57954 35.9204 0.833344 34.9999 0.833344C34.0794 0.833344 33.3333 1.57954 33.3333 2.50001C33.3333 3.42048 34.0794 4.16668 34.9999 4.16668Z" stroke="#2D4BAA" stroke-miterlimit="10" stroke-linecap="round" stroke-linejoin="round"/>
<path d="M6.33325 18.1667L13.6666 11.8334" stroke="#2D4BAA" stroke-miterlimit="10" stroke-linecap="round" stroke-linejoin="round"/>
<path d="M16.5 11.3332L23.5 13.6666" stroke="#2D4BAA" stroke-miterlimit="10" stroke-linejoin="round"/>
<path d="M33.8332 3.83322L26.1665 12.8332" stroke="#2D4BAA" stroke-miterlimit="10" stroke-linecap="round" stroke-linejoin="round"/>
</g>
<defs>
<clipPath id="clip0_119_4886">
<rect width="40" height="40" fill="white"/>
</clipPath>
</defs>
</svg>
