<svg width="21" height="21" viewBox="0 0 21 21" fill="none" xmlns="http://www.w3.org/2000/svg">
<path d="M6.90181 10.7338C6.90181 8.86193 8.41976 7.34407 10.2928 7.34407C12.1658 7.34407 13.6845 8.86193 13.6845 10.7338C13.6845 12.6057 12.1658 14.1235 10.2928 14.1235C8.41976 14.1235 6.90181 12.6057 6.90181 10.7338ZM5.06829 10.7338C5.06829 13.6176 7.40728 15.9551 10.2928 15.9551C13.1782 15.9551 15.5172 13.6176 15.5172 10.7338C15.5172 7.85005 13.1782 5.51247 10.2928 5.51247C7.40728 5.51247 5.06829 7.85005 5.06829 10.7338ZM14.5031 5.30544C14.503 5.54677 14.5745 5.78271 14.7086 5.98343C14.8427 6.18414 15.0333 6.34062 15.2564 6.43306C15.4794 6.5255 15.7249 6.54977 15.9618 6.50278C16.1986 6.45579 16.4162 6.33966 16.587 6.16908C16.7579 5.9985 16.8742 5.78113 16.9214 5.54445C16.9686 5.30778 16.9446 5.06242 16.8522 4.83942C16.7599 4.61642 16.6035 4.42579 16.4028 4.29163C16.2021 4.15747 15.966 4.08582 15.7245 4.08572H15.7241C15.4004 4.08587 15.09 4.21441 14.8611 4.4431C14.6321 4.6718 14.5034 4.98195 14.5031 5.30544ZM6.18227 19.0106C5.1903 18.9655 4.65114 18.8003 4.29283 18.6608C3.81781 18.476 3.47887 18.2559 3.12252 17.9002C2.76617 17.5446 2.54559 17.2062 2.36147 16.7314C2.2218 16.3735 2.05656 15.8345 2.01147 14.8431C1.96215 13.7713 1.9523 13.4493 1.9523 10.7339C1.9523 8.01844 1.96296 7.69736 2.01147 6.62464C2.05665 5.63327 2.2231 5.09532 2.36147 4.73633C2.5464 4.26159 2.76666 3.92286 3.12252 3.56673C3.47839 3.21059 3.81699 2.99014 4.29283 2.80613C4.65097 2.66654 5.1903 2.50141 6.18227 2.45634C7.25474 2.40704 7.57691 2.3972 10.2928 2.3972C13.0086 2.3972 13.3311 2.40786 14.4045 2.45634C15.3964 2.50149 15.9347 2.66784 16.2939 2.80613C16.7689 2.99014 17.1079 3.21108 17.4642 3.56673C17.8206 3.92238 18.0403 4.26159 18.2253 4.73633C18.3649 5.09426 18.5302 5.63327 18.5753 6.62464C18.6246 7.69736 18.6344 8.01844 18.6344 10.7339C18.6344 13.4493 18.6246 13.7704 18.5753 14.8431C18.5301 15.8345 18.3641 16.3733 18.2253 16.7314C18.0403 17.2062 17.8201 17.5449 17.4642 17.9002C17.1084 18.2556 16.7689 18.476 16.2939 18.6608C15.9358 18.8004 15.3964 18.9655 14.4045 19.0106C13.332 19.0599 13.0098 19.0698 10.2928 19.0698C7.57569 19.0698 7.25442 19.0599 6.18227 19.0106ZM6.09803 0.627009C5.01489 0.676306 4.27476 0.847948 3.6284 1.09931C2.959 1.35889 2.39232 1.70713 1.82605 2.27217C1.25978 2.83721 0.912221 3.40444 0.652487 4.07344C0.400974 4.71982 0.229229 5.4591 0.179903 6.54159C0.129763 7.62578 0.118286 7.9724 0.118286 10.7338C0.118286 13.4952 0.129763 13.8418 0.179903 14.926C0.229229 16.0086 0.400974 16.7478 0.652487 17.3942C0.912221 18.0628 1.25986 18.6306 1.82605 19.1954C2.39224 19.7602 2.959 20.108 3.6284 20.3683C4.27598 20.6197 5.01489 20.7913 6.09803 20.8406C7.18344 20.8899 7.5297 20.9022 10.2928 20.9022C13.0558 20.9022 13.4027 20.8907 14.4875 20.8406C15.5707 20.7913 16.3104 20.6197 16.9571 20.3683C17.6261 20.108 18.1932 19.7605 18.7595 19.1954C19.3257 18.6304 19.6726 18.0628 19.933 17.3942C20.1846 16.7478 20.3571 16.0085 20.4056 14.926C20.4549 13.841 20.4664 13.4952 20.4664 10.7338C20.4664 7.9724 20.4549 7.62578 20.4056 6.54159C20.3563 5.45902 20.1846 4.71941 19.933 4.07344C19.6726 3.40485 19.3248 2.8381 18.7595 2.27217C18.1941 1.70624 17.6261 1.35889 16.9579 1.09931C16.3104 0.847948 15.5706 0.675492 14.4883 0.627009C13.4035 0.577713 13.0566 0.56543 10.2936 0.56543C7.53051 0.56543 7.18344 0.5769 6.09803 0.627009Z" fill="white"/>
</svg>
