<svg width="22" height="21" viewBox="0 0 22 21" fill="none" xmlns="http://www.w3.org/2000/svg">
<path fill-rule="evenodd" clip-rule="evenodd" d="M2.17249 0.56543C1.34216 0.56543 0.668579 1.2185 0.668579 2.02308V19.4572C0.668579 20.2618 1.34224 20.9144 2.17249 20.9144H19.5136C20.3442 20.9144 21.0175 20.2618 21.0175 19.457V2.02308C21.0175 1.2185 20.3442 0.56543 19.5136 0.56543H2.17249ZM6.85226 8.4337V17.5949H3.80723V8.4337H6.85226ZM7.05297 5.60051C7.05297 6.47965 6.39202 7.18312 5.33038 7.18312L5.31043 7.18304C4.28845 7.18304 3.62775 6.47957 3.62775 5.60043C3.62775 4.70134 4.3084 4.01751 5.35057 4.01751C6.39202 4.01751 7.03309 4.70134 7.05297 5.60051ZM11.5825 17.5949H8.53772C8.53772 17.5949 8.57763 9.29344 8.53788 8.43402H11.5828V9.73074C11.9875 9.10664 12.7119 8.21893 14.3271 8.21893C16.3304 8.21893 17.8324 9.52833 17.8324 12.3421V17.5949H14.7877V12.6944C14.7877 11.4628 14.3468 10.6227 13.2452 10.6227C12.4039 10.6227 11.9029 11.1892 11.6828 11.7365C11.6024 11.9318 11.5825 12.206 11.5825 12.4794V17.5949Z" fill="white"/>
</svg>
