<svg width="35" height="34" viewBox="0 0 35 34" fill="none" xmlns="http://www.w3.org/2000/svg">
<path d="M28.5137 9.15379C29.5993 9.15379 30.4794 8.27558 30.4794 7.19225C30.4794 6.10892 29.5993 5.23071 28.5137 5.23071C27.4281 5.23071 26.5481 6.10892 26.5481 7.19225C26.5481 8.27558 27.4281 9.15379 28.5137 9.15379Z" fill="#2D4BAA"/>
<path d="M23.272 5.23069C24.3576 5.23069 25.2377 4.35248 25.2377 3.26916C25.2377 2.18583 24.3576 1.30762 23.272 1.30762C22.1864 1.30762 21.3064 2.18583 21.3064 3.26916C21.3064 4.35248 22.1864 5.23069 23.272 5.23069Z" fill="#2D4BAA"/>
<path d="M18.0303 3.92308C19.1159 3.92308 19.996 3.04487 19.996 1.96154C19.996 0.878211 19.1159 0 18.0303 0C16.9447 0 16.0647 0.878211 16.0647 1.96154C16.0647 3.04487 16.9447 3.92308 18.0303 3.92308Z" fill="#2D4BAA"/>
<path d="M12.7886 6.53856C13.8742 6.53856 14.7543 5.66034 14.7543 4.57702C14.7543 3.49369 13.8742 2.61548 12.7886 2.61548C11.703 2.61548 10.823 3.49369 10.823 4.57702C10.823 5.66034 11.703 6.53856 12.7886 6.53856Z" fill="#2D4BAA"/>
<path d="M26.5481 7.19219V15.6922C26.5481 16.0531 26.2546 16.346 25.8929 16.346C25.5312 16.346 25.2377 16.0531 25.2377 15.6922V3.26912H21.3064V14.3845C21.3064 14.7454 21.0129 15.0383 20.6512 15.0383C20.2895 15.0383 19.996 14.7454 19.996 14.3845V1.96143H16.0647V14.3845C16.0647 14.7454 15.7712 15.0383 15.4095 15.0383C15.0478 15.0383 14.7543 14.7454 14.7543 14.3845V4.57681H10.823V20.923L8.16937 17.2993C7.38311 16.0897 5.8486 15.6843 4.72425 16.3774C3.60384 17.0862 3.32603 18.6319 4.1018 19.8376C4.1018 19.8376 8.38166 26.3015 10.2058 29.0686C12.0299 31.8357 14.9849 33.9999 20.511 33.9999C29.6604 33.9999 30.4794 26.9488 30.4794 24.846C30.4794 22.7433 30.4794 7.19219 30.4794 7.19219H26.5481Z" fill="#2D4BAA"/>
</svg>
