<svg width="16" height="17" viewBox="0 0 16 17" fill="none" xmlns="http://www.w3.org/2000/svg">
<path fill-rule="evenodd" clip-rule="evenodd" d="M9.33325 5.16667C9.33325 4.43133 8.73525 3.83333 7.99992 3.83333C7.26459 3.83333 6.66659 4.43133 6.66659 5.16667C6.66659 5.902 7.26459 6.5 7.99992 6.5C8.73525 6.5 9.33325 5.902 9.33325 5.16667ZM10.6666 5.16667C10.6666 6.63733 9.47059 7.83333 7.99992 7.83333C6.52925 7.83333 5.33325 6.63733 5.33325 5.16667C5.33325 3.696 6.52925 2.5 7.99992 2.5C9.47059 2.5 10.6666 3.696 10.6666 5.16667ZM3.33325 13.8333C3.33325 11.26 5.42725 9.16667 7.99992 9.16667C10.5726 9.16667 12.6666 11.26 12.6666 13.8333C12.6666 14.2013 12.3686 14.5 11.9999 14.5C11.6313 14.5 11.3333 14.2013 11.3333 13.8333C11.3333 11.9953 9.83792 10.5 7.99992 10.5C6.16192 10.5 4.66659 11.9953 4.66659 13.8333C4.66659 14.2013 4.36859 14.5 3.99992 14.5C3.63125 14.5 3.33325 14.2013 3.33325 13.8333Z" fill="#231F20"/>
<mask id="mask0_119_4754" style="mask-type:luminance" maskUnits="userSpaceOnUse" x="3" y="2" width="10" height="13">
<path fill-rule="evenodd" clip-rule="evenodd" d="M9.33325 5.16667C9.33325 4.43133 8.73525 3.83333 7.99992 3.83333C7.26459 3.83333 6.66659 4.43133 6.66659 5.16667C6.66659 5.902 7.26459 6.5 7.99992 6.5C8.73525 6.5 9.33325 5.902 9.33325 5.16667ZM10.6666 5.16667C10.6666 6.63733 9.47059 7.83333 7.99992 7.83333C6.52925 7.83333 5.33325 6.63733 5.33325 5.16667C5.33325 3.696 6.52925 2.5 7.99992 2.5C9.47059 2.5 10.6666 3.696 10.6666 5.16667ZM3.33325 13.8333C3.33325 11.26 5.42725 9.16667 7.99992 9.16667C10.5726 9.16667 12.6666 11.26 12.6666 13.8333C12.6666 14.2013 12.3686 14.5 11.9999 14.5C11.6313 14.5 11.3333 14.2013 11.3333 13.8333C11.3333 11.9953 9.83792 10.5 7.99992 10.5C6.16192 10.5 4.66659 11.9953 4.66659 13.8333C4.66659 14.2013 4.36859 14.5 3.99992 14.5C3.63125 14.5 3.33325 14.2013 3.33325 13.8333Z" fill="white"/>
</mask>
<g mask="url(#mask0_119_4754)">
<rect y="0.5" width="16" height="16" fill="black"/>
</g>
</svg>
