<svg width="35" height="34" viewBox="0 0 35 34" fill="none" xmlns="http://www.w3.org/2000/svg">
<g clip-path="url(#clip0_126_1240)">
<path d="M33.4125 0.00418812C26.7615 -0.114812 19.1764 3.3546 14.3752 8.73652C9.787 8.82294 5.31942 10.7 2.03014 13.9824C1.83849 14.1709 1.77035 14.4528 1.85411 14.7078C1.93928 14.9642 2.16075 15.1498 2.42764 15.188L7.89889 15.97L7.22315 16.7251C6.97187 17.0056 6.98465 17.432 7.25154 17.6984L16.3755 26.8033C16.5132 26.9407 16.6949 27.0101 16.8781 27.0101C17.047 27.0101 17.2159 26.9506 17.3508 26.8302L18.1075 26.1559L18.8911 31.6157C18.9294 31.882 19.1395 32.0775 19.3936 32.1625C19.4589 32.1838 19.5271 32.1937 19.5967 32.1937C19.7982 32.1937 20.0041 32.1059 20.146 31.9656C23.3899 28.7285 25.2709 24.2703 25.3575 19.6916C30.7564 14.8905 34.2614 7.3241 34.1067 0.695521C34.0968 0.318688 33.7915 0.0141048 33.4125 0.00418812ZM26.8708 12.2329C26.1795 12.9228 25.2709 13.2684 24.3609 13.2684C23.451 13.2684 22.5424 12.9228 21.851 12.2329C20.4683 10.8516 20.4683 8.60477 21.851 7.22352C23.2352 5.84227 25.4867 5.84227 26.8708 7.22352C28.255 8.60477 28.255 10.853 26.8708 12.2329Z" fill="#2D4BAA"/>
<path d="M3.90683 23.9487C2.38782 25.4646 0.302386 32.3127 0.0695666 33.0876C-0.00567385 33.337 0.0638881 33.6076 0.24702 33.7917C0.383305 33.9277 0.563598 34 0.74957 34C0.817712 34 0.885854 33.9901 0.953996 33.9702C1.73053 33.7379 8.59303 31.6568 10.112 30.141C11.8227 28.4339 11.8227 25.6558 10.112 23.9487C8.39996 22.2416 5.61748 22.2431 3.90683 23.9487Z" fill="#2D4BAA"/>
</g>
<defs>
<clipPath id="clip0_126_1240">
<rect width="34.0711" height="34" fill="white" transform="translate(0.0397949)"/>
</clipPath>
</defs>
</svg>
