<svg width="34" height="34" viewBox="0 0 34 34" fill="none" xmlns="http://www.w3.org/2000/svg">
<g clip-path="url(#clip0_126_1252)">
<path d="M30.428 7.80297L17.5795 0.159275C17.2225 -0.0530918 16.7778 -0.0530918 16.4207 0.159275L3.57221 7.80297C3.22882 8.0073 3.01831 8.37745 3.01831 8.77701V13.1404C3.01831 22.3306 8.32815 30.7245 16.5909 33.9235C16.8539 34.0254 17.146 34.0255 17.4093 33.9235C25.6519 30.7324 30.9818 22.3568 30.9818 13.1404V8.77701C30.9818 8.37738 30.7714 8.0073 30.428 7.80297ZM22.5993 14.4533L15.4961 21.5565C15.0535 21.9991 14.3359 21.9991 13.8933 21.5565L11.4004 19.0637C10.9578 18.6211 10.9578 17.9035 11.4004 17.4609C11.843 17.0184 12.5607 17.0184 13.0032 17.4609L14.6947 19.1523L20.9965 12.8505C21.439 12.408 22.1567 12.408 22.5993 12.8505C23.0419 13.2932 23.0419 14.0108 22.5993 14.4533Z" fill="#2D4BAA"/>
</g>
<defs>
<clipPath id="clip0_126_1252">
<rect width="34" height="34" fill="white"/>
</clipPath>
</defs>
</svg>
