<svg width="17" height="18" viewBox="0 0 17 18" fill="none" xmlns="http://www.w3.org/2000/svg">
<path fill-rule="evenodd" clip-rule="evenodd" d="M12.1175 6.22029C13.2595 7.03217 14.6272 7.46594 16.0284 7.46068V4.68369C15.7529 4.68445 15.4782 4.65496 15.2092 4.59575V6.80809C13.8048 6.81058 12.4352 6.37183 11.2936 5.55381V11.2652C11.2902 12.2023 11.0332 13.1211 10.5499 13.9241C10.0665 14.727 9.37495 15.3842 8.5484 15.826C7.72185 16.2677 6.79116 16.4775 5.85503 16.4332C4.91889 16.3889 4.0122 16.092 3.2311 15.5741C3.9536 16.3051 4.87677 16.8053 5.88373 17.0113C6.89068 17.2173 7.93611 17.1199 8.88765 16.7313C9.83919 16.3428 10.654 15.6806 11.229 14.8287C11.8039 13.9767 12.1132 12.9733 12.1175 11.9455V6.22029ZM13.1311 3.38776C12.5503 2.75826 12.1939 1.95442 12.1175 1.10137V0.740359H11.3399C11.436 1.2826 11.6452 1.79855 11.9538 2.25466C12.2624 2.71077 12.6635 3.09684 13.1311 3.38776ZM5.03151 13.3757C4.76201 13.0233 4.59686 12.6023 4.55484 12.1606C4.51283 11.719 4.59564 11.2744 4.79385 10.8775C4.99207 10.4805 5.29772 10.1472 5.67603 9.9155C6.05435 9.68375 6.49012 9.56285 6.93375 9.56657C7.17869 9.5665 7.42219 9.60396 7.65577 9.67765V6.80809C7.38272 6.77193 7.10732 6.75645 6.83193 6.76181V8.99266C6.26316 8.81287 5.64756 8.85375 5.10757 9.10718C4.56758 9.3606 4.14276 9.808 3.9176 10.3604C3.69245 10.9128 3.68347 11.5296 3.89243 12.0884C4.1014 12.6471 4.51301 13.1066 5.0454 13.3757H5.03151Z" fill="white"/>
<path fill-rule="evenodd" clip-rule="evenodd" d="M11.2932 5.5353C12.4348 6.35332 13.8044 6.79206 15.2088 6.78958V4.57724C14.4086 4.40806 13.6818 3.99202 13.1307 3.38776C12.6631 3.09684 12.262 2.71077 11.9534 2.25466C11.6448 1.79855 11.4356 1.2826 11.3395 0.740359H9.2938V11.9455C9.29189 12.4415 9.13472 12.9244 8.84433 13.3265C8.55395 13.7286 8.14493 14.0297 7.67471 14.1874C7.20449 14.3452 6.69667 14.3517 6.22254 14.2061C5.7484 14.0606 5.33177 13.7701 5.03112 13.3757C4.55464 13.1353 4.17306 12.7413 3.94794 12.2575C3.72282 11.7736 3.66728 11.228 3.79029 10.7086C3.9133 10.1893 4.20768 9.72659 4.62594 9.3951C5.0442 9.06362 5.56194 8.88271 6.09563 8.88158C6.3405 8.88236 6.58387 8.9198 6.81765 8.99266V6.76181C5.80756 6.78605 4.82653 7.1047 3.99498 7.67863C3.16344 8.25257 2.51756 9.05681 2.13665 9.99264C1.75573 10.9285 1.65635 11.9551 1.8507 12.9467C2.04505 13.9382 2.52468 14.8514 3.2307 15.5741C4.01196 16.0957 4.92008 16.3956 5.85832 16.4419C6.79656 16.4882 7.72978 16.2791 8.55858 15.8369C9.38739 15.3947 10.0807 14.736 10.5647 13.9309C11.0488 13.1258 11.3053 12.2045 11.3071 11.2652L11.2932 5.5353Z" fill="white"/>
<path fill-rule="evenodd" clip-rule="evenodd" d="M15.2088 4.57724L15.209 3.97999C14.4742 3.98312 13.7538 3.77788 13.1311 3.38776C13.6808 3.99376 14.4079 4.41015 15.2088 4.57724ZM11.3399 0.740359C11.3399 0.633908 11.3074 0.522636 11.2935 0.416185V0.0551758H8.47021V11.265C8.46776 11.8927 8.21638 12.4937 7.77124 12.9363C7.3261 13.3788 6.72357 13.6266 6.09589 13.6254C5.7263 13.6273 5.36166 13.5418 5.03151 13.3757C5.33217 13.7701 5.7484 14.0606 6.22254 14.2061C6.69667 14.3517 7.20449 14.3452 7.67471 14.1874C8.14493 14.0297 8.55395 13.7286 8.84433 13.3265C9.13472 12.9244 9.29189 12.4415 9.2938 11.9455V0.740359H11.3399ZM6.8179 6.75699V6.12291C5.65615 5.96508 4.47518 6.2054 3.46749 6.80468C2.45979 7.40397 1.68478 8.32689 1.26876 9.42303C0.852743 10.5192 0.820249 11.7239 1.17657 12.8409C1.5329 13.9578 2.25717 14.9214 3.2311 15.5741C2.53042 14.8497 2.05576 13.9367 1.86538 12.947C1.675 11.9573 1.77699 10.9335 2.1589 10.0008C2.54081 9.06814 3.18611 8.26688 4.01595 7.69492C4.84579 7.12297 5.82425 6.80509 6.83179 6.78013L6.8179 6.75699Z" fill="white"/>
</svg>
