<svg width="21" height="18" viewBox="0 0 21 18" fill="none" xmlns="http://www.w3.org/2000/svg">
<path fill-rule="evenodd" clip-rule="evenodd" d="M20.793 2.83262C20.04 3.16715 19.2296 3.39244 18.3797 3.49416C19.2474 2.97393 19.9137 2.15058 20.2271 1.16952C19.416 1.65152 18.5155 2.00039 17.559 2.1895C16.7924 1.37297 15.6993 0.862305 14.4916 0.862305C12.1711 0.862305 10.2895 2.74386 10.2895 5.0644C10.2895 5.39347 10.3271 5.71435 10.3987 6.02225C6.90599 5.84748 3.80989 4.17415 1.73717 1.63172C1.37533 2.25231 1.16847 2.97394 1.16847 3.74404C1.16847 5.20164 1.90921 6.48787 3.03774 7.24158C2.3482 7.21974 1.70099 7.03062 1.13365 6.71589V6.76846C1.13365 8.80499 2.58305 10.5029 4.5042 10.89C4.15193 10.9856 3.78053 11.0375 3.39753 11.0375C3.12649 11.0375 2.86296 11.0108 2.60626 10.9617C3.14083 12.6309 4.69332 13.8461 6.53186 13.8803C5.09407 15.0068 3.28215 15.6792 1.31321 15.6792C0.973215 15.6792 0.638687 15.6594 0.310303 15.6198C2.17001 16.8118 4.37859 17.5082 6.75169 17.5082C14.4807 17.5082 18.7074 11.105 18.7074 5.55254C18.7074 5.37026 18.7039 5.18866 18.6951 5.00911C19.5171 4.41515 20.2298 3.67508 20.793 2.83262Z" fill="white"/>
</svg>
