<svg width="24" height="17" viewBox="0 0 24 17" fill="none" xmlns="http://www.w3.org/2000/svg">
<path fill-rule="evenodd" clip-rule="evenodd" d="M22.3057 1.85674C22.6587 2.20978 22.9131 2.64915 23.0436 3.1311C23.7945 6.15382 23.621 10.9278 23.0581 14.0671C22.9277 14.5491 22.6733 14.9884 22.3203 15.3415C21.9672 15.6945 21.5279 15.9489 21.0459 16.0794C19.2816 16.5605 12.1805 16.5605 12.1805 16.5605C12.1805 16.5605 5.07934 16.5605 3.315 16.0794C2.83305 15.9489 2.39367 15.6945 2.04063 15.3415C1.68758 14.9884 1.43319 14.5491 1.30277 14.0671C0.547459 11.0575 0.754515 6.28068 1.28819 3.14569C1.4186 2.66374 1.673 2.22436 2.02605 1.87132C2.37909 1.51827 2.81847 1.26387 3.30042 1.13346C5.06476 0.652273 12.1659 0.637695 12.1659 0.637695C12.1659 0.637695 19.267 0.637695 21.0313 1.11888C21.5133 1.2493 21.9527 1.50369 22.3057 1.85674ZM15.7966 8.59911L9.90576 12.0111V5.18707L15.7966 8.59911Z" fill="white"/>
</svg>
