<svg id="Logo" xmlns="http://www.w3.org/2000/svg" viewBox="0 0 883.01 219.95"><defs><style>.cls-1{fill:#18233d;}.cls-2{fill:#2957a4;}.cls-3{fill:#2ba337;}.cls-4{fill:#223565;}.cls-5{fill:#025b9e;}</style></defs><title>Logo-MacroSifter</title><g id="Finish"><path class="cls-1" d="M140.15,486.22h.58L197,362.38l20.07,6.92a5.83,5.83,0,0,1,3.56,8L162.7,498a24.38,24.38,0,0,1-22.09,13.45h0a25.1,25.1,0,0,1-22.67-13.71L59.09,377.3a5.83,5.83,0,0,1,3.5-8l19.52-6.88Z" transform="translate(-58.51 -361.36)"/><polygon class="cls-2" points="32.16 0 81.36 109.22 130.85 0 32.16 0"/><path class="cls-3" d="M142.81,521.42a1.26,1.26,0,0,0-2.2.47c-.26.49-1.54,2.24-2.89,4.08-6.24,8.5-17.85,24.31-17.85,33.37a22,22,0,1,0,43.93,0c0-11.74-20.13-36.86-21-37.92Z" transform="translate(-58.51 -361.36)"/><path class="cls-4" d="M345.36,427.36v90.19H328.51v-57l-22.87,57H293.48l-22.75-56.72v56.72h-17V427.36h18.9l27,66.8,27-66.8Z" transform="translate(-58.51 -361.36)"/><path class="cls-4" d="M367.69,508.18q-9-10.4-9-26.55t8.91-26.42a28.64,28.64,0,0,1,22.63-10.27q13.72,0,20.94,12.14V446H428v71.58H411.2v-12q-7.58,13.05-21.06,13A28.41,28.41,0,0,1,367.69,508.18Zm38.22-11q5.29-5.62,5.3-15.44t-5.3-15.44a16.48,16.48,0,0,0-24.73-.06q-5.24,5.56-5.24,15.38t5.3,15.51a16.29,16.29,0,0,0,24.68.06Z" transform="translate(-58.51 -361.36)"/><path class="cls-4" d="M450.56,508.5q-9.15-10.08-9.15-26.75T450.56,455q9.14-10.08,23.71-10.08,12.16,0,20.34,6.33t11,18h-18.3q-3.25-8.91-13-8.92a13.4,13.4,0,0,0-11.5,5.75q-4.15,5.75-4.15,15.7t4.15,15.7a13.39,13.39,0,0,0,11.5,5.75q9.63,0,13-9h18.3A32.4,32.4,0,0,1,494.43,512q-8.25,6.59-20.16,6.59Q459.7,518.58,450.56,508.5Z" transform="translate(-58.51 -361.36)"/><path class="cls-4" d="M535.29,446v12.66q6.74-13.69,19.5-13.7v18.61h-4.21q-7.58,0-11.43,4.07t-3.85,14v35.92h-17V446Z" transform="translate(-58.51 -361.36)"/><path class="cls-4" d="M572,508.37q-9.75-10.21-9.75-26.75T572.12,455a34.81,34.81,0,0,1,49,0Q631,465.09,631,481.63t-9.93,26.75a33,33,0,0,1-24.61,10.21Q581.75,518.58,572,508.37Zm24.43-5.17a16,16,0,0,0,12.22-5.62q5.12-5.62,5.12-15.89t-5.05-15.83a15.93,15.93,0,0,0-12.22-5.56,15.57,15.57,0,0,0-12.1,5.56q-4.94,5.56-4.93,15.89t4.93,15.89A15.5,15.5,0,0,0,596.44,503.2Z" transform="translate(-58.51 -361.36)"/><path class="cls-5" d="M670.46,438.6a14.65,14.65,0,0,0-10,3.36q-3.85,3.36-3.85,9.76t4.57,9.75a30.36,30.36,0,0,0,11.07,4.91q6.5,1.55,13,3.55a23.21,23.21,0,0,1,11.07,7.43q4.57,5.43,4.57,15.38t-7.82,17.83q-7.83,7.88-20.94,7.88t-21.3-6.59q-8.19-6.59-8.18-18.22h14.68a14.19,14.19,0,0,0,4.09,9.43q3.61,3.49,10.59,3.49t11-3.88a12.31,12.31,0,0,0,4-9.17q0-5.3-2.47-8.27a15.06,15.06,0,0,0-6.38-4.46,75.65,75.65,0,0,0-8.61-2.65q-4.69-1.16-9.45-2.71a38.88,38.88,0,0,1-8.67-4,18.11,18.11,0,0,1-6.38-7.17,24.7,24.7,0,0,1-2.47-11.57q0-11.75,7.88-18.93T671,426.58q12.58,0,20.1,6.2t8.37,18H684.3a13.38,13.38,0,0,0-4.09-8.66Q676.6,438.6,670.46,438.6Z" transform="translate(-58.51 -361.36)"/><rect class="cls-5" x="658.65" y="85" width="13.72" height="71.19"/><rect class="cls-5" x="658.65" y="56.88" width="13.72" height="14.73"/><path class="cls-5" d="M776.74,446.35v12H764.46v59.18H750.62V458.37H742.8v-12h7.82v-5q0-12.27,6.08-17.9t19.08-5.62v12.28q-6.26,0-8.79,2.52t-2.53,8.72v5Z" transform="translate(-58.51 -361.36)"/><path class="cls-5" d="M821,458.37H804.9v39.41q0,4,1.75,5.75t6,1.74H821v12.27H810.2q-19.14,0-19.14-19.77V458.37h-7.82v-12h7.82v-17.7H804.9v17.7H821Z" transform="translate(-58.51 -361.36)"/><path class="cls-5" d="M861.6,518.71q-14.44,0-23.47-10.08t-9-26.75q0-16.67,9.15-26.68t23.65-10q14.5,0,23.53,9.63t9,25.13a47.47,47.47,0,0,1-.48,7H843.18q.48,8.91,5.6,14.15a17.19,17.19,0,0,0,12.82,5.23q11.19,0,15.77-9.95h14.8a31.91,31.91,0,0,1-11,16.09Q873.27,518.71,861.6,518.71Zm13.12-55.88a17.64,17.64,0,0,0-12.88-5.23,17,17,0,0,0-12.7,5.23q-5.12,5.23-5.84,14h36.83Q880,468.06,874.72,462.83Z" transform="translate(-58.51 -361.36)"/><path class="cls-5" d="M921.66,446.35v12.4q6.38-13.57,19.86-13.57v15.25H938q-8.06,0-12.22,4.39t-4.15,15.25v37.47H907.94V446.35Z" transform="translate(-58.51 -361.36)"/></g></svg>