<svg width="401" height="269" viewBox="0 0 401 269" fill="none" xmlns="http://www.w3.org/2000/svg">
<path fill-rule="evenodd" clip-rule="evenodd" d="M181.171 227.162C157.76 233.728 117.402 236.433 65.9663 236.899C18.2336 237.667 -0.815587 242.879 0.0317402 251.508C5.77473 264.822 84.7958 270.461 220.243 268.667C332.058 267.301 384.059 258.469 398.903 244.354C421.404 220.091 252.974 207.342 181.171 227.162Z" fill="url(#paint0_linear_119_5466)"/>
<path opacity="0.1" d="M89.8995 43.9453H278.831V239.576H89.8995V43.9453Z" fill="#72D8ED"/>
<path d="M368.944 242.53V225.006H361.369L365.914 242.53H368.944Z" fill="#292678"/>
<path d="M339.792 242.53V225.006H347.742L342.97 242.53H339.792Z" fill="#292678"/>
<path d="M369.764 154.917C369.57 139.503 370.248 126.402 370.978 117.124C371.347 112.434 371.729 108.72 372.02 106.178C372.165 104.907 372.287 103.929 372.373 103.268C372.406 103.016 372.433 102.81 372.455 102.652L358.094 96.9315H346.46L331.056 104.603L332.939 154.917H369.764Z" fill="white" stroke="black"/>
<path d="M353.075 116.447L353.075 116.449C353.378 117.685 353.735 119.006 354.146 120.373L354.146 120.374C356.158 127.085 359.354 134.919 362.838 140.255C364.586 142.934 366.367 144.921 368.057 145.855C368.893 146.317 369.681 146.507 370.421 146.423C371.157 146.34 371.904 145.98 372.65 145.236L372.651 145.236C376.482 141.421 378.44 135.047 379.424 128.677C380.406 122.329 380.406 116.098 380.406 112.657C380.406 109.423 378.551 106.968 376.627 105.292C375.669 104.457 374.708 103.83 373.987 103.411C373.751 103.273 373.541 103.159 373.365 103.067C372.693 106.618 372.164 112.9 371.798 118.462C371.604 121.407 371.456 124.138 371.357 126.133C371.307 127.131 371.27 127.944 371.245 128.507C371.232 128.789 371.223 129.009 371.217 129.158L371.209 129.327L371.208 129.37L371.207 129.381L371.207 129.384L371.207 129.384C371.207 129.385 371.207 129.385 370.707 129.365L371.207 129.385L371.137 131.113L370.274 129.614L360.934 113.396L360.934 113.396L359.439 110.797L352.343 113.005C352.523 114.05 352.769 115.215 353.075 116.447Z" fill="white" stroke="black"/>
<path d="M356.67 135.948L356.67 135.948L331.586 133.686L331.148 133.647L331.131 133.207L330.094 105.43C329.982 105.545 329.859 105.675 329.726 105.819C329.013 106.597 328.029 107.802 326.966 109.496C324.841 112.881 322.395 118.224 321.168 126.02C319.94 133.822 321.191 138.412 323.804 141.068C326.433 143.74 330.575 144.599 335.481 144.599H356.715H356.727H356.739H356.751H356.764H356.776H356.788H356.8H356.812H356.825H356.837H356.849H356.861H356.873H356.885H356.897H356.909H356.921H356.933H356.945H356.957H356.969H356.981H356.993H357.005H357.017H357.029H357.041H357.052H357.064H357.076H357.088H357.1H357.111H357.123H357.135H357.146H357.158H357.17H357.181H357.193H357.205H357.216H357.228H357.239H357.251H357.262H357.274H357.285H357.297H357.308H357.32H357.331H357.342H357.354H357.365H357.376H357.388H357.399H357.41H357.422H357.433H357.444H357.455H357.466H357.477H357.489H357.5H357.511H357.522H357.533H357.544H357.555H357.566H357.577H357.588H357.599H357.61H357.621H357.632H357.643H357.653H357.664H357.675H357.686H357.697H357.707H357.718H357.729H357.74H357.75H357.761H357.772H357.782H357.793H357.803H357.814H357.824H357.835H357.845H357.856H357.866H357.877H357.887H357.898H357.908H357.918H357.929H357.939H357.949H357.96H357.97H357.98H357.99H358.001H358.011H358.021H358.031H358.041H358.051H358.061H358.071H358.081H358.092H358.102H358.112H358.121H358.131H358.141H358.151H358.161H358.171H358.181H358.191H358.2H358.21H358.22H358.23H358.239H358.249H358.259H358.268H358.278H358.288H358.297H358.307H358.316H358.326H358.335H358.345H358.354H358.364H358.373H358.383H358.392H358.401H358.411H358.42H358.429H358.439H358.448H358.457H358.466H358.475H358.485H358.494H358.503H358.512H358.521H358.53H358.539H358.548H358.557H358.566H358.575H358.584H358.593H358.602H358.611H358.619H358.628H358.637H358.646H358.655H358.663H358.672H358.681H358.689H358.698H358.707H358.715H358.724H358.732H358.741H358.749H358.758H358.766H358.775H358.783H358.792H358.8H358.808H358.817H358.825H358.833H358.841H358.85H358.858H358.866H358.874H358.882H358.891H358.899H358.907H358.915H358.923H358.931H358.939H358.947H358.955H358.963H358.971H358.978H358.986H358.994H359.002H359.01H359.017H359.025H359.033H359.041H359.048H359.056H359.063H359.071H359.079H359.086H359.094H359.101H359.109H359.116H359.124H359.131H359.138H359.146H359.153H359.16H359.168H359.175H359.182H359.189H359.196H359.204H359.211H359.218H359.225H359.232H359.239H359.246H359.253H359.26H359.267H359.274H359.281H359.288H359.295H359.301H359.308H359.315H359.322H359.329H359.335H359.342H359.349H359.355H359.362H359.368H359.375H359.381H359.388H359.394H359.401H359.407H359.414H359.42H359.427H359.433H359.439H359.445H359.452H359.458H359.464H359.47H359.477H359.483H359.489H359.495H359.501H359.507H359.513H359.519H359.525H359.531H359.537H359.543H359.549H359.554H359.56H359.566H359.572H359.577H359.583H359.589H359.594H359.6H359.606H359.611H359.617H359.622H359.628H359.633H359.639H359.644H359.65H359.655H359.66H359.666H359.671H359.674V136.219L356.67 135.948Z" fill="white" stroke="black"/>
<path d="M360.173 137.721C360.173 137.721 369.06 137.231 369.552 145.091H360.173V137.721Z" fill="#F9A28B"/>
<path d="M288.086 231.118L300.878 233.574L316.723 178.523C316.723 178.523 336.895 180 353.404 182.457C369.905 184.914 369.561 163.285 369.561 163.285V155.425H343.22C343.22 155.425 317.309 154.484 305.212 157.096C302.143 157.757 299.964 158.651 299.324 159.849C298.84 160.75 298.246 163.036 297.582 166.263C293.881 184.175 288.086 231.118 288.086 231.118Z" fill="#2D4BAA"/>
<path d="M317.214 171.641L329.061 217.845L318.698 223.249L302.4 194.25L317.214 171.641Z" fill="#2D4BAA"/>
<path d="M185.532 228.07L184.728 234.95H193.131L193.935 228.56L185.532 228.07Z" fill="#F9A28B"/>
<path d="M213.185 228.56V234.95H221.088L221.58 228.56H213.185Z" fill="#F9A28B"/>
<path d="M233.927 103.211L223.064 231.017H211.709V123.86V103.211H233.927Z" fill="#2D4BAA"/>
<path d="M225.041 103.211L215.662 118.947L194.92 231.017H181.589L197.388 103.211H225.041Z" fill="#2D4BAA"/>
<path d="M196.696 60.9844C197.55 70.2643 198.351 83.3676 198.16 98.7838H233.51L236.362 48.467L220.964 40.7985H209.331L194.978 46.5156C195.003 46.6731 195.034 46.8766 195.071 47.1248C195.171 47.7862 195.313 48.7648 195.482 50.0362C195.819 52.5791 196.264 56.2935 196.696 60.9844Z" fill="white" stroke="black"/>
<path d="M196.894 99.2836H234.91V103.707H196.894V99.2836Z" fill="#72D8ED"/>
<path d="M279.957 74.3429L281.893 73.9231C281.893 73.9231 284.58 71.0931 286.017 69.9503C287.461 68.8074 287.516 70.6422 285.548 72.9046C285.548 72.9046 290.796 69.4449 292.545 72.5159C294.474 75.9056 291.436 78.7899 284.611 78.8055L282.565 79.4819L279.957 74.3429Z" fill="#F9A28B"/>
<path d="M251.603 99.2832L251.604 99.2831C251.876 99.229 252.387 99.0221 253.134 98.6469C253.864 98.2804 254.772 97.7776 255.816 97.1689C257.903 95.9519 260.51 94.3242 263.275 92.5482C268.804 88.9968 274.943 84.8636 278.769 82.2638L278.769 82.2633C279.917 81.4865 280.855 80.8456 281.506 80.3991C281.782 80.2099 282.007 80.0557 282.174 79.9407L279.086 73.3624L275.265 74.698L275.263 74.6984L274.007 75.1411L274.006 75.1415L252.843 82.5506L252.35 82.723L252.199 82.2236L252.678 82.0787C252.199 82.2236 252.199 82.2235 252.199 82.2234L252.199 82.2224L252.197 82.2183L252.192 82.2018L252.172 82.136C252.155 82.0777 252.128 81.991 252.093 81.8777C252.023 81.6511 251.919 81.318 251.785 80.8928C251.517 80.0424 251.126 78.8236 250.637 77.3517C249.659 74.4073 248.289 70.4525 246.72 66.4073C245.149 62.3594 243.383 58.2335 241.615 54.9414C240.731 53.2948 239.853 51.869 239.005 50.7695C238.379 49.9572 237.789 49.3495 237.248 48.9573L231.501 81.9332C231.509 81.9428 231.517 81.9528 231.526 81.9631C231.642 82.0989 231.814 82.2983 232.034 82.5518C232.474 83.0589 233.108 83.7827 233.885 84.6484C235.44 86.3802 237.562 88.6773 239.837 90.9421C242.114 93.2096 244.531 95.4324 246.677 97.0236C247.751 97.8198 248.742 98.4464 249.603 98.8425C250.479 99.2459 251.145 99.3749 251.603 99.2832Z" fill="white" stroke="black"/>
<path d="M275.106 74.2204L279.05 82.6713C281.346 81.1164 282.806 80.1057 282.806 80.1057L279.347 72.7355L275.106 74.2204Z" fill="#2D4BAA"/>
<path d="M152.297 71.8868L150.36 71.467C150.36 71.467 147.674 68.6371 146.237 67.4942C144.792 66.3514 144.738 68.1861 146.706 70.4485C146.706 70.4485 141.458 66.9889 139.708 70.0598C137.779 73.4495 140.817 76.3339 147.643 76.3494L149.689 77.0258L152.297 71.8868Z" fill="#F9A28B"/>
<path d="M195.003 46.5015C194.462 46.8937 193.872 47.5014 193.246 48.3137C192.398 49.4132 191.52 50.839 190.636 52.4856C188.868 55.7777 187.102 59.9036 185.531 63.9515C183.962 67.9967 182.592 71.9515 181.614 74.8959C181.125 76.3678 180.734 77.5866 180.466 78.437C180.332 78.8622 180.228 79.1953 180.158 79.422C180.123 79.5353 180.096 79.6219 180.079 79.6802L180.058 79.746L180.053 79.7625L180.052 79.7666L180.052 79.7676C180.052 79.7678 180.052 79.7678 179.573 79.6229L180.052 79.7678L179.901 80.2672L179.408 80.0948L158.245 72.6857L158.244 72.6853L156.988 72.2426L156.986 72.2422L153.165 70.9066L150.077 77.4849C150.244 77.5999 150.469 77.7542 150.745 77.9433C151.396 78.3898 152.334 79.0307 153.481 79.8076L153.482 79.808C157.308 82.4078 163.447 86.541 168.976 90.0924C171.741 91.8684 174.348 93.4961 176.435 94.7131C177.479 95.3218 178.387 95.8247 179.117 96.1912C179.864 96.5663 180.375 96.7733 180.647 96.8274L180.648 96.8274C181.106 96.9192 181.772 96.7901 182.648 96.3867C183.509 95.9906 184.5 95.364 185.574 94.5678C187.72 92.9766 190.137 90.7538 192.414 88.4863C194.689 86.2215 196.811 83.9244 198.366 82.1926C199.143 81.3269 199.777 80.6031 200.217 80.096C200.437 79.8425 200.609 79.6431 200.725 79.5073C200.734 79.497 200.742 79.487 200.75 79.4774L195.003 46.5015Z" fill="white" stroke="black"/>
<path d="M157.147 71.7622L153.203 80.2131C150.907 78.6582 149.447 77.6475 149.447 77.6475L152.906 70.2772L157.147 71.7622Z" fill="#2D4BAA"/>
<path d="M213.794 25.1689L211.35 40.1738L217.277 44.613L220.752 41.4799L221.01 28.4342L213.794 25.1689Z" fill="#F9A28B"/>
<path d="M210.32 18.5236C210.32 18.5236 208.773 38.2243 224.619 36.3973C240.464 34.5703 228.227 11.2156 228.227 11.2156L212.639 13.9522L210.32 18.5236Z" fill="#F9A28B"/>
<path d="M212.382 21.5232C212.382 21.5232 208.259 16.0421 204.526 18.9109C200.793 21.7797 203.495 29.9974 208.517 29.0878C213.538 28.1782 214.702 26.6077 214.702 26.6077L212.382 21.5232Z" fill="#F9A28B"/>
<path d="M213.412 26.4762L215.473 17.3411C215.473 17.3411 233.247 18.5151 237.753 14.0758C242.259 9.63654 243.806 2.72498 241.104 1.93975C238.402 1.15452 230.803 8.46259 230.803 8.46259C230.803 8.46259 231.701 -2.103 228.226 0.377072C224.751 2.85715 224.493 7.16424 224.493 7.16424C224.493 7.16424 210.967 7.8173 210.069 10.4295C209.171 13.0418 209.944 13.6948 209.944 13.6948C209.944 13.6948 207.242 12.6531 206.852 13.9592C206.453 15.2575 213.412 26.4762 213.412 26.4762Z" fill="black"/>
<path d="M220.925 36.1332L214.295 32.207L220.605 40.8445L220.925 36.1332Z" fill="#F9A28B"/>
<path d="M232.765 27.9535C232.765 27.9535 228.759 23.2888 221.972 25.8622C215.178 28.4355 214.054 22.1615 214.054 22.1615L212.835 26.7485C212.835 26.7485 211.789 30.2081 213.53 33.349C215.272 36.49 222.933 40.1051 222.933 40.1051C222.933 40.1051 234.85 38.659 232.765 27.9535Z" fill="black"/>
<path d="M327.295 218.787L328.685 222.558L322.375 225.574L320.673 222.177L327.295 218.787Z" fill="#F9A28B"/>
<path d="M331.545 228.901L328.687 222.557L322.377 225.574L314.294 238.2L331.545 228.901Z" fill="#292678"/>
<path d="M323.322 229.088L318.902 227.642" stroke="#72D8ED" stroke-width="4" stroke-miterlimit="10"/>
<path d="M320.862 230.915L317.496 229.827" stroke="#72D8ED" stroke-width="4" stroke-miterlimit="10"/>
<path d="M298.776 233.045L297.511 237.065L290.568 235.564L291.201 231.537L298.776 233.045Z" fill="#F9A28B"/>
<path d="M297.51 237.064L295.784 243.727L278.369 239.116L290.568 235.563L297.51 237.064Z" fill="#292678"/>
<path d="M288.218 234.85L288.553 238.2" stroke="#72D8ED" stroke-width="4" stroke-miterlimit="10"/>
<path d="M285.774 235.689L285.945 238.449" stroke="#72D8ED" stroke-width="4" stroke-miterlimit="10"/>
<path d="M213.185 233.442L212.505 241.247L231.677 242.033L220.705 234.11L213.185 233.442Z" fill="#292678"/>
<path d="M223.331 234.119L221.784 237.648" stroke="#72D8ED" stroke-width="4" stroke-miterlimit="10"/>
<path d="M225.486 235.836L224.314 238.783" stroke="#72D8ED" stroke-width="4" stroke-miterlimit="10"/>
<path d="M192.827 232.999L193.913 242.111L174.545 241.885L185.244 233.333L192.827 232.999Z" fill="#292678"/>
<path d="M182.588 233.193L184.338 237.376" stroke="#72D8ED" stroke-width="4" stroke-miterlimit="10"/>
<path d="M180.496 235.059L181.831 238.549" stroke="#72D8ED" stroke-width="4" stroke-miterlimit="10"/>
<path d="M317.832 177.892L308.742 205.531L312.787 212.069L317.832 177.892Z" fill="#1A1A56"/>
<path d="M221.284 118.341L213.717 123.62L211.444 140.389L212.202 159.048L215.224 125.501L221.284 118.341Z" fill="#1A1A56"/>
<path d="M334.044 226.142H375.824C377.043 226.142 378.034 225.162 378.034 223.941V186.562C378.034 183.436 375.489 180.902 372.349 180.902H337.527C334.388 180.902 331.842 183.436 331.842 186.562V223.941C331.842 225.154 332.826 226.142 334.044 226.142Z" fill="#72D8ED"/>
<path d="M223.681 41.5742L217.496 47.856L208.156 40.8201" stroke="#2D4BAA" stroke-width="4" stroke-miterlimit="10"/>
<path d="M357.996 69.7018C357.996 69.7018 360.518 68.8622 361.783 71.7154C363.048 74.5609 360.44 81.2626 360.44 81.2626L357.246 77.8262L357.668 69.7873L357.996 69.7018Z" fill="black"/>
<path d="M350.902 101.654L356.405 97.6328L354.055 83.5669L347.545 86.438L347.799 98.9303L350.902 101.654Z" fill="white" stroke="black"/>
<mask id="path-49-inside-1_119_5466" fill="white">
<path fill-rule="evenodd" clip-rule="evenodd" d="M358.048 77.1296C358.037 76.5424 358.009 76.202 358.009 76.202L355.628 71.6305L339.642 68.8939C339.642 68.8939 327.092 92.2485 343.343 94.0756C351.366 94.9774 355.042 90.6334 356.707 86.0029C357.54 86.276 358.575 86.5425 359.855 86.7683C365.009 87.6779 367.789 79.4602 363.955 76.5914C361.848 75.0157 359.624 75.9591 358.048 77.1296Z"/>
</mask>
<path fill-rule="evenodd" clip-rule="evenodd" d="M358.048 77.1296C358.037 76.5424 358.009 76.202 358.009 76.202L355.628 71.6305L339.642 68.8939C339.642 68.8939 327.092 92.2485 343.343 94.0756C351.366 94.9774 355.042 90.6334 356.707 86.0029C357.54 86.276 358.575 86.5425 359.855 86.7683C365.009 87.6779 367.789 79.4602 363.955 76.5914C361.848 75.0157 359.624 75.9591 358.048 77.1296Z" fill="white"/>
<path d="M358.009 76.202L358.896 75.7399L358.99 75.9197L359.006 76.1217L358.009 76.202ZM358.048 77.1296L358.644 77.9326L357.083 79.091L357.048 77.1478L358.048 77.1296ZM355.628 71.6305L355.796 70.6449L356.285 70.7286L356.514 71.1685L355.628 71.6305ZM339.642 68.8939L338.761 68.4206L339.101 67.7869L339.811 67.9083L339.642 68.8939ZM343.343 94.0756L343.232 95.0693L343.343 94.0756ZM356.707 86.0029L355.766 85.6645L356.095 84.7499L357.019 85.0527L356.707 86.0029ZM359.855 86.7683L360.028 85.7835H360.028L359.855 86.7683ZM363.955 76.5914L363.355 77.3921L363.955 76.5914ZM358.009 76.202C359.006 76.1217 359.006 76.1218 359.006 76.1219C359.006 76.1219 359.006 76.1219 359.006 76.122C359.006 76.1221 359.006 76.1221 359.006 76.1222C359.006 76.1224 359.006 76.1226 359.006 76.1228C359.006 76.1233 359.006 76.1238 359.006 76.1244C359.007 76.1256 359.007 76.1272 359.007 76.1291C359.007 76.1328 359.007 76.1379 359.008 76.1443C359.009 76.1571 359.01 76.175 359.012 76.1979C359.015 76.2438 359.019 76.3096 359.023 76.394C359.032 76.5628 359.042 76.8059 359.047 77.1115L357.048 77.1478C357.043 76.8662 357.033 76.6454 357.026 76.4971C357.022 76.423 357.019 76.3671 357.016 76.3307C357.015 76.3126 357.014 76.2993 357.013 76.2912C357.013 76.2871 357.013 76.2843 357.013 76.2828C357.013 76.282 357.013 76.2816 357.013 76.2815C357.013 76.2814 357.013 76.2815 357.013 76.2816C357.013 76.2816 357.013 76.2817 357.013 76.2818C357.013 76.2819 357.013 76.2819 357.013 76.282C357.013 76.282 357.013 76.2821 357.013 76.2821C357.013 76.2821 357.013 76.2822 358.009 76.202ZM356.514 71.1685L358.896 75.7399L357.123 76.664L354.741 72.0926L356.514 71.1685ZM339.811 67.9083L355.796 70.6449L355.459 72.6162L339.473 69.8796L339.811 67.9083ZM343.232 95.0693C338.878 94.5798 336.275 92.601 334.998 89.783C333.764 87.06 333.849 83.7254 334.415 80.6203C334.985 77.489 336.075 74.4393 337.012 72.1876C337.481 71.058 337.916 70.1209 338.235 69.4647C338.394 69.1364 338.524 68.8779 338.615 68.7003C338.661 68.6115 338.696 68.5429 338.721 68.4958C338.733 68.4723 338.743 68.4541 338.75 68.4415C338.753 68.4352 338.756 68.4303 338.758 68.4268C338.759 68.4251 338.759 68.4237 338.76 68.4226C338.76 68.4221 338.76 68.4216 338.761 68.4213C338.761 68.4209 338.761 68.4206 339.642 68.8939C340.523 69.3673 340.523 69.3671 340.523 69.367C340.523 69.3671 340.523 69.3671 340.523 69.3673C340.522 69.3677 340.522 69.3684 340.521 69.3695C340.52 69.3717 340.518 69.3752 340.516 69.3802C340.511 69.3901 340.502 69.4054 340.492 69.4261C340.47 69.4675 340.437 69.5303 340.395 69.613C340.31 69.7784 340.186 70.0235 340.034 70.3373C339.73 70.9654 339.311 71.8672 338.858 72.9557C337.95 75.14 336.917 78.0432 336.382 80.9789C335.842 83.9408 335.836 86.7875 336.82 88.9573C337.76 91.0322 339.683 92.6578 343.455 93.0818L343.232 95.0693ZM357.648 86.3414C356.773 88.7741 355.341 91.2145 352.998 92.9221C350.635 94.644 347.451 95.5436 343.232 95.0693L343.455 93.0818C347.259 93.5094 349.923 92.688 351.82 91.3057C353.737 89.9091 354.976 87.8622 355.766 85.6645L357.648 86.3414ZM359.681 87.7531C358.36 87.52 357.279 87.2426 356.396 86.9532L357.019 85.0527C357.802 85.3095 358.791 85.5651 360.028 85.7835L359.681 87.7531ZM364.554 75.7907C366.969 77.5979 367.155 80.9266 366.212 83.4471C365.261 85.99 362.922 88.3251 359.681 87.7531L360.028 85.7835C361.942 86.1212 363.57 84.8022 364.339 82.7464C365.116 80.6683 364.774 78.4537 363.355 77.3921L364.554 75.7907ZM357.451 76.3267C358.304 75.6939 359.397 75.0703 360.623 74.8469C361.888 74.6164 363.258 74.8214 364.554 75.7907L363.355 77.3921C362.545 76.7857 361.75 76.6745 360.982 76.8145C360.175 76.9614 359.368 77.3948 358.644 77.9326L357.451 76.3267Z" fill="black" mask="url(#path-49-inside-1_119_5466)"/>
<path d="M356.105 82.8111C356.105 82.8111 361.408 71.6313 359.768 66.8578C358.128 62.0842 350.178 66.7334 343.36 63.0871C343.36 63.0871 338.651 61.2446 335.957 64.5954C333.263 67.9462 336.293 73.8082 340.416 72.8908C344.54 71.9657 350.935 69.9598 352.193 72.1367C353.458 74.3136 355.223 74.7334 355.223 74.7334L356.105 82.8111Z" fill="black"/>
<path d="M358.667 110.868C358.667 110.868 358.432 108.007 358.089 105.286C357.745 102.565 356.035 98.4759 355.012 98.1416C353.989 97.7995 353.989 99.8442 353.989 99.8442C353.989 99.8442 350.225 96.439 348.858 96.439C347.491 96.439 351.935 102.223 351.935 102.223C351.935 102.223 349.202 103.926 349.881 105.628C350.56 107.331 354.02 112.322 354.02 112.322L358.667 110.868Z" fill="#F9A28B"/>
<path d="M101.269 128.891H281.486V133.415H101.269V128.891Z" fill="#CBCBCB"/>
<path d="M134.202 241.34L124.362 132.287" stroke="#228652" stroke-width="4" stroke-miterlimit="10"/>
<path d="M117.803 133.042L108.963 240.338" stroke="#228652" stroke-width="4" stroke-miterlimit="10"/>
<path d="M132.188 219.727L110.478 219.984" stroke="#228652" stroke-width="4" stroke-miterlimit="10"/>
<path d="M134.202 241.34L124.362 132.287" stroke="#979797" stroke-width="4" stroke-miterlimit="10"/>
<path d="M117.803 133.042L108.963 240.338" stroke="#979797" stroke-width="4" stroke-miterlimit="10"/>
<path d="M132.188 219.727L110.478 219.984" stroke="#979797" stroke-width="4" stroke-miterlimit="10"/>
<path d="M273.787 241.714L263.939 132.661" stroke="#979797" stroke-width="4" stroke-miterlimit="10"/>
<path d="M257.38 133.414L248.548 240.71" stroke="#979797" stroke-width="4" stroke-miterlimit="10"/>
<path d="M271.763 220.109L250.06 220.358" stroke="#979797" stroke-width="4" stroke-miterlimit="10"/>
<path d="M142.917 128.89C142.917 128.89 140.137 117.586 131.305 118.083C122.472 118.589 120.45 128.89 120.45 128.89H142.917Z" fill="#979797"/>
<path d="M136.762 92.304L132.319 115.332C132.241 115.736 131.842 116.001 131.436 115.923C131.054 115.845 130.796 115.495 130.843 115.114L133.397 91.9541C133.443 91.5576 133.795 91.2622 134.193 91.2933L136.083 91.4254C136.528 91.4565 136.848 91.8686 136.762 92.304Z" fill="#979797"/>
<path d="M137.528 89.6122C136.376 89.6122 135.442 88.6828 135.442 87.5364C135.442 86.3899 136.376 85.4606 137.528 85.4606C138.679 85.4606 139.613 86.3899 139.613 87.5364C139.613 88.6828 138.679 89.6122 137.528 89.6122Z" fill="#979797"/>
<path d="M157.388 101.105L142.988 88.5332C142.621 88.2144 142.066 88.2455 141.738 88.6032C141.418 88.953 141.426 89.4817 141.754 89.8238L154.093 102.667C154.288 102.869 154.577 102.97 154.858 102.932L156.92 102.659C157.677 102.566 157.974 101.61 157.388 101.105Z" fill="#979797"/>
<path d="M168.492 111.647L154.388 115.612C154.388 115.612 149.554 105.645 158.402 103.569C166.875 101.563 168.492 111.647 168.492 111.647Z" fill="#979797"/>
<path d="M164.024 113.329C164.009 113.252 163.993 113.184 163.978 113.128L159.16 114.489C159.197 114.548 159.241 114.616 159.293 114.691C159.465 114.939 159.717 115.259 160.037 115.549C160.677 116.129 161.558 116.567 162.625 116.141C163.174 115.922 163.52 115.615 163.738 115.285C163.957 114.953 164.054 114.586 164.082 114.238C164.111 113.89 164.072 113.566 164.024 113.329ZM163.925 112.951L163.925 112.951L163.925 112.951Z" fill="white" stroke="black" stroke-width="0.4"/>
<path d="M377.986 194.693L377.822 220.698C377.806 223.521 375.526 225.814 372.691 225.853L351.637 226.164" stroke="#2D4BAA" stroke-width="4" stroke-miterlimit="10"/>
<path d="M370.873 183.016C370.873 183.016 375.731 186.211 376.855 190.269" stroke="#2D4BAA" stroke-width="4" stroke-miterlimit="10"/>
<path d="M118.201 61.3998L115.467 63.3434L111.766 59.2695" fill="white"/>
<path d="M118.201 61.3998L115.467 63.3434L111.766 59.2695" stroke="#72D8ED" stroke-miterlimit="10"/>
<path d="M82.0976 123.253C82.0976 123.253 87.2986 128.952 90.4224 150.977C93.5461 173.002 90.0944 188.676 90.0944 188.676L83.4565 188.287C83.4643 188.287 84.2452 126.433 82.0976 123.253Z" fill="#72D8ED"/>
<path d="M85.6127 135.242C85.6127 135.242 88.7366 177.404 85.8079 193.341" stroke="#72D8ED" stroke-width="2" stroke-miterlimit="10"/>
<path d="M61.162 133.166C61.162 133.166 67.7531 137.193 76.9134 157.484C86.0738 177.768 87.1515 193.776 87.1515 193.776L80.6697 195.245C80.6697 195.245 64.1139 135.622 61.162 133.166Z" fill="#72D8ED"/>
<path d="M67.8853 143.701C67.8853 143.701 82.684 183.327 84.324 199.444" stroke="#72D8ED" stroke-width="2" stroke-miterlimit="10"/>
<path d="M102.565 144.183C102.565 144.183 95.4351 149.392 89.828 171.075C84.2209 192.758 87.5555 208.704 87.5555 208.704L96.1614 208.921C96.1614 208.921 99.5585 147.153 102.565 144.183Z" fill="#72D8ED"/>
<path d="M97.1693 155.813C97.1693 155.813 90.1251 197.586 92.7726 213.749" stroke="#72D8ED" stroke-width="2" stroke-miterlimit="10"/>
<path d="M109.656 163.356C109.656 163.356 104.432 165.478 97.5985 178.026C90.7653 190.574 90.3514 200.953 90.3514 200.953L95.6383 202.415C95.6383 202.415 107.337 164.732 109.656 163.356Z" fill="#72D8ED"/>
<path d="M104.51 169.722C104.51 169.722 93.6629 194.476 92.7883 204.878" stroke="#72D8ED" stroke-width="2" stroke-miterlimit="10"/>
<path d="M58.036 166.83C58.036 166.83 63.5182 166.659 72.3584 174.527C81.1986 182.395 83.3774 190.838 83.3774 190.838L78.4419 194.003C78.4419 194.003 60.5428 167.11 58.036 166.83Z" fill="#72D8ED"/>
<path d="M64.167 170.197C64.167 170.197 79.0205 186.695 81.6522 194.99" stroke="#72D8ED" stroke-width="2" stroke-miterlimit="10"/>
<path d="M101.613 187.509L98.4895 239.583H77.412L72.336 185.954L101.613 187.509Z" fill="#979797"/>
<path d="M101.223 196.442L73.3121 195.47L72.336 185.954L101.613 187.509L101.223 191.785" stroke="#002F7A" stroke-width="2" stroke-miterlimit="10"/>
<defs>
<linearGradient id="paint0_linear_119_5466" x1="193.342" y1="275.25" x2="193.667" y2="230.766" gradientUnits="userSpaceOnUse">
<stop stop-color="white" stop-opacity="0"/>
<stop offset="1" stop-color="#82A9FF" stop-opacity="0.21"/>
</linearGradient>
</defs>
</svg>
