<svg width="348" height="310" viewBox="0 0 348 310" fill="none" xmlns="http://www.w3.org/2000/svg">
<g clip-path="url(#clip0_119_5402)">
<path d="M103.023 28.5719C102.519 28.3077 102.031 28.3201 101.583 28.4606C101.357 28.074 100.959 27.8117 100.409 27.7379C94.7354 27.018 88.8702 30.5454 87.5232 36.2807C86.2688 41.635 89.5871 47.5616 94.7504 49.3561C99.9557 51.1726 106.25 48.4607 108.559 43.4444C111.132 37.9228 108.362 31.156 103.023 28.5719ZM96.1583 45.8537C92.6793 44.7275 90.3632 40.6683 91.2208 37.092C92.1005 33.4736 95.9487 31.0359 99.5688 31.4845C99.929 31.5123 100.269 31.476 100.548 31.3536C100.691 31.59 100.921 31.7642 101.257 31.9404C104.768 33.6197 106.845 37.9296 105.199 41.6828C103.795 44.9728 99.5953 46.9578 96.1583 45.8537Z" fill="#82A9FF" fill-opacity="0.21"/>
<path d="M128.78 145.407C127.866 139.184 127.016 132.941 126.102 126.718C125.747 124.331 121.966 124.496 122.321 126.883C123.235 133.106 124.085 139.349 124.999 145.572C125.312 147.937 129.135 147.794 128.78 145.407Z" fill="#82A9FF" fill-opacity="0.21"/>
<path d="M135.161 132.112C128.54 134.223 121.918 136.334 115.274 138.487C112.945 139.252 114.061 142.843 116.41 142.142C123.031 140.031 129.653 137.92 136.297 135.767C138.626 135.002 137.532 131.369 135.161 132.112Z" fill="#82A9FF" fill-opacity="0.21"/>
<path d="M114.18 126.48C104.726 119.591 97.8169 109.688 94.8845 98.3275C92.2111 87.8005 93.2235 76.5757 97.4785 66.6215C99.3454 69.8011 101.17 72.9587 103.037 76.1384C104.289 78.2441 107.493 76.2196 106.241 74.1139C103.984 70.247 101.728 66.3802 99.4297 62.4913C99.4959 62.365 99.54 62.2808 99.6063 62.1545C100.531 60.4923 98.4883 58.6697 96.8977 59.6609C92.9213 62.1388 88.9029 64.5947 84.9265 67.0726C82.8632 68.3527 84.8562 71.5984 86.9416 70.2762C89.133 68.9559 91.3046 67.5715 93.496 66.2513C84.6825 88.5771 91.7691 114.891 111.556 129.237C113.543 130.655 116.167 127.897 114.18 126.48Z" fill="#82A9FF" fill-opacity="0.21"/>
<path d="M79.3421 39.936C62.1994 42.8113 47.01 52.9912 37.7966 67.8071C36.5028 69.8664 39.8628 71.628 41.1566 69.5687C49.5597 55.992 63.8036 46.39 79.499 43.722C81.8633 43.2976 81.7485 39.5335 79.3421 39.936Z" fill="#82A9FF" fill-opacity="0.21"/>
<path d="M42.3965 89.0598C42.82 83.8603 38.6295 79.0868 33.5266 78.5048C33.1663 78.477 32.868 78.5353 32.6117 78.6157C32.3597 78.4835 31.9995 78.4557 31.5951 78.5121C26.5703 79.3131 22.343 83.6993 22.682 88.9765C22.9632 93.955 27.5247 98.2252 32.4903 98.2521C37.4781 98.2368 41.9772 94.0468 42.3965 89.0598ZM32.95 94.4135C29.8894 94.6339 26.9687 92.1365 26.5626 89.1323C26.0967 85.9357 28.665 82.7732 31.816 82.2781C32.0083 82.2178 32.1784 82.1997 32.3706 82.1394C32.4966 82.2055 32.6447 82.2294 32.7928 82.2534C35.7786 82.5841 38.4914 84.8653 38.7031 88.036C38.8309 91.1626 36.0526 94.215 32.95 94.4135Z" fill="#82A9FF" fill-opacity="0.21"/>
<path d="M60.1765 95.5902C60.114 94.4839 59.2142 93.8511 58.1755 93.7897C56.4584 93.6946 54.7413 93.5995 53.002 93.5465C51.9634 93.4851 51.1773 94.5759 51.1999 95.554C51.2624 96.6604 52.1622 97.2931 53.2009 97.3546C54.918 97.4497 56.6352 97.5448 58.3744 97.5977C59.3711 97.6372 60.2213 96.5262 60.1765 95.5902Z" fill="#82A9FF" fill-opacity="0.21"/>
<path d="M73.8074 96.3491C74.0389 95.3969 73.362 94.2368 72.3675 94.0911C70.8646 93.8937 69.4038 93.7183 67.901 93.5208C66.9064 93.3751 65.8769 93.909 65.6433 94.9674C65.4118 95.9196 66.0887 97.0797 67.0832 97.2253C68.586 97.4228 70.0469 97.5982 71.5497 97.7956C72.5443 97.9413 73.5738 97.4075 73.8074 96.3491Z" fill="#82A9FF" fill-opacity="0.21"/>
<path d="M102.138 92.2537C101.8 91.1636 100.787 90.8476 99.7442 90.9986C97.7842 91.3666 95.7823 91.7127 93.8223 92.0808C92.8213 92.2538 92.2851 93.583 92.564 94.4807C92.9028 95.5709 93.9151 95.8869 94.9581 95.7359C96.918 95.3678 98.92 95.0218 100.88 94.6537C101.903 94.4386 102.417 93.1515 102.138 92.2537Z" fill="#82A9FF" fill-opacity="0.21"/>
<path d="M122.64 90.1197C121.217 90.1787 119.794 90.2378 118.393 90.2547C115.929 90.3586 116.128 94.1666 118.55 94.0408C119.973 93.9817 121.396 93.9227 122.797 93.9057C125.239 93.844 125.104 90.0159 122.64 90.1197Z" fill="#82A9FF" fill-opacity="0.21"/>
<path d="M143.662 88.5266C142.239 88.5857 140.816 88.6447 139.415 88.6617C136.973 88.7234 137.15 92.5736 139.572 92.4477C140.995 92.3887 142.418 92.3296 143.819 92.3127C146.261 92.2509 146.104 88.4649 143.662 88.5266Z" fill="#82A9FF" fill-opacity="0.21"/>
<path d="M84.8995 93.5759C84.3024 92.6724 83.2238 92.4827 82.2805 92.9543C81.7436 93.2633 81.1648 93.5503 80.628 93.8593C79.7487 94.3109 79.4666 95.666 80.0019 96.4834C80.599 97.387 81.6776 97.5767 82.6209 97.105C83.1578 96.796 83.7366 96.509 84.2734 96.2C85.1748 95.7063 85.4348 94.3933 84.8995 93.5759Z" fill="#82A9FF" fill-opacity="0.21"/>
<path d="M43.1891 130.647C41.6613 125.39 40.1335 120.134 38.5836 114.92C37.8883 112.569 34.278 113.736 34.9313 116.065C36.4591 121.321 37.9869 126.577 39.5368 131.792C40.2321 134.142 43.8844 132.997 43.1891 130.647Z" fill="#82A9FF" fill-opacity="0.21"/>
<path d="M47.6658 118.125C41.5857 120.735 35.5255 123.408 29.4453 126.018C27.2183 126.997 28.3121 130.631 30.5811 129.673C36.6612 127.063 42.7214 124.39 48.8016 121.78C51.0286 120.801 49.9348 117.167 47.6658 118.125Z" fill="#82A9FF" fill-opacity="0.21"/>
<path d="M80.7825 143.915C78.8218 139.076 76.8411 134.173 74.8804 129.333C73.9708 127.085 70.3406 128.188 71.2281 130.478C73.1888 135.317 75.1695 140.221 77.1302 145.06C78.0618 147.266 81.692 146.163 80.7825 143.915Z" fill="#82A9FF" fill-opacity="0.21"/>
<path d="M82.6687 130.411C77.0306 133.198 71.3705 136.028 65.7744 138.838C63.5873 139.946 65.6023 143.149 67.7895 142.041C73.4275 139.254 79.0876 136.424 84.6837 133.614C86.8488 132.549 84.8337 129.345 82.6687 130.411Z" fill="#82A9FF" fill-opacity="0.21"/>
<path d="M60.3014 31.7245C58.226 27.3084 56.1726 22.8501 54.0972 18.4339C53.0595 16.2258 49.8563 18.2503 50.894 20.4584C52.9694 24.8745 55.0228 29.3328 57.0982 33.749C58.0939 35.935 61.2971 33.9106 60.3014 31.7245Z" fill="#82A9FF" fill-opacity="0.21"/>
<path d="M60.557 19.0832C56.1967 22.7018 51.8144 26.3626 47.4121 29.9592C45.5346 31.4977 48.347 34.0995 50.1826 32.539C54.5428 28.9203 58.9252 25.2596 63.3274 21.663C65.205 20.1244 62.4345 17.5447 60.557 19.0832Z" fill="#82A9FF" fill-opacity="0.21"/>
<path d="M164.877 88.9137C162.288 88.9515 159.698 88.9893 157.108 89.0271C154.688 89.0467 154.823 92.8748 157.264 92.8131C159.854 92.7753 162.444 92.7376 165.034 92.6998C167.496 92.7022 167.339 88.9162 164.877 88.9137Z" fill="#82A9FF" fill-opacity="0.21"/>
<path d="M184.529 91.0576C184.508 89.9733 183.589 89.2764 182.528 89.257L179.005 89.2353C177.987 89.2379 177.139 90.2427 177.203 91.2428C177.224 92.3271 178.143 93.024 179.204 93.0433C180.371 93.0646 181.56 93.0438 182.727 93.0651C183.768 93.0203 184.616 92.0156 184.529 91.0576Z" fill="#82A9FF" fill-opacity="0.21"/>
<path d="M222.832 93.3715C223.797 87.6505 219.685 82.1133 214.171 80.8862C213.939 80.8182 213.727 80.8144 213.493 80.8526C213.303 80.8066 213.154 80.7827 212.964 80.7367C207.305 80.3996 201.866 84.8488 201.39 90.5574C200.916 96.1598 205.242 101.595 210.809 102.313C216.292 102.986 221.894 98.8379 222.832 93.3715ZM210.992 98.4902C207.461 97.8732 204.734 94.189 205.167 90.605C205.691 86.7464 209.455 84.2646 213.143 84.4806C213.143 84.4806 213.143 84.4806 213.185 84.5027C213.227 84.5247 213.311 84.5687 213.375 84.5486C216.883 85.314 219.698 88.8297 219.157 92.518C218.593 96.2484 214.63 99.1092 210.992 98.4902Z" fill="#82A9FF" fill-opacity="0.21"/>
</g>
<g clip-path="url(#clip1_119_5402)">
<path d="M244.256 171.336C243.837 171.094 243.422 171.087 243.036 171.191C242.857 170.855 242.528 170.618 242.063 170.536C237.266 169.728 232.16 172.523 230.816 177.351C229.565 181.858 232.18 187.009 236.506 188.713C240.867 190.437 246.31 188.35 248.446 184.167C250.824 179.564 248.704 173.717 244.256 171.336ZM237.824 185.785C234.906 184.708 233.078 181.178 233.931 178.168C234.804 175.123 238.158 173.185 241.219 173.692C241.525 173.728 241.815 173.709 242.056 173.614C242.17 173.82 242.359 173.976 242.639 174.137C245.564 175.686 247.18 179.421 245.651 182.554C244.344 185.301 240.706 186.843 237.824 185.785Z" fill="#82A9FF" fill-opacity="0.21"/>
<path d="M262.101 271.521C261.54 266.201 261.033 260.866 260.472 255.546C260.253 253.505 257.034 253.514 257.253 255.555C257.814 260.875 258.32 266.21 258.882 271.53C259.066 273.551 262.32 273.562 262.101 271.521Z" fill="#82A9FF" fill-opacity="0.21"/>
<path d="M267.984 260.443C262.284 262.008 256.583 263.573 250.862 265.172C248.856 265.742 249.68 268.833 251.701 268.318C257.401 266.753 263.102 265.189 268.823 263.589C270.829 263.019 270.025 259.894 267.984 260.443Z" fill="#82A9FF" fill-opacity="0.21"/>
<path d="M250.348 254.93C242.552 248.748 237.023 240.093 234.924 230.337C233.017 221.298 234.266 211.793 238.226 203.481C239.703 206.248 241.145 208.994 242.621 211.761C243.612 213.594 246.405 211.985 245.414 210.152C243.63 206.787 241.846 203.423 240.028 200.038C240.088 199.933 240.129 199.863 240.189 199.758C241.033 198.378 239.36 196.758 237.974 197.545C234.509 199.513 231.008 201.461 227.543 203.43C225.745 204.446 227.327 207.274 229.145 206.222C231.053 205.176 232.946 204.075 234.855 203.028C226.591 221.697 231.703 244.306 248.022 257.183C249.662 258.457 251.988 256.204 250.348 254.93Z" fill="#82A9FF" fill-opacity="0.21"/>
<path d="M223.737 180.174C209.068 182.024 195.807 190.15 187.464 202.422C186.293 204.127 189.088 205.741 190.258 204.035C197.87 192.788 210.308 185.121 223.739 183.397C225.763 183.118 225.796 179.915 223.737 180.174Z" fill="#82A9FF" fill-opacity="0.21"/>
<path d="M190.637 220.643C191.177 216.239 187.781 212.037 183.465 211.366C183.159 211.33 182.904 211.369 182.683 211.428C182.474 211.307 182.169 211.271 181.823 211.305C177.525 211.812 173.78 215.393 173.886 219.89C173.952 224.131 177.681 227.918 181.9 228.112C186.14 228.272 190.108 224.867 190.637 220.643ZM182.424 224.866C179.815 224.947 177.419 222.724 177.178 220.156C176.893 217.424 179.185 214.825 181.88 214.513C182.046 214.469 182.191 214.459 182.356 214.415C182.461 214.475 182.586 214.501 182.711 214.526C185.237 214.911 187.464 216.943 187.534 219.645C187.534 222.307 185.068 224.805 182.424 224.866Z" fill="#82A9FF" fill-opacity="0.21"/>
<path d="M205.522 226.809C205.507 225.866 204.764 225.297 203.884 225.209C202.428 225.069 200.972 224.929 199.495 224.824C198.615 224.735 197.909 225.635 197.894 226.467C197.909 227.41 198.652 227.979 199.533 228.067C200.989 228.207 202.445 228.347 203.921 228.453C204.767 228.521 205.528 227.606 205.522 226.809Z" fill="#82A9FF" fill-opacity="0.21"/>
<path d="M217.08 227.925C217.31 227.124 216.775 226.115 215.935 225.957C214.664 225.737 213.429 225.537 212.159 225.317C211.318 225.159 210.425 225.577 210.19 226.469C209.96 227.27 210.495 228.279 211.335 228.437C212.606 228.657 213.841 228.857 215.111 229.077C215.952 229.235 216.845 228.817 217.08 227.925Z" fill="#82A9FF" fill-opacity="0.21"/>
<path d="M241.299 225.426C241.049 224.488 240.2 224.184 239.308 224.276C237.63 224.521 235.916 224.746 234.238 224.991C233.381 225.104 232.879 226.215 233.085 226.987C233.335 227.925 234.185 228.229 235.076 228.137C236.755 227.892 238.468 227.667 240.147 227.422C241.024 227.275 241.505 226.199 241.299 225.426Z" fill="#82A9FF" fill-opacity="0.21"/>
<path d="M258.797 224.322C257.586 224.323 256.374 224.324 255.183 224.29C253.085 224.293 253.122 227.536 255.185 227.513C256.397 227.512 257.608 227.511 258.799 227.545C260.877 227.577 260.895 224.319 258.797 224.322Z" fill="#82A9FF" fill-opacity="0.21"/>
<path d="M276.718 223.696C275.506 223.697 274.295 223.698 273.103 223.664C271.026 223.632 271.043 226.91 273.106 226.887C274.317 226.886 275.529 226.885 276.72 226.919C278.797 226.951 278.795 223.728 276.718 223.696Z" fill="#82A9FF" fill-opacity="0.21"/>
<path d="M226.603 225.953C226.127 225.164 225.217 224.965 224.399 225.334C223.932 225.578 223.43 225.802 222.963 226.046C222.2 226.399 221.913 227.541 222.34 228.254C222.816 229.043 223.726 229.241 224.544 228.873C225.011 228.629 225.513 228.405 225.98 228.161C226.763 227.773 227.03 226.666 226.603 225.953Z" fill="#82A9FF" fill-opacity="0.21"/>
<path d="M189.871 256.014C188.755 251.494 187.638 246.974 186.502 242.489C185.992 240.467 182.884 241.334 183.358 243.335C184.475 247.855 185.591 252.375 186.728 256.861C187.237 258.882 190.381 258.036 189.871 256.014Z" fill="#82A9FF" fill-opacity="0.21"/>
<path d="M194.109 245.527C188.852 247.534 183.609 249.597 178.351 251.604C176.425 252.359 177.228 255.485 179.19 254.75C184.448 252.742 189.69 250.68 194.948 248.673C196.875 247.917 196.071 244.792 194.109 245.527Z" fill="#82A9FF" fill-opacity="0.21"/>
<path d="M221.361 268.591C219.862 264.411 218.349 260.175 216.85 255.995C216.155 254.053 213.032 254.864 213.706 256.841C215.205 261.022 216.719 265.257 218.218 269.438C218.933 271.345 222.056 270.534 221.361 268.591Z" fill="#82A9FF" fill-opacity="0.21"/>
<path d="M223.432 257.18C218.544 259.354 213.635 261.563 208.782 263.757C206.885 264.623 208.487 267.415 210.384 266.549C215.272 264.375 220.18 262.166 225.033 259.972C226.91 259.142 225.309 256.349 223.432 257.18Z" fill="#82A9FF" fill-opacity="0.21"/>
<path d="M207.839 172.536C206.228 168.711 204.638 164.851 203.027 161.026C202.221 159.113 199.429 160.723 200.234 162.636C201.845 166.461 203.436 170.321 205.047 174.146C205.817 176.038 208.61 174.428 207.839 172.536Z" fill="#82A9FF" fill-opacity="0.21"/>
<path d="M208.494 161.802C204.663 164.726 200.812 167.685 196.946 170.59C195.297 171.832 197.598 174.141 199.211 172.878C203.042 169.953 206.894 166.994 210.759 164.09C212.408 162.847 210.143 160.559 208.494 161.802Z" fill="#82A9FF" fill-opacity="0.21"/>
<path d="M294.734 224.759C292.532 224.702 290.33 224.644 288.127 224.587C286.07 224.52 286.052 227.778 288.129 227.81C290.332 227.867 292.534 227.925 294.737 227.983C296.829 228.07 296.826 224.847 294.734 224.759Z" fill="#82A9FF" fill-opacity="0.21"/>
<path d="M311.361 227.262C311.381 226.34 310.624 225.716 309.723 225.662L306.73 225.522C305.864 225.489 305.109 226.314 305.129 227.166C305.109 228.088 305.866 228.712 306.767 228.765C307.758 228.824 308.769 228.847 309.76 228.906C310.646 228.904 311.402 228.079 311.361 227.262Z" fill="#82A9FF" fill-opacity="0.21"/>
<path d="M343.834 230.555C344.852 225.726 341.549 220.878 336.905 219.644C336.71 219.578 336.53 219.568 336.33 219.592C336.17 219.546 336.045 219.521 335.885 219.475C331.086 218.993 326.311 222.586 325.708 227.421C325.111 232.165 328.599 236.934 333.306 237.737C337.942 238.5 342.847 235.168 343.834 230.555ZM333.594 234.495C330.614 233.848 328.424 230.623 328.916 227.592C329.495 224.331 332.78 222.352 335.907 222.663C335.907 222.663 335.907 222.663 335.942 222.683C335.977 222.703 336.047 222.744 336.102 222.729C339.057 223.501 341.327 226.586 340.739 229.702C340.131 232.853 336.664 235.147 333.594 234.495Z" fill="#82A9FF" fill-opacity="0.21"/>
</g>
<g clip-path="url(#clip2_119_5402)">
<path d="M257.225 81.6638L257.225 81.6641C257.908 83.7664 258.276 86.0283 258.276 88.3978V225.355C258.276 237.457 248.443 247.296 236.351 247.296H132.396C120.303 247.296 110.47 237.457 110.47 225.355V88.3978C110.47 76.2964 120.303 66.4573 132.396 66.4573H236.351C241.764 66.4573 246.759 68.4553 250.599 71.7179C253.65 74.3503 255.963 77.771 257.225 81.6638Z" fill="white" stroke="black"/>
<path d="M240.612 83.1239H129.989C127.408 83.1239 125.256 80.8637 125.256 78.0654C125.256 75.267 127.354 73.0068 129.989 73.0068H240.612C246.578 73.0068 246.578 83.1239 240.612 83.1239Z" fill="#2D4BAA"/>
<path d="M162.413 215.237L139.71 192.52L133.284 198.951L155.986 221.668L162.413 215.237Z" fill="#2D4BAA"/>
<path d="M155.994 192.497L133.292 215.214L139.718 221.644L162.42 198.927L155.994 192.497Z" fill="#2D4BAA"/>
<path d="M203.744 173.85L181.042 151.133L174.616 157.564L197.318 180.281L203.744 173.85Z" fill="#2D4BAA"/>
<path d="M197.277 151.138L174.575 173.855L181.002 180.286L203.704 157.568L197.277 151.138Z" fill="#2D4BAA"/>
<path d="M150.304 150.876C142.076 150.876 135.461 157.549 135.461 165.729C135.461 173.963 142.13 180.582 150.304 180.582C158.532 180.582 165.147 173.909 165.147 165.729C165.147 157.495 158.479 150.876 150.304 150.876ZM150.304 173.909C145.787 173.909 142.13 170.249 142.13 165.729C142.13 161.209 145.787 157.549 150.304 157.549C154.822 157.549 158.479 161.209 158.479 165.729C158.479 170.249 154.822 173.909 150.304 173.909Z" fill="#72D8ED"/>
<path d="M222.852 104.65C214.624 104.65 208.009 111.323 208.009 119.502C208.009 127.736 214.678 134.355 222.852 134.355C231.08 134.355 237.695 127.682 237.695 119.502C237.695 111.323 231.026 104.65 222.852 104.65ZM222.852 127.736C218.335 127.736 214.678 124.077 214.678 119.556C214.678 115.036 218.335 111.376 222.852 111.376C227.369 111.376 231.026 115.036 231.026 119.556C231.026 124.077 227.369 127.736 222.852 127.736Z" fill="#72D8ED"/>
<path d="M232.855 147.809C230.22 144.795 227.584 141.781 224.949 138.822C224.304 138.122 223.175 138.391 222.691 139.091C222.368 139.575 222.099 140.006 221.776 140.49C221.615 140.598 221.4 140.759 221.292 140.92C219.625 143.504 218.012 146.14 216.345 148.724C215.377 150.284 217.797 151.683 218.818 150.177C219.84 148.616 220.862 147.055 221.884 145.495C224.895 159.379 227.369 174.501 220.378 187.524C217.42 193.013 212.903 197.856 206.987 200.116C199.996 202.807 192.037 201.784 185.422 198.556C178.108 195.004 172.3 189.084 167.513 182.573C166.438 181.12 163.964 182.519 165.04 184.026C174.074 196.295 188.111 207.381 204.352 203.883C218.926 200.708 226.67 185.64 227.638 171.81C228.337 161.854 226.24 151.899 224.143 142.212C226.401 144.741 228.606 147.324 230.865 149.854C232.048 151.199 234.038 149.154 232.855 147.809Z" fill="#72D8ED"/>
</g>
<defs>
<clipPath id="clip0_119_5402">
<rect width="187.415" height="129.502" fill="white" transform="translate(60.7097) rotate(27.6672)"/>
</clipPath>
<clipPath id="clip1_119_5402">
<rect width="159.409" height="110.15" fill="white" transform="translate(209.285 145.589) rotate(30)"/>
</clipPath>
<clipPath id="clip2_119_5402">
<rect width="148.806" height="181.785" fill="white" transform="translate(109.97 65.9573)"/>
</clipPath>
</defs>
</svg>
