<svg width="423" height="310" viewBox="0 0 423 310" fill="none" xmlns="http://www.w3.org/2000/svg">
<g clip-path="url(#clip0_130_12)">
<g clip-path="url(#clip1_130_12)">
<path d="M141.023 28.5719C140.519 28.3077 140.031 28.3201 139.583 28.4606C139.357 28.074 138.959 27.8117 138.409 27.7379C132.735 27.018 126.87 30.5454 125.523 36.2807C124.269 41.635 127.587 47.5616 132.75 49.3561C137.956 51.1726 144.25 48.4607 146.559 43.4444C149.132 37.9228 146.362 31.156 141.023 28.5719ZM134.158 45.8537C130.679 44.7275 128.363 40.6683 129.221 37.092C130.101 33.4736 133.949 31.0359 137.569 31.4845C137.929 31.5123 138.269 31.476 138.548 31.3536C138.691 31.59 138.921 31.7642 139.257 31.9404C142.768 33.6197 144.845 37.9296 143.199 41.6828C141.795 44.9728 137.595 46.9578 134.158 45.8537Z" fill="#82A9FF" fill-opacity="0.21"/>
<path d="M166.78 145.407C165.866 139.184 165.016 132.941 164.102 126.718C163.747 124.331 159.966 124.496 160.321 126.883C161.235 133.106 162.085 139.349 162.999 145.572C163.312 147.937 167.135 147.794 166.78 145.407Z" fill="#82A9FF" fill-opacity="0.21"/>
<path d="M173.161 132.112C166.54 134.223 159.918 136.334 153.274 138.487C150.945 139.252 152.061 142.843 154.41 142.142C161.031 140.031 167.653 137.92 174.297 135.767C176.626 135.002 175.532 131.369 173.161 132.112Z" fill="#82A9FF" fill-opacity="0.21"/>
<path d="M152.18 126.48C142.726 119.591 135.817 109.688 132.884 98.3275C130.211 87.8005 131.223 76.5757 135.478 66.6215C137.345 69.8011 139.17 72.9587 141.037 76.1384C142.289 78.2441 145.493 76.2196 144.241 74.1139C141.984 70.247 139.728 66.3802 137.43 62.4913C137.496 62.365 137.54 62.2808 137.606 62.1545C138.531 60.4923 136.488 58.6697 134.898 59.6609C130.921 62.1388 126.903 64.5947 122.927 67.0726C120.863 68.3527 122.856 71.5984 124.942 70.2762C127.133 68.9559 129.305 67.5715 131.496 66.2513C122.682 88.5771 129.769 114.891 149.556 129.237C151.543 130.655 154.167 127.897 152.18 126.48Z" fill="#82A9FF" fill-opacity="0.21"/>
<path d="M117.342 39.936C100.199 42.8113 85.01 52.9912 75.7966 67.8071C74.5028 69.8664 77.8628 71.628 79.1566 69.5687C87.5597 55.992 101.804 46.39 117.499 43.722C119.863 43.2976 119.748 39.5335 117.342 39.936Z" fill="#82A9FF" fill-opacity="0.21"/>
<path d="M80.3965 89.0598C80.82 83.8603 76.6295 79.0868 71.5266 78.5048C71.1663 78.477 70.868 78.5353 70.6117 78.6157C70.3597 78.4835 69.9995 78.4557 69.5951 78.5121C64.5703 79.3131 60.343 83.6993 60.682 88.9765C60.9632 93.955 65.5247 98.2252 70.4903 98.2521C75.4781 98.2368 79.9772 94.0468 80.3965 89.0598ZM70.95 94.4135C67.8894 94.6339 64.9687 92.1365 64.5626 89.1323C64.0967 85.9357 66.665 82.7732 69.816 82.2781C70.0083 82.2178 70.1784 82.1997 70.3706 82.1394C70.4966 82.2055 70.6447 82.2294 70.7928 82.2534C73.7786 82.5841 76.4914 84.8653 76.7031 88.036C76.8309 91.1626 74.0526 94.215 70.95 94.4135Z" fill="#82A9FF" fill-opacity="0.21"/>
<path d="M98.1765 95.5902C98.114 94.4839 97.2142 93.8511 96.1755 93.7897C94.4584 93.6946 92.7413 93.5995 91.002 93.5465C89.9634 93.4851 89.1773 94.5759 89.1999 95.554C89.2624 96.6604 90.1622 97.2931 91.2009 97.3546C92.918 97.4497 94.6352 97.5448 96.3744 97.5977C97.3711 97.6372 98.2213 96.5262 98.1765 95.5902Z" fill="#82A9FF" fill-opacity="0.21"/>
<path d="M111.807 96.3491C112.039 95.3969 111.362 94.2368 110.367 94.0911C108.865 93.8937 107.404 93.7183 105.901 93.5208C104.906 93.3751 103.877 93.909 103.643 94.9674C103.412 95.9196 104.089 97.0797 105.083 97.2253C106.586 97.4228 108.047 97.5982 109.55 97.7956C110.544 97.9413 111.574 97.4075 111.807 96.3491Z" fill="#82A9FF" fill-opacity="0.21"/>
<path d="M140.138 92.2537C139.8 91.1636 138.787 90.8476 137.744 90.9986C135.784 91.3666 133.782 91.7127 131.822 92.0808C130.821 92.2538 130.285 93.583 130.564 94.4807C130.903 95.5709 131.915 95.8869 132.958 95.7359C134.918 95.3678 136.92 95.0218 138.88 94.6537C139.903 94.4386 140.417 93.1515 140.138 92.2537Z" fill="#82A9FF" fill-opacity="0.21"/>
<path d="M160.64 90.1197C159.217 90.1787 157.794 90.2378 156.393 90.2547C153.929 90.3586 154.128 94.1666 156.55 94.0408C157.973 93.9817 159.396 93.9227 160.797 93.9057C163.239 93.844 163.104 90.0159 160.64 90.1197Z" fill="#82A9FF" fill-opacity="0.21"/>
<path d="M181.662 88.5266C180.239 88.5857 178.816 88.6447 177.415 88.6617C174.973 88.7234 175.15 92.5736 177.572 92.4477C178.995 92.3887 180.418 92.3296 181.819 92.3127C184.261 92.2509 184.104 88.4649 181.662 88.5266Z" fill="#82A9FF" fill-opacity="0.21"/>
<path d="M122.9 93.5759C122.302 92.6724 121.224 92.4827 120.28 92.9543C119.744 93.2633 119.165 93.5503 118.628 93.8593C117.749 94.3109 117.467 95.666 118.002 96.4834C118.599 97.387 119.678 97.5767 120.621 97.105C121.158 96.796 121.737 96.509 122.273 96.2C123.175 95.7063 123.435 94.3933 122.9 93.5759Z" fill="#82A9FF" fill-opacity="0.21"/>
<path d="M81.1891 130.647C79.6613 125.39 78.1335 120.134 76.5836 114.92C75.8883 112.569 72.278 113.736 72.9313 116.065C74.4591 121.321 75.9869 126.577 77.5368 131.792C78.2321 134.142 81.8844 132.997 81.1891 130.647Z" fill="#82A9FF" fill-opacity="0.21"/>
<path d="M85.6658 118.125C79.5857 120.735 73.5255 123.408 67.4453 126.018C65.2183 126.997 66.3121 130.631 68.5811 129.673C74.6612 127.063 80.7214 124.39 86.8016 121.78C89.0286 120.801 87.9348 117.167 85.6658 118.125Z" fill="#82A9FF" fill-opacity="0.21"/>
<path d="M118.782 143.915C116.822 139.076 114.841 134.173 112.88 129.333C111.971 127.085 108.341 128.188 109.228 130.478C111.189 135.317 113.169 140.221 115.13 145.06C116.062 147.266 119.692 146.163 118.782 143.915Z" fill="#82A9FF" fill-opacity="0.21"/>
<path d="M120.669 130.411C115.031 133.198 109.37 136.028 103.774 138.838C101.587 139.946 103.602 143.149 105.789 142.041C111.428 139.254 117.088 136.424 122.684 133.614C124.849 132.549 122.834 129.345 120.669 130.411Z" fill="#82A9FF" fill-opacity="0.21"/>
<path d="M98.3014 31.7245C96.226 27.3084 94.1726 22.8501 92.0972 18.4339C91.0595 16.2258 87.8563 18.2503 88.894 20.4584C90.9694 24.8745 93.0228 29.3328 95.0982 33.749C96.0939 35.935 99.2971 33.9106 98.3014 31.7245Z" fill="#82A9FF" fill-opacity="0.21"/>
<path d="M98.557 19.0832C94.1967 22.7018 89.8144 26.3626 85.4121 29.9592C83.5346 31.4977 86.347 34.0995 88.1826 32.539C92.5428 28.9203 96.9252 25.2596 101.327 21.663C103.205 20.1244 100.434 17.5447 98.557 19.0832Z" fill="#82A9FF" fill-opacity="0.21"/>
<path d="M202.877 88.9137C200.288 88.9515 197.698 88.9893 195.108 89.0271C192.688 89.0467 192.823 92.8748 195.264 92.8131C197.854 92.7753 200.444 92.7376 203.034 92.6998C205.496 92.7022 205.339 88.9162 202.877 88.9137Z" fill="#82A9FF" fill-opacity="0.21"/>
<path d="M222.529 91.0576C222.508 89.9733 221.589 89.2764 220.528 89.257L217.005 89.2353C215.987 89.2379 215.139 90.2427 215.203 91.2428C215.224 92.3271 216.143 93.024 217.204 93.0433C218.371 93.0646 219.56 93.0438 220.727 93.0651C221.768 93.0203 222.616 92.0156 222.529 91.0576Z" fill="#82A9FF" fill-opacity="0.21"/>
<path d="M260.832 93.3715C261.797 87.6505 257.685 82.1133 252.171 80.8862C251.939 80.8182 251.727 80.8144 251.493 80.8526C251.303 80.8066 251.154 80.7827 250.964 80.7367C245.305 80.3996 239.866 84.8488 239.39 90.5574C238.916 96.1598 243.242 101.595 248.809 102.313C254.292 102.986 259.894 98.8379 260.832 93.3715ZM248.992 98.4902C245.461 97.8732 242.734 94.189 243.167 90.605C243.691 86.7464 247.455 84.2646 251.143 84.4806C251.143 84.4806 251.143 84.4806 251.185 84.5027C251.227 84.5247 251.311 84.5687 251.375 84.5486C254.883 85.314 257.698 88.8297 257.157 92.518C256.593 96.2484 252.63 99.1092 248.992 98.4902Z" fill="#82A9FF" fill-opacity="0.21"/>
</g>
<g clip-path="url(#clip2_130_12)">
<path d="M282.256 171.336C281.837 171.094 281.422 171.087 281.036 171.191C280.857 170.855 280.528 170.618 280.063 170.536C275.266 169.728 270.16 172.523 268.816 177.351C267.565 181.858 270.18 187.009 274.506 188.713C278.867 190.437 284.31 188.35 286.446 184.167C288.824 179.564 286.704 173.717 282.256 171.336ZM275.824 185.785C272.906 184.708 271.078 181.178 271.931 178.168C272.804 175.123 276.158 173.185 279.219 173.692C279.525 173.728 279.815 173.709 280.056 173.614C280.17 173.82 280.359 173.976 280.639 174.137C283.564 175.686 285.18 179.421 283.651 182.554C282.344 185.301 278.706 186.843 275.824 185.785Z" fill="#82A9FF" fill-opacity="0.21"/>
<path d="M300.101 271.521C299.54 266.201 299.033 260.866 298.472 255.546C298.253 253.505 295.034 253.514 295.253 255.555C295.814 260.875 296.32 266.21 296.882 271.53C297.066 273.551 300.32 273.562 300.101 271.521Z" fill="#82A9FF" fill-opacity="0.21"/>
<path d="M305.984 260.443C300.284 262.008 294.583 263.573 288.862 265.172C286.856 265.742 287.68 268.833 289.701 268.318C295.401 266.753 301.102 265.189 306.823 263.589C308.829 263.019 308.025 259.894 305.984 260.443Z" fill="#82A9FF" fill-opacity="0.21"/>
<path d="M288.348 254.93C280.552 248.748 275.023 240.093 272.924 230.337C271.017 221.298 272.266 211.793 276.226 203.481C277.703 206.248 279.145 208.994 280.621 211.761C281.612 213.594 284.405 211.985 283.414 210.152C281.63 206.787 279.846 203.423 278.028 200.038C278.088 199.933 278.129 199.863 278.189 199.758C279.033 198.378 277.36 196.758 275.974 197.545C272.509 199.513 269.008 201.461 265.543 203.43C263.745 204.446 265.327 207.274 267.145 206.222C269.053 205.176 270.946 204.075 272.855 203.028C264.591 221.697 269.703 244.306 286.022 257.183C287.662 258.457 289.988 256.204 288.348 254.93Z" fill="#82A9FF" fill-opacity="0.21"/>
<path d="M261.737 180.174C247.068 182.024 233.807 190.15 225.464 202.422C224.293 204.127 227.088 205.741 228.258 204.035C235.87 192.788 248.308 185.121 261.739 183.397C263.763 183.118 263.796 179.915 261.737 180.174Z" fill="#82A9FF" fill-opacity="0.21"/>
<path d="M228.637 220.643C229.177 216.239 225.781 212.037 221.465 211.366C221.159 211.33 220.904 211.369 220.683 211.428C220.474 211.307 220.169 211.271 219.823 211.305C215.525 211.812 211.78 215.393 211.886 219.89C211.952 224.131 215.681 227.918 219.9 228.112C224.14 228.272 228.108 224.867 228.637 220.643ZM220.424 224.866C217.815 224.947 215.419 222.724 215.178 220.156C214.893 217.424 217.185 214.825 219.88 214.513C220.046 214.469 220.191 214.459 220.356 214.415C220.461 214.475 220.586 214.501 220.711 214.526C223.237 214.911 225.464 216.943 225.534 219.645C225.534 222.307 223.068 224.805 220.424 224.866Z" fill="#82A9FF" fill-opacity="0.21"/>
<path d="M243.522 226.809C243.507 225.866 242.764 225.297 241.884 225.209C240.428 225.069 238.972 224.929 237.495 224.824C236.615 224.735 235.909 225.635 235.894 226.467C235.909 227.41 236.652 227.979 237.533 228.067C238.989 228.207 240.445 228.347 241.921 228.453C242.767 228.521 243.528 227.606 243.522 226.809Z" fill="#82A9FF" fill-opacity="0.21"/>
<path d="M255.08 227.925C255.31 227.124 254.775 226.115 253.935 225.957C252.664 225.737 251.429 225.537 250.159 225.317C249.318 225.159 248.425 225.577 248.19 226.469C247.96 227.27 248.495 228.279 249.335 228.437C250.606 228.657 251.841 228.857 253.111 229.077C253.952 229.235 254.845 228.817 255.08 227.925Z" fill="#82A9FF" fill-opacity="0.21"/>
<path d="M279.299 225.426C279.049 224.488 278.2 224.184 277.308 224.276C275.63 224.521 273.916 224.746 272.238 224.991C271.381 225.104 270.879 226.215 271.085 226.987C271.335 227.925 272.185 228.229 273.076 228.137C274.755 227.892 276.468 227.667 278.147 227.422C279.024 227.275 279.505 226.199 279.299 225.426Z" fill="#82A9FF" fill-opacity="0.21"/>
<path d="M296.797 224.322C295.586 224.323 294.374 224.324 293.183 224.29C291.085 224.293 291.122 227.536 293.185 227.513C294.397 227.512 295.608 227.511 296.799 227.545C298.877 227.577 298.895 224.319 296.797 224.322Z" fill="#82A9FF" fill-opacity="0.21"/>
<path d="M314.718 223.696C313.506 223.697 312.295 223.698 311.103 223.664C309.026 223.632 309.043 226.91 311.106 226.887C312.317 226.886 313.529 226.885 314.72 226.919C316.797 226.951 316.795 223.728 314.718 223.696Z" fill="#82A9FF" fill-opacity="0.21"/>
<path d="M264.603 225.953C264.127 225.164 263.217 224.965 262.399 225.334C261.932 225.578 261.43 225.802 260.963 226.046C260.2 226.399 259.913 227.541 260.34 228.254C260.816 229.043 261.726 229.241 262.544 228.873C263.011 228.629 263.513 228.405 263.98 228.161C264.763 227.773 265.03 226.666 264.603 225.953Z" fill="#82A9FF" fill-opacity="0.21"/>
<path d="M227.871 256.014C226.755 251.494 225.638 246.974 224.502 242.489C223.992 240.467 220.884 241.334 221.358 243.335C222.475 247.855 223.591 252.375 224.728 256.861C225.237 258.882 228.381 258.036 227.871 256.014Z" fill="#82A9FF" fill-opacity="0.21"/>
<path d="M232.109 245.527C226.852 247.534 221.609 249.597 216.351 251.604C214.425 252.359 215.228 255.485 217.19 254.75C222.448 252.742 227.69 250.68 232.948 248.673C234.875 247.917 234.071 244.792 232.109 245.527Z" fill="#82A9FF" fill-opacity="0.21"/>
<path d="M259.361 268.591C257.862 264.411 256.349 260.175 254.85 255.995C254.155 254.053 251.032 254.864 251.706 256.841C253.205 261.022 254.719 265.257 256.218 269.438C256.933 271.345 260.056 270.534 259.361 268.591Z" fill="#82A9FF" fill-opacity="0.21"/>
<path d="M261.432 257.18C256.544 259.354 251.635 261.563 246.782 263.757C244.885 264.623 246.487 267.415 248.384 266.549C253.272 264.375 258.18 262.166 263.033 259.972C264.91 259.142 263.309 256.349 261.432 257.18Z" fill="#82A9FF" fill-opacity="0.21"/>
<path d="M245.839 172.536C244.228 168.711 242.638 164.851 241.027 161.026C240.221 159.113 237.429 160.723 238.234 162.636C239.845 166.461 241.436 170.321 243.047 174.146C243.817 176.038 246.61 174.428 245.839 172.536Z" fill="#82A9FF" fill-opacity="0.21"/>
<path d="M246.494 161.802C242.663 164.726 238.812 167.685 234.946 170.59C233.297 171.832 235.598 174.141 237.211 172.878C241.042 169.953 244.894 166.994 248.759 164.09C250.408 162.847 248.143 160.559 246.494 161.802Z" fill="#82A9FF" fill-opacity="0.21"/>
<path d="M332.734 224.759C330.532 224.702 328.33 224.644 326.127 224.587C324.07 224.52 324.052 227.778 326.129 227.81C328.332 227.867 330.534 227.925 332.737 227.983C334.829 228.07 334.826 224.847 332.734 224.759Z" fill="#82A9FF" fill-opacity="0.21"/>
<path d="M349.361 227.262C349.381 226.34 348.624 225.716 347.723 225.662L344.73 225.522C343.864 225.489 343.109 226.314 343.129 227.166C343.109 228.088 343.866 228.712 344.767 228.765C345.758 228.824 346.769 228.847 347.76 228.906C348.646 228.904 349.402 228.079 349.361 227.262Z" fill="#82A9FF" fill-opacity="0.21"/>
<path d="M381.834 230.555C382.852 225.726 379.549 220.878 374.905 219.644C374.71 219.578 374.53 219.568 374.33 219.592C374.17 219.546 374.045 219.521 373.885 219.475C369.087 218.993 364.311 222.586 363.708 227.421C363.111 232.165 366.599 236.934 371.306 237.737C375.942 238.5 380.847 235.168 381.834 230.555ZM371.594 234.495C368.614 233.848 366.424 230.623 366.916 227.592C367.495 224.331 370.78 222.352 373.907 222.663C373.907 222.663 373.907 222.663 373.942 222.683C373.977 222.703 374.047 222.744 374.102 222.729C377.057 223.501 379.327 226.586 378.739 229.702C378.131 232.853 374.664 235.147 371.594 234.495Z" fill="#82A9FF" fill-opacity="0.21"/>
</g>
<g clip-path="url(#clip3_130_12)">
<path d="M295.225 81.6638L295.225 81.6641C295.908 83.7664 296.276 86.0283 296.276 88.3978V225.355C296.276 237.457 286.443 247.296 274.351 247.296H170.396C158.303 247.296 148.47 237.457 148.47 225.355V88.3978C148.47 76.2964 158.303 66.4573 170.396 66.4573H274.351C279.765 66.4573 284.76 68.4557 288.6 71.7187C291.65 74.351 293.964 77.7714 295.225 81.6638Z" fill="white" stroke="black"/>
<path d="M278.612 83.1239H167.989C165.408 83.1239 163.256 80.8637 163.256 78.0654C163.256 75.267 165.354 73.0068 167.989 73.0068H278.612C284.578 73.0068 284.578 83.1239 278.612 83.1239Z" fill="#2D4BAA"/>
<path d="M200.413 215.237L177.71 192.52L171.284 198.951L193.986 221.668L200.413 215.237Z" fill="#2D4BAA"/>
<path d="M193.994 192.497L171.292 215.214L177.718 221.644L200.42 198.927L193.994 192.497Z" fill="#2D4BAA"/>
<path d="M241.744 173.85L219.042 151.133L212.616 157.564L235.318 180.281L241.744 173.85Z" fill="#2D4BAA"/>
<path d="M235.277 151.138L212.575 173.855L219.002 180.286L241.704 157.568L235.277 151.138Z" fill="#2D4BAA"/>
<path d="M188.304 150.876C180.076 150.876 173.461 157.549 173.461 165.729C173.461 173.963 180.13 180.582 188.304 180.582C196.532 180.582 203.147 173.909 203.147 165.729C203.147 157.495 196.479 150.876 188.304 150.876ZM188.304 173.909C183.787 173.909 180.13 170.249 180.13 165.729C180.13 161.209 183.787 157.549 188.304 157.549C192.822 157.549 196.479 161.209 196.479 165.729C196.479 170.249 192.822 173.909 188.304 173.909Z" fill="#72D8ED"/>
<path d="M260.852 104.65C252.624 104.65 246.009 111.323 246.009 119.502C246.009 127.736 252.678 134.355 260.852 134.355C269.08 134.355 275.695 127.682 275.695 119.502C275.695 111.323 269.026 104.65 260.852 104.65ZM260.852 127.736C256.335 127.736 252.678 124.077 252.678 119.556C252.678 115.036 256.335 111.376 260.852 111.376C265.369 111.376 269.026 115.036 269.026 119.556C269.026 124.077 265.369 127.736 260.852 127.736Z" fill="#72D8ED"/>
<path d="M270.855 147.809C268.22 144.795 265.584 141.781 262.949 138.822C262.304 138.122 261.175 138.391 260.691 139.091C260.368 139.575 260.099 140.006 259.776 140.49C259.615 140.598 259.4 140.759 259.292 140.92C257.625 143.504 256.012 146.14 254.345 148.724C253.377 150.284 255.797 151.683 256.818 150.177C257.84 148.616 258.862 147.055 259.884 145.495C262.895 159.379 265.369 174.501 258.378 187.524C255.42 193.013 250.903 197.856 244.987 200.116C237.996 202.807 230.037 201.784 223.422 198.556C216.108 195.004 210.3 189.084 205.513 182.573C204.438 181.12 201.964 182.519 203.04 184.026C212.074 196.295 226.111 207.381 242.352 203.883C256.926 200.708 264.67 185.64 265.638 171.81C266.337 161.854 264.24 151.899 262.143 142.212C264.401 144.741 266.606 147.324 268.865 149.854C270.048 151.199 272.038 149.154 270.855 147.809Z" fill="#72D8ED"/>
</g>
</g>
<defs>
<clipPath id="clip0_130_12">
<rect width="422" height="310" fill="white" transform="translate(0.577637)"/>
</clipPath>
<clipPath id="clip1_130_12">
<rect width="187.415" height="129.502" fill="white" transform="translate(98.7097) rotate(27.6672)"/>
</clipPath>
<clipPath id="clip2_130_12">
<rect width="159.409" height="110.15" fill="white" transform="translate(247.285 145.589) rotate(30)"/>
</clipPath>
<clipPath id="clip3_130_12">
<rect width="148.806" height="181.785" fill="white" transform="translate(147.97 65.9573)"/>
</clipPath>
</defs>
</svg>
