<svg width="422" height="310" viewBox="0 0 422 310" fill="none" xmlns="http://www.w3.org/2000/svg">
<path fill-rule="evenodd" clip-rule="evenodd" d="M183.171 251.162C159.76 257.728 119.402 260.433 67.9664 260.899C20.2337 261.667 1.18454 266.879 2.03186 275.508C7.77485 288.822 86.7959 294.461 222.243 292.667C334.058 291.301 386.059 282.469 400.903 268.354C423.404 244.091 254.975 231.342 183.171 251.162Z" fill="url(#paint0_linear_138_10730)"/>
<path opacity="0.1" d="M91.9001 67.9453H280.832V263.576H91.9001V67.9453Z" fill="#72D8ED"/>
<g clip-path="url(#clip0_138_10730)">
<path d="M135.536 136.343L106.419 107.27H66.93C66.7079 107.27 66.4881 107.315 66.2837 107.401C66.0793 107.488 65.8944 107.614 65.74 107.774C65.5856 107.933 65.4649 108.122 65.3851 108.329C65.3053 108.536 65.268 108.757 65.2753 108.978C66.1772 130.891 84.2547 148.383 106.419 148.383C111.827 148.39 117.184 147.33 122.181 145.263C127.177 143.197 131.716 140.165 135.536 136.342V136.343Z" fill="white"/>
<path d="M147.591 107.27C147.591 85.1316 130.076 67.085 108.128 66.1881C107.906 66.1801 107.685 66.2168 107.478 66.296C107.27 66.3752 107.081 66.4954 106.922 66.6493C106.762 66.8032 106.635 66.9877 106.548 67.1917C106.461 67.3957 106.417 67.6151 106.417 67.8367C106.417 75.5623 106.417 107.27 106.417 107.27L135.533 136.343C139.361 132.528 142.397 127.996 144.466 123.007C146.535 118.018 147.597 112.67 147.591 107.27Z" fill="#2D4BAA"/>
<path fill-rule="evenodd" clip-rule="evenodd" d="M122.868 68.5688C118.208 66.5931 113.227 65.4768 108.168 65.2741C107.823 65.2613 107.48 65.3181 107.157 65.4412C106.835 65.5642 106.54 65.7509 106.292 65.9902C106.043 66.2294 105.846 66.5163 105.711 66.8335C105.576 67.1508 105.507 67.492 105.507 67.8367C105.507 71.1888 105.507 79.0559 105.507 86.8901C105.507 87.1328 105.603 87.3656 105.775 87.5372C105.947 87.7088 106.18 87.8053 106.423 87.8053C106.666 87.8053 106.9 87.7088 107.071 87.5372C107.243 87.3656 107.34 87.1328 107.34 86.8901C107.34 79.0571 107.34 71.19 107.34 67.8379C107.34 67.7391 107.36 67.6414 107.398 67.5505C107.437 67.4596 107.494 67.3775 107.565 67.3091C107.637 67.2407 107.721 67.1874 107.814 67.1525C107.906 67.1175 108.005 67.1016 108.104 67.1057C112.938 67.3 117.697 68.3671 122.15 70.2553C122.261 70.3023 122.38 70.3271 122.5 70.3282C122.62 70.3293 122.74 70.3067 122.851 70.2617C122.963 70.2167 123.065 70.1502 123.151 70.066C123.237 69.9818 123.305 69.8815 123.352 69.7708C123.399 69.6602 123.424 69.5413 123.425 69.4211C123.426 69.3009 123.404 69.1816 123.359 69.0701C123.314 68.9586 123.247 68.8571 123.163 68.7713C123.078 68.6855 122.978 68.6171 122.867 68.5701L122.868 68.5688Z" fill="black"/>
<path fill-rule="evenodd" clip-rule="evenodd" d="M105.505 99.3174V107.271C105.505 107.514 105.601 107.747 105.773 107.918C105.945 108.09 106.178 108.186 106.421 108.186C106.664 108.186 106.898 108.09 107.069 107.918C107.241 107.747 107.338 107.514 107.338 107.271V99.3174C107.338 99.0746 107.241 98.8419 107.069 98.6702C106.898 98.4986 106.664 98.4022 106.421 98.4022C106.178 98.4022 105.945 98.4986 105.773 98.6702C105.601 98.8419 105.505 99.0746 105.505 99.3174Z" fill="#2D2E85"/>
<path fill-rule="evenodd" clip-rule="evenodd" d="M135.529 135.042C142.696 127.569 146.691 117.617 146.679 107.27C146.679 107.027 146.775 106.794 146.947 106.623C147.119 106.451 147.352 106.355 147.595 106.355C147.838 106.355 148.072 106.451 148.243 106.623C148.415 106.794 148.512 107.027 148.512 107.27C148.518 112.79 147.432 118.258 145.317 123.358C143.202 128.458 140.098 133.091 136.185 136.991C136.013 137.162 135.78 137.259 135.537 137.259C135.294 137.259 135.061 137.162 134.889 136.991L105.772 107.917C105.6 107.745 105.504 107.512 105.504 107.269C105.504 107.026 105.6 106.794 105.772 106.622C105.944 106.45 106.178 106.354 106.421 106.354C106.664 106.354 106.897 106.45 107.069 106.622L135.529 135.042Z" fill="#2D2E85"/>
<path d="M98.9665 101.482C99.4057 101.482 99.8268 101.308 100.137 100.998C100.448 100.688 100.622 100.267 100.622 99.8286V62.0489C100.623 61.827 100.578 61.6073 100.492 61.4028C100.405 61.1984 100.279 61.0135 100.119 60.8591C99.9591 60.7048 99.7699 60.5842 99.5625 60.5045C99.355 60.4248 99.1336 60.3878 98.9115 60.3955C77.5333 61.2728 60.3563 78.4214 59.4826 99.7737C59.4744 99.9952 59.511 100.216 59.5902 100.423C59.6694 100.63 59.7896 100.819 59.9436 100.978C60.0976 101.138 60.2823 101.265 60.4866 101.351C60.6908 101.438 60.9104 101.482 61.1323 101.482C67.8071 101.482 92.3455 101.482 98.9665 101.482Z" fill="#72D8ED"/>
<path fill-rule="evenodd" clip-rule="evenodd" d="M100.753 60.2002C100.505 59.9615 100.211 59.775 99.889 59.6517C99.5672 59.5285 99.2239 59.471 98.8795 59.4827C93.1247 59.716 87.4794 61.1285 82.2944 63.6325C77.1094 66.1364 72.4954 69.6783 68.7392 74.0381C68.6606 74.1291 68.6006 74.2347 68.5629 74.3489C68.5251 74.463 68.5102 74.5835 68.5191 74.7034C68.537 74.9455 68.6504 75.1706 68.8345 75.3292C69.0186 75.4878 69.2582 75.5668 69.5007 75.549C69.7432 75.5311 69.9686 75.4178 70.1274 75.234C73.7196 71.0636 78.1323 67.6755 83.0914 65.2802C88.0504 62.885 93.4498 61.5338 98.954 61.3107C99.0524 61.308 99.1503 61.325 99.242 61.3606C99.3337 61.3962 99.4173 61.4498 99.488 61.5181C99.6646 61.678 99.8965 61.763 100.135 61.7549C100.373 61.7469 100.599 61.6465 100.764 61.4751C100.929 61.3036 101.021 61.0746 101.02 60.8366C101.019 60.5986 100.926 60.3703 100.759 60.2002H100.753Z" fill="black"/>
<path fill-rule="evenodd" clip-rule="evenodd" d="M63.5814 81.5026C60.5387 87.1185 58.8247 93.3558 58.571 99.7359C58.5585 100.08 58.6157 100.423 58.739 100.745C58.8624 101.067 59.0495 101.36 59.289 101.608C59.5286 101.856 59.8157 102.053 60.1333 102.188C60.4509 102.322 60.7923 102.391 61.1373 102.391C67.8108 102.391 92.3505 102.391 98.9715 102.391C99.6516 102.39 100.303 102.119 100.784 101.639C101.265 101.159 101.536 100.508 101.538 99.8287V80.8839C101.538 80.6412 101.441 80.4084 101.269 80.2367C101.097 80.0651 100.864 79.9687 100.621 79.9687C100.378 79.9687 100.145 80.0651 99.9731 80.2367C99.8013 80.4084 99.7047 80.6412 99.7047 80.8839V99.8287C99.7031 100.022 99.6253 100.208 99.4882 100.345C99.351 100.482 99.1655 100.559 98.9715 100.561C92.3517 100.561 67.8096 100.561 61.1385 100.561C61.0401 100.561 60.9427 100.541 60.8522 100.503C60.7616 100.465 60.6796 100.408 60.6112 100.338C60.5428 100.267 60.4893 100.184 60.4539 100.092C60.4186 100 60.402 99.9024 60.4053 99.8043C60.6494 93.7048 62.2893 87.7422 65.1993 82.3739C65.2586 82.268 65.2963 82.1515 65.3101 82.031C65.3239 81.9105 65.3136 81.7885 65.2798 81.672C65.246 81.5556 65.1893 81.447 65.1131 81.3526C65.0369 81.2581 64.9426 81.1798 64.8358 81.1221C64.729 81.0643 64.6118 81.0284 64.491 81.0163C64.3701 81.0042 64.2481 81.0162 64.132 81.0516C64.0158 81.087 63.9079 81.1451 63.8144 81.2225C63.7209 81.2999 63.6438 81.3951 63.5875 81.5026H63.5814Z" fill="black"/>
<path fill-rule="evenodd" clip-rule="evenodd" d="M106.042 108.185H86.6118C86.3688 108.185 86.1356 108.089 85.9638 107.917C85.7919 107.745 85.6953 107.513 85.6953 107.27C85.6953 107.027 85.7919 106.794 85.9638 106.623C86.1356 106.451 86.3688 106.355 86.6118 106.355H106.409C106.529 106.354 106.649 106.378 106.76 106.424C106.871 106.47 106.972 106.537 107.058 106.622L136.175 135.696C136.347 135.868 136.444 136.101 136.444 136.344C136.444 136.586 136.347 136.819 136.175 136.991C136.003 137.163 135.77 137.259 135.527 137.259C135.284 137.259 135.05 137.163 134.879 136.991L106.042 108.185Z" fill="black"/>
<path fill-rule="evenodd" clip-rule="evenodd" d="M65.0824 107.137C64.8417 107.384 64.6536 107.678 64.5293 108C64.405 108.322 64.3471 108.665 64.3589 109.01C65.2816 131.418 83.7612 149.301 106.419 149.301C111.549 149.307 116.636 148.374 121.429 146.549C121.546 146.51 121.654 146.448 121.746 146.366C121.839 146.284 121.914 146.184 121.966 146.072C122.019 145.961 122.049 145.84 122.053 145.716C122.058 145.593 122.038 145.47 121.993 145.355C121.949 145.24 121.882 145.135 121.797 145.046C121.711 144.957 121.608 144.887 121.494 144.839C121.38 144.791 121.258 144.766 121.135 144.767C121.011 144.767 120.889 144.792 120.775 144.841C116.191 146.586 111.325 147.478 106.419 147.473C84.7486 147.473 67.0694 130.37 66.1908 108.945C66.1881 108.847 66.2051 108.75 66.2408 108.659C66.2765 108.568 66.3301 108.485 66.3985 108.415C66.4834 108.328 66.5503 108.226 66.5955 108.114C66.6407 108.002 66.6633 107.883 66.6619 107.762C66.6604 107.641 66.6351 107.522 66.5873 107.411C66.5395 107.3 66.4702 107.199 66.3833 107.115C66.2965 107.031 66.1938 106.965 66.0813 106.921C65.9687 106.877 65.8485 106.855 65.7276 106.857C65.6066 106.86 65.4874 106.886 65.3766 106.935C65.2659 106.983 65.1659 107.053 65.0824 107.141V107.137Z" fill="black"/>
<path d="M370.083 111.89V233.393C370.076 235.869 369.088 238.242 367.334 239.993C365.58 241.745 363.204 242.732 360.724 242.739H276.485C275.256 242.738 274.039 242.98 272.903 243.449C271.768 243.919 270.736 244.607 269.867 245.475C268.997 246.343 268.308 247.373 267.838 248.507C267.367 249.641 267.125 250.856 267.125 252.084H239.046C239.046 250.856 238.804 249.641 238.333 248.507C237.863 247.373 237.174 246.343 236.304 245.475C235.435 244.607 234.403 243.919 233.268 243.449C232.132 242.98 230.915 242.738 229.686 242.739H145.447C141.026 242.739 137.305 239.632 136.323 235.495C136.173 234.804 136.094 234.1 136.088 233.393V111.89C136.088 106.749 139.249 102.544 143.108 102.544H363.062C366.925 102.543 370.083 106.749 370.083 111.89Z" fill="#B2BFEB"/>
<path fill-rule="evenodd" clip-rule="evenodd" d="M137.217 235.297C138.109 239.025 141.461 241.825 145.448 241.825C145.691 241.825 145.924 241.921 146.096 242.093C146.268 242.264 146.364 242.497 146.364 242.74C146.364 242.983 146.268 243.215 146.096 243.387C145.924 243.559 145.691 243.655 145.448 243.655C140.595 243.655 136.51 240.248 135.427 235.707V235.682C135.265 234.93 135.179 234.163 135.173 233.394V111.891C135.173 106.186 138.827 101.629 143.11 101.629H363.063C365.273 101.629 367.298 102.801 368.754 104.74C368.826 104.836 368.879 104.946 368.908 105.062C368.938 105.179 368.945 105.3 368.928 105.419C368.911 105.538 368.871 105.652 368.809 105.756C368.748 105.859 368.667 105.949 368.57 106.022C368.474 106.094 368.365 106.146 368.248 106.176C368.131 106.206 368.01 106.212 367.891 106.195C367.772 106.178 367.657 106.138 367.554 106.077C367.45 106.016 367.36 105.935 367.287 105.838C366.199 104.389 364.715 103.459 363.063 103.459H143.108C141.8 103.459 140.595 104.045 139.61 105.006C138.021 106.562 137.003 109.076 137.003 111.89V233.394C137.01 234.034 137.081 234.673 137.217 235.299V235.297Z" fill="black"/>
<path fill-rule="evenodd" clip-rule="evenodd" d="M266.25 251.17C266.479 248.617 267.657 246.242 269.551 244.513C271.446 242.783 273.919 241.824 276.486 241.825H360.726C362.963 241.818 365.107 240.928 366.689 239.348C368.271 237.769 369.162 235.628 369.169 233.394V163.094C369.169 162.851 369.266 162.618 369.437 162.447C369.609 162.275 369.842 162.179 370.085 162.179C370.329 162.179 370.562 162.275 370.734 162.447C370.905 162.618 371.002 162.851 371.002 163.094V233.394C370.994 236.113 369.909 238.718 367.983 240.641C366.058 242.563 363.449 243.647 360.726 243.655H276.485C275.376 243.655 274.278 243.873 273.254 244.296C272.229 244.72 271.299 245.341 270.515 246.123C269.73 246.906 269.109 247.836 268.684 248.858C268.26 249.881 268.042 250.978 268.042 252.085C268.042 252.328 267.945 252.56 267.773 252.732C267.602 252.904 267.368 253 267.125 253H239.045C238.802 253 238.569 252.904 238.397 252.732C238.226 252.56 238.129 252.328 238.129 252.085C238.129 250.978 237.911 249.881 237.487 248.858C237.062 247.836 236.44 246.906 235.656 246.123C234.872 245.341 233.941 244.72 232.917 244.296C231.893 243.873 230.795 243.655 229.686 243.655H181.416C181.172 243.655 180.939 243.559 180.767 243.387C180.596 243.215 180.499 242.983 180.499 242.74C180.499 242.497 180.596 242.264 180.767 242.093C180.939 241.921 181.172 241.825 181.416 241.825H229.686C232.253 241.824 234.727 242.783 236.621 244.513C238.515 246.242 239.693 248.617 239.922 251.17H266.25Z" fill="black"/>
<path d="M253.087 102.543C253.086 101.315 253.327 100.099 253.797 98.9651C254.267 97.8308 254.956 96.8002 255.826 95.9322C256.695 95.0641 257.727 94.3757 258.863 93.9063C259.998 93.4369 261.216 93.1957 262.445 93.1965H356.043V228.72H262.445C261.216 228.72 259.998 228.961 258.863 229.43C257.727 229.9 256.695 230.589 255.825 231.457C254.956 232.325 254.267 233.356 253.797 234.49C253.327 235.624 253.086 236.84 253.087 238.068C253.088 236.84 252.846 235.624 252.376 234.49C251.906 233.355 251.216 232.324 250.347 231.456C249.477 230.588 248.445 229.9 247.309 229.43C246.173 228.961 244.955 228.719 243.726 228.72H150.128V93.1977H243.726C244.955 93.1969 246.173 93.4381 247.309 93.9075C248.445 94.3769 249.477 95.0652 250.346 95.9332C251.216 96.8012 251.905 97.8319 252.376 98.9661C252.846 100.1 253.087 101.316 253.087 102.544V102.543Z" fill="white"/>
<path fill-rule="evenodd" clip-rule="evenodd" d="M151.045 94.1117V109.425C151.045 109.668 150.948 109.9 150.777 110.072C150.605 110.244 150.372 110.34 150.128 110.34C149.885 110.34 149.652 110.244 149.48 110.072C149.308 109.9 149.212 109.668 149.212 109.425V93.1952C149.212 92.9525 149.308 92.7197 149.48 92.5481C149.652 92.3765 149.885 92.28 150.128 92.28H189.573C189.816 92.28 190.049 92.3765 190.221 92.5481C190.393 92.7197 190.49 92.9525 190.49 93.1952C190.49 93.438 190.393 93.6707 190.221 93.8424C190.049 94.014 189.816 94.1104 189.573 94.1104L151.045 94.1117Z" fill="black"/>
<path fill-rule="evenodd" clip-rule="evenodd" d="M252.17 102.543C252.171 101.435 251.953 100.338 251.529 99.3151C251.105 98.2919 250.483 97.3622 249.698 96.5791C248.914 95.7961 247.983 95.1752 246.958 94.7518C245.933 94.3284 244.835 94.1109 243.726 94.1117H218.126C217.882 94.1117 217.649 94.0152 217.477 93.8436C217.306 93.672 217.209 93.4392 217.209 93.1965C217.209 92.9537 217.306 92.7209 217.477 92.5493C217.649 92.3777 217.882 92.2813 218.126 92.2813H243.726C245.7 92.2797 247.633 92.8461 249.293 93.9128C250.953 94.9795 252.27 96.5013 253.087 98.296C253.902 96.5011 255.219 94.9791 256.879 93.9123C258.539 92.8455 260.471 92.2792 262.445 92.2813H356.043C356.286 92.2813 356.519 92.3777 356.691 92.5493C356.863 92.7209 356.96 92.9537 356.96 93.1965V158.581C356.96 158.824 356.863 159.057 356.691 159.228C356.519 159.4 356.286 159.496 356.043 159.496C355.8 159.496 355.567 159.4 355.395 159.228C355.223 159.057 355.127 158.824 355.127 158.581V94.1117H262.445C260.224 94.1089 258.092 94.9813 256.511 96.5393C254.931 98.0973 254.029 100.215 254.003 102.433V102.541L252.17 102.543Z" fill="black"/>
<path fill-rule="evenodd" clip-rule="evenodd" d="M252.171 237.958C252.143 235.74 251.242 233.622 249.661 232.064C248.08 230.506 245.948 229.634 243.727 229.635H223.388C223.145 229.635 222.912 229.539 222.74 229.367C222.568 229.196 222.472 228.963 222.472 228.72C222.472 228.477 222.568 228.245 222.74 228.073C222.912 227.901 223.145 227.805 223.388 227.805H243.727C245.701 227.803 247.634 228.37 249.294 229.437C250.954 230.504 252.271 232.026 253.087 233.821C253.903 232.026 255.219 230.503 256.879 229.436C258.539 228.369 260.472 227.803 262.446 227.805H355.127V213.099C355.127 212.857 355.224 212.624 355.396 212.452C355.568 212.281 355.801 212.184 356.044 212.184C356.287 212.184 356.52 212.281 356.692 212.452C356.864 212.624 356.96 212.857 356.96 213.099V228.719C356.96 228.962 356.864 229.194 356.692 229.366C356.52 229.538 356.287 229.634 356.044 229.634H262.446C261.337 229.633 260.238 229.85 259.213 230.273C258.188 230.697 257.257 231.318 256.473 232.101C255.688 232.884 255.067 233.814 254.643 234.838C254.219 235.862 254.002 236.959 254.004 238.066H252.171V237.958Z" fill="black"/>
<path d="M176.281 138.854H161.198V148.084H176.281V138.854Z" fill="#B2BFEB"/>
<path d="M257.639 138.854H179.457V148.084H257.639V138.854Z" fill="#B2BFEB"/>
<path d="M301.692 138.854H260.815V148.084H301.692V138.854Z" fill="#B2BFEB"/>
<path d="M345.745 138.854H304.869V148.084H345.745V138.854Z" fill="#B2BFEB"/>
<path d="M176.281 150.392H161.198V159.622H176.281V150.392Z" fill="#E2E8F0"/>
<path d="M257.639 150.392H179.457V159.622H257.639V150.392Z" fill="#E2E8F0"/>
<path d="M301.692 150.392H260.815V159.622H301.692V150.392Z" fill="#E2E8F0"/>
<path d="M345.745 150.392H304.869V159.622H345.745V150.392Z" fill="#E2E8F0"/>
<path d="M176.281 161.93H161.198V171.161H176.281V161.93Z" fill="#B2BFEB"/>
<path d="M257.639 161.93H179.457V171.161H257.639V161.93Z" fill="#B2BFEB"/>
<path d="M301.692 161.93H260.815V171.161H301.692V161.93Z" fill="#B2BFEB"/>
<path d="M345.745 161.93H304.869V171.161H345.745V161.93Z" fill="#B2BFEB"/>
<path d="M176.281 173.469H161.198V182.701H176.281V173.469Z" fill="#E2E8F0"/>
<path d="M257.639 173.469H179.457V182.701H257.639V173.469Z" fill="#E2E8F0"/>
<path d="M301.692 173.469H260.815V182.701H301.692V173.469Z" fill="#E2E8F0"/>
<path d="M345.745 173.469H304.869V182.701H345.745V173.469Z" fill="#E2E8F0"/>
<path d="M176.281 185.009H161.198V194.24H176.281V185.009Z" fill="#B2BFEB"/>
<path d="M257.639 185.009H179.457V194.24H257.639V185.009Z" fill="#B2BFEB"/>
<path d="M301.692 185.009H260.815V194.24H301.692V185.009Z" fill="#B2BFEB"/>
<path d="M345.745 185.009H304.869V194.24H345.745V185.009Z" fill="#B2BFEB"/>
<path d="M176.281 196.546H161.198V205.778H176.281V196.546Z" fill="#E2E8F0"/>
<path d="M257.639 196.546H179.457V205.778H257.639V196.546Z" fill="#E2E8F0"/>
<path d="M301.692 196.546H260.815V205.778H301.692V196.546Z" fill="#E2E8F0"/>
<path d="M345.745 196.546H304.869V205.778H345.745V196.546Z" fill="#E2E8F0"/>
<path d="M345.745 208.085H304.869V217.315H345.745V208.085Z" fill="#B2BFEB"/>
<path d="M246.699 115.892H161.908V119.637H246.699V115.892Z" fill="#B2BFEB"/>
<path d="M291.721 124.883H161.908V128.631H291.721V124.883Z" fill="#B2BFEB"/>
<path d="M139.757 167.86V139.346C139.752 137.749 139.114 136.218 137.983 135.088C136.852 133.959 135.319 133.322 133.719 133.318H55.9548C54.3551 133.322 52.8223 133.959 51.6911 135.088C50.56 136.218 49.9225 137.749 49.918 139.346V167.86H139.757Z" fill="#2D4BAA"/>
<path d="M145.281 167.86V139.346C145.276 137.749 144.638 136.218 143.507 135.088C142.375 133.959 140.842 133.322 139.243 133.318H61.4785C59.8787 133.322 58.3457 133.959 57.2144 135.088C56.083 136.218 55.4453 137.749 55.4404 139.346V167.86H145.281Z" fill="#B2BFEB"/>
<path d="M63.5002 158.576C63.5035 159.214 63.7589 159.825 64.2109 160.276C64.663 160.726 65.275 160.98 65.9138 160.983H136.149C136.789 160.981 137.402 160.727 137.855 160.275C138.307 159.823 138.562 159.21 138.564 158.571V142.6C138.562 141.961 138.307 141.349 137.855 140.897C137.402 140.445 136.789 140.19 136.149 140.188H65.9138C65.2737 140.19 64.6605 140.445 64.208 140.897C63.7555 141.349 63.5006 141.961 63.499 142.6L63.5002 158.576Z" fill="#2D4BAA"/>
<path d="M63.5002 158.576C63.5035 159.214 63.7589 159.825 64.2109 160.276C64.663 160.726 65.275 160.98 65.9138 160.983H134.226C134.866 160.981 135.479 160.727 135.932 160.275C136.384 159.823 136.64 159.211 136.641 158.571V142.6C136.64 141.961 136.385 141.348 135.932 140.896C135.479 140.444 134.866 140.19 134.226 140.188H65.9138C65.2737 140.19 64.6605 140.445 64.208 140.897C63.7555 141.349 63.5006 141.961 63.499 142.6L63.5002 158.576Z" fill="white"/>
<path d="M49.917 167.858L63.726 246.055C64.3101 249.371 67.507 252.085 70.8285 252.085H148.594C151.914 252.085 154.152 249.372 153.566 246.055L139.757 167.859H49.917V167.858Z" fill="#2D4BAA"/>
<path d="M55.4404 167.858L69.2494 246.055C69.8348 249.371 73.0304 252.085 76.3519 252.085H154.117C157.438 252.085 159.675 249.372 159.09 246.057L145.281 167.859L55.4404 167.858Z" fill="white"/>
<path d="M77.8963 241.45C78.131 242.776 79.4092 243.861 80.7376 243.861H89.2735C90.6018 243.861 91.4964 242.776 91.2617 241.45L89.8405 233.396C89.6059 232.07 88.3276 230.984 86.9993 230.984H78.4621C77.135 230.984 76.2392 232.07 76.4739 233.396L77.8963 241.45Z" fill="#2D4BAA"/>
<path d="M97.2171 241.45C97.4505 242.777 98.7299 243.861 100.057 243.861H108.592C109.92 243.861 110.816 242.777 110.581 241.45L109.159 233.396C108.925 232.07 107.646 230.985 106.319 230.985H97.7841C96.4557 230.985 95.5588 232.07 95.7958 233.396L97.2171 241.45Z" fill="#2D4BAA"/>
<path d="M116.536 241.45C116.769 242.777 118.049 243.861 119.376 243.861H127.917C129.245 243.861 130.141 242.777 129.906 241.45L128.483 233.396C128.249 232.07 126.971 230.985 125.643 230.985H117.108C115.78 230.985 114.884 232.07 115.118 233.396L116.536 241.45Z" fill="#2D4BAA"/>
<path d="M135.86 241.45C136.093 242.777 137.373 243.861 138.7 243.861H147.235C148.563 243.861 149.458 242.777 149.224 241.45L147.803 233.396C147.569 232.07 146.29 230.985 144.963 230.985H136.428C135.1 230.985 134.204 232.07 134.439 233.396L135.862 241.45H135.86Z" fill="#2D4BAA"/>
<path d="M74.7032 223.362C74.9366 224.688 76.2161 225.773 77.5444 225.773H86.0779C87.4075 225.773 88.3032 224.688 88.0674 223.362L86.6449 215.308C86.4103 213.982 85.1333 212.897 83.8037 212.897H75.269C73.9407 212.897 73.0449 213.982 73.2795 215.308L74.702 223.362H74.7032Z" fill="#2D4BAA"/>
<path d="M94.022 223.362C94.2554 224.688 95.5349 225.773 96.862 225.773H105.397C106.725 225.773 107.621 224.687 107.386 223.362L105.964 215.308C105.729 213.982 104.452 212.897 103.124 212.897H94.589C93.2607 212.897 92.3661 213.982 92.5995 215.308L94.022 223.362Z" fill="#2D4BAA"/>
<path d="M113.341 223.363C113.576 224.69 114.854 225.774 116.182 225.774H124.717C126.047 225.774 126.941 224.688 126.707 223.363L125.284 215.309C125.051 213.983 123.771 212.898 122.444 212.898H113.909C112.581 212.898 111.687 213.983 111.921 215.309L113.341 223.363Z" fill="#2D4BAA"/>
<path d="M132.662 223.363C132.898 224.69 134.175 225.774 135.504 225.774H144.038C145.367 225.774 146.262 224.688 146.027 223.363L144.604 215.309C144.37 213.983 143.092 212.898 141.764 212.898H133.229C131.901 212.898 131.005 213.983 131.239 215.309L132.662 223.363Z" fill="#2D4BAA"/>
<path d="M71.5089 205.279C71.7423 206.605 73.0218 207.69 74.3501 207.69H82.8848C84.2131 207.69 85.1077 206.605 84.8743 205.279L83.4518 197.225C83.2184 195.898 81.9389 194.814 80.6106 194.814H72.0698C70.7414 194.814 69.8457 195.898 70.0803 197.225L71.5028 205.279H71.5089Z" fill="#2D4BAA"/>
<path d="M90.8289 205.279C91.0623 206.605 92.3418 207.69 93.6677 207.691H102.204C103.533 207.691 104.427 206.606 104.193 205.279L102.771 197.225C102.537 195.9 101.259 194.815 99.9306 194.815H91.396C90.0676 194.815 89.1719 195.9 89.4065 197.227L90.8289 205.279Z" fill="#2D4BAA"/>
<path d="M110.148 205.279C110.381 206.606 111.661 207.691 112.988 207.691H121.523C122.851 207.691 123.746 206.606 123.512 205.279L122.09 197.225C121.856 195.9 120.577 194.815 119.25 194.815H110.715C109.387 194.815 108.492 195.9 108.727 197.225L110.149 205.279H110.148Z" fill="#2D4BAA"/>
<path d="M129.469 205.279C129.702 206.606 130.982 207.691 132.309 207.691H140.844C142.172 207.691 143.068 206.606 142.833 205.279L141.409 197.225C141.176 195.9 139.897 194.815 138.569 194.815H130.035C128.706 194.815 127.811 195.9 128.046 197.225L129.469 205.279Z" fill="#2D4BAA"/>
<path d="M68.3146 187.189C68.548 188.516 69.8287 189.602 71.1558 189.602H79.6917C81.0201 189.602 81.9146 188.517 81.68 187.189L80.2575 179.136C80.0241 177.809 78.7447 176.723 77.4175 176.723H68.8816C67.5533 176.723 66.6563 177.808 66.8922 179.136L68.3146 187.189Z" fill="#2D4BAA"/>
<path d="M87.6345 187.189C87.8704 188.516 89.1486 189.602 90.4758 189.602H99.0105C100.34 189.602 101.235 188.517 101 187.189L99.5775 179.136C99.3441 177.809 98.0658 176.723 96.7375 176.723H88.2003C86.872 176.723 85.9775 177.808 86.2109 179.136L87.6345 187.189Z" fill="#2D4BAA"/>
<path d="M106.954 187.191C107.188 188.518 108.467 189.603 109.795 189.603H118.33C119.658 189.603 120.553 188.517 120.319 187.191L118.897 179.137C118.663 177.81 117.384 176.725 116.055 176.725H107.521C106.192 176.725 105.298 177.81 105.533 179.137L106.954 187.191Z" fill="#2D4BAA"/>
<path d="M126.274 187.191C126.509 188.518 127.788 189.603 129.115 189.603H137.65C138.979 189.603 139.874 188.517 139.64 187.191L138.217 179.137C137.984 177.81 136.704 176.725 135.377 176.725H126.841C125.513 176.725 124.617 177.81 124.852 179.137L126.273 187.191H126.274Z" fill="#2D4BAA"/>
<path d="M79.4328 241.45C79.6662 242.776 80.9457 243.861 82.2728 243.861H90.8075C92.1359 243.861 93.0304 242.776 92.7958 241.45L91.3745 233.396C91.1399 232.07 89.8616 230.984 88.5333 230.984H79.9986C78.6703 230.984 77.7745 232.07 78.0104 233.396L79.4328 241.45Z" fill="#B2BFEB"/>
<path d="M98.7528 241.45C98.9862 242.777 100.266 243.861 101.593 243.861H110.128C111.456 243.861 112.35 242.777 112.117 241.45L110.695 233.396C110.461 232.07 109.182 230.985 107.855 230.985H99.3211C97.9927 230.985 97.0958 232.07 97.3316 233.396L98.7528 241.45Z" fill="#B2BFEB"/>
<path d="M118.071 241.45C118.305 242.777 119.584 243.861 120.911 243.861H129.446C130.774 243.861 131.67 242.777 131.436 241.45L130.012 233.396C129.778 232.07 128.5 230.985 127.172 230.985H118.636C117.308 230.985 116.413 232.07 116.648 233.396L118.071 241.45Z" fill="#B2BFEB"/>
<path d="M137.392 241.45C137.626 242.777 138.905 243.861 140.232 243.861H148.767C150.095 243.861 150.99 242.777 150.756 241.45L149.335 233.396C149.102 232.07 147.822 230.985 146.495 230.985H137.96C136.632 230.985 135.736 232.07 135.971 233.396L137.395 241.45H137.392Z" fill="#B2BFEB"/>
<path d="M76.2382 223.362C76.4716 224.688 77.7511 225.773 79.0795 225.773H87.6141C88.9437 225.773 89.8382 224.688 89.6036 223.362L88.1812 215.308C87.9465 213.982 86.6695 212.897 85.3399 212.897H76.8052C75.4769 212.897 74.5811 213.982 74.817 215.308L76.2382 223.362Z" fill="#B2BFEB"/>
<path d="M95.5579 223.362C95.7913 224.688 97.0707 225.773 98.3991 225.773H106.934C108.263 225.773 109.157 224.687 108.923 223.362L107.501 215.308C107.267 213.982 105.989 212.897 104.661 212.897H96.1261C94.7978 212.897 93.9032 213.982 94.1366 215.308L95.5591 223.362H95.5579Z" fill="#B2BFEB"/>
<path d="M114.877 223.363C115.111 224.69 116.39 225.774 117.719 225.774H126.253C127.583 225.774 128.477 224.688 128.243 223.363L126.82 215.309C126.587 213.983 125.307 212.898 123.98 212.898H115.446C114.117 212.898 113.223 213.983 113.457 215.309L114.877 223.363Z" fill="#B2BFEB"/>
<path d="M134.198 223.363C134.434 224.69 135.711 225.774 137.041 225.774H145.574C146.904 225.774 147.798 224.688 147.564 223.363L146.141 215.309C145.908 213.983 144.628 212.898 143.301 212.898H134.76C133.432 212.898 132.536 213.983 132.772 215.309L134.198 223.363Z" fill="#B2BFEB"/>
<path d="M73.0472 205.279C73.2806 206.605 74.5601 207.69 75.8885 207.69H84.4232C85.7515 207.69 86.646 206.605 86.4126 205.279L84.9902 197.225C84.7555 195.898 83.4773 194.814 82.1489 194.814H73.6106C72.2822 194.814 71.3877 195.898 71.6223 197.225L73.0472 205.279Z" fill="#B2BFEB"/>
<path d="M92.3651 205.279C92.5985 206.605 93.878 207.69 95.2039 207.691H103.74C105.069 207.691 105.963 206.606 105.729 205.279L104.307 197.225C104.073 195.9 102.795 194.815 101.467 194.815H92.9321C91.6037 194.815 90.708 195.9 90.9426 197.227L92.3651 205.279Z" fill="#B2BFEB"/>
<path d="M111.684 205.279C111.918 206.606 113.197 207.691 114.524 207.691H123.059C124.387 207.691 125.283 206.606 125.049 205.279L123.626 197.225C123.393 195.9 122.113 194.815 120.786 194.815H112.25C110.922 194.815 110.027 195.9 110.261 197.225L111.683 205.279H111.684Z" fill="#B2BFEB"/>
<path d="M131.005 205.279C131.238 206.606 132.518 207.691 133.845 207.691H142.38C143.708 207.691 144.604 206.606 144.369 205.279L142.948 197.225C142.715 195.9 141.435 194.815 140.108 194.815H131.571C130.243 194.815 129.347 195.9 129.583 197.225L131.005 205.279Z" fill="#B2BFEB"/>
<path d="M69.8505 187.189C70.0839 188.516 71.3646 189.602 72.6918 189.602H81.2264C82.5548 189.602 83.4493 188.517 83.2159 187.189L81.7935 179.136C81.5601 177.809 80.2806 176.723 78.9535 176.723H70.4175C69.0892 176.723 68.1934 177.808 68.4293 179.136L69.8505 187.189Z" fill="#B2BFEB"/>
<path d="M89.171 187.189C89.4056 188.516 90.6839 189.602 92.0122 189.602H100.543C101.873 189.602 102.767 188.517 102.533 187.189L101.11 179.136C100.877 177.809 99.5974 176.723 98.2703 176.723H89.7356C88.4072 176.723 87.5127 177.808 87.7473 179.136L89.1698 187.189H89.171Z" fill="#B2BFEB"/>
<path d="M108.487 187.191C108.721 188.518 110 189.603 111.328 189.603H119.863C121.191 189.603 122.085 188.517 121.852 187.191L120.43 179.137C120.196 177.81 118.917 176.725 117.59 176.725H109.055C107.727 176.725 106.832 177.81 107.067 179.137L108.487 187.191Z" fill="#B2BFEB"/>
<path d="M127.81 187.191C128.045 188.518 129.324 189.603 130.652 189.603H139.186C140.515 189.603 141.41 188.517 141.176 187.191L139.752 179.137C139.519 177.81 138.239 176.725 136.912 176.725H128.377C127.049 176.725 126.153 177.81 126.388 179.137L127.809 187.191H127.81Z" fill="#B2BFEB"/>
<path fill-rule="evenodd" clip-rule="evenodd" d="M62.6599 166.943H49.9165C49.6734 166.943 49.4403 167.039 49.2684 167.211C49.0966 167.382 49 167.615 49 167.858C49 168.1 49.0966 168.333 49.2684 168.505C49.4403 168.677 49.6734 168.773 49.9165 168.773H62.6599C62.903 168.773 63.1361 168.677 63.308 168.505C63.4799 168.333 63.5764 168.1 63.5764 167.858C63.5764 167.615 63.4799 167.382 63.308 167.211C63.1361 167.039 62.903 166.943 62.6599 166.943Z" fill="black"/>
<path fill-rule="evenodd" clip-rule="evenodd" d="M49.1711 168.234L55.0124 201.313C55.0312 201.433 55.0738 201.548 55.1377 201.652C55.2016 201.756 55.2856 201.845 55.3847 201.916C55.4838 201.987 55.5961 202.037 55.715 202.064C55.8338 202.091 55.9569 202.094 56.0769 202.073C56.1969 202.052 56.3115 202.007 56.414 201.941C56.5165 201.876 56.6048 201.79 56.6738 201.69C56.7427 201.589 56.7909 201.476 56.8156 201.357C56.8402 201.238 56.8408 201.115 56.8173 200.996L50.9772 167.916C50.9576 167.797 50.9144 167.682 50.8502 167.58C50.7859 167.477 50.7018 167.388 50.6029 167.318C50.5039 167.248 50.392 167.198 50.2736 167.171C50.1552 167.145 50.0328 167.142 49.9133 167.163C49.7938 167.184 49.6797 167.229 49.5776 167.294C49.4755 167.36 49.3875 167.445 49.3185 167.544C49.2496 167.644 49.2012 167.756 49.1761 167.875C49.151 167.993 49.1497 168.116 49.1723 168.235L49.1711 168.234Z" fill="black"/>
<path fill-rule="evenodd" clip-rule="evenodd" d="M144.025 168.775H139.513C139.27 168.775 139.037 168.679 138.865 168.507C138.693 168.336 138.596 168.103 138.596 167.86C138.596 167.617 138.693 167.385 138.865 167.213C139.037 167.041 139.27 166.945 139.513 166.945H144.793C145.009 166.945 145.217 167.021 145.383 167.159C145.548 167.298 145.659 167.49 145.696 167.702L159.505 245.898C160.195 249.803 157.55 253 153.631 253H70.826C67.0853 253 63.4803 249.949 62.8216 246.214L61.5434 238.972C61.5208 238.853 61.5221 238.73 61.5472 238.612C61.5723 238.493 61.6207 238.381 61.6896 238.281C61.7586 238.182 61.8466 238.097 61.9487 238.031C62.0508 237.966 62.1649 237.921 62.2844 237.9C62.4039 237.879 62.5263 237.882 62.6447 237.908C62.7631 237.935 62.875 237.985 62.974 238.055C63.0729 238.125 63.157 238.214 63.2213 238.316C63.2855 238.419 63.3287 238.534 63.3483 238.653C63.3483 238.653 64.6278 245.896 64.6278 245.897C65.1386 248.794 67.9273 251.168 70.8272 251.168H153.631C156.356 251.168 158.181 248.934 157.702 246.213L144.025 168.775Z" fill="black"/>
<path fill-rule="evenodd" clip-rule="evenodd" d="M145.71 155.843V139.345C145.705 137.505 144.97 135.742 143.667 134.441C142.364 133.14 140.598 132.407 138.756 132.401H121.073C120.83 132.401 120.597 132.498 120.425 132.669C120.253 132.841 120.156 133.074 120.156 133.317C120.156 133.559 120.253 133.792 120.425 133.964C120.597 134.135 120.83 134.232 121.073 134.232H138.756C140.113 134.235 141.414 134.774 142.373 135.733C143.333 136.691 143.874 137.99 143.877 139.345V155.843C143.877 156.086 143.974 156.318 144.146 156.49C144.317 156.662 144.551 156.758 144.794 156.758C145.037 156.758 145.27 156.662 145.442 156.49C145.614 156.318 145.71 156.086 145.71 155.843Z" fill="black"/>
<path fill-rule="evenodd" clip-rule="evenodd" d="M99.8283 132.401H55.9573C54.1148 132.407 52.3494 133.14 51.0466 134.441C49.7437 135.742 49.0094 137.505 49.0039 139.345V167.859C49.0039 168.102 49.1005 168.334 49.2724 168.506C49.4442 168.678 49.6774 168.774 49.9204 168.774C50.1635 168.774 50.3966 168.678 50.5685 168.506C50.7404 168.334 50.837 168.102 50.837 167.859V139.345C50.8402 137.99 51.3807 136.691 52.3402 135.733C53.2998 134.775 54.6003 134.235 55.9573 134.232H99.8283C100.071 134.232 100.305 134.135 100.476 133.964C100.648 133.792 100.745 133.559 100.745 133.317C100.745 133.074 100.648 132.841 100.476 132.669C100.305 132.498 100.071 132.401 99.8283 132.401Z" fill="black"/>
<path d="M221.86 103.885C234.713 103.885 245.133 93.4804 245.133 80.6459C245.133 67.8114 234.713 57.407 221.86 57.407C209.007 57.407 198.588 67.8114 198.588 80.6459C198.588 93.4804 209.007 103.885 221.86 103.885Z" fill="white"/>
<path fill-rule="evenodd" clip-rule="evenodd" d="M243.481 86.3397C240.957 95.9067 232.228 102.97 221.86 102.97C218.001 102.975 214.208 101.978 210.852 100.076C210.643 99.9759 210.403 99.9584 210.182 100.027C209.96 100.096 209.773 100.247 209.658 100.448C209.543 100.649 209.509 100.886 209.563 101.112C209.616 101.337 209.753 101.534 209.946 101.663C213.578 103.721 217.684 104.8 221.86 104.794C233.078 104.794 242.523 97.1514 245.253 86.7998C245.315 86.565 245.282 86.3152 245.159 86.1053C245.037 85.8955 244.836 85.7428 244.601 85.6808C244.366 85.6188 244.116 85.6526 243.905 85.7748C243.695 85.897 243.542 86.0976 243.48 86.3324L243.481 86.3397Z" fill="black"/>
<path fill-rule="evenodd" clip-rule="evenodd" d="M201.899 90.7047C200.319 87.5863 199.498 84.1396 199.503 80.6447C199.503 68.3199 209.524 58.321 221.86 58.321C225.866 58.3214 229.799 59.3963 233.246 61.4335C236.694 63.4706 239.53 66.3952 241.459 69.9014C241.515 70.0103 241.593 70.1068 241.687 70.1852C241.781 70.2636 241.89 70.3225 242.007 70.3581C242.124 70.3938 242.247 70.4057 242.369 70.3929C242.491 70.3802 242.609 70.3432 242.717 70.2841C242.824 70.225 242.918 70.145 242.994 70.0489C243.07 69.9527 243.126 69.8423 243.158 69.7243C243.19 69.6062 243.199 69.4829 243.183 69.3615C243.166 69.2402 243.126 69.1234 243.064 69.0179C240.977 65.225 237.908 62.0614 234.178 59.8577C230.448 57.654 226.194 56.4911 221.86 56.4906C208.509 56.4906 197.67 67.3132 197.67 80.6447C197.664 84.4268 198.551 88.1569 200.261 91.532C200.371 91.7471 200.563 91.9097 200.793 91.9843C201.024 92.0589 201.274 92.0394 201.49 91.9301C201.706 91.8208 201.87 91.6305 201.946 91.4009C202.022 91.1713 202.004 90.921 201.896 90.7047H201.899Z" fill="black"/>
<path d="M208.753 90.6205C208.449 90.444 208.219 90.1634 208.106 89.8306C207.993 89.4978 208.005 89.1354 208.139 88.8106C208.274 88.4858 208.521 88.2207 208.836 88.0643C209.152 87.9079 209.513 87.871 209.853 87.9603L222.968 91.4698C224.086 91.7691 225.278 91.6127 226.28 91.0349C227.283 90.457 228.015 89.5051 228.314 88.3886C228.614 87.272 228.457 86.0823 227.879 85.0811C227.3 84.0799 226.347 83.3492 225.229 83.0499L217.736 81.0474C215.875 80.5458 214.288 79.3279 213.324 77.6605C212.36 75.9932 212.097 74.0122 212.593 72.1516C213.097 70.2942 214.318 68.7118 215.988 67.7504C217.657 66.7891 219.64 66.527 221.503 67.0216L234.616 70.5286C234.806 70.573 234.985 70.6549 235.143 70.7697C235.3 70.8844 235.433 71.0296 235.534 71.1967C235.634 71.3637 235.699 71.5491 235.726 71.742C235.754 71.9348 235.742 72.1312 235.691 72.3193C235.641 72.5074 235.553 72.6835 235.433 72.8371C235.313 72.9907 235.164 73.1187 234.993 73.2135C234.823 73.3083 234.635 73.3679 234.442 73.3888C234.248 73.4097 234.052 73.3915 233.865 73.3353L220.751 69.8282C219.633 69.5292 218.442 69.6859 217.439 70.264C216.437 70.842 215.705 71.7941 215.406 72.9106C215.107 74.0272 215.264 75.2168 215.842 76.2177C216.421 77.2187 217.375 77.9491 218.493 78.2481L225.984 80.2506C227.848 80.7488 229.437 81.9659 230.402 83.6341C231.366 85.3022 231.628 87.2849 231.129 89.1458C230.63 91.0067 229.411 92.5934 227.741 93.557C226.07 94.5206 224.085 94.782 222.221 94.2837L209.106 90.7681C208.983 90.7348 208.865 90.6851 208.754 90.6205H208.753Z" fill="#2D4BAA"/>
<path d="M216.614 98.7401C216.337 98.5803 216.12 98.3337 215.998 98.0386C215.875 97.7434 215.853 97.4161 215.936 97.1074L224.97 63.4339C225.015 63.2449 225.098 63.0668 225.213 62.9102C225.328 62.7536 225.474 62.6216 225.641 62.5221C225.808 62.4226 225.993 62.3576 226.186 62.3308C226.379 62.3041 226.575 62.3162 226.763 62.3665C226.951 62.4168 227.127 62.5041 227.28 62.6235C227.434 62.7428 227.562 62.8917 227.657 63.0613C227.752 63.2309 227.812 63.4178 227.833 63.6109C227.854 63.804 227.837 63.9994 227.781 64.1856L218.748 97.8579C218.689 98.0728 218.582 98.2715 218.435 98.4387C218.288 98.6058 218.104 98.737 217.898 98.8221C217.692 98.9072 217.469 98.944 217.246 98.9296C217.024 98.9151 216.807 98.8499 216.614 98.7389V98.7401Z" fill="#2D4BAA"/>
<path d="M345.464 59.3094L355.885 82.1285C356.709 83.9435 356.78 86.0104 356.082 87.8771C355.383 89.7439 353.973 91.2585 352.16 92.0896L300.608 115.563C298.79 116.383 296.722 116.452 294.853 115.755C292.985 115.057 291.469 113.65 290.636 111.84L280.217 89.0207C279.394 87.2061 279.324 85.14 280.022 83.274C280.72 81.4079 282.129 79.8936 283.942 79.062L335.492 55.5876C337.309 54.7668 339.378 54.6975 341.246 55.3949C343.114 56.0922 344.63 57.4996 345.463 59.3094H345.464Z" fill="#2D4BAA"/>
<path d="M318.048 94.4057C322.933 94.4057 326.893 90.4513 326.893 85.5734C326.893 80.6954 322.933 76.741 318.048 76.741C313.163 76.741 309.203 80.6954 309.203 85.5734C309.203 90.4513 313.163 94.4057 318.048 94.4057Z" fill="white"/>
<path d="M345.464 59.3094L346.581 61.7561C346.164 62.0394 345.724 62.2872 345.265 62.4968C343.131 63.468 340.698 63.553 338.501 62.7331C336.304 61.9132 334.523 60.2555 333.55 58.1245C333.34 57.6657 333.17 57.1901 333.04 56.7029L335.493 55.5876C337.31 54.7664 339.379 54.6969 341.247 55.3943C343.116 56.0917 344.632 57.4993 345.464 59.3094Z" fill="white"/>
<path d="M354.77 79.6904L355.884 82.131C356.708 83.9455 356.778 86.0117 356.08 87.8778C355.382 89.744 353.972 91.2582 352.16 92.0896L349.707 93.2062C348.983 92.1421 348.501 90.9332 348.293 89.6638C348.085 88.3944 348.157 87.095 348.503 85.8561C348.85 84.6172 349.462 83.4687 350.299 82.4904C351.135 81.5122 352.175 80.7278 353.346 80.192C353.805 79.9829 354.281 79.815 354.77 79.6904Z" fill="white"/>
<path d="M287.132 79.256C287.614 80.3117 287.883 81.4518 287.923 82.6113C287.964 83.7707 287.775 84.9268 287.368 86.0134C286.961 87.1 286.343 88.0959 285.551 88.9442C284.758 89.7924 283.806 90.4765 282.749 90.9572C282.289 91.1668 281.812 91.3374 281.324 91.4673L280.208 89.017C279.385 87.2023 279.315 85.1361 280.014 83.27C280.712 81.404 282.121 79.8898 283.934 79.0583L286.378 77.9442C286.668 78.358 286.921 78.797 287.132 79.256Z" fill="white"/>
<path d="M302.545 113.026C302.754 113.485 302.922 113.962 303.046 114.451L300.602 115.565C298.785 116.386 296.716 116.455 294.847 115.758C292.979 115.061 291.463 113.653 290.63 111.843L289.516 109.403C289.93 109.115 290.37 108.865 290.829 108.656C291.886 108.175 293.027 107.906 294.188 107.865C295.348 107.824 296.506 108.012 297.594 108.417C298.682 108.823 299.679 109.439 300.528 110.23C301.378 111.021 302.063 111.971 302.545 113.026Z" fill="white"/>
<path fill-rule="evenodd" clip-rule="evenodd" d="M337.278 97.8591L300.223 114.734C298.627 115.455 296.81 115.516 295.169 114.903C293.529 114.291 292.197 113.055 291.466 111.465L286.012 99.5187C285.965 99.4053 285.895 99.3025 285.807 99.2165C285.72 99.1305 285.615 99.063 285.501 99.0181C285.386 98.9731 285.264 98.9516 285.141 98.9549C285.018 98.9582 284.897 98.9861 284.785 99.0371C284.673 99.088 284.573 99.161 284.49 99.2515C284.407 99.3421 284.343 99.4484 284.302 99.5642C284.261 99.6799 284.243 99.8028 284.251 99.9253C284.258 100.048 284.29 100.168 284.345 100.278L289.799 112.224C290.733 114.255 292.434 115.833 294.53 116.616C296.626 117.398 298.947 117.321 300.986 116.4L338.038 99.5297C338.259 99.429 338.431 99.2448 338.516 99.0174C338.601 98.79 338.592 98.5382 338.492 98.3173C338.391 98.0965 338.206 97.9246 337.979 97.8396C337.751 97.7546 337.499 97.7634 337.278 97.864V97.8591Z" fill="black"/>
<path fill-rule="evenodd" clip-rule="evenodd" d="M280.705 84.1188C280.964 83.1939 281.421 82.3365 282.046 81.6064C282.67 80.8763 283.447 80.2911 284.321 79.8918L335.874 56.421C337.47 55.7001 339.287 55.6393 340.928 56.2519C342.568 56.8644 343.899 58.1006 344.63 59.6901L355.052 82.5093C355.417 83.3107 355.618 84.1772 355.642 85.0576C355.667 85.938 355.513 86.8143 355.192 87.6344C355.104 87.861 355.11 88.1131 355.209 88.3353C355.307 88.5575 355.49 88.7316 355.716 88.8193C355.943 88.907 356.196 88.9011 356.418 88.803C356.641 88.7048 356.815 88.5224 356.903 88.2958C357.312 87.2488 357.507 86.1305 357.475 85.0071C357.444 83.8836 357.188 82.7779 356.721 81.7551L346.299 58.936C345.366 56.9055 343.666 55.3266 341.57 54.5441C339.474 53.7616 337.154 53.8394 335.115 54.7602L283.56 78.2249C282.443 78.7343 281.451 79.4813 280.653 80.4136C279.855 81.3458 279.271 82.4409 278.941 83.6222C278.904 83.739 278.891 83.8621 278.903 83.9841C278.914 84.1061 278.95 84.2245 279.009 84.3323C279.067 84.4402 279.146 84.5352 279.242 84.6118C279.338 84.6884 279.448 84.745 279.566 84.7783C279.684 84.8115 279.808 84.8208 279.93 84.8054C280.051 84.7901 280.169 84.7505 280.275 84.689C280.381 84.6275 280.474 84.5454 280.548 84.4474C280.621 84.3495 280.675 84.2377 280.704 84.1188H280.705Z" fill="black"/>
</g>
<defs>
<linearGradient id="paint0_linear_138_10730" x1="195.342" y1="299.25" x2="195.667" y2="254.765" gradientUnits="userSpaceOnUse">
<stop stop-color="white" stop-opacity="0"/>
<stop offset="1" stop-color="#82A9FF" stop-opacity="0.21"/>
</linearGradient>
<clipPath id="clip0_138_10730">
<rect width="322" height="199" fill="white" transform="translate(49 54)"/>
</clipPath>
</defs>
</svg>
