<svg width="423" height="310" viewBox="0 0 423 310" fill="none" xmlns="http://www.w3.org/2000/svg">
<g clip-path="url(#clip0_137_4903)">
<g clip-path="url(#clip1_137_4903)">
<path fill-rule="evenodd" clip-rule="evenodd" d="M168.81 218.101C199.267 201.812 232.53 207.071 268.267 225.307C302.181 240.933 326.669 228.188 345.368 194.466C371.227 140.708 330.517 88.097 235.145 42.2661C156.669 3.98654 101.868 17.9034 60.3332 66.74C-9.03078 151.865 76.1128 266.823 168.81 218.101Z" fill="url(#paint0_linear_137_4903)"/>
<path fill-rule="evenodd" clip-rule="evenodd" d="M192.5 243.5C174.265 248.666 122 246 98 251C58.7766 259.172 54.2844 265.112 54.9444 271.901C59.4177 282.374 120.968 286.811 226.468 285.399C313.562 284.325 354.066 277.377 365.628 266.273C383.154 247.186 252.965 237.752 192.5 243.5Z" fill="url(#paint1_linear_137_4903)"/>
<g clip-path="url(#clip2_137_4903)">
<path fill-rule="evenodd" clip-rule="evenodd" d="M26.4381 242.734C38.855 237.58 51.3162 240.014 54.2821 248.173C57.248 256.332 49.5676 267.101 37.1507 272.255C24.7559 277.388 12.2947 274.953 9.32885 266.816C6.36296 258.657 14.0212 247.888 26.4381 242.734Z" fill="#E8F2FB"/>
</g>
</g>
<g clip-path="url(#clip3_137_4903)">
<path d="M322.236 96.805L322.238 96.8038V230.774L239.191 243.078H176.237L92.1582 230.773V94.9478C92.1582 86.2653 99.2687 79.1559 107.947 79.1559H306.444C315.129 79.1559 322.236 86.2665 322.236 94.9478V96.805Z" fill="white" stroke="black" stroke-width="1.5"/>
<path d="M306.443 94.9478H107.945V219.014H306.443V94.9478Z" fill="white"/>
<path d="M330.509 230.167V233.551C330.509 242.236 323.399 249.346 314.719 249.346H99.6774C90.9929 249.346 83.8848 242.235 83.8848 233.551V230.167H186.059L188.144 234.313C188.144 234.314 188.145 234.314 188.145 234.315C188.727 235.494 189.764 236.515 190.936 237.239C192.108 237.964 193.485 238.434 194.792 238.434H219.603C220.91 238.434 222.286 237.965 223.459 237.24C224.63 236.516 225.667 235.495 226.249 234.316C226.25 234.315 226.25 234.314 226.251 234.313L228.338 230.167H330.509Z" fill="white" stroke="black" stroke-width="1.5"/>
<path fill-rule="evenodd" clip-rule="evenodd" d="M256.077 52.7805C258.202 43.2154 266.295 37.9008 275.207 37.9008C278.291 37.9004 281.324 38.6897 284.017 40.1936C286.71 41.6974 288.972 43.8657 290.59 46.4918C294.115 46.8674 297.36 48.5837 299.654 51.2858C301.949 53.9878 303.117 57.4686 302.916 61.0077C302.715 64.5469 301.162 67.8734 298.577 70.2988C295.992 72.7243 292.573 74.0629 289.028 74.0377H256.077C253.258 74.0377 250.554 72.9178 248.561 70.9245C246.568 68.9311 245.448 66.2275 245.448 63.4085C245.448 60.5894 246.568 57.8859 248.561 55.8925C250.554 53.8991 253.258 52.7793 256.077 52.7793V52.7805Z" fill="white"/>
<path fill-rule="evenodd" clip-rule="evenodd" d="M265.147 73.1357H256.076C250.709 73.1357 246.316 68.7808 246.348 63.4133C246.358 61.7894 246.761 60.192 247.523 58.7581C247.622 58.5483 247.636 58.3084 247.563 58.0883C247.49 57.8681 247.334 57.6847 247.129 57.5764C246.924 57.468 246.685 57.4429 246.462 57.5065C246.239 57.57 246.049 57.7172 245.931 57.9173C245.033 59.6081 244.558 61.4915 244.547 63.4061C244.508 69.7716 249.711 74.9361 256.076 74.9361H265.15C265.389 74.9361 265.618 74.8412 265.787 74.6723C265.956 74.5033 266.051 74.2742 266.051 74.0353C266.051 73.7964 265.956 73.5673 265.787 73.3984C265.618 73.2294 265.389 73.1345 265.15 73.1345L265.147 73.1357Z" fill="black"/>
<path fill-rule="evenodd" clip-rule="evenodd" d="M249.371 56.2647C251.064 54.5832 253.462 53.6536 256.063 53.6813C256.27 53.6834 256.471 53.6146 256.633 53.4862C256.794 53.3579 256.907 53.1778 256.952 52.9763C258.978 43.8555 266.705 38.804 275.207 38.804C278.138 38.804 281.02 39.5547 283.579 40.9843C286.137 42.414 288.287 44.475 289.823 46.971C289.951 47.1692 290.152 47.3093 290.382 47.3613C290.612 47.4133 290.853 47.373 291.054 47.2491C291.254 47.1252 291.398 46.9275 291.455 46.6986C291.511 46.4697 291.476 46.2277 291.356 46.0246C289.658 43.2677 287.283 40.9915 284.456 39.4128C281.629 37.8341 278.445 37.0055 275.207 37.006C266.098 37.006 257.816 42.3242 255.363 51.8989C252.54 52.0346 249.968 53.1432 248.107 54.9928C247.942 55.1621 247.85 55.3894 247.852 55.6256C247.853 55.8619 247.947 56.0882 248.113 56.2558C248.28 56.4234 248.505 56.5188 248.742 56.5216C248.978 56.5244 249.206 56.4343 249.376 56.2707L249.371 56.2647Z" fill="black"/>
<path fill-rule="evenodd" clip-rule="evenodd" d="M296.408 49.6302C298.663 51.2023 300.358 53.453 301.245 56.0548C302.133 58.6566 302.167 61.4737 301.343 64.0963C300.519 66.7188 298.879 69.01 296.663 70.6365C294.447 72.2629 291.77 73.1397 289.021 73.1393C288.782 73.1393 288.553 73.2342 288.384 73.4032C288.215 73.5721 288.12 73.8012 288.12 74.0401C288.12 74.279 288.215 74.5081 288.384 74.6771C288.553 74.846 288.782 74.9409 289.021 74.9409C292.152 74.9402 295.201 73.9407 297.725 72.0879C300.249 70.235 302.117 67.6254 303.056 64.6383C303.995 61.6512 303.957 58.4425 302.947 55.4785C301.937 52.5146 300.008 49.9501 297.441 48.1577C297.245 48.0207 297.003 47.9671 296.768 48.0087C296.533 48.0502 296.324 48.1835 296.187 48.3793C296.05 48.575 295.996 48.8172 296.038 49.0524C296.079 49.2877 296.212 49.4968 296.408 49.6338V49.6302Z" fill="black"/>
<path fill-rule="evenodd" clip-rule="evenodd" d="M278.122 77.0812V66.0088C278.122 65.7036 278.243 65.4109 278.459 65.1952C278.675 64.9794 278.968 64.8582 279.273 64.8582H285.021C285.326 64.8582 285.619 64.9794 285.834 65.1952C286.05 65.4109 286.171 65.7036 286.171 66.0088V77.0812H289.761C290 77.081 290.233 77.1554 290.428 77.294C290.623 77.4325 290.77 77.6283 290.849 77.8542C290.927 78.0801 290.933 78.3248 290.866 78.5543C290.799 78.7838 290.662 78.9868 290.475 79.1349L282.859 85.1485C282.656 85.3088 282.405 85.3959 282.146 85.3959C281.888 85.3959 281.636 85.3088 281.433 85.1485L273.817 79.1349C273.629 78.9868 273.492 78.7838 273.425 78.5543C273.358 78.3248 273.364 78.0801 273.443 77.8542C273.521 77.6283 273.668 77.4325 273.863 77.294C274.058 77.1554 274.291 77.081 274.53 77.0812H278.12H278.122Z" fill="#2D4BAA"/>
<path fill-rule="evenodd" clip-rule="evenodd" d="M284.964 82.3417L282.305 84.4411C282.261 84.476 282.206 84.495 282.15 84.495C282.094 84.495 282.039 84.476 281.995 84.4411L274.379 78.4275C274.338 78.3953 274.308 78.3513 274.294 78.3015C274.279 78.2517 274.281 78.1987 274.298 78.1497C274.315 78.1007 274.347 78.0583 274.389 78.0282C274.431 77.9982 274.482 77.982 274.533 77.9819H278.123C278.362 77.9819 278.591 77.887 278.76 77.7181C278.929 77.5492 279.024 77.3201 279.024 77.0812V71.0015C279.024 70.7626 278.929 70.5335 278.76 70.3645C278.591 70.1956 278.362 70.1007 278.123 70.1007C277.884 70.1007 277.655 70.1956 277.486 70.3645C277.317 70.5335 277.223 70.7626 277.223 71.0015V76.1816H274.533C274.107 76.1815 273.691 76.3143 273.344 76.5614C272.997 76.8085 272.735 77.1577 272.595 77.5605C272.456 77.9632 272.445 78.3995 272.564 78.8086C272.684 79.2178 272.928 79.5795 273.263 79.8436L280.88 85.8572C281.242 86.1431 281.689 86.2986 282.151 86.2986C282.612 86.2986 283.06 86.1431 283.422 85.8572L286.081 83.7577C286.261 83.6074 286.376 83.3927 286.4 83.1592C286.424 82.9258 286.357 82.6921 286.211 82.5079C286.066 82.3236 285.854 82.2034 285.622 82.1729C285.389 82.1423 285.153 82.2037 284.965 82.3441L284.964 82.3417Z" fill="#2D2E85"/>
<path fill-rule="evenodd" clip-rule="evenodd" d="M279.023 66.0087C279.023 65.9425 279.049 65.879 279.096 65.8321C279.143 65.7853 279.206 65.7589 279.272 65.7589H285.02C285.087 65.7589 285.15 65.7853 285.197 65.8321C285.244 65.879 285.27 65.9425 285.27 66.0087V77.0811C285.27 77.32 285.365 77.5492 285.534 77.7181C285.703 77.887 285.932 77.9819 286.171 77.9819H289.761C289.813 77.982 289.863 77.9982 289.905 78.0282C289.948 78.0583 289.979 78.1007 289.996 78.1497C290.013 78.1987 290.015 78.2517 290 78.3015C289.986 78.3513 289.956 78.3953 289.916 78.4275L287.479 80.3492C287.299 80.4995 287.184 80.7142 287.16 80.9477C287.136 81.1811 287.203 81.4148 287.349 81.5991C287.494 81.7833 287.706 81.9035 287.938 81.9341C288.171 81.9647 288.407 81.9032 288.595 81.7628L291.031 79.8411C291.366 79.5771 291.61 79.2154 291.73 78.8062C291.849 78.3971 291.839 77.9608 291.699 77.558C291.559 77.1553 291.297 76.8061 290.95 76.559C290.603 76.3119 290.187 76.1791 289.761 76.1792H287.072V66.0087C287.072 65.7394 287.019 65.4726 286.916 65.2237C286.812 64.9748 286.661 64.7487 286.471 64.5582C286.28 64.3677 286.054 64.2166 285.805 64.1135C285.557 64.0104 285.29 63.9574 285.02 63.9574H279.268C278.998 63.9574 278.731 64.0104 278.483 64.1135C278.234 64.2166 278.008 64.3677 277.817 64.5582C277.627 64.7487 277.476 64.9748 277.372 65.2237C277.269 65.4726 277.216 65.7394 277.216 66.0087C277.216 66.2476 277.311 66.4768 277.48 66.6457C277.649 66.8146 277.878 66.9095 278.117 66.9095C278.356 66.9095 278.585 66.8146 278.754 66.6457C278.923 66.4768 279.018 66.2476 279.018 66.0087H279.023Z" fill="#2D2E85"/>
<path fill-rule="evenodd" clip-rule="evenodd" d="M261.121 71.1384V82.2108C261.121 82.516 261.242 82.8086 261.458 83.0244C261.674 83.2402 261.966 83.3614 262.271 83.3614H268.025C268.331 83.3614 268.623 83.2402 268.839 83.0244C269.055 82.8086 269.176 82.516 269.176 82.2108V71.1384H272.766C273.005 71.1385 273.238 71.0641 273.433 70.9256C273.628 70.7871 273.775 70.5912 273.853 70.3654C273.932 70.1395 273.938 69.8948 273.871 69.6652C273.804 69.4357 273.667 69.2328 273.479 69.0846L265.862 63.071C265.659 62.9108 265.408 62.8236 265.15 62.8236C264.891 62.8236 264.64 62.9108 264.437 63.071L256.818 69.087C256.63 69.2352 256.493 69.4381 256.426 69.6676C256.359 69.8972 256.365 70.1419 256.444 70.3678C256.522 70.5936 256.669 70.7895 256.864 70.928C257.059 71.0665 257.292 71.1409 257.531 71.1408H261.121V71.1384Z" fill="#72D8ED"/>
<path fill-rule="evenodd" clip-rule="evenodd" d="M268.274 71.1732C268.274 71.1732 268.274 71.2105 268.274 71.2465C268.274 71.8242 268.283 74.81 268.283 77.5964C268.283 77.8353 268.378 78.0644 268.547 78.2333C268.716 78.4023 268.945 78.4972 269.184 78.4972C269.423 78.4972 269.652 78.4023 269.821 78.2333C269.99 78.0644 270.085 77.8353 270.085 77.5964C270.085 75.4802 270.085 73.2486 270.085 72.0392H272.768C273.194 72.0392 273.61 71.9065 273.957 71.6593C274.304 71.4122 274.566 71.063 274.706 70.6603C274.846 70.2576 274.856 69.8213 274.737 69.4121C274.617 69.003 274.373 68.6412 274.038 68.3772L266.418 62.3612C266.056 62.0753 265.608 61.9198 265.147 61.9198C264.685 61.9198 264.238 62.0753 263.875 62.3612L262.055 63.8024C261.958 63.8744 261.877 63.965 261.816 64.0688C261.756 64.1726 261.716 64.2876 261.701 64.4069C261.685 64.5262 261.693 64.6474 261.725 64.7635C261.757 64.8795 261.812 64.9879 261.887 65.0824C261.961 65.1768 262.054 65.2554 262.159 65.3134C262.265 65.3714 262.381 65.4077 262.5 65.4202C262.62 65.4327 262.741 65.421 262.856 65.386C262.971 65.3509 263.078 65.2931 263.171 65.2161L264.991 63.7748C265.035 63.7399 265.09 63.721 265.146 63.721C265.202 63.721 265.257 63.7399 265.301 63.7748L272.918 69.7884C272.958 69.8206 272.988 69.8647 273.003 69.9145C273.017 69.9642 273.016 70.0173 272.999 70.0662C272.982 70.1152 272.95 70.1577 272.908 70.1877C272.865 70.2178 272.815 70.234 272.763 70.234H269.173C269.052 70.2341 268.932 70.2586 268.821 70.3061C268.709 70.3536 268.608 70.4231 268.524 70.5105C268.44 70.5978 268.375 70.7012 268.332 70.8145C268.289 70.9277 268.269 71.0485 268.274 71.1696V71.1732Z" fill="#2D2E85"/>
<path fill-rule="evenodd" clip-rule="evenodd" d="M259.038 66.1829L256.259 68.3772C255.924 68.6412 255.68 69.0029 255.56 69.4121C255.441 69.8213 255.452 70.2576 255.591 70.6603C255.731 71.063 255.993 71.4122 256.34 71.6593C256.688 71.9065 257.103 72.0392 257.53 72.0392H260.219V82.2108C260.219 82.7549 260.435 83.2766 260.819 83.6613C261.204 84.046 261.726 84.2622 262.27 84.2622H268.024C268.566 84.2615 269.086 84.0465 269.47 83.664C269.855 83.2815 270.072 82.7626 270.075 82.2204C270.076 82.1021 270.054 81.9848 270.009 81.8751C269.965 81.7655 269.899 81.6657 269.816 81.5813C269.734 81.497 269.635 81.4299 269.526 81.3837C269.417 81.3376 269.3 81.3134 269.182 81.3124C269.063 81.3115 268.946 81.3338 268.836 81.3782C268.727 81.4226 268.627 81.4882 268.543 81.5711C268.458 81.6541 268.391 81.7529 268.345 81.8618C268.299 81.9707 268.275 82.0877 268.274 82.206C268.274 82.2731 268.248 82.3378 268.202 82.3859C268.155 82.434 268.091 82.4617 268.024 82.463H262.27C262.204 82.463 262.14 82.4367 262.093 82.3898C262.046 82.343 262.02 82.2794 262.02 82.2132V71.1384C262.02 70.8995 261.925 70.6704 261.756 70.5014C261.587 70.3325 261.358 70.2376 261.119 70.2376H257.53C257.478 70.2376 257.427 70.2214 257.385 70.1913C257.343 70.1613 257.311 70.1188 257.294 70.0698C257.277 70.0209 257.275 69.9678 257.29 69.9181C257.304 69.8683 257.334 69.8242 257.375 69.792L260.16 67.5977C260.347 67.4496 260.468 67.2331 260.496 66.9958C260.524 66.7585 260.456 66.5199 260.308 66.3324C260.16 66.145 259.943 66.024 259.706 65.9962C259.469 65.9684 259.23 66.036 259.043 66.1841L259.038 66.1829Z" fill="#2D2E85"/>
<path fill-rule="evenodd" clip-rule="evenodd" d="M368.73 172.716C366.612 169.048 363.124 166.371 359.032 165.275C354.94 164.178 350.581 164.752 346.912 166.87L330.952 176.085C327.283 178.204 324.607 181.692 323.51 185.784C322.414 189.876 322.988 194.236 325.105 197.905L326.334 200.033C328.452 203.701 331.941 206.378 336.033 207.475C340.124 208.571 344.484 207.997 348.153 205.88L364.113 196.664C367.781 194.546 370.458 191.057 371.554 186.965C372.651 182.873 372.077 178.513 369.959 174.845L368.73 172.716ZM362.346 176.402L363.575 178.531C364.715 180.506 365.024 182.854 364.434 185.057C363.843 187.26 362.402 189.139 360.427 190.279L344.47 199.495C342.495 200.635 340.147 200.944 337.944 200.354C335.741 199.764 333.863 198.322 332.722 196.347L331.493 194.219C330.353 192.243 330.044 189.896 330.634 187.692C331.225 185.489 332.666 183.611 334.641 182.47L350.595 173.254C352.571 172.114 354.918 171.805 357.121 172.395C359.325 172.986 361.203 174.427 362.344 176.402H362.346Z" fill="white"/>
<path fill-rule="evenodd" clip-rule="evenodd" d="M325.553 200.481C326.661 202.4 328.136 204.082 329.894 205.431C331.652 206.78 333.659 207.769 335.799 208.343C337.939 208.916 340.172 209.063 342.369 208.773C344.565 208.484 346.684 207.765 348.603 206.657L364.563 197.441C364.77 197.322 364.921 197.125 364.983 196.894C365.045 196.663 365.013 196.417 364.893 196.21C364.774 196.003 364.577 195.852 364.346 195.79C364.115 195.728 363.869 195.76 363.662 195.88L347.702 205.095C344.24 207.094 340.127 207.635 336.266 206.601C332.405 205.566 329.113 203.041 327.115 199.579C327.055 199.476 326.977 199.387 326.883 199.314C326.789 199.242 326.682 199.189 326.567 199.159C326.453 199.128 326.334 199.12 326.217 199.136C326.099 199.151 325.986 199.189 325.883 199.249C325.781 199.308 325.691 199.387 325.619 199.48C325.547 199.574 325.494 199.681 325.463 199.796C325.433 199.91 325.425 200.029 325.44 200.147C325.456 200.264 325.494 200.377 325.553 200.48V200.481Z" fill="#2D2E85"/>
<path fill-rule="evenodd" clip-rule="evenodd" d="M372.425 187.199C373.584 182.876 372.979 178.271 370.743 174.394L369.515 172.266C368.407 170.347 366.932 168.665 365.174 167.316C363.416 165.967 361.409 164.978 359.269 164.404C357.128 163.831 354.896 163.684 352.699 163.974C350.502 164.263 348.384 164.982 346.465 166.09L330.505 175.306C327.911 176.803 325.763 178.964 324.28 181.566C322.798 184.169 322.034 187.119 322.069 190.114C322.072 190.352 322.169 190.58 322.34 190.747C322.511 190.914 322.741 191.007 322.98 191.004C323.219 191.001 323.447 190.904 323.614 190.733C323.781 190.562 323.873 190.332 323.87 190.093C323.84 187.418 324.521 184.783 325.845 182.458C327.17 180.134 329.089 178.204 331.406 176.866L347.366 167.652C350.827 165.653 354.941 165.111 358.802 166.146C362.663 167.18 365.955 169.706 367.953 173.168L369.182 175.296C370.172 177.01 370.814 178.903 371.072 180.865C371.331 182.828 371.2 184.822 370.688 186.734C370.626 186.965 370.659 187.21 370.778 187.417C370.898 187.624 371.094 187.775 371.325 187.837C371.556 187.899 371.802 187.866 372.009 187.747C372.215 187.627 372.366 187.431 372.428 187.2L372.425 187.199Z" fill="#2D2E85"/>
<path fill-rule="evenodd" clip-rule="evenodd" d="M353.522 173.126C355.083 172.842 356.694 173.047 358.135 173.713C359.575 174.38 360.775 175.475 361.569 176.849L362.797 178.977C363.303 179.853 363.631 180.82 363.763 181.823C363.895 182.825 363.828 183.844 363.566 184.821C363.305 185.797 362.853 186.713 362.237 187.515C361.622 188.318 360.854 188.991 359.978 189.496L353.219 193.398C353.012 193.518 352.861 193.715 352.799 193.945C352.737 194.176 352.769 194.422 352.889 194.629C353.008 194.836 353.205 194.988 353.436 195.05C353.667 195.111 353.913 195.079 354.12 194.96L360.879 191.058C361.96 190.434 362.908 189.604 363.668 188.614C364.428 187.624 364.986 186.494 365.309 185.289C365.633 184.084 365.715 182.827 365.553 181.589C365.39 180.352 364.986 179.159 364.362 178.078L363.133 175.95C362.154 174.254 360.675 172.902 358.898 172.079C357.122 171.256 355.134 171.002 353.207 171.352C353.091 171.373 352.98 171.417 352.88 171.481C352.781 171.545 352.695 171.628 352.628 171.725C352.56 171.823 352.513 171.932 352.488 172.048C352.463 172.164 352.461 172.283 352.482 172.399C352.503 172.516 352.547 172.627 352.611 172.726C352.675 172.826 352.758 172.912 352.855 172.979C352.952 173.046 353.062 173.094 353.178 173.119C353.293 173.144 353.413 173.146 353.529 173.125L353.522 173.126Z" fill="#2D2E85"/>
<path fill-rule="evenodd" clip-rule="evenodd" d="M344.015 198.714C343.139 199.22 342.172 199.548 341.17 199.68C340.167 199.812 339.149 199.745 338.172 199.483C337.195 199.222 336.279 198.77 335.477 198.154C334.675 197.539 334.002 196.771 333.496 195.895L332.268 193.767C331.762 192.891 331.434 191.925 331.302 190.922C331.17 189.919 331.237 188.901 331.499 187.924C331.76 186.947 332.212 186.031 332.828 185.229C333.443 184.427 334.211 183.754 335.087 183.248L342.773 178.812C342.98 178.692 343.131 178.495 343.193 178.265C343.255 178.034 343.223 177.788 343.103 177.581C342.984 177.374 342.787 177.222 342.556 177.161C342.325 177.099 342.079 177.131 341.872 177.25L334.186 181.687C333.105 182.31 332.157 183.141 331.397 184.13C330.637 185.12 330.079 186.25 329.756 187.455C329.432 188.661 329.35 189.918 329.512 191.155C329.675 192.393 330.079 193.586 330.703 194.667L331.932 196.795C332.555 197.876 333.385 198.824 334.375 199.584C335.365 200.344 336.494 200.902 337.7 201.225C338.905 201.549 340.162 201.631 341.399 201.469C342.637 201.306 343.83 200.902 344.911 200.278C345.013 200.219 345.103 200.14 345.175 200.046C345.247 199.952 345.3 199.845 345.331 199.731C345.362 199.616 345.369 199.497 345.354 199.38C345.339 199.263 345.3 199.149 345.241 199.047C345.182 198.944 345.103 198.854 345.009 198.782C344.915 198.71 344.808 198.657 344.694 198.627C344.58 198.596 344.46 198.588 344.343 198.604C344.226 198.619 344.113 198.657 344.01 198.717L344.015 198.714Z" fill="#2D2E85"/>
<path fill-rule="evenodd" clip-rule="evenodd" d="M343.884 171.455C341.766 167.787 338.277 165.11 334.186 164.013C330.094 162.917 325.734 163.491 322.066 165.609L306.105 174.824C302.439 176.943 299.763 180.43 298.667 184.521C297.57 188.611 298.143 192.969 300.259 196.638L301.488 198.766C303.606 202.434 307.094 205.111 311.186 206.208C315.278 207.304 319.638 206.73 323.306 204.612L339.266 195.397C342.935 193.279 345.612 189.79 346.708 185.698C347.804 181.606 347.231 177.246 345.113 173.578L343.884 171.449V171.455ZM337.504 175.139L338.733 177.267C339.873 179.243 340.183 181.59 339.592 183.793C339.002 185.997 337.561 187.875 335.585 189.016L319.625 198.231C317.65 199.372 315.302 199.681 313.099 199.091C310.896 198.5 309.017 197.059 307.877 195.083L306.639 192.958C305.498 190.982 305.189 188.635 305.78 186.431C306.37 184.228 307.811 182.35 309.787 181.209L325.747 171.993C326.725 171.427 327.805 171.059 328.926 170.911C330.047 170.762 331.186 170.836 332.278 171.129C333.37 171.421 334.393 171.925 335.29 172.613C336.187 173.302 336.94 174.16 337.504 175.139Z" fill="#72D8ED"/>
<path fill-rule="evenodd" clip-rule="evenodd" d="M337.504 186.108C336.871 186.976 336.064 187.702 335.133 188.24L319.173 197.455C318.298 197.961 317.331 198.289 316.328 198.421C315.326 198.553 314.307 198.486 313.33 198.225C312.354 197.963 311.438 197.511 310.636 196.896C309.834 196.28 309.161 195.512 308.655 194.637L307.426 192.508C306.921 191.633 306.593 190.666 306.461 189.663C306.329 188.661 306.396 187.642 306.658 186.665C306.719 186.435 306.687 186.189 306.568 185.982C306.448 185.775 306.251 185.624 306.021 185.562C305.79 185.5 305.544 185.533 305.337 185.652C305.13 185.772 304.979 185.969 304.917 186.199C304.266 188.632 304.607 191.224 305.866 193.406L307.095 195.534C307.718 196.615 308.549 197.563 309.538 198.323C310.528 199.083 311.658 199.641 312.863 199.964C314.068 200.287 315.325 200.37 316.563 200.208C317.8 200.045 318.993 199.641 320.074 199.017L336.034 189.801C337.182 189.138 338.179 188.242 338.96 187.171C339.101 186.978 339.159 186.737 339.122 186.501C339.085 186.265 338.956 186.053 338.763 185.912C338.57 185.771 338.329 185.713 338.093 185.75C337.857 185.787 337.645 185.916 337.504 186.109V186.108Z" fill="#2D2E85"/>
<path fill-rule="evenodd" clip-rule="evenodd" d="M310.242 181.985L326.202 172.769C327.974 171.755 330.073 171.479 332.047 172.001C334.021 172.523 335.71 173.801 336.748 175.559C336.807 175.662 336.886 175.752 336.98 175.824C337.073 175.896 337.181 175.949 337.295 175.979C337.409 176.01 337.528 176.018 337.646 176.003C337.763 175.987 337.876 175.949 337.979 175.89C338.081 175.83 338.171 175.752 338.243 175.658C338.315 175.564 338.368 175.457 338.399 175.342C338.43 175.228 338.437 175.109 338.422 174.992C338.407 174.874 338.368 174.761 338.309 174.659C337.032 172.487 334.95 170.906 332.515 170.261C330.079 169.615 327.488 169.956 325.302 171.209L309.341 180.424C309.238 180.483 309.149 180.561 309.077 180.655C309.004 180.749 308.952 180.856 308.921 180.971C308.89 181.085 308.882 181.204 308.898 181.322C308.913 181.439 308.952 181.552 309.011 181.655C309.07 181.757 309.149 181.847 309.243 181.919C309.336 181.991 309.444 182.044 309.558 182.075C309.672 182.105 309.791 182.113 309.909 182.098C310.026 182.082 310.139 182.044 310.242 181.985Z" fill="#2D2E85"/>
<path fill-rule="evenodd" clip-rule="evenodd" d="M323.757 205.398L339.717 196.182C341.636 195.074 343.318 193.599 344.667 191.841C346.015 190.083 347.005 188.077 347.578 185.936C348.152 183.796 348.298 181.563 348.009 179.366C347.719 177.169 347 175.051 345.892 173.132L344.664 171.004C343.556 169.085 342.081 167.403 340.323 166.054C338.565 164.705 336.558 163.715 334.418 163.142C334.304 163.111 334.184 163.103 334.067 163.119C333.95 163.134 333.837 163.173 333.734 163.232C333.632 163.291 333.542 163.37 333.47 163.464C333.398 163.558 333.345 163.665 333.315 163.779C333.284 163.893 333.276 164.012 333.292 164.13C333.307 164.247 333.346 164.36 333.405 164.462C333.464 164.565 333.543 164.655 333.637 164.727C333.73 164.799 333.838 164.851 333.952 164.882C335.864 165.394 337.656 166.278 339.226 167.483C340.796 168.688 342.114 170.19 343.104 171.905L344.332 174.033C346.331 177.494 346.872 181.608 345.838 185.469C344.803 189.33 342.277 192.622 338.816 194.621L322.852 203.838C322.75 203.897 322.66 203.976 322.588 204.07C322.516 204.163 322.463 204.271 322.432 204.385C322.401 204.499 322.394 204.618 322.409 204.736C322.424 204.853 322.463 204.966 322.522 205.069C322.581 205.171 322.66 205.261 322.754 205.333C322.848 205.405 322.955 205.458 323.069 205.489C323.183 205.52 323.303 205.528 323.42 205.512C323.537 205.497 323.65 205.458 323.753 205.399L323.757 205.398Z" fill="#2D2E85"/>
<path fill-rule="evenodd" clip-rule="evenodd" d="M321.616 164.829L305.656 174.045C303.737 175.153 302.055 176.628 300.706 178.386C299.357 180.144 298.368 182.15 297.795 184.291C297.221 186.431 297.075 188.664 297.364 190.861C297.653 193.058 298.373 195.176 299.481 197.095L300.709 199.223C302.259 201.907 304.517 204.112 307.236 205.596C309.956 207.081 313.032 207.788 316.127 207.64C316.365 207.629 316.59 207.523 316.751 207.346C316.912 207.169 316.996 206.936 316.985 206.697C316.973 206.458 316.868 206.233 316.691 206.072C316.514 205.911 316.28 205.827 316.041 205.839C313.277 205.97 310.531 205.338 308.102 204.012C305.673 202.686 303.657 200.717 302.273 198.32L301.044 196.192C299.046 192.73 298.504 188.616 299.539 184.755C300.573 180.894 303.099 177.602 306.561 175.604L322.521 166.388C322.728 166.269 322.879 166.072 322.941 165.841C323.003 165.61 322.97 165.364 322.851 165.157C322.732 164.95 322.535 164.799 322.304 164.737C322.073 164.675 321.827 164.707 321.62 164.827L321.616 164.829Z" fill="#2D2E85"/>
<path fill-rule="evenodd" clip-rule="evenodd" d="M344.411 168.315L334.516 174.028L338.202 180.413L348.097 174.699L344.411 168.315Z" fill="white"/>
<path fill-rule="evenodd" clip-rule="evenodd" d="M343.961 167.534L334.066 173.247C333.859 173.367 333.707 173.564 333.646 173.794C333.584 174.025 333.616 174.271 333.735 174.478C333.855 174.685 334.052 174.837 334.282 174.898C334.513 174.96 334.759 174.928 334.966 174.809L344.861 169.095C345.068 168.976 345.22 168.779 345.282 168.548C345.343 168.317 345.311 168.071 345.192 167.864C345.072 167.657 344.875 167.506 344.645 167.444C344.414 167.382 344.168 167.414 343.961 167.534Z" fill="#2D2E85"/>
<path fill-rule="evenodd" clip-rule="evenodd" d="M338.651 181.191L348.546 175.478C348.754 175.358 348.905 175.161 348.967 174.93C349.029 174.7 348.996 174.454 348.877 174.247C348.757 174.039 348.561 173.888 348.33 173.826C348.099 173.765 347.853 173.797 347.646 173.916L337.751 179.63C337.648 179.689 337.558 179.768 337.486 179.861C337.414 179.955 337.361 180.062 337.331 180.177C337.3 180.291 337.292 180.41 337.307 180.528C337.323 180.645 337.361 180.758 337.42 180.861C337.48 180.963 337.558 181.053 337.652 181.125C337.746 181.197 337.853 181.25 337.968 181.281C338.082 181.311 338.201 181.319 338.318 181.304C338.436 181.288 338.549 181.25 338.651 181.191Z" fill="#2D2E85"/>
<path fill-rule="evenodd" clip-rule="evenodd" d="M104.467 179.11H56.7212C56.5688 179.105 56.417 179.13 56.2747 179.185C56.1325 179.24 56.0027 179.323 55.8932 179.429C55.7836 179.535 55.6965 179.662 55.637 179.803C55.5775 179.943 55.5469 180.094 55.5469 180.246C55.5469 180.399 55.5775 180.55 55.637 180.69C55.6965 180.83 55.7836 180.957 55.8932 181.064C56.0027 181.17 56.1325 181.253 56.2747 181.307C56.417 181.362 56.5688 181.388 56.7212 181.383H104.467C104.619 181.388 104.771 181.362 104.913 181.307C105.056 181.253 105.185 181.17 105.295 181.064C105.405 180.957 105.492 180.83 105.551 180.69C105.611 180.55 105.641 180.399 105.641 180.246C105.641 180.094 105.611 179.943 105.551 179.803C105.492 179.662 105.405 179.535 105.295 179.429C105.185 179.323 105.056 179.24 104.913 179.185C104.771 179.13 104.619 179.105 104.467 179.11Z" fill="#2D2E85"/>
<path fill-rule="evenodd" clip-rule="evenodd" d="M79.457 165.468V175.7C79.4666 175.995 79.5906 176.275 79.8027 176.48C80.0149 176.685 80.2985 176.8 80.5938 176.8C80.889 176.8 81.1727 176.685 81.3848 176.48C81.597 176.275 81.7209 175.995 81.7305 175.7V165.468C81.7209 165.173 81.597 164.893 81.3848 164.688C81.1727 164.483 80.889 164.368 80.5938 164.368C80.2985 164.368 80.0149 164.483 79.8027 164.688C79.5906 164.893 79.4666 165.173 79.457 165.468Z" fill="#2D2E85"/>
<path fill-rule="evenodd" clip-rule="evenodd" d="M61.2679 142.73C63.5414 132.498 72.197 126.814 81.7306 126.814C85.0295 126.813 88.2736 127.658 91.1538 129.266C94.034 130.875 96.4543 133.194 98.1843 136.003C101.933 136.433 105.375 138.28 107.806 141.166C110.237 144.052 111.472 147.758 111.258 151.525C111.043 155.293 109.397 158.835 106.655 161.428C103.913 164.02 100.283 165.465 96.5101 165.467H61.2679C58.2732 165.436 55.4115 164.225 53.3047 162.096C51.1979 159.968 50.0161 157.094 50.0161 154.098C50.0161 151.103 51.1979 148.229 53.3047 146.101C55.4115 143.972 58.2732 142.761 61.2679 142.73Z" fill="white"/>
<path fill-rule="evenodd" clip-rule="evenodd" d="M89.9072 164.57H61.2741C58.5174 164.54 55.8837 163.424 53.9448 161.465C52.0058 159.505 50.9183 156.859 50.9183 154.102C50.9183 151.345 52.0058 148.7 53.9448 146.74C55.8837 144.78 58.5174 143.664 61.2741 143.634C61.513 143.634 61.7421 143.54 61.911 143.371C62.08 143.202 62.1749 142.973 62.1749 142.734C62.1749 142.495 62.08 142.266 61.911 142.097C61.7421 141.928 61.513 141.833 61.2741 141.833C59.6527 141.817 58.0443 142.122 56.5417 142.732C55.0391 143.341 53.6722 144.242 52.52 145.383C51.3678 146.524 50.4531 147.882 49.8289 149.379C49.2047 150.875 48.8833 152.481 48.8833 154.102C48.8833 155.724 49.2047 157.329 49.8289 158.826C50.4531 160.322 51.3678 161.68 52.52 162.821C53.6722 163.962 55.0391 164.863 56.5417 165.472C58.0443 166.082 59.6527 166.387 61.2741 166.371H89.9132C90.1521 166.371 90.3812 166.276 90.5501 166.108C90.719 165.939 90.8139 165.709 90.8139 165.471C90.8139 165.232 90.719 165.003 90.5501 164.834C90.3812 164.665 90.1521 164.57 89.9132 164.57H89.9072Z" fill="black"/>
<path fill-rule="evenodd" clip-rule="evenodd" d="M64.9566 136.241C68.6484 130.696 74.9621 127.713 81.7309 127.713C84.876 127.713 87.9688 128.518 90.7147 130.052C93.4605 131.586 95.7679 133.797 97.4172 136.475C97.4889 136.591 97.5861 136.689 97.7014 136.762C97.8166 136.835 97.947 136.881 98.0826 136.897C101.31 137.265 104.305 138.754 106.548 141.104C108.791 143.454 110.138 146.516 110.356 149.757C110.574 152.998 109.648 156.213 107.74 158.841C105.831 161.47 103.062 163.346 99.9129 164.143C99.7958 164.17 99.6853 164.22 99.5878 164.29C99.4903 164.36 99.4078 164.449 99.3451 164.551C99.2824 164.653 99.2407 164.767 99.2227 164.886C99.2046 165.005 99.2104 165.126 99.2398 165.242C99.2692 165.358 99.3215 165.468 99.3937 165.564C99.466 165.66 99.5566 165.74 99.6604 165.8C99.7642 165.861 99.8789 165.9 99.998 165.915C100.117 165.93 100.238 165.922 100.354 165.89C103.875 164.999 106.979 162.913 109.133 159.988C111.288 157.063 112.36 153.481 112.167 149.853C111.974 146.225 110.528 142.777 108.075 140.097C105.622 137.418 102.314 135.673 98.7179 135.161C96.8849 132.323 94.3697 129.989 91.4022 128.374C88.4347 126.758 85.1097 125.912 81.7309 125.913C74.3508 125.913 67.4823 129.194 63.4565 135.242C63.391 135.34 63.3455 135.451 63.3226 135.567C63.2998 135.683 63.3 135.802 63.3233 135.918C63.3466 136.034 63.3926 136.144 63.4585 136.243C63.5244 136.341 63.609 136.425 63.7075 136.491C63.806 136.556 63.9164 136.602 64.0325 136.625C64.1486 136.647 64.268 136.647 64.384 136.624C64.5 136.601 64.6103 136.555 64.7085 136.489C64.8067 136.423 64.891 136.338 64.9566 136.24V136.241Z" fill="black"/>
<path fill-rule="evenodd" clip-rule="evenodd" d="M85.1416 177.973C85.1416 177.37 84.902 176.792 84.4757 176.366C84.0493 175.939 83.471 175.7 82.8681 175.7H78.3211C78.0224 175.7 77.7267 175.758 77.4507 175.873C77.1747 175.987 76.9239 176.154 76.7127 176.365C76.5015 176.576 76.3339 176.827 76.2196 177.103C76.1052 177.379 76.0464 177.675 76.0464 177.973V182.521C76.0464 183.124 76.2859 183.702 76.7123 184.128C77.1386 184.555 77.7169 184.794 78.3199 184.794H82.8681C83.471 184.794 84.0493 184.555 84.4757 184.128C84.902 183.702 85.1416 183.124 85.1416 182.521V177.973Z" fill="#72D8ED"/>
<path fill-rule="evenodd" clip-rule="evenodd" d="M109.014 177.973C109.014 177.37 108.774 176.792 108.348 176.366C107.922 175.939 107.343 175.7 106.74 175.7H102.193C101.59 175.7 101.012 175.939 100.586 176.366C100.159 176.792 99.9199 177.37 99.9199 177.973V182.521C99.9199 183.124 100.159 183.702 100.586 184.128C101.012 184.555 101.59 184.794 102.193 184.794H106.74C107.343 184.794 107.922 184.555 108.348 184.128C108.774 183.702 109.014 183.124 109.014 182.521V177.973Z" fill="#72D8ED"/>
<path fill-rule="evenodd" clip-rule="evenodd" d="M61.268 177.973C61.268 177.675 61.2092 177.379 61.0947 177.103C60.9803 176.827 60.8127 176.576 60.6013 176.365C60.3899 176.154 60.139 175.986 59.8629 175.872C59.5868 175.758 59.2909 175.7 58.9921 175.7H54.4464C53.8434 175.7 53.2651 175.939 52.8387 176.366C52.4124 176.792 52.1729 177.37 52.1729 177.973V182.521C52.1729 183.124 52.4124 183.702 52.8387 184.128C53.2651 184.555 53.8434 184.794 54.4464 184.794H58.9921C59.5951 184.794 60.1734 184.555 60.5997 184.128C61.0261 183.702 61.2656 183.124 61.2656 182.521L61.268 177.973Z" fill="#72D8ED"/>
<path fill-rule="evenodd" clip-rule="evenodd" d="M62.1687 182.521V177.973C62.1687 177.556 62.0865 177.143 61.9268 176.758C61.7671 176.373 61.5331 176.023 61.2381 175.728C60.9431 175.433 60.5929 175.199 60.2075 175.04C59.8221 174.881 59.4091 174.799 58.992 174.799H54.4462C53.6044 174.799 52.797 175.134 52.2017 175.729C51.6064 176.324 51.272 177.132 51.272 177.973V182.521C51.272 183.362 51.6064 184.17 52.2017 184.765C52.797 185.36 53.6044 185.695 54.4462 185.695H58.992C59.2309 185.695 59.46 185.6 59.6289 185.431C59.7979 185.262 59.8928 185.033 59.8928 184.794C59.8928 184.555 59.7979 184.326 59.6289 184.157C59.46 183.988 59.2309 183.893 58.992 183.893H54.4462C54.0821 183.893 53.733 183.749 53.4755 183.491C53.2181 183.234 53.0735 182.885 53.0735 182.521V177.973C53.0735 177.609 53.2181 177.26 53.4755 177.003C53.733 176.745 54.0821 176.601 54.4462 176.601H58.992C59.3561 176.601 59.7052 176.745 59.9627 177.003C60.2201 177.26 60.3648 177.609 60.3648 177.973V182.521C60.3648 182.759 60.4597 182.989 60.6286 183.158C60.7975 183.326 61.0266 183.421 61.2655 183.421C61.5044 183.421 61.7335 183.326 61.9024 183.158C62.0714 182.989 62.1663 182.759 62.1663 182.521H62.1687Z" fill="#2D2E85"/>
<path fill-rule="evenodd" clip-rule="evenodd" d="M86.4831 182.521V177.973C86.4831 177.132 86.1487 176.324 85.5534 175.729C84.9581 175.134 84.1507 174.799 83.3089 174.799H78.7607C77.9188 174.799 77.1114 175.134 76.5161 175.729C75.9209 176.324 75.5864 177.132 75.5864 177.973V182.521C75.5864 183.362 75.9209 184.17 76.5161 184.765C77.1114 185.36 77.9188 185.695 78.7607 185.695H83.3077C83.5466 185.695 83.7757 185.6 83.9446 185.431C84.1135 185.262 84.2084 185.033 84.2084 184.794C84.2084 184.555 84.1135 184.326 83.9446 184.157C83.7757 183.988 83.5466 183.893 83.3077 183.893H78.7607C78.3966 183.893 78.0474 183.749 77.79 183.491C77.5326 183.234 77.3879 182.885 77.3879 182.521V177.973C77.3879 177.609 77.5326 177.26 77.79 177.003C78.0474 176.745 78.3966 176.601 78.7607 176.601H83.3077C83.6717 176.601 84.0209 176.745 84.2783 177.003C84.5358 177.26 84.6804 177.609 84.6804 177.973V182.521C84.6804 182.759 84.7753 182.989 84.9442 183.158C85.1131 183.326 85.3423 183.421 85.5812 183.421C85.8201 183.421 86.0492 183.326 86.2181 183.158C86.387 182.989 86.4819 182.759 86.4819 182.521H86.4831Z" fill="#2D2E85"/>
<path fill-rule="evenodd" clip-rule="evenodd" d="M110.198 182.521V177.973C110.198 177.132 109.864 176.324 109.268 175.729C108.673 175.134 107.866 174.799 107.024 174.799H102.477C102.06 174.799 101.647 174.881 101.262 175.041C100.877 175.2 100.527 175.434 100.232 175.729C99.9377 176.024 99.7039 176.374 99.5444 176.759C99.3848 177.144 99.3027 177.557 99.3027 177.973V182.521C99.3027 182.937 99.3848 183.35 99.5444 183.735C99.7039 184.12 99.9377 184.47 100.232 184.765C100.527 185.06 100.877 185.294 101.262 185.453C101.647 185.613 102.06 185.695 102.477 185.695H107.024C107.263 185.695 107.492 185.6 107.661 185.431C107.83 185.262 107.925 185.033 107.925 184.794C107.925 184.555 107.83 184.326 107.661 184.157C107.492 183.988 107.263 183.893 107.024 183.893H102.477C102.113 183.893 101.764 183.749 101.506 183.491C101.249 183.234 101.104 182.885 101.104 182.521V177.973C101.104 177.609 101.249 177.26 101.506 177.003C101.764 176.745 102.113 176.601 102.477 176.601H107.024C107.388 176.601 107.737 176.745 107.995 177.003C108.252 177.26 108.397 177.609 108.397 177.973V182.521C108.397 182.759 108.492 182.989 108.661 183.158C108.829 183.326 109.059 183.421 109.297 183.421C109.536 183.421 109.765 183.326 109.934 183.158C110.103 182.989 110.198 182.759 110.198 182.521Z" fill="#2D2E85"/>
<path d="M237.281 146.472C236.052 130.842 222.94 118.5 207 118.5C193.365 118.5 181.661 127.356 177.881 140.272C167.111 144.012 159.75 154.218 159.75 165.75C159.75 180.637 171.863 192.75 186.75 192.75H230.625C243.649 192.75 254.25 182.149 254.25 169.125C254.25 158.497 247.264 149.375 237.281 146.472ZM221.489 171.511L214.739 164.761C213.774 163.796 213.483 162.345 214.007 161.082C214.526 159.824 215.762 159 217.125 159H220.021C218.512 153.195 213.274 148.875 207 148.875C205.117 148.875 203.298 149.253 201.593 149.999C199.879 150.741 197.894 149.965 197.148 148.261C196.399 146.553 197.179 144.562 198.886 143.816C201.448 142.695 204.182 142.125 207 142.125C217.014 142.125 225.33 149.439 226.946 159H230.625C231.989 159 233.224 159.824 233.743 161.082C234.267 162.345 233.976 163.796 233.011 164.761L226.261 171.511C225.603 172.169 224.739 172.5 223.875 172.5C223.011 172.5 222.147 172.169 221.489 171.511ZM180.989 159.989L187.739 153.239C189.059 151.919 191.191 151.919 192.511 153.239L199.261 159.989C200.226 160.954 200.517 162.405 199.993 163.668C199.474 164.93 198.238 165.75 196.875 165.75H193.979C195.488 171.558 200.726 175.875 207 175.875C208.876 175.875 210.692 175.497 212.397 174.754C214.101 173.998 216.092 174.792 216.838 176.496C217.587 178.204 216.804 180.195 215.097 180.938C212.538 182.058 209.811 182.625 207 182.625C196.986 182.625 188.67 175.311 187.054 165.75H183.375C182.011 165.75 180.776 164.93 180.257 163.668C179.733 162.405 180.024 160.954 180.989 159.989Z" fill="#2D4BAA"/>
</g>
</g>
<defs>
<linearGradient id="paint0_linear_137_4903" x1="267.992" y1="27.2746" x2="161.556" y2="194.924" gradientUnits="userSpaceOnUse">
<stop stop-color="white" stop-opacity="0"/>
<stop offset="1" stop-color="#82A9FF" stop-opacity="0.21"/>
</linearGradient>
<linearGradient id="paint1_linear_137_4903" x1="205.514" y1="290.578" x2="205.773" y2="255.583" gradientUnits="userSpaceOnUse">
<stop stop-color="white" stop-opacity="0"/>
<stop offset="1" stop-color="#82A9FF" stop-opacity="0.21"/>
</linearGradient>
<clipPath id="clip0_137_4903">
<rect width="422" height="310" fill="white" transform="translate(0.574707)"/>
</clipPath>
<clipPath id="clip1_137_4903">
<rect width="421" height="310" fill="white" transform="translate(0.574707)"/>
</clipPath>
<clipPath id="clip2_137_4903">
<rect width="46.237" height="34.8953" fill="white" transform="translate(8.68652 240.037)"/>
</clipPath>
<clipPath id="clip3_137_4903">
<rect width="324" height="216" fill="white" transform="translate(49 37)"/>
</clipPath>
</defs>
</svg>
