<svg width="422" height="310" viewBox="0 0 422 310" fill="none" xmlns="http://www.w3.org/2000/svg">
<path fill-rule="evenodd" clip-rule="evenodd" d="M183.171 251.162C159.76 257.728 119.402 260.433 67.9663 260.899C20.2336 261.667 1.18441 266.879 2.03174 275.508C7.77473 288.822 86.7958 294.461 222.243 292.667C334.058 291.301 386.059 282.469 400.903 268.354C423.404 244.091 254.974 231.342 183.171 251.162Z" fill="url(#paint0_linear_130_8)"/>
<path opacity="0.1" d="M91.8995 67.9453H280.831V263.576H91.8995V67.9453Z" fill="#72D8ED"/>
<path d="M370.944 266.53V249.006H363.369L367.914 266.53H370.944Z" fill="#292678"/>
<path d="M341.792 266.53V249.006H349.742L344.97 266.53H341.792Z" fill="#292678"/>
<path d="M371.764 178.917C371.57 163.503 372.248 150.402 372.978 141.124C373.347 136.434 373.729 132.72 374.02 130.178C374.165 128.907 374.287 127.929 374.373 127.268C374.406 127.016 374.433 126.81 374.455 126.652L360.094 120.932H348.46L333.056 128.603L334.939 178.917H371.764Z" fill="white" stroke="black"/>
<path d="M355.075 140.447L355.075 140.449C355.378 141.685 355.735 143.006 356.146 144.373L356.146 144.374C358.158 151.085 361.354 158.919 364.838 164.255C366.586 166.934 368.367 168.921 370.057 169.855C370.893 170.317 371.681 170.507 372.421 170.423C373.157 170.34 373.904 169.98 374.65 169.236L374.651 169.236C378.482 165.421 380.44 159.047 381.424 152.677C382.406 146.329 382.406 140.098 382.406 136.657C382.406 133.423 380.551 130.968 378.627 129.292C377.669 128.457 376.708 127.83 375.987 127.411C375.751 127.273 375.541 127.159 375.365 127.067C374.693 130.618 374.164 136.9 373.798 142.462C373.604 145.407 373.456 148.138 373.357 150.133C373.307 151.131 373.27 151.944 373.245 152.507C373.232 152.789 373.223 153.009 373.217 153.158L373.209 153.327L373.208 153.37L373.207 153.381L373.207 153.384L373.207 153.384C373.207 153.385 373.207 153.385 372.707 153.365L373.207 153.385L373.137 155.113L372.274 153.614L362.934 137.396L362.934 137.396L361.439 134.797L354.343 137.005C354.523 138.05 354.769 139.215 355.075 140.447Z" fill="white" stroke="black"/>
<path d="M358.67 159.948L358.67 159.948L333.586 157.686L333.148 157.647L333.131 157.207L332.094 129.43C331.982 129.545 331.859 129.675 331.726 129.819C331.013 130.597 330.029 131.802 328.966 133.496C326.841 136.881 324.395 142.224 323.168 150.02C321.94 157.822 323.191 162.412 325.804 165.068C328.433 167.74 332.575 168.599 337.481 168.599H358.715H358.727H358.739H358.751H358.764H358.776H358.788H358.8H358.812H358.825H358.837H358.849H358.861H358.873H358.885H358.897H358.909H358.921H358.933H358.945H358.957H358.969H358.981H358.993H359.005H359.017H359.029H359.041H359.052H359.064H359.076H359.088H359.1H359.111H359.123H359.135H359.146H359.158H359.17H359.181H359.193H359.205H359.216H359.228H359.239H359.251H359.262H359.274H359.285H359.297H359.308H359.32H359.331H359.342H359.354H359.365H359.376H359.388H359.399H359.41H359.422H359.433H359.444H359.455H359.466H359.477H359.489H359.5H359.511H359.522H359.533H359.544H359.555H359.566H359.577H359.588H359.599H359.61H359.621H359.632H359.643H359.653H359.664H359.675H359.686H359.697H359.707H359.718H359.729H359.74H359.75H359.761H359.772H359.782H359.793H359.803H359.814H359.824H359.835H359.845H359.856H359.866H359.877H359.887H359.898H359.908H359.918H359.929H359.939H359.949H359.96H359.97H359.98H359.99H360.001H360.011H360.021H360.031H360.041H360.051H360.061H360.071H360.081H360.092H360.102H360.112H360.121H360.131H360.141H360.151H360.161H360.171H360.181H360.191H360.2H360.21H360.22H360.23H360.239H360.249H360.259H360.268H360.278H360.288H360.297H360.307H360.316H360.326H360.335H360.345H360.354H360.364H360.373H360.383H360.392H360.401H360.411H360.42H360.429H360.439H360.448H360.457H360.466H360.475H360.485H360.494H360.503H360.512H360.521H360.53H360.539H360.548H360.557H360.566H360.575H360.584H360.593H360.602H360.611H360.619H360.628H360.637H360.646H360.655H360.663H360.672H360.681H360.689H360.698H360.707H360.715H360.724H360.732H360.741H360.749H360.758H360.766H360.775H360.783H360.792H360.8H360.808H360.817H360.825H360.833H360.841H360.85H360.858H360.866H360.874H360.882H360.891H360.899H360.907H360.915H360.923H360.931H360.939H360.947H360.955H360.963H360.971H360.978H360.986H360.994H361.002H361.01H361.017H361.025H361.033H361.041H361.048H361.056H361.063H361.071H361.079H361.086H361.094H361.101H361.109H361.116H361.124H361.131H361.138H361.146H361.153H361.16H361.168H361.175H361.182H361.189H361.196H361.204H361.211H361.218H361.225H361.232H361.239H361.246H361.253H361.26H361.267H361.274H361.281H361.288H361.295H361.301H361.308H361.315H361.322H361.329H361.335H361.342H361.349H361.355H361.362H361.368H361.375H361.381H361.388H361.394H361.401H361.407H361.414H361.42H361.427H361.433H361.439H361.445H361.452H361.458H361.464H361.47H361.477H361.483H361.489H361.495H361.501H361.507H361.513H361.519H361.525H361.531H361.537H361.543H361.549H361.554H361.56H361.566H361.572H361.577H361.583H361.589H361.594H361.6H361.606H361.611H361.617H361.622H361.628H361.633H361.639H361.644H361.65H361.655H361.66H361.666H361.671H361.674V160.219L358.67 159.948Z" fill="white" stroke="black"/>
<path d="M362.173 161.721C362.173 161.721 371.06 161.231 371.552 169.091H362.173V161.721Z" fill="#F9A28B"/>
<path d="M290.086 255.118L302.878 257.574L318.723 202.523C318.723 202.523 338.895 204 355.404 206.457C371.905 208.914 371.561 187.285 371.561 187.285V179.425H345.22C345.22 179.425 319.309 178.484 307.212 181.096C304.143 181.757 301.964 182.651 301.324 183.849C300.84 184.75 300.246 187.036 299.582 190.263C295.881 208.175 290.086 255.118 290.086 255.118Z" fill="#2D4BAA"/>
<path d="M319.214 195.641L331.061 241.845L320.698 247.249L304.4 218.25L319.214 195.641Z" fill="#2D4BAA"/>
<path d="M187.532 252.07L186.728 258.95H195.131L195.935 252.56L187.532 252.07Z" fill="#F9A28B"/>
<path d="M215.185 252.56V258.95H223.088L223.58 252.56H215.185Z" fill="#F9A28B"/>
<path d="M235.927 127.211L225.064 255.017H213.709V147.86V127.211H235.927Z" fill="#2D4BAA"/>
<path d="M227.041 127.211L217.662 142.947L196.92 255.017H183.589L199.388 127.211H227.041Z" fill="#2D4BAA"/>
<path d="M198.696 84.9844C199.55 94.2643 200.351 107.368 200.16 122.784H235.51L238.362 72.467L222.964 64.7985H211.331L196.978 70.5156C197.003 70.6731 197.034 70.8766 197.071 71.1248C197.171 71.7862 197.313 72.7648 197.482 74.0362C197.819 76.5791 198.264 80.2935 198.696 84.9844Z" fill="white" stroke="black"/>
<path d="M198.894 123.284H236.91V127.707H198.894V123.284Z" fill="#72D8ED"/>
<path d="M281.957 98.3429L283.893 97.9231C283.893 97.9231 286.58 95.0931 288.017 93.9503C289.461 92.8074 289.516 94.6422 287.548 96.9046C287.548 96.9046 292.796 93.4449 294.545 96.5159C296.474 99.9056 293.436 102.79 286.611 102.805L284.565 103.482L281.957 98.3429Z" fill="#F9A28B"/>
<path d="M253.603 123.283L253.604 123.283C253.876 123.229 254.387 123.022 255.134 122.647C255.864 122.28 256.772 121.778 257.816 121.169C259.903 119.952 262.51 118.324 265.275 116.548C270.804 112.997 276.943 108.864 280.769 106.264L280.769 106.263C281.917 105.486 282.855 104.846 283.506 104.399C283.782 104.21 284.007 104.056 284.174 103.941L281.086 97.3623L277.265 98.698L277.263 98.6984L276.007 99.1411L276.006 99.1415L254.843 106.551L254.35 106.723L254.199 106.224L254.678 106.079C254.199 106.224 254.199 106.224 254.199 106.223L254.199 106.222L254.197 106.218L254.192 106.202L254.172 106.136C254.164 106.108 254.153 106.074 254.141 106.033C254.127 105.989 254.111 105.937 254.093 105.878C254.023 105.651 253.919 105.318 253.785 104.893C253.517 104.042 253.126 102.824 252.637 101.352C251.659 98.4073 250.289 94.4525 248.72 90.4073C247.149 86.3594 245.383 82.2335 243.615 78.9414C242.731 77.2948 241.853 75.869 241.005 74.7695C240.379 73.9572 239.789 73.3495 239.248 72.9573L233.501 105.933C233.509 105.943 233.517 105.953 233.526 105.963C233.642 106.099 233.814 106.298 234.034 106.552C234.474 107.059 235.108 107.783 235.885 108.648C237.44 110.38 239.562 112.677 241.837 114.942C244.114 117.21 246.531 119.432 248.677 121.024C249.751 121.82 250.742 122.446 251.603 122.842C252.479 123.246 253.145 123.375 253.603 123.283Z" fill="white" stroke="black"/>
<path d="M277.106 98.2204L281.05 106.671C283.346 105.116 284.806 104.106 284.806 104.106L281.347 96.7355L277.106 98.2204Z" fill="#2D4BAA"/>
<path d="M154.297 95.8868L152.36 95.467C152.36 95.467 149.674 92.6371 148.237 91.4942C146.792 90.3514 146.738 92.1861 148.706 94.4485C148.706 94.4485 143.458 90.9889 141.708 94.0598C139.779 97.4495 142.817 100.334 149.643 100.349L151.689 101.026L154.297 95.8868Z" fill="#F9A28B"/>
<path d="M197.003 70.5015C196.462 70.8937 195.872 71.5014 195.246 72.3137C194.398 73.4132 193.52 74.839 192.636 76.4856C190.868 79.7777 189.102 83.9036 187.531 87.9515C185.962 91.9967 184.592 95.9515 183.614 98.8959C183.125 100.368 182.734 101.587 182.466 102.437C182.332 102.862 182.228 103.195 182.158 103.422C182.123 103.535 182.096 103.622 182.079 103.68L182.058 103.746L182.053 103.763L182.052 103.767L182.052 103.768C182.052 103.768 182.052 103.768 181.573 103.623L182.052 103.768L181.901 104.267L181.408 104.095L160.245 96.6857L160.244 96.6853L158.988 96.2426L158.986 96.2422L155.165 94.9066L152.077 101.485C152.244 101.6 152.469 101.754 152.745 101.943C153.396 102.39 154.334 103.031 155.481 103.808L155.482 103.808C159.308 106.408 165.447 110.541 170.976 114.092C173.741 115.868 176.348 117.496 178.435 118.713C179.479 119.322 180.387 119.825 181.117 120.191C181.864 120.566 182.375 120.773 182.647 120.827L182.648 120.827C183.106 120.919 183.772 120.79 184.648 120.387C185.509 119.991 186.5 119.364 187.574 118.568C189.72 116.977 192.137 114.754 194.414 112.486C196.689 110.221 198.811 107.924 200.366 106.193C201.143 105.327 201.777 104.603 202.217 104.096C202.437 103.842 202.609 103.643 202.725 103.507C202.734 103.497 202.742 103.487 202.75 103.477L197.003 70.5015Z" fill="white" stroke="black"/>
<path d="M159.147 95.7622L155.203 104.213C152.907 102.658 151.447 101.647 151.447 101.647L154.906 94.2772L159.147 95.7622Z" fill="#2D4BAA"/>
<path d="M215.794 49.1689L213.35 64.1738L219.277 68.613L222.752 65.4799L223.01 52.4342L215.794 49.1689Z" fill="#F9A28B"/>
<path d="M212.32 42.5236C212.32 42.5236 210.773 62.2243 226.619 60.3973C242.464 58.5703 230.227 35.2156 230.227 35.2156L214.639 37.9522L212.32 42.5236Z" fill="#F9A28B"/>
<path d="M214.382 45.5232C214.382 45.5232 210.259 40.0421 206.526 42.9109C202.793 45.7797 205.495 53.9974 210.517 53.0878C215.538 52.1782 216.702 50.6077 216.702 50.6077L214.382 45.5232Z" fill="#F9A28B"/>
<path d="M215.412 50.4762L217.473 41.3411C217.473 41.3411 235.247 42.5151 239.753 38.0758C244.259 33.6365 245.806 26.725 243.104 25.9398C240.402 25.1545 232.803 32.4626 232.803 32.4626C232.803 32.4626 233.701 21.897 230.226 24.3771C226.751 26.8571 226.493 31.1642 226.493 31.1642C226.493 31.1642 212.967 31.8173 212.069 34.4295C211.171 37.0418 211.944 37.6948 211.944 37.6948C211.944 37.6948 209.242 36.6531 208.852 37.9592C208.453 39.2575 215.412 50.4762 215.412 50.4762Z" fill="black"/>
<path d="M222.925 60.1332L216.295 56.207L222.605 64.8445L222.925 60.1332Z" fill="#F9A28B"/>
<path d="M234.765 51.9535C234.765 51.9535 230.759 47.2888 223.972 49.8622C217.178 52.4355 216.054 46.1615 216.054 46.1615L214.835 50.7485C214.835 50.7485 213.789 54.2081 215.53 57.349C217.272 60.49 224.933 64.1051 224.933 64.1051C224.933 64.1051 236.85 62.659 234.765 51.9535Z" fill="black"/>
<path d="M329.295 242.787L330.685 246.558L324.375 249.574L322.673 246.177L329.295 242.787Z" fill="#F9A28B"/>
<path d="M333.545 252.901L330.687 246.557L324.377 249.574L316.294 262.2L333.545 252.901Z" fill="#292678"/>
<path d="M325.322 253.088L320.902 251.642" stroke="#72D8ED" stroke-width="4" stroke-miterlimit="10"/>
<path d="M322.862 254.915L319.496 253.827" stroke="#72D8ED" stroke-width="4" stroke-miterlimit="10"/>
<path d="M300.776 257.045L299.511 261.065L292.568 259.564L293.201 255.537L300.776 257.045Z" fill="#F9A28B"/>
<path d="M299.51 261.064L297.784 267.727L280.369 263.116L292.568 259.563L299.51 261.064Z" fill="#292678"/>
<path d="M290.218 258.85L290.553 262.2" stroke="#72D8ED" stroke-width="4" stroke-miterlimit="10"/>
<path d="M287.774 259.689L287.945 262.449" stroke="#72D8ED" stroke-width="4" stroke-miterlimit="10"/>
<path d="M215.185 257.442L214.505 265.247L233.677 266.033L222.705 258.11L215.185 257.442Z" fill="#292678"/>
<path d="M225.331 258.119L223.784 261.648" stroke="#72D8ED" stroke-width="4" stroke-miterlimit="10"/>
<path d="M227.486 259.836L226.314 262.783" stroke="#72D8ED" stroke-width="4" stroke-miterlimit="10"/>
<path d="M194.827 256.999L195.913 266.111L176.545 265.885L187.244 257.333L194.827 256.999Z" fill="#292678"/>
<path d="M184.588 257.193L186.338 261.376" stroke="#72D8ED" stroke-width="4" stroke-miterlimit="10"/>
<path d="M182.496 259.059L183.831 262.549" stroke="#72D8ED" stroke-width="4" stroke-miterlimit="10"/>
<path d="M319.832 201.892L310.742 229.531L314.787 236.069L319.832 201.892Z" fill="#1A1A56"/>
<path d="M223.284 142.341L215.717 147.62L213.444 164.389L214.202 183.048L217.224 149.501L223.284 142.341Z" fill="#1A1A56"/>
<path d="M336.044 250.142H377.824C379.043 250.142 380.034 249.162 380.034 247.941V210.562C380.034 207.436 377.489 204.902 374.349 204.902H339.527C336.388 204.902 333.842 207.436 333.842 210.562V247.941C333.842 249.154 334.826 250.142 336.044 250.142Z" fill="#72D8ED"/>
<path d="M225.681 65.5742L219.496 71.856L210.156 64.8201" stroke="#2D4BAA" stroke-width="4" stroke-miterlimit="10"/>
<path d="M359.996 93.7018C359.996 93.7018 362.518 92.8622 363.783 95.7154C365.048 98.5609 362.44 105.263 362.44 105.263L359.246 101.826L359.668 93.7873L359.996 93.7018Z" fill="black"/>
<path d="M352.902 125.654L358.405 121.633L356.055 107.567L349.545 110.438L349.799 122.93L352.902 125.654Z" fill="white" stroke="black"/>
<mask id="path-49-inside-1_130_8" fill="white">
<path fill-rule="evenodd" clip-rule="evenodd" d="M360.048 101.13C360.037 100.542 360.009 100.202 360.009 100.202L357.628 95.6305L341.642 92.8939C341.642 92.8939 329.092 116.249 345.343 118.076C353.366 118.977 357.042 114.633 358.707 110.003C359.54 110.276 360.575 110.543 361.855 110.768C367.009 111.678 369.789 103.46 365.955 100.591C363.848 99.0157 361.624 99.9591 360.048 101.13Z"/>
</mask>
<path fill-rule="evenodd" clip-rule="evenodd" d="M360.048 101.13C360.037 100.542 360.009 100.202 360.009 100.202L357.628 95.6305L341.642 92.8939C341.642 92.8939 329.092 116.249 345.343 118.076C353.366 118.977 357.042 114.633 358.707 110.003C359.54 110.276 360.575 110.543 361.855 110.768C367.009 111.678 369.789 103.46 365.955 100.591C363.848 99.0157 361.624 99.9591 360.048 101.13Z" fill="white"/>
<path d="M360.009 100.202L360.896 99.7399L360.99 99.9197L361.006 100.122L360.009 100.202ZM360.048 101.13L360.644 101.933L359.083 103.091L359.048 101.148L360.048 101.13ZM357.628 95.6305L357.796 94.6449L358.285 94.7286L358.514 95.1685L357.628 95.6305ZM341.642 92.8939L340.761 92.4206L341.101 91.7869L341.811 91.9083L341.642 92.8939ZM345.343 118.076L345.232 119.069L345.343 118.076ZM358.707 110.003L357.766 109.664L358.095 108.75L359.019 109.053L358.707 110.003ZM361.855 110.768L362.028 109.784H362.028L361.855 110.768ZM365.955 100.591L365.355 101.392L365.955 100.591ZM360.009 100.202C361.006 100.122 361.006 100.122 361.006 100.122C361.006 100.122 361.006 100.122 361.006 100.122C361.006 100.122 361.006 100.122 361.006 100.122C361.006 100.122 361.006 100.123 361.006 100.123C361.006 100.123 361.006 100.124 361.006 100.124C361.007 100.126 361.007 100.127 361.007 100.129C361.007 100.133 361.007 100.138 361.008 100.144C361.009 100.157 361.01 100.175 361.012 100.198C361.015 100.244 361.019 100.31 361.023 100.394C361.032 100.563 361.042 100.806 361.047 101.111L359.048 101.148C359.043 100.866 359.033 100.645 359.026 100.497C359.022 100.423 359.019 100.367 359.016 100.331C359.015 100.313 359.014 100.299 359.013 100.291C359.013 100.287 359.013 100.284 359.013 100.283C359.013 100.282 359.013 100.282 359.013 100.281C359.013 100.281 359.013 100.281 359.013 100.282C359.013 100.282 359.013 100.282 359.013 100.282C359.013 100.282 359.013 100.282 359.013 100.282C359.013 100.282 359.013 100.282 359.013 100.282C359.013 100.282 359.013 100.282 360.009 100.202ZM358.514 95.1685L360.896 99.7399L359.123 100.664L356.741 96.0926L358.514 95.1685ZM341.811 91.9083L357.796 94.6449L357.459 96.6162L341.473 93.8796L341.811 91.9083ZM345.232 119.069C340.878 118.58 338.275 116.601 336.998 113.783C335.764 111.06 335.849 107.725 336.415 104.62C336.985 101.489 338.075 98.4393 339.012 96.1876C339.481 95.058 339.916 94.1209 340.235 93.4647C340.394 93.1364 340.524 92.8779 340.615 92.7003C340.661 92.6115 340.696 92.5429 340.721 92.4958C340.733 92.4723 340.743 92.4541 340.75 92.4415C340.753 92.4352 340.756 92.4303 340.758 92.4268C340.759 92.4251 340.759 92.4237 340.76 92.4226C340.76 92.4221 340.76 92.4216 340.761 92.4213C340.761 92.4209 340.761 92.4206 341.642 92.8939C342.523 93.3673 342.523 93.3671 342.523 93.367C342.523 93.3671 342.523 93.3671 342.523 93.3673C342.522 93.3677 342.522 93.3684 342.521 93.3695C342.52 93.3717 342.518 93.3752 342.516 93.3802C342.511 93.3901 342.502 93.4054 342.492 93.4261C342.47 93.4675 342.437 93.5303 342.395 93.613C342.31 93.7784 342.186 94.0235 342.034 94.3373C341.73 94.9654 341.311 95.8672 340.858 96.9557C339.95 99.14 338.917 102.043 338.382 104.979C337.842 107.941 337.836 110.787 338.82 112.957C339.76 115.032 341.683 116.658 345.455 117.082L345.232 119.069ZM359.648 110.341C358.773 112.774 357.341 115.215 354.998 116.922C352.635 118.644 349.451 119.544 345.232 119.069L345.455 117.082C349.259 117.509 351.923 116.688 353.82 115.306C355.737 113.909 356.976 111.862 357.766 109.664L359.648 110.341ZM361.681 111.753C360.36 111.52 359.279 111.243 358.396 110.953L359.019 109.053C359.802 109.309 360.791 109.565 362.028 109.784L361.681 111.753ZM366.554 99.7907C368.969 101.598 369.155 104.927 368.212 107.447C367.261 109.99 364.922 112.325 361.681 111.753L362.028 109.784C363.942 110.121 365.57 108.802 366.339 106.746C367.116 104.668 366.774 102.454 365.355 101.392L366.554 99.7907ZM359.451 100.327C360.304 99.6939 361.397 99.0703 362.623 98.8469C363.888 98.6164 365.258 98.8214 366.554 99.7907L365.355 101.392C364.545 100.786 363.75 100.675 362.982 100.814C362.175 100.961 361.368 101.395 360.644 101.933L359.451 100.327Z" fill="black" mask="url(#path-49-inside-1_130_8)"/>
<path d="M358.105 106.811C358.105 106.811 363.408 95.6313 361.768 90.8578C360.128 86.0842 352.178 90.7334 345.36 87.0871C345.36 87.0871 340.651 85.2446 337.957 88.5954C335.263 91.9462 338.293 97.8082 342.416 96.8908C346.54 95.9657 352.935 93.9598 354.193 96.1367C355.458 98.3136 357.223 98.7334 357.223 98.7334L358.105 106.811Z" fill="black"/>
<path d="M360.667 134.868C360.667 134.868 360.432 132.007 360.089 129.286C359.745 126.565 358.035 122.476 357.012 122.142C355.989 121.8 355.989 123.844 355.989 123.844C355.989 123.844 352.225 120.439 350.858 120.439C349.491 120.439 353.935 126.223 353.935 126.223C353.935 126.223 351.202 127.926 351.881 129.628C352.56 131.331 356.02 136.322 356.02 136.322L360.667 134.868Z" fill="#F9A28B"/>
<path d="M103.269 152.891H283.486V157.415H103.269V152.891Z" fill="#CBCBCB"/>
<path d="M136.202 265.34L126.362 156.287" stroke="#228652" stroke-width="4" stroke-miterlimit="10"/>
<path d="M119.803 157.042L110.963 264.338" stroke="#228652" stroke-width="4" stroke-miterlimit="10"/>
<path d="M134.188 243.727L112.478 243.984" stroke="#228652" stroke-width="4" stroke-miterlimit="10"/>
<path d="M136.202 265.34L126.362 156.287" stroke="#979797" stroke-width="4" stroke-miterlimit="10"/>
<path d="M119.803 157.042L110.963 264.338" stroke="#979797" stroke-width="4" stroke-miterlimit="10"/>
<path d="M134.188 243.727L112.478 243.984" stroke="#979797" stroke-width="4" stroke-miterlimit="10"/>
<path d="M275.787 265.714L265.939 156.661" stroke="#979797" stroke-width="4" stroke-miterlimit="10"/>
<path d="M259.38 157.414L250.548 264.71" stroke="#979797" stroke-width="4" stroke-miterlimit="10"/>
<path d="M273.763 244.109L252.06 244.358" stroke="#979797" stroke-width="4" stroke-miterlimit="10"/>
<path d="M144.917 152.89C144.917 152.89 142.137 141.586 133.305 142.083C124.472 142.589 122.45 152.89 122.45 152.89H144.917Z" fill="#979797"/>
<path d="M138.762 116.304L134.319 139.332C134.241 139.736 133.842 140.001 133.436 139.923C133.054 139.845 132.796 139.495 132.843 139.114L135.397 115.954C135.443 115.558 135.795 115.262 136.193 115.293L138.083 115.425C138.528 115.457 138.848 115.869 138.762 116.304Z" fill="#979797"/>
<path d="M139.528 113.612C138.376 113.612 137.442 112.683 137.442 111.536C137.442 110.39 138.376 109.461 139.528 109.461C140.679 109.461 141.613 110.39 141.613 111.536C141.613 112.683 140.679 113.612 139.528 113.612Z" fill="#979797"/>
<path d="M159.388 125.105L144.988 112.533C144.621 112.214 144.066 112.246 143.738 112.603C143.418 112.953 143.426 113.482 143.754 113.824L156.093 126.667C156.288 126.869 156.577 126.97 156.858 126.932L158.92 126.659C159.677 126.566 159.974 125.61 159.388 125.105Z" fill="#979797"/>
<path d="M170.492 135.647L156.388 139.612C156.388 139.612 151.554 129.645 160.402 127.569C168.875 125.563 170.492 135.647 170.492 135.647Z" fill="#979797"/>
<path d="M166.024 137.329C166.009 137.252 165.993 137.184 165.978 137.128L161.16 138.489C161.197 138.548 161.241 138.616 161.293 138.691C161.465 138.939 161.717 139.259 162.037 139.549C162.677 140.129 163.558 140.567 164.625 140.141C165.174 139.922 165.52 139.615 165.738 139.285C165.957 138.953 166.054 138.586 166.082 138.238C166.111 137.89 166.072 137.566 166.024 137.329ZM165.925 136.951L165.925 136.951L165.925 136.951Z" fill="white" stroke="black" stroke-width="0.4"/>
<path d="M379.986 218.693L379.822 244.698C379.806 247.521 377.526 249.814 374.691 249.853L353.637 250.164" stroke="#2D4BAA" stroke-width="4" stroke-miterlimit="10"/>
<path d="M372.873 207.016C372.873 207.016 377.731 210.211 378.855 214.269" stroke="#2D4BAA" stroke-width="4" stroke-miterlimit="10"/>
<path d="M120.201 85.3998L117.467 87.3434L113.766 83.2695" fill="white"/>
<path d="M120.201 85.3998L117.467 87.3434L113.766 83.2695" stroke="#72D8ED" stroke-miterlimit="10"/>
<path d="M84.0976 147.253C84.0976 147.253 89.2986 152.952 92.4224 174.977C95.5461 197.002 92.0944 212.676 92.0944 212.676L85.4565 212.287C85.4643 212.287 86.2452 150.433 84.0976 147.253Z" fill="#72D8ED"/>
<path d="M87.6127 159.242C87.6127 159.242 90.7366 201.404 87.8079 217.341" stroke="#72D8ED" stroke-width="2" stroke-miterlimit="10"/>
<path d="M63.162 157.166C63.162 157.166 69.7531 161.193 78.9134 181.484C88.0738 201.768 89.1515 217.776 89.1515 217.776L82.6697 219.245C82.6697 219.245 66.1139 159.622 63.162 157.166Z" fill="#72D8ED"/>
<path d="M69.8853 167.701C69.8853 167.701 84.684 207.327 86.324 223.444" stroke="#72D8ED" stroke-width="2" stroke-miterlimit="10"/>
<path d="M104.565 168.183C104.565 168.183 97.4351 173.392 91.828 195.075C86.2209 216.758 89.5555 232.704 89.5555 232.704L98.1614 232.921C98.1614 232.921 101.558 171.153 104.565 168.183Z" fill="#72D8ED"/>
<path d="M99.1693 179.813C99.1693 179.813 92.1251 221.586 94.7726 237.749" stroke="#72D8ED" stroke-width="2" stroke-miterlimit="10"/>
<path d="M111.656 187.356C111.656 187.356 106.432 189.478 99.5985 202.026C92.7653 214.574 92.3514 224.953 92.3514 224.953L97.6383 226.415C97.6383 226.415 109.337 188.732 111.656 187.356Z" fill="#72D8ED"/>
<path d="M106.51 193.722C106.51 193.722 95.6629 218.476 94.7883 228.878" stroke="#72D8ED" stroke-width="2" stroke-miterlimit="10"/>
<path d="M60.036 190.83C60.036 190.83 65.5182 190.659 74.3584 198.527C83.1986 206.395 85.3774 214.838 85.3774 214.838L80.4419 218.003C80.4419 218.003 62.5428 191.11 60.036 190.83Z" fill="#72D8ED"/>
<path d="M66.167 194.197C66.167 194.197 81.0205 210.695 83.6522 218.99" stroke="#72D8ED" stroke-width="2" stroke-miterlimit="10"/>
<path d="M103.613 211.509L100.49 263.583H79.412L74.336 209.954L103.613 211.509Z" fill="#979797"/>
<path d="M103.223 220.442L75.3121 219.47L74.336 209.954L103.613 211.509L103.223 215.785" stroke="#002F7A" stroke-width="2" stroke-miterlimit="10"/>
<defs>
<linearGradient id="paint0_linear_130_8" x1="195.342" y1="299.25" x2="195.667" y2="254.766" gradientUnits="userSpaceOnUse">
<stop stop-color="white" stop-opacity="0"/>
<stop offset="1" stop-color="#82A9FF" stop-opacity="0.21"/>
</linearGradient>
</defs>
</svg>
