<svg width="423" height="310" viewBox="0 0 423 310" fill="none" xmlns="http://www.w3.org/2000/svg">
<g clip-path="url(#clip0_141_11611)">
<path fill-rule="evenodd" clip-rule="evenodd" d="M154.173 208.1C184.702 191.811 218.044 197.07 253.867 215.306C287.861 230.931 312.407 218.186 331.15 184.464C357.071 130.706 316.264 78.0956 220.666 32.2648C142.003 -6.01481 87.0717 7.90209 45.4385 56.7386C-24.0902 141.864 61.2556 256.821 154.173 208.1Z" fill="url(#paint0_linear_141_11611)"/>
<path fill-rule="evenodd" clip-rule="evenodd" d="M235.933 278.171C257.289 281.813 294.025 282.886 340.818 282.453C384.244 282.254 401.62 285.138 400.929 290.364C395.829 298.487 324.001 302.993 200.777 303.791C99.0533 304.519 51.6697 299.905 38.0364 291.584C17.3435 277.237 170.435 267.194 235.933 278.171Z" fill="url(#paint1_linear_141_11611)"/>
<path d="M98.1444 194.145L107.417 214.462C108.148 216.077 108.21 217.916 107.589 219.577C106.968 221.237 105.714 222.585 104.101 223.325L58.2419 244.22C56.6251 244.95 54.7847 245.012 53.1226 244.391C51.4604 243.771 50.1116 242.518 49.3706 240.907L40.0957 220.585C39.3639 218.97 39.3017 217.131 39.9227 215.47C40.5437 213.809 41.7975 212.461 43.4101 211.721L89.2695 190.827C90.8861 190.096 92.7265 190.035 94.3885 190.655C96.0506 191.276 97.3992 192.529 98.1396 194.14L98.1444 194.145Z" fill="#B2BFEB"/>
<path d="M73.7549 225.387C78.1009 225.387 81.624 221.867 81.624 217.525C81.624 213.182 78.1009 209.662 73.7549 209.662C69.4089 209.662 65.8857 213.182 65.8857 217.525C65.8857 221.867 69.4089 225.387 73.7549 225.387Z" fill="white"/>
<path d="M98.1435 194.145L99.1385 196.323C98.7669 196.575 98.3748 196.796 97.9663 196.983C97.0258 197.411 96.0101 197.651 94.9771 197.687C93.944 197.723 92.914 197.556 91.9457 197.194C90.9774 196.833 90.09 196.284 89.3339 195.58C88.5779 194.876 87.9682 194.029 87.5395 193.089C87.3537 192.681 87.2023 192.257 87.0869 191.824L89.2697 190.831C90.8863 190.1 92.7267 190.038 94.3887 190.659C96.0508 191.28 97.3994 192.532 98.1399 194.143L98.1435 194.145Z" fill="white"/>
<path d="M106.424 212.288L107.415 214.463C108.146 216.078 108.208 217.917 107.587 219.578C106.966 221.239 105.712 222.586 104.1 223.326L101.917 224.32C101.273 223.373 100.844 222.297 100.658 221.167C100.473 220.038 100.537 218.881 100.844 217.778C101.152 216.675 101.697 215.653 102.44 214.782C103.184 213.911 104.108 213.212 105.15 212.734C105.56 212.548 105.986 212.398 106.424 212.288Z" fill="white"/>
<path d="M46.2495 211.901C47.115 213.798 47.191 215.961 46.4608 217.914C45.7306 219.867 44.254 221.451 42.3556 222.316C41.9465 222.503 41.5223 222.654 41.0876 222.77L40.0938 220.585C39.3619 218.97 39.2997 217.131 39.9207 215.47C40.5418 213.809 41.7956 212.461 43.4081 211.721L45.5837 210.729C45.8399 211.098 46.0623 211.489 46.2483 211.897L46.2495 211.901Z" fill="white"/>
<path d="M59.9658 241.962C60.1524 242.371 60.3018 242.796 60.4124 243.232L58.2368 244.223C56.62 244.954 54.7796 245.016 53.1174 244.395C51.4553 243.774 50.1064 242.522 49.3654 240.911L48.374 238.736C48.7426 238.479 49.1338 238.257 49.5427 238.072C50.4828 237.643 51.4983 237.403 52.5312 237.367C53.564 237.33 54.5939 237.498 55.562 237.859C56.5301 238.221 57.4174 238.769 58.1733 239.473C58.9291 240.178 59.5386 241.024 59.967 241.963L59.9658 241.962Z" fill="white"/>
<path fill-rule="evenodd" clip-rule="evenodd" d="M90.8271 228.387L57.8634 243.405C56.4632 244.037 54.8693 244.09 53.4301 243.552C51.9908 243.014 50.8232 241.929 50.1823 240.534L45.3305 229.899C45.2317 229.682 45.0509 229.514 44.8278 229.431C44.6047 229.347 44.3576 229.356 44.1409 229.454C43.9242 229.553 43.7555 229.734 43.6721 229.957C43.5887 230.18 43.5973 230.427 43.6961 230.643L48.5478 241.283C49.388 243.109 50.9171 244.529 52.8015 245.233C54.6858 245.937 56.7724 245.868 58.6058 245.041L91.5707 230.022C91.6808 229.975 91.7805 229.907 91.8637 229.82C91.947 229.734 92.0121 229.633 92.0554 229.521C92.0986 229.409 92.1191 229.29 92.1155 229.17C92.112 229.051 92.0845 228.933 92.0347 228.824C91.985 228.715 91.9139 228.617 91.8257 228.536C91.7375 228.455 91.634 228.393 91.5212 228.352C91.4085 228.312 91.2888 228.295 91.1692 228.301C91.0495 228.308 90.9324 228.338 90.8247 228.39L90.8271 228.387Z" fill="black"/>
<path fill-rule="evenodd" clip-rule="evenodd" d="M40.6114 216.252C40.8381 215.44 41.2393 214.688 41.7869 214.048C42.3345 213.407 43.0154 212.893 43.7821 212.543L89.6415 191.65C91.0415 191.018 92.6352 190.965 94.0743 191.503C95.5133 192.041 96.6807 193.126 97.3214 194.522L106.593 214.839C106.913 215.542 107.088 216.302 107.108 217.074C107.129 217.846 106.994 218.614 106.712 219.334C106.626 219.556 106.632 219.803 106.728 220.021C106.825 220.239 107.004 220.409 107.226 220.495C107.448 220.581 107.696 220.576 107.914 220.479C108.132 220.383 108.303 220.204 108.389 219.982C108.757 219.04 108.932 218.033 108.904 217.022C108.875 216.01 108.645 215.015 108.225 214.095L98.9534 193.777C98.1136 191.951 96.5845 190.53 94.7 189.826C92.8156 189.122 90.7288 189.192 88.8955 190.02L43.0361 210.913C42.0317 211.372 41.1397 212.044 40.4223 212.883C39.7049 213.722 39.1793 214.707 38.8824 215.77C38.8462 215.884 38.8335 216.005 38.8449 216.124C38.8562 216.244 38.8916 216.36 38.9487 216.466C39.0058 216.572 39.0836 216.665 39.1775 216.74C39.2714 216.815 39.3793 216.87 39.4951 216.903C39.6108 216.936 39.7319 216.945 39.8512 216.93C39.9705 216.915 40.0856 216.876 40.1896 216.816C40.2936 216.755 40.3844 216.675 40.4566 216.579C40.5289 216.483 40.5811 216.373 40.6102 216.256L40.6114 216.252Z" fill="black"/>
<path d="M384.694 218.038L356.556 189.923H318.405C318.19 189.923 317.978 189.966 317.78 190.05C317.583 190.134 317.404 190.257 317.255 190.411C317.106 190.565 316.989 190.748 316.912 190.948C316.835 191.148 316.799 191.362 316.807 191.576C317.677 212.762 335.144 229.675 356.559 229.675C361.786 229.682 366.962 228.657 371.791 226.659C376.62 224.661 381.006 221.729 384.698 218.032L384.694 218.038Z" fill="white"/>
<path d="M396.343 189.93C396.343 168.526 379.419 151.078 358.212 150.21C357.998 150.202 357.785 150.238 357.585 150.315C357.385 150.392 357.203 150.508 357.049 150.657C356.895 150.806 356.772 150.984 356.689 151.181C356.605 151.378 356.562 151.59 356.563 151.804C356.563 159.273 356.563 189.929 356.563 189.929L384.695 218.038C388.395 214.349 391.329 209.967 393.328 205.142C395.328 200.317 396.354 195.145 396.348 189.923L396.343 189.93Z" fill="#72D8ED"/>
<path fill-rule="evenodd" clip-rule="evenodd" d="M372.46 152.5C367.956 150.59 363.142 149.51 358.253 149.314C357.918 149.302 357.584 149.358 357.271 149.478C356.958 149.597 356.673 149.779 356.431 150.011C356.19 150.244 355.998 150.523 355.867 150.831C355.736 151.139 355.669 151.471 355.669 151.805C355.669 155.046 355.669 162.653 355.669 170.23C355.669 170.468 355.764 170.696 355.932 170.864C356.1 171.033 356.329 171.127 356.567 171.127C356.805 171.127 357.034 171.033 357.202 170.864C357.37 170.696 357.465 170.468 357.465 170.23C357.465 162.655 357.465 155.05 357.465 151.805C357.465 151.711 357.484 151.618 357.52 151.532C357.557 151.445 357.611 151.367 357.679 151.301C357.746 151.236 357.827 151.185 357.915 151.152C358.003 151.118 358.097 151.103 358.191 151.107C362.86 151.294 367.457 152.325 371.758 154.15C371.976 154.235 372.217 154.231 372.432 154.14C372.647 154.05 372.818 153.879 372.91 153.665C373.001 153.45 373.005 153.208 372.921 152.991C372.837 152.773 372.672 152.597 372.46 152.499V152.5Z" fill="black"/>
<path fill-rule="evenodd" clip-rule="evenodd" d="M355.664 182.242V189.931C355.664 190.169 355.759 190.397 355.927 190.565C356.096 190.734 356.324 190.828 356.562 190.828C356.8 190.828 357.029 190.734 357.197 190.565C357.366 190.397 357.46 190.169 357.46 189.931V182.242C357.46 182.004 357.366 181.775 357.197 181.607C357.029 181.439 356.8 181.344 356.562 181.344C356.324 181.344 356.096 181.439 355.927 181.607C355.759 181.775 355.664 182.004 355.664 182.242Z" fill="black"/>
<path fill-rule="evenodd" clip-rule="evenodd" d="M384.688 216.764C391.605 209.541 395.461 199.927 395.45 189.93C395.45 189.692 395.544 189.464 395.713 189.295C395.881 189.127 396.109 189.032 396.348 189.032C396.586 189.032 396.814 189.127 396.983 189.295C397.151 189.464 397.246 189.692 397.246 189.93C397.251 195.269 396.2 200.556 394.155 205.488C392.11 210.42 389.11 214.9 385.327 218.671C385.158 218.839 384.93 218.933 384.692 218.933C384.454 218.933 384.225 218.839 384.057 218.671L355.924 190.555C355.756 190.387 355.661 190.159 355.661 189.921C355.661 189.683 355.756 189.454 355.924 189.286C356.093 189.118 356.321 189.023 356.559 189.023C356.798 189.023 357.026 189.118 357.195 189.286L384.684 216.754L384.688 216.764Z" fill="black"/>
<path d="M349.359 184.334C349.784 184.334 350.19 184.165 350.49 183.866C350.79 183.566 350.959 183.16 350.959 182.736V146.21C350.959 145.995 350.916 145.783 350.833 145.585C350.749 145.388 350.626 145.209 350.472 145.06C350.318 144.911 350.135 144.794 349.934 144.717C349.734 144.64 349.52 144.604 349.306 144.611C328.65 145.458 312.053 162.039 311.21 182.682C311.203 182.896 311.239 183.109 311.315 183.308C311.392 183.508 311.508 183.69 311.657 183.843C311.806 183.997 311.984 184.119 312.181 184.203C312.378 184.286 312.59 184.329 312.804 184.329C319.253 184.329 342.963 184.329 349.359 184.329V184.334Z" fill="#2D4BAA"/>
<path fill-rule="evenodd" clip-rule="evenodd" d="M351.097 144.413C350.856 144.181 350.571 143.999 350.258 143.879C349.946 143.759 349.612 143.703 349.278 143.714C343.716 143.94 338.259 145.306 333.248 147.727C328.236 150.149 323.776 153.575 320.146 157.791C319.99 157.971 319.913 158.206 319.93 158.443C319.948 158.681 320.059 158.901 320.239 159.057C320.42 159.212 320.654 159.29 320.892 159.272C321.13 159.255 321.35 159.144 321.506 158.964C324.975 154.934 329.237 151.66 334.026 149.345C338.815 147.03 344.029 145.724 349.345 145.508C349.438 145.505 349.531 145.522 349.618 145.556C349.705 145.589 349.784 145.64 349.851 145.705C350.024 145.862 350.252 145.945 350.485 145.937C350.719 145.929 350.94 145.831 351.102 145.663C351.264 145.495 351.354 145.27 351.353 145.037C351.352 144.804 351.26 144.58 351.097 144.413Z" fill="black"/>
<path fill-rule="evenodd" clip-rule="evenodd" d="M315.161 165.011C312.219 170.442 310.561 176.474 310.315 182.645C310.303 182.979 310.358 183.313 310.478 183.626C310.598 183.938 310.779 184.224 311.012 184.464C311.245 184.705 311.523 184.897 311.832 185.028C312.14 185.158 312.472 185.226 312.807 185.226C319.256 185.226 342.966 185.226 349.363 185.226C349.691 185.226 350.015 185.161 350.319 185.036C350.622 184.91 350.897 184.726 351.129 184.495C351.361 184.263 351.545 183.988 351.67 183.685C351.796 183.382 351.86 183.058 351.86 182.73V164.413C351.86 164.175 351.766 163.947 351.597 163.779C351.429 163.61 351.201 163.516 350.962 163.516C350.724 163.516 350.496 163.61 350.327 163.779C350.159 163.947 350.064 164.175 350.064 164.413V182.73C350.064 182.916 349.99 183.094 349.859 183.226C349.727 183.357 349.549 183.431 349.363 183.431C342.966 183.431 319.256 183.431 312.807 183.431C312.713 183.431 312.621 183.413 312.535 183.376C312.449 183.34 312.371 183.287 312.306 183.22C312.241 183.153 312.19 183.073 312.156 182.986C312.123 182.899 312.107 182.806 312.11 182.713C312.346 176.818 313.93 171.055 316.74 165.867C316.798 165.763 316.835 165.649 316.849 165.531C316.862 165.412 316.852 165.293 316.819 165.179C316.786 165.064 316.73 164.958 316.656 164.865C316.581 164.773 316.489 164.696 316.384 164.639C316.279 164.583 316.165 164.548 316.046 164.536C315.928 164.524 315.808 164.536 315.694 164.57C315.581 164.605 315.475 164.662 315.383 164.738C315.292 164.814 315.216 164.907 315.161 165.012V165.011Z" fill="black"/>
<path fill-rule="evenodd" clip-rule="evenodd" d="M356.188 190.826H337.432C337.194 190.826 336.966 190.731 336.797 190.563C336.629 190.395 336.534 190.167 336.534 189.929C336.534 189.691 336.629 189.462 336.797 189.294C336.966 189.126 337.194 189.031 337.432 189.031H356.565C356.683 189.031 356.8 189.055 356.909 189.1C357.017 189.145 357.116 189.211 357.2 189.294L385.338 217.404C385.497 217.574 385.583 217.799 385.579 218.031C385.575 218.264 385.48 218.486 385.316 218.65C385.151 218.814 384.929 218.909 384.697 218.913C384.464 218.917 384.239 218.83 384.069 218.672L356.188 190.826Z" fill="black"/>
<path fill-rule="evenodd" clip-rule="evenodd" d="M316.611 189.792C316.378 190.033 316.196 190.318 316.075 190.631C315.955 190.943 315.898 191.277 315.91 191.612C316.8 213.283 334.662 230.579 356.562 230.579C361.52 230.583 366.437 229.681 371.07 227.917C371.283 227.825 371.452 227.655 371.543 227.442C371.633 227.228 371.637 226.988 371.554 226.772C371.472 226.556 371.308 226.38 371.099 226.281C370.889 226.182 370.649 226.168 370.43 226.242C366.001 227.928 361.301 228.79 356.562 228.785C335.629 228.785 318.556 212.255 317.704 191.546C317.702 191.453 317.718 191.361 317.752 191.274C317.785 191.188 317.836 191.109 317.901 191.042C318.064 190.871 318.154 190.642 318.149 190.405C318.144 190.169 318.046 189.943 317.876 189.779C317.706 189.614 317.478 189.523 317.241 189.526C317.004 189.528 316.778 189.625 316.611 189.793V189.792Z" fill="black"/>
<path d="M327.597 120.71V256.009L244.804 268.265H182.039L98.2168 256.008V120.711C98.2168 112.063 105.304 104.982 113.955 104.982H311.854C320.513 104.982 327.597 112.064 327.597 120.71Z" fill="white" stroke="black" stroke-width="1.5"/>
<path d="M311.852 120.71H113.954V244.296H311.852V120.71Z" fill="white"/>
<path d="M233.983 255.163H335.844V258.53C335.844 267.18 328.762 274.26 320.104 274.26H105.711C97.0527 274.26 89.9688 267.178 89.9688 258.53V255.163H191.831L193.909 259.291C193.909 259.292 193.91 259.292 193.91 259.293C194.49 260.468 195.525 261.486 196.693 262.208C197.863 262.93 199.235 263.398 200.539 263.398H225.274C226.578 263.398 227.95 262.93 229.119 262.208C230.287 261.486 231.322 260.468 231.902 259.293C231.903 259.293 231.903 259.292 231.903 259.291L233.983 255.163Z" fill="white" stroke="black" stroke-width="1.5"/>
<path d="M259.853 94.0386V109.166C259.85 110.759 259.215 112.287 258.088 113.415C256.961 114.542 255.433 115.178 253.838 115.182H251.612V93.9728L259.853 94.0386Z" fill="#2D4BAA"/>
<path fill-rule="evenodd" clip-rule="evenodd" d="M252.511 114.279H253.839C255.195 114.276 256.494 113.736 257.453 112.777C258.412 111.819 258.953 110.521 258.956 109.166V103.144C258.956 102.906 259.051 102.678 259.219 102.51C259.388 102.342 259.616 102.247 259.854 102.247C260.093 102.247 260.321 102.342 260.489 102.51C260.658 102.678 260.752 102.906 260.752 103.144V109.167C260.747 110.998 260.017 112.752 258.722 114.046C257.426 115.341 255.671 116.07 253.839 116.075H251.613C251.375 116.075 251.146 115.981 250.978 115.812C250.809 115.644 250.715 115.416 250.715 115.178V93.9729C250.715 93.7349 250.809 93.5067 250.978 93.3384C251.146 93.1701 251.375 93.0756 251.613 93.0756C251.851 93.0756 252.079 93.1701 252.248 93.3384C252.416 93.5067 252.511 93.7349 252.511 93.9729V114.279Z" fill="black"/>
<path d="M193.565 91.4304C199.042 91.4304 203.482 86.9942 203.482 81.5218C203.482 76.0495 199.042 71.6133 193.565 71.6133C188.088 71.6133 183.648 76.0495 183.648 81.5218C183.648 86.9942 188.088 91.4304 193.565 91.4304Z" fill="#2D4BAA"/>
<path fill-rule="evenodd" clip-rule="evenodd" d="M186.863 87.5457C185.696 86.2512 184.93 84.6462 184.657 82.9253C184.384 81.2044 184.617 79.4413 185.326 77.8497C186.036 76.2581 187.192 74.9063 188.655 73.9581C190.118 73.0098 191.825 72.5057 193.569 72.507C193.687 72.507 193.803 72.4838 193.912 72.4387C194.021 72.3936 194.12 72.3275 194.204 72.2442C194.287 72.1609 194.353 72.0619 194.398 71.9531C194.444 71.8442 194.467 71.7275 194.467 71.6097C194.467 71.4919 194.444 71.3752 194.398 71.2663C194.353 71.1575 194.287 71.0585 194.204 70.9752C194.12 70.8919 194.021 70.8258 193.912 70.7807C193.803 70.7356 193.687 70.7124 193.569 70.7124C191.478 70.7117 189.432 71.3168 187.678 72.4542C185.924 73.5917 184.538 75.2129 183.688 77.1214C182.837 79.0298 182.559 81.1438 182.886 83.2071C183.214 85.2705 184.133 87.1947 185.532 88.7469C185.695 88.9067 185.913 88.9984 186.141 89.0035C186.369 89.0086 186.591 88.9266 186.761 88.7742C186.931 88.6218 187.036 88.4104 187.056 88.1831C187.075 87.9558 187.007 87.7296 186.866 87.5505L186.863 87.5457Z" fill="#2D2E85"/>
<path d="M250.264 69.0542V93.9895H265.527C267.955 93.9835 270.282 93.0172 271.999 91.302C273.716 89.5867 274.683 87.2619 274.69 84.8359V78.203C274.683 75.778 273.715 73.4545 271.999 71.7402C270.282 70.0259 267.956 69.0602 265.529 69.0542H250.264Z" fill="#B2BFEB"/>
<path fill-rule="evenodd" clip-rule="evenodd" d="M250.263 94.8868H265.526C268.192 94.8799 270.746 93.8188 272.631 91.9357C274.515 90.0525 275.577 87.5003 275.584 84.8371V78.2031C275.584 77.9651 275.49 77.7369 275.321 77.5686C275.153 77.4003 274.924 77.3058 274.686 77.3058C274.448 77.3058 274.22 77.4003 274.051 77.5686C273.883 77.7369 273.788 77.9651 273.788 78.2031V84.8371C273.781 87.0244 272.908 89.1201 271.361 90.6667C269.813 92.2133 267.715 93.0853 265.526 93.0922H250.263C250.025 93.0922 249.797 93.1868 249.628 93.3551C249.46 93.5233 249.365 93.7516 249.365 93.9895C249.365 94.2275 249.46 94.4557 249.628 94.624C249.797 94.7923 250.025 94.8868 250.263 94.8868Z" fill="black"/>
<path fill-rule="evenodd" clip-rule="evenodd" d="M271.066 69.8284C269.425 68.736 267.497 68.1532 265.525 68.1534H250.263C250.025 68.1534 249.797 68.248 249.628 68.4163C249.46 68.5845 249.365 68.8128 249.365 69.0507C249.365 69.2887 249.46 69.5169 249.628 69.6852C249.797 69.8535 250.025 69.948 250.263 69.948H265.526C267.145 69.9467 268.728 70.4242 270.076 71.3203C270.275 71.452 270.517 71.4995 270.751 71.4524C270.984 71.4053 271.19 71.2674 271.321 71.0691C271.453 70.8707 271.501 70.6282 271.454 70.3949C271.406 70.1616 271.269 69.9565 271.07 69.8248L271.066 69.8284Z" fill="black"/>
<path d="M189.806 54.4654V108.581C189.806 113.613 193.644 116.227 198.335 114.384L250.263 93.9895V69.0542L198.335 48.6628C193.644 46.8228 189.806 49.4357 189.806 54.4678V54.4654Z" fill="white"/>
<path d="M189.806 108.58V101.377C189.806 106.409 193.644 109.022 198.335 107.181L250.263 91.5752V93.9895L198.335 114.384C193.644 116.225 189.806 113.612 189.806 108.58Z" fill="#B2BFEB"/>
<path fill-rule="evenodd" clip-rule="evenodd" d="M250.591 68.2192L198.656 47.8254C195.985 46.7786 193.559 47.0466 191.799 48.2441C190.039 49.4417 188.901 51.6 188.901 54.4654V108.581C188.901 111.452 190.039 113.606 191.799 114.802C193.559 115.998 195.99 116.268 198.656 115.22L225.507 104.675C225.618 104.631 225.718 104.567 225.803 104.485C225.888 104.403 225.957 104.305 226.004 104.197C226.051 104.089 226.077 103.972 226.079 103.854C226.081 103.736 226.06 103.619 226.017 103.509C225.974 103.399 225.909 103.298 225.827 103.213C225.745 103.128 225.647 103.06 225.539 103.013C225.431 102.965 225.314 102.94 225.196 102.938C225.078 102.935 224.96 102.956 224.85 103L198 113.546C195.981 114.339 194.142 114.221 192.812 113.315C191.482 112.409 190.699 110.743 190.699 108.576V54.4642C190.699 52.2975 191.48 50.6357 192.812 49.7265C194.143 48.8172 195.981 48.7024 198.001 49.4944L249.929 69.8882C250.151 69.9753 250.399 69.9706 250.618 69.8751C250.837 69.7796 251.009 69.6012 251.096 69.3791C251.183 69.157 251.178 68.9094 251.083 68.6907C250.987 68.4721 250.809 68.3003 250.586 68.2132L250.591 68.2192Z" fill="black"/>
<path fill-rule="evenodd" clip-rule="evenodd" d="M237.24 100.068L250.591 94.8247C250.701 94.7816 250.802 94.7172 250.887 94.6353C250.972 94.5533 251.041 94.4554 251.088 94.3472C251.135 94.2389 251.161 94.1224 251.163 94.0043C251.165 93.8862 251.144 93.7688 251.101 93.6588C251.058 93.5488 250.993 93.4484 250.911 93.3633C250.829 93.2782 250.731 93.2101 250.623 93.1628C250.515 93.1155 250.398 93.0901 250.28 93.0878C250.162 93.0856 250.044 93.1066 249.934 93.1497L236.583 98.3935C236.473 98.4367 236.373 98.501 236.288 98.583C236.202 98.6649 236.134 98.7628 236.087 98.8711C236.04 98.9793 236.014 99.0958 236.012 99.2139C236.01 99.3321 236.031 99.4494 236.074 99.5594C236.117 99.6694 236.181 99.7698 236.263 99.8549C236.345 99.94 236.443 100.008 236.552 100.055C236.66 100.103 236.777 100.128 236.895 100.13C237.013 100.133 237.131 100.112 237.241 100.068H237.24Z" fill="black"/>
<path fill-rule="evenodd" clip-rule="evenodd" d="M268.765 83.0497H257.61C257.374 83.0497 257.148 83.1433 256.981 83.31C256.814 83.4767 256.721 83.7028 256.721 83.9386C256.721 84.1744 256.814 84.4005 256.981 84.5672C257.148 84.7339 257.374 84.8275 257.61 84.8275H268.765C269.001 84.8275 269.227 84.7339 269.394 84.5672C269.561 84.4005 269.655 84.1744 269.655 83.9386C269.655 83.7028 269.561 83.4767 269.394 83.31C269.227 83.1433 269.001 83.0497 268.765 83.0497Z" fill="white"/>
<path fill-rule="evenodd" clip-rule="evenodd" d="M268.764 86.7657H257.61C257.374 86.7657 257.148 86.8593 256.981 87.0259C256.814 87.1925 256.721 87.4185 256.721 87.6541C256.721 87.8897 256.814 88.1156 256.981 88.2822C257.148 88.4488 257.374 88.5424 257.61 88.5424H268.764C269 88.5424 269.226 88.4488 269.393 88.2822C269.56 88.1156 269.654 87.8897 269.654 87.6541C269.654 87.4185 269.56 87.1925 269.393 87.0259C269.226 86.8593 269 86.7657 268.764 86.7657Z" fill="white"/>
<path fill-rule="evenodd" clip-rule="evenodd" d="M169.995 177.838L175.85 172.254C176.138 171.98 176.304 171.603 176.313 171.207C176.322 170.81 176.174 170.426 175.899 170.139C175.625 169.852 175.248 169.686 174.851 169.676C174.454 169.667 174.07 169.816 173.782 170.09L167.927 175.673C167.785 175.809 167.671 175.971 167.591 176.151C167.512 176.331 167.469 176.524 167.464 176.721C167.46 176.917 167.494 177.113 167.565 177.296C167.636 177.479 167.742 177.647 167.878 177.789C168.014 177.931 168.176 178.045 168.356 178.124C168.536 178.204 168.73 178.247 168.926 178.251C169.123 178.256 169.319 178.222 169.502 178.151C169.685 178.08 169.853 177.973 169.995 177.838Z" fill="#2D4BAA"/>
<path fill-rule="evenodd" clip-rule="evenodd" d="M301.144 182.402H125.13C124.892 182.402 124.664 182.497 124.495 182.665C124.327 182.833 124.232 183.061 124.232 183.299C124.232 183.537 124.327 183.766 124.495 183.934C124.664 184.102 124.892 184.197 125.13 184.197H301.144C301.383 184.197 301.611 184.102 301.779 183.934C301.948 183.766 302.042 183.537 302.042 183.299C302.042 183.061 301.948 182.833 301.779 182.665C301.611 182.497 301.383 182.402 301.144 182.402Z" fill="#72D8ED"/>
<path d="M153.557 177.255H136.016V225.605H153.557V177.255Z" fill="#121F55"/>
<path d="M180.776 195.387H163.233V225.606H180.776V195.387Z" fill="#2D4BAA"/>
<path d="M207.995 165.168H190.453V225.606H207.995V165.168Z" fill="#2D4BAA"/>
<path d="M235.212 150.059H217.671V225.605H235.212V150.059Z" fill="#121F55"/>
<path d="M262.431 171.211H244.89V225.605H262.431V171.211Z" fill="#121F55"/>
<path d="M289.648 188.134H272.107V225.605H289.648V188.134Z" fill="#2D4BAA"/>
<path fill-rule="evenodd" clip-rule="evenodd" d="M126.326 234.078H301.143C301.461 234.078 301.765 234.204 301.99 234.428C302.214 234.653 302.34 234.957 302.34 235.274C302.34 235.592 302.214 235.896 301.99 236.12C301.765 236.345 301.461 236.471 301.143 236.471H125.129C124.811 236.471 124.507 236.345 124.282 236.12C124.058 235.896 123.932 235.592 123.932 235.274V134.345C123.932 134.028 124.058 133.724 124.282 133.499C124.507 133.275 124.811 133.149 125.129 133.149C125.447 133.149 125.751 133.275 125.976 133.499C126.2 133.724 126.326 134.028 126.326 134.345V234.078Z" fill="black"/>
<path d="M62.6045 172.891C75.1982 172.891 85.4073 162.69 85.4073 150.107C85.4073 137.523 75.1982 127.322 62.6045 127.322C50.0109 127.322 39.8018 137.523 39.8018 150.107C39.8018 162.69 50.0109 172.891 62.6045 172.891Z" fill="#B2BFEB"/>
<path fill-rule="evenodd" clip-rule="evenodd" d="M83.7896 155.69C81.3135 165.072 72.7642 171.995 62.6045 171.995C58.8239 172 55.1068 171.023 51.8186 169.159C51.6137 169.061 51.3791 169.043 51.162 169.111C50.945 169.179 50.7617 169.326 50.6491 169.523C50.5365 169.721 50.503 169.953 50.5554 170.174C50.6078 170.396 50.7421 170.588 50.9313 170.714C54.49 172.732 58.5128 173.79 62.6045 173.784C73.5964 173.784 82.8509 166.291 85.5258 156.144C85.5594 156.028 85.5697 155.908 85.5559 155.789C85.5421 155.67 85.5046 155.555 85.4455 155.45C85.3865 155.346 85.3072 155.255 85.2122 155.181C85.1172 155.108 85.0085 155.055 84.8926 155.024C84.7766 154.994 84.6557 154.987 84.5369 155.004C84.4182 155.021 84.3041 155.061 84.2013 155.123C84.0985 155.185 84.0091 155.266 83.9384 155.363C83.8677 155.46 83.8171 155.57 83.7896 155.687V155.69Z" fill="black"/>
<path fill-rule="evenodd" clip-rule="evenodd" d="M43.0475 159.97C41.4992 156.913 40.6947 153.534 40.6994 150.108C40.6994 138.024 50.5179 128.22 62.6054 128.22C66.5306 128.22 70.3837 129.274 73.7618 131.271C77.14 133.268 79.9191 136.136 81.8088 139.573C81.8638 139.68 81.9396 139.775 82.0318 139.852C82.124 139.929 82.2307 139.986 82.3456 140.021C82.4604 140.056 82.5812 140.068 82.7006 140.055C82.8201 140.043 82.9358 140.007 83.041 139.949C83.1462 139.891 83.2386 139.812 83.3129 139.718C83.3872 139.624 83.4419 139.515 83.4736 139.4C83.5053 139.284 83.5134 139.163 83.4975 139.044C83.4816 138.925 83.442 138.811 83.381 138.707C81.3358 134.989 78.3288 131.888 74.6742 129.728C71.0195 127.568 66.8514 126.429 62.6054 126.429C49.524 126.429 38.9033 137.041 38.9033 150.111C38.8983 153.817 39.768 157.472 41.4418 160.78C41.5502 160.99 41.7378 161.15 41.9635 161.223C42.1893 161.296 42.4348 161.277 42.6464 161.17C42.8581 161.063 43.0187 160.876 43.0932 160.651C43.1677 160.426 43.1499 160.18 43.0439 159.968L43.0475 159.97Z" fill="black"/>
<path d="M49.762 159.887C49.4626 159.715 49.2362 159.439 49.1249 159.113C49.0135 158.786 49.0248 158.43 49.1566 158.111C49.2884 157.792 49.5317 157.531 49.8413 157.378C50.1509 157.225 50.5057 157.189 50.8396 157.278L63.6898 160.719C64.2323 160.864 64.7981 160.901 65.355 160.828C65.9118 160.755 66.4488 160.573 66.9352 160.292C67.4217 160.012 67.848 159.638 68.19 159.193C68.532 158.748 68.7829 158.24 68.9283 157.698C69.0738 157.156 69.1109 156.59 69.0377 156.034C68.9645 155.477 68.7823 154.941 68.5016 154.455C68.2208 153.969 67.847 153.543 67.4015 153.201C66.956 152.859 66.4474 152.609 65.905 152.463L58.5639 150.501C56.7379 150.013 55.1809 148.82 54.2354 147.184C53.2899 145.549 53.0334 143.605 53.5223 141.78C54.0112 139.956 55.2054 138.4 56.8423 137.455C58.4792 136.511 60.4246 136.254 62.2506 136.743L75.1032 140.187C75.2892 140.231 75.4647 140.311 75.619 140.424C75.7734 140.536 75.9036 140.678 76.0018 140.842C76.1001 141.006 76.1644 141.188 76.1909 141.377C76.2174 141.566 76.2057 141.758 76.1563 141.943C76.107 142.127 76.021 142.3 75.9036 142.451C75.7861 142.601 75.6396 142.727 75.4727 142.82C75.3057 142.912 75.1218 142.971 74.9319 142.991C74.7419 143.012 74.5497 142.994 74.3668 142.939L61.5178 139.501C60.4222 139.207 59.2549 139.361 58.2727 139.928C57.2905 140.495 56.5739 141.428 56.2805 142.523C55.987 143.617 56.1408 144.784 56.7081 145.765C57.2753 146.746 58.2094 147.462 59.305 147.756L66.6461 149.72C68.4721 150.209 70.0291 151.402 70.9746 153.037C71.92 154.673 72.1766 156.617 71.6877 158.441C71.1988 160.266 70.0045 161.821 68.3677 162.766C66.7308 163.711 64.7854 163.967 62.9594 163.479L50.1092 160.038C49.9883 160.005 49.8723 159.956 49.7644 159.893L49.762 159.887Z" fill="white"/>
<path d="M57.4637 167.848C57.1921 167.691 56.9799 167.449 56.8597 167.159C56.7396 166.87 56.7183 166.549 56.7992 166.246L65.6526 133.231C65.6967 133.046 65.7776 132.871 65.8904 132.718C66.0032 132.564 66.1457 132.435 66.3094 132.337C66.4732 132.24 66.6548 132.176 66.8437 132.15C67.0325 132.124 67.2247 132.135 67.4088 132.185C67.593 132.234 67.7654 132.32 67.9158 132.437C68.0663 132.554 68.1917 132.7 68.2847 132.866C68.3777 133.032 68.4364 133.215 68.4573 133.405C68.4783 133.594 68.461 133.786 68.4065 133.968L59.5543 166.986C59.4969 167.197 59.3919 167.392 59.2475 167.555C59.1031 167.719 58.9231 167.848 58.7213 167.931C58.5195 168.015 58.3012 168.051 58.0832 168.037C57.8653 168.023 57.6533 167.96 57.4637 167.851V167.848Z" fill="white"/>
</g>
<defs>
<linearGradient id="paint0_linear_141_11611" x1="253.59" y1="17.2733" x2="147.262" y2="185.151" gradientUnits="userSpaceOnUse">
<stop stop-color="white" stop-opacity="0"/>
<stop offset="1" stop-color="#82A9FF" stop-opacity="0.21"/>
</linearGradient>
<linearGradient id="paint1_linear_141_11611" x1="225.308" y1="307.394" x2="224.767" y2="280.518" gradientUnits="userSpaceOnUse">
<stop stop-color="white" stop-opacity="0"/>
<stop offset="1" stop-color="#82A9FF" stop-opacity="0.21"/>
</linearGradient>
<clipPath id="clip0_141_11611">
<rect width="422" height="310" fill="white" transform="translate(0.578125)"/>
</clipPath>
</defs>
</svg>
