<svg width="422" height="310" viewBox="0 0 422 310" fill="none" xmlns="http://www.w3.org/2000/svg">
<path fill-rule="evenodd" clip-rule="evenodd" d="M183.171 251.162C159.76 257.728 119.402 260.433 67.9664 260.899C20.2337 261.667 1.18454 266.879 2.03186 275.508C7.77485 288.822 86.7959 294.461 222.243 292.667C334.058 291.301 386.059 282.469 400.903 268.354C423.404 244.091 254.975 231.342 183.171 251.162Z" fill="url(#paint0_linear_137_4977)"/>
<path opacity="0.1" d="M91.8996 67.9453H280.832V263.576H91.8996V67.9453Z" fill="#72D8ED"/>
<g clip-path="url(#clip0_137_4977)">
<path d="M306.811 36.1226V189.417H115.065V36.1239C115.073 33.8848 115.965 31.7395 117.548 30.1563C119.131 28.573 121.277 27.6804 123.515 27.6733H298.358C300.597 27.6801 302.743 28.5725 304.326 30.1559C305.909 31.7392 306.802 33.8847 306.808 36.1239L306.811 36.1226Z" fill="white"/>
<path d="M306.811 36.1226V44.5731H115.065V36.1226C115.073 33.8835 115.965 31.7382 117.548 30.1549C119.131 28.5717 121.277 27.6791 123.515 27.672H298.358C300.597 27.6787 302.743 28.5712 304.326 30.1545C305.909 31.7379 306.802 33.8834 306.808 36.1226H306.811Z" fill="#2D4BAA"/>
<path d="M291.588 38.0729C292.665 38.0729 293.538 37.1997 293.538 36.1226C293.538 35.0454 292.665 34.1722 291.588 34.1722C290.511 34.1722 289.638 35.0454 289.638 36.1226C289.638 37.1997 290.511 38.0729 291.588 38.0729Z" fill="white"/>
<path d="M284.274 38.0729C285.351 38.0729 286.224 37.1997 286.224 36.1226C286.224 35.0454 285.351 34.1722 284.274 34.1722C283.197 34.1722 282.324 35.0454 282.324 36.1226C282.324 37.1997 283.197 38.0729 284.274 38.0729Z" fill="white"/>
<path d="M276.959 38.0729C278.036 38.0729 278.909 37.1997 278.909 36.1226C278.909 35.0454 278.036 34.1722 276.959 34.1722C275.881 34.1722 275.008 35.0454 275.008 36.1226C275.008 37.1997 275.881 38.0729 276.959 38.0729Z" fill="white"/>
<path d="M160.187 36.1226C160.186 36.6393 159.98 37.1343 159.614 37.4997C159.249 37.8651 158.754 38.0711 158.237 38.0729H126.055C125.537 38.0729 125.041 37.8674 124.676 37.5017C124.31 37.1359 124.104 36.6398 124.104 36.1226C124.104 35.6053 124.31 35.1092 124.676 34.7435C125.041 34.3777 125.537 34.1722 126.055 34.1722H158.237C158.754 34.1737 159.249 34.3796 159.615 34.745C159.98 35.1105 160.186 35.6057 160.187 36.1226Z" fill="white"/>
<path fill-rule="evenodd" clip-rule="evenodd" d="M115.736 188.745H138.793C138.971 188.745 139.141 188.816 139.267 188.941C139.393 189.067 139.463 189.238 139.463 189.416C139.463 189.594 139.393 189.764 139.267 189.89C139.141 190.016 138.971 190.086 138.793 190.086H115.066C114.888 190.086 114.717 190.016 114.591 189.89C114.466 189.764 114.395 189.594 114.395 189.416V127.301C114.395 127.124 114.466 126.953 114.591 126.827C114.717 126.701 114.888 126.631 115.066 126.631C115.244 126.631 115.414 126.701 115.54 126.827C115.666 126.953 115.736 127.124 115.736 127.301V188.745Z" fill="#2D2E85"/>
<path fill-rule="evenodd" clip-rule="evenodd" d="M115.737 76.9763V36.1226C115.743 34.0612 116.565 32.086 118.022 30.6284C119.48 29.1708 121.455 28.3491 123.516 28.3427H244.524C244.702 28.3427 244.873 28.272 244.998 28.1463C245.124 28.0205 245.195 27.8499 245.195 27.672C245.195 27.4941 245.124 27.3236 244.998 27.1978C244.873 27.072 244.702 27.0013 244.524 27.0013H123.524C121.107 27.0088 118.792 27.9721 117.083 29.6811C115.374 31.3901 114.411 33.7058 114.403 36.1226V76.9763C114.403 77.1542 114.474 77.3248 114.6 77.4506C114.726 77.5764 114.896 77.647 115.074 77.647C115.252 77.647 115.422 77.5764 115.548 77.4506C115.674 77.3248 115.745 77.1542 115.745 76.9763H115.737Z" fill="#2D2E85"/>
<path fill-rule="evenodd" clip-rule="evenodd" d="M267.298 28.3414H298.36C300.421 28.3477 302.396 29.1694 303.854 30.6271C305.311 32.0847 306.133 34.0598 306.14 36.1212V100.958C306.14 101.136 306.21 101.307 306.336 101.433C306.462 101.558 306.632 101.629 306.81 101.629C306.988 101.629 307.159 101.558 307.284 101.433C307.41 101.307 307.481 101.136 307.481 100.958V36.1226C307.473 33.7058 306.51 31.3901 304.801 29.6811C303.092 27.9721 300.777 27.0088 298.36 27.0013H267.298C267.12 27.0013 266.949 27.072 266.823 27.1978C266.698 27.3236 266.627 27.4941 266.627 27.672C266.627 27.8499 266.698 28.0205 266.823 28.1463C266.949 28.272 267.12 28.3427 267.298 28.3427V28.3414Z" fill="#2D2E85"/>
<path fill-rule="evenodd" clip-rule="evenodd" d="M306.141 188.745V124.435C306.141 124.257 306.212 124.086 306.337 123.961C306.463 123.835 306.634 123.764 306.812 123.764C306.989 123.764 307.16 123.835 307.286 123.961C307.411 124.086 307.482 124.257 307.482 124.435V189.416C307.482 189.594 307.411 189.764 307.286 189.89C307.16 190.016 306.989 190.086 306.812 190.086H150.461C150.283 190.086 150.112 190.016 149.986 189.89C149.861 189.764 149.79 189.594 149.79 189.416C149.79 189.238 149.861 189.067 149.986 188.941C150.112 188.816 150.283 188.745 150.461 188.745H306.141Z" fill="#2D2E85"/>
<path d="M178.248 141.234L207.992 111.488H248.332C248.558 111.488 248.782 111.534 248.991 111.622C249.2 111.71 249.388 111.84 249.546 112.002C249.704 112.165 249.827 112.358 249.909 112.569C249.991 112.78 250.03 113.005 250.023 113.232C249.102 135.651 230.635 153.548 207.992 153.548C202.467 153.556 196.996 152.472 191.891 150.359C186.787 148.246 182.15 145.145 178.248 141.234Z" fill="#2D4BAA"/>
<path d="M165.932 111.491C165.932 88.8407 183.824 70.3782 206.247 69.4607C206.473 69.453 206.698 69.4909 206.909 69.5721C207.121 69.6534 207.313 69.7763 207.476 69.9337C207.639 70.091 207.768 70.2795 207.857 70.488C207.945 70.6964 207.99 70.9204 207.99 71.1468C207.99 79.0514 207.99 111.491 207.99 111.491L178.247 141.235C174.337 137.333 171.236 132.696 169.122 127.591C167.008 122.487 165.923 117.015 165.929 111.489L165.932 111.491Z" fill="#121F55"/>
<path d="M215.609 105.571C215.16 105.571 214.73 105.393 214.413 105.076C214.096 104.759 213.917 104.329 213.917 103.88V65.2247C213.917 64.9979 213.962 64.7734 214.05 64.5644C214.138 64.3554 214.267 64.1664 214.43 64.0085C214.593 63.8506 214.786 63.7272 214.997 63.6455C215.209 63.5638 215.435 63.5257 215.661 63.5332C237.5 64.4306 255.046 81.9742 255.94 103.82C255.948 104.046 255.91 104.271 255.829 104.482C255.748 104.694 255.625 104.886 255.468 105.049C255.31 105.212 255.122 105.341 254.914 105.43C254.705 105.518 254.481 105.563 254.255 105.563C247.436 105.563 222.368 105.563 215.605 105.563L215.609 105.571Z" fill="#72D8ED"/>
<path d="M150.507 100.474C150.501 102.611 149.649 104.659 148.138 106.17C146.628 107.68 144.58 108.532 142.444 108.538H48.7355C46.5986 108.532 44.5509 107.681 43.0397 106.17C41.5286 104.659 40.6768 102.611 40.6704 100.474V80.5417C40.6768 78.4049 41.5284 76.3574 43.0393 74.8464C44.5501 73.3355 46.5975 72.4838 48.7341 72.4774H142.442C144.579 72.4838 146.626 73.3355 148.137 74.8464C149.648 76.3574 150.5 78.4049 150.506 80.5417L150.507 100.474Z" fill="white"/>
<path fill-rule="evenodd" clip-rule="evenodd" d="M75.6189 73.1468H142.444C144.403 73.1524 146.28 73.9332 147.665 75.3186C149.05 76.7039 149.831 78.5812 149.837 80.5403V87.113C149.837 87.2909 149.908 87.4615 150.033 87.5872C150.159 87.713 150.33 87.7837 150.508 87.7837C150.685 87.7837 150.856 87.713 150.982 87.5872C151.107 87.4615 151.178 87.2909 151.178 87.113V80.5403C151.171 78.2258 150.249 76.0079 148.612 74.3712C146.976 72.7346 144.758 71.8121 142.444 71.8054H75.6189C75.441 71.8054 75.2704 71.8761 75.1447 72.0019C75.0189 72.1276 74.9482 72.2982 74.9482 72.4761C74.9482 72.654 75.0189 72.8246 75.1447 72.9503C75.2704 73.0761 75.441 73.1468 75.6189 73.1468Z" fill="#2D2E85"/>
<path fill-rule="evenodd" clip-rule="evenodd" d="M149.835 93.1666V100.474C149.83 102.433 149.049 104.311 147.664 105.696C146.279 107.081 144.401 107.862 142.442 107.868H48.7344C46.7753 107.862 44.8982 107.081 43.5129 105.696C42.1277 104.311 41.3469 102.433 41.3413 100.474V80.5403C41.3469 78.5812 42.1277 76.7039 43.5129 75.3186C44.8982 73.9332 46.7753 73.1524 48.7344 73.1468H64.898C65.0759 73.1468 65.2465 73.0761 65.3723 72.9503C65.498 72.8246 65.5687 72.654 65.5687 72.4761C65.5687 72.2982 65.498 72.1276 65.3723 72.0019C65.2465 71.8761 65.0759 71.8054 64.898 71.8054H48.7344C46.4199 71.8121 44.2022 72.7346 42.5657 74.3712C40.9291 76.0079 40.0067 78.2258 40 80.5403V100.474C40.0067 102.789 40.9291 105.007 42.5657 106.643C44.2022 108.28 46.4199 109.202 48.7344 109.209H142.442C144.757 109.202 146.975 108.28 148.611 106.643C150.248 105.007 151.17 102.789 151.177 100.474V93.1612C151.177 92.9833 151.106 92.8127 150.98 92.6869C150.855 92.5612 150.684 92.4905 150.506 92.4905C150.328 92.4905 150.158 92.5612 150.032 92.6869C149.906 92.8127 149.835 92.9833 149.835 93.1612V93.1666Z" fill="#2D2E85"/>
<path d="M69.7828 89.2069H58.9185V100.072C56.7698 100.072 54.6693 99.4346 52.8826 98.2408C51.096 97.0469 49.7035 95.35 48.8812 93.3647C48.0589 91.3794 47.8438 89.1948 48.263 87.0872C48.6822 84.9796 49.7169 83.0436 51.2363 81.5242C52.7557 80.0047 54.6915 78.9699 56.799 78.5506C58.9065 78.1314 61.0909 78.3466 63.0761 79.1689C65.0613 79.9913 66.7581 81.3839 67.9519 83.1706C69.1456 84.9573 69.7828 87.058 69.7828 89.2069Z" fill="#B2BFEB"/>
<path d="M72.3902 92.0116C72.3902 94.8932 71.2456 97.6567 69.2081 99.6943C67.1707 101.732 64.4073 102.877 61.5259 102.877V92.0116H72.3902Z" fill="#72D8ED"/>
<path d="M133.289 82.6154C133.289 83.7824 132.082 84.7374 130.607 84.7374H81.6679C80.1925 84.7374 78.9854 83.7824 78.9854 82.6154C78.9854 81.4484 80.1925 80.4934 81.6679 80.4934H130.602C132.08 80.488 133.289 81.4471 133.289 82.6154Z" fill="#2D4BAA"/>
<path fill-rule="evenodd" clip-rule="evenodd" d="M80.112 95.8774H134.988C135.165 95.8774 135.336 95.8068 135.462 95.681C135.588 95.5552 135.658 95.3846 135.658 95.2068C135.658 95.0289 135.588 94.8583 135.462 94.7325C135.336 94.6067 135.165 94.5361 134.988 94.5361H80.112C79.9342 94.5361 79.7636 94.6067 79.6378 94.7325C79.5121 94.8583 79.4414 95.0289 79.4414 95.2068C79.4414 95.3846 79.5121 95.5552 79.6378 95.681C79.7636 95.8068 79.9342 95.8774 80.112 95.8774Z" fill="#2D2E85"/>
<path fill-rule="evenodd" clip-rule="evenodd" d="M80.112 101.816H141.211C141.389 101.816 141.559 101.745 141.685 101.619C141.811 101.493 141.882 101.323 141.882 101.145C141.882 100.967 141.811 100.796 141.685 100.671C141.559 100.545 141.389 100.474 141.211 100.474H80.112C79.9342 100.474 79.7636 100.545 79.6378 100.671C79.5121 100.796 79.4414 100.967 79.4414 101.145C79.4414 101.323 79.5121 101.493 79.6378 101.619C79.7636 101.745 79.9342 101.816 80.112 101.816Z" fill="#2D2E85"/>
<path d="M282.662 212.647C282.655 214.784 281.804 216.831 280.293 218.342C278.782 219.853 276.735 220.705 274.598 220.711H207.3C205.163 220.705 203.116 219.853 201.605 218.342C200.094 216.831 199.242 214.784 199.236 212.647V182.281C199.242 180.144 200.094 178.097 201.605 176.586C203.116 175.075 205.163 174.223 207.3 174.217H274.598C276.735 174.223 278.782 175.075 280.293 176.586C281.804 178.097 282.655 180.144 282.662 182.281V212.647Z" fill="white"/>
<path fill-rule="evenodd" clip-rule="evenodd" d="M281.991 207.35V212.648C281.985 214.607 281.205 216.484 279.819 217.87C278.434 219.255 276.557 220.036 274.598 220.042H218.171C217.993 220.042 217.822 220.112 217.696 220.238C217.571 220.364 217.5 220.534 217.5 220.712C217.5 220.89 217.571 221.061 217.696 221.186C217.822 221.312 217.993 221.383 218.171 221.383H274.598C276.912 221.376 279.13 220.454 280.767 218.817C282.403 217.18 283.326 214.963 283.332 212.648V207.35C283.332 207.172 283.262 207.001 283.136 206.875C283.01 206.75 282.84 206.679 282.662 206.679C282.484 206.679 282.313 206.75 282.188 206.875C282.062 207.001 281.991 207.172 281.991 207.35Z" fill="#2D2E85"/>
<path fill-rule="evenodd" clip-rule="evenodd" d="M210.975 220.042H207.3C205.341 220.036 203.464 219.255 202.078 217.87C200.693 216.485 199.912 214.607 199.907 212.648V182.281C199.912 180.322 200.693 178.445 202.078 177.059C203.464 175.674 205.341 174.893 207.3 174.888H274.598C276.557 174.893 278.434 175.674 279.82 177.059C281.205 178.445 281.986 180.322 281.991 182.281V198.175C281.991 198.353 282.062 198.523 282.188 198.649C282.313 198.775 282.484 198.846 282.662 198.846C282.84 198.846 283.01 198.775 283.136 198.649C283.262 198.523 283.333 198.353 283.333 198.175V182.281C283.326 179.966 282.403 177.749 280.767 176.112C279.13 174.475 276.913 173.553 274.598 173.546H207.3C204.985 173.553 202.768 174.475 201.131 176.112C199.495 177.749 198.572 179.966 198.565 182.281V212.648C198.572 214.963 199.495 217.181 201.131 218.817C202.768 220.454 204.985 221.376 207.3 221.383H210.975C211.153 221.383 211.323 221.312 211.449 221.187C211.575 221.061 211.646 220.89 211.646 220.712C211.646 220.534 211.575 220.364 211.449 220.238C211.323 220.112 211.153 220.042 210.975 220.042Z" fill="#2D2E85"/>
<path d="M235.252 207.893L225.483 198.125H212.24C212.165 198.125 212.091 198.14 212.023 198.169C211.954 198.199 211.892 198.241 211.841 198.295C211.789 198.348 211.748 198.412 211.721 198.481C211.695 198.551 211.682 198.625 211.684 198.699C211.797 201.38 212.687 203.969 214.247 206.152C215.806 208.334 217.968 210.016 220.467 210.991C222.966 211.966 225.695 212.192 228.32 211.642C230.946 211.092 233.354 209.789 235.252 207.893Z" fill="#B2BFEB"/>
<path d="M239.293 198.125C239.291 194.562 237.914 191.137 235.447 188.566C232.981 185.995 229.617 184.476 226.057 184.327C225.983 184.324 225.909 184.337 225.839 184.363C225.77 184.39 225.707 184.43 225.653 184.482C225.6 184.534 225.557 184.596 225.528 184.664C225.499 184.733 225.484 184.806 225.484 184.881C225.484 187.475 225.484 198.125 225.484 198.125L235.25 207.892C236.534 206.61 237.552 205.088 238.246 203.412C238.94 201.736 239.296 199.939 239.294 198.125H239.293Z" fill="#2D4BAA"/>
<path d="M222.984 196.184C223.132 196.184 223.273 196.126 223.377 196.022C223.481 195.917 223.54 195.776 223.54 195.629V182.94C223.54 182.865 223.525 182.791 223.496 182.722C223.468 182.653 223.425 182.591 223.371 182.539C223.318 182.487 223.254 182.447 223.184 182.42C223.115 182.394 223.04 182.381 222.966 182.384C219.505 182.53 216.225 183.97 213.776 186.419C211.327 188.869 209.887 192.149 209.742 195.61C209.739 195.684 209.752 195.758 209.778 195.828C209.805 195.897 209.845 195.961 209.897 196.014C209.948 196.067 210.01 196.11 210.078 196.139C210.147 196.168 210.22 196.183 210.295 196.183H222.983L222.984 196.184Z" fill="#72D8ED"/>
<path d="M265.932 185.622C265.932 186.518 264.725 187.252 263.249 187.252H248.198C246.722 187.252 245.515 186.518 245.515 185.622C245.515 184.726 246.722 183.993 248.198 183.993H263.244C264.722 183.993 265.932 184.726 265.932 185.622Z" fill="#6D7BED"/>
<path fill-rule="evenodd" clip-rule="evenodd" d="M246.384 196.3H267.241C267.508 196.3 267.764 196.194 267.952 196.005C268.141 195.816 268.247 195.56 268.247 195.294C268.247 195.027 268.141 194.771 267.952 194.582C267.764 194.394 267.508 194.288 267.241 194.288H246.384C246.118 194.288 245.862 194.394 245.673 194.582C245.484 194.771 245.378 195.027 245.378 195.294C245.378 195.56 245.484 195.816 245.673 196.005C245.862 196.194 246.118 196.3 246.384 196.3Z" fill="#6D7BED"/>
<path fill-rule="evenodd" clip-rule="evenodd" d="M246.384 200.862H272.016C272.283 200.862 272.539 200.756 272.727 200.567C272.916 200.378 273.022 200.122 273.022 199.856C273.022 199.589 272.916 199.333 272.727 199.144C272.539 198.955 272.283 198.849 272.016 198.849H246.384C246.118 198.849 245.862 198.955 245.673 199.144C245.484 199.333 245.378 199.589 245.378 199.856C245.378 200.122 245.484 200.378 245.673 200.567C245.862 200.756 246.118 200.862 246.384 200.862Z" fill="#6D7BED"/>
<path fill-rule="evenodd" clip-rule="evenodd" d="M246.384 205.425H275.49C275.757 205.425 276.013 205.319 276.201 205.13C276.39 204.942 276.496 204.686 276.496 204.419C276.496 204.152 276.39 203.896 276.201 203.707C276.013 203.519 275.757 203.413 275.49 203.413H246.384C246.118 203.413 245.862 203.519 245.673 203.707C245.484 203.896 245.378 204.152 245.378 204.419C245.378 204.686 245.484 204.942 245.673 205.13C245.862 205.319 246.118 205.425 246.384 205.425Z" fill="#6D7BED"/>
<path fill-rule="evenodd" clip-rule="evenodd" d="M246.384 209.987H266.369C266.636 209.987 266.892 209.881 267.081 209.692C267.269 209.503 267.375 209.248 267.375 208.981C267.375 208.714 267.269 208.458 267.081 208.269C266.892 208.081 266.636 207.975 266.369 207.975H246.384C246.118 207.975 245.862 208.081 245.673 208.269C245.484 208.458 245.378 208.714 245.378 208.981C245.378 209.248 245.484 209.503 245.673 209.692C245.862 209.881 246.118 209.987 246.384 209.987Z" fill="#6D7BED"/>
<path fill-rule="evenodd" clip-rule="evenodd" d="M68.3974 206.325L49.5083 201.127L54.9847 181.535C55.7191 178.91 57.1082 176.514 59.0216 174.573C60.935 172.632 63.3101 171.208 65.9241 170.435L79.5153 166.419L92.5927 166.922L102.116 168.709C104.197 169.1 106.18 169.898 107.952 171.056C109.725 172.215 111.251 173.712 112.444 175.462L123.768 192.073L108.511 201.965L104.152 195.594L68.384 206.325H68.3974Z" fill="white"/>
<path fill-rule="evenodd" clip-rule="evenodd" d="M50.3345 200.659L68.5758 205.678C68.6624 205.7 68.7438 205.739 68.8152 205.793C68.8866 205.846 68.9465 205.914 68.9915 205.991C69.0365 206.068 69.0657 206.153 69.0772 206.242C69.0888 206.33 69.0826 206.42 69.0589 206.507C69.0352 206.593 68.9946 206.673 68.9394 206.743C68.8842 206.814 68.8155 206.872 68.7374 206.915C68.6593 206.959 68.5733 206.986 68.4845 206.996C68.3958 207.005 68.3059 206.997 68.2204 206.971L49.3299 201.774C49.2447 201.75 49.165 201.71 49.0953 201.656C49.0256 201.602 48.9673 201.534 48.9238 201.457C48.8803 201.38 48.8525 201.296 48.8418 201.208C48.8312 201.12 48.8379 201.031 48.8618 200.946L54.3422 181.358C55.1077 178.623 56.5554 176.127 58.5496 174.105C60.5438 172.082 63.019 170.599 65.743 169.796L79.3342 165.78C79.4042 165.759 79.4771 165.75 79.5501 165.753L92.6275 166.256C92.6604 166.257 92.6931 166.261 92.7254 166.267L102.248 168.053C104.417 168.46 106.484 169.291 108.331 170.498C110.177 171.705 111.768 173.264 113.011 175.087L124.328 191.696C124.379 191.77 124.413 191.853 124.431 191.94C124.449 192.028 124.449 192.118 124.431 192.205C124.413 192.293 124.379 192.376 124.329 192.45C124.278 192.523 124.214 192.586 124.139 192.635L108.882 202.528C108.736 202.623 108.557 202.657 108.386 202.623C108.214 202.588 108.062 202.488 107.964 202.344L103.604 195.972C103.553 195.9 103.517 195.818 103.498 195.731C103.479 195.644 103.477 195.555 103.493 195.467C103.509 195.38 103.542 195.297 103.59 195.222C103.638 195.148 103.701 195.083 103.774 195.033C103.847 194.983 103.93 194.948 104.017 194.93C104.104 194.912 104.193 194.911 104.28 194.928C104.368 194.945 104.451 194.979 104.524 195.028C104.598 195.077 104.662 195.141 104.711 195.214L108.701 201.045L122.833 191.882L111.895 175.839C110.752 174.161 109.288 172.726 107.589 171.616C105.89 170.505 103.989 169.741 101.994 169.366L92.5149 167.589L79.597 167.093L66.1172 171.079C63.6122 171.82 61.3361 173.184 59.5025 175.044C57.6688 176.905 56.3377 179.201 55.6339 181.716L50.3345 200.659Z" fill="black"/>
<path fill-rule="evenodd" clip-rule="evenodd" d="M69.6258 190.396L103.828 189.726L106.846 230.805L63.0871 240.53L62.9194 210.517L66.506 207.073L69.6258 190.396Z" fill="white"/>
<path fill-rule="evenodd" clip-rule="evenodd" d="M106.137 230.291L103.161 189.774C103.154 189.686 103.165 189.597 103.193 189.513C103.221 189.43 103.265 189.352 103.322 189.285C103.38 189.218 103.45 189.164 103.529 189.124C103.608 189.084 103.694 189.061 103.782 189.054C103.87 189.048 103.959 189.059 104.043 189.087C104.126 189.114 104.204 189.158 104.271 189.216C104.338 189.274 104.392 189.344 104.432 189.423C104.472 189.502 104.495 189.588 104.502 189.676L107.52 230.755C107.531 230.913 107.487 231.069 107.395 231.197C107.302 231.325 107.167 231.417 107.014 231.455L62.8982 242.524C62.799 242.549 62.6953 242.551 62.5952 242.53C62.4951 242.508 62.4012 242.465 62.3206 242.401C62.2401 242.338 62.1751 242.257 62.1306 242.165C62.0861 242.073 62.0633 241.972 62.064 241.87L62.2531 210.515C62.2536 210.425 62.2722 210.337 62.3077 210.254C62.3431 210.172 62.3948 210.097 62.4596 210.035L65.8906 206.741L68.9756 190.276C69.0083 190.101 69.1091 189.946 69.2559 189.845C69.4027 189.745 69.5833 189.707 69.7582 189.74C69.933 189.772 70.0877 189.873 70.1882 190.02C70.2887 190.167 70.3268 190.347 70.294 190.522L67.1742 207.199C67.1486 207.337 67.0806 207.463 66.9797 207.56L63.5984 210.808L63.4173 241.014L106.146 230.295L106.137 230.291Z" fill="black"/>
<path fill-rule="evenodd" clip-rule="evenodd" d="M51.3349 200.808L49.4289 209.646C49.1758 210.82 49.1885 212.036 49.4662 213.204C49.7439 214.372 50.2796 215.464 51.0339 216.398C51.7882 217.333 52.7421 218.087 53.8255 218.604C54.909 219.122 56.0946 219.391 57.2955 219.391H106.176L105.888 217.379C105.82 216.9 105.656 216.44 105.407 216.025C105.157 215.611 104.828 215.25 104.437 214.965L97.704 210.044C97.4711 209.874 97.2019 209.76 96.9176 209.711C96.6332 209.662 96.3414 209.68 96.065 209.763L90.2479 211.507L51.3349 200.808Z" fill="white"/>
<path fill-rule="evenodd" clip-rule="evenodd" d="M90.2403 210.82L95.8736 209.13C96.2493 209.017 96.6459 208.993 97.0325 209.059C97.419 209.125 97.7849 209.28 98.1015 209.512L104.835 214.432C105.298 214.771 105.689 215.198 105.984 215.69C106.279 216.182 106.473 216.728 106.554 217.296L106.841 219.308C106.855 219.403 106.848 219.5 106.821 219.592C106.794 219.684 106.747 219.77 106.684 219.842C106.621 219.915 106.543 219.973 106.456 220.013C106.368 220.053 106.273 220.074 106.177 220.074H57.2959C55.995 220.074 54.7106 219.783 53.5369 219.222C52.3631 218.661 51.3297 217.844 50.5125 216.832C49.6953 215.82 49.115 214.637 48.8141 213.372C48.5132 212.106 48.4993 210.789 48.7735 209.517L50.6808 200.674C50.7 200.585 50.7371 200.5 50.79 200.426C50.8429 200.352 50.9104 200.289 50.9884 200.242C51.0663 200.194 51.1531 200.163 51.2435 200.151C51.3338 200.138 51.4257 200.144 51.5137 200.168L90.2403 210.82ZM51.841 201.65L50.0852 209.795C49.8531 210.871 49.8647 211.986 50.1192 213.057C50.3737 214.128 50.8646 215.128 51.5561 215.985C52.2475 216.841 53.1219 217.532 54.1151 218.007C55.1083 218.482 56.1951 218.728 57.2959 218.728H105.403L105.226 217.488C105.171 217.097 105.037 216.721 104.834 216.383C104.631 216.044 104.362 215.75 104.043 215.517L97.3101 210.596C97.1609 210.487 96.9883 210.414 96.8061 210.383C96.6239 210.351 96.4369 210.363 96.2599 210.416L90.4428 212.16C90.3219 212.195 90.1936 212.195 90.0726 212.16L51.8463 201.645L51.841 201.65Z" fill="black"/>
<path fill-rule="evenodd" clip-rule="evenodd" d="M110.56 182.421H157.76L146.728 220.758H99.5283L110.56 182.421Z" fill="#E2E8F0"/>
<path fill-rule="evenodd" clip-rule="evenodd" d="M110.56 181.751C110.415 181.751 110.273 181.798 110.157 181.886C110.04 181.974 109.956 182.097 109.915 182.237L98.8874 220.574C98.8587 220.674 98.8536 220.779 98.8726 220.881C98.8915 220.984 98.9339 221.08 98.9965 221.163C99.059 221.246 99.14 221.313 99.2331 221.36C99.3261 221.406 99.4286 221.43 99.5325 221.43H146.728C146.874 221.43 147.015 221.383 147.132 221.295C147.248 221.208 147.333 221.084 147.373 220.944L158.401 182.607C158.43 182.507 158.435 182.402 158.416 182.3C158.397 182.198 158.354 182.101 158.292 182.018C158.229 181.935 158.148 181.868 158.055 181.822C157.962 181.775 157.86 181.751 157.756 181.751H110.56ZM111.065 183.093L100.423 220.089H146.228L156.869 183.093H111.065Z" fill="#2D2E85"/>
<path fill-rule="evenodd" clip-rule="evenodd" d="M81.0471 218.188L79.9043 220.758H146.728L147.871 216.785H100.711L81.043 218.187L81.0471 218.188Z" fill="#E2E8F0"/>
<path fill-rule="evenodd" clip-rule="evenodd" d="M81.0056 217.519C80.8838 217.528 80.7668 217.57 80.6672 217.641C80.5677 217.712 80.4895 217.809 80.4409 217.921L79.2982 220.491C79.2537 220.593 79.2353 220.704 79.2445 220.815C79.2538 220.926 79.2905 221.033 79.3513 221.126C79.4121 221.219 79.4951 221.296 79.5928 221.349C79.6905 221.402 79.7999 221.43 79.9111 221.43H146.728C146.874 221.43 147.015 221.383 147.132 221.295C147.248 221.208 147.333 221.084 147.373 220.944L148.516 216.971C148.545 216.871 148.55 216.766 148.531 216.664C148.512 216.562 148.469 216.465 148.407 216.382C148.344 216.299 148.263 216.232 148.17 216.186C148.077 216.139 147.975 216.115 147.871 216.115H100.658L81.0056 217.519ZM100.745 217.455L81.5032 218.828L80.9439 220.087H146.234L146.991 217.455H100.74H100.745Z" fill="#2D2E85"/>
<path fill-rule="evenodd" clip-rule="evenodd" d="M100.073 216.594L98.8897 220.567C98.8614 220.653 98.8504 220.743 98.8576 220.832C98.8648 220.922 98.8898 221.009 98.9314 221.089C98.9729 221.169 99.03 221.239 99.0993 221.296C99.1686 221.354 99.2487 221.396 99.3349 221.422C99.421 221.447 99.5114 221.456 99.6007 221.446C99.69 221.436 99.7764 221.408 99.8547 221.364C99.9331 221.32 100.002 221.26 100.057 221.189C100.112 221.118 100.152 221.037 100.175 220.95L101.358 216.977C101.402 216.808 101.379 216.629 101.294 216.477C101.208 216.325 101.067 216.213 100.9 216.163C100.733 216.113 100.554 216.131 100.399 216.211C100.245 216.292 100.128 216.429 100.073 216.594Z" fill="#2D2E85"/>
<path fill-rule="evenodd" clip-rule="evenodd" d="M79.0152 153.167L78.2963 167.314C78.2599 168.04 78.3716 168.767 78.6244 169.448C78.8773 170.13 79.2661 170.753 79.7673 171.28C80.2684 171.807 80.8714 172.227 81.5397 172.513C82.2079 172.8 82.9275 172.948 83.6546 172.948H88.2633C89.0661 172.948 89.8588 172.768 90.5828 172.421C91.3068 172.074 91.9436 171.568 92.4464 170.942C92.9492 170.316 93.3051 169.585 93.4878 168.804C93.6706 168.022 93.6755 167.209 93.5023 166.425L91.7586 158.528L79.0165 153.163L79.0152 153.167Z" fill="white"/>
<path fill-rule="evenodd" clip-rule="evenodd" d="M79.2764 152.55C79.1771 152.508 79.0693 152.491 78.9621 152.5C78.8548 152.508 78.7512 152.543 78.66 152.6C78.5689 152.657 78.4928 152.736 78.4383 152.828C78.3838 152.921 78.3524 153.026 78.3469 153.133C78.3469 153.133 77.9244 161.432 77.6279 167.281C77.5863 168.098 77.7113 168.915 77.9954 169.683C78.2795 170.451 78.7168 171.153 79.2806 171.746C79.8444 172.339 80.523 172.812 81.2751 173.134C82.0272 173.457 82.8372 173.624 83.6556 173.624H88.2642C89.1675 173.624 90.0592 173.421 90.8736 173.031C91.6881 172.64 92.4045 172.072 92.9701 171.368C93.5357 170.663 93.936 169.841 94.1416 168.961C94.3471 168.082 94.3527 167.167 94.1578 166.285L92.4141 158.389C92.391 158.284 92.3432 158.186 92.2746 158.104C92.2059 158.022 92.1186 157.957 92.0198 157.915L79.2777 152.55H79.2764ZM79.6372 154.159L78.9665 167.352C78.9341 167.988 79.0316 168.624 79.2529 169.222C79.4743 169.819 79.815 170.365 80.2542 170.827C80.6933 171.288 81.2219 171.656 81.8076 171.906C82.3933 172.157 83.0239 172.286 83.661 172.285H88.2696C88.9721 172.285 89.6657 172.128 90.2992 171.824C90.9328 171.52 91.49 171.078 91.93 170.531C92.37 169.983 92.6814 169.343 92.8413 168.659C93.0013 167.975 93.0056 167.264 92.8541 166.578L91.1842 159.021L79.6492 154.161L79.6372 154.159Z" fill="black"/>
<path fill-rule="evenodd" clip-rule="evenodd" d="M98.4635 140.592L99.0604 154.428C99.1107 155.594 98.9068 156.757 98.4628 157.837C98.0188 158.916 97.3452 159.886 96.4889 160.68C95.6325 161.473 94.6139 162.07 93.5036 162.43C92.3933 162.791 91.218 162.905 90.0591 162.766L86.8253 162.377C85.2161 162.183 83.7028 161.508 82.4837 160.44C81.2646 159.371 80.3964 157.96 79.9928 156.39C78.6609 151.208 79.0164 149.817 78.8487 147.135C78.8487 147.135 77.6751 136.739 83.5432 137.41C89.4113 138.081 91.2555 137.745 98.4648 140.596L98.4635 140.592Z" fill="white"/>
<path fill-rule="evenodd" clip-rule="evenodd" d="M78.8994 158.748C75.5462 156.569 69.1751 150.369 70.8517 138.628C72.1192 129.757 78.3964 130.244 78.3964 130.244C78.3964 130.244 80.576 126.22 86.444 127.059C90.9132 127.697 96.5036 132.927 100.695 133.43C104.887 133.933 107.066 133.933 103.378 137.789C99.6891 141.646 97.5095 142.484 90.1325 142.149C82.7555 141.814 77.7258 143.826 77.5581 148.688C77.3904 153.55 80.4083 151.371 78.8994 158.748Z" fill="black"/>
<path fill-rule="evenodd" clip-rule="evenodd" d="M97.794 140.621L98.3909 154.457C98.4375 155.527 98.2508 156.593 97.844 157.583C97.4371 158.573 96.8197 159.463 96.0346 160.19C95.2495 160.917 94.3156 161.465 93.2976 161.796C92.2796 162.126 91.2019 162.231 90.1394 162.103L86.9056 161.714C86.8181 161.703 86.7294 161.71 86.6446 161.734C86.5597 161.758 86.4804 161.798 86.4111 161.852C86.3418 161.906 86.2839 161.974 86.2406 162.051C86.1974 162.127 86.1697 162.212 86.1591 162.299C86.1486 162.387 86.1553 162.476 86.179 162.56C86.2027 162.645 86.2429 162.725 86.2973 162.794C86.3516 162.863 86.4191 162.921 86.4959 162.964C86.5726 163.008 86.6572 163.035 86.7446 163.046L89.9784 163.435C91.234 163.586 92.5074 163.462 93.7103 163.072C94.9132 162.682 96.0169 162.035 96.9447 161.175C97.8725 160.316 98.6023 159.265 99.0834 158.096C99.5645 156.926 99.7854 155.666 99.7308 154.402L99.1339 140.566C99.1302 140.478 99.1091 140.392 99.0719 140.312C99.0347 140.232 98.9821 140.16 98.9171 140.1C98.8522 140.041 98.7761 139.994 98.6933 139.964C98.6105 139.934 98.5225 139.92 98.4345 139.924C98.3464 139.928 98.2599 139.949 98.18 139.986C98.1001 140.024 98.0283 140.076 97.9687 140.141C97.9091 140.206 97.8629 140.282 97.8327 140.365C97.8025 140.448 97.7889 140.536 97.7927 140.624L97.794 140.621Z" fill="black"/>
<path fill-rule="evenodd" clip-rule="evenodd" d="M80.131 146.719C78.04 145.304 75.3574 145.611 74.1422 147.404C72.9271 149.198 73.6379 151.804 75.729 153.22C77.82 154.637 80.5026 154.328 81.7178 152.535C82.933 150.742 82.2207 148.134 80.131 146.719Z" fill="white"/>
<path fill-rule="evenodd" clip-rule="evenodd" d="M79.0487 145.442C76.9496 144.747 74.7231 145.351 73.587 147.027C72.1814 149.104 72.9338 152.137 75.3521 153.774C76.5208 154.585 77.9541 154.921 79.3612 154.713C79.4481 154.699 79.5314 154.668 79.6063 154.622C79.6812 154.575 79.7462 154.515 79.7976 154.443C79.8491 154.372 79.8859 154.291 79.9061 154.205C79.9262 154.119 79.9293 154.03 79.9151 153.943C79.901 153.857 79.8698 153.773 79.8234 153.698C79.7771 153.624 79.7164 153.558 79.6449 153.507C79.5734 153.456 79.4925 153.419 79.4068 153.399C79.321 153.378 79.2322 153.375 79.1453 153.39C78.0763 153.542 76.9894 153.283 76.1046 152.664C74.3422 151.47 73.6729 149.292 74.6976 147.779C75.5104 146.571 77.124 146.216 78.6262 146.714C78.7934 146.764 78.9736 146.747 79.1284 146.666C79.2833 146.585 79.4006 146.448 79.4554 146.282C79.5102 146.116 79.4983 145.935 79.4221 145.778C79.3459 145.621 79.2115 145.5 79.0473 145.441L79.0487 145.442Z" fill="black"/>
<path fill-rule="evenodd" clip-rule="evenodd" d="M79.9058 231.042L120.144 220.758H139.743C140.519 220.758 141.279 220.986 141.928 221.414C143.159 222.226 144.193 223.302 144.955 224.564C145.718 225.826 146.189 227.242 146.334 228.71C146.48 230.177 146.296 231.658 145.797 233.046C145.297 234.433 144.495 235.692 143.447 236.729L126.625 253.397L79.9058 231.042Z" fill="#2D4BAA"/>
<path fill-rule="evenodd" clip-rule="evenodd" d="M128.332 231.123L113.578 238.974C113.501 239.015 113.432 239.071 113.376 239.139C113.32 239.207 113.278 239.286 113.252 239.37C113.226 239.454 113.217 239.543 113.226 239.63C113.234 239.718 113.26 239.803 113.301 239.881C113.343 239.959 113.399 240.028 113.467 240.084C113.535 240.14 113.613 240.182 113.698 240.207C113.782 240.233 113.87 240.242 113.958 240.234C114.046 240.225 114.131 240.199 114.209 240.158L128.963 232.307C129.12 232.223 129.237 232.081 129.289 231.911C129.341 231.741 129.323 231.557 129.24 231.4C129.156 231.243 129.014 231.125 128.843 231.073C128.673 231.021 128.489 231.039 128.332 231.123Z" fill="white"/>
<path fill-rule="evenodd" clip-rule="evenodd" d="M125.596 258.584L128.949 260.328H155.104L155.044 259.157C155.021 258.732 154.896 258.318 154.678 257.953C154.46 257.587 154.156 257.28 153.792 257.058L142.229 249.998L132.215 244.23L125.598 258.583L125.596 258.584Z" fill="white"/>
<path fill-rule="evenodd" clip-rule="evenodd" d="M124.987 258.304C124.915 258.46 124.906 258.639 124.961 258.802C125.017 258.965 125.133 259.1 125.286 259.18L128.639 260.924C128.735 260.973 128.841 260.999 128.949 260.999H155.104C155.195 260.999 155.285 260.98 155.369 260.945C155.453 260.909 155.528 260.856 155.591 260.79C155.654 260.724 155.702 260.646 155.734 260.561C155.766 260.475 155.779 260.384 155.775 260.293L155.713 259.125C155.685 258.591 155.527 258.071 155.253 257.612C154.979 257.152 154.598 256.766 154.141 256.488L142.578 249.428L142.563 249.419L132.549 243.651C132.469 243.605 132.379 243.577 132.287 243.567C132.195 243.558 132.102 243.567 132.014 243.595C131.926 243.624 131.844 243.67 131.775 243.731C131.705 243.792 131.649 243.867 131.61 243.951L124.992 258.304H124.987ZM141.887 250.576L132.51 245.179L126.468 258.284L129.109 259.657H154.393L154.369 259.195C154.352 258.878 154.259 258.57 154.096 258.298C153.934 258.026 153.707 257.797 153.437 257.632L141.887 250.576Z" fill="black"/>
<path fill-rule="evenodd" clip-rule="evenodd" d="M141.651 250.215L139.143 252.938C139.024 253.069 138.962 253.242 138.97 253.419C138.978 253.595 139.055 253.762 139.185 253.881C139.315 254.001 139.487 254.065 139.664 254.059C139.84 254.052 140.007 253.977 140.128 253.848L142.637 251.125C142.696 251.06 142.743 250.984 142.773 250.901C142.803 250.819 142.817 250.731 142.814 250.643C142.81 250.555 142.789 250.468 142.752 250.388C142.715 250.308 142.663 250.236 142.598 250.177C142.533 250.117 142.457 250.07 142.374 250.04C142.292 250.01 142.204 249.996 142.116 250C142.027 250.003 141.941 250.024 141.861 250.061C141.781 250.098 141.709 250.151 141.649 250.215H141.651Z" fill="#2D2E85"/>
<path fill-rule="evenodd" clip-rule="evenodd" d="M145.674 252.604L143.165 255.327C143.105 255.392 143.057 255.468 143.026 255.551C142.995 255.634 142.981 255.722 142.984 255.811C142.987 255.899 143.008 255.986 143.045 256.067C143.082 256.147 143.134 256.22 143.199 256.28C143.264 256.34 143.341 256.386 143.424 256.417C143.507 256.447 143.596 256.461 143.684 256.457C143.773 256.453 143.86 256.431 143.94 256.394C144.02 256.356 144.092 256.303 144.151 256.237L146.659 253.514C146.72 253.449 146.767 253.373 146.799 253.29C146.83 253.207 146.844 253.119 146.841 253.031C146.838 252.942 146.817 252.855 146.78 252.774C146.743 252.694 146.691 252.622 146.626 252.562C146.56 252.501 146.484 252.455 146.401 252.424C146.318 252.394 146.229 252.38 146.141 252.384C146.052 252.388 145.965 252.41 145.885 252.448C145.805 252.485 145.733 252.539 145.674 252.604Z" fill="#2D2E85"/>
<path fill-rule="evenodd" clip-rule="evenodd" d="M93.5407 260.328H78.827C76.2896 260.328 73.7881 259.728 71.5268 258.577C69.2654 257.426 67.3082 255.756 65.8149 253.705C64.3216 251.653 63.3345 249.277 62.9341 246.772C62.5337 244.266 62.7314 241.701 63.511 239.286L67.2008 227.858C67.8095 225.973 68.8373 224.25 70.2072 222.819C71.5771 221.388 73.2534 220.286 75.1102 219.596C76.967 218.906 78.956 218.646 80.9278 218.835C82.8996 219.023 84.803 219.657 86.495 220.687C86.5728 220.734 86.6519 220.779 86.7324 220.821L132.215 244.233L125.597 258.764L106.507 251.387L93.5407 260.329V260.328Z" fill="#2D4BAA"/>
<path fill-rule="evenodd" clip-rule="evenodd" d="M79.7299 244.88L113.715 254.045C113.801 254.071 113.892 254.08 113.981 254.071C114.071 254.062 114.157 254.034 114.236 253.991C114.315 253.947 114.384 253.888 114.44 253.817C114.495 253.746 114.536 253.665 114.559 253.578C114.583 253.491 114.588 253.401 114.576 253.312C114.563 253.222 114.533 253.137 114.487 253.059C114.441 252.982 114.38 252.915 114.307 252.862C114.234 252.809 114.151 252.771 114.064 252.751L80.0786 243.585C79.9926 243.559 79.9021 243.55 79.8126 243.559C79.7231 243.569 79.6363 243.596 79.5576 243.639C79.4788 243.683 79.4096 243.742 79.3541 243.813C79.2986 243.884 79.2579 243.965 79.2345 244.052C79.2111 244.139 79.2054 244.23 79.2178 244.319C79.2302 244.408 79.2604 244.494 79.3066 244.571C79.3529 244.648 79.4142 244.715 79.4869 244.768C79.5596 244.821 79.6422 244.859 79.7299 244.88Z" fill="white"/>
<path fill-rule="evenodd" clip-rule="evenodd" d="M93.0498 253.715C93.0496 252.712 93.2768 251.722 93.7144 250.82C94.152 249.918 94.7885 249.126 95.5761 248.505C96.3637 247.885 97.2819 247.45 98.2614 247.236C99.241 247.021 100.257 247.031 101.232 247.266L119.261 251.588C120.202 251.813 121.039 252.349 121.638 253.109C122.238 253.868 122.563 254.808 122.563 255.775C122.563 256.983 122.084 258.141 121.23 258.995C120.376 259.848 119.218 260.328 118.011 260.328H99.6609C97.9075 260.328 96.226 259.631 94.9862 258.392C93.7463 257.152 93.0498 255.47 93.0498 253.716V253.715Z" fill="white"/>
<path fill-rule="evenodd" clip-rule="evenodd" d="M92.3779 253.715C92.3779 255.646 93.1451 257.499 94.5107 258.864C95.8763 260.23 97.7284 260.997 99.6597 260.997H118.004C119.389 260.997 120.718 260.447 121.697 259.467C122.677 258.488 123.227 257.159 123.227 255.774C123.227 254.656 122.851 253.57 122.159 252.692C121.466 251.814 120.499 251.195 119.411 250.934L101.382 246.613C100.309 246.355 99.191 246.345 98.1131 246.581C97.0351 246.818 96.0249 247.296 95.1583 247.98C94.2917 248.663 93.5912 249.534 93.1097 250.527C92.6281 251.521 92.3779 252.61 92.3779 253.714V253.715ZM93.7192 253.715C93.7191 252.814 93.9233 251.925 94.3163 251.114C94.7094 250.303 95.2812 249.592 95.9886 249.034C96.6961 248.476 97.5208 248.086 98.4008 247.892C99.2808 247.699 100.193 247.708 101.069 247.918L119.097 252.24C119.891 252.43 120.598 252.882 121.104 253.523C121.609 254.165 121.885 254.957 121.885 255.774C121.885 256.284 121.784 256.789 121.589 257.26C121.394 257.731 121.108 258.158 120.748 258.519C120.387 258.879 119.959 259.165 119.488 259.36C119.017 259.556 118.513 259.656 118.003 259.656H99.6597C98.0842 259.656 96.5732 259.03 95.4591 257.916C94.3451 256.802 93.7192 255.291 93.7192 253.715Z" fill="black"/>
<path fill-rule="evenodd" clip-rule="evenodd" d="M340.862 160.157L342.204 133.553H321.19L313.57 187.649L310.437 245.171H325.862L340.862 160.157Z" fill="#2D4BAA"/>
<path fill-rule="evenodd" clip-rule="evenodd" d="M363.853 137.65L339.968 133.553L336.51 155.634L349.534 245.171H365.853L363.854 137.65H363.853Z" fill="#2D4BAA"/>
<path fill-rule="evenodd" clip-rule="evenodd" d="M335.847 155.728L338.396 173.659C338.406 173.747 338.435 173.832 338.479 173.91C338.523 173.987 338.583 174.055 338.653 174.109C338.724 174.163 338.805 174.203 338.891 174.225C338.977 174.248 339.067 174.253 339.155 174.24C339.243 174.228 339.328 174.198 339.404 174.152C339.481 174.107 339.548 174.047 339.6 173.975C339.653 173.903 339.692 173.822 339.713 173.735C339.734 173.649 339.737 173.559 339.723 173.471L337.175 155.54C337.149 155.364 337.055 155.206 336.913 155.1C336.771 154.994 336.592 154.948 336.417 154.973C336.241 154.998 336.083 155.092 335.976 155.233C335.869 155.375 335.823 155.553 335.847 155.729V155.728Z" fill="#2D2E85"/>
<path fill-rule="evenodd" clip-rule="evenodd" d="M364.06 245.171V260.328H337.234L337.304 258.987C337.324 258.614 337.436 258.253 337.629 257.934C337.823 257.616 338.093 257.351 338.415 257.162L350.647 249.996L351.184 245.301L364.06 245.167V245.171Z" fill="white"/>
<path fill-rule="evenodd" clip-rule="evenodd" d="M350.019 249.59L350.518 245.228C350.537 245.066 350.614 244.916 350.736 244.806C350.857 244.697 351.015 244.636 351.178 244.634L364.054 244.5C364.143 244.499 364.231 244.516 364.313 244.549C364.395 244.582 364.47 244.632 364.533 244.694C364.596 244.756 364.646 244.831 364.68 244.912C364.714 244.994 364.732 245.082 364.732 245.171V260.328C364.732 260.506 364.661 260.676 364.535 260.802C364.409 260.928 364.239 260.999 364.061 260.999H337.236C337.144 260.999 337.054 260.98 336.971 260.944C336.887 260.909 336.811 260.856 336.749 260.79C336.686 260.724 336.637 260.646 336.606 260.56C336.574 260.475 336.56 260.384 336.565 260.293C336.565 260.293 336.601 259.613 336.635 258.952C336.66 258.468 336.805 257.999 337.057 257.585C337.308 257.172 337.659 256.827 338.076 256.583L350.019 249.59ZM337.948 259.657H363.396V245.848L351.79 245.969L351.32 250.075C351.308 250.178 351.273 250.277 351.216 250.365C351.159 250.452 351.083 250.525 350.993 250.578L338.761 257.744C338.535 257.877 338.345 258.063 338.209 258.287C338.073 258.51 337.995 258.764 337.981 259.025L337.948 259.656V259.657Z" fill="black"/>
<path fill-rule="evenodd" clip-rule="evenodd" d="M350.153 250.454L352.662 253.177C352.721 253.242 352.793 253.294 352.873 253.331C352.953 253.369 353.04 253.389 353.128 253.393C353.216 253.397 353.304 253.383 353.386 253.353C353.469 253.322 353.545 253.276 353.61 253.216C353.675 253.156 353.727 253.084 353.764 253.004C353.801 252.924 353.822 252.838 353.826 252.75C353.829 252.662 353.815 252.574 353.785 252.491C353.755 252.409 353.708 252.333 353.649 252.268L351.141 249.545C351.081 249.479 351.009 249.426 350.929 249.388C350.849 249.35 350.762 249.329 350.674 249.325C350.585 249.321 350.497 249.334 350.413 249.365C350.33 249.395 350.254 249.442 350.189 249.502C350.123 249.562 350.071 249.634 350.034 249.715C349.997 249.795 349.976 249.882 349.973 249.971C349.97 250.06 349.984 250.148 350.016 250.231C350.047 250.314 350.094 250.39 350.155 250.454H350.153Z" fill="#2D2E85"/>
<path fill-rule="evenodd" clip-rule="evenodd" d="M346.131 252.842L348.639 255.565C348.699 255.631 348.771 255.684 348.851 255.722C348.931 255.759 349.018 255.781 349.106 255.785C349.195 255.789 349.283 255.775 349.366 255.745C349.45 255.715 349.526 255.668 349.591 255.608C349.656 255.548 349.709 255.475 349.746 255.395C349.783 255.314 349.803 255.227 349.807 255.139C349.81 255.05 349.795 254.962 349.764 254.879C349.733 254.796 349.686 254.72 349.625 254.655L347.117 251.932C346.996 251.802 346.829 251.724 346.651 251.717C346.473 251.709 346.299 251.773 346.169 251.894C346.038 252.014 345.96 252.182 345.953 252.36C345.945 252.538 346.009 252.711 346.13 252.842H346.131Z" fill="#2D2E85"/>
<path fill-rule="evenodd" clip-rule="evenodd" d="M323.514 245.171V260.328H297.359L297.421 259.16C297.443 258.734 297.569 258.321 297.787 257.955C298.005 257.59 298.309 257.282 298.672 257.06L310.236 250.001L311.711 245.306L323.514 245.172V245.171Z" fill="white"/>
<path fill-rule="evenodd" clip-rule="evenodd" d="M309.673 249.558L311.073 245.104C311.115 244.969 311.199 244.851 311.313 244.766C311.426 244.682 311.563 244.636 311.705 244.634L323.508 244.5C323.597 244.499 323.685 244.515 323.767 244.549C323.849 244.582 323.924 244.631 323.987 244.693C324.05 244.756 324.1 244.83 324.135 244.912C324.169 244.994 324.186 245.082 324.186 245.171V260.328C324.186 260.506 324.116 260.676 323.99 260.802C323.864 260.928 323.694 260.999 323.516 260.999H297.361C297.27 260.999 297.18 260.98 297.096 260.944C297.012 260.909 296.937 260.856 296.874 260.79C296.811 260.724 296.763 260.646 296.731 260.56C296.699 260.475 296.686 260.384 296.69 260.293L296.752 259.125C296.78 258.591 296.938 258.071 297.212 257.612C297.486 257.152 297.867 256.766 298.324 256.488L309.673 249.558ZM298.068 259.657H322.845V245.849L312.206 245.97L310.877 250.201C310.829 250.356 310.726 250.488 310.587 250.572L299.024 257.632C298.754 257.797 298.527 258.026 298.365 258.298C298.202 258.57 298.109 258.878 298.092 259.195L298.068 259.657Z" fill="black"/>
<path fill-rule="evenodd" clip-rule="evenodd" d="M309.827 251.125L312.335 253.848C312.394 253.914 312.466 253.967 312.546 254.005C312.626 254.042 312.713 254.064 312.802 254.068C312.89 254.072 312.979 254.058 313.062 254.028C313.145 253.997 313.222 253.951 313.287 253.891C313.352 253.831 313.404 253.758 313.441 253.678C313.478 253.597 313.499 253.51 313.502 253.422C313.505 253.333 313.491 253.245 313.46 253.162C313.429 253.079 313.381 253.003 313.321 252.938L310.812 250.215C310.753 250.15 310.681 250.096 310.601 250.059C310.521 250.021 310.434 249.999 310.345 249.995C310.257 249.991 310.168 250.005 310.085 250.035C310.002 250.066 309.926 250.112 309.86 250.172C309.795 250.233 309.743 250.305 309.706 250.385C309.669 250.466 309.648 250.553 309.645 250.642C309.642 250.73 309.656 250.818 309.687 250.901C309.719 250.984 309.766 251.06 309.827 251.125Z" fill="#2D2E85"/>
<path fill-rule="evenodd" clip-rule="evenodd" d="M305.803 253.513L308.311 256.236C308.432 256.364 308.599 256.44 308.776 256.446C308.952 256.453 309.124 256.389 309.254 256.269C309.384 256.149 309.461 255.983 309.469 255.806C309.477 255.63 309.415 255.457 309.297 255.326L306.789 252.603C306.729 252.537 306.657 252.484 306.577 252.446C306.497 252.409 306.41 252.387 306.321 252.383C306.233 252.379 306.145 252.393 306.061 252.423C305.978 252.453 305.902 252.5 305.837 252.56C305.771 252.62 305.719 252.693 305.682 252.773C305.645 252.854 305.624 252.941 305.621 253.029C305.618 253.118 305.632 253.206 305.664 253.289C305.695 253.372 305.742 253.448 305.803 253.513Z" fill="#2D2E85"/>
<path fill-rule="evenodd" clip-rule="evenodd" d="M289.757 82.0037C289.757 82.0037 291.446 98.3924 292.892 111.527C293.057 113.025 293.639 114.447 294.572 115.63C295.505 116.813 296.751 117.711 298.17 118.221C299.588 118.73 301.12 118.831 302.593 118.513C304.066 118.194 305.42 117.468 306.5 116.418L320.395 102.914L306.473 94.6983L302.852 99.4172L298.63 80.0547L296.741 69.0247C296.618 68.6497 296.363 68.3316 296.025 68.1285C295.686 67.9253 295.286 67.8507 294.897 67.9181L291.135 68.5687L281.746 64.2562C281.539 64.1613 281.31 64.1258 281.084 64.1539C280.858 64.1819 280.645 64.2723 280.467 64.4149C280.29 64.5576 280.156 64.7468 280.08 64.9614C280.004 65.1759 279.99 65.4074 280.038 65.6298C280.549 68.3406 281.504 72.6705 282.75 74.3768C283.375 75.2339 284.54 76.0132 285.796 76.6678C286.93 77.258 289.367 78.9749 289.765 82.0064L289.757 82.0037Z" fill="white"/>
<path fill-rule="evenodd" clip-rule="evenodd" d="M289.093 82.0842C288.73 79.3385 286.507 77.7919 285.481 77.2554C284.124 76.5485 282.879 75.6913 282.203 74.7658C280.918 73.0059 279.901 68.5459 279.374 65.7478V65.7666C279.3 65.4226 279.322 65.0646 279.44 64.7327C279.557 64.4008 279.764 64.1082 280.039 63.8876C280.313 63.667 280.643 63.5271 280.993 63.4838C281.342 63.4404 281.697 63.4951 282.016 63.6419L291.218 67.8672L294.775 67.2528C295.324 67.1577 295.888 67.2636 296.366 67.5511C296.843 67.8386 297.2 68.2885 297.373 68.8182C297.383 68.8498 297.391 68.882 297.397 68.9148L299.283 79.93L303.195 97.868L305.949 94.292C306.049 94.1623 306.192 94.0736 306.353 94.0424C306.513 94.0113 306.68 94.04 306.821 94.1229L320.736 102.339C320.825 102.391 320.901 102.463 320.957 102.55C321.013 102.636 321.049 102.734 321.061 102.837C321.073 102.939 321.062 103.043 321.027 103.14C320.993 103.237 320.936 103.325 320.862 103.397L306.968 116.902C305.798 118.04 304.331 118.826 302.736 119.171C301.14 119.516 299.48 119.406 297.944 118.854C296.407 118.302 295.057 117.33 294.046 116.048C293.036 114.766 292.405 113.226 292.226 111.604C290.803 98.6742 289.141 82.5899 289.093 82.0936V82.0842ZM296.085 69.1924C296.005 68.9818 295.854 68.8055 295.658 68.6935C295.463 68.5814 295.234 68.5407 295.012 68.5781L291.25 69.2287C291.116 69.2519 290.979 69.2342 290.855 69.1777L281.467 64.8652C281.373 64.8223 281.269 64.8062 281.167 64.8188C281.065 64.8315 280.968 64.8723 280.888 64.9368C280.808 65.0013 280.747 65.0869 280.713 65.1839C280.679 65.281 280.672 65.3857 280.694 65.4863V65.505C281.189 68.1301 282.084 72.3299 283.288 73.9798C283.863 74.7685 284.946 75.4687 286.105 76.0709C287.343 76.7161 289.994 78.6021 290.429 81.9166V81.9353C290.429 81.9353 292.118 98.3214 293.562 111.453C293.713 112.826 294.247 114.129 295.102 115.214C295.958 116.298 297.1 117.121 298.4 117.588C299.7 118.055 301.105 118.148 302.455 117.856C303.805 117.564 305.045 116.899 306.036 115.936L319.3 103.044L306.65 95.577L303.379 99.8264C303.301 99.9278 303.195 100.005 303.075 100.048C302.955 100.092 302.825 100.1 302.7 100.071C302.575 100.043 302.461 99.9799 302.371 99.8889C302.281 99.798 302.219 99.6832 302.192 99.5581L297.97 80.1983V80.1688L296.092 69.1938L296.085 69.1924Z" fill="black"/>
<path fill-rule="evenodd" clip-rule="evenodd" d="M359.186 110.237L378.069 105.035L372.589 85.451C371.854 82.8259 370.465 80.4303 368.552 78.4888C366.639 76.5474 364.264 75.1237 361.65 74.3513L348.053 70.3299L334.976 70.8329L325.453 72.6196C323.371 73.0106 321.388 73.8084 319.616 74.9673C317.844 76.1263 316.317 77.6235 315.125 79.3733L303.791 95.9834L319.048 105.876L323.407 99.5044L359.175 110.235L359.186 110.237Z" fill="white"/>
<path fill-rule="evenodd" clip-rule="evenodd" d="M318.869 104.958L322.86 99.1275C322.909 99.0537 322.972 98.9903 323.046 98.9412C323.12 98.892 323.203 98.8581 323.29 98.8412C323.377 98.8243 323.467 98.825 323.554 98.843C323.641 98.861 323.723 98.8962 323.797 98.9463C323.87 98.9965 323.932 99.0607 323.981 99.1352C324.029 99.2097 324.062 99.2931 324.078 99.3804C324.093 99.4678 324.092 99.5574 324.073 99.6441C324.053 99.7307 324.017 99.8128 323.966 99.8854L319.607 106.257C319.508 106.401 319.357 106.501 319.185 106.536C319.014 106.57 318.835 106.536 318.688 106.441L303.431 96.5481C303.357 96.4995 303.292 96.4364 303.242 96.3626C303.192 96.2888 303.157 96.2058 303.14 96.1183C303.122 96.0309 303.122 95.9408 303.14 95.8534C303.157 95.766 303.192 95.6829 303.242 95.6091L314.567 78.9978C315.81 77.1748 317.4 75.6151 319.247 74.408C321.094 73.201 323.161 72.3703 325.329 71.9637L334.852 70.177C334.884 70.171 334.917 70.1674 334.95 70.1662L348.027 69.6632C348.1 69.6604 348.173 69.6694 348.243 69.6901L361.834 73.7061C364.559 74.5099 367.034 75.9926 369.028 78.015C371.022 80.0375 372.47 82.5334 373.235 85.2686L378.716 104.86C378.74 104.946 378.746 105.035 378.736 105.122C378.725 105.21 378.697 105.295 378.654 105.372C378.61 105.449 378.552 105.516 378.482 105.57C378.413 105.625 378.333 105.665 378.248 105.688L359.358 110.886C359.273 110.911 359.183 110.92 359.094 110.91C359.006 110.9 358.92 110.873 358.841 110.83C358.763 110.787 358.695 110.728 358.639 110.658C358.584 110.588 358.544 110.507 358.52 110.421C358.496 110.335 358.49 110.245 358.502 110.156C358.513 110.068 358.542 109.982 358.587 109.905C358.632 109.828 358.692 109.761 358.764 109.707C358.835 109.653 358.916 109.615 359.003 109.593L377.244 104.573L371.945 85.6308C371.242 83.1146 369.912 80.818 368.079 78.9566C366.246 77.0951 363.971 75.7297 361.466 74.9884L347.98 71.0046L335.056 71.5009L325.577 73.2782C323.582 73.6524 321.681 74.4167 319.981 75.5273C318.282 76.6379 316.819 78.073 315.676 79.7503L304.738 95.7942L318.869 104.957V104.958Z" fill="black"/>
<path fill-rule="evenodd" clip-rule="evenodd" d="M357.95 94.304L323.748 93.6333L320.73 134.712L364.489 137.06L364.657 114.424L361.07 110.981L357.95 94.304Z" fill="white"/>
<path fill-rule="evenodd" clip-rule="evenodd" d="M361.691 110.648L365.122 113.943C365.188 114.006 365.24 114.082 365.276 114.166C365.311 114.25 365.329 114.34 365.329 114.431L365.161 137.067C365.161 137.158 365.143 137.248 365.107 137.332C365.071 137.416 365.018 137.491 364.952 137.554C364.886 137.617 364.807 137.665 364.722 137.697C364.636 137.728 364.545 137.742 364.454 137.737L320.691 135.384C320.602 135.38 320.515 135.357 320.434 135.318C320.354 135.279 320.282 135.225 320.223 135.158C320.165 135.091 320.12 135.013 320.091 134.928C320.063 134.844 320.051 134.754 320.058 134.666L323.076 93.5864C323.089 93.4085 323.172 93.2431 323.307 93.1265C323.442 93.0099 323.618 92.9517 323.795 92.9647C323.973 92.9777 324.139 93.0608 324.255 93.1957C324.372 93.3307 324.43 93.5064 324.417 93.6843L321.449 134.081L363.824 136.354L363.985 114.71L360.606 111.473C360.505 111.376 360.437 111.25 360.411 111.113L357.292 94.4355C357.259 94.2606 357.297 94.0799 357.398 93.9332C357.498 93.7864 357.653 93.6855 357.828 93.6528C358.002 93.6201 358.183 93.6581 358.33 93.7586C358.477 93.8591 358.577 94.0138 358.61 94.1887L361.695 110.654L361.691 110.648Z" fill="black"/>
<path fill-rule="evenodd" clip-rule="evenodd" d="M301.236 109.005L304.723 105.456H318.757L344.107 127.588H322.512L301.236 109.005Z" fill="#B2BFEB"/>
<path fill-rule="evenodd" clip-rule="evenodd" d="M300.757 108.534C300.693 108.6 300.643 108.677 300.61 108.763C300.577 108.848 300.562 108.939 300.565 109.03C300.569 109.122 300.591 109.211 300.631 109.294C300.67 109.376 300.726 109.45 300.795 109.51L322.078 128.089C322.2 128.195 322.357 128.254 322.519 128.254H344.114C344.25 128.254 344.384 128.212 344.496 128.135C344.608 128.057 344.694 127.947 344.742 127.819C344.79 127.691 344.798 127.551 344.765 127.419C344.731 127.286 344.658 127.167 344.555 127.077L319.205 104.945C319.083 104.838 318.926 104.78 318.764 104.78H304.73C304.641 104.78 304.553 104.798 304.471 104.832C304.389 104.866 304.315 104.917 304.252 104.98L300.765 108.529L300.757 108.534ZM305.01 106.12L302.214 108.962L322.771 126.907H342.326L318.513 106.116H305.01V106.12Z" fill="#2D2E85"/>
<path fill-rule="evenodd" clip-rule="evenodd" d="M318.196 105.456C317.827 105.456 317.466 105.558 317.151 105.749C316.836 105.941 316.58 106.215 316.41 106.543C316.241 106.87 316.164 107.238 316.189 107.606C316.215 107.973 316.34 108.327 316.553 108.628L316.928 109.165C317.114 109.428 317.361 109.642 317.646 109.79C317.932 109.938 318.25 110.015 318.572 110.015H300.892C300.57 110.015 300.253 109.938 299.967 109.79C299.681 109.642 299.435 109.428 299.249 109.165L298.874 108.628C298.661 108.327 298.535 107.973 298.51 107.606C298.485 107.238 298.561 106.87 298.731 106.543C298.9 106.215 299.157 105.941 299.472 105.749C299.786 105.558 300.148 105.456 300.517 105.456H318.196Z" fill="#E2E8F0"/>
<path fill-rule="evenodd" clip-rule="evenodd" d="M300.517 104.785H318.222V106.127H318.192C317.946 106.127 317.705 106.194 317.495 106.322C317.285 106.45 317.114 106.633 317.001 106.851C316.888 107.069 316.837 107.315 316.854 107.56C316.87 107.805 316.954 108.041 317.096 108.242L317.472 108.779C317.596 108.954 317.76 109.097 317.951 109.196C318.141 109.295 318.353 109.346 318.568 109.346C318.746 109.346 318.916 109.417 319.042 109.542C319.168 109.668 319.238 109.839 319.238 110.017C319.238 110.195 319.168 110.365 319.042 110.491C318.916 110.617 318.746 110.687 318.568 110.687H300.894C300.464 110.687 300.041 110.584 299.66 110.387C299.278 110.19 298.95 109.903 298.702 109.553L298.327 109.016C298.043 108.614 297.875 108.143 297.841 107.652C297.808 107.162 297.909 106.671 298.135 106.235C298.361 105.798 298.703 105.432 299.123 105.176C299.543 104.921 300.025 104.786 300.517 104.785ZM315.873 106.127H300.517C300.271 106.127 300.03 106.194 299.82 106.322C299.61 106.45 299.439 106.633 299.326 106.851C299.212 107.069 299.162 107.315 299.178 107.56C299.195 107.805 299.279 108.041 299.421 108.242L299.797 108.779C299.92 108.954 300.085 109.097 300.275 109.196C300.466 109.295 300.678 109.346 300.892 109.346H316.235L316.005 109.02C315.721 108.618 315.553 108.146 315.519 107.656C315.486 107.165 315.588 106.675 315.814 106.238C315.833 106.201 315.853 106.166 315.873 106.131V106.127Z" fill="#2D2E85"/>
<path fill-rule="evenodd" clip-rule="evenodd" d="M339.265 123.308L329.579 122.348C328.738 122.264 327.944 121.918 327.311 121.358L320.495 115.332C320.292 115.153 320.149 114.918 320.083 114.656C320.017 114.394 320.031 114.118 320.125 113.864C320.218 113.611 320.386 113.391 320.606 113.234C320.826 113.078 321.088 112.991 321.359 112.986L329.894 112.831L331.707 111.161C331.838 111.04 331.991 110.947 332.159 110.886C332.326 110.825 332.504 110.799 332.682 110.808C332.86 110.816 333.034 110.861 333.195 110.938C333.356 111.015 333.499 111.123 333.618 111.256L337.328 115.428L376.241 105.456C376.241 105.456 377.314 109.72 378.147 113.563C378.4 114.737 378.387 115.953 378.11 117.121C377.832 118.29 377.296 119.381 376.542 120.315C375.788 121.25 374.834 122.004 373.75 122.522C372.667 123.039 371.481 123.308 370.28 123.308H339.265Z" fill="white"/>
<path fill-rule="evenodd" clip-rule="evenodd" d="M337.559 114.677L376.076 104.807C376.162 104.785 376.251 104.78 376.338 104.793C376.425 104.805 376.509 104.835 376.585 104.88C376.661 104.925 376.727 104.985 376.78 105.056C376.833 105.126 376.871 105.207 376.893 105.292C376.893 105.292 377.973 109.569 378.804 113.422C379.078 114.694 379.065 116.011 378.764 117.277C378.463 118.543 377.882 119.725 377.065 120.737C376.248 121.749 375.215 122.566 374.041 123.127C372.867 123.688 371.583 123.979 370.282 123.979H339.265H339.199L329.514 123.018C328.532 122.921 327.606 122.517 326.867 121.864L320.051 115.838C319.747 115.57 319.532 115.216 319.432 114.823C319.333 114.43 319.355 114.016 319.495 113.635C319.635 113.255 319.887 112.925 320.217 112.69C320.548 112.455 320.941 112.326 321.347 112.318L329.628 112.167L331.253 110.67C331.45 110.489 331.681 110.349 331.932 110.258C332.183 110.167 332.45 110.127 332.717 110.141C332.983 110.154 333.245 110.22 333.486 110.336C333.727 110.451 333.942 110.614 334.12 110.813L337.557 114.681L337.559 114.677ZM375.756 106.273L337.496 116.077C337.376 116.108 337.25 116.106 337.132 116.07C337.013 116.034 336.907 115.966 336.825 115.873L333.115 111.701C333.056 111.635 332.984 111.581 332.904 111.542C332.824 111.504 332.737 111.482 332.648 111.477C332.559 111.473 332.47 111.486 332.386 111.516C332.303 111.546 332.226 111.593 332.16 111.653L330.348 113.323C330.228 113.434 330.071 113.497 329.907 113.5L321.371 113.657C321.236 113.659 321.104 113.703 320.994 113.781C320.884 113.859 320.8 113.969 320.753 114.096C320.706 114.223 320.699 114.361 320.732 114.492C320.766 114.623 320.838 114.741 320.939 114.831L327.755 120.856C328.283 121.323 328.944 121.611 329.645 121.681L339.302 122.639H370.286C371.387 122.639 372.473 122.392 373.467 121.918C374.46 121.443 375.334 120.752 376.026 119.895C376.717 119.039 377.208 118.038 377.463 116.967C377.717 115.896 377.729 114.782 377.496 113.705C376.862 110.78 376.085 107.61 375.754 106.273H375.756Z" fill="black"/>
<path fill-rule="evenodd" clip-rule="evenodd" d="M348.394 56.9163L349.113 71.0636C349.149 71.7899 349.037 72.516 348.784 73.1978C348.532 73.8796 348.143 74.5029 347.642 75.0298C347.141 75.5567 346.537 75.9762 345.869 76.2628C345.201 76.5495 344.481 76.6973 343.754 76.6973H339.146C338.343 76.6974 337.55 76.5172 336.826 76.1701C336.102 75.823 335.465 75.3178 334.962 74.6918C334.46 74.0658 334.104 73.335 333.921 72.5531C333.738 71.7712 333.733 70.9583 333.907 70.1743L335.65 62.2777L348.392 56.9123L348.394 56.9163Z" fill="white"/>
<path fill-rule="evenodd" clip-rule="evenodd" d="M349.064 56.8801C349.058 56.7726 349.027 56.6681 348.973 56.5752C348.918 56.4824 348.842 56.4041 348.751 56.3469C348.66 56.2897 348.556 56.2552 348.449 56.2465C348.342 56.2377 348.234 56.2549 348.135 56.2966L335.392 61.6621C335.294 61.7037 335.206 61.7684 335.138 61.8508C335.069 61.9332 335.021 62.0308 334.998 62.1356L333.254 70.0321C333.06 70.9141 333.065 71.8286 333.271 72.7082C333.476 73.5878 333.877 74.4101 334.442 75.1143C335.008 75.8186 335.724 76.3869 336.539 76.7775C337.353 77.168 338.245 77.3707 339.148 77.3707H343.761C344.579 77.3707 345.389 77.2042 346.141 76.8813C346.893 76.5585 347.572 76.086 348.136 75.4927C348.699 74.8993 349.137 74.1975 349.421 73.4299C349.705 72.6623 349.83 71.8449 349.788 71.0274L349.064 56.8801ZM347.774 57.9036L336.239 62.7633L334.569 70.3219C334.417 71.0079 334.422 71.7192 334.582 72.4033C334.742 73.0875 335.053 73.727 335.493 74.2747C335.933 74.8225 336.49 75.2645 337.124 75.5681C337.757 75.8718 338.451 76.0294 339.153 76.0293H343.761C344.398 76.0302 345.028 75.9013 345.614 75.6506C346.2 75.3999 346.728 75.0325 347.168 74.571C347.607 74.1094 347.947 73.5633 348.169 72.9658C348.39 72.3684 348.488 71.7321 348.455 71.0958L347.784 57.9036H347.774Z" fill="black"/>
<path fill-rule="evenodd" clip-rule="evenodd" d="M329.113 52.7219C323.915 50.0392 321.568 40.482 324.754 36.7932C327.939 33.1045 331.795 37.1286 335.651 34.4459C339.508 31.7631 342.693 30.0864 346.214 30.9248C349.735 31.7631 350.573 34.7812 352.753 37.9669C354.932 41.1527 359.627 47.3564 353.926 53.2249C348.226 59.0933 334.31 55.4046 329.113 52.7219Z" fill="black"/>
<path fill-rule="evenodd" clip-rule="evenodd" d="M328.945 44.3411L328.348 58.1772C328.298 59.3434 328.502 60.5066 328.946 61.5862C329.39 62.6657 330.063 63.6358 330.92 64.429C331.776 65.2222 332.795 65.8197 333.905 66.1799C335.015 66.5401 336.191 66.6545 337.35 66.5151L340.583 66.1261C342.193 65.9324 343.706 65.2572 344.925 64.1891C346.144 63.1209 347.012 61.7095 347.416 60.1396C348.748 54.9579 348.392 53.5669 348.56 50.8842C348.56 50.8842 348.895 44.1774 343.027 44.8481C337.159 45.5188 333.806 50.0459 328.944 44.3451L328.945 44.3411Z" fill="white"/>
<path fill-rule="evenodd" clip-rule="evenodd" d="M328.276 44.3129L327.679 58.149C327.624 59.4126 327.845 60.6728 328.326 61.8424C328.808 63.012 329.537 64.0629 330.465 64.9223C331.393 65.7816 332.497 66.4288 333.7 66.819C334.902 67.2092 336.176 67.3329 337.431 67.1817L340.665 66.7928C340.842 66.7714 341.003 66.6808 341.113 66.5408C341.222 66.4008 341.272 66.2229 341.251 66.0463C341.229 65.8697 341.139 65.7087 340.999 65.5989C340.859 65.4891 340.681 65.4394 340.504 65.4608L337.27 65.8498C336.208 65.9777 335.13 65.8728 334.112 65.5425C333.094 65.2122 332.16 64.6643 331.375 63.9368C330.59 63.2094 329.973 62.3199 329.566 61.3299C329.159 60.34 328.972 59.2733 329.019 58.204L329.616 44.3679C329.62 44.2798 329.606 44.1919 329.576 44.1091C329.546 44.0263 329.499 43.9502 329.44 43.8852C329.38 43.8203 329.308 43.7677 329.228 43.7305C329.149 43.6933 329.062 43.6722 328.974 43.6684C328.886 43.6646 328.798 43.6782 328.715 43.7084C328.632 43.7386 328.556 43.7849 328.491 43.8445C328.426 43.9041 328.374 43.9759 328.337 44.0558C328.299 44.1357 328.278 44.2222 328.275 44.3102L328.276 44.3129Z" fill="black"/>
<path fill-rule="evenodd" clip-rule="evenodd" d="M347.279 50.4684C349.37 49.0533 352.052 49.3604 353.268 51.1538C354.483 52.9472 353.772 55.5548 351.681 56.9699C349.59 58.3851 346.907 58.0779 345.692 56.2845C344.477 54.4911 345.188 51.8835 347.279 50.4684Z" fill="white"/>
<path fill-rule="evenodd" clip-rule="evenodd" d="M348.784 50.4657C350.286 49.9681 351.9 50.3316 352.713 51.5308C353.737 53.0438 353.068 55.2222 351.306 56.416C350.421 57.0348 349.334 57.2942 348.265 57.1417C348.089 57.1131 347.91 57.1553 347.765 57.2592C347.621 57.3631 347.524 57.5201 347.495 57.6957C347.466 57.8712 347.509 58.051 347.613 58.1954C347.716 58.3398 347.873 58.437 348.049 58.4656C349.456 58.673 350.889 58.3373 352.058 57.5267C354.472 55.8889 355.229 52.8547 353.823 50.7796C352.687 49.1016 350.461 48.4993 348.362 49.1941C348.276 49.2199 348.196 49.2626 348.127 49.3197C348.058 49.3769 348.001 49.4473 347.959 49.5269C347.918 49.6064 347.893 49.6934 347.886 49.7828C347.878 49.8722 347.889 49.9621 347.917 50.0473C347.946 50.1324 347.99 50.211 348.05 50.2785C348.109 50.3459 348.181 50.4009 348.261 50.44C348.342 50.4791 348.43 50.5017 348.519 50.5064C348.609 50.511 348.698 50.4977 348.783 50.4671L348.784 50.4657Z" fill="black"/>
</g>
<defs>
<linearGradient id="paint0_linear_137_4977" x1="195.342" y1="299.25" x2="195.667" y2="254.766" gradientUnits="userSpaceOnUse">
<stop stop-color="white" stop-opacity="0"/>
<stop offset="1" stop-color="#82A9FF" stop-opacity="0.21"/>
</linearGradient>
<clipPath id="clip0_137_4977">
<rect width="339" height="234" fill="white" transform="translate(40 27)"/>
</clipPath>
</defs>
</svg>
