<svg width="423" height="310" viewBox="0 0 423 310" fill="none" xmlns="http://www.w3.org/2000/svg">
<path fill-rule="evenodd" clip-rule="evenodd" d="M213.202 244.993C232.034 248.569 264.421 249.665 305.671 249.308C343.954 249.174 359.276 252.007 358.674 257.094C354.189 264.998 290.874 269.286 182.246 269.893C92.5702 270.462 50.7921 265.903 38.7618 257.781C20.4999 243.782 155.446 234.214 213.202 244.993Z" fill="url(#paint0_linear_137_5177)"/>
<path opacity="0.1" d="M141.335 55H339.805V249H141.335V55Z" fill="#72D8ED"/>
<g clip-path="url(#clip0_137_5177)">
<path d="M311.308 80.5696V248.945H107.02V80.5696C107.025 78.476 107.859 76.4697 109.339 74.9892C110.819 73.5086 112.825 72.674 114.918 72.6677H303.415C305.509 72.6736 307.514 73.5079 308.995 74.9882C310.475 76.4685 311.309 78.4746 311.315 80.5682L311.308 80.5696Z" fill="white"/>
<path d="M311.308 80.5696V88.4715H107.02V80.5696C107.025 78.476 107.859 76.4697 109.339 74.9892C110.819 73.5086 112.825 72.674 114.918 72.6677H303.415C305.509 72.6736 307.514 73.5079 308.995 74.9882C310.475 76.4685 311.309 78.4746 311.315 80.5682L311.308 80.5696Z" fill="#2D4BAA"/>
<path d="M303.348 82.3934C304.355 82.3934 305.171 81.5768 305.171 80.5696C305.171 79.5623 304.355 78.7457 303.348 78.7457C302.341 78.7457 301.524 79.5623 301.524 80.5696C301.524 81.5768 302.341 82.3934 303.348 82.3934Z" fill="white"/>
<path d="M296.511 82.3934C297.518 82.3934 298.334 81.5768 298.334 80.5696C298.334 79.5623 297.518 78.7457 296.511 78.7457C295.504 78.7457 294.688 79.5623 294.688 80.5696C294.688 81.5768 295.504 82.3934 296.511 82.3934Z" fill="white"/>
<path d="M289.674 82.3919C290.68 82.3919 291.496 81.576 291.496 80.5695C291.496 79.563 290.68 78.7471 289.674 78.7471C288.667 78.7471 287.852 79.563 287.852 80.5695C287.852 81.576 288.667 82.3919 289.674 82.3919Z" fill="white"/>
<path d="M149.192 80.5696C149.19 81.0519 148.997 81.5138 148.656 81.8548C148.315 82.1958 147.853 82.3884 147.371 82.3906H117.292C116.809 82.3906 116.346 82.1987 116.004 81.8572C115.663 81.5157 115.471 81.0525 115.471 80.5696C115.471 80.0866 115.663 79.6234 116.004 79.2819C116.346 78.9404 116.809 78.7485 117.292 78.7485H147.371C147.854 78.7504 148.316 78.9428 148.657 79.2839C148.998 79.6251 149.19 80.0872 149.192 80.5696Z" fill="white"/>
<path fill-rule="evenodd" clip-rule="evenodd" d="M129.196 247.898H108.07V238.273C108.07 237.994 107.959 237.727 107.762 237.53C107.565 237.333 107.298 237.222 107.02 237.222C106.741 237.222 106.474 237.333 106.277 237.53C106.08 237.727 105.969 237.994 105.969 238.273V248.947C105.969 249.225 106.08 249.493 106.277 249.69C106.474 249.887 106.741 249.997 107.02 249.997H129.196C129.475 249.997 129.742 249.887 129.939 249.69C130.136 249.493 130.246 249.225 130.246 248.947C130.246 248.668 130.136 248.401 129.939 248.204C129.742 248.007 129.475 247.896 129.196 247.896V247.898Z" fill="black"/>
<path fill-rule="evenodd" clip-rule="evenodd" d="M108.07 208.681V161.451C108.07 161.173 107.959 160.906 107.762 160.709C107.565 160.512 107.298 160.401 107.02 160.401C106.741 160.401 106.474 160.512 106.277 160.709C106.08 160.906 105.969 161.173 105.969 161.451V208.681C105.969 208.959 106.08 209.227 106.277 209.424C106.474 209.621 106.741 209.731 107.02 209.731C107.298 209.731 107.565 209.621 107.762 209.424C107.959 209.227 108.07 208.959 108.07 208.681Z" fill="black"/>
<path fill-rule="evenodd" clip-rule="evenodd" d="M108.07 118.759V80.5696C108.075 78.7543 108.798 77.0149 110.081 75.7312C111.364 74.4475 113.103 73.7238 114.918 73.7183H253.093C253.372 73.7183 253.639 73.6076 253.836 73.4106C254.033 73.2135 254.144 72.9463 254.144 72.6677C254.144 72.389 254.033 72.1218 253.836 71.9248C253.639 71.7278 253.372 71.6171 253.093 71.6171H114.911C112.539 71.6241 110.267 72.5696 108.59 74.247C106.913 75.9245 105.969 78.1975 105.962 80.5696V118.759C105.962 119.038 106.073 119.305 106.27 119.502C106.467 119.699 106.734 119.81 107.012 119.81C107.291 119.81 107.558 119.699 107.755 119.502C107.952 119.305 108.063 119.038 108.063 118.759H108.07Z" fill="black"/>
<path fill-rule="evenodd" clip-rule="evenodd" d="M274.376 73.7183H303.415C305.231 73.7217 306.971 74.4446 308.255 75.7287C309.539 77.0128 310.262 78.7536 310.265 80.5696V141.179C310.265 141.458 310.376 141.725 310.573 141.922C310.77 142.119 311.037 142.23 311.315 142.23C311.594 142.23 311.861 142.119 312.058 141.922C312.255 141.725 312.366 141.458 312.366 141.179V80.5696C312.359 78.1976 311.413 75.9247 309.736 74.2475C308.059 72.5703 305.787 71.6252 303.415 71.6185H274.383C274.105 71.6185 273.838 71.7292 273.641 71.9262C273.444 72.1233 273.333 72.3905 273.333 72.6691C273.333 72.9478 273.444 73.215 273.641 73.412C273.838 73.609 274.105 73.7197 274.383 73.7197L274.376 73.7183Z" fill="black"/>
<path fill-rule="evenodd" clip-rule="evenodd" d="M310.257 163.124V247.897H140.099C139.82 247.897 139.553 248.008 139.356 248.205C139.159 248.402 139.048 248.669 139.048 248.948C139.048 249.227 139.159 249.494 139.356 249.691C139.553 249.888 139.82 249.999 140.099 249.999H311.307C311.586 249.999 311.853 249.888 312.05 249.691C312.247 249.494 312.357 249.227 312.357 248.948V163.124C312.357 162.845 312.247 162.578 312.05 162.381C311.853 162.184 311.586 162.073 311.307 162.073C311.028 162.073 310.761 162.184 310.564 162.381C310.367 162.578 310.257 162.845 310.257 163.124Z" fill="black"/>
<path fill-rule="evenodd" clip-rule="evenodd" d="M381.333 76.5031L353.486 68.0507L325.638 76.5031V106.672C325.638 110.93 326.553 115.139 328.321 119.012C330.089 122.886 332.669 126.334 335.886 129.123L348.435 140.003C349.777 141.167 351.492 141.812 353.269 141.819C355.046 141.826 356.766 141.196 358.118 140.042L370.904 129.134C374.174 126.345 376.799 122.879 378.6 118.976C380.401 115.073 381.333 110.826 381.333 106.528V76.5031Z" fill="#E2E8F0"/>
<path fill-rule="evenodd" clip-rule="evenodd" d="M334.585 72.6901L325.332 75.4987C325.117 75.5642 324.928 75.6973 324.794 75.8784C324.66 76.0596 324.587 76.279 324.587 76.5044V106.673C324.587 111.082 325.535 115.439 327.365 119.45C329.196 123.46 331.867 127.03 335.197 129.918L347.746 140.798C349.278 142.127 351.236 142.862 353.264 142.87C355.292 142.878 357.255 142.159 358.798 140.843C358.907 140.755 358.997 140.646 359.063 140.522C359.129 140.398 359.17 140.263 359.183 140.123C359.196 139.984 359.18 139.843 359.138 139.709C359.096 139.576 359.027 139.452 358.936 139.345C358.845 139.239 358.734 139.151 358.609 139.088C358.483 139.025 358.347 138.988 358.207 138.979C358.067 138.969 357.927 138.988 357.794 139.034C357.662 139.079 357.54 139.151 357.436 139.245C356.275 140.235 354.798 140.775 353.273 140.769C351.748 140.763 350.275 140.21 349.122 139.211L336.574 128.331C333.471 125.641 330.982 122.315 329.277 118.578C327.571 114.842 326.688 110.782 326.688 106.675V77.2819L335.196 74.6988C335.458 74.6141 335.676 74.4299 335.804 74.1858C335.932 73.9417 335.958 73.6572 335.878 73.3936C335.798 73.13 335.618 72.9085 335.376 72.7766C335.134 72.6447 334.85 72.6132 334.585 72.6887V72.6901Z" fill="black"/>
<path fill-rule="evenodd" clip-rule="evenodd" d="M365.232 135.353L371.588 129.932C374.973 127.044 377.692 123.456 379.556 119.415C381.42 115.374 382.385 110.977 382.385 106.526V76.5017C382.385 76.2763 382.313 76.0568 382.179 75.8757C382.045 75.6946 381.856 75.5614 381.64 75.4959L353.792 67.0435C353.593 66.983 353.38 66.983 353.181 67.0435L343.889 69.8661C343.755 69.9044 343.63 69.9689 343.521 70.0561C343.412 70.1432 343.321 70.2512 343.255 70.3736C343.188 70.4961 343.146 70.6307 343.132 70.7695C343.118 70.9082 343.131 71.0485 343.172 71.1819C343.212 71.3154 343.279 71.4395 343.368 71.5469C343.457 71.6543 343.567 71.7429 343.69 71.8075C343.814 71.8722 343.949 71.9115 344.088 71.9233C344.227 71.9351 344.367 71.9191 344.5 71.8763L353.492 69.1475L380.29 77.2805V106.526C380.289 110.674 379.388 114.772 377.649 118.537C375.91 122.302 373.374 125.644 370.218 128.334L363.863 133.755C363.754 133.843 363.664 133.952 363.598 134.076C363.532 134.2 363.491 134.335 363.478 134.475C363.465 134.614 363.48 134.755 363.523 134.889C363.565 135.022 363.634 135.146 363.725 135.253C363.816 135.359 363.927 135.447 364.052 135.51C364.177 135.573 364.314 135.61 364.454 135.619C364.594 135.629 364.734 135.61 364.866 135.564C364.999 135.519 365.121 135.447 365.225 135.353H365.232Z" fill="black"/>
<path d="M353.486 117.261C361.689 117.261 368.338 110.61 368.338 102.405C368.338 94.2007 361.689 87.5497 353.486 87.5497C345.284 87.5497 338.634 94.2007 338.634 102.405C338.634 110.61 345.284 117.261 353.486 117.261Z" fill="white"/>
<path fill-rule="evenodd" clip-rule="evenodd" d="M367.288 102.405C367.289 105.538 366.226 108.579 364.271 111.027C362.317 113.476 359.588 115.187 356.533 115.879C353.478 116.572 350.279 116.205 347.46 114.839C344.641 113.472 342.37 111.188 341.021 108.361C339.671 105.533 339.323 102.331 340.033 99.2793C340.743 96.2278 342.47 93.5085 344.929 91.568C347.389 89.6274 350.434 88.581 353.567 88.6005C356.699 88.6199 359.732 89.7042 362.167 91.6751C362.384 91.8416 362.657 91.9168 362.929 91.8846C363.201 91.8524 363.449 91.7154 363.622 91.5027C363.794 91.2901 363.877 91.0185 363.852 90.7459C363.827 90.4733 363.697 90.2212 363.489 90.0432C360.684 87.774 357.192 86.5259 353.585 86.504C349.978 86.482 346.47 87.6873 343.639 89.9222C340.807 92.157 338.819 95.2885 338.001 98.8026C337.183 102.317 337.584 106.004 339.138 109.26C340.692 112.516 343.307 115.147 346.553 116.721C349.799 118.294 353.483 118.717 357.001 117.92C360.519 117.123 363.662 115.153 365.913 112.333C368.164 109.514 369.39 106.013 369.389 102.405C369.389 102.127 369.278 101.859 369.081 101.662C368.884 101.465 368.617 101.355 368.339 101.355C368.06 101.355 367.793 101.465 367.596 101.662C367.399 101.859 367.288 102.127 367.288 102.405Z" fill="black"/>
<path fill-rule="evenodd" clip-rule="evenodd" d="M347.46 103.492L351.173 107.206C351.27 107.303 351.386 107.381 351.514 107.434C351.641 107.486 351.778 107.514 351.916 107.514C352.054 107.514 352.19 107.486 352.318 107.434C352.445 107.381 352.561 107.303 352.659 107.206L360.081 99.7815C360.179 99.6839 360.256 99.5681 360.309 99.4405C360.362 99.313 360.389 99.1764 360.389 99.0384C360.389 98.9004 360.362 98.7637 360.309 98.6362C360.256 98.5087 360.179 98.3928 360.081 98.2953C359.984 98.1977 359.868 98.1202 359.74 98.0674C359.613 98.0146 359.476 97.9874 359.338 97.9874C359.2 97.9874 359.064 98.0146 358.936 98.0674C358.809 98.1202 358.693 98.1977 358.595 98.2953L351.916 104.976L348.946 102.005C348.848 101.907 348.733 101.83 348.605 101.777C348.478 101.724 348.341 101.697 348.203 101.697C348.065 101.697 347.928 101.724 347.801 101.777C347.673 101.83 347.558 101.907 347.46 102.005C347.363 102.102 347.285 102.218 347.232 102.346C347.18 102.473 347.152 102.61 347.152 102.748C347.152 102.886 347.18 103.022 347.232 103.15C347.285 103.277 347.363 103.393 347.46 103.491V103.492Z" fill="black"/>
<path d="M385.623 216.619C384.182 215.79 383.053 214.518 383.115 213.775V212.408C383.048 211.676 384.171 210.386 385.608 209.555C387.045 208.724 387.405 206.613 386.391 204.868L382.822 198.718C381.808 196.98 379.811 196.246 378.366 197.078C376.921 197.91 375.247 198.269 374.625 197.862C374.004 197.456 372.245 195.23 372.245 193.563C372.245 191.896 370.592 190.54 368.581 190.545L361.478 190.566C359.467 190.566 357.827 191.934 357.836 193.604C357.846 195.274 357.296 196.901 356.633 197.246C355.971 197.591 353.17 197.986 351.732 197.156C350.293 196.327 348.288 197.078 347.287 198.821L343.75 204.984C342.746 206.735 343.109 208.84 344.561 209.66C346.014 210.479 347.13 211.774 347.068 212.506V213.193V213.872C347.135 214.612 346.012 215.895 344.577 216.733C343.141 217.57 342.78 219.674 343.791 221.414L347.359 227.559C348.373 229.296 350.371 230.036 351.817 229.2C353.264 228.363 354.935 228.013 355.556 228.412C356.178 228.812 357.937 231.056 357.937 232.72C357.937 234.384 359.591 235.743 361.601 235.737L368.707 235.718C370.717 235.718 372.357 234.346 372.348 232.681C372.34 231.015 372.887 229.373 373.548 229.039C374.209 228.704 377.013 228.305 378.45 229.127C379.887 229.949 381.894 229.202 382.898 227.46L386.434 221.296C387.437 219.551 387.073 217.447 385.623 216.618V216.619ZM365.108 222.643C363.228 222.648 361.389 222.095 359.824 221.054C358.258 220.014 357.037 218.533 356.313 216.798C355.589 215.063 355.396 213.152 355.758 211.307C356.12 209.462 357.021 207.766 358.347 206.434C359.673 205.101 361.364 204.192 363.207 203.821C365.049 203.45 366.96 203.633 368.698 204.349C370.437 205.064 371.924 206.279 372.971 207.84C374.019 209.401 374.581 211.237 374.585 213.117C374.588 214.365 374.345 215.601 373.87 216.755C373.395 217.91 372.698 218.959 371.818 219.843C370.938 220.728 369.892 221.43 368.74 221.911C367.589 222.391 366.354 222.64 365.106 222.643H365.108Z" fill="#B2BFEB"/>
<path fill-rule="evenodd" clip-rule="evenodd" d="M365.109 223.696C367.196 223.69 369.235 223.066 370.967 221.901C372.699 220.737 374.048 219.085 374.841 217.154C375.635 215.223 375.838 213.1 375.425 211.054C375.012 209.007 374.002 207.129 372.522 205.657C371.043 204.185 369.159 203.185 367.111 202.783C365.063 202.381 362.942 202.596 361.016 203.401C359.09 204.205 357.445 205.562 356.291 207.301C355.136 209.04 354.523 211.083 354.528 213.17C354.536 215.969 355.655 218.651 357.639 220.625C359.624 222.599 362.31 223.703 365.109 223.696ZM365.109 221.595C363.999 221.598 362.9 221.382 361.873 220.96C360.846 220.538 359.913 219.918 359.126 219.135C358.339 218.353 357.714 217.422 357.287 216.398C356.859 215.373 356.638 214.275 356.635 213.165C356.632 212.055 356.847 210.955 357.269 209.928C357.691 208.901 358.311 207.967 359.094 207.18C359.877 206.393 360.807 205.768 361.831 205.34C362.855 204.913 363.954 204.691 365.063 204.688C366.173 204.685 367.273 204.9 368.3 205.322C369.326 205.744 370.26 206.365 371.047 207.148C371.834 207.93 372.459 208.861 372.886 209.885C373.314 210.91 373.535 212.008 373.538 213.118C373.542 214.229 373.326 215.33 372.903 216.357C372.481 217.384 371.861 218.318 371.077 219.105C370.294 219.892 369.363 220.517 368.338 220.945C367.313 221.372 366.214 221.593 365.103 221.595H365.109ZM356.107 196.326C355.871 196.462 355.697 196.685 355.622 196.948C355.548 197.21 355.578 197.492 355.707 197.732C355.836 197.972 356.054 198.153 356.313 198.236C356.573 198.319 356.855 198.298 357.1 198.176C357.527 197.932 357.872 197.568 358.094 197.128C358.546 196.308 358.878 194.966 358.875 193.601C358.875 192.451 360.088 191.622 361.475 191.618L368.578 191.597C369.964 191.597 371.186 192.418 371.19 193.568C371.19 194.575 371.688 195.765 372.31 196.753C372.932 197.741 373.678 198.507 374.055 198.748C374.479 198.995 374.966 199.111 375.456 199.083C376.388 199.062 377.712 198.672 378.89 197.988C379.884 197.416 381.212 198.049 381.91 199.249C381.98 199.369 382.072 199.474 382.182 199.557C382.292 199.641 382.417 199.703 382.551 199.738C382.685 199.774 382.824 199.782 382.961 199.764C383.098 199.746 383.23 199.7 383.349 199.631C383.469 199.561 383.574 199.469 383.658 199.359C383.741 199.249 383.803 199.124 383.838 198.99C383.874 198.857 383.883 198.717 383.864 198.58C383.846 198.443 383.801 198.311 383.731 198.192C382.402 195.913 379.738 195.079 377.849 196.17C377.181 196.569 376.444 196.837 375.676 196.96C375.51 196.975 375.343 196.975 375.177 196.96C374.925 196.784 374.495 196.253 374.097 195.625C373.699 194.998 373.3 194.225 373.299 193.562C373.299 191.373 371.221 189.49 368.582 189.5L361.478 189.521C358.839 189.528 356.776 191.423 356.785 193.612C356.796 194.39 356.658 195.162 356.377 195.887C356.303 196.042 356.217 196.19 356.118 196.33L356.107 196.326Z" fill="black"/>
<path fill-rule="evenodd" clip-rule="evenodd" d="M345.999 213.917C345.934 214.063 345.856 214.204 345.767 214.337C345.29 214.941 344.699 215.446 344.029 215.825C342.133 216.922 341.538 219.66 342.865 221.942L346.432 228.087C347.761 230.365 350.428 231.204 352.323 230.107C352.992 229.71 353.73 229.443 354.498 229.319C354.664 229.305 354.832 229.305 354.999 229.319C355.255 229.512 355.681 230.037 356.073 230.658C356.483 231.305 356.87 232.059 356.871 232.723C356.871 234.911 358.951 236.795 361.588 236.785L368.694 236.765C371.33 236.757 373.391 234.86 373.387 232.676C373.376 231.896 373.514 231.121 373.795 230.393C373.868 230.238 373.954 230.09 374.052 229.95C374.292 229.816 374.469 229.592 374.545 229.329C374.622 229.065 374.592 228.781 374.463 228.539C374.333 228.297 374.114 228.115 373.852 228.033C373.59 227.951 373.306 227.974 373.061 228.099C372.633 228.343 372.286 228.709 372.065 229.149C371.613 229.971 371.282 231.316 371.286 232.682C371.286 233.829 370.072 234.661 368.689 234.666L361.583 234.685C360.198 234.685 358.975 233.864 358.972 232.716C358.972 231.71 358.474 230.519 357.852 229.532C357.23 228.544 356.489 227.779 356.117 227.534H356.107C355.682 227.29 355.195 227.176 354.706 227.206C353.775 227.23 352.456 227.618 351.279 228.296C350.282 228.873 348.954 228.234 348.256 227.035L344.687 220.89C343.987 219.692 344.093 218.229 345.091 217.646C346.271 216.957 347.256 215.996 347.723 215.192C347.976 214.789 348.108 214.322 348.103 213.847V213.196V212.539C348.105 212.064 347.97 211.6 347.716 211.199C347.245 210.398 346.254 209.439 345.07 208.756H345.063C344.064 208.196 343.956 206.722 344.642 205.518L348.179 199.354C348.304 199.114 348.332 198.834 348.256 198.573C348.18 198.313 348.006 198.092 347.771 197.956C347.535 197.821 347.257 197.783 346.993 197.848C346.73 197.914 346.502 198.079 346.358 198.309L342.822 204.473C341.505 206.769 342.122 209.503 344.021 210.583C344.693 210.958 345.286 211.461 345.766 212.064C345.856 212.197 345.936 212.337 346.004 212.484C346.004 212.484 346.004 212.443 346.004 212.424L347.05 213.564L345.999 212.518V213.203V213.924V213.917Z" fill="black"/>
<path d="M354.021 185.706C353.166 185.215 352.495 184.457 352.533 184.025V183.213C352.492 182.777 353.16 182.011 354.013 181.518C354.866 181.025 355.08 179.771 354.478 178.735L352.358 175.084C351.755 174.052 350.571 173.616 349.712 174.104C348.854 174.591 347.859 174.812 347.49 174.569C347.12 174.325 346.074 173.005 346.072 172.015C346.071 171.025 345.092 170.219 343.896 170.222L339.676 170.235C338.482 170.235 337.508 171.048 337.511 172.039C337.514 173.029 337.191 174 336.796 174.197C336.401 174.395 334.74 174.637 333.883 174.144C333.026 173.651 331.837 174.098 331.243 175.133L329.142 178.796C328.547 179.836 328.762 181.085 329.624 181.574C330.485 182.063 331.15 182.835 331.112 183.263V183.671V184.074C331.153 184.514 330.486 185.276 329.632 185.772C328.778 186.268 328.565 187.52 329.166 188.554L331.286 192.205C331.887 193.236 333.075 193.674 333.933 193.178C334.792 192.682 335.784 192.478 336.154 192.712C336.524 192.946 337.569 194.281 337.571 195.27C337.574 196.259 338.552 197.065 339.748 197.061L343.967 197.05C345.161 197.05 346.137 196.236 346.133 195.246C346.128 194.255 346.453 193.285 346.845 193.082C347.238 192.878 348.903 192.644 349.761 193.135C350.62 193.625 351.806 193.181 352.401 192.146L354.502 188.484C355.096 187.448 354.88 186.198 354.019 185.705L354.021 185.706ZM341.837 189.288C340.721 189.291 339.629 188.963 338.699 188.345C337.769 187.728 337.044 186.848 336.614 185.818C336.184 184.787 336.069 183.652 336.283 182.557C336.498 181.461 337.033 180.454 337.82 179.662C338.607 178.87 339.612 178.33 340.706 178.109C341.8 177.888 342.935 177.997 343.968 178.422C345 178.846 345.883 179.567 346.506 180.494C347.129 181.421 347.463 182.511 347.466 183.628C347.468 184.369 347.324 185.104 347.042 185.79C346.761 186.475 346.346 187.099 345.824 187.625C345.301 188.15 344.679 188.568 343.995 188.853C343.311 189.139 342.577 189.287 341.836 189.288H341.837Z" fill="#B2BFEB"/>
<path fill-rule="evenodd" clip-rule="evenodd" d="M336.198 173.304C335.957 173.352 335.713 173.379 335.468 173.383C335.097 173.399 334.682 173.396 334.403 173.236C333.091 172.493 331.24 173.039 330.334 174.616L328.233 178.279C327.323 179.866 327.792 181.749 329.108 182.494C329.35 182.625 329.634 182.656 329.898 182.58C330.162 182.504 330.386 182.327 330.522 182.088C330.657 181.848 330.694 181.565 330.623 181.3C330.552 181.034 330.38 180.806 330.143 180.666C329.733 180.434 329.771 179.826 330.055 179.326L332.156 175.663C332.436 175.167 332.954 174.83 333.367 175.064C333.941 175.395 334.786 175.518 335.559 175.485C336.332 175.451 337.01 175.273 337.274 175.139C337.603 174.955 337.871 174.678 338.043 174.343C338.34 173.806 338.563 172.932 338.561 172.042C338.561 171.568 339.109 171.292 339.682 171.291L343.902 171.278C344.473 171.278 345.022 171.55 345.022 172.023C345.022 172.691 345.34 173.489 345.757 174.143C346.174 174.797 346.676 175.3 346.925 175.458C347.248 175.651 347.62 175.743 347.995 175.723C348.604 175.709 349.47 175.462 350.236 175.022C350.645 174.787 351.159 175.122 351.447 175.618L353.566 179.267C353.855 179.761 353.893 180.375 353.484 180.613C352.709 181.061 352.068 181.699 351.762 182.224C351.575 182.53 351.477 182.884 351.482 183.244V183.629C351.482 183.744 351.482 183.85 351.496 183.948L351.488 183.94C351.466 184.323 351.564 184.704 351.768 185.03C352.076 185.552 352.72 186.184 353.496 186.629C353.908 186.865 353.874 187.48 353.59 187.974L351.489 191.634C351.209 192.13 350.692 192.475 350.279 192.235C349.701 191.905 348.858 191.782 348.086 191.815C347.314 191.849 346.634 192.025 346.368 192.161C346.12 192.285 345.931 192.503 345.843 192.766C345.754 193.029 345.774 193.317 345.896 193.565C346.019 193.814 346.236 194.005 346.498 194.094C346.761 194.184 347.048 194.167 347.298 194.045C347.585 193.98 347.876 193.936 348.17 193.915C348.543 193.9 348.96 193.904 349.239 194.063C350.55 194.811 352.401 194.264 353.31 192.685L355.411 189.021C356.317 187.44 355.852 185.559 354.54 184.807C354.119 184.567 353.638 184.02 353.559 183.936C353.566 183.84 353.57 183.735 353.57 183.622V183.28C353.673 183.161 354.131 182.648 354.526 182.417C355.834 181.659 356.292 179.777 355.366 178.197L353.245 174.545C352.328 172.972 350.477 172.444 349.169 173.19C348.79 173.378 348.388 173.514 347.973 173.595C347.806 173.411 347.653 173.214 347.515 173.008C347.314 172.693 347.109 172.331 347.107 172.009C347.107 170.498 345.707 169.164 343.878 169.168L339.658 169.181C337.837 169.181 336.437 170.527 336.445 172.039C336.445 172.48 336.251 173.102 336.185 173.299L336.198 173.304Z" fill="black"/>
<path fill-rule="evenodd" clip-rule="evenodd" d="M335.681 193.682C335.843 193.867 335.988 194.065 336.115 194.275C336.315 194.59 336.523 194.953 336.523 195.274C336.523 196.784 337.93 198.117 339.752 198.113H342.133C342.412 198.113 342.679 198.003 342.876 197.805C343.073 197.608 343.183 197.341 343.183 197.063C343.183 196.784 343.073 196.517 342.876 196.32C342.679 196.123 342.412 196.012 342.133 196.012H339.752C339.181 196.012 338.632 195.74 338.632 195.267C338.632 194.6 338.314 193.804 337.898 193.149C337.482 192.493 336.988 191.996 336.74 191.833H336.731C336.407 191.641 336.033 191.55 335.657 191.57C335.049 191.585 334.187 191.831 333.416 192.27C333.005 192.509 332.491 192.171 332.202 191.678L330.082 188.029C329.802 187.536 329.757 186.922 330.167 186.684C330.287 186.615 330.392 186.523 330.476 186.413C330.56 186.304 330.621 186.178 330.657 186.045C330.692 185.912 330.701 185.772 330.683 185.635C330.665 185.498 330.62 185.366 330.551 185.247C330.482 185.127 330.39 185.023 330.28 184.939C330.171 184.855 330.046 184.793 329.912 184.757C329.779 184.722 329.64 184.713 329.503 184.731C329.366 184.749 329.234 184.794 329.114 184.863C327.803 185.622 327.35 187.505 328.274 189.082L330.396 192.734C331.312 194.306 333.167 194.844 334.475 194.087C334.862 193.898 335.272 193.761 335.695 193.68L335.681 193.682Z" fill="black"/>
<path fill-rule="evenodd" clip-rule="evenodd" d="M80.9577 181.993V157.759C80.9577 153.341 79.2031 149.104 76.0797 145.98C72.9564 142.856 68.7203 141.101 64.3033 141.101H61.2726C56.8556 141.101 52.6195 142.856 49.4961 145.98C46.3728 149.104 44.6182 153.341 44.6182 157.759V181.993C44.6182 183.198 45.0967 184.354 45.9486 185.206C46.8005 186.058 47.9559 186.536 49.1606 186.536C50.3653 186.536 51.5207 186.058 52.3726 185.206C53.2245 184.354 53.7031 183.198 53.7031 181.993V157.759C53.7038 155.752 54.5016 153.826 55.9211 152.407C57.3406 150.988 59.2655 150.191 61.2726 150.191H64.3005C65.2946 150.191 66.2791 150.386 67.1975 150.767C68.116 151.148 68.9505 151.705 69.6534 152.409C70.3564 153.112 70.9139 153.947 71.2942 154.865C71.6746 155.784 71.8702 156.769 71.87 157.763V181.997C71.87 183.202 72.3486 184.358 73.2005 185.21C74.0524 186.062 75.2077 186.541 76.4125 186.541C77.6172 186.541 78.7726 186.062 79.6245 185.21C80.4763 184.358 80.9549 183.202 80.9549 181.997L80.9577 181.993Z" fill="#6D7BED"/>
<path fill-rule="evenodd" clip-rule="evenodd" d="M56.3123 153.531C56.9236 152.813 57.6839 152.236 58.5405 151.84C59.3971 151.445 60.3294 151.24 61.2728 151.241H64.3006C65.1568 151.241 66.0047 151.409 66.7958 151.737C67.5869 152.065 68.3058 152.545 68.9113 153.15C69.5168 153.756 69.9971 154.475 70.3248 155.266C70.6525 156.057 70.8212 156.905 70.8212 157.762V181.996C70.8212 183.479 71.4105 184.902 72.4593 185.951C73.5082 187 74.9307 187.59 76.414 187.59C77.8973 187.59 79.3199 187 80.3687 185.951C81.4176 184.902 82.0068 183.479 82.0068 181.996V157.762C82.0102 155.181 81.4475 152.63 80.3585 150.29C80.2407 150.037 80.0275 149.842 79.7656 149.746C79.5038 149.651 79.2148 149.664 78.9622 149.781C78.7096 149.899 78.5142 150.113 78.4188 150.374C78.3235 150.636 78.3361 150.925 78.4538 151.178C79.4135 153.24 79.9093 155.487 79.9061 157.762V181.996C79.9061 182.922 79.5382 183.81 78.8833 184.465C78.2284 185.12 77.3402 185.488 76.414 185.488C75.4879 185.488 74.5996 185.12 73.9447 184.465C73.2899 183.81 72.9219 182.922 72.9219 181.996V157.762C72.9216 155.475 72.0131 153.282 70.3963 151.665C68.7795 150.048 66.5869 149.14 64.3006 149.14H61.2728C60.0252 149.139 58.7923 149.409 57.6596 149.932C56.5268 150.455 55.5214 151.218 54.7129 152.168C54.6234 152.273 54.5554 152.395 54.5128 152.526C54.4702 152.657 54.4538 152.796 54.4647 152.933C54.4755 153.071 54.5134 153.205 54.576 153.328C54.6387 153.451 54.725 153.56 54.8299 153.65C54.9348 153.739 55.0563 153.807 55.1875 153.85C55.3188 153.893 55.4571 153.909 55.5946 153.898C55.7321 153.887 55.8662 153.849 55.9891 153.787C56.112 153.724 56.2213 153.638 56.3109 153.533L56.3123 153.531Z" fill="black"/>
<path fill-rule="evenodd" clip-rule="evenodd" d="M73.835 142.836C70.9897 141.014 67.6807 140.048 64.3019 140.053H61.2727C56.5771 140.053 52.0738 141.919 48.7535 145.24C45.4332 148.561 43.5679 153.065 43.5679 157.762V173.731C43.5679 174.01 43.6785 174.277 43.8755 174.474C44.0725 174.671 44.3397 174.782 44.6182 174.782C44.8968 174.782 45.164 174.671 45.3609 174.474C45.5579 174.277 45.6686 174.01 45.6686 173.731V157.762C45.6686 153.622 47.3126 149.653 50.2389 146.726C53.1653 143.799 57.1342 142.154 61.2727 142.154H64.3005C67.2785 142.149 70.1953 143 72.7034 144.606C72.9379 144.752 73.2205 144.8 73.4901 144.739C73.7596 144.678 73.9943 144.513 74.1433 144.281C74.2923 144.048 74.3437 143.766 74.2862 143.495C74.2288 143.225 74.0671 142.988 73.8364 142.836H73.835Z" fill="black"/>
<path fill-rule="evenodd" clip-rule="evenodd" d="M88.5273 186.534C88.5273 180.107 85.9747 173.943 81.431 169.398C76.8874 164.854 70.7248 162.3 64.2991 162.3H61.2727C54.8469 162.3 48.6844 164.854 44.1407 169.398C39.597 173.943 37.0444 180.107 37.0444 186.534V195.621C37.0444 202.048 39.597 208.212 44.1407 212.757C48.6844 217.302 54.8469 219.855 61.2727 219.855H64.3005C70.7262 219.855 76.8888 217.302 81.4325 212.757C85.9761 208.212 88.5287 202.048 88.5287 195.621V186.534H88.5273Z" fill="#B2BFEB"/>
<path fill-rule="evenodd" clip-rule="evenodd" d="M76.3882 164.326C72.6814 162.304 68.5256 161.248 64.3035 161.254H61.2729C54.5693 161.254 48.1403 163.918 43.4002 168.659C38.66 173.4 35.9971 179.831 35.9971 186.536V195.623C35.9971 195.901 36.1077 196.168 36.3047 196.365C36.5017 196.562 36.7689 196.673 37.0474 196.673C37.326 196.673 37.5932 196.562 37.7901 196.365C37.9871 196.168 38.0978 195.901 38.0978 195.623V186.536C38.0978 183.492 38.6972 180.477 39.8619 177.665C41.0265 174.853 42.7336 172.297 44.8856 170.145C47.0376 167.992 49.5924 166.285 52.4041 165.12C55.2159 163.955 58.2295 163.355 61.2729 163.355H64.3007C68.1714 163.349 71.9815 164.317 75.3799 166.171C75.501 166.237 75.6339 166.278 75.771 166.293C75.9082 166.308 76.0469 166.295 76.1792 166.256C76.3115 166.217 76.4349 166.153 76.5422 166.066C76.6496 165.979 76.7388 165.872 76.8048 165.751C76.8709 165.63 76.9124 165.497 76.927 165.36C76.9417 165.223 76.9292 165.084 76.8902 164.952C76.8513 164.819 76.7867 164.696 76.7001 164.589C76.6134 164.481 76.5065 164.392 76.3854 164.326H76.3882Z" fill="black"/>
<path fill-rule="evenodd" clip-rule="evenodd" d="M40.3806 209.852C42.6975 213.259 45.8126 216.047 49.4542 217.973C53.0959 219.9 57.1534 220.905 61.2729 220.903H64.3008C67.6201 220.903 70.9069 220.249 73.9736 218.979C77.0403 217.708 79.8268 215.846 82.1739 213.498C84.521 211.151 86.3828 208.364 87.653 205.296C88.9231 202.229 89.5768 198.941 89.5766 195.621V186.534C89.5821 182.673 88.6999 178.863 86.9983 175.398C86.9378 175.273 86.8533 175.162 86.7497 175.071C86.6461 174.979 86.5254 174.909 86.3946 174.864C86.2638 174.819 86.1254 174.8 85.9873 174.809C85.8493 174.818 85.7144 174.854 85.5903 174.915C85.4662 174.976 85.3553 175.061 85.2641 175.165C85.1729 175.269 85.1032 175.39 85.0589 175.521C85.0145 175.652 84.9965 175.79 85.0059 175.928C85.0152 176.066 85.0517 176.201 85.1133 176.325C86.673 179.502 87.4813 182.996 87.4759 186.536V195.622C87.4759 201.77 85.0342 207.666 80.688 212.013C76.3419 216.361 70.4472 218.803 64.3008 218.803H61.2729C57.4953 218.805 53.7745 217.883 50.435 216.117C47.0956 214.351 44.239 211.794 42.1144 208.67C41.9551 208.445 41.7142 208.293 41.4434 208.244C41.1727 208.196 40.8938 208.255 40.6666 208.41C40.4393 208.565 40.282 208.803 40.2282 209.073C40.1745 209.343 40.2287 209.623 40.3792 209.853L40.3806 209.852Z" fill="black"/>
<path fill-rule="evenodd" clip-rule="evenodd" d="M59.7605 192.237V185.021C59.7605 184.218 60.0795 183.448 60.6473 182.88C61.2152 182.312 61.9853 181.993 62.7883 181.993C63.5914 181.993 64.3615 182.312 64.9293 182.88C65.4972 183.448 65.8162 184.218 65.8162 185.021V192.237C66.5018 192.85 66.985 193.657 67.2019 194.551C67.4189 195.445 67.3593 196.384 67.0311 197.244C66.7029 198.103 66.1215 198.843 65.3639 199.364C64.6063 199.886 63.7081 200.166 62.7883 200.166C61.8685 200.166 60.9704 199.886 60.2128 199.364C59.4551 198.843 58.8738 198.103 58.5456 197.244C58.2173 196.384 58.1578 195.445 58.3747 194.551C58.5917 193.657 59.0749 192.85 59.7605 192.237Z" fill="white"/>
<path fill-rule="evenodd" clip-rule="evenodd" d="M256.401 121.068L209.163 107.568L161.925 121.068V182.72C161.925 188.061 163.113 193.335 165.403 198.16C167.694 202.985 171.029 207.239 175.166 210.615C184.409 218.154 193.281 225.195 200.168 230.813C203.459 233.499 214.042 233.583 217.353 230.921C224.336 225.31 233.547 218.174 242.952 210.619C247.149 207.245 250.536 202.973 252.863 198.116C255.189 193.259 256.397 187.942 256.397 182.556V121.061L256.401 121.068Z" fill="white"/>
<path fill-rule="evenodd" clip-rule="evenodd" d="M161.925 121.068L209.163 107.568L256.401 121.068V134.567L209.163 121.068L161.925 134.567V121.068Z" fill="#2D4BAA"/>
<path fill-rule="evenodd" clip-rule="evenodd" d="M256.69 133.552L209.452 120.052C209.263 119.999 209.063 119.999 208.875 120.052L195.314 123.928C195.179 123.964 195.052 124.026 194.941 124.112C194.831 124.197 194.738 124.303 194.669 124.425C194.6 124.546 194.556 124.68 194.539 124.819C194.523 124.958 194.534 125.098 194.572 125.233C194.611 125.367 194.675 125.492 194.763 125.601C194.85 125.71 194.958 125.801 195.081 125.868C195.204 125.934 195.339 125.976 195.478 125.99C195.617 126.003 195.757 125.989 195.891 125.948L209.163 122.155L256.113 135.572C256.246 135.613 256.386 135.627 256.525 135.613C256.664 135.599 256.799 135.558 256.922 135.491C257.045 135.424 257.153 135.334 257.241 135.225C257.328 135.116 257.393 134.991 257.431 134.856C257.47 134.722 257.481 134.581 257.464 134.443C257.447 134.304 257.403 134.17 257.334 134.048C257.265 133.927 257.173 133.82 257.062 133.735C256.951 133.65 256.825 133.588 256.69 133.552Z" fill="black"/>
<path fill-rule="evenodd" clip-rule="evenodd" d="M185.118 126.848L161.638 133.552C161.375 133.633 161.154 133.813 161.023 134.055C160.892 134.297 160.861 134.58 160.936 134.845C161.012 135.109 161.188 135.333 161.427 135.469C161.666 135.605 161.949 135.642 162.215 135.572L185.695 128.862C185.83 128.826 185.957 128.764 186.067 128.679C186.178 128.594 186.271 128.487 186.34 128.366C186.409 128.244 186.453 128.11 186.47 127.971C186.486 127.833 186.475 127.692 186.437 127.558C186.398 127.423 186.334 127.298 186.246 127.189C186.159 127.08 186.05 126.989 185.928 126.923C185.805 126.856 185.67 126.815 185.531 126.801C185.392 126.787 185.252 126.801 185.118 126.842V126.848Z" fill="black"/>
<path fill-rule="evenodd" clip-rule="evenodd" d="M184.935 219.946L196.852 229.669C200.232 232.427 204.457 233.941 208.82 233.957C213.182 233.974 217.418 232.491 220.819 229.759L243.615 211.443C247.935 207.971 251.422 203.574 253.818 198.575C256.213 193.576 257.457 188.104 257.457 182.56V162.995C257.457 162.717 257.346 162.449 257.15 162.252C256.953 162.055 256.685 161.945 256.407 161.945C256.128 161.945 255.861 162.055 255.664 162.252C255.467 162.449 255.356 162.717 255.356 162.995V182.56C255.357 187.789 254.184 192.952 251.924 197.667C249.664 202.382 246.375 206.531 242.3 209.806L219.503 228.12C216.477 230.551 212.708 231.87 208.827 231.855C204.946 231.84 201.187 230.494 198.179 228.04L186.263 218.317C186.156 218.226 186.033 218.158 185.899 218.115C185.766 218.073 185.626 218.057 185.486 218.07C185.347 218.083 185.212 218.123 185.088 218.189C184.965 218.254 184.856 218.344 184.767 218.452C184.679 218.561 184.613 218.686 184.573 218.82C184.534 218.954 184.522 219.095 184.537 219.234C184.553 219.373 184.596 219.507 184.664 219.629C184.733 219.751 184.825 219.858 184.935 219.945V219.946Z" fill="black"/>
<path fill-rule="evenodd" clip-rule="evenodd" d="M257.451 152.568V121.068C257.451 120.84 257.377 120.618 257.239 120.435C257.102 120.253 256.909 120.121 256.69 120.058L209.451 106.559C209.263 106.505 209.063 106.505 208.874 106.559L161.636 120.058C161.417 120.121 161.224 120.253 161.086 120.435C160.949 120.618 160.875 120.84 160.875 121.068V182.72C160.874 188.217 162.097 193.645 164.454 198.61C166.811 203.576 170.243 207.954 174.501 211.429C174.608 211.52 174.731 211.588 174.864 211.631C174.998 211.673 175.138 211.689 175.277 211.676C175.417 211.663 175.552 211.623 175.675 211.557C175.799 211.492 175.908 211.402 175.996 211.294C176.085 211.185 176.151 211.06 176.19 210.926C176.23 210.792 176.242 210.651 176.226 210.512C176.211 210.373 176.168 210.239 176.099 210.117C176.031 209.995 175.939 209.887 175.829 209.801C171.812 206.524 168.575 202.393 166.351 197.709C164.128 193.025 162.975 187.905 162.975 182.72V121.855L209.163 108.656L255.351 121.855V152.562C255.351 152.841 255.461 153.108 255.658 153.305C255.855 153.502 256.122 153.613 256.401 153.613C256.68 153.613 256.947 153.502 257.144 153.305C257.341 153.108 257.451 152.841 257.451 152.562V152.568Z" fill="black"/>
<g clip-path="url(#clip1_137_5177)">
<path d="M227.133 153.831C222.464 154.72 219.051 155.254 214.382 153.831C214.382 153.831 206.481 152.363 202.036 157.699C197.59 163.035 217.659 170.281 220.219 172.326C222.78 174.37 232.611 179.04 232.611 179.04C232.611 179.04 235.304 172.893 236.921 171.832L227.133 153.83V153.831Z" fill="#E2E8F0"/>
<path d="M188.252 154.898C191.399 155.669 197.77 154.898 207.289 159.566C214.145 162.929 229.109 171.614 231.085 173.304C233.061 174.994 235.753 179.405 233.689 181.751C232.521 183.078 229.648 182.462 229.648 182.462C229.918 185.574 227.043 188.33 221.926 186.374C222.644 189.042 222.196 192.332 216.897 190.109C218.154 192.065 216.178 194.555 212.499 194.288C208.819 194.021 202.712 190.642 200.287 189.309C197.862 187.976 186.727 178.727 185.02 177.216C183.313 175.706 179.156 172.326 179.156 172.326L188.252 154.898Z" fill="#B2BFEB"/>
<path d="M214.383 153.831C209.714 152.408 202.35 151.686 199.477 154.27C196.603 156.854 193.281 163.434 193.281 165.034C193.281 166.634 196.918 169.835 198.669 168.635C200.42 167.435 207.289 159.566 207.289 159.566L214.382 153.83L214.383 153.831Z" fill="#E2E8F0"/>
<path d="M188.252 171.77C190.632 170.835 192.509 175.238 191.634 176.571C190.759 177.904 186.344 182.64 184.661 183.507C182.977 184.374 180.687 182.106 180.418 180.772C180.148 179.439 181.832 176.638 184.661 174.17C184.661 174.17 185.873 172.703 188.253 171.769L188.252 171.77Z" fill="#E2E8F0"/>
<path d="M185.529 182.921C184.729 183.974 184.594 186.174 186.479 187.775C188.364 189.376 190.897 188.976 191.854 187.975C192.81 186.975 195.773 183.374 196.985 181.64C198.803 179.039 196.042 174.603 193.281 176.305C189.359 178.723 185.529 182.921 185.529 182.921L185.529 182.921Z" fill="#E2E8F0"/>
<path d="M192.368 187.408C191.597 188.776 191.665 190.242 192.742 190.909C193.82 191.576 195.638 192.243 197.119 190.909C198.601 189.576 201.497 186.041 202.171 184.774C202.844 183.507 201.163 179.906 199.073 180.773C196.982 181.64 196.44 182.389 196.44 182.389L192.368 187.408Z" fill="#E2E8F0"/>
<path d="M197.897 190.146C197.186 191.576 197.86 192.778 199.005 193.51C200.151 194.243 202.372 193.977 203.382 193.043C204.393 192.109 206.835 189.442 206.792 188.242C206.749 187.041 204.255 183.952 201.831 185.33C200.796 186.755 197.897 190.147 197.897 190.147L197.897 190.146Z" fill="#E2E8F0"/>
<path d="M234.496 148.674L246.708 168.413L238.467 171.801C238.112 171.946 237.716 171.961 237.352 171.842C236.987 171.722 236.678 171.478 236.48 171.152L226.39 154.502C226.275 154.314 226.202 154.104 226.174 153.885C226.146 153.667 226.164 153.446 226.227 153.235C226.29 153.024 226.397 152.829 226.541 152.661C226.684 152.493 226.862 152.357 227.061 152.261L234.496 148.677V148.674Z" fill="#72D8ED"/>
<path d="M180.82 148.767L169.521 170.235L177.259 172.838C177.651 172.97 178.077 172.965 178.466 172.823C178.855 172.682 179.183 172.412 179.396 172.06L189.142 155.928C189.387 155.524 189.461 155.039 189.348 154.581C189.235 154.122 188.944 153.726 188.538 153.479L180.82 148.767Z" fill="#2D4BAA"/>
</g>
</g>
<defs>
<linearGradient id="paint0_linear_137_5177" x1="203.876" y1="273.435" x2="203.335" y2="247.264" gradientUnits="userSpaceOnUse">
<stop stop-color="white" stop-opacity="0"/>
<stop offset="1" stop-color="#82A9FF" stop-opacity="0.21"/>
</linearGradient>
<clipPath id="clip0_137_5177">
<rect width="351" height="183" fill="white" transform="translate(36 67)"/>
</clipPath>
<clipPath id="clip1_137_5177">
<rect width="77.8746" height="46.3148" fill="white" transform="translate(169.177 148.333)"/>
</clipPath>
</defs>
</svg>
