<svg width="423" height="310" viewBox="0 0 423 310" fill="none" xmlns="http://www.w3.org/2000/svg">
<path fill-rule="evenodd" clip-rule="evenodd" d="M210.044 267.042C229.284 270.611 262.374 271.697 304.519 271.326C343.633 271.179 359.287 274.006 358.671 279.094C354.086 286.999 289.395 291.308 178.408 291.951C86.7851 292.55 44.1015 288.006 31.8128 279.887C13.159 265.894 151.038 256.281 210.044 267.042Z" fill="url(#paint0_linear_137_7909)"/>
<path d="M94.4713 126.98L69.0691 257.105C68.2639 261.215 71.0298 264.58 75.2115 264.58H138.223L94.4713 126.98Z" fill="#B2BFEB"/>
<path fill-rule="evenodd" clip-rule="evenodd" d="M93.73 126.834L82.622 183.734C82.5857 183.931 82.6285 184.134 82.7411 184.3C82.8536 184.466 83.0268 184.58 83.2231 184.619C83.4194 184.657 83.6229 184.616 83.7895 184.505C83.956 184.395 84.0722 184.222 84.1127 184.026L95.2228 127.126C95.259 126.929 95.2162 126.726 95.1037 126.56C94.9911 126.394 94.8179 126.28 94.6216 126.241C94.4254 126.203 94.2218 126.244 94.0553 126.355C93.8887 126.465 93.7726 126.638 93.732 126.834H93.73Z" fill="black"/>
<path fill-rule="evenodd" clip-rule="evenodd" d="M77.6153 209.37L68.3232 256.961C67.4208 261.57 70.5219 265.343 75.21 265.343H138.223C138.425 265.343 138.618 265.263 138.76 265.12C138.903 264.977 138.983 264.784 138.983 264.582C138.983 264.38 138.903 264.187 138.76 264.044C138.618 263.901 138.425 263.821 138.223 263.821H75.211C71.5367 263.821 69.1071 260.865 69.815 257.254L79.1071 209.665C79.1275 209.567 79.1281 209.465 79.1091 209.366C79.09 209.268 79.0515 209.174 78.9959 209.09C78.9403 209.006 78.8686 208.934 78.7851 208.878C78.7015 208.822 78.6078 208.784 78.5092 208.764C78.4106 208.745 78.3092 208.745 78.2108 208.766C78.1124 208.786 78.0189 208.825 77.9359 208.882C77.8529 208.939 77.7819 209.011 77.727 209.095C77.6721 209.18 77.6345 209.274 77.6163 209.373L77.6153 209.37Z" fill="black"/>
<path d="M95.1348 126.981L101.142 157.767L120.539 257.104C121.342 261.217 125.422 264.576 129.598 264.576H293.335C297.513 264.576 300.28 261.217 299.477 257.104L280.08 157.765L274.072 126.98H95.1348V126.981Z" fill="white"/>
<path d="M95.1348 126.981L101.144 157.767H280.079L274.071 126.982H95.1348V126.981Z" fill="#2D4BAA"/>
<path d="M175.795 225.227C173.282 225.227 171.621 227.248 172.1 229.72L174.429 241.659C174.911 244.131 177.366 246.153 179.875 246.153H201.115C203.629 246.153 205.288 244.132 204.809 241.659L202.48 229.719C201.997 227.247 199.543 225.224 197.034 225.224H175.8L175.795 225.227Z" fill="#C6D0F0"/>
<path d="M215.633 224.803C213.119 224.803 211.456 226.822 211.939 229.296L214.268 241.235C214.752 243.707 217.205 245.729 219.713 245.729H240.948C243.462 245.729 245.122 243.708 244.641 241.235L242.312 229.296C241.83 226.824 239.375 224.803 236.865 224.803H215.633Z" fill="#C6D0F0"/>
<path d="M134.823 226.276C132.308 226.276 130.648 228.296 131.129 230.768L133.458 242.708C133.939 245.181 136.395 247.203 138.903 247.203H160.138C162.649 247.203 164.311 245.182 163.832 242.708L161.503 230.768C161.022 228.296 158.566 226.276 156.058 226.276H134.823Z" fill="#C6D0F0"/>
<path d="M254.901 224.736C252.388 224.736 250.728 226.758 251.208 229.228L253.537 241.171C254.019 243.641 256.474 245.661 258.983 245.661H280.217C282.729 245.661 284.391 243.641 283.911 241.171L281.582 229.228C281.101 226.759 278.645 224.736 276.138 224.736H254.901Z" fill="#C6D0F0"/>
<path d="M168.632 194.89C166.117 194.89 164.457 196.914 164.938 199.384L167.268 211.325C167.751 213.796 170.205 215.817 172.714 215.817H193.947C196.462 215.817 198.123 213.795 197.642 211.324L195.312 199.384C194.83 196.913 192.375 194.89 189.868 194.89H168.632Z" fill="#C6D0F0"/>
<path d="M208.47 194.465C205.956 194.465 204.293 196.486 204.776 198.957L207.105 210.897C207.589 213.369 210.042 215.393 212.55 215.393H233.784C236.3 215.393 237.959 213.372 237.479 210.899L235.149 198.959C234.667 196.489 232.212 194.467 229.703 194.467H208.47V194.465Z" fill="#C6D0F0"/>
<path d="M127.659 195.938C125.144 195.938 123.484 197.961 123.965 200.432L126.294 212.37C126.776 214.843 129.231 216.864 131.738 216.864H152.971C155.484 216.864 157.147 214.843 156.666 212.37L154.337 200.432C153.854 197.961 151.4 195.938 148.891 195.938H127.659Z" fill="#C6D0F0"/>
<path d="M247.738 194.399C245.225 194.399 243.564 196.421 244.045 198.892L246.374 210.834C246.857 213.305 249.311 215.325 251.821 215.325H273.055C275.566 215.325 277.228 213.305 276.748 210.834L274.419 198.892C273.937 196.421 271.482 194.399 268.974 194.399H247.738Z" fill="#C6D0F0"/>
<path d="M161.468 164.555C158.954 164.555 157.294 166.577 157.775 169.05L160.105 180.989C160.588 183.459 163.042 185.481 165.55 185.481H186.785C189.299 185.481 190.959 183.46 190.478 180.989L188.148 169.048C187.666 166.576 185.217 164.554 182.704 164.554H161.468V164.555Z" fill="#C6D0F0"/>
<path d="M201.307 164.129C198.793 164.129 197.131 166.149 197.614 168.621L199.943 180.562C200.426 183.032 202.88 185.055 205.388 185.055H226.621C229.137 185.055 230.798 183.032 230.317 180.562L227.988 168.621C227.507 166.151 225.051 164.129 222.542 164.129H201.307Z" fill="#C6D0F0"/>
<path d="M120.499 165.602C117.984 165.602 116.324 167.623 116.804 170.094L119.134 182.033C119.616 184.506 122.071 186.527 124.578 186.527H145.812C148.325 186.527 149.987 184.506 149.508 182.033L147.178 170.094C146.695 167.623 144.241 165.602 141.733 165.602H120.499Z" fill="#C6D0F0"/>
<path d="M240.573 164.062C238.059 164.062 236.398 166.084 236.879 168.555L239.208 180.498C239.692 182.968 242.145 184.988 244.655 184.988H265.891C268.405 184.988 270.065 182.968 269.586 180.498L267.256 168.555C266.776 166.084 264.319 164.062 261.813 164.062H240.573Z" fill="#C6D0F0"/>
<path fill-rule="evenodd" clip-rule="evenodd" d="M139.705 165.147C137.306 169.17 134.41 174.328 130.863 178.495C128.62 181.133 126.123 183.365 123.297 184.582C123.114 184.661 122.948 184.775 122.808 184.918C122.669 185.06 122.559 185.229 122.484 185.415C122.41 185.6 122.373 185.799 122.375 185.999C122.377 186.198 122.419 186.396 122.497 186.58C122.576 186.763 122.689 186.93 122.832 187.07C122.975 187.209 123.143 187.32 123.329 187.394C123.514 187.468 123.712 187.506 123.911 187.503C124.111 187.501 124.308 187.46 124.491 187.381C127.721 185.999 130.613 183.484 133.175 180.474C136.836 176.174 139.839 170.863 142.314 166.713C142.511 166.367 142.564 165.957 142.463 165.572C142.362 165.188 142.114 164.858 141.773 164.654C141.432 164.449 141.024 164.387 140.638 164.481C140.251 164.574 139.917 164.815 139.706 165.152L139.705 165.147Z" fill="#2D4BAA"/>
<path fill-rule="evenodd" clip-rule="evenodd" d="M121.347 169.166C124.7 176.66 136.313 183.887 144.304 184.873C144.704 184.923 145.107 184.811 145.425 184.562C145.743 184.314 145.949 183.949 145.998 183.549C146.047 183.148 145.936 182.744 145.688 182.426C145.44 182.108 145.076 181.902 144.676 181.852C137.542 180.973 127.114 174.612 124.117 167.921C123.952 167.553 123.648 167.265 123.271 167.121C122.895 166.977 122.477 166.989 122.109 167.154C121.741 167.319 121.454 167.624 121.311 168.001C121.167 168.378 121.179 168.797 121.344 169.166H121.347Z" fill="#2D4BAA"/>
<path fill-rule="evenodd" clip-rule="evenodd" d="M180.898 163.985C178.499 168.007 175.603 173.165 172.055 177.332C169.813 179.969 167.315 182.201 164.489 183.419C164.305 183.497 164.139 183.611 164 183.754C163.86 183.897 163.75 184.066 163.676 184.251C163.526 184.626 163.53 185.045 163.689 185.416C163.847 185.787 164.146 186.08 164.52 186.23C164.894 186.381 165.312 186.376 165.683 186.217C168.912 184.836 171.803 182.32 174.366 179.31C178.027 175.011 181.03 169.699 183.505 165.548C183.608 165.377 183.675 165.186 183.704 164.989C183.733 164.791 183.723 164.589 183.674 164.396C183.625 164.202 183.539 164.02 183.42 163.859C183.301 163.699 183.151 163.564 182.98 163.461C182.808 163.359 182.619 163.291 182.421 163.262C182.224 163.233 182.023 163.244 181.829 163.292C181.636 163.341 181.454 163.428 181.294 163.547C181.134 163.667 180.999 163.816 180.897 163.988L180.898 163.985Z" fill="#2D4BAA"/>
<path fill-rule="evenodd" clip-rule="evenodd" d="M162.539 168.003C165.891 175.498 177.505 182.724 185.496 183.71C185.696 183.738 185.9 183.727 186.095 183.676C186.291 183.624 186.474 183.535 186.634 183.412C186.795 183.289 186.929 183.135 187.03 182.959C187.13 182.784 187.194 182.59 187.219 182.389C187.244 182.188 187.228 181.984 187.173 181.79C187.118 181.595 187.025 181.413 186.899 181.255C186.773 181.097 186.617 180.965 186.44 180.868C186.262 180.771 186.068 180.71 185.867 180.69C178.734 179.809 168.303 173.451 165.308 166.759C165.229 166.572 165.115 166.402 164.97 166.26C164.825 166.118 164.653 166.006 164.465 165.931C164.276 165.856 164.075 165.82 163.872 165.825C163.67 165.829 163.47 165.874 163.285 165.957C163.1 166.04 162.933 166.16 162.795 166.308C162.657 166.457 162.549 166.631 162.48 166.822C162.41 167.013 162.379 167.215 162.388 167.418C162.398 167.621 162.448 167.82 162.536 168.003H162.539Z" fill="#2D4BAA"/>
<path fill-rule="evenodd" clip-rule="evenodd" d="M222.091 162.82C219.693 166.842 216.797 172 213.248 176.167C211.006 178.805 208.509 181.036 205.682 182.254C205.499 182.332 205.332 182.446 205.193 182.589C205.053 182.732 204.943 182.901 204.869 183.087C204.719 183.461 204.724 183.88 204.882 184.251C205.04 184.622 205.339 184.915 205.713 185.066C206.087 185.216 206.506 185.211 206.876 185.053C210.106 183.67 212.996 181.155 215.56 178.145C219.221 173.846 222.224 168.536 224.699 164.384C224.905 164.038 224.966 163.623 224.867 163.232C224.769 162.841 224.519 162.505 224.173 162.298C223.827 162.091 223.413 162.03 223.023 162.129C222.632 162.228 222.296 162.478 222.09 162.824L222.091 162.82Z" fill="#2D4BAA"/>
<path fill-rule="evenodd" clip-rule="evenodd" d="M203.732 166.841C207.085 174.337 218.698 181.563 226.689 182.549C226.889 182.578 227.093 182.566 227.288 182.515C227.484 182.464 227.667 182.374 227.828 182.251C227.988 182.128 228.122 181.974 228.223 181.799C228.323 181.623 228.388 181.429 228.412 181.228C228.437 181.028 228.421 180.824 228.366 180.629C228.312 180.434 228.218 180.253 228.092 180.094C227.967 179.936 227.81 179.805 227.633 179.708C227.456 179.61 227.261 179.55 227.06 179.529C219.926 178.65 209.498 172.289 206.501 165.598C206.423 165.41 206.308 165.241 206.163 165.098C206.018 164.956 205.847 164.844 205.658 164.77C205.47 164.695 205.268 164.659 205.066 164.663C204.863 164.668 204.663 164.713 204.478 164.796C204.293 164.879 204.127 164.998 203.988 165.147C203.85 165.295 203.743 165.47 203.673 165.66C203.603 165.851 203.572 166.054 203.582 166.257C203.591 166.459 203.641 166.658 203.729 166.841H203.732Z" fill="#2D4BAA"/>
<path fill-rule="evenodd" clip-rule="evenodd" d="M259.513 164.566C257.115 168.588 254.218 173.747 250.67 177.914C248.428 180.552 245.93 182.783 243.103 184.001C242.732 184.159 242.44 184.459 242.29 184.833C242.14 185.208 242.145 185.627 242.303 185.998C242.461 186.369 242.76 186.662 243.134 186.813C243.508 186.963 243.926 186.958 244.297 186.8C247.527 185.417 250.418 182.902 252.982 179.892C256.644 175.593 259.647 170.281 262.122 166.131C262.328 165.785 262.389 165.37 262.291 164.979C262.192 164.587 261.943 164.251 261.597 164.044C261.251 163.837 260.837 163.776 260.446 163.875C260.055 163.973 259.72 164.224 259.513 164.57V164.566Z" fill="#2D4BAA"/>
<path fill-rule="evenodd" clip-rule="evenodd" d="M241.155 168.584C244.508 176.079 256.121 183.305 264.112 184.292C264.508 184.334 264.905 184.218 265.217 183.97C265.529 183.722 265.731 183.361 265.779 182.965C265.828 182.569 265.72 182.169 265.477 181.853C265.235 181.536 264.878 181.328 264.484 181.272C257.35 180.39 246.922 174.032 243.925 167.34C243.846 167.154 243.73 166.986 243.586 166.845C243.441 166.704 243.269 166.593 243.081 166.519C242.893 166.446 242.692 166.41 242.491 166.415C242.289 166.42 242.09 166.465 241.906 166.548C241.721 166.63 241.555 166.749 241.417 166.897C241.279 167.045 241.172 167.218 241.102 167.408C241.032 167.598 241.001 167.8 241.009 168.002C241.018 168.204 241.067 168.402 241.153 168.585L241.155 168.584Z" fill="#2D4BAA"/>
<path fill-rule="evenodd" clip-rule="evenodd" d="M147.247 195.368C144.848 199.39 141.952 204.547 138.405 208.714C136.162 211.351 133.665 213.583 130.838 214.8C130.655 214.879 130.489 214.993 130.349 215.136C130.21 215.279 130.1 215.448 130.025 215.633C129.951 215.819 129.914 216.017 129.916 216.217C129.918 216.417 129.96 216.614 130.038 216.798C130.117 216.982 130.23 217.148 130.373 217.288C130.516 217.428 130.684 217.538 130.87 217.612C131.055 217.687 131.253 217.724 131.452 217.721C131.652 217.719 131.849 217.678 132.032 217.599C135.262 216.218 138.154 213.703 140.717 210.692C144.378 206.393 147.381 201.082 149.856 196.932C149.958 196.76 150.026 196.57 150.055 196.372C150.084 196.175 150.074 195.973 150.025 195.779C149.976 195.586 149.89 195.403 149.771 195.243C149.652 195.083 149.502 194.947 149.331 194.845C149.16 194.742 148.97 194.674 148.772 194.645C148.575 194.616 148.374 194.627 148.18 194.675C147.987 194.724 147.805 194.811 147.645 194.93C147.485 195.049 147.349 195.199 147.247 195.371V195.368Z" fill="#2D4BAA"/>
<path fill-rule="evenodd" clip-rule="evenodd" d="M128.889 199.386C132.242 206.881 143.856 214.107 151.847 215.092C152.243 215.133 152.639 215.017 152.95 214.769C153.261 214.52 153.462 214.16 153.511 213.764C153.559 213.369 153.451 212.97 153.209 212.654C152.967 212.338 152.612 212.129 152.218 212.072C145.085 211.193 134.656 204.833 131.659 198.142C131.494 197.774 131.19 197.486 130.813 197.342C130.437 197.199 130.019 197.211 129.651 197.376C129.283 197.541 128.996 197.845 128.853 198.222C128.709 198.6 128.721 199.018 128.886 199.387L128.889 199.386Z" fill="#2D4BAA"/>
<path fill-rule="evenodd" clip-rule="evenodd" d="M189.599 194.205C187.2 198.224 184.303 203.386 180.759 207.557C178.517 210.195 176.019 212.426 173.192 213.644C173.005 213.72 172.835 213.832 172.692 213.975C172.548 214.117 172.435 214.287 172.358 214.474C172.281 214.661 172.242 214.862 172.243 215.064C172.244 215.266 172.286 215.466 172.365 215.652C172.445 215.838 172.56 216.007 172.706 216.148C172.851 216.288 173.022 216.399 173.211 216.472C173.399 216.546 173.6 216.581 173.802 216.575C174.003 216.57 174.202 216.525 174.386 216.442C177.616 215.059 180.507 212.544 183.07 209.534C186.731 205.235 189.734 199.924 192.209 195.772C192.411 195.426 192.469 195.014 192.369 194.626C192.269 194.237 192.021 193.904 191.677 193.698C191.333 193.493 190.922 193.431 190.534 193.527C190.145 193.623 189.81 193.869 189.601 194.211L189.599 194.205Z" fill="#2D4BAA"/>
<path fill-rule="evenodd" clip-rule="evenodd" d="M171.239 198.224C174.59 205.719 186.205 212.945 194.195 213.931C194.595 213.98 194.998 213.868 195.316 213.62C195.634 213.371 195.84 213.007 195.889 212.606C195.938 212.205 195.826 211.802 195.578 211.484C195.33 211.165 194.966 210.959 194.566 210.91C187.433 210.03 177.004 203.67 174.007 196.98C173.829 196.633 173.525 196.368 173.158 196.239C172.791 196.11 172.389 196.128 172.034 196.287C171.679 196.447 171.399 196.737 171.251 197.097C171.103 197.457 171.099 197.861 171.239 198.224Z" fill="#2D4BAA"/>
<path fill-rule="evenodd" clip-rule="evenodd" d="M220.829 193.881C216.181 194.077 211.41 197.445 208.473 201.133C206.392 203.744 205.275 206.525 205.475 208.437C206.063 214.078 209.806 216.582 214.303 217.344C218.419 218.042 223.192 217.198 226.355 216.133C232.208 214.16 236.333 209.978 237.946 205.654C239.096 202.572 238.993 199.409 237.461 196.791C233.387 189.831 224.166 186.819 212.581 191.73C212.233 191.878 211.958 192.158 211.817 192.509C211.675 192.86 211.679 193.253 211.827 193.601C211.974 193.949 212.254 194.224 212.604 194.366C212.955 194.508 213.347 194.504 213.695 194.356C223.579 190.167 231.532 192.294 235.008 198.233C236.122 200.128 236.115 202.423 235.282 204.656C233.921 208.302 230.386 211.765 225.449 213.431C222.652 214.374 218.429 215.155 214.784 214.533C211.521 213.981 208.738 212.234 208.313 208.142C208.168 206.753 209.188 204.818 210.704 202.917C213.16 199.836 217.073 196.9 220.957 196.736C221.146 196.732 221.333 196.69 221.506 196.612C221.679 196.535 221.834 196.424 221.964 196.286C222.093 196.147 222.194 195.984 222.26 195.807C222.326 195.629 222.355 195.44 222.348 195.25C222.34 195.061 222.294 194.875 222.213 194.703C222.133 194.532 222.019 194.378 221.878 194.251C221.738 194.124 221.573 194.026 221.395 193.964C221.216 193.901 221.027 193.875 220.838 193.886L220.829 193.881Z" fill="#72D8ED"/>
<path fill-rule="evenodd" clip-rule="evenodd" d="M96.0581 127.742L101.889 157.621L121.285 256.96C122.022 260.735 125.766 263.818 129.6 263.818H293.336C297.006 263.818 299.438 260.867 298.732 257.254L297.206 249.437C297.169 249.24 297.212 249.037 297.325 248.871C297.437 248.706 297.61 248.591 297.807 248.553C298.003 248.514 298.207 248.555 298.373 248.666C298.54 248.777 298.656 248.949 298.696 249.145L300.223 256.956C301.122 261.569 298.019 265.335 293.336 265.335H129.599C125.078 265.335 120.663 261.699 119.793 257.249L100.398 157.913L94.3901 127.127C94.3686 127.017 94.3717 126.903 94.3992 126.794C94.4267 126.685 94.4779 126.584 94.5491 126.497C94.6204 126.411 94.7099 126.341 94.8113 126.293C94.9127 126.245 95.0234 126.22 95.1355 126.22H182.905C183.106 126.22 183.299 126.3 183.442 126.443C183.584 126.586 183.664 126.779 183.664 126.981C183.664 127.183 183.584 127.376 183.442 127.519C183.299 127.662 183.106 127.742 182.905 127.742H96.0581Z" fill="black"/>
<path fill-rule="evenodd" clip-rule="evenodd" d="M273.447 127.742H262.881C262.679 127.742 262.486 127.662 262.344 127.519C262.201 127.376 262.121 127.183 262.121 126.981C262.121 126.779 262.201 126.586 262.344 126.443C262.486 126.3 262.679 126.22 262.881 126.22H274.073C274.249 126.22 274.42 126.281 274.556 126.393C274.692 126.505 274.785 126.662 274.819 126.835L280.826 157.62L284.128 174.531C284.165 174.728 284.122 174.931 284.009 175.097C283.897 175.263 283.724 175.377 283.527 175.415C283.331 175.454 283.128 175.413 282.961 175.302C282.794 175.192 282.678 175.019 282.638 174.823L279.336 157.912L273.447 127.742Z" fill="black"/>
<path fill-rule="evenodd" clip-rule="evenodd" d="M280.08 157.005H216.307C216.106 157.005 215.913 157.086 215.77 157.228C215.628 157.371 215.548 157.564 215.548 157.766C215.548 157.968 215.628 158.162 215.77 158.304C215.913 158.447 216.106 158.527 216.307 158.527H280.085C280.287 158.527 280.48 158.447 280.622 158.304C280.765 158.162 280.845 157.968 280.845 157.766C280.845 157.564 280.765 157.371 280.622 157.228C280.48 157.086 280.287 157.005 280.085 157.005H280.08Z" fill="black"/>
<path fill-rule="evenodd" clip-rule="evenodd" d="M157.549 157.005H101.846C101.645 157.005 101.452 157.086 101.309 157.228C101.167 157.371 101.087 157.564 101.087 157.766C101.087 157.968 101.167 158.162 101.309 158.304C101.452 158.447 101.645 158.527 101.846 158.527H157.549C157.75 158.527 157.943 158.447 158.086 158.304C158.228 158.162 158.308 157.968 158.308 157.766C158.308 157.564 158.228 157.371 158.086 157.228C157.943 157.086 157.75 157.005 157.549 157.005Z" fill="black"/>
<path d="M332.628 153.157H319.91V163.518H332.628V153.157Z" fill="#6D7BED"/>
<path fill-rule="evenodd" clip-rule="evenodd" d="M332.083 160.954V153.082C332.083 152.88 332.163 152.686 332.306 152.544C332.448 152.401 332.642 152.321 332.843 152.321C333.044 152.321 333.238 152.401 333.38 152.544C333.523 152.686 333.603 152.88 333.603 153.082V161.704C333.603 161.904 333.524 162.096 333.384 162.239C333.243 162.381 333.053 162.463 332.853 162.465L320.194 162.634C320.093 162.635 319.993 162.616 319.9 162.579C319.806 162.541 319.721 162.485 319.65 162.414C319.578 162.344 319.521 162.259 319.483 162.166C319.444 162.073 319.424 161.974 319.424 161.873V159.337C319.424 159.135 319.504 158.941 319.646 158.799C319.789 158.656 319.982 158.576 320.183 158.576C320.385 158.576 320.578 158.656 320.721 158.799C320.863 158.941 320.943 159.135 320.943 159.337V161.102L332.083 160.953V160.954Z" fill="#2D2E85"/>
<path d="M340.073 152.754C340.07 153.577 339.743 154.366 339.162 154.948C338.58 155.531 337.793 155.859 336.971 155.861H315.567C314.745 155.859 313.958 155.53 313.376 154.948C312.795 154.366 312.468 153.577 312.465 152.754V150.469C312.467 149.646 312.795 148.857 313.376 148.275C313.957 147.693 314.745 147.365 315.567 147.362H336.971C337.793 147.365 338.58 147.693 339.162 148.275C339.743 148.857 340.07 149.646 340.073 150.469V152.754Z" fill="#B2BFEB"/>
<path fill-rule="evenodd" clip-rule="evenodd" d="M328.521 155.1H315.567C314.946 155.098 314.351 154.851 313.912 154.411C313.474 153.971 313.226 153.376 313.224 152.754V150.469C313.226 149.848 313.474 149.252 313.912 148.812C314.351 148.373 314.946 148.125 315.567 148.123H336.971C337.591 148.125 338.186 148.373 338.625 148.812C339.064 149.252 339.311 149.848 339.313 150.469V152.754C339.313 152.956 339.393 153.149 339.536 153.292C339.678 153.435 339.871 153.515 340.073 153.515C340.274 153.515 340.467 153.435 340.61 153.292C340.752 153.149 340.832 152.956 340.832 152.754V150.469C340.829 149.445 340.421 148.463 339.698 147.738C338.974 147.013 337.994 146.605 336.971 146.601H315.567C314.543 146.604 313.563 147.013 312.839 147.738C312.116 148.462 311.708 149.444 311.705 150.469V152.754C311.708 153.779 312.116 154.761 312.84 155.486C313.563 156.21 314.544 156.619 315.567 156.622H328.521C328.722 156.622 328.916 156.542 329.058 156.399C329.201 156.256 329.281 156.063 329.281 155.861C329.281 155.659 329.201 155.466 329.058 155.323C328.916 155.18 328.722 155.1 328.521 155.1Z" fill="black"/>
<path fill-rule="evenodd" clip-rule="evenodd" d="M358.601 167.505L351.952 162.889L348.205 168.307L354.854 172.923L358.601 167.505Z" fill="#6D7BED"/>
<path d="M362.698 170.059C362.399 170.489 361.943 170.783 361.428 170.877C360.913 170.97 360.382 170.856 359.952 170.558L348.761 162.789C348.332 162.489 348.039 162.031 347.946 161.516C347.853 161 347.967 160.469 348.263 160.038L349.091 158.844C349.39 158.414 349.847 158.121 350.361 158.027C350.876 157.934 351.406 158.048 351.836 158.345L363.029 166.114C363.458 166.414 363.751 166.872 363.844 167.387C363.937 167.903 363.823 168.435 363.527 168.866L362.7 170.058L362.698 170.059Z" fill="#B2BFEB"/>
<path fill-rule="evenodd" clip-rule="evenodd" d="M348.89 160.472L349.716 159.278C349.9 159.014 350.181 158.834 350.497 158.777C350.814 158.72 351.139 158.79 351.404 158.973L362.596 166.743C362.86 166.927 363.04 167.209 363.097 167.527C363.154 167.844 363.083 168.171 362.9 168.436L362.074 169.628C361.89 169.892 361.609 170.073 361.292 170.13C360.976 170.187 360.649 170.116 360.385 169.932L353.701 165.29C353.535 165.184 353.335 165.146 353.142 165.185C352.949 165.223 352.778 165.335 352.666 165.497C352.554 165.659 352.509 165.858 352.541 166.053C352.572 166.247 352.678 166.422 352.836 166.54L359.52 171.183C360.117 171.595 360.852 171.754 361.564 171.624C362.277 171.495 362.91 171.088 363.324 170.492L364.15 169.3C364.561 168.703 364.719 167.967 364.59 167.253C364.461 166.539 364.055 165.905 363.461 165.49L352.269 157.721C351.672 157.309 350.938 157.151 350.226 157.28C349.513 157.409 348.881 157.816 348.467 158.41L347.64 159.605C347.525 159.771 347.481 159.976 347.517 160.175C347.553 160.373 347.666 160.549 347.832 160.664C347.997 160.779 348.202 160.824 348.4 160.788C348.598 160.752 348.774 160.639 348.889 160.473L348.89 160.472Z" fill="black"/>
<path d="M326.901 251.347C351.721 251.347 371.842 231.193 371.842 206.332C371.842 181.471 351.721 161.317 326.901 161.317C302.081 161.317 281.961 181.471 281.961 206.332C281.961 231.193 302.081 251.347 326.901 251.347Z" fill="#B2BFEB"/>
<path fill-rule="evenodd" clip-rule="evenodd" d="M312.74 164.404C317.302 162.859 322.085 162.073 326.901 162.078C351.285 162.078 371.082 181.907 371.082 206.332C371.094 214.578 368.793 222.663 364.442 229.664C364.39 229.749 364.354 229.843 364.338 229.942C364.321 230.04 364.325 230.141 364.347 230.239C364.37 230.336 364.412 230.428 364.47 230.509C364.528 230.59 364.601 230.659 364.686 230.712C364.771 230.765 364.865 230.801 364.963 230.817C365.062 230.833 365.162 230.83 365.26 230.807C365.357 230.785 365.449 230.743 365.53 230.685C365.611 230.627 365.68 230.553 365.733 230.468C370.234 223.227 372.613 214.865 372.601 206.335C372.601 181.075 352.123 160.559 326.901 160.559C321.919 160.554 316.971 161.367 312.251 162.965C312.157 162.997 312.07 163.048 311.995 163.113C311.92 163.179 311.858 163.259 311.814 163.349C311.77 163.438 311.744 163.536 311.737 163.636C311.73 163.735 311.743 163.835 311.775 163.93C311.807 164.025 311.858 164.112 311.923 164.187C311.989 164.262 312.069 164.324 312.158 164.368C312.248 164.412 312.345 164.439 312.445 164.445C312.544 164.452 312.644 164.439 312.739 164.407L312.74 164.404Z" fill="black"/>
<path fill-rule="evenodd" clip-rule="evenodd" d="M345.602 246.431C339.749 249.177 333.364 250.597 326.9 250.59C302.516 250.59 282.72 230.761 282.72 206.336C282.72 193.308 288.352 181.583 297.303 173.487C297.448 173.351 297.533 173.163 297.54 172.964C297.548 172.766 297.478 172.572 297.345 172.425C297.212 172.277 297.027 172.187 296.829 172.175C296.631 172.163 296.436 172.228 296.286 172.358C287.022 180.737 281.195 192.861 281.195 206.336C281.195 231.595 301.673 252.112 326.895 252.112C333.58 252.12 340.185 250.653 346.239 247.813C346.417 247.725 346.552 247.57 346.618 247.383C346.683 247.195 346.672 246.99 346.588 246.81C346.504 246.63 346.353 246.49 346.168 246.42C345.982 246.35 345.777 246.356 345.595 246.436L345.602 246.431Z" fill="black"/>
<path d="M326.901 245.84C305.153 245.84 287.458 228.117 287.458 206.333C287.458 184.549 305.153 166.825 326.901 166.825C348.649 166.825 366.345 184.548 366.345 206.333C366.345 228.118 348.65 245.84 326.901 245.84Z" fill="#72D8ED"/>
<path d="M326.799 166.825C320.095 166.833 313.504 168.564 307.658 171.852L326.799 206.668V166.825Z" fill="white"/>
<path d="M331.412 217.117C331.653 217.116 331.89 217.052 332.099 216.932C332.308 216.811 332.483 216.638 332.605 216.43C332.727 216.222 332.794 215.986 332.798 215.744C332.802 215.502 332.743 215.264 332.627 215.052L316.811 186.152C316.63 185.834 316.332 185.6 315.98 185.5C315.628 185.401 315.252 185.443 314.931 185.619C314.611 185.795 314.372 186.091 314.267 186.441C314.162 186.792 314.198 187.17 314.369 187.494L330.191 216.392C330.31 216.612 330.487 216.795 330.702 216.922C330.917 217.05 331.162 217.117 331.412 217.117Z" fill="#2D4BAA"/>
<path d="M326.901 213.777C325.432 213.776 323.995 213.34 322.773 212.522C321.551 211.704 320.598 210.541 320.036 209.181C319.474 207.82 319.327 206.324 319.614 204.88C319.9 203.436 320.608 202.11 321.648 201.069C322.687 200.028 324.011 199.319 325.453 199.032C326.894 198.744 328.389 198.892 329.747 199.455C331.104 200.019 332.265 200.973 333.082 202.197C333.898 203.421 334.334 204.86 334.334 206.333C334.332 208.306 333.548 210.199 332.154 211.594C330.761 212.99 328.872 213.775 326.901 213.777Z" fill="#121F55"/>
<path d="M364.145 207.727H359.173C358.803 207.727 358.449 207.58 358.188 207.318C357.927 207.056 357.78 206.702 357.78 206.332C357.78 205.962 357.927 205.607 358.188 205.345C358.449 205.084 358.803 204.937 359.173 204.937H364.145C364.514 204.937 364.868 205.084 365.129 205.345C365.39 205.607 365.537 205.962 365.537 206.332C365.537 206.702 365.39 207.056 365.129 207.318C364.868 207.58 364.514 207.727 364.145 207.727Z" fill="#2D4BAA"/>
<path d="M294.852 207.727H289.879C289.51 207.727 289.155 207.58 288.894 207.318C288.633 207.056 288.486 206.702 288.486 206.332C288.486 205.962 288.633 205.607 288.894 205.345C289.155 205.084 289.51 204.937 289.879 204.937H294.851C295.22 204.937 295.574 205.084 295.835 205.345C296.096 205.607 296.243 205.962 296.243 206.332C296.243 206.702 296.096 207.056 295.835 207.318C295.574 207.58 295.22 207.727 294.851 207.727H294.852Z" fill="#2D4BAA"/>
<path d="M327.012 175.514C326.829 175.514 326.648 175.478 326.479 175.408C326.31 175.337 326.156 175.235 326.027 175.105C325.897 174.975 325.795 174.822 325.725 174.652C325.655 174.483 325.619 174.301 325.619 174.118V169.138C325.619 168.768 325.766 168.413 326.027 168.152C326.288 167.89 326.642 167.743 327.012 167.743C327.381 167.743 327.735 167.89 327.996 168.152C328.258 168.413 328.404 168.768 328.404 169.138V174.118C328.404 174.301 328.368 174.483 328.299 174.652C328.229 174.822 328.126 174.975 327.997 175.105C327.867 175.235 327.714 175.337 327.545 175.408C327.376 175.478 327.195 175.514 327.012 175.514Z" fill="#2D4BAA"/>
<path d="M327.012 244.921C326.642 244.921 326.288 244.774 326.027 244.512C325.766 244.251 325.619 243.896 325.619 243.526V238.545C325.619 238.175 325.766 237.821 326.027 237.559C326.288 237.297 326.642 237.15 327.012 237.15C327.381 237.15 327.735 237.297 327.996 237.559C328.258 237.821 328.404 238.175 328.404 238.545V243.526C328.404 243.896 328.258 244.251 327.996 244.512C327.735 244.774 327.381 244.921 327.012 244.921Z" fill="#2D4BAA"/>
<path d="M205.811 88.1071C205.598 95.8537 207.517 103.511 211.361 110.248C213.496 113.998 201.503 130.536 204.64 133.468C207.776 136.399 226.048 125.734 229.966 127.64C235.454 130.288 241.447 131.734 247.542 131.881C271.197 132.491 290.864 113.879 291.475 90.3125C292.085 66.7461 273.404 47.1617 249.75 46.5566C226.096 45.9514 206.422 64.5512 205.814 88.1146L205.811 88.1071Z" fill="#FCFCFC"/>
<path fill-rule="evenodd" clip-rule="evenodd" d="M235.484 47.7119C218.043 53.069 205.158 69.0616 204.663 88.2848C204.447 96.2031 206.406 104.03 210.328 110.916C210.486 111.194 210.461 111.591 210.4 112.071C210.267 112.907 210.049 113.727 209.75 114.52C208.699 117.496 206.736 121.297 205.215 124.709C203.948 127.554 203.003 130.158 202.979 131.883C202.966 132.951 203.277 133.764 203.854 134.303C204.398 134.812 205.234 135.108 206.333 135.117C208.189 135.13 211.003 134.315 214.085 133.212C217.829 131.873 221.999 130.126 225.238 129.194C226.44 128.846 227.503 128.611 228.348 128.575C228.737 128.559 229.063 128.575 229.3 128.685C234.896 131.392 241.006 132.87 247.222 133.021C247.518 133.029 247.806 132.919 248.021 132.715C248.236 132.51 248.361 132.23 248.368 131.934C248.376 131.638 248.265 131.351 248.061 131.136C247.856 130.922 247.575 130.797 247.279 130.789C241.378 130.646 235.578 129.242 230.266 126.673C229.412 126.258 227.995 126.242 226.221 126.63C222.792 127.374 217.759 129.518 213.319 131.109C210.908 131.972 208.682 132.675 207.026 132.847C206.627 132.901 206.221 132.901 205.822 132.847C205.659 132.835 205.504 132.776 205.375 132.678C205.257 132.568 205.234 132.393 205.215 132.196C205.194 131.902 205.208 131.608 205.255 131.318C205.471 129.813 206.273 127.803 207.247 125.621C209.061 121.553 211.473 116.937 212.315 113.757C212.77 112.048 212.742 110.672 212.257 109.818C208.539 103.283 206.683 95.8578 206.891 88.3458C207.36 70.1077 219.58 54.9321 236.134 49.8503C236.409 49.7566 236.637 49.5597 236.769 49.3012C236.901 49.0427 236.927 48.743 236.842 48.4657C236.756 48.1883 236.566 47.9551 236.311 47.8155C236.056 47.6759 235.757 47.6409 235.477 47.7178L235.484 47.7119Z" fill="black"/>
<path fill-rule="evenodd" clip-rule="evenodd" d="M279.894 120.018C287.788 112.099 292.335 101.493 292.61 90.3634C293.237 66.1538 273.953 46.0264 249.53 45.4071C249.381 45.4034 249.233 45.4287 249.095 45.4816C248.956 45.5346 248.829 45.6141 248.721 45.7156C248.504 45.9207 248.377 46.203 248.37 46.5006C248.362 46.7982 248.474 47.0865 248.681 47.3022C248.888 47.518 249.172 47.6434 249.473 47.651C272.644 48.2403 290.944 67.337 290.347 90.3066C290.087 100.867 285.772 110.93 278.282 118.445C278.072 118.657 277.955 118.943 277.957 119.241C277.959 119.538 278.081 119.823 278.294 120.032C278.508 120.241 278.797 120.357 279.098 120.354C279.398 120.352 279.685 120.232 279.896 120.02L279.894 120.018Z" fill="black"/>
<path d="M225.674 112.514L246.835 90.8296H275.534C275.695 90.8296 275.855 90.8628 276.003 90.9272C276.151 90.9916 276.286 91.0859 276.398 91.2044C276.51 91.3229 276.598 91.4634 276.656 91.6173C276.714 91.7713 276.742 91.9357 276.737 92.1007C276.082 108.444 262.944 121.49 246.835 121.49C242.904 121.496 239.012 120.706 235.38 119.165C231.749 117.625 228.45 115.364 225.674 112.514Z" fill="#2D4BAA"/>
<path d="M216.598 91.2287C216.598 75.1029 229.631 61.9586 245.964 61.3054C246.129 61.2999 246.293 61.3269 246.447 61.3847C246.601 61.4426 246.741 61.5301 246.86 61.6421C246.978 61.7541 247.072 61.8884 247.137 62.0367C247.201 62.1851 247.234 62.3446 247.234 62.5058C247.234 68.1335 247.234 91.2287 247.234 91.2287L225.569 112.405C222.72 109.627 220.461 106.326 218.921 102.691C217.381 99.0571 216.591 95.1613 216.596 91.2278L216.598 91.2287Z" fill="#121F55"/>
<path d="M251.872 87.4229C251.545 87.4229 251.231 87.2929 251 87.0615C250.769 86.8302 250.639 86.5164 250.639 86.1892V57.9968C250.638 57.8314 250.671 57.6676 250.735 57.5152C250.799 57.3628 250.894 57.2249 251.012 57.1098C251.131 56.9946 251.272 56.9046 251.426 56.845C251.58 56.7855 251.745 56.7576 251.91 56.7631C267.832 57.4176 280.625 70.2127 281.276 86.1452C281.282 86.3102 281.255 86.4746 281.195 86.6287C281.136 86.7827 281.047 86.9233 280.932 87.042C280.817 87.1607 280.68 87.2551 280.528 87.3195C280.376 87.3839 280.213 87.4171 280.048 87.417C275.076 87.417 256.799 87.417 251.869 87.417L251.872 87.4229Z" fill="#72D8ED"/>
<defs>
<linearGradient id="paint0_linear_137_7909" x1="200.507" y1="295.487" x2="199.969" y2="269.316" gradientUnits="userSpaceOnUse">
<stop stop-color="white" stop-opacity="0"/>
<stop offset="1" stop-color="#82A9FF" stop-opacity="0.21"/>
</linearGradient>
</defs>
</svg>
