<svg width="423" height="310" viewBox="0 0 423 310" fill="none" xmlns="http://www.w3.org/2000/svg">
<path d="M197.385 62.1248H288.379V279.773H197.385V62.1248Z" fill="#82A9FF" fill-opacity="0.21"/>
<g clip-path="url(#clip0_130_9)">
<path d="M141.691 108.06C157.091 108.06 169.575 95.4717 169.575 79.9429C169.575 64.414 157.091 51.8253 141.691 51.8253C126.292 51.8253 113.808 64.414 113.808 79.9429C113.808 95.4717 126.292 108.06 141.691 108.06Z" fill="#F3F2FF"/>
<path d="M141.691 79.9427L144.026 107.959C143.259 108.027 142.459 108.06 141.691 108.06C126.282 108.06 113.808 95.4814 113.808 79.9427H141.691V79.9427Z" fill="#B5B9FF"/>
<path d="M141.691 79.9428H113.808C113.808 74.8305 115.176 70.0209 117.544 65.884L141.691 79.9428Z" fill="#D9DAFF"/>
<path d="M141.425 80.4136L114.842 64.9422L115.109 64.4714C117.81 59.7627 121.713 55.8612 126.382 53.1369C130.885 50.5135 136.121 49 141.691 49H142.225V80.8509L141.425 80.4136ZM116.276 64.5386L141.158 79.0347V50.0763C135.955 50.1772 131.085 51.5898 126.883 54.045C122.547 56.5675 118.878 60.1999 116.276 64.5386Z" fill="white"/>
<path d="M125.115 60.8054L115.509 55.2223H78.2534V54.2805H115.742L125.582 59.9982L125.115 60.8054Z" fill="#EEEDFF"/>
<path d="M115.809 77.5883L108.171 75.5367H78.1533V74.595H108.305L116.043 76.6802L115.809 77.5883Z" fill="#EEEDFF"/>
<path d="M122.747 98.3402L119.945 101.165H77.4863V100.257H119.578L122.113 97.7012L122.747 98.3402Z" fill="#EEEDFF"/>
<path d="M65.7459 51.4889H69.9818C70.2486 51.4889 70.4821 51.7243 70.4821 51.9934V56.2648C70.4821 56.5339 70.2486 56.7693 69.9818 56.7693H65.7459C65.4791 56.7693 65.2456 56.5339 65.2456 56.2648V51.9934C65.2456 51.7243 65.4791 51.4889 65.7459 51.4889Z" fill="#EEEDFF"/>
<path d="M71.783 51.4889H76.0189C76.2857 51.4889 76.5192 51.7243 76.5192 51.9934V56.2648C76.5192 56.5339 76.2857 56.7693 76.0189 56.7693H71.783C71.5162 56.7693 71.2827 56.5339 71.2827 56.2648V51.9934C71.2827 51.7243 71.4828 51.4889 71.783 51.4889Z" fill="#EEEDFF"/>
<path d="M66.513 72.7451H70.7489C71.0157 72.7451 71.2492 72.9806 71.2492 73.2496V77.5211C71.2492 77.7901 71.0157 78.0256 70.7489 78.0256H66.513C66.2462 78.0256 66.0127 77.7901 66.0127 77.5211V73.2496C66.0127 72.9806 66.2462 72.7451 66.513 72.7451Z" fill="#D9DAFF"/>
<path d="M65.0789 97.4994H69.3148C69.5816 97.4994 69.8151 97.7348 69.8151 98.0039V102.275C69.8151 102.544 69.5816 102.78 69.3148 102.78H65.0789C64.8121 102.78 64.5786 102.544 64.5786 102.275V98.0039C64.5786 97.7348 64.8121 97.4994 65.0789 97.4994Z" fill="#B5B9FF"/>
<path d="M71.1158 97.4994H75.3516C75.6185 97.4994 75.8519 97.7348 75.8519 98.0039V102.275C75.8519 102.544 75.6185 102.78 75.3516 102.78H71.1158C70.849 102.78 70.6155 102.544 70.6155 102.275V98.0039C70.6155 97.7348 70.8156 97.4994 71.1158 97.4994Z" fill="#B5B9FF"/>
</g>
<g clip-path="url(#clip1_130_9)">
<path d="M285.462 21.9999C270.062 21.9999 257.579 34.5886 257.579 50.1174C257.579 65.6463 270.062 78.235 285.462 78.235C300.861 78.235 313.345 65.6463 313.345 50.1174C313.345 34.5886 300.861 21.9999 285.462 21.9999Z" fill="#F3F2FF"/>
<path d="M285.462 50.1176L283.127 22.1009C283.894 22.0336 284.695 22 285.462 22C300.871 22 313.345 34.5789 313.345 50.1176L285.462 50.1176V50.1176Z" fill="#B5B9FF"/>
<path d="M285.462 50.1175L313.345 50.1175C313.345 55.2298 311.978 60.0394 309.61 64.1763L285.462 50.1175Z" fill="#D9DAFF"/>
<path d="M285.729 49.6467L312.311 65.1181L312.044 65.5889C309.343 70.2976 305.441 74.1991 300.771 76.9234C296.268 79.5468 291.032 81.0603 285.462 81.0603L284.928 81.0603L284.928 49.2094L285.729 49.6467ZM310.877 65.5217L285.996 51.0257L285.996 79.984C291.199 79.8831 296.068 78.4705 300.271 76.0153C304.607 73.4928 308.276 69.8604 310.877 65.5217Z" fill="white"/>
<path d="M302.039 69.2549L311.644 74.838L348.9 74.838L348.9 75.7798L311.411 75.7798L301.572 70.0621L302.039 69.2549Z" fill="#EEEDFF"/>
<path d="M311.344 52.472L318.982 54.5236L349 54.5236L349 55.4653L318.849 55.4653L311.111 53.3801L311.344 52.472Z" fill="#EEEDFF"/>
<path d="M304.407 31.7201L307.208 28.8949L349.667 28.8949L349.667 29.803L307.575 29.803L305.04 32.3591L304.407 31.7201Z" fill="#EEEDFF"/>
<path d="M361.407 78.5714L357.172 78.5714C356.905 78.5714 356.671 78.336 356.671 78.0669L356.671 73.7955C356.671 73.5264 356.905 73.291 357.172 73.291L361.407 73.291C361.674 73.291 361.908 73.5264 361.908 73.7955L361.908 78.0669C361.908 78.336 361.674 78.5714 361.407 78.5714Z" fill="#EEEDFF"/>
<path d="M355.37 78.5714L351.134 78.5714C350.868 78.5714 350.634 78.336 350.634 78.0669L350.634 73.7955C350.634 73.5264 350.868 73.291 351.134 73.291L355.37 73.291C355.637 73.291 355.871 73.5264 355.871 73.7955L355.871 78.0669C355.871 78.336 355.67 78.5714 355.37 78.5714Z" fill="#EEEDFF"/>
<path d="M360.64 57.3152L356.404 57.3152C356.138 57.3152 355.904 57.0798 355.904 56.8107L355.904 52.5392C355.904 52.2702 356.138 52.0347 356.404 52.0347L360.64 52.0347C360.907 52.0347 361.141 52.2702 361.141 52.5392L361.141 56.8107C361.141 57.0798 360.907 57.3152 360.64 57.3152Z" fill="#D9DAFF"/>
<path d="M362.074 32.5609L357.839 32.5609C357.572 32.5609 357.338 32.3255 357.338 32.0564L357.338 27.785C357.338 27.5159 357.572 27.2805 357.839 27.2805L362.074 27.2805C362.341 27.2805 362.575 27.5159 362.575 27.785L362.575 32.0564C362.575 32.3255 362.341 32.5609 362.074 32.5609Z" fill="#B5B9FF"/>
<path d="M356.038 32.5609L351.802 32.5609C351.535 32.5609 351.301 32.3255 351.301 32.0564L351.301 27.785C351.301 27.5159 351.535 27.2805 351.802 27.2805L356.038 27.2805C356.304 27.2805 356.538 27.5159 356.538 27.785L356.538 32.0564C356.538 32.3255 356.338 32.5609 356.038 32.5609Z" fill="#B5B9FF"/>
</g>
<path fill-rule="evenodd" clip-rule="evenodd" d="M235.161 278.183C249.431 281.933 273.951 283.193 305.174 282.998C334.152 283.02 345.762 285.992 345.327 291.213C341.965 299.31 294.057 303.45 211.832 303.622C143.955 303.833 112.312 298.979 103.171 290.589C89.2896 276.138 191.398 266.874 235.161 278.183Z" fill="url(#paint0_linear_130_9)"/>
<g clip-path="url(#clip2_130_9)">
<path d="M205.129 38.1024C205.129 38.1024 217.032 36.4467 219.424 34.791C219.424 34.791 224.366 34.791 224.791 37.0876C224.791 37.0876 221.921 40.5592 225.535 46.007C225.535 46.007 226.066 43.6036 228.245 43.3899L227.926 34.8978C227.926 34.8978 228.458 29.2898 223.515 27.0466C218.573 24.8034 207.733 26.7261 204.757 30.1443L203.641 33.4557H202.738C202.738 33.4023 201.409 37.6217 205.129 38.1024Z" fill="url(#paint1_linear_130_9)"/>
<path d="M224.844 37.0342C224.844 37.0342 221.974 40.5058 225.588 45.9536C225.588 45.9536 226.119 43.5501 228.298 43.3365L227.979 35.4319C225.96 35.1648 224.844 37.0342 224.844 37.0342Z" fill="#4F4387"/>
<path d="M212.94 69.4538C213.06 69.6141 213.06 69.614 213.06 69.614L213.061 69.6136L213.062 69.6123L213.069 69.6072L213.096 69.5869L213.202 69.5076C213.295 69.4381 213.431 69.3358 213.604 69.2048C213.951 68.9428 214.448 68.5659 215.047 68.1062C216.246 67.1868 217.857 65.9356 219.503 64.609C221.148 63.2828 222.83 61.8796 224.172 60.6563C224.843 60.0448 225.431 59.4763 225.888 58.9834C226.208 58.6377 226.471 58.3212 226.652 58.0481C227.251 59.0362 228.001 59.9826 228.79 60.9195C228.746 60.9828 228.686 61.0692 228.612 61.1782C228.44 61.4316 228.19 61.8069 227.877 62.2959C227.253 63.2707 226.377 64.6971 225.369 66.509L217.872 75.4045L212.606 69.9557L212.485 69.8303L212.344 69.9334L209.15 72.2724L209.668 68.5322L209.772 68.5322L209.792 68.3538L210.055 65.9278C210.242 66.1834 210.434 66.4477 210.628 66.7129C211.465 67.8616 212.314 69.0278 212.788 69.5836L212.91 69.7262L213.06 69.6141L212.94 69.4538Z" fill="white" stroke="black" stroke-width="0.4"/>
<path d="M217.883 75.7028L212.462 70.1482L208.742 72.8721C207.255 74.5278 196.892 86.4382 196.042 96.6928C195.139 107.749 196.042 130.501 193.066 141.29C192.8 142.305 192.535 143.266 192.269 144.227C194.023 145.029 196.52 145.937 199.177 146.15C203.11 146.417 214.428 145.776 219.796 145.402C217.032 136.163 213.95 123.237 213.472 109.885C212.834 92.0996 220.805 75.1153 225.588 66.6232L217.883 75.7028Z" fill="white"/>
<path d="M225.535 66.5697C220.752 75.1153 212.781 92.0461 213.419 109.832C213.897 123.184 216.979 136.109 219.743 145.349C220.965 149.355 222.081 152.666 222.984 155.016L226.172 154.589C226.172 154.589 226.172 154.589 226.226 154.536C227.66 153.36 228.989 152.132 230.211 150.743C240.999 138.459 241.583 119.018 241.583 119.018C232.602 81.6847 243.443 70.522 243.443 70.522C243.443 70.522 234.462 66.6765 229.095 60.8549C229.042 60.9083 227.607 62.9912 225.535 66.5697Z" fill="#36336B"/>
<path d="M222.824 154.535C222.878 154.749 222.984 154.909 223.037 155.07L226.225 154.642C226.225 154.642 226.225 154.642 226.279 154.589C227.713 153.414 229.042 152.185 230.264 150.797C241.051 138.513 241.636 119.071 241.636 119.071C235.791 94.6632 238.341 81.471 240.839 75.222C240.839 75.222 232.071 86.9188 234.515 130.982C234.462 130.982 235.047 146.204 222.824 154.535Z" fill="#27254D"/>
<path d="M243.39 70.5753C243.39 70.5753 232.549 81.7379 241.53 119.071C241.53 119.071 240.945 138.512 230.158 150.797C233.24 152.773 238.395 155.657 242.965 156.405C245.409 153.04 247.96 149.301 248.651 147.645L258.11 125.694C258.11 125.694 252.742 88.8414 252.742 74.314C252.796 74.314 249.448 71.8571 243.39 70.5753Z" fill="#36336B"/>
<path d="M234.994 153.574C237.491 154.856 240.361 155.977 243.018 156.458C245.462 153.093 248.013 149.355 248.704 147.699L258.163 125.748C258.163 125.748 252.796 88.8949 252.796 74.3675C252.796 74.3675 251.148 73.1925 248.119 72.0175C249.607 80.7232 250.936 92.4734 248.385 96.1052C244.187 102.087 259.226 116.134 253.008 123.878C248.598 129.379 238.235 143.159 234.994 153.574Z" fill="#27254D"/>
<path d="M242.965 156.458C238.395 155.657 233.24 152.773 230.158 150.85C228.989 152.239 227.66 153.467 226.172 154.642C226.172 154.642 231.114 160.464 236.056 162.76L237.81 163.348C237.863 163.348 240.361 160.09 242.965 156.458Z" fill="white"/>
<path d="M193.704 90.8712C193.704 90.8712 191.259 110.419 189.825 115.707C189.825 115.707 183.129 136.269 184.617 161.799L186.955 161.639C186.955 161.639 189.559 153.788 192.269 144.227C192.535 143.266 192.8 142.305 193.066 141.29C196.042 130.501 195.085 107.749 196.042 96.6928C196.892 86.3847 207.255 74.5278 208.742 72.8721C208.849 72.7653 208.902 72.6585 208.902 72.6585L209.486 68.4391C208.424 69.1334 199.23 75.2221 197.849 76.5574C196.945 77.4653 195.723 84.6222 193.704 90.8712Z" fill="#36336B"/>
<path d="M189.824 115.707C191.259 110.419 193.704 90.8711 193.704 90.8711C192.588 94.3961 191.153 97.6007 189.399 99.3632C189.399 99.3632 177.496 99.6303 169.153 93.7018C169.153 93.7018 166.815 96.4791 166.443 102.461L167.665 108.229C167.665 108.283 181.853 116.668 189.824 115.707Z" fill="#36336B"/>
<path d="M189.825 115.707C191.259 110.419 193.704 90.8711 193.704 90.8711C192.588 94.3961 191.153 97.6007 189.4 99.3632C189.4 99.3632 190.037 107.161 188.23 111.38C188.23 111.38 174.255 109.03 166.868 104.277L167.665 108.229C167.665 108.283 181.854 116.668 189.825 115.707Z" fill="#27254D"/>
<path d="M164.586 90.4993C164.653 90.4452 164.715 90.3972 164.771 90.3552L165.003 90.6117C166.033 91.8428 167.196 92.9422 168.454 93.8695C168.424 93.9143 168.393 93.9625 168.36 94.0143C168.122 94.3884 167.806 94.9451 167.48 95.6911C166.906 97.0009 166.303 98.8909 166.036 101.396L161.429 96.7665C161.599 94.4419 162.503 92.7939 163.371 91.7195C163.82 91.164 164.26 90.7613 164.586 90.4993Z" fill="white" stroke="black"/>
<path d="M164.17 89.5429C164.12 89.581 164.067 89.6225 164.011 89.6673C163.64 89.9661 163.147 90.4179 162.647 91.0375C161.707 92.2001 160.741 93.9516 160.508 96.3744C160.375 96.3864 160.237 96.4092 160.099 96.4376C159.745 96.5106 159.336 96.6329 158.932 96.755L158.906 96.7628C158.073 97.0147 157.269 97.2576 156.677 97.261C156.611 97.2563 156.49 97.225 156.307 97.1344C156.123 97.0437 155.91 96.9102 155.675 96.7406C155.206 96.4016 154.688 95.9466 154.2 95.4826C153.727 95.0328 153.292 94.5834 152.968 94.2398L153.805 94.0172L155.768 94.9052L156.225 95.1117L156.429 94.6572L156.429 94.657L156.429 94.6569L156.432 94.6508C156.436 94.6435 156.442 94.6305 156.452 94.6121C156.472 94.5754 156.504 94.5176 156.552 94.443C156.647 94.2937 156.802 94.0772 157.033 93.8272C157.493 93.3284 158.258 92.6911 159.462 92.1869L159.784 92.052L159.769 91.7031L159.769 91.7031L159.769 91.7031L159.769 91.7029L159.768 91.7018L159.768 91.6971L159.767 91.6779L159.764 91.6026C159.762 91.5368 159.758 91.4409 159.755 91.3214C159.747 91.0821 159.739 90.7488 159.736 90.3727C159.729 89.6141 159.743 88.7056 159.819 88.044L159.885 87.4665L159.305 87.4873L159.305 87.4873L159.304 87.4873L159.304 87.4873L159.304 87.4873L159.3 87.4874L159.28 87.4879C159.261 87.4882 159.233 87.4885 159.195 87.4884C159.119 87.4881 159.009 87.486 158.874 87.4786C158.602 87.4637 158.236 87.4277 157.854 87.3448C157.641 87.2986 157.436 87.2407 157.245 87.1698C158.151 87.2103 159.066 87.1363 159.839 87.034C160.486 86.9484 161.051 86.8407 161.455 86.7543C161.586 86.7262 161.7 86.7004 161.794 86.6782L164.17 89.5429Z" fill="white" stroke="black"/>
<path d="M155.978 93.478C155.878 93.6011 155.794 93.7138 155.726 93.8125L155.33 93.6336L155.978 93.478ZM158.704 91.4078C158.17 91.6596 157.714 91.9364 157.329 92.2152L158.404 90.6768L158.682 90.2785C158.682 90.32 158.682 90.3611 158.683 90.4015C158.686 90.7833 158.695 91.1193 158.702 91.36C158.703 91.3764 158.703 91.3923 158.704 91.4078ZM158.726 88.4668C158.693 88.9756 158.682 89.5283 158.681 90.0289L158.1 89.902L155.272 89.2839L155.656 88.8546L155.664 88.8459L155.671 88.8368L155.284 88.5211C155.671 88.8368 155.671 88.8366 155.672 88.8364L155.672 88.836L155.673 88.8352L155.674 88.8334L155.677 88.8291L155.686 88.8178C155.693 88.8089 155.701 88.7977 155.711 88.784C155.73 88.7568 155.755 88.7198 155.783 88.6739C155.837 88.5827 155.904 88.4527 155.957 88.2913C156.013 88.1223 156.055 87.9167 156.052 87.6867C156.54 88.0108 157.109 88.1939 157.585 88.3012C158.016 88.3983 158.423 88.4446 158.726 88.4668Z" fill="white" stroke="black"/>
<path d="M156.24 92.9006L157.994 90.3904L154.327 89.5892L152.627 90.1767L152.042 93.9688L153.796 93.4881L156.24 92.9006Z" fill="white"/>
<path d="M155.061 87.9765C155.05 88.0115 155.037 88.0435 155.024 88.072L152.139 88.6243C151.993 88.4904 151.851 88.3522 151.732 88.2284C151.648 88.1405 151.581 88.0654 151.534 88.0079C151.517 87.9857 151.505 87.9701 151.498 87.9606C151.499 87.9591 151.499 87.9576 151.499 87.956C151.506 87.9147 151.526 87.855 151.559 87.7828C151.567 87.7668 151.574 87.7511 151.582 87.7357L155.105 87.6909C155.108 87.7984 155.089 87.8946 155.061 87.9765ZM151.497 87.9804C151.497 87.9804 151.496 87.9796 151.497 87.978C151.497 87.9795 151.497 87.9803 151.497 87.9804Z" fill="white" stroke="black"/>
<path d="M192.269 144.227C189.559 153.788 186.955 161.639 186.955 161.639C186.955 161.639 179.569 189.946 179.356 215.102C179.356 215.102 193.279 236.359 191.047 270.434C191.047 270.434 197.052 277.057 206.989 273.959C206.989 273.959 208.211 227.119 199.655 215.209C199.655 215.209 201.675 201.429 206.883 196.782C206.883 196.782 208.37 213.553 213.738 221.938C213.738 221.938 222.293 253.824 214.854 275.028C214.854 275.028 214.854 275.508 214.747 276.256C218.573 279.14 227.607 279.407 227.607 279.407C227.607 279.407 243.921 240.739 228.882 211.47C228.882 211.47 227.395 184.445 235.206 166.766L232.443 167.087C229.892 169.383 227.554 170.398 227.554 170.398L221.124 159.93C221.124 159.93 221.071 159.93 217.032 160.517C212.994 161.105 213.844 158.701 213.844 158.701C215.916 158.488 221.602 155.283 221.602 155.283L223.037 155.069C222.187 152.719 221.018 149.408 219.796 145.402C214.482 145.776 203.11 146.417 199.177 146.15C196.467 145.936 193.969 145.028 192.269 144.227Z" fill="#36336B"/>
<path d="M224.047 279.033C226.066 279.3 227.554 279.3 227.554 279.3C227.554 279.3 243.868 240.632 228.829 211.363C228.829 211.363 227.341 184.338 235.153 166.659L232.39 166.98C230.37 168.796 228.51 169.811 227.82 170.184C225.109 178.837 221.549 194.432 223.94 211.15C223.94 211.15 234.568 252.969 223.94 278.232C223.94 278.286 223.993 278.553 224.047 279.033Z" fill="#27254D"/>
<path d="M201.887 274.707C203.429 274.707 205.129 274.44 206.989 273.853C206.989 273.853 208.211 227.013 199.656 215.102C199.656 215.102 201.675 201.322 206.883 196.676C206.883 196.676 205.607 175.579 205.82 168.849C205.82 168.849 192.429 190.854 194.714 213.179C194.66 213.233 202.259 249.605 201.887 274.707Z" fill="#27254D"/>
<path d="M227.554 279.301C227.554 279.301 218.52 279.034 214.694 276.149C214.375 278.072 213.047 281.757 208.264 283.68C207.202 286.03 203.747 288.54 203.747 288.54C203.747 288.54 197.796 290.089 197.424 292.333C197.105 294.629 197.052 294.896 197.052 294.896C197.052 294.896 216.873 298.955 223.144 292.546L223.356 293.134C223.356 293.134 227.979 293.347 229.148 291.531C229.148 291.531 230.636 283.306 227.554 279.301Z" fill="#36336B"/>
<path d="M227.554 279.301C227.554 279.301 226.066 279.247 224.047 279.034C222.771 278.873 221.337 278.66 219.902 278.286C217.936 277.805 216.023 277.111 214.747 276.149C214.641 276.737 214.428 277.485 214.11 278.286C214.003 278.499 213.897 278.767 213.791 278.98C213.897 279.087 214.003 279.14 214.11 279.247C216.023 280.689 219.211 282.185 224.578 282.612C224.897 285.496 225.216 289.448 224.95 293.134C226.385 293.027 228.457 292.706 229.148 291.585C229.148 291.531 230.636 283.306 227.554 279.301Z" fill="#27254D"/>
<path d="M208.264 283.68C208.424 282.078 206.989 273.906 206.989 273.906C197.052 277.004 191.047 270.381 191.047 270.381C191.047 270.381 187.911 281.757 178.718 282.665C169.525 283.573 168.515 283.039 167.718 286.19C167.718 286.19 181.641 292.546 193.651 287.098C193.651 287.098 197.583 286.938 197.795 288.54L203.747 288.487C203.694 288.54 207.201 286.03 208.264 283.68Z" fill="#36336B"/>
<mask id="path-50-inside-1_130_9" fill="white">
<path fill-rule="evenodd" clip-rule="evenodd" d="M205.259 39.4909C205.251 39.4909 205.243 39.491 205.235 39.491L205.188 38.2092L205.182 38.1023C205.182 38.1023 205.183 38.1022 205.184 38.1021L205.182 38.0489C205.182 38.0489 211.718 37.1409 216.076 35.9659C217.617 35.5386 218.839 35.1114 219.477 34.6841C219.477 34.6841 220.752 34.6841 222.081 35.0045C223.356 35.2716 224.631 35.8591 224.844 36.9807C224.844 36.9807 224.834 36.9926 224.816 37.0162C224.827 37.057 224.836 37.0986 224.844 37.141C224.844 37.141 223.788 38.4375 223.764 40.6612C223.78 42.0787 224.218 43.8551 225.588 45.9001C225.499 45.8205 225.414 45.7411 225.33 45.6619C225.412 45.7936 225.498 45.9264 225.588 46.0604C225.588 46.0604 226.172 43.6035 228.298 43.4433C229.755 43.7363 229.747 45.3237 229.735 47.6752C229.734 47.8959 229.733 48.1233 229.733 48.357C229.733 51.0809 226.651 52.8968 226.651 52.8968H226.651V56.7731C225.535 59.1765 212.94 68.5766 212.94 68.5766C212.25 67.8289 210.921 65.9595 209.911 64.5175L210.234 61.8003C209.863 61.5021 208.917 60.7078 208.37 59.9469C207.68 58.9855 206.085 52.6298 206.085 52.6298L205.554 44.832L205.259 39.4909ZM205.501 44.7784L206.032 52.5762C205.023 52.416 204.013 46.3273 204.013 45.6864C204.013 44.9921 205.501 44.7784 205.501 44.7784Z"/>
</mask>
<path fill-rule="evenodd" clip-rule="evenodd" d="M205.259 39.4909C205.251 39.4909 205.243 39.491 205.235 39.491L205.188 38.2092L205.182 38.1023C205.182 38.1023 205.183 38.1022 205.184 38.1021L205.182 38.0489C205.182 38.0489 211.718 37.1409 216.076 35.9659C217.617 35.5386 218.839 35.1114 219.477 34.6841C219.477 34.6841 220.752 34.6841 222.081 35.0045C223.356 35.2716 224.631 35.8591 224.844 36.9807C224.844 36.9807 224.834 36.9926 224.816 37.0162C224.827 37.057 224.836 37.0986 224.844 37.141C224.844 37.141 223.788 38.4375 223.764 40.6612C223.78 42.0787 224.218 43.8551 225.588 45.9001C225.499 45.8205 225.414 45.7411 225.33 45.6619C225.412 45.7936 225.498 45.9264 225.588 46.0604C225.588 46.0604 226.172 43.6035 228.298 43.4433C229.755 43.7363 229.747 45.3237 229.735 47.6752C229.734 47.8959 229.733 48.1233 229.733 48.357C229.733 51.0809 226.651 52.8968 226.651 52.8968H226.651V56.7731C225.535 59.1765 212.94 68.5766 212.94 68.5766C212.25 67.8289 210.921 65.9595 209.911 64.5175L210.234 61.8003C209.863 61.5021 208.917 60.7078 208.37 59.9469C207.68 58.9855 206.085 52.6298 206.085 52.6298L205.554 44.832L205.259 39.4909ZM205.501 44.7784L206.032 52.5762C205.023 52.416 204.013 46.3273 204.013 45.6864C204.013 44.9921 205.501 44.7784 205.501 44.7784Z" fill="white"/>
<path d="M205.235 39.491L204.236 39.5278L204.271 40.491H205.235V39.491ZM205.259 39.4909L206.257 39.4358L206.205 38.4905L205.258 38.4909L205.259 39.4909ZM205.188 38.2092L206.187 38.1724L206.187 38.1632L206.186 38.154L205.188 38.2092ZM205.182 38.1023L205.045 37.1118L204.133 37.2384L204.184 38.1575L205.182 38.1023ZM205.184 38.1021L205.322 39.0925L206.217 38.9676L206.183 38.0652L205.184 38.1021ZM205.182 38.0489L205.044 37.0584L204.149 37.1827L204.183 38.0857L205.182 38.0489ZM216.076 35.9659L216.336 36.9315L216.343 36.9296L216.076 35.9659ZM219.477 34.6841V33.6841L219.173 33.6841L218.92 33.8533L219.477 34.6841ZM222.081 35.0045L221.846 35.9767L221.861 35.9802L221.876 35.9833L222.081 35.0045ZM224.844 36.9807L225.619 37.612L225.913 37.2514L225.826 36.7945L224.844 36.9807ZM224.816 37.0162L224.015 36.4177L223.728 36.8018L223.848 37.2661L224.816 37.0162ZM224.844 37.141L225.619 37.7723L225.91 37.4156L225.828 36.9629L224.844 37.141ZM223.764 40.6613L222.764 40.6502L222.764 40.6614L222.764 40.6725L223.764 40.6613ZM225.588 45.9001L224.919 46.6433L226.419 45.3436L225.588 45.9001ZM225.33 45.6619L226.02 44.9376L224.481 46.1901L225.33 45.6619ZM225.588 46.0604L224.757 46.6169L226.031 48.5186L226.561 46.2918L225.588 46.0604ZM228.298 43.4433L228.495 42.4629L228.36 42.4358L228.223 42.4461L228.298 43.4433ZM229.735 47.6752L228.735 47.67V47.67L229.735 47.6752ZM226.651 52.8968V53.8968H226.923L227.158 53.7584L226.651 52.8968ZM226.651 52.8968V51.8968H225.651V52.8968H226.651ZM226.651 56.7731L227.558 57.1942L227.651 56.9939V56.7731H226.651ZM212.94 68.5766L212.206 69.2552L212.817 69.9166L213.539 69.378L212.94 68.5766ZM209.911 64.5175L208.918 64.3995L208.873 64.7784L209.092 65.091L209.911 64.5175ZM210.234 61.8003L211.227 61.9183L211.293 61.3682L210.861 61.021L210.234 61.8003ZM208.37 59.9469L207.558 60.5304H207.558L208.37 59.9469ZM206.085 52.6298L205.088 52.6978L205.094 52.7866L205.115 52.8731L206.085 52.6298ZM205.554 44.832L204.555 44.8871L204.556 44.8999L205.554 44.832ZM206.032 52.5762L205.876 53.5639L207.115 53.7606L207.03 52.5082L206.032 52.5762ZM205.501 44.7784L206.499 44.7104L206.425 43.6354L205.359 43.7886L205.501 44.7784ZM205.235 40.491C205.243 40.491 205.251 40.4909 205.259 40.4909L205.258 38.4909C205.251 38.4909 205.243 38.491 205.235 38.491V40.491ZM204.189 38.246L204.236 39.5278L206.234 39.4541L206.187 38.1724L204.189 38.246ZM204.184 38.1575L204.189 38.2644L206.186 38.154L206.18 38.0471L204.184 38.1575ZM205.046 37.1117C205.045 37.1117 205.045 37.1118 205.045 37.1118C205.045 37.1118 205.044 37.1118 205.044 37.1118C205.044 37.1118 205.044 37.1118 205.044 37.1118C205.044 37.1118 205.044 37.1118 205.044 37.1118C205.044 37.1118 205.044 37.1118 205.044 37.1118C205.044 37.1118 205.044 37.1118 205.044 37.1118C205.044 37.1118 205.044 37.1118 205.044 37.1118C205.044 37.1118 205.045 37.1118 205.045 37.1118C205.045 37.1118 205.045 37.1118 205.045 37.1118C205.045 37.1118 205.045 37.1118 205.182 38.1023C205.32 39.0928 205.32 39.0928 205.32 39.0928C205.32 39.0928 205.32 39.0928 205.32 39.0928C205.32 39.0928 205.32 39.0928 205.32 39.0928C205.32 39.0928 205.32 39.0928 205.32 39.0928C205.32 39.0928 205.32 39.0928 205.32 39.0928C205.32 39.0928 205.32 39.0928 205.32 39.0928C205.32 39.0928 205.32 39.0928 205.32 39.0928C205.32 39.0928 205.32 39.0928 205.32 39.0928C205.32 39.0928 205.32 39.0927 205.32 39.0927C205.321 39.0927 205.321 39.0926 205.322 39.0925L205.046 37.1117ZM204.183 38.0857L204.185 38.1389L206.183 38.0652L206.181 38.0121L204.183 38.0857ZM215.815 35.0004C213.683 35.5754 210.997 36.0899 208.826 36.4624C207.744 36.6481 206.797 36.7973 206.121 36.9C205.783 36.9514 205.513 36.9911 205.328 37.0179C205.235 37.0313 205.164 37.0415 205.116 37.0483C205.092 37.0517 205.074 37.0543 205.062 37.0559C205.056 37.0568 205.051 37.0574 205.049 37.0578C205.047 37.058 205.046 37.0582 205.045 37.0583C205.045 37.0583 205.045 37.0584 205.045 37.0584C205.044 37.0584 205.044 37.0584 205.044 37.0584C205.044 37.0584 205.044 37.0584 205.182 38.0489C205.32 39.0394 205.32 39.0394 205.32 39.0394C205.32 39.0393 205.32 39.0393 205.32 39.0393C205.32 39.0393 205.321 39.0392 205.321 39.0392C205.322 39.039 205.323 39.0389 205.325 39.0386C205.328 39.0382 205.333 39.0375 205.34 39.0366C205.353 39.0347 205.372 39.032 205.397 39.0285C205.447 39.0214 205.52 39.011 205.615 38.9973C205.804 38.9698 206.079 38.9294 206.422 38.8773C207.107 38.7731 208.067 38.6219 209.164 38.4336C211.35 38.0585 214.111 37.5315 216.336 36.9314L215.815 35.0004ZM218.92 33.8533C218.436 34.1774 217.369 34.5695 215.809 35.0023L216.343 36.9296C217.864 36.5077 219.242 36.0453 220.033 35.5148L218.92 33.8533ZM222.315 34.0324C221.585 33.8563 220.879 33.7702 220.363 33.7275C220.103 33.706 219.886 33.6952 219.732 33.6897C219.655 33.687 219.594 33.6856 219.551 33.6848C219.529 33.6845 219.512 33.6843 219.499 33.6842C219.493 33.6841 219.488 33.6841 219.484 33.6841C219.482 33.6841 219.481 33.6841 219.48 33.6841C219.479 33.6841 219.478 33.6841 219.478 33.6841C219.478 33.6841 219.477 33.6841 219.477 33.6841C219.477 33.6841 219.477 33.6841 219.477 33.6841C219.477 33.6841 219.477 33.6841 219.477 34.6841C219.477 35.6841 219.477 35.6841 219.476 35.6841C219.476 35.6841 219.476 35.6841 219.476 35.6841C219.476 35.6841 219.476 35.6841 219.476 35.6841C219.476 35.6841 219.476 35.6841 219.476 35.6841C219.476 35.6841 219.476 35.6841 219.476 35.6841C219.477 35.6841 219.48 35.6841 219.483 35.6841C219.49 35.6842 219.502 35.6843 219.517 35.6846C219.549 35.6851 219.598 35.6862 219.661 35.6885C219.788 35.693 219.973 35.7022 220.198 35.7207C220.651 35.7582 221.248 35.8324 221.846 35.9767L222.315 34.0324ZM225.826 36.7945C225.652 35.8743 225.047 35.2407 224.397 34.8279C223.753 34.4193 222.987 34.1727 222.285 34.0258L221.876 35.9833C222.449 36.1034 222.959 36.2841 223.325 36.5164C223.684 36.7445 223.823 36.9655 223.861 37.1669L225.826 36.7945ZM225.618 37.6147C225.622 37.6087 225.625 37.6055 225.625 37.605C225.625 37.6048 225.625 37.6053 225.624 37.6064C225.623 37.607 225.623 37.6077 225.622 37.6087C225.622 37.6091 225.621 37.6097 225.621 37.6102C225.621 37.6105 225.62 37.6108 225.62 37.6111C225.62 37.6112 225.62 37.6114 225.62 37.6115C225.62 37.6116 225.62 37.6117 225.62 37.6118C225.62 37.6118 225.619 37.6118 225.619 37.6119C225.619 37.6119 225.619 37.6119 225.619 37.6119C225.619 37.612 225.619 37.612 224.844 36.9807C224.068 36.3494 224.068 36.3494 224.068 36.3495C224.068 36.3495 224.068 36.3495 224.068 36.3495C224.068 36.3496 224.068 36.3496 224.068 36.3496C224.068 36.3497 224.068 36.3498 224.068 36.3499C224.068 36.35 224.068 36.3502 224.067 36.3504C224.067 36.3507 224.067 36.3511 224.067 36.3515C224.066 36.3522 224.065 36.353 224.065 36.3538C224.063 36.3555 224.062 36.3574 224.06 36.3594C224.057 36.3636 224.053 36.3685 224.049 36.3742C224.04 36.3856 224.029 36.4001 224.015 36.4177L225.618 37.6147ZM225.828 36.9629C225.816 36.8965 225.801 36.8309 225.785 36.7663L223.848 37.2661C223.853 37.2832 223.857 37.3008 223.86 37.319L225.828 36.9629ZM224.764 40.6723C224.774 39.719 225.005 38.973 225.227 38.4725C225.338 38.222 225.447 38.0342 225.523 37.9147C225.56 37.855 225.59 37.8128 225.607 37.7887C225.616 37.7767 225.622 37.7693 225.624 37.7665C225.625 37.7651 225.625 37.7649 225.625 37.7658C225.624 37.7663 225.624 37.7671 225.623 37.7682C225.622 37.7687 225.622 37.7693 225.621 37.77C225.621 37.7703 225.621 37.7707 225.62 37.7711C225.62 37.7713 225.62 37.7716 225.62 37.7717C225.62 37.772 225.619 37.7723 224.844 37.141C224.068 36.5096 224.068 36.51 224.068 36.5103C224.068 36.5104 224.067 36.5107 224.067 36.511C224.067 36.5114 224.066 36.5119 224.066 36.5124C224.065 36.5134 224.064 36.5145 224.063 36.5157C224.062 36.518 224.059 36.5207 224.057 36.5237C224.052 36.5297 224.047 36.537 224.04 36.5457C224.027 36.563 224.01 36.5855 223.989 36.6133C223.949 36.6688 223.896 36.7452 223.835 36.8419C223.712 37.035 223.555 37.3103 223.399 37.6619C223.087 38.3656 222.778 39.3797 222.764 40.6502L224.764 40.6723ZM226.419 45.3436C225.148 43.4468 224.777 41.8579 224.764 40.65L222.764 40.6725C222.782 42.2996 223.288 44.2634 224.757 46.4567L226.419 45.3436ZM224.641 46.3863C224.731 46.4719 224.823 46.5576 224.919 46.6433L226.257 45.157C226.175 45.0834 226.096 45.0103 226.02 44.9376L224.641 46.3863ZM226.419 45.5038C226.335 45.3791 226.255 45.2557 226.18 45.1337L224.481 46.1901C224.569 46.3315 224.661 46.4737 224.757 46.6169L226.419 45.5038ZM228.223 42.4461C226.733 42.5584 225.814 43.4872 225.307 44.2673C225.052 44.6599 224.883 45.0403 224.777 45.3204C224.723 45.4618 224.685 45.5812 224.659 45.6686C224.646 45.7124 224.636 45.7485 224.629 45.7755C224.625 45.7891 224.622 45.8004 224.62 45.8093C224.619 45.8138 224.618 45.8177 224.617 45.8209C224.616 45.8226 224.616 45.8241 224.616 45.8254C224.616 45.8261 224.615 45.8267 224.615 45.8273C224.615 45.8276 224.615 45.828 224.615 45.8281C224.615 45.8285 224.615 45.8289 225.588 46.0604C226.561 46.2918 226.561 46.2922 226.56 46.2926C226.56 46.2927 226.56 46.293 226.56 46.2933C226.56 46.2937 226.56 46.2941 226.56 46.2945C226.56 46.2952 226.56 46.2958 226.56 46.2962C226.559 46.2972 226.559 46.2975 226.559 46.2973C226.559 46.297 226.56 46.2945 226.561 46.29C226.564 46.281 226.568 46.2641 226.575 46.2404C226.59 46.1928 226.613 46.119 226.648 46.0276C226.718 45.842 226.828 45.5982 226.984 45.3565C227.302 44.8681 227.737 44.4884 228.373 44.4405L228.223 42.4461ZM230.735 47.6803C230.741 46.5557 230.754 45.4245 230.539 44.5488C230.426 44.089 230.234 43.6189 229.882 43.2287C229.518 42.8233 229.044 42.5733 228.495 42.4629L228.101 44.4237C228.28 44.4598 228.352 44.5181 228.396 44.5662C228.452 44.6295 228.531 44.7582 228.596 45.0258C228.739 45.6049 228.741 46.4432 228.735 47.67L230.735 47.6803ZM230.733 48.357C230.733 48.1263 230.734 47.9014 230.735 47.6803L228.735 47.67C228.734 47.8903 228.733 48.1203 228.733 48.357H230.733ZM226.651 52.8968C227.158 53.7584 227.159 53.7582 227.159 53.758C227.159 53.758 227.159 53.7578 227.159 53.7577C227.16 53.7574 227.16 53.7571 227.161 53.7567C227.162 53.7561 227.163 53.7553 227.165 53.7544C227.168 53.7526 227.172 53.7504 227.176 53.7477C227.185 53.7423 227.197 53.7351 227.211 53.7262C227.24 53.7082 227.28 53.6831 227.329 53.651C227.428 53.5869 227.564 53.4946 227.725 53.3757C228.046 53.1392 228.476 52.7912 228.909 52.3446C229.753 51.4745 230.733 50.1007 230.733 48.357H228.733C228.733 49.3372 228.171 50.2333 227.474 50.9522C227.136 51.3 226.796 51.5762 226.539 51.7653C226.412 51.8592 226.307 51.9301 226.237 51.9759C226.202 51.9988 226.175 52.0153 226.159 52.0253C226.151 52.0303 226.146 52.0337 226.143 52.0353C226.141 52.0362 226.141 52.0366 226.141 52.0366C226.141 52.0365 226.141 52.0364 226.141 52.0362C226.141 52.0361 226.142 52.036 226.142 52.0358C226.142 52.0357 226.142 52.0356 226.142 52.0355C226.143 52.0354 226.143 52.0352 226.651 52.8968ZM226.651 53.8968H226.651V51.8968H226.651V53.8968ZM227.651 56.7731V52.8968H225.651V56.7731H227.651ZM212.94 68.5766C213.539 69.378 213.539 69.3779 213.539 69.3778C213.539 69.3778 213.539 69.3776 213.539 69.3775C213.54 69.3771 213.54 69.3767 213.541 69.3761C213.543 69.3749 213.545 69.3731 213.548 69.3708C213.554 69.3661 213.564 69.3592 213.576 69.3502C213.6 69.3321 213.636 69.3052 213.682 69.2702C213.776 69.2002 213.912 69.0975 214.086 68.966C214.435 68.703 214.933 68.3249 215.534 67.8638C216.736 66.942 218.352 65.6866 220.005 64.3547C221.655 63.0246 223.352 61.6097 224.711 60.3704C225.39 59.7514 225.997 59.1659 226.475 58.6499C226.929 58.1593 227.346 57.65 227.558 57.1942L225.744 56.3519C225.676 56.497 225.455 56.8072 225.007 57.2907C224.583 57.7487 224.023 58.292 223.364 58.8923C222.048 60.0914 220.387 61.4772 218.749 62.7976C217.114 64.1161 215.511 65.361 214.317 66.2768C213.72 66.7345 213.226 67.1095 212.881 67.37C212.709 67.5002 212.574 67.6018 212.482 67.6707C212.436 67.7051 212.401 67.7313 212.377 67.7489C212.366 67.7577 212.357 67.7644 212.351 67.7688C212.348 67.771 212.346 67.7726 212.344 67.7737C212.344 67.7742 212.343 67.7746 212.343 67.7749C212.343 67.775 212.342 67.7751 212.342 67.7752C212.342 67.7752 212.342 67.7752 212.94 68.5766ZM209.092 65.091C210.082 66.5052 211.458 68.4451 212.206 69.2552L213.675 67.898C213.042 67.2126 211.76 65.4138 210.731 63.9439L209.092 65.091ZM209.241 61.6824L208.918 64.3995L210.904 64.6354L211.227 61.9183L209.241 61.6824ZM207.558 60.5304C208.193 61.4137 209.238 62.2827 209.608 62.5797L210.861 61.021C210.488 60.7216 209.641 60.0018 209.183 59.3633L207.558 60.5304ZM206.085 52.6298C205.115 52.8731 205.115 52.8731 205.115 52.8732C205.115 52.8732 205.116 52.8734 205.116 52.8735C205.116 52.8737 205.116 52.874 205.116 52.8745C205.116 52.8753 205.116 52.8766 205.117 52.8782C205.118 52.8814 205.119 52.8861 205.12 52.8924C205.123 52.9048 205.128 52.923 205.134 52.9468C205.146 52.9943 205.164 53.0639 205.186 53.1526C205.232 53.3299 205.297 53.584 205.378 53.8916C205.539 54.5065 205.762 55.3378 206.007 56.2008C206.251 57.0615 206.52 57.964 206.774 58.7176C206.901 59.0938 207.028 59.4438 207.15 59.738C207.262 60.0102 207.399 60.3086 207.558 60.5304L209.183 59.3633C209.183 59.3643 209.164 59.3358 209.126 59.2595C209.09 59.1879 209.047 59.0935 208.998 58.9749C208.9 58.7375 208.789 58.4332 208.669 58.0784C208.431 57.3699 208.172 56.5032 207.931 55.6549C207.691 54.8087 207.472 53.991 207.313 53.3841C207.233 53.0809 207.169 52.8309 207.124 52.6569C207.102 52.5699 207.085 52.502 207.073 52.4559C207.067 52.4329 207.063 52.4154 207.06 52.4037C207.058 52.3978 207.057 52.3935 207.056 52.3906C207.056 52.3891 207.056 52.3881 207.056 52.3874C207.055 52.387 207.055 52.3868 207.055 52.3866C207.055 52.3866 207.055 52.3865 207.055 52.3865C207.055 52.3865 207.055 52.3865 206.085 52.6298ZM204.556 44.8999L205.088 52.6978L207.083 52.5618L206.552 44.764L204.556 44.8999ZM204.26 39.5461L204.556 44.8871L206.552 44.7768L206.257 39.4358L204.26 39.5461ZM207.03 52.5082L206.499 44.7104L204.503 44.8464L205.035 52.6442L207.03 52.5082ZM203.013 45.6864C203.013 45.9463 203.094 46.5358 203.2 47.175C203.313 47.8557 203.475 48.7033 203.67 49.5388C203.863 50.3663 204.097 51.2171 204.36 51.8873C204.49 52.2181 204.644 52.5499 204.828 52.822C204.976 53.0392 205.309 53.474 205.876 53.5639L206.189 51.5886C206.503 51.6384 206.584 51.8478 206.483 51.6989C206.419 51.6048 206.329 51.4297 206.222 51.1571C206.011 50.6206 205.803 49.8791 205.618 49.0843C205.434 48.2975 205.28 47.4928 205.173 46.8466C205.119 46.5236 205.078 46.2448 205.05 46.0313C205.036 45.9243 205.026 45.8376 205.02 45.7723C205.013 45.6989 205.013 45.6766 205.013 45.6864H203.013ZM205.501 44.7784C205.359 43.7886 205.359 43.7886 205.358 43.7886C205.358 43.7886 205.358 43.7887 205.358 43.7887C205.357 43.7888 205.357 43.7888 205.357 43.7889C205.356 43.789 205.355 43.7891 205.354 43.7892C205.352 43.7895 205.35 43.7899 205.347 43.7903C205.342 43.7911 205.335 43.7921 205.327 43.7934C205.311 43.796 205.289 43.7996 205.263 43.8042C205.21 43.8135 205.138 43.8273 205.052 43.8463C204.885 43.8834 204.649 43.9439 204.404 44.0363C204.17 44.1244 203.865 44.2645 203.601 44.4872C203.33 44.7153 203.013 45.1137 203.013 45.6864H205.013C205.013 45.9119 204.882 46.0232 204.89 46.016C204.905 46.0033 204.971 45.9598 205.11 45.9078C205.236 45.8599 205.373 45.8236 205.484 45.799C205.538 45.7871 205.582 45.7787 205.611 45.7737C205.625 45.7711 205.636 45.7694 205.641 45.7686C205.644 45.7681 205.646 45.7679 205.646 45.7678C205.646 45.7678 205.646 45.7678 205.645 45.7679C205.645 45.7679 205.645 45.768 205.644 45.768C205.644 45.7681 205.644 45.7681 205.644 45.7681C205.644 45.7682 205.643 45.7682 205.643 45.7682C205.643 45.7682 205.643 45.7683 205.501 44.7784Z" fill="black" mask="url(#path-50-inside-1_130_9)"/>
<path d="M222.027 73.3527C223.25 70.7357 224.472 68.439 225.535 66.5697L222.027 70.7357L217.883 75.6493L216.076 73.78L212.462 70.0947L208.742 72.7652L212.197 71.1629L216.076 74.688L218.68 77.0914L221.496 74.4743C221.709 74.1539 221.868 73.78 222.027 73.3527Z" fill="#0AC41E"/>
<path d="M194.448 149.141C195.936 149.568 197.689 150.049 199.709 150.423C204.013 151.224 209.54 151.705 216.076 151.117C217.776 150.957 219.53 150.743 221.39 150.476V150.423C220.912 148.927 220.327 147.218 219.796 145.402C218.733 145.456 217.457 145.563 216.076 145.616C215.81 145.616 215.491 145.669 215.172 145.669C209.486 145.99 202.153 146.364 199.177 146.15C198.327 146.097 197.53 145.99 196.786 145.776C195.032 145.402 193.491 144.761 192.269 144.227C191.897 145.509 191.525 146.791 191.206 147.966C192.057 148.34 193.172 148.714 194.448 149.141Z" fill="#27254D"/>
<path d="M206.936 273.906C205.129 274.494 203.428 274.707 201.834 274.761C194.979 274.814 190.994 270.435 190.994 270.435C190.994 270.435 190.728 271.503 190.037 272.998C192.163 274.974 195.723 277.057 201.781 277.912C201.675 280.796 201.409 283.52 200.984 285.977C200.825 286.885 200.665 287.793 200.453 288.594H203.694C203.694 288.594 205.288 287.472 206.617 285.977C207.254 285.282 207.892 284.481 208.211 283.734C208.317 283.039 208.052 280.903 207.733 278.873C207.733 278.713 207.68 278.553 207.68 278.339C207.361 275.989 206.936 273.906 206.936 273.906Z" fill="#27254D"/>
<path d="M193.332 144.708C199.496 137.498 196.308 110.152 196.839 98.1348C196.892 96.5859 197.052 95.3041 197.264 94.3427C198.646 88.1472 205.501 77.7857 209.008 72.7118L208.796 72.8186L208.743 72.872C207.255 74.5277 196.892 86.4381 196.042 96.6928C196.042 96.7462 196.042 96.7996 196.042 96.9064C195.139 108.069 196.042 130.555 193.119 141.29C192.854 142.305 192.588 143.266 192.322 144.227C192.588 144.388 192.96 144.548 193.332 144.708Z" fill="#2D4BAA"/>
<path d="M168.09 92.9008C166.974 94.3428 165.486 96.9065 164.742 100.752L166.443 102.514C166.815 96.5326 169.153 93.7553 169.153 93.7553C168.781 93.4349 168.462 93.1678 168.09 92.9008Z" fill="#EEEDFF"/>
<path d="M230.164 151.585C230.179 151.567 230.194 151.551 230.209 151.534L230.214 151.529C230.224 151.516 230.235 151.505 230.245 151.493C230.598 151.71 230.992 151.948 231.384 152.184L231.388 152.186L231.388 152.186L231.39 152.188C234.335 153.943 238.356 156.012 242.121 156.808C241.699 157.411 241.263 157.994 240.838 158.561C240.831 158.57 240.825 158.579 240.818 158.589C240.682 158.547 240.558 158.516 240.443 158.487C238.253 157.804 236.436 156.968 234.989 156.085C232.515 154.563 231.038 152.9 230.164 151.585Z" fill="#F3F2FF" stroke="black"/>
</g>
<defs>
<linearGradient id="paint0_linear_130_9" x1="228.221" y1="307.35" x2="227.615" y2="280.476" gradientUnits="userSpaceOnUse">
<stop stop-color="white" stop-opacity="0"/>
<stop offset="1" stop-color="#82A9FF" stop-opacity="0.21"/>
</linearGradient>
<linearGradient id="paint1_linear_130_9" x1="215.385" y1="32.7054" x2="215.385" y2="21.9773" gradientUnits="userSpaceOnUse">
<stop stop-color="#36336B"/>
<stop offset="1" stop-color="#4F4387"/>
</linearGradient>
<clipPath id="clip0_130_9">
<rect width="104.996" height="59.0603" fill="white" transform="translate(64.5786 49)"/>
</clipPath>
<clipPath id="clip1_130_9">
<rect width="104.996" height="59.0603" fill="white" transform="translate(362.575 81.0603) rotate(-180)"/>
</clipPath>
<clipPath id="clip2_130_9">
<rect width="107.183" height="270.146" fill="white" transform="translate(150.979 26.0317)"/>
</clipPath>
</defs>
</svg>
