<svg width="423" height="310" viewBox="0 0 423 310" fill="none" xmlns="http://www.w3.org/2000/svg">
<path fill-rule="evenodd" clip-rule="evenodd" d="M222.874 259.096C241.992 262.772 274.868 263.904 316.741 263.546C355.603 263.417 371.157 266.329 370.547 271.553C365.996 279.668 301.725 284.058 191.455 284.658C100.425 285.223 58.0148 280.533 45.801 272.19C27.2601 257.81 164.243 248.013 222.874 259.096Z" fill="url(#paint0_linear_138_9849)"/>
<path fill-rule="evenodd" clip-rule="evenodd" d="M233.863 71.8416C215.611 101.179 184.134 113.263 144.012 115.346C106.779 118.777 91.9281 142.061 92.6032 180.615C97.1049 240.1 158.755 265.295 264.409 257.281C351.629 251.178 392.178 211.718 403.734 148.655C421.247 40.2487 289.841 -16.7115 233.863 71.8416Z" fill="url(#paint1_linear_138_9849)"/>
<g clip-path="url(#clip0_138_9849)">
<path d="M327.33 105.87V243.556L243.339 256.028H179.674L94.6387 243.555V105.871C94.6387 97.062 101.835 89.8529 110.613 89.8529H311.351C320.138 89.8529 327.33 97.0632 327.33 105.87Z" fill="white" stroke="black" stroke-width="1.5"/>
<path d="M311.349 105.871H110.612V231.627H311.349V105.871Z" fill="white"/>
<path d="M232.357 242.839H335.696V246.278C335.696 255.09 328.505 262.298 319.719 262.298H102.252C93.465 262.298 86.2725 255.088 86.2725 246.278V242.839H189.613L191.723 247.046C191.724 247.047 191.724 247.048 191.725 247.049C192.312 248.242 193.359 249.275 194.543 250.009C195.728 250.743 197.118 251.219 198.438 251.219H223.529C224.85 251.219 226.24 250.743 227.424 250.009C228.608 249.275 229.656 248.241 230.243 247.049C230.244 247.048 230.244 247.047 230.244 247.047L232.357 242.839Z" fill="white" stroke="black" stroke-width="1.5"/>
<path d="M141.521 156.845C141.519 156.066 141.209 155.319 140.66 154.768C140.11 154.218 139.365 153.907 138.588 153.905H126.603C125.826 153.907 125.081 154.218 124.531 154.768C123.982 155.319 123.672 156.066 123.67 156.845V207.894C123.672 208.673 123.982 209.419 124.532 209.97C125.081 210.521 125.826 210.831 126.603 210.834H138.588C139.365 210.831 140.11 210.521 140.659 209.97C141.209 209.419 141.519 208.673 141.521 207.894V156.845Z" fill="#2D4BAA"/>
<path d="M141.521 221.637C141.521 220.444 140.201 219.468 138.588 219.468H126.603C124.99 219.468 123.67 220.441 123.67 221.637C123.67 222.832 124.993 223.811 126.603 223.811H138.588C140.201 223.811 141.521 222.83 141.521 221.637Z" fill="#2D4BAA"/>
<path d="M185.552 221.637C185.552 220.444 184.231 219.468 182.618 219.468H170.633C169.02 219.468 167.7 220.441 167.7 221.637C167.7 222.832 169.02 223.806 170.633 223.806H182.617C184.231 223.806 185.55 222.832 185.55 221.637H185.552Z" fill="#2D4BAA"/>
<path d="M229.583 221.637C229.583 220.444 228.262 219.468 226.649 219.468H214.666C213.053 219.468 211.732 220.441 211.732 221.637C211.732 222.832 213.048 223.811 214.666 223.811H226.651C228.264 223.811 229.583 222.83 229.583 221.637Z" fill="#121F55"/>
<path d="M273.614 221.637C273.614 220.444 272.294 219.468 270.681 219.468H258.696C257.083 219.468 255.763 220.441 255.763 221.637C255.763 222.832 257.083 223.806 258.696 223.806H270.681C272.294 223.806 273.614 222.832 273.614 221.637Z" fill="#2D4BAA"/>
<path d="M317.645 221.637C317.645 220.444 316.326 219.468 314.712 219.468H302.728C301.115 219.468 299.795 220.441 299.795 221.637C299.795 222.832 301.115 223.806 302.728 223.806H314.712C316.326 223.811 317.645 222.829 317.645 221.637Z" fill="#2D4BAA"/>
<path d="M361.675 221.636C361.675 220.443 360.356 219.468 358.742 219.468H346.759C345.146 219.468 343.826 220.441 343.826 221.636C343.826 222.83 345.145 223.805 346.759 223.805H358.742C360.356 223.811 361.675 222.829 361.675 221.636Z" fill="#121F55"/>
<path d="M185.552 179.62C185.549 178.841 185.24 178.094 184.69 177.544C184.14 176.993 183.396 176.682 182.618 176.68H170.633C169.856 176.682 169.111 176.993 168.562 177.544C168.012 178.094 167.702 178.841 167.7 179.62V207.896C167.703 208.675 168.013 209.422 168.562 209.972C169.112 210.523 169.856 210.834 170.633 210.836H182.618C183.396 210.834 184.14 210.524 184.69 209.973C185.24 209.422 185.549 208.675 185.552 207.896V179.62Z" fill="#2D4BAA"/>
<path d="M229.582 164.165C229.58 163.386 229.27 162.64 228.721 162.089C228.172 161.538 227.427 161.228 226.65 161.225H214.668C213.89 161.227 213.146 161.538 212.596 162.089C212.046 162.639 211.737 163.386 211.734 164.165V207.895C211.737 208.674 212.046 209.421 212.596 209.971C213.146 210.522 213.89 210.833 214.668 210.835H226.65C227.427 210.833 228.172 210.522 228.722 209.971C229.271 209.421 229.581 208.674 229.583 207.895L229.582 164.165Z" fill="#121F55"/>
<path d="M273.615 129.194C273.612 128.415 273.303 127.669 272.753 127.118C272.203 126.567 271.459 126.256 270.681 126.254H258.699C257.922 126.256 257.177 126.567 256.627 127.118C256.078 127.669 255.768 128.415 255.766 129.194V207.894C255.768 208.673 256.078 209.419 256.627 209.97C257.177 210.521 257.922 210.832 258.699 210.834H270.681C271.459 210.832 272.203 210.521 272.753 209.97C273.303 209.419 273.612 208.673 273.615 207.894V129.194Z" fill="#2D4BAA"/>
<path d="M317.644 103.167C317.642 102.388 317.332 101.642 316.783 101.091C316.233 100.54 315.488 100.23 314.711 100.227H302.728C301.951 100.23 301.206 100.54 300.656 101.091C300.107 101.642 299.797 102.388 299.794 103.167V207.893C299.797 208.671 300.106 209.418 300.656 209.969C301.205 210.519 301.95 210.83 302.727 210.833H314.71C315.487 210.83 316.232 210.52 316.781 209.969C317.331 209.418 317.641 208.672 317.643 207.893L317.644 103.167Z" fill="#2D4BAA"/>
<path d="M361.675 116.995C361.673 116.216 361.363 115.469 360.814 114.918C360.264 114.367 359.519 114.057 358.742 114.055H346.759C345.982 114.057 345.237 114.367 344.688 114.918C344.138 115.469 343.828 116.216 343.826 116.995V207.896C343.828 208.675 344.138 209.422 344.688 209.973C345.237 210.524 345.982 210.834 346.759 210.836H358.742C359.519 210.834 360.264 210.524 360.814 209.973C361.363 209.422 361.673 208.675 361.675 207.896V116.995Z" fill="#121F55"/>
<path fill-rule="evenodd" clip-rule="evenodd" d="M125.6 134.546C126.678 134.553 127.753 134.667 128.808 134.887C129.184 134.951 129.571 134.865 129.885 134.649C130.2 134.432 130.418 134.101 130.493 133.725C130.567 133.35 130.494 132.961 130.287 132.639C130.079 132.318 129.756 132.09 129.384 132.004C128.139 131.747 126.871 131.613 125.6 131.606C125.211 131.606 124.838 131.761 124.563 132.036C124.288 132.312 124.134 132.686 124.134 133.076C124.134 133.466 124.288 133.839 124.563 134.115C124.838 134.391 125.211 134.546 125.6 134.546Z" fill="#2D4BAA"/>
<path fill-rule="evenodd" clip-rule="evenodd" d="M181.226 156.329C183.68 155.967 186.09 155.351 188.418 154.492C188.783 154.36 189.082 154.087 189.248 153.735C189.413 153.382 189.432 152.978 189.301 152.611C189.169 152.244 188.897 151.945 188.545 151.779C188.193 151.613 187.79 151.594 187.424 151.726C185.287 152.516 183.075 153.082 180.822 153.417C180.445 153.48 180.108 153.688 179.882 153.997C179.656 154.306 179.559 154.691 179.611 155.07C179.664 155.449 179.862 155.793 180.164 156.028C180.465 156.263 180.847 156.371 181.226 156.329ZM164.85 153.515C167.208 154.538 169.545 155.361 171.843 155.898C172.216 155.972 172.604 155.898 172.924 155.691C173.245 155.484 173.472 155.161 173.558 154.789C173.645 154.417 173.583 154.026 173.387 153.698C173.191 153.371 172.875 153.133 172.507 153.034C170.374 152.538 168.205 151.768 166.016 150.819C165.66 150.664 165.256 150.657 164.894 150.801C164.532 150.944 164.242 151.226 164.088 151.583C163.933 151.941 163.927 152.346 164.07 152.708C164.213 153.071 164.494 153.362 164.85 153.517V153.515ZM196.715 150.661C198.75 149.537 200.816 148.272 202.91 146.887C203.223 146.667 203.439 146.334 203.511 145.957C203.583 145.581 203.506 145.191 203.295 144.871C203.084 144.55 202.757 144.326 202.383 144.244C202.01 144.162 201.619 144.23 201.294 144.432C199.27 145.771 197.27 146.996 195.303 148.085C194.962 148.273 194.71 148.589 194.602 148.963C194.494 149.337 194.538 149.74 194.726 150.081C194.914 150.422 195.229 150.675 195.602 150.784C195.976 150.892 196.377 150.847 196.718 150.659L196.715 150.661ZM150.597 145.728C152.646 146.978 154.707 148.222 156.768 149.396C156.935 149.491 157.12 149.552 157.311 149.576C157.502 149.6 157.696 149.586 157.882 149.535C158.067 149.483 158.241 149.396 158.393 149.277C158.545 149.159 158.672 149.011 158.767 148.844C158.863 148.676 158.924 148.491 158.948 148.299C158.971 148.108 158.957 147.913 158.906 147.727C158.855 147.541 158.768 147.367 158.65 147.214C158.531 147.062 158.384 146.934 158.217 146.839C156.181 145.68 154.145 144.451 152.122 143.216C151.958 143.116 151.775 143.049 151.585 143.019C151.394 142.99 151.2 142.998 151.013 143.043C150.826 143.089 150.649 143.171 150.494 143.285C150.338 143.399 150.207 143.542 150.106 143.707C150.006 143.872 149.94 144.055 149.91 144.246C149.88 144.437 149.889 144.632 149.934 144.819C149.98 145.007 150.062 145.184 150.175 145.339C150.289 145.495 150.432 145.627 150.597 145.728ZM210.254 141.652C212.116 140.234 213.996 138.747 215.892 137.191C216.048 137.071 216.178 136.921 216.275 136.75C216.372 136.579 216.433 136.39 216.456 136.194C216.478 135.999 216.462 135.801 216.406 135.612C216.351 135.423 216.259 135.247 216.135 135.094C216.01 134.942 215.857 134.816 215.683 134.724C215.509 134.632 215.319 134.576 215.123 134.559C214.927 134.543 214.73 134.566 214.544 134.627C214.357 134.688 214.184 134.786 214.036 134.915C212.169 136.444 210.317 137.909 208.482 139.311C208.172 139.546 207.968 139.896 207.915 140.282C207.863 140.668 207.965 141.06 208.2 141.371C208.435 141.681 208.784 141.885 209.169 141.938C209.555 141.991 209.945 141.889 210.255 141.653L210.254 141.652ZM136.821 137.789C138.839 138.763 140.901 139.907 142.997 141.13C143.332 141.312 143.725 141.356 144.093 141.253C144.46 141.15 144.773 140.907 144.965 140.577C145.157 140.246 145.213 139.854 145.121 139.483C145.029 139.112 144.797 138.791 144.473 138.589C142.311 137.328 140.181 136.154 138.1 135.144C137.927 135.06 137.739 135.01 137.546 134.999C137.354 134.988 137.162 135.015 136.98 135.078C136.798 135.142 136.63 135.24 136.487 135.369C136.343 135.497 136.226 135.652 136.142 135.826C136.058 136 136.009 136.188 135.998 136.381C135.986 136.574 136.013 136.767 136.076 136.949C136.14 137.131 136.238 137.299 136.366 137.443C136.494 137.587 136.649 137.705 136.822 137.789H136.821ZM222.735 131.395C224.511 129.846 226.297 128.263 228.093 126.647C228.383 126.387 228.558 126.022 228.579 125.632C228.6 125.242 228.466 124.86 228.206 124.569C227.946 124.279 227.582 124.104 227.193 124.082C226.804 124.061 226.423 124.196 226.133 124.456C224.352 126.061 222.577 127.635 220.81 129.177C220.664 129.304 220.545 129.458 220.459 129.631C220.373 129.803 220.322 129.991 220.308 130.184C220.295 130.377 220.319 130.57 220.381 130.753C220.442 130.936 220.538 131.105 220.664 131.251C220.791 131.397 220.944 131.516 221.117 131.602C221.289 131.688 221.477 131.74 221.669 131.753C221.861 131.767 222.054 131.742 222.237 131.681C222.419 131.62 222.588 131.523 222.733 131.396L222.735 131.395ZM234.699 120.62C236.442 119.014 238.19 117.396 239.941 115.768C240.085 115.637 240.203 115.479 240.285 115.303C240.368 115.127 240.416 114.936 240.424 114.741C240.433 114.546 240.403 114.352 240.336 114.169C240.269 113.986 240.166 113.818 240.034 113.675C239.902 113.532 239.743 113.417 239.566 113.337C239.389 113.256 239.197 113.211 239.003 113.205C238.809 113.2 238.615 113.232 238.434 113.302C238.252 113.372 238.086 113.477 237.946 113.612C236.197 115.235 234.453 116.85 232.711 118.457C232.562 118.585 232.441 118.743 232.353 118.919C232.266 119.096 232.216 119.289 232.204 119.485C232.193 119.682 232.221 119.879 232.287 120.065C232.353 120.25 232.456 120.42 232.589 120.566C232.722 120.711 232.883 120.827 233.061 120.909C233.24 120.991 233.434 121.035 233.63 121.041C233.827 121.046 234.022 121.011 234.205 120.939C234.388 120.867 234.555 120.759 234.695 120.621L234.699 120.62ZM246.48 109.701C248.23 108.084 249.979 106.476 251.728 104.878C252.016 104.616 252.188 104.249 252.206 103.86C252.225 103.471 252.088 103.09 251.826 102.802C251.564 102.513 251.199 102.341 250.811 102.323C250.422 102.304 250.042 102.441 249.755 102.704C248 104.303 246.245 105.915 244.491 107.54C244.349 107.671 244.235 107.829 244.154 108.004C244.073 108.179 244.028 108.369 244.02 108.562C244.012 108.755 244.042 108.947 244.109 109.129C244.175 109.31 244.277 109.476 244.408 109.618C244.538 109.76 244.695 109.874 244.87 109.955C245.045 110.036 245.234 110.082 245.427 110.09C245.619 110.098 245.811 110.067 245.992 110.001C246.173 109.934 246.339 109.832 246.48 109.701ZM258.35 98.931C260.144 97.3459 261.935 95.7938 263.721 94.2745C264.018 94.0225 264.202 93.6626 264.234 93.274C264.267 92.8854 264.143 92.5 263.892 92.2024C263.641 91.9049 263.282 91.7197 262.894 91.6875C262.506 91.6553 262.122 91.7788 261.825 92.0308C260.025 93.559 258.22 95.1238 256.41 96.7251C256.266 96.853 256.148 97.0081 256.063 97.1817C255.979 97.3553 255.929 97.5439 255.917 97.7368C255.905 97.9296 255.931 98.123 255.994 98.3057C256.056 98.4885 256.154 98.6571 256.282 98.8019C256.409 98.9468 256.564 99.065 256.737 99.1499C256.91 99.2348 257.099 99.2846 257.291 99.2966C257.483 99.3086 257.676 99.2825 257.859 99.2197C258.041 99.157 258.209 99.0589 258.354 98.931H258.35ZM270.574 88.644C272.463 87.1507 274.34 85.7223 276.207 84.3588C276.372 84.2486 276.512 84.1062 276.62 83.9403C276.728 83.7743 276.802 83.5882 276.836 83.3931C276.871 83.198 276.865 82.9979 276.821 82.8048C276.776 82.6118 276.693 82.4298 276.577 82.2697C276.46 82.1097 276.312 81.9748 276.143 81.8734C275.973 81.7719 275.784 81.7059 275.588 81.6793C275.393 81.6527 275.193 81.6661 275.003 81.7186C274.812 81.7711 274.634 81.8616 274.479 81.9849C272.582 83.3646 270.674 84.8165 268.754 86.3407C268.448 86.5828 268.25 86.9369 268.205 87.3251C268.159 87.7132 268.269 88.1035 268.511 88.4103C268.752 88.717 269.106 88.915 269.493 88.9606C269.88 89.0063 270.27 88.8959 270.576 88.6537L270.574 88.644ZM343.204 79.4332C345.561 80.2854 347.827 81.0986 349.963 81.8169C350.332 81.9408 350.735 81.913 351.083 81.7393C351.431 81.5657 351.696 81.2606 351.82 80.891C351.943 80.5215 351.916 80.1178 351.742 79.7689C351.569 79.4199 351.265 79.1542 350.896 79.0302C348.78 78.3181 346.536 77.5134 344.202 76.6685C343.836 76.5361 343.432 76.5548 343.08 76.7204C342.728 76.8861 342.456 77.1851 342.324 77.5517C342.192 77.9183 342.211 78.3225 342.376 78.6754C342.541 79.0282 342.84 79.3008 343.206 79.4332H343.204ZM283.491 79.4015C285.538 78.1196 287.567 76.9485 289.574 75.9088C289.909 75.7238 290.158 75.415 290.27 75.0481C290.381 74.6813 290.345 74.2854 290.169 73.9448C289.993 73.6043 289.691 73.3461 289.328 73.2252C288.965 73.1042 288.57 73.1302 288.225 73.2975C286.152 74.3725 284.053 75.5826 281.938 76.9083C281.769 77.0079 281.621 77.1404 281.504 77.298C281.387 77.4556 281.303 77.6352 281.256 77.826C281.209 78.0169 281.201 78.2151 281.232 78.4092C281.263 78.6032 281.333 78.789 281.437 78.9556C281.541 79.1223 281.677 79.2663 281.837 79.3793C281.998 79.4923 282.179 79.572 282.371 79.6136C282.562 79.6551 282.76 79.6578 282.953 79.6214C283.146 79.5849 283.329 79.5102 283.492 79.4015H283.491ZM328.101 74.2288C330.364 74.9215 332.615 75.6702 334.828 76.436C335.191 76.548 335.584 76.5141 335.923 76.3415C336.262 76.1689 336.521 75.8711 336.645 75.5108C336.77 75.1505 336.749 74.756 336.589 74.4103C336.429 74.0646 336.141 73.7949 335.786 73.6579C333.54 72.88 331.257 72.1203 328.959 71.4167C328.59 71.3143 328.196 71.3603 327.861 71.5448C327.526 71.7294 327.276 72.0379 327.164 72.4046C327.052 72.7713 327.088 73.1673 327.263 73.508C327.439 73.8488 327.74 74.1074 328.103 74.2288H328.101ZM297.545 72.4624C299.709 71.7178 301.937 71.1758 304.2 70.8433C304.391 70.8164 304.575 70.7522 304.74 70.6542C304.906 70.5563 305.051 70.4265 305.167 70.2724C305.283 70.1182 305.368 69.9427 305.416 69.7559C305.464 69.569 305.475 69.3745 305.448 69.1833C305.422 68.9922 305.357 68.8083 305.26 68.642C305.162 68.4757 305.033 68.3303 304.879 68.2141C304.725 68.098 304.55 68.0133 304.363 67.965C304.177 67.9167 303.983 67.9056 303.792 67.9325C301.349 68.2895 298.944 68.8731 296.608 69.6758C296.426 69.7374 296.257 69.8345 296.112 69.9614C295.967 70.0883 295.848 70.2426 295.763 70.4155C295.677 70.5884 295.627 70.7765 295.614 70.9691C295.601 71.1617 295.626 71.3549 295.687 71.5378C295.748 71.7207 295.845 71.8896 295.972 72.035C296.099 72.1804 296.253 72.2994 296.425 72.3851C296.598 72.4709 296.785 72.5217 296.977 72.5348C297.169 72.5478 297.362 72.5228 297.545 72.4612V72.4624ZM312.727 70.825C315.037 71.0823 317.332 71.4643 319.601 71.9693C319.977 72.0422 320.367 71.9646 320.687 71.7533C321.006 71.542 321.231 71.2136 321.313 70.8384C321.394 70.4632 321.326 70.0709 321.123 69.7453C320.92 69.4198 320.597 69.1869 320.225 69.0963C317.852 68.5692 315.453 68.1705 313.037 67.902C312.842 67.8724 312.642 67.8827 312.45 67.9325C312.258 67.9823 312.079 68.0704 311.922 68.1916C311.765 68.3129 311.634 68.4647 311.538 68.6379C311.441 68.8111 311.38 69.0022 311.359 69.1995C311.338 69.3969 311.357 69.5965 311.415 69.7863C311.473 69.9761 311.569 70.1522 311.696 70.304C311.824 70.4558 311.981 70.5801 312.158 70.6694C312.335 70.7587 312.528 70.8112 312.725 70.8238L312.727 70.825Z" fill="#2D4BAA"/>
<path fill-rule="evenodd" clip-rule="evenodd" d="M358.772 84.2686C360.013 84.5128 361.273 84.6444 362.537 84.6618C362.926 84.6618 363.299 84.5069 363.574 84.2313C363.849 83.9556 364.004 83.5817 364.004 83.1918C364.004 82.8019 363.849 82.428 363.574 82.1524C363.299 81.8767 362.926 81.7218 362.537 81.7218C361.453 81.7042 360.372 81.5889 359.308 81.3773C359.116 81.3362 358.918 81.3341 358.725 81.3711C358.533 81.4081 358.349 81.4834 358.186 81.5927C358.023 81.7019 357.884 81.8428 357.776 82.007C357.668 82.1712 357.594 82.3554 357.559 82.5488C357.523 82.7421 357.526 82.9406 357.569 83.1326C357.611 83.3245 357.691 83.5061 357.805 83.6664C357.918 83.8267 358.063 83.9626 358.229 84.0661C358.396 84.1695 358.582 84.2384 358.776 84.2686H358.772Z" fill="#2D4BAA"/>
<path d="M33.6416 116.194C40.2572 98.1689 57.5585 85.2998 77.8511 85.2998C93.973 85.2998 108.215 93.4235 116.697 105.807L116.677 105.775C118.897 109.009 120.705 112.509 122.058 116.194C120.705 119.878 118.898 123.377 116.677 126.611L116.697 126.58C108.211 138.963 93.973 147.087 77.8511 147.086C57.5597 147.086 40.2572 134.217 33.6416 116.194Z" fill="#E2E8F0"/>
<path d="M77.8523 85.6212C61.0065 85.6212 47.3525 99.3072 47.3525 116.192C47.3525 133.078 61.0065 146.761 77.8523 146.761C94.698 146.761 108.353 133.074 108.353 116.194C108.353 99.3133 94.6993 85.6237 77.8559 85.6237L77.8523 85.6212Z" fill="white"/>
<path d="M77.8521 136.313C66.7815 136.313 57.7744 127.288 57.7744 116.191C57.7744 105.095 66.7803 96.0664 77.8521 96.0664C88.9239 96.0664 97.9262 105.093 97.9262 116.194C97.9262 127.294 88.9203 136.313 77.8509 136.313H77.8521Z" fill="#2D4BAA"/>
<path d="M77.8529 131.482C74.8353 131.482 71.8855 130.585 69.3764 128.905C66.8673 127.225 64.9118 124.836 63.757 122.042C62.6022 119.247 62.3002 116.173 62.889 113.206C63.4778 110.24 64.931 107.515 67.0649 105.376C69.1988 103.238 71.9175 101.781 74.8771 101.192C77.8368 100.602 80.9044 100.905 83.6921 102.063C86.4797 103.221 88.8622 105.182 90.5382 107.697C92.2141 110.212 93.1083 113.169 93.1076 116.194C93.1018 120.247 91.4927 124.132 88.633 126.998C85.7734 129.864 81.8967 131.476 77.8529 131.482ZM77.8529 107.339C76.1062 107.339 74.3986 107.857 72.9459 108.829C71.4932 109.801 70.3608 111.183 69.6917 112.801C69.0227 114.418 68.8472 116.198 69.1873 117.915C69.5274 119.632 70.368 121.21 71.6026 122.448C72.8373 123.686 74.4106 124.53 76.1235 124.872C77.8365 125.214 79.6122 125.04 81.2262 124.37C82.8401 123.701 84.2197 122.566 85.1905 121.111C86.1613 119.656 86.6797 117.944 86.6802 116.194C86.6773 113.847 85.7463 111.598 84.0913 109.939C82.4363 108.279 80.1924 107.345 77.8516 107.342L77.8529 107.339Z" fill="#B2BFEB"/>
<path d="M70.8243 108.71C71.607 107.058 71.7641 105.177 71.2661 103.418C70.7682 101.658 69.6493 100.14 68.1177 99.1461C66.5862 98.152 64.7464 97.7497 62.9409 98.0142C61.1355 98.2787 59.4875 99.1918 58.3038 100.584C57.1201 101.975 56.4813 103.751 56.5066 105.58C56.5318 107.408 57.2193 109.166 58.4409 110.524C59.6626 111.883 61.3351 112.75 63.1472 112.964C64.9592 113.178 66.7872 112.725 68.2908 111.689C68.3873 112.138 68.6071 112.552 68.9256 112.882C69.2441 113.213 69.6485 113.448 70.093 113.56C70.5376 113.672 71.0047 113.658 71.4415 113.518C71.8782 113.378 72.2673 113.119 72.5648 112.769C72.8622 112.42 73.0561 111.993 73.1246 111.539C73.1932 111.085 73.1335 110.62 72.9525 110.198C72.7715 109.776 72.4762 109.413 72.1002 109.15C71.7241 108.887 71.2822 108.735 70.8243 108.71Z" fill="white"/>
<path fill-rule="evenodd" clip-rule="evenodd" d="M115.937 126.074C117.301 124.086 118.507 121.993 119.545 119.816C119.652 119.603 119.839 119.439 120.065 119.362C120.29 119.284 120.537 119.299 120.753 119.402C120.968 119.505 121.134 119.689 121.216 119.914C121.297 120.139 121.288 120.386 121.189 120.604C120.113 122.86 118.863 125.029 117.45 127.09L117.43 127.121V127.128C108.775 139.729 94.2755 147.996 77.8573 147.994C62.9001 147.994 49.5352 141.134 40.7334 130.388C40.584 130.201 40.5142 129.962 40.5392 129.723C40.5641 129.484 40.6819 129.265 40.8669 129.113C41.0519 128.961 41.2894 128.887 41.5278 128.909C41.7663 128.931 41.9866 129.046 42.1411 129.229C50.6101 139.567 63.4673 146.168 77.8573 146.168C93.6634 146.168 107.622 138.206 115.944 126.07L115.937 126.074Z" fill="black"/>
<path fill-rule="evenodd" clip-rule="evenodd" d="M35.9344 113.036C43.263 97.2023 59.2853 86.2092 77.8509 86.2092C89.5223 86.1927 100.764 90.6218 109.3 98.5998C109.478 98.7647 109.713 98.8522 109.954 98.8432C110.196 98.8342 110.424 98.7293 110.588 98.5517C110.753 98.3742 110.84 98.1384 110.831 97.8963C110.822 97.6541 110.718 97.4255 110.54 97.2607C101.667 88.9689 89.9823 84.3658 77.8509 84.3831C58.5481 84.3831 41.9003 95.8071 34.2827 112.261C34.2278 112.371 34.1955 112.49 34.1875 112.612C34.1795 112.734 34.1961 112.856 34.2362 112.972C34.2764 113.088 34.3393 113.194 34.4212 113.284C34.5031 113.375 34.6024 113.448 34.7131 113.5C34.8238 113.551 34.9437 113.58 35.0657 113.584C35.1876 113.588 35.3092 113.568 35.4231 113.524C35.537 113.48 35.641 113.414 35.7288 113.329C35.8167 113.244 35.8866 113.142 35.9344 113.03V113.036Z" fill="black"/>
<path d="M50.2241 227.304C66.3247 227.304 79.3769 214.049 79.3769 197.699C79.3769 181.349 66.3247 168.095 50.2241 168.095C34.1234 168.095 21.0713 181.349 21.0713 197.699C21.0713 214.049 34.1234 227.304 50.2241 227.304Z" fill="#B2BFEB"/>
<path fill-rule="evenodd" clip-rule="evenodd" d="M53.0352 228.094C61.6937 221.842 67.4883 210.573 67.4883 197.699C67.4883 184.825 61.6901 173.555 53.0352 167.303C52.921 167.219 52.7914 167.159 52.6537 167.126C52.5161 167.092 52.3732 167.086 52.2333 167.108C52.0934 167.131 51.9593 167.18 51.8387 167.255C51.7181 167.329 51.6133 167.427 51.5306 167.542C51.4478 167.657 51.3886 167.788 51.3564 167.926C51.3242 168.064 51.3197 168.207 51.3431 168.347C51.3664 168.487 51.4172 168.621 51.4925 168.742C51.5678 168.862 51.6661 168.966 51.7818 169.048C59.9363 174.937 65.3471 185.573 65.3471 197.699C65.3471 209.826 59.9363 220.465 51.7818 226.351C51.6626 226.431 51.5608 226.535 51.4824 226.656C51.404 226.776 51.3506 226.911 51.3253 227.053C51.3 227.195 51.3035 227.34 51.3354 227.481C51.3673 227.621 51.427 227.754 51.511 227.871C51.595 227.988 51.7016 228.086 51.8244 228.161C51.9472 228.236 52.0838 228.285 52.2259 228.306C52.3681 228.327 52.513 228.319 52.652 228.282C52.791 228.246 52.9214 228.182 53.0352 228.094Z" fill="white"/>
<path fill-rule="evenodd" clip-rule="evenodd" d="M47.9775 167.303C39.319 173.555 33.5244 184.825 33.5244 197.699C33.5244 210.573 39.3215 221.842 47.9775 228.094C48.2085 228.258 48.4945 228.323 48.7734 228.277C49.0523 228.23 49.3016 228.074 49.4668 227.844C49.6321 227.614 49.7 227.328 49.6558 227.048C49.6117 226.768 49.459 226.517 49.2309 226.35C41.0765 220.461 35.6669 209.823 35.6669 197.698C35.6669 185.573 41.0765 174.933 49.2309 169.047C49.459 168.879 49.6117 168.628 49.6558 168.348C49.7 168.068 49.6321 167.782 49.4668 167.552C49.3016 167.322 49.0523 167.167 48.7734 167.12C48.4945 167.073 48.2085 167.139 47.9775 167.302V167.303Z" fill="white"/>
<path fill-rule="evenodd" clip-rule="evenodd" d="M71.3725 176.906C65.3265 180.008 58.0428 181.822 50.2236 181.822C42.4043 181.822 35.1158 180.008 29.0746 176.906C28.8235 176.793 28.5386 176.782 28.279 176.873C28.0194 176.965 27.805 177.154 27.6801 177.4C27.5553 177.645 27.5295 177.93 27.6083 178.194C27.687 178.459 27.8641 178.683 28.103 178.82C34.4284 182.066 42.0472 183.972 50.2284 183.972C58.4096 183.972 66.0285 182.067 72.3539 178.82C72.5927 178.683 72.7699 178.459 72.8486 178.194C72.9273 177.93 72.9016 177.645 72.7767 177.4C72.6519 177.154 72.4375 176.965 72.1779 176.873C71.9183 176.782 71.6334 176.793 71.3822 176.906H71.3725Z" fill="white"/>
<path fill-rule="evenodd" clip-rule="evenodd" d="M29.0768 218.391C35.1167 215.29 42.404 213.477 50.2245 213.477C58.045 213.477 65.3274 215.288 71.3734 218.391C71.6246 218.504 71.9095 218.516 72.1691 218.424C72.4287 218.332 72.6431 218.144 72.7679 217.898C72.8928 217.652 72.9185 217.368 72.8398 217.103C72.7611 216.839 72.584 216.615 72.3451 216.478C66.0185 213.232 58.3996 211.327 50.2184 211.327C42.0372 211.327 34.4196 213.231 28.0942 216.478C27.8553 216.615 27.6782 216.839 27.5995 217.103C27.5208 217.368 27.5465 217.652 27.6713 217.898C27.7962 218.144 28.0106 218.332 28.2702 218.424C28.5298 218.516 28.8147 218.504 29.0659 218.391H29.0768Z" fill="white"/>
<path fill-rule="evenodd" clip-rule="evenodd" d="M21.0724 198.773H79.3707C79.6552 198.773 79.9279 198.66 80.1291 198.458C80.3302 198.257 80.4432 197.983 80.4432 197.698C80.4432 197.413 80.3302 197.14 80.1291 196.938C79.9279 196.736 79.6552 196.623 79.3707 196.623H21.0724C20.788 196.623 20.5152 196.736 20.3141 196.938C20.113 197.14 20 197.413 20 197.698C20 197.983 20.113 198.257 20.3141 198.458C20.5152 198.66 20.788 198.773 21.0724 198.773Z" fill="white"/>
<path fill-rule="evenodd" clip-rule="evenodd" d="M49.1514 168.095V227.305C49.1514 227.59 49.2644 227.864 49.4655 228.065C49.6666 228.267 49.9394 228.38 50.2238 228.38C50.5082 228.38 50.781 228.267 50.9821 228.065C51.1833 227.864 51.2963 227.59 51.2963 227.305V168.095C51.2963 167.954 51.2685 167.814 51.2146 167.683C51.1607 167.553 51.0817 167.434 50.9821 167.335C50.8826 167.235 50.7643 167.156 50.6342 167.102C50.5041 167.048 50.3647 167.02 50.2238 167.02C50.083 167.02 49.9435 167.048 49.8134 167.102C49.6833 167.156 49.5651 167.235 49.4655 167.335C49.3659 167.434 49.2869 167.553 49.233 167.683C49.1791 167.814 49.1514 167.954 49.1514 168.095Z" fill="white"/>
<path fill-rule="evenodd" clip-rule="evenodd" d="M50.2241 226.526C34.5564 226.526 21.8486 213.607 21.8486 197.699C21.8486 181.792 34.56 168.871 50.2241 168.871C65.8881 168.871 78.5971 181.792 78.5971 197.699C78.6062 202.924 77.2058 208.054 74.5442 212.546C74.4921 212.633 74.4578 212.731 74.4433 212.832C74.4287 212.933 74.4342 213.036 74.4594 213.135C74.4846 213.234 74.5291 213.328 74.5902 213.41C74.6513 213.491 74.7279 213.56 74.8156 213.613C74.9033 213.665 75.0005 213.699 75.1014 213.714C75.2024 213.728 75.3053 213.723 75.4041 213.698C75.503 213.672 75.5959 213.628 75.6776 213.566C75.7592 213.505 75.8281 213.428 75.8802 213.34C78.6854 208.608 80.1613 203.204 80.1517 197.699C80.1517 180.927 66.7383 167.316 50.2229 167.316C33.7074 167.316 20.2988 180.926 20.2988 197.698C20.2988 214.47 33.7123 228.082 50.2265 228.082C50.4323 228.082 50.6297 228 50.7753 227.854C50.9208 227.708 51.0026 227.51 51.0026 227.304C51.0026 227.098 50.9208 226.9 50.7753 226.754C50.6297 226.608 50.4323 226.526 50.2265 226.526H50.2241Z" fill="black"/>
<path d="M222.417 75.3817C222.427 81.4581 220.778 87.4214 217.65 92.6261C215.909 95.5235 224.922 108.732 222.417 110.966C219.911 113.2 205.899 104.471 202.806 105.879C198.476 107.844 193.777 108.858 189.024 108.852C170.584 108.852 155.634 93.8642 155.634 75.3805C155.634 56.8968 170.584 41.9119 189.024 41.9119C207.465 41.9119 222.417 56.8956 222.417 75.3817Z" fill="#E2E8F0"/>
<path fill-rule="evenodd" clip-rule="evenodd" d="M167.484 99.7502C164.04 96.6985 161.284 92.9474 159.398 88.746C157.511 84.5445 156.538 79.9889 156.543 75.3817C156.543 57.4007 171.085 42.8261 189.023 42.8261C194.918 42.8241 200.703 44.4305 205.757 47.4731C210.81 50.5157 214.943 54.8798 217.71 60.0973C217.824 60.311 218.018 60.4707 218.249 60.5413C218.48 60.6118 218.73 60.5874 218.943 60.4734C219.156 60.3595 219.316 60.1653 219.386 59.9335C219.456 59.7018 219.432 59.4515 219.318 59.2378C216.396 53.7282 212.032 49.1199 206.695 45.907C201.358 42.6942 195.249 40.9978 189.024 41C170.077 41 154.723 56.3927 154.723 75.3829C154.717 80.2484 155.745 85.0594 157.737 89.4963C159.729 93.9333 162.64 97.8946 166.277 101.117C166.366 101.197 166.47 101.259 166.584 101.298C166.697 101.338 166.817 101.355 166.936 101.348C167.056 101.341 167.173 101.31 167.281 101.258C167.389 101.206 167.486 101.133 167.565 101.043C167.645 100.953 167.706 100.849 167.746 100.735C167.785 100.622 167.802 100.502 167.795 100.382C167.788 100.262 167.758 100.145 167.706 100.036C167.654 99.9282 167.581 99.8314 167.491 99.7514L167.484 99.7502Z" fill="black"/>
<path fill-rule="evenodd" clip-rule="evenodd" d="M220.637 82.8954C219.869 86.1593 218.599 89.2835 216.872 92.1561C216.47 92.8245 216.417 93.9177 216.742 95.2824C217.342 97.8048 219.141 101.491 220.481 104.731C221.197 106.465 221.785 108.06 221.924 109.246C221.955 109.473 221.96 109.702 221.938 109.93C221.941 110.059 221.898 110.185 221.817 110.286C221.718 110.356 221.6 110.396 221.479 110.401C221.169 110.436 220.855 110.429 220.546 110.381C219.254 110.213 217.528 109.615 215.658 108.888C212.208 107.549 208.304 105.759 205.63 105.097C204.239 104.753 203.119 104.738 202.435 105.05C198.224 106.961 193.653 107.947 189.03 107.941C188.788 107.941 188.557 108.037 188.386 108.208C188.215 108.38 188.119 108.612 188.119 108.854C188.119 109.096 188.215 109.328 188.386 109.5C188.557 109.671 188.788 109.767 189.03 109.767C193.912 109.773 198.739 108.732 203.187 106.713C203.373 106.627 203.623 106.627 203.916 106.648C204.575 106.694 205.401 106.901 206.334 107.198C208.854 108.001 212.087 109.459 214.993 110.59C217.39 111.522 219.583 112.222 221.039 112.249C221.913 112.266 222.581 112.045 223.023 111.65C223.49 111.234 223.759 110.592 223.771 109.739C223.789 108.378 223.102 106.303 222.163 104.033C221.039 101.317 219.58 98.2857 218.816 95.9215C218.598 95.2938 218.445 94.6457 218.358 93.9871C218.32 93.6219 218.306 93.3114 218.432 93.0996C220.257 90.0653 221.6 86.7648 222.412 83.3166C222.44 83.1997 222.445 83.0783 222.426 82.9595C222.407 82.8406 222.365 82.7267 222.302 82.6242C222.239 82.5217 222.157 82.4327 222.06 82.3623C221.962 82.2918 221.852 82.2414 221.735 82.2138C221.618 82.1862 221.497 82.182 221.379 82.2015C221.26 82.221 221.147 82.2637 221.045 82.3273C220.943 82.3909 220.855 82.474 220.785 82.5719C220.715 82.6698 220.666 82.7806 220.639 82.8978L220.637 82.8954Z" fill="black"/>
<path d="M204.518 93.4819C204.49 94.0366 204.251 94.5596 203.851 94.9442C203.451 95.3288 202.92 95.546 202.366 95.5514H176.611C176.058 95.5458 175.528 95.3283 175.13 94.9434C174.732 94.5586 174.496 94.0357 174.47 93.4819C174.47 93.4819 174.035 80.8137 176.611 76.8961C177.748 75.154 180.902 73.6395 180.902 73.6395C181.936 73.1526 183.704 72.7496 184.842 72.7496H193.116C194.255 72.7496 196.053 73.082 197.124 73.4801C197.124 73.4801 197.381 73.5848 197.795 73.7613V73.7722C198.975 74.2896 201.383 75.4766 202.367 76.8924C205.045 80.7418 204.518 93.4819 204.518 93.4819Z" fill="#2D4BAA"/>
<path d="M196.223 58.2371V59.2731C196.223 59.2731 192.086 61.3427 185.881 57.2036C184.847 59.2731 181.744 59.2731 181.744 59.2731V58.2371C181.749 56.589 182.404 55.0098 183.567 53.8445C184.73 52.6791 186.305 52.0223 187.949 52.0175H190.014C191.659 52.0216 193.235 52.6782 194.398 53.8437C195.56 55.0092 196.216 56.5887 196.22 58.2371H196.223Z" fill="black"/>
<path d="M196.223 59.2731V62.3847C196.222 63.4623 195.942 64.5213 195.41 65.4575C194.877 66.3937 194.111 67.1748 193.186 67.7242C192.231 68.3014 191.137 68.6062 190.021 68.6056H187.956C186.841 68.6058 185.747 68.3011 184.791 67.7242C183.866 67.1748 183.1 66.3937 182.568 65.4575C182.035 64.5213 181.755 63.4623 181.755 62.3847V59.2731C181.755 59.2731 184.858 59.2731 185.892 57.2035C192.087 61.3463 196.223 59.2731 196.223 59.2731Z" fill="white"/>
</g>
<defs>
<linearGradient id="paint0_linear_138_9849" x1="213.414" y1="288.301" x2="212.857" y2="261.426" gradientUnits="userSpaceOnUse">
<stop stop-color="white" stop-opacity="0"/>
<stop offset="1" stop-color="#82A9FF" stop-opacity="0.21"/>
</linearGradient>
<linearGradient id="paint1_linear_138_9849" x1="243.435" y1="286.691" x2="251.738" y2="88.2816" gradientUnits="userSpaceOnUse">
<stop stop-color="white" stop-opacity="0"/>
<stop offset="1" stop-color="#82A9FF" stop-opacity="0.21"/>
</linearGradient>
<clipPath id="clip0_138_9849">
<rect width="344" height="225.074" fill="white" transform="translate(20 41)"/>
</clipPath>
</defs>
</svg>
