<svg width="423" height="310" viewBox="0 0 423 310" fill="none" xmlns="http://www.w3.org/2000/svg">
<g clip-path="url(#clip0_138_10854)">
<path fill-rule="evenodd" clip-rule="evenodd" d="M233.055 255.233C253.46 258.889 288.556 259.988 333.257 259.587C374.744 259.417 391.345 262.313 390.689 267.538C385.822 275.658 317.206 280.114 199.488 280.828C102.309 281.487 57.0388 276.841 44.0087 268.51C24.2304 254.149 170.476 244.211 233.055 255.233Z" fill="url(#paint0_linear_138_10854)"/>
<path fill-rule="evenodd" clip-rule="evenodd" d="M140.413 198.806C170.364 181.534 203.827 185.707 240.189 202.769C274.641 217.282 298.734 203.747 316.349 169.434C340.476 114.862 298.016 63.6049 201.069 20.9043C121.279 -14.7992 66.8855 0.895041 26.9086 51.0583C-39.7376 138.397 49.2266 250.521 140.413 198.806Z" fill="url(#paint1_linear_138_10854)"/>
<g clip-path="url(#clip1_138_10854)">
<path d="M240.291 229.605L177.602 166.732H92.5836C92.1053 166.732 91.6321 166.829 91.192 167.017C90.7519 167.204 90.3538 167.478 90.0215 167.823C89.6892 168.168 89.4295 168.577 89.2577 169.024C89.0859 169.472 89.0056 169.95 89.0215 170.429C90.9574 217.817 129.883 255.646 177.602 255.646C202.089 255.646 224.253 245.689 240.291 229.605Z" fill="white"/>
<path fill-rule="evenodd" clip-rule="evenodd" d="M161.829 165.691H92.5831C91.9658 165.692 91.3548 165.817 90.7865 166.059C90.2183 166.301 89.7043 166.655 89.2753 167.1C88.8462 167.545 88.5108 168.073 88.289 168.65C88.0671 169.228 87.9634 169.845 87.984 170.464C88.2947 178.177 89.596 185.818 91.8558 193.197C91.9367 193.461 92.1187 193.681 92.3618 193.81C92.6049 193.94 92.8892 193.967 93.1521 193.885C93.4151 193.804 93.6352 193.622 93.7639 193.378C93.8927 193.134 93.9196 192.849 93.8387 192.585C91.6311 185.379 90.3595 177.918 90.0554 170.386C90.0453 170.047 90.103 169.709 90.2254 169.392C90.3477 169.076 90.5321 168.787 90.7677 168.543C91.0032 168.3 91.2852 168.106 91.5968 167.973C91.9084 167.841 92.2433 167.772 92.5817 167.772H161.826C162.101 167.772 162.365 167.662 162.559 167.467C162.754 167.272 162.863 167.007 162.863 166.732C162.863 166.456 162.754 166.191 162.559 165.996C162.365 165.801 162.101 165.691 161.826 165.691H161.829Z" fill="black"/>
<path fill-rule="evenodd" clip-rule="evenodd" d="M99.7694 211.456C115.244 238.483 144.306 256.686 177.602 256.686C202.374 256.686 224.799 246.613 241.023 230.334C241.206 230.137 241.306 229.876 241.301 229.607C241.297 229.337 241.188 229.08 240.998 228.89C240.808 228.699 240.551 228.59 240.283 228.585C240.014 228.58 239.754 228.681 239.557 228.864C223.708 244.761 201.807 254.599 177.609 254.601C145.082 254.601 116.692 236.817 101.575 210.415C101.51 210.293 101.42 210.184 101.312 210.097C101.204 210.01 101.08 209.945 100.946 209.907C100.813 209.868 100.673 209.857 100.535 209.874C100.398 209.891 100.265 209.935 100.144 210.005C100.024 210.074 99.9188 210.167 99.8349 210.278C99.751 210.389 99.6902 210.515 99.656 210.65C99.6218 210.785 99.6149 210.926 99.6358 211.063C99.6567 211.201 99.705 211.333 99.7777 211.451L99.7694 211.456Z" fill="black"/>
<path d="M266.254 166.734C266.254 118.858 228.544 79.8341 181.289 77.8938C180.811 77.8774 180.336 77.9577 179.89 78.1298C179.444 78.3019 179.038 78.5624 178.695 78.8956C178.352 79.2288 178.079 79.628 177.893 80.0692C177.707 80.5105 177.612 80.9847 177.613 81.4637C177.604 98.1692 177.604 166.739 177.604 166.739L240.289 229.612C256.329 213.524 266.252 191.286 266.252 166.739L266.254 166.734Z" fill="#2D4BAA"/>
<path fill-rule="evenodd" clip-rule="evenodd" d="M178.641 166.303L192.719 180.423C192.907 180.62 193.012 180.882 193.009 181.155C193.007 181.428 192.898 181.689 192.705 181.881C192.513 182.074 192.253 182.183 191.981 182.186C191.709 182.188 191.447 182.083 191.252 181.893L176.871 167.469C176.774 167.373 176.698 167.258 176.645 167.132C176.593 167.006 176.566 166.871 176.566 166.734C176.566 166.734 176.566 98.165 176.576 81.4596C176.576 80.8408 176.699 80.2282 176.94 79.6584C177.181 79.0887 177.534 78.5734 177.977 78.1435C178.421 77.7136 178.947 77.3777 179.523 77.1561C180.099 76.9345 180.714 76.8316 181.33 76.8536C210.962 78.0686 236.883 93.6978 252.311 116.936C252.463 117.165 252.518 117.446 252.464 117.717C252.41 117.987 252.251 118.225 252.022 118.378C251.793 118.531 251.513 118.586 251.243 118.532C250.973 118.477 250.736 118.318 250.584 118.088C235.512 95.3842 210.191 80.1143 181.255 78.9271C180.917 78.9151 180.579 78.972 180.262 79.0942C179.946 79.2165 179.657 79.4017 179.414 79.6386C179.171 79.8755 178.977 80.1593 178.846 80.473C178.715 80.7866 178.648 81.1236 178.65 81.4637C178.642 97.3939 178.641 160.486 178.641 166.306V166.303Z" fill="black"/>
<path fill-rule="evenodd" clip-rule="evenodd" d="M240.285 228.132C255.706 212.288 265.217 190.62 265.217 166.733C265.217 166.457 265.326 166.192 265.52 165.997C265.715 165.802 265.979 165.693 266.254 165.693C266.529 165.693 266.793 165.802 266.987 165.997C267.182 166.192 267.291 166.457 267.291 166.733C267.291 191.567 257.248 214.059 241.018 230.343C240.922 230.439 240.807 230.516 240.682 230.569C240.556 230.621 240.421 230.648 240.285 230.648C240.148 230.648 240.013 230.621 239.887 230.569C239.761 230.516 239.647 230.439 239.551 230.343L234.285 225.061C234.189 224.965 234.113 224.85 234.06 224.724C234.008 224.597 233.981 224.462 233.981 224.325C233.981 224.189 234.008 224.054 234.06 223.927C234.113 223.801 234.189 223.686 234.285 223.59C234.382 223.493 234.496 223.416 234.622 223.364C234.748 223.312 234.883 223.285 235.019 223.285C235.155 223.285 235.29 223.312 235.416 223.364C235.542 223.416 235.656 223.493 235.752 223.59L240.285 228.132Z" fill="black"/>
<path d="M161.555 154.217C162.5 154.217 163.407 153.841 164.076 153.171C164.744 152.501 165.12 151.591 165.121 150.643V68.944C165.121 68.4646 165.025 67.9901 164.838 67.5488C164.652 67.1075 164.378 66.7085 164.035 66.3754C163.691 66.0424 163.284 65.7822 162.837 65.6104C162.391 65.4386 161.915 65.3587 161.437 65.3755C115.41 67.27 78.4306 104.348 76.55 150.532C76.5335 151.01 76.6131 151.487 76.7841 151.933C76.9552 152.38 77.2141 152.787 77.5455 153.131C77.8769 153.475 78.274 153.748 78.713 153.935C79.1521 154.122 79.6241 154.218 80.101 154.217C94.4722 154.227 147.304 154.227 161.556 154.227L161.555 154.217Z" fill="white"/>
<path fill-rule="evenodd" clip-rule="evenodd" d="M166.158 110.907V68.944C166.159 68.3245 166.036 67.7112 165.795 67.1407C165.554 66.5702 165.201 66.0543 164.757 65.6237C164.313 65.1931 163.787 64.8567 163.211 64.6346C162.634 64.4125 162.019 64.3093 161.401 64.3311C134.903 65.4212 111.374 78.0353 95.6614 97.3079C95.571 97.4131 95.5026 97.5354 95.4602 97.6676C95.4177 97.7997 95.402 97.939 95.4141 98.0774C95.4262 98.2157 95.4657 98.3502 95.5305 98.4729C95.5952 98.5956 95.6837 98.7041 95.7909 98.792C95.8981 98.8799 96.0217 98.9453 96.1545 98.9845C96.2873 99.0237 96.4266 99.0359 96.5641 99.0202C96.7017 99.0046 96.8347 98.9614 96.9554 98.8934C97.0761 98.8254 97.1819 98.7338 97.2668 98.6241C112.616 79.7967 135.602 67.4753 161.48 66.4087C161.819 66.3977 162.156 66.4552 162.472 66.5778C162.788 66.7003 163.076 66.8854 163.319 67.122C163.562 67.3586 163.755 67.6419 163.886 67.9549C164.018 68.2679 164.085 68.6043 164.084 68.944V110.907C164.084 111.183 164.193 111.447 164.388 111.642C164.582 111.837 164.846 111.947 165.121 111.947C165.396 111.947 165.66 111.837 165.854 111.642C166.049 111.447 166.158 111.183 166.158 110.907Z" fill="black"/>
<path fill-rule="evenodd" clip-rule="evenodd" d="M83.0074 117.985C78.5019 128.25 75.9596 139.273 75.5127 150.48C75.4906 151.098 75.5929 151.714 75.8134 152.291C76.034 152.869 76.3683 153.396 76.7964 153.841C77.2245 154.286 77.7376 154.64 78.3051 154.882C78.8726 155.123 79.4828 155.248 80.0994 155.248C94.4693 155.259 147.303 155.259 161.555 155.259C162.775 155.259 163.946 154.773 164.809 153.907C165.673 153.042 166.158 151.868 166.158 150.643C166.158 150.367 166.049 150.103 165.854 149.908C165.66 149.713 165.396 149.603 165.121 149.603C164.846 149.603 164.582 149.713 164.388 149.908C164.193 150.103 164.084 150.367 164.084 150.643C164.084 151.316 163.817 151.961 163.343 152.436C162.868 152.911 162.225 153.179 161.555 153.179C147.304 153.179 94.4706 153.179 80.0994 153.167C79.7619 153.167 79.4278 153.099 79.117 152.967C78.8063 152.835 78.5253 152.641 78.2907 152.398C78.0561 152.154 77.8728 151.866 77.7517 151.55C77.6305 151.234 77.574 150.897 77.5855 150.559C78.0227 139.614 80.5064 128.849 84.9073 118.825C85.0026 118.575 84.9983 118.298 84.8953 118.051C84.7922 117.804 84.5984 117.607 84.354 117.5C84.1096 117.393 83.8335 117.384 83.583 117.476C83.3325 117.567 83.1268 117.753 83.0088 117.992L83.0074 117.985Z" fill="black"/>
<path fill-rule="evenodd" clip-rule="evenodd" d="M119.651 200.524H80.9433C80.6683 200.524 80.4045 200.634 80.21 200.829C80.0155 201.024 79.9062 201.288 79.9062 201.564C79.9062 201.84 80.0155 202.105 80.21 202.3C80.4045 202.495 80.6683 202.604 80.9433 202.604H119.651C119.927 202.604 120.19 202.495 120.385 202.3C120.579 202.105 120.689 201.84 120.689 201.564C120.689 201.288 120.579 201.024 120.385 200.829C120.19 200.634 119.927 200.524 119.651 200.524Z" fill="black"/>
<path d="M119.651 204.338C121.179 204.338 122.417 203.096 122.417 201.564C122.417 200.032 121.179 198.79 119.651 198.79C118.124 198.79 116.886 200.032 116.886 201.564C116.886 203.096 118.124 204.338 119.651 204.338Z" fill="black"/>
<path fill-rule="evenodd" clip-rule="evenodd" d="M276.014 147.302L305.559 117.662C305.656 117.566 305.77 117.489 305.896 117.437C306.022 117.384 306.157 117.358 306.293 117.358C306.429 117.358 306.564 117.384 306.69 117.437C306.816 117.489 306.93 117.566 307.026 117.662C307.123 117.759 307.199 117.874 307.251 118C307.304 118.126 307.33 118.261 307.33 118.398C307.33 118.535 307.304 118.67 307.251 118.796C307.199 118.922 307.123 119.037 307.026 119.134L277.178 149.072C277.081 149.169 276.967 149.246 276.841 149.298C276.715 149.35 276.58 149.377 276.444 149.377H237.728C237.453 149.377 237.19 149.267 236.995 149.072C236.801 148.877 236.691 148.613 236.691 148.337C236.691 148.061 236.801 147.796 236.995 147.601C237.19 147.406 237.453 147.297 237.728 147.297H276.008L276.014 147.302Z" fill="black"/>
<path d="M237.733 151.116C239.261 151.116 240.499 149.874 240.499 148.342C240.499 146.81 239.261 145.569 237.733 145.569C236.206 145.569 234.968 146.81 234.968 148.342C234.968 149.874 236.206 151.116 237.733 151.116Z" fill="black"/>
<path d="M62.6001 222.672C75.01 222.672 85.0702 212.581 85.0702 200.134C85.0702 187.687 75.01 177.597 62.6001 177.597C50.1901 177.597 40.1299 187.687 40.1299 200.134C40.1299 212.581 50.1901 222.672 62.6001 222.672Z" fill="#121F55"/>
<path fill-rule="evenodd" clip-rule="evenodd" d="M79.2451 213.675C76.455 217.123 72.6684 219.621 68.4058 220.823C64.1432 222.026 59.6138 221.875 55.4403 220.391C51.2668 218.907 47.6539 216.163 45.0984 212.536C42.5429 208.909 41.1702 204.577 41.1689 200.136C41.1689 199.86 41.0596 199.595 40.8651 199.4C40.6706 199.205 40.4069 199.095 40.1318 199.095C39.8568 199.095 39.593 199.205 39.3985 199.4C39.204 199.595 39.0947 199.86 39.0947 200.136C39.0947 213.149 49.6274 223.713 62.602 223.713C66.1006 223.715 69.5553 222.933 72.7135 221.423C75.8716 219.913 78.6532 217.714 80.8547 214.987C80.9421 214.881 81.0076 214.759 81.0477 214.627C81.0877 214.496 81.1014 214.358 81.088 214.221C81.0745 214.084 81.0342 213.952 80.9693 213.831C80.9044 213.71 80.8163 213.603 80.71 213.516C80.6036 213.429 80.4813 213.365 80.3499 213.326C80.2185 213.287 80.0808 213.274 79.9446 213.289C79.8084 213.304 79.6765 213.346 79.5564 213.412C79.4363 213.478 79.3306 213.567 79.2451 213.675Z" fill="black"/>
<path fill-rule="evenodd" clip-rule="evenodd" d="M47.4476 184.938C50.4451 181.932 54.2636 179.886 58.4204 179.057C62.5772 178.228 66.8858 178.654 70.8014 180.28C74.7171 181.907 78.064 184.661 80.4192 188.195C82.7744 191.73 84.0321 195.885 84.0332 200.136C84.0332 200.77 84.0065 201.398 83.953 202.019C83.9378 202.157 83.9502 202.296 83.9896 202.429C84.0289 202.562 84.0944 202.686 84.1821 202.793C84.2698 202.901 84.3781 202.989 84.5004 203.054C84.6228 203.118 84.7568 203.158 84.8946 203.17C85.0324 203.182 85.1712 203.166 85.3028 203.123C85.4344 203.081 85.5561 203.012 85.6609 202.921C85.7657 202.831 85.8513 202.72 85.9128 202.596C85.9743 202.472 86.0104 202.336 86.0189 202.198C86.0788 201.518 86.1083 200.831 86.1074 200.136C86.1074 187.122 75.5748 176.558 62.6001 176.558C59.513 176.555 56.4557 177.163 53.6038 178.349C50.7519 179.534 48.1617 181.273 45.9819 183.466C45.7929 183.662 45.6882 183.925 45.6905 184.198C45.6927 184.47 45.8016 184.731 45.9938 184.924C46.186 185.117 46.4461 185.227 46.718 185.229C46.9899 185.232 47.252 185.127 47.4476 184.938Z" fill="black"/>
<path d="M319.846 126.505C332.256 126.505 342.316 116.415 342.316 103.968C342.316 91.5208 332.256 81.4304 319.846 81.4304C307.436 81.4304 297.376 91.5208 297.376 103.968C297.376 116.415 307.436 126.505 319.846 126.505Z" fill="#2D4BAA"/>
<path fill-rule="evenodd" clip-rule="evenodd" d="M319.847 82.472C324.105 82.4731 328.265 83.746 331.799 86.1283C335.332 88.5106 338.078 91.8943 339.686 95.8481C341.295 99.8019 341.692 104.147 340.829 108.328C339.966 112.51 337.881 116.339 334.839 119.327C334.737 119.421 334.654 119.535 334.596 119.662C334.538 119.789 334.507 119.926 334.503 120.066C334.499 120.205 334.523 120.344 334.574 120.474C334.625 120.604 334.701 120.722 334.799 120.822C334.896 120.921 335.012 121 335.141 121.054C335.269 121.108 335.407 121.135 335.546 121.134C335.685 121.133 335.823 121.104 335.951 121.049C336.078 120.993 336.194 120.913 336.29 120.812C338.528 118.62 340.307 116 341.52 113.107C342.733 110.214 343.356 107.107 343.353 103.969C343.353 90.9572 332.82 80.3916 319.846 80.3916C319.571 80.3916 319.307 80.5012 319.112 80.6963C318.918 80.8913 318.809 81.1559 318.809 81.4318C318.809 81.7077 318.918 81.9722 319.112 82.1673C319.307 82.3624 319.571 82.472 319.846 82.472H319.847Z" fill="black"/>
<path fill-rule="evenodd" clip-rule="evenodd" d="M319.847 125.466C315.549 125.464 311.351 124.166 307.797 121.741C304.244 119.315 301.5 115.874 299.922 111.864C298.343 107.854 298.003 103.461 298.946 99.255C299.888 95.0489 302.07 91.2242 305.207 88.2776C305.403 88.0878 305.517 87.8283 305.524 87.5551C305.53 87.282 305.43 87.0172 305.243 86.8179C305.057 86.6186 304.8 86.5008 304.528 86.4901C304.256 86.4793 303.99 86.5764 303.789 86.7603C301.437 88.9628 299.562 91.6273 298.281 94.5879C297 97.5485 296.341 100.742 296.344 103.969C296.344 116.983 306.876 127.547 319.851 127.547C320.126 127.547 320.39 127.437 320.584 127.242C320.779 127.047 320.888 126.783 320.888 126.507C320.888 126.231 320.779 125.966 320.584 125.771C320.39 125.576 320.126 125.466 319.851 125.466H319.847Z" fill="black"/>
<path fill-rule="evenodd" clip-rule="evenodd" d="M95.3974 113.983H133.677C133.952 113.983 134.216 114.092 134.41 114.288C134.605 114.483 134.714 114.747 134.714 115.023C134.714 115.299 134.605 115.563 134.41 115.759C134.216 115.954 133.952 116.063 133.677 116.063H94.9674C94.8312 116.063 94.6964 116.036 94.5706 115.984C94.4448 115.932 94.3306 115.855 94.2345 115.758L64.3858 85.82C64.282 85.7255 64.1983 85.6107 64.1399 85.4828C64.0816 85.3549 64.0497 85.2164 64.0462 85.0757C64.0427 84.9351 64.0677 84.7952 64.1197 84.6645C64.1717 84.5338 64.2496 84.4151 64.3486 84.3155C64.4477 84.2158 64.5658 84.1374 64.696 84.0849C64.8261 84.0324 64.9655 84.0069 65.1058 84.01C65.246 84.0131 65.3842 84.0447 65.5119 84.1029C65.6396 84.1611 65.7542 84.2446 65.8488 84.3485L95.3933 113.983H95.3974Z" fill="black"/>
<path d="M133.674 117.795C135.201 117.795 136.439 116.554 136.439 115.022C136.439 113.49 135.201 112.248 133.674 112.248C132.146 112.248 130.908 113.49 130.908 115.022C130.908 116.554 132.146 117.795 133.674 117.795Z" fill="black"/>
<path d="M53.6372 97.1151C66.0471 97.1151 76.1073 87.0247 76.1073 74.5776C76.1073 62.1305 66.0471 52.0402 53.6372 52.0402C41.2272 52.0402 31.167 62.1305 31.167 74.5776C31.167 87.0247 41.2272 97.1151 53.6372 97.1151Z" fill="#72D8ED"/>
<path fill-rule="evenodd" clip-rule="evenodd" d="M75.0704 74.5776C75.0692 78.9392 73.7452 83.1972 71.2743 86.7862C68.8034 90.3753 65.3026 93.1256 61.2365 94.672C57.1705 96.2184 52.7317 96.4877 48.5095 95.4442C44.2872 94.4007 40.4813 92.0937 37.5971 88.8296C37.4137 88.6232 37.1561 88.4984 36.881 88.4825C36.6059 88.4667 36.3357 88.5611 36.13 88.745C35.9242 88.9289 35.7998 89.1873 35.7839 89.4632C35.7681 89.7392 35.8622 90.0102 36.0456 90.2165C38.2485 92.7162 40.9564 94.7173 43.9894 96.0869C47.0223 97.4566 50.3111 98.1635 53.6374 98.1608C66.6106 98.1608 77.1446 87.5952 77.1446 74.5832C77.1446 74.3073 77.0353 74.0427 76.8409 73.8476C76.6464 73.6526 76.3826 73.543 76.1075 73.543C75.8325 73.543 75.5687 73.6526 75.3742 73.8476C75.1797 74.0427 75.0704 74.3073 75.0704 74.5832V74.5776Z" fill="black"/>
<path fill-rule="evenodd" clip-rule="evenodd" d="M32.2038 74.5777C32.2048 70.4146 33.411 66.3414 35.6758 62.8528C37.9406 59.3641 41.1667 56.6101 44.9621 54.9251C48.7576 53.2402 52.9592 52.6969 57.0566 53.3611C61.1541 54.0253 64.9711 55.8685 68.0441 58.6669C68.1448 58.7591 68.2626 58.8304 68.3908 58.8769C68.519 58.9234 68.655 58.9441 68.7912 58.9379C68.9274 58.9317 69.061 58.8986 69.1844 58.8405C69.3078 58.7825 69.4186 58.7006 69.5105 58.5997C69.6024 58.4987 69.6736 58.3805 69.7199 58.2519C69.7663 58.1234 69.7869 57.9869 69.7807 57.8503C69.7745 57.7137 69.7415 57.5797 69.6836 57.4559C69.6258 57.3321 69.5442 57.221 69.4435 57.1288C65.1231 53.1795 59.4865 50.9934 53.641 51C40.6678 51 30.1338 61.5642 30.1338 74.5777C30.1338 74.8535 30.2431 75.1181 30.4375 75.3132C30.632 75.5083 30.8958 75.6178 31.1709 75.6178C31.4459 75.6178 31.7097 75.5083 31.9042 75.3132C32.0987 75.1181 32.208 74.8535 32.208 74.5777H32.2038Z" fill="black"/>
<path d="M303.049 191.226V162.202C303.054 160.576 303.7 159.017 304.846 157.867C305.993 156.718 307.546 156.069 309.168 156.065H387.974C389.595 156.069 391.149 156.718 392.295 157.867C393.442 159.017 394.088 160.576 394.092 162.202V191.226H303.049Z" fill="#2D4BAA"/>
<path d="M297.45 191.226V162.202C297.455 160.576 298.101 159.017 299.248 157.867C300.394 156.718 301.948 156.069 303.569 156.065H382.376C383.998 156.069 385.551 156.718 386.698 157.867C387.844 159.017 388.49 160.576 388.495 162.202V191.226H297.45Z" fill="#B2BFEB"/>
<path d="M380.327 181.776C380.325 182.426 380.066 183.049 379.608 183.508C379.149 183.968 378.528 184.227 377.88 184.229H306.702C306.054 184.228 305.432 183.968 304.973 183.508C304.515 183.048 304.256 182.425 304.255 181.774V165.511C304.257 164.861 304.515 164.237 304.974 163.777C305.432 163.317 306.054 163.058 306.702 163.056H377.88C378.528 163.058 379.15 163.317 379.608 163.777C380.067 164.237 380.325 164.861 380.327 165.511V181.773V181.776Z" fill="#2D4BAA"/>
<path d="M380.327 181.776C380.325 182.426 380.066 183.049 379.608 183.508C379.149 183.968 378.528 184.227 377.879 184.229H308.648C307.999 184.227 307.378 183.968 306.919 183.508C306.46 183.048 306.202 182.425 306.2 181.774V165.511C306.202 164.861 306.46 164.237 306.919 163.777C307.378 163.317 307.999 163.058 308.648 163.056H377.881C378.529 163.058 379.151 163.317 379.609 163.777C380.068 164.237 380.326 164.861 380.328 165.511V181.773L380.327 181.776Z" fill="white"/>
<path d="M394.094 191.225L380.1 270.821C379.508 274.197 376.27 276.958 372.91 276.958H294.094C290.728 276.958 288.462 274.197 289.055 270.823L303.049 191.225H394.094Z" fill="#2D4BAA"/>
<path d="M388.497 191.225L374.503 270.821C373.91 274.197 370.671 276.958 367.313 276.958H288.497C285.131 276.958 282.863 274.197 283.457 270.823L297.45 191.225H388.497Z" fill="white"/>
<path d="M365.739 266.133C365.503 267.483 364.206 268.587 362.86 268.587H354.211C352.865 268.587 351.958 267.477 352.195 266.132L353.637 257.934C353.875 256.583 355.17 255.479 356.516 255.479H365.165C366.511 255.479 367.419 256.589 367.18 257.935L365.739 266.135V266.133Z" fill="#2D4BAA"/>
<path d="M346.159 266.133C345.922 267.483 344.627 268.587 343.28 268.588H334.632C333.285 268.588 332.378 267.479 332.616 266.133L334.057 257.935C334.295 256.586 335.59 255.482 336.936 255.482H345.585C346.931 255.482 347.839 256.591 347.6 257.935L346.159 266.135V266.133Z" fill="#2D4BAA"/>
<path d="M326.581 266.133C326.345 267.483 325.048 268.588 323.702 268.588H315.053C313.706 268.588 312.799 267.479 313.037 266.133L314.479 257.935C314.716 256.586 316.011 255.482 317.357 255.482H326.006C327.351 255.482 328.26 256.591 328.022 257.935L326.58 266.135L326.581 266.133Z" fill="#2D4BAA"/>
<path d="M307.005 266.133C306.769 267.483 305.473 268.588 304.128 268.588H295.473C294.127 268.588 293.219 267.479 293.457 266.133L294.898 257.935C295.134 256.586 296.431 255.482 297.777 255.482H306.425C307.771 255.482 308.68 256.591 308.441 257.935L307.005 266.133Z" fill="#2D4BAA"/>
<path d="M368.974 247.724C368.737 249.073 367.441 250.178 366.095 250.178H357.448C356.099 250.178 355.194 249.069 355.431 247.724L356.872 239.525C357.11 238.176 358.404 237.072 359.751 237.072H368.401C369.746 237.072 370.655 238.182 370.415 239.525L368.974 247.725V247.724Z" fill="#2D4BAA"/>
<path d="M349.396 247.724C349.158 249.074 347.862 250.178 346.517 250.178H337.867C336.521 250.178 335.614 249.069 335.853 247.724L337.294 239.524C337.531 238.175 338.826 237.069 340.173 237.069H348.822C350.169 237.069 351.074 238.179 350.838 239.523L349.396 247.721V247.724Z" fill="#2D4BAA"/>
<path d="M329.821 247.724C329.584 249.073 328.289 250.178 326.942 250.178H318.288C316.942 250.178 316.034 249.069 316.274 247.724L317.714 239.524C317.952 238.175 319.248 237.069 320.593 237.069H329.243C330.588 237.069 331.497 238.179 331.259 239.524L329.821 247.724Z" fill="#2D4BAA"/>
<path d="M310.238 247.724C310.001 249.073 308.705 250.178 307.36 250.178H298.709C297.363 250.178 296.456 249.069 296.693 247.724L298.135 239.524C298.371 238.175 299.669 237.069 301.014 237.069H309.663C311.009 237.069 311.916 238.179 311.678 239.524L310.237 247.722L310.238 247.724Z" fill="#2D4BAA"/>
<path d="M372.212 229.309C371.975 230.66 370.678 231.764 369.333 231.764H360.683C359.338 231.764 358.431 230.655 358.667 229.309L360.104 221.113C360.342 219.763 361.638 218.658 362.983 218.658H371.632C372.979 218.658 373.886 219.767 373.648 221.113L372.212 229.309Z" fill="#2D4BAA"/>
<path d="M352.637 229.309C352.4 230.66 351.105 231.764 349.761 231.764H341.104C339.758 231.764 338.852 230.655 339.088 229.309L340.531 221.11C340.767 219.762 342.063 218.658 343.408 218.658H352.057C353.404 218.658 354.311 219.767 354.073 221.113L352.637 229.309Z" fill="#2D4BAA"/>
<path d="M333.053 229.309C332.816 230.66 331.521 231.764 330.174 231.764H321.525C320.178 231.764 319.271 230.655 319.509 229.309L320.951 221.11C321.187 219.762 322.483 218.658 323.83 218.658H332.478C333.825 218.658 334.732 219.767 334.494 221.111L333.053 229.309Z" fill="#2D4BAA"/>
<path d="M313.474 229.309C313.238 230.66 311.942 231.764 310.595 231.764H301.946C300.601 231.764 299.694 230.655 299.93 229.309L301.372 221.11C301.61 219.762 302.906 218.658 304.251 218.658H312.901C314.246 218.658 315.154 219.767 314.915 221.111L313.474 229.309Z" fill="#2D4BAA"/>
<path d="M375.453 210.902C375.217 212.252 373.92 213.357 372.574 213.357H363.924C362.578 213.357 361.671 212.247 361.909 210.901L363.351 202.703C363.588 201.352 364.883 200.248 366.229 200.248H374.878C376.225 200.248 377.132 201.357 376.894 202.703L375.453 210.902Z" fill="#2D4BAA"/>
<path d="M355.868 210.902C355.629 212.252 354.333 213.357 352.989 213.357H344.34C342.993 213.357 342.086 212.248 342.324 210.902L343.766 202.704C344.003 201.353 345.298 200.249 346.645 200.249H355.295C356.64 200.249 357.547 201.359 357.309 202.704L355.868 210.902Z" fill="#2D4BAA"/>
<path d="M336.29 210.904C336.052 212.254 334.756 213.36 333.411 213.36H324.762C323.416 213.36 322.509 212.25 322.747 210.904L324.188 202.705C324.426 201.355 325.721 200.251 327.067 200.251H335.715C337.061 200.251 337.968 201.36 337.731 202.705L336.29 210.904Z" fill="#2D4BAA"/>
<path d="M316.711 210.904C316.475 212.254 315.178 213.36 313.832 213.36H305.183C303.836 213.36 302.929 212.25 303.167 210.904L304.609 202.705C304.845 201.355 306.143 200.251 307.487 200.251H316.132C317.479 200.251 318.386 201.36 318.148 202.705L316.706 210.904H316.711Z" fill="#2D4BAA"/>
<path d="M364.181 266.134C363.944 267.483 362.648 268.587 361.302 268.587H352.653C351.308 268.587 350.401 267.477 350.637 266.132L352.083 257.935C352.32 256.585 353.616 255.481 354.962 255.481H363.61C364.957 255.481 365.864 256.59 365.626 257.937L364.186 266.136L364.181 266.134Z" fill="#B2BFEB"/>
<path d="M344.602 266.133C344.365 267.483 343.07 268.587 341.723 268.588H333.074C331.727 268.588 330.82 267.479 331.057 266.133L332.5 257.935C332.736 256.586 334.033 255.482 335.379 255.482H344.027C345.373 255.482 346.282 256.591 346.043 257.935L344.6 266.135L344.602 266.133Z" fill="#B2BFEB"/>
<path d="M325.024 266.133C324.788 267.483 323.492 268.588 322.147 268.588H313.505C312.158 268.588 311.249 267.479 311.488 266.133L312.929 257.935C313.167 256.586 314.461 255.482 315.807 255.482H324.456C325.802 255.482 326.709 256.591 326.471 257.935L325.03 266.135L325.024 266.133Z" fill="#B2BFEB"/>
<path d="M305.444 266.133C305.208 267.483 303.911 268.588 302.566 268.588H293.916C292.571 268.588 291.662 267.479 291.9 266.133L293.341 257.935C293.579 256.586 294.876 255.482 296.22 255.482H304.869C306.215 255.482 307.123 256.591 306.885 257.935L305.443 266.135L305.444 266.133Z" fill="#B2BFEB"/>
<path d="M367.419 247.724C367.181 249.073 365.886 250.178 364.54 250.178H355.891C354.544 250.178 353.637 249.069 353.875 247.724L355.317 239.525C355.553 238.176 356.849 237.072 358.196 237.072H366.845C368.191 237.072 369.098 238.182 368.86 239.525L367.419 247.725V247.724Z" fill="#B2BFEB"/>
<path d="M347.84 247.724C347.602 249.074 346.305 250.178 344.961 250.178H336.312C334.965 250.178 334.058 249.069 334.296 247.724L335.738 239.524C335.976 238.175 337.27 237.069 338.617 237.069H347.265C348.612 237.069 349.519 238.179 349.281 239.523L347.84 247.721V247.724Z" fill="#B2BFEB"/>
<path d="M328.26 247.724C328.022 249.073 326.726 250.178 325.381 250.178H316.732C315.385 250.178 314.478 249.069 314.716 247.724L316.158 239.524C316.396 238.175 317.691 237.069 319.037 237.069H327.686C329.032 237.069 329.939 238.179 329.701 239.524L328.26 247.722V247.724Z" fill="#B2BFEB"/>
<path d="M308.683 247.724C308.445 249.073 307.148 250.178 305.802 250.178H297.155C295.808 250.178 294.901 249.069 295.138 247.724L296.581 239.524C296.817 238.175 298.113 237.069 299.458 237.069H308.112C309.457 237.069 310.366 238.179 310.128 239.524L308.687 247.722L308.683 247.724Z" fill="#B2BFEB"/>
<path d="M370.656 229.309C370.42 230.66 369.123 231.764 367.777 231.764H359.128C357.782 231.764 356.875 230.655 357.113 229.309L358.554 221.111C358.792 219.762 360.087 218.656 361.433 218.656H370.082C371.429 218.656 372.336 219.766 372.098 221.111L370.656 229.309Z" fill="#B2BFEB"/>
<path d="M351.076 229.309C350.838 230.66 349.544 231.764 348.198 231.764H339.548C338.202 231.764 337.295 230.655 337.532 229.309L338.974 221.11C339.21 219.762 340.506 218.658 341.853 218.658H350.501C351.848 218.658 352.756 219.767 352.518 221.113L351.076 229.309Z" fill="#B2BFEB"/>
<path d="M331.498 229.309C331.26 230.66 329.965 231.764 328.619 231.764H319.97C318.623 231.764 317.716 230.655 317.954 229.309L319.396 221.11C319.633 219.762 320.928 218.658 322.274 218.658H330.927C332.273 218.658 333.181 219.767 332.942 221.111L331.498 229.309Z" fill="#B2BFEB"/>
<path d="M311.918 229.309C311.682 230.66 310.386 231.764 309.039 231.764H300.39C299.044 231.764 298.136 230.655 298.374 229.309L299.815 221.113C300.052 219.765 301.348 218.661 302.692 218.661H311.341C312.688 218.661 313.595 219.77 313.358 221.114L311.918 229.309Z" fill="#B2BFEB"/>
<path d="M373.891 210.902C373.654 212.252 372.358 213.357 371.012 213.357H362.363C361.018 213.357 360.111 212.247 360.348 210.901L361.791 202.703C362.027 201.352 363.323 200.248 364.668 200.248H373.318C374.664 200.248 375.571 201.357 375.332 202.703L373.891 210.901V210.902Z" fill="#B2BFEB"/>
<path d="M354.313 210.902C354.075 212.252 352.778 213.357 351.434 213.357H342.784C341.438 213.357 340.531 212.248 340.768 210.902L342.211 202.704C342.448 201.353 343.743 200.249 345.09 200.249H353.743C355.088 200.249 355.996 201.359 355.759 202.704L354.313 210.902Z" fill="#B2BFEB"/>
<path d="M334.734 210.904C334.496 212.254 333.201 213.36 331.855 213.36H323.206C321.86 213.36 320.953 212.25 321.19 210.904L322.632 202.705C322.87 201.355 324.164 200.251 325.511 200.251H334.16C335.507 200.251 336.413 201.36 336.175 202.705L334.734 210.904Z" fill="#B2BFEB"/>
<path d="M315.154 210.904C314.917 212.254 313.621 213.36 312.276 213.36H303.626C302.279 213.36 301.372 212.25 301.61 210.904L303.052 202.705C303.289 201.355 304.585 200.251 305.93 200.251H314.579C315.926 200.251 316.833 201.36 316.595 202.705L315.153 210.904H315.154Z" fill="#B2BFEB"/>
<path fill-rule="evenodd" clip-rule="evenodd" d="M381.176 192.265H394.092C394.367 192.265 394.631 192.155 394.826 191.96C395.02 191.765 395.129 191.5 395.129 191.225C395.129 190.949 395.02 190.684 394.826 190.489C394.631 190.294 394.367 190.184 394.092 190.184H381.176C380.901 190.184 380.637 190.294 380.442 190.489C380.248 190.684 380.139 190.949 380.139 191.225C380.139 191.5 380.248 191.765 380.442 191.96C380.637 192.155 380.901 192.265 381.176 192.265Z" fill="black"/>
<path fill-rule="evenodd" clip-rule="evenodd" d="M392.913 191.265L386.994 224.936C386.968 225.072 386.97 225.211 386.998 225.345C387.026 225.48 387.081 225.608 387.159 225.721C387.237 225.835 387.337 225.931 387.452 226.006C387.568 226.08 387.697 226.131 387.832 226.155C387.967 226.179 388.106 226.175 388.24 226.145C388.374 226.115 388.501 226.058 388.612 225.979C388.724 225.899 388.82 225.798 388.892 225.681C388.965 225.564 389.014 225.434 389.036 225.298L394.95 191.625C394.976 191.49 394.974 191.351 394.946 191.216C394.918 191.082 394.863 190.954 394.785 190.841C394.707 190.727 394.607 190.631 394.492 190.556C394.376 190.482 394.247 190.431 394.112 190.407C393.977 190.383 393.838 190.387 393.704 190.417C393.57 190.447 393.443 190.503 393.332 190.583C393.22 190.663 393.124 190.764 393.052 190.881C392.979 190.997 392.93 191.128 392.908 191.263L392.913 191.265Z" fill="black"/>
<path fill-rule="evenodd" clip-rule="evenodd" d="M298.813 192.266L284.972 271.003C284.497 273.702 286.299 275.92 288.989 275.92H372.903C375.794 275.92 378.572 273.543 379.078 270.649L380.375 263.278C380.397 263.141 380.445 263.01 380.517 262.892C380.589 262.775 380.684 262.673 380.797 262.592C380.909 262.512 381.036 262.454 381.17 262.424C381.305 262.393 381.444 262.39 381.58 262.414C381.716 262.438 381.845 262.489 381.961 262.563C382.077 262.638 382.177 262.736 382.255 262.85C382.333 262.964 382.388 263.092 382.416 263.228C382.444 263.363 382.444 263.503 382.418 263.639L381.122 271.011C380.444 274.863 376.744 278.007 372.903 278.007H288.989C284.95 278.007 282.213 274.701 282.928 270.649L296.922 191.053C296.964 190.812 297.09 190.593 297.277 190.436C297.463 190.279 297.7 190.193 297.944 190.193H303.295C303.57 190.193 303.834 190.302 304.028 190.497C304.223 190.692 304.332 190.957 304.332 191.233C304.332 191.509 304.223 191.773 304.028 191.968C303.834 192.164 303.57 192.273 303.295 192.273H298.813V192.266Z" fill="black"/>
<path fill-rule="evenodd" clip-rule="evenodd" d="M298.986 178.993V162.201C298.99 160.85 299.526 159.556 300.478 158.601C301.431 157.646 302.721 157.108 304.067 157.104H321.989C322.265 157.104 322.528 156.994 322.723 156.799C322.917 156.604 323.027 156.339 323.027 156.063C323.027 155.788 322.917 155.523 322.723 155.328C322.528 155.133 322.265 155.023 321.989 155.023H304.063C302.167 155.029 300.35 155.787 299.009 157.131C297.668 158.476 296.913 160.299 296.907 162.201V178.993C296.907 179.269 297.017 179.534 297.211 179.729C297.405 179.924 297.669 180.034 297.944 180.034C298.219 180.034 298.483 179.924 298.678 179.729C298.872 179.534 298.981 179.269 298.981 178.993H298.986Z" fill="black"/>
<path fill-rule="evenodd" clip-rule="evenodd" d="M343.511 157.105H387.973C389.319 157.109 390.61 157.647 391.562 158.602C392.514 159.557 393.051 160.851 393.054 162.202V191.226C393.054 191.502 393.164 191.766 393.358 191.961C393.553 192.157 393.816 192.266 394.091 192.266C394.366 192.266 394.63 192.157 394.825 191.961C395.019 191.766 395.129 191.502 395.129 191.226V162.2C395.123 160.299 394.367 158.477 393.026 157.132C391.685 155.788 389.869 155.03 387.973 155.025H343.511C343.236 155.025 342.972 155.134 342.777 155.329C342.583 155.524 342.474 155.789 342.474 156.065C342.474 156.341 342.583 156.605 342.777 156.8C342.972 156.995 343.236 157.105 343.511 157.105Z" fill="black"/>
</g>
</g>
<defs>
<linearGradient id="paint0_linear_138_10854" x1="222.926" y1="284.448" x2="222.378" y2="257.573" gradientUnits="userSpaceOnUse">
<stop stop-color="white" stop-opacity="0"/>
<stop offset="1" stop-color="#82A9FF" stop-opacity="0.21"/>
</linearGradient>
<linearGradient id="paint1_linear_138_10854" x1="233.455" y1="4.85104" x2="132.602" y2="175.999" gradientUnits="userSpaceOnUse">
<stop stop-color="white" stop-opacity="0"/>
<stop offset="1" stop-color="#82A9FF" stop-opacity="0.21"/>
</linearGradient>
<clipPath id="clip0_138_10854">
<rect width="422" height="310" fill="white" transform="translate(0.708008)"/>
</clipPath>
<clipPath id="clip1_138_10854">
<rect width="365" height="227" fill="white" transform="translate(30.1299 51)"/>
</clipPath>
</defs>
</svg>
