<svg width="423" height="310" viewBox="0 0 423 310" fill="none" xmlns="http://www.w3.org/2000/svg">
<path fill-rule="evenodd" clip-rule="evenodd" d="M251.626 261.405C265.493 265.057 289.32 266.284 319.66 266.094C347.819 266.115 359.101 269.009 358.679 274.094C355.412 281.979 308.857 286.01 228.957 286.178C162.997 286.383 132.249 281.656 123.367 273.486C109.877 259.414 209.099 250.392 251.626 261.405Z" fill="url(#paint0_linear_130_10)"/>
<path d="M277.31 114.861L234.565 72.3628L233.787 79.0804L269.809 114.861H277.31Z" fill="#2D4BAA"/>
<path d="M191.325 114.861L227.347 79.0804L226.568 72.3628L183.894 114.861H191.325Z" fill="#2D4BAA"/>
<path d="M235.06 270.851H225.223V71.444C225.223 68.7569 227.417 66.4941 230.177 66.4941C232.866 66.4941 235.13 68.6862 235.13 71.444L235.06 270.851Z" fill="#2D4BAA"/>
<path d="M225.294 247.022L203.71 270.71H193.165L225.365 235.142L225.294 247.022Z" fill="#2D4BAA"/>
<path d="M234.848 247.022L256.433 270.71H266.978L234.848 235.142V247.022Z" fill="#2D4BAA"/>
<path d="M230.178 79.3627C231.507 79.3627 232.584 78.2546 232.584 76.8878C232.584 75.5209 231.507 74.4128 230.178 74.4128C228.849 74.4128 227.772 75.5209 227.772 76.8878C227.772 78.2546 228.849 79.3627 230.178 79.3627Z" fill="#8EDEF2"/>
<path d="M322.178 209.331H139.027V219.018H322.178V209.331Z" fill="#2D4BAA"/>
<path d="M322.178 94.0723H139.027V98.8099H322.178V94.0723Z" fill="#566CD3"/>
<path d="M144.905 99.3086H316.228V208.831H144.905V99.3086Z" fill="white" stroke="black"/>
<path d="M155.52 166.132H214.603V169.375H155.52V166.132Z" stroke="black"/>
<path d="M155.52 174.122H214.603V177.365H155.52V174.122Z" stroke="black"/>
<path d="M155.52 182.185H214.603V185.427H155.52V182.185Z" stroke="black"/>
<path d="M155.52 190.245H214.603V193.487H155.52V190.245Z" stroke="black"/>
<path d="M155.52 198.305H214.603V201.548H155.52V198.305Z" stroke="black"/>
<path d="M308.094 142.298H230.319V202.049H308.094V142.298Z" fill="#E5E9FF"/>
<path d="M239.731 141.378H236.971V202.968H239.731V141.378Z" fill="white"/>
<path d="M248.577 141.378H245.817V202.968H248.577V141.378Z" fill="white"/>
<path d="M257.423 141.378H254.663V202.968H257.423V141.378Z" fill="white"/>
<path d="M266.27 141.378H263.51V202.968H266.27V141.378Z" fill="white"/>
<path d="M275.116 141.378H272.356V202.968H275.116V141.378Z" fill="white"/>
<path d="M283.962 141.378H281.202V202.968H283.962V141.378Z" fill="white"/>
<path d="M292.808 141.378H290.048V202.968H292.808V141.378Z" fill="white"/>
<path d="M301.654 141.378H298.894V202.968H301.654V141.378Z" fill="white"/>
<path d="M308.377 148.238H228.904V150.996H308.377V148.238Z" fill="white"/>
<path d="M308.377 157.147H228.904V159.905H308.377V157.147Z" fill="white"/>
<path d="M308.377 166.057H228.904V168.815H308.377V166.057Z" fill="white"/>
<path d="M308.377 175.037H228.904V177.795H308.377V175.037Z" fill="white"/>
<path d="M308.377 183.947H228.904V186.705H308.377V183.947Z" fill="white"/>
<path d="M308.377 192.856H228.904V195.614H308.377V192.856Z" fill="white"/>
<path d="M230.601 181.26L229.823 178.998L263.297 167.966L291.251 175.179L307.881 166.552L308.943 168.674L291.534 177.725L291.109 177.583L263.367 170.441L230.601 181.26Z" fill="#2747B3"/>
<path d="M291.393 179.422C293.23 179.422 294.719 177.934 294.719 176.099C294.719 174.263 293.23 172.775 291.393 172.775C289.556 172.775 288.067 174.263 288.067 176.099C288.067 177.934 289.556 179.422 291.393 179.422Z" fill="#F7B75D"/>
<path d="M307.882 171.005C309.719 171.005 311.208 169.517 311.208 167.682C311.208 165.846 309.719 164.358 307.882 164.358C306.045 164.358 304.556 165.846 304.556 167.682C304.556 169.517 306.045 171.005 307.882 171.005Z" fill="#F7B75D"/>
<path d="M263.368 172.491C265.205 172.491 266.694 171.003 266.694 169.168C266.694 167.332 265.205 165.844 263.368 165.844C261.531 165.844 260.042 167.332 260.042 169.168C260.042 171.003 261.531 172.491 263.368 172.491Z" fill="#F7B75D"/>
<path d="M230.531 183.239C232.368 183.239 233.857 181.751 233.857 179.915C233.857 178.08 232.368 176.592 230.531 176.592C228.694 176.592 227.205 178.08 227.205 179.915C227.205 181.751 228.694 183.239 230.531 183.239Z" fill="#F7B75D"/>
<path d="M245.887 126.528H240.651V134.589H245.887V126.528Z" fill="#2747B3"/>
<path d="M256.292 117.69H251.055V134.59H256.292V117.69Z" fill="#F7B75D"/>
<path d="M266.695 123.488H261.458V134.59H266.695V123.488Z" fill="#121F55"/>
<path d="M277.097 111.538H271.86V134.59H277.097V111.538Z" fill="#2747B3"/>
<path d="M287.5 108.073H282.263V134.589H287.5V108.073Z" fill="#F7B75D"/>
<path d="M297.904 101.779H292.667V134.589H297.904V101.779Z" fill="#121F55"/>
<path d="M186.23 132.61H209.583C208.805 144.066 199.322 153.046 187.716 153.046C175.614 153.046 165.777 143.217 165.777 131.125C165.777 119.529 174.836 110.053 186.23 109.275V132.61Z" fill="#121F55"/>
<path d="M189.131 128.79V110.688C196.137 111.183 202.153 115.214 205.479 121.012L189.131 128.79Z" fill="#72D8ED"/>
<path d="M208.097 129.64H194.156L206.752 123.629C207.531 125.609 207.955 127.589 208.097 129.64Z" fill="#2D4BAA"/>
<path d="M190.011 40.3147C190.011 40.3147 189.94 40.3147 189.799 40.3147C189.657 40.3147 189.445 40.3147 189.232 40.3147C188.737 40.3147 188.029 40.3854 187.109 40.4561C185.269 40.5975 182.651 40.8804 179.537 41.5168C177.98 41.7996 176.282 42.2239 174.583 42.7189C172.814 43.2139 171.045 43.8503 169.205 44.6281C168.285 45.0524 167.365 45.4059 166.445 45.9009C166.02 46.1131 165.525 46.3959 165.1 46.608C164.888 46.7495 164.675 46.8909 164.463 47.0323L164.109 47.2444L163.755 47.4566C162.835 48.0223 161.986 48.6587 161.137 49.2951C160.712 49.6486 160.288 49.9315 159.934 50.2851C159.722 50.4972 159.509 50.6386 159.368 50.8507L158.802 51.4164C158.023 52.1943 157.315 52.9721 156.678 53.8206C156.325 54.2449 156.042 54.6692 155.758 55.0934C155.617 55.3056 155.475 55.5177 155.334 55.7299C155.192 55.942 155.051 56.1541 154.909 56.3663C153.848 58.1341 152.998 60.0433 152.432 61.9525C151.866 63.8617 151.512 65.7002 151.371 67.5387C151.229 69.3065 151.229 71.0036 151.3 72.5592C151.3 72.9128 151.371 73.3371 151.371 73.6906C151.442 74.0442 151.442 74.3978 151.512 74.7513C151.512 74.8927 151.583 75.1049 151.583 75.2463C151.583 75.3877 151.654 75.5999 151.654 75.7413C151.725 76.0948 151.725 76.3777 151.795 76.7312C152.008 78.0041 152.22 79.0647 152.432 79.9133C152.645 80.7618 152.786 81.4689 152.928 81.9639C153.069 82.4589 153.14 82.671 153.14 82.671C153.14 82.671 153.069 82.3882 152.998 81.9639C152.928 81.4689 152.715 80.8325 152.574 79.9133C152.432 79.0647 152.22 77.9333 152.078 76.7312C152.078 76.4484 152.008 76.0948 152.008 75.7413C152.008 75.5999 152.008 75.3877 151.937 75.2463C151.937 75.1049 151.937 74.8927 151.937 74.7513C151.937 74.3978 151.866 74.0442 151.866 73.6906C151.866 73.3371 151.866 72.9128 151.866 72.5592C151.866 71.0036 151.866 69.3772 152.149 67.6094C152.362 65.8416 152.786 64.0738 153.423 62.2353C154.06 60.3968 154.909 58.629 156.042 56.932C156.183 56.7198 156.325 56.5077 156.466 56.2955C156.608 56.0834 156.749 55.8713 156.891 55.6591C157.174 55.2349 157.528 54.8813 157.882 54.457C158.518 53.6792 159.226 52.9721 160.005 52.265L160.571 51.77C160.783 51.6286 160.995 51.4164 161.137 51.275C161.562 50.9215 161.915 50.6386 162.34 50.3558C163.189 49.7901 164.038 49.2244 164.888 48.7294L165.242 48.5173L165.595 48.3051C165.808 48.1637 166.02 48.093 166.232 47.9516C166.657 47.7394 167.082 47.5273 167.577 47.3152C168.426 46.8909 169.346 46.5373 170.266 46.1838C172.035 45.5474 173.805 44.9817 175.503 44.5574C177.202 44.1331 178.829 43.7796 180.315 43.5674C183.358 43.0725 185.835 42.931 187.605 42.8603C188.454 42.8603 189.162 42.7896 189.657 42.7896C189.869 42.7896 190.082 42.7896 190.152 42.7896C190.294 42.7896 190.294 42.7896 190.294 42.7896L190.011 40.3147Z" fill="#F7B75D"/>
<path d="M198.008 47.0307C197.725 46.96 197.513 46.6772 197.584 46.3943L198.716 41.5859C198.787 41.3031 199.07 41.0909 199.353 41.1617C199.636 41.2324 199.848 41.5152 199.777 41.7981L198.645 46.6065C198.645 46.8893 198.291 47.1014 198.008 47.0307Z" fill="#B9B8F1"/>
<path d="M201.052 47.9509C199.07 48.7994 196.593 50.0015 194.046 49.7894L193.762 50.85C196.239 51.9107 199.778 53.4664 200.769 53.8906C202.396 54.5978 203.104 54.1028 203.104 54.1028L208.978 51.4865C208.978 51.6279 203.033 47.173 201.052 47.9509Z" fill="#72D8ED"/>
<path d="M207.208 37.3435C207.208 37.3435 206.854 36.5657 205.014 36.495C203.882 36.4243 200.061 36.2121 197.372 36L197.089 37.0607C199.495 38.0506 201.122 40.3134 202.467 41.9398C203.882 43.6369 211.241 42.2933 211.241 42.2933L207.208 37.3435Z" fill="#72D8ED"/>
<path d="M199.116 47.905C198.935 47.8175 198.783 47.7426 198.66 47.6822L199.485 44.3232L198.999 44.204L199.485 44.3232L200.31 40.9615C200.447 40.9638 200.618 40.9671 200.82 40.9716C201.402 40.9848 202.239 41.009 203.259 41.0531C205.3 41.1411 208.071 41.3085 210.994 41.6252C213.919 41.9421 216.984 42.4074 219.618 43.0883C222.274 43.7748 224.402 44.6593 225.541 45.7625C227.582 47.803 228.847 50.4127 229.271 51.4913C228.409 52.2685 226.113 54.0332 223.269 54.8981L223.266 54.8991C221.756 55.3696 219.463 55.1914 216.788 54.5935C214.138 54.0011 211.202 53.0183 208.458 51.9662C205.715 50.915 203.176 49.7993 201.321 48.946C200.394 48.5195 199.639 48.1588 199.116 47.905Z" stroke="black"/>
<path d="M224.193 55.0929C227.661 53.8908 229.854 51.6281 229.854 51.6281C229.854 51.6281 228.935 48.5875 226.387 45.9711C226.175 45.759 225.962 45.5469 225.75 45.3347C224.547 47.1025 222.778 50.5674 223.344 55.3758C223.627 55.3051 223.91 55.1637 224.193 55.0929Z" fill="#72D8ED"/>
<path d="M186.048 41.0904C186.048 41.0904 196.521 51.6265 198.361 44.0603C200.13 36.4942 186.048 41.0904 186.048 41.0904Z" fill="#F7B75D"/>
<path d="M199.848 43.4259C199.707 43.3552 198.928 43.1431 198.716 43.2138C198.574 43.2138 196.522 43.1431 195.39 43.1431L195.248 43.638C196.31 44.133 198.15 45.0523 198.291 45.123C198.504 45.1937 199.211 45.4058 199.424 45.4058C199.565 45.4058 200.273 45.2644 200.627 45.123L200.839 44.2037C200.556 43.9209 199.99 43.4966 199.848 43.4259Z" fill="#2D4BAA"/>
<path d="M205.651 46.323C205.934 45.1209 207.137 44.4138 208.34 44.6967C208.906 44.8381 209.402 45.1916 209.755 45.6866C210.039 46.1816 210.18 46.818 210.039 47.3837C209.755 48.5858 208.552 49.2929 207.349 49.0101C206.783 48.8686 206.288 48.5151 205.934 48.0201C205.58 47.5251 205.51 46.8887 205.651 46.323Z" fill="#2D4BAA"/>
<path d="M214.356 46.8194C214.073 46.3245 213.577 45.9709 212.941 45.8295C211.738 45.5466 210.535 46.2537 210.251 47.4558C210.11 48.0215 210.181 48.6579 210.535 49.1529C210.818 49.6479 211.313 50.0015 211.95 50.1429C213.153 50.4257 214.356 49.7186 214.639 48.5165C214.78 47.8801 214.71 47.3144 214.356 46.8194Z" fill="#2D4BAA"/>
<path d="M219.309 49.5783C219.451 49.0126 219.38 48.3762 219.026 47.8812C218.743 47.3862 218.248 47.0327 217.611 46.8912C216.408 46.6084 215.205 47.3155 214.922 48.5176C214.78 49.0833 214.851 49.7197 215.205 50.2147C215.488 50.7097 215.983 51.0632 216.62 51.2047C217.823 51.5582 219.026 50.7804 219.309 49.5783Z" fill="#2D4BAA"/>
<path d="M150.744 124.177L150.828 124.572H151.232H152.931C152.944 124.572 153.005 124.583 153.084 124.658C153.148 124.718 153.19 124.787 153.209 124.843V127.749C153.209 127.814 153.185 127.861 153.147 127.896C153.104 127.936 153.048 127.956 153.002 127.956H151.303H150.906L150.816 128.344C150.614 129.216 150.279 130.088 149.81 130.891L149.615 131.224L149.888 131.497L151.091 132.699C151.179 132.787 151.179 132.894 151.091 132.982L148.968 135.103C148.88 135.191 148.772 135.191 148.684 135.103L147.481 133.901L147.209 133.629L146.876 133.823C146.043 134.308 145.247 134.701 144.334 134.897L143.939 134.982V135.386V137.083C143.939 137.148 143.914 137.195 143.876 137.23C143.834 137.27 143.778 137.29 143.731 137.29H140.759C140.693 137.29 140.646 137.266 140.611 137.228C140.571 137.185 140.551 137.129 140.551 137.083V135.386V134.988L140.163 134.899C139.29 134.697 138.417 134.362 137.613 133.893L137.281 133.699L137.008 133.972L135.805 135.174C135.717 135.261 135.609 135.261 135.521 135.174L133.398 133.052C133.311 132.965 133.311 132.857 133.398 132.77L134.601 131.568L134.874 131.295L134.68 130.962C134.193 130.129 133.8 129.335 133.604 128.422L133.52 128.027H133.116H131.417C131.352 128.027 131.305 128.002 131.269 127.965C131.229 127.922 131.209 127.866 131.209 127.82V124.85C131.209 124.785 131.234 124.738 131.272 124.703C131.314 124.663 131.37 124.643 131.417 124.643H133.116H133.513L133.603 124.255C133.804 123.383 134.14 122.511 134.609 121.708L134.803 121.375L134.53 121.102L133.327 119.9C133.24 119.812 133.24 119.705 133.327 119.617L135.45 117.496C135.537 117.41 135.643 117.408 135.73 117.492L136.856 118.687L137.129 118.976L137.472 118.776C138.305 118.291 139.1 117.898 140.014 117.702L140.409 117.617V117.213V115.516C140.409 115.451 140.434 115.404 140.472 115.369C140.514 115.329 140.57 115.309 140.617 115.309H143.589C143.655 115.309 143.702 115.333 143.737 115.371C143.777 115.414 143.797 115.47 143.797 115.516V117.213V117.611L144.185 117.7C145.058 117.902 145.931 118.237 146.734 118.706L147.067 118.9L147.34 118.627L148.543 117.425C148.631 117.338 148.739 117.338 148.827 117.425L150.95 119.547C151.037 119.634 151.037 119.742 150.95 119.829L149.747 121.031L149.474 121.304L149.668 121.637C150.154 122.47 150.548 123.264 150.744 124.177Z" fill="white" stroke="black"/>
<path d="M148.679 126.266C148.679 129.878 145.79 132.766 142.173 132.766C138.557 132.766 135.668 129.878 135.668 126.266C135.668 122.653 138.557 119.765 142.173 119.765C145.79 119.765 148.679 122.653 148.679 126.266Z" fill="white" stroke="black"/>
<path d="M142.466 121.826C144.919 122.001 146.767 124.13 146.593 126.581C146.419 129.032 144.289 130.878 141.836 130.704C139.382 130.529 137.534 128.4 137.708 125.949C137.882 123.497 140.012 121.651 142.466 121.826Z" fill="white" stroke="black"/>
<path fill-rule="evenodd" clip-rule="evenodd" d="M141.962 126.832C142.811 127.114 143.023 127.256 143.023 127.609C143.023 127.963 142.457 128.104 142.103 128.104C141.749 128.104 141.395 128.034 141.112 127.822C141.042 127.751 140.9 127.822 140.829 127.892L140.405 128.599C140.334 128.67 140.334 128.812 140.476 128.882C140.829 129.094 141.254 129.236 141.679 129.307V129.731C141.679 129.872 141.749 129.943 141.891 129.943H142.669C142.811 129.943 142.882 129.872 142.882 129.731V129.236C143.731 129.024 144.226 128.387 144.226 127.68C144.226 126.337 143.094 125.983 142.315 125.771C141.466 125.488 141.325 125.417 141.325 125.135C141.325 124.781 141.891 124.71 142.245 124.71C142.669 124.71 143.094 124.922 143.377 125.135C143.448 125.205 143.448 125.205 143.518 125.205C143.589 125.205 143.66 125.205 143.66 125.135L144.226 124.569C144.297 124.498 144.297 124.357 144.226 124.286C143.872 123.932 143.377 123.65 142.882 123.508V123.013C142.882 122.872 142.811 122.801 142.669 122.801H141.891C141.749 122.801 141.679 122.872 141.679 123.013V123.437C140.759 123.579 140.122 124.215 140.122 125.064C140.122 126.266 141.254 126.619 141.962 126.832Z" fill="#2D4BAA"/>
<path d="M126.46 54.3185H132.34C131.907 56.976 129.621 58.9754 126.814 58.9754C123.764 58.9754 121.228 56.4412 121.228 53.3942C121.228 50.5893 123.229 48.3048 125.889 47.8727V53.8185V54.3185H126.389H126.46Z" stroke="black"/>
<g clip-path="url(#clip0_130_10)">
<path d="M96.3357 101.545C96.3357 111.122 88.6744 118.841 79.1688 118.841C69.6632 118.841 62.002 111.122 62.002 101.545C62.002 91.9678 69.6632 84.249 79.1688 84.249C88.6744 84.249 96.3357 91.9678 96.3357 101.545Z" fill="white"/>
<path d="M92.647 101.545C92.647 109.049 86.6174 115.124 79.1689 115.124C71.7205 115.124 65.6908 109.049 65.6908 101.545C65.6908 94.0406 71.7205 87.9656 79.1689 87.9656C86.6174 87.9656 92.647 94.0406 92.647 101.545Z" fill="#2D4BAA"/>
<path d="M88.3198 101.545C88.3198 106.62 84.2054 110.693 79.2398 110.693C74.2032 110.693 70.1598 106.548 70.1598 101.545C70.1598 96.4708 74.2742 92.397 79.2398 92.397C84.2054 92.397 88.3198 96.4708 88.3198 101.545Z" fill="white"/>
<path d="M83.4245 101.545C83.4245 103.903 81.5093 105.833 79.1686 105.833C76.8278 105.833 74.9126 103.903 74.9126 101.545C74.9126 99.1863 76.8278 97.2566 79.1686 97.2566C81.5093 97.2566 83.4245 99.1863 83.4245 101.545Z" fill="#72D8ED"/>
<path d="M104.564 102.903H79.1687C78.3884 102.903 77.8209 102.26 77.8209 101.545C77.8209 100.759 78.4594 100.187 79.1687 100.187H104.564C105.345 100.187 105.912 100.83 105.912 101.545C105.912 102.331 105.345 102.903 104.564 102.903Z" fill="#000C2D"/>
<path d="M103.926 101.259L108.253 98.6145H113.573L110.593 101.545L113.573 104.475H108.253L103.926 101.831V101.259Z" fill="#000C2D"/>
</g>
<defs>
<linearGradient id="paint0_linear_130_10" x1="244.882" y1="289.808" x2="244.29" y2="263.638" gradientUnits="userSpaceOnUse">
<stop stop-color="white" stop-opacity="0"/>
<stop offset="1" stop-color="#82A9FF" stop-opacity="0.21"/>
</linearGradient>
<clipPath id="clip0_130_10">
<rect width="119.246" height="34.5918" fill="white" transform="translate(62.002 84.249)"/>
</clipPath>
</defs>
</svg>
