<svg width="423" height="310" viewBox="0 0 423 310" fill="none" xmlns="http://www.w3.org/2000/svg">
<g clip-path="url(#clip0_137_5104)">
<path fill-rule="evenodd" clip-rule="evenodd" d="M154.417 208.1C184.946 191.811 218.288 197.07 254.111 215.306C288.105 230.931 312.651 218.186 331.394 184.464C357.315 130.706 316.508 78.0955 220.91 32.2647C142.247 -6.01495 87.3158 7.90194 45.6826 56.7385C-23.8461 141.864 61.4998 256.821 154.417 208.1Z" fill="url(#paint0_linear_137_5104)"/>
<path fill-rule="evenodd" clip-rule="evenodd" d="M236.177 278.171C257.534 281.813 294.27 282.886 341.062 282.453C384.488 282.254 401.864 285.138 401.173 290.363C396.073 298.487 324.245 302.992 201.021 303.791C99.2974 304.519 51.9139 299.905 38.2805 291.583C17.5876 277.236 170.679 267.194 236.177 278.171Z" fill="url(#paint1_linear_137_5104)"/>
<path d="M98.3876 194.145L107.66 214.462C108.391 216.077 108.453 217.916 107.832 219.577C107.211 221.237 105.957 222.585 104.345 223.325L58.4851 244.22C56.8683 244.95 55.0279 245.012 53.3657 244.391C51.7036 243.771 50.3547 242.518 49.6138 240.907L40.3389 220.585C39.607 218.97 39.5448 217.131 40.1659 215.47C40.7869 213.809 42.0407 212.461 43.6532 211.721L89.5127 190.827C91.1292 190.096 92.9696 190.035 94.6317 190.655C96.2937 191.276 97.6423 192.529 98.3828 194.14L98.3876 194.145Z" fill="#B2BFEB"/>
<path d="M73.9985 225.387C78.3445 225.387 81.8677 221.867 81.8677 217.525C81.8677 213.182 78.3445 209.662 73.9985 209.662C69.6525 209.662 66.1294 213.182 66.1294 217.525C66.1294 221.867 69.6525 225.387 73.9985 225.387Z" fill="white"/>
<path d="M98.3876 194.145L99.3826 196.323C99.011 196.575 98.6189 196.796 98.2104 196.983C97.27 197.411 96.2542 197.651 95.2212 197.687C94.1882 197.723 93.1581 197.556 92.1899 197.194C91.2216 196.833 90.3341 196.284 89.5781 195.58C88.822 194.876 88.2123 194.029 87.7837 193.089C87.5978 192.681 87.4464 192.257 87.3311 191.824L89.5139 190.831C91.1305 190.1 92.9708 190.038 94.6329 190.659C96.2949 191.28 97.6435 192.532 98.384 194.143L98.3876 194.145Z" fill="white"/>
<path d="M106.667 212.288L107.659 214.463C108.39 216.078 108.452 217.917 107.831 219.578C107.209 221.239 105.956 222.586 104.343 223.326L102.16 224.32C101.517 223.373 101.087 222.297 100.902 221.167C100.717 220.038 100.78 218.881 101.088 217.778C101.396 216.675 101.94 215.653 102.684 214.782C103.427 213.911 104.352 213.212 105.393 212.734C105.804 212.548 106.23 212.398 106.667 212.288Z" fill="white"/>
<path d="M46.4936 211.901C47.3591 213.798 47.4352 215.961 46.705 217.914C45.9748 219.867 44.4982 221.451 42.5998 222.316C42.1906 222.503 41.7664 222.654 41.3317 222.77L40.3379 220.585C39.6061 218.97 39.5438 217.131 40.1649 215.47C40.7859 213.809 42.0397 212.461 43.6523 211.721L45.8279 210.729C46.084 211.098 46.3065 211.489 46.4924 211.897L46.4936 211.901Z" fill="white"/>
<path d="M60.2095 241.962C60.396 242.371 60.5455 242.796 60.6561 243.232L58.4804 244.223C56.8636 244.954 55.0232 245.016 53.3611 244.395C51.6989 243.774 50.3501 242.522 49.6091 240.911L48.6177 238.736C48.9863 238.479 49.3774 238.257 49.7863 238.072C50.7265 237.643 51.742 237.403 52.7748 237.367C53.8076 237.33 54.8375 237.498 55.8057 237.859C56.7738 238.221 57.6611 238.769 58.4169 239.473C59.1728 240.178 59.7823 241.024 60.2106 241.963L60.2095 241.962Z" fill="white"/>
<path fill-rule="evenodd" clip-rule="evenodd" d="M91.0708 228.387L58.1071 243.405C56.7068 244.037 55.113 244.09 53.6737 243.552C52.2345 243.014 51.0668 241.929 50.4259 240.534L45.5741 229.899C45.4754 229.682 45.2946 229.514 45.0715 229.431C44.8484 229.347 44.6013 229.356 44.3846 229.454C44.1678 229.553 43.9992 229.734 43.9158 229.957C43.8323 230.18 43.841 230.427 43.9397 230.643L48.7915 241.283C49.6316 243.109 51.1607 244.529 53.0451 245.233C54.9295 245.937 57.0161 245.868 58.8494 245.041L91.8143 230.022C91.9245 229.975 92.0241 229.907 92.1074 229.82C92.1906 229.734 92.2558 229.633 92.299 229.521C92.3423 229.409 92.3627 229.29 92.3592 229.17C92.3556 229.051 92.3282 228.933 92.2784 228.824C92.2286 228.715 92.1576 228.617 92.0694 228.536C91.9812 228.455 91.8777 228.393 91.7649 228.352C91.6521 228.312 91.5324 228.295 91.4128 228.301C91.2932 228.308 91.1761 228.338 91.0684 228.39L91.0708 228.387Z" fill="black"/>
<path fill-rule="evenodd" clip-rule="evenodd" d="M40.8551 216.252C41.0818 215.44 41.483 214.688 42.0306 214.048C42.5782 213.407 43.2591 212.893 44.0257 212.543L89.8851 191.65C91.2852 191.018 92.8789 190.965 94.3179 191.503C95.757 192.041 96.9244 193.126 97.5651 194.522L106.836 214.839C107.156 215.542 107.332 216.302 107.352 217.074C107.373 217.846 107.238 218.614 106.956 219.334C106.87 219.556 106.876 219.803 106.972 220.021C107.068 220.239 107.247 220.409 107.47 220.495C107.692 220.581 107.939 220.576 108.157 220.479C108.375 220.383 108.546 220.204 108.632 219.982C109 219.04 109.175 218.033 109.147 217.022C109.119 216.01 108.888 215.015 108.468 214.095L99.1971 193.777C98.3572 191.951 96.8281 190.53 94.9437 189.826C93.0592 189.122 90.9725 189.192 89.1392 190.02L43.2797 210.913C42.2754 211.372 41.3834 212.044 40.6659 212.883C39.9485 213.722 39.423 214.707 39.1261 215.77C39.0899 215.884 39.0771 216.005 39.0885 216.124C39.0999 216.244 39.1352 216.36 39.1924 216.466C39.2495 216.572 39.3273 216.665 39.4211 216.74C39.515 216.815 39.623 216.87 39.7387 216.903C39.8545 216.936 39.9756 216.945 40.0949 216.93C40.2142 216.915 40.3292 216.876 40.4332 216.816C40.5372 216.755 40.628 216.675 40.7003 216.579C40.7726 216.483 40.8248 216.373 40.8539 216.256L40.8551 216.252Z" fill="black"/>
<path d="M384.938 218.038L356.8 189.923H318.649C318.435 189.923 318.222 189.966 318.025 190.05C317.827 190.134 317.648 190.257 317.499 190.411C317.35 190.565 317.234 190.748 317.157 190.948C317.079 191.148 317.043 191.362 317.051 191.576C317.921 212.762 335.388 229.675 356.804 229.675C362.03 229.682 367.207 228.657 372.035 226.659C376.864 224.661 381.25 221.729 384.942 218.032L384.938 218.038Z" fill="white"/>
<path d="M396.586 189.93C396.586 168.526 379.662 151.078 358.456 150.21C358.242 150.202 358.028 150.238 357.828 150.315C357.628 150.392 357.446 150.508 357.292 150.657C357.138 150.806 357.016 150.984 356.932 151.181C356.849 151.378 356.806 151.59 356.806 151.804C356.806 159.273 356.806 189.929 356.806 189.929L384.938 218.038C388.638 214.349 391.572 209.967 393.571 205.142C395.571 200.317 396.597 195.145 396.591 189.923L396.586 189.93Z" fill="#72D8ED"/>
<path fill-rule="evenodd" clip-rule="evenodd" d="M372.704 152.5C368.2 150.59 363.386 149.51 358.497 149.314C358.162 149.302 357.828 149.358 357.515 149.478C357.202 149.597 356.917 149.779 356.675 150.011C356.434 150.244 356.242 150.523 356.111 150.831C355.98 151.139 355.913 151.471 355.913 151.805C355.913 155.046 355.913 162.653 355.913 170.23C355.913 170.468 356.008 170.696 356.176 170.864C356.345 171.033 356.573 171.127 356.811 171.127C357.049 171.127 357.278 171.033 357.446 170.864C357.615 170.696 357.709 170.468 357.709 170.23C357.709 162.655 357.709 155.05 357.709 151.805C357.709 151.711 357.728 151.618 357.764 151.532C357.801 151.445 357.855 151.367 357.923 151.301C357.991 151.236 358.071 151.185 358.159 151.152C358.247 151.118 358.341 151.103 358.435 151.107C363.104 151.294 367.701 152.325 372.002 154.15C372.22 154.235 372.462 154.231 372.676 154.14C372.891 154.05 373.063 153.879 373.154 153.665C373.245 153.45 373.249 153.208 373.165 152.991C373.081 152.773 372.916 152.597 372.704 152.499V152.5Z" fill="black"/>
<path fill-rule="evenodd" clip-rule="evenodd" d="M355.908 182.242V189.931C355.908 190.169 356.003 190.397 356.171 190.565C356.34 190.734 356.568 190.828 356.806 190.828C357.044 190.828 357.273 190.734 357.441 190.565C357.61 190.397 357.704 190.169 357.704 189.931V182.242C357.704 182.004 357.61 181.775 357.441 181.607C357.273 181.439 357.044 181.344 356.806 181.344C356.568 181.344 356.34 181.439 356.171 181.607C356.003 181.775 355.908 182.004 355.908 182.242Z" fill="black"/>
<path fill-rule="evenodd" clip-rule="evenodd" d="M384.931 216.764C391.849 209.541 395.705 199.927 395.693 189.93C395.693 189.692 395.788 189.464 395.956 189.295C396.125 189.127 396.353 189.032 396.591 189.032C396.829 189.032 397.058 189.127 397.226 189.295C397.395 189.464 397.489 189.692 397.489 189.93C397.494 195.269 396.444 200.556 394.399 205.488C392.353 210.42 389.353 214.9 385.571 218.671C385.402 218.839 385.174 218.933 384.935 218.933C384.697 218.933 384.469 218.839 384.3 218.671L356.168 190.555C355.999 190.387 355.905 190.159 355.905 189.921C355.905 189.683 355.999 189.454 356.168 189.286C356.336 189.118 356.565 189.023 356.803 189.023C357.041 189.023 357.27 189.118 357.438 189.286L384.928 216.754L384.931 216.764Z" fill="black"/>
<path d="M349.603 184.334C350.027 184.334 350.433 184.165 350.733 183.866C351.033 183.566 351.202 183.16 351.202 182.736V146.21C351.203 145.995 351.16 145.783 351.076 145.585C350.992 145.388 350.87 145.209 350.715 145.06C350.561 144.911 350.378 144.794 350.178 144.717C349.977 144.64 349.763 144.604 349.549 144.611C328.893 145.458 312.296 162.039 311.453 182.682C311.446 182.896 311.482 183.109 311.559 183.308C311.635 183.508 311.752 183.69 311.9 183.843C312.049 183.997 312.227 184.119 312.424 184.203C312.621 184.286 312.833 184.329 313.047 184.329C319.496 184.329 343.206 184.329 349.603 184.329V184.334Z" fill="#2D4BAA"/>
<path fill-rule="evenodd" clip-rule="evenodd" d="M351.34 144.413C351.099 144.181 350.814 143.999 350.501 143.879C350.189 143.759 349.856 143.703 349.521 143.714C343.959 143.94 338.502 145.306 333.491 147.727C328.479 150.149 324.02 153.575 320.389 157.791C320.233 157.971 320.156 158.206 320.173 158.443C320.191 158.681 320.302 158.901 320.482 159.057C320.663 159.212 320.898 159.29 321.135 159.272C321.373 159.255 321.594 159.144 321.749 158.964C325.219 154.934 329.48 151.66 334.269 149.345C339.058 147.03 344.273 145.724 349.588 145.508C349.681 145.505 349.774 145.522 349.861 145.556C349.948 145.589 350.028 145.64 350.095 145.705C350.268 145.862 350.495 145.945 350.728 145.937C350.962 145.929 351.183 145.831 351.345 145.663C351.507 145.495 351.597 145.27 351.596 145.037C351.595 144.804 351.503 144.58 351.34 144.413Z" fill="black"/>
<path fill-rule="evenodd" clip-rule="evenodd" d="M315.405 165.011C312.463 170.442 310.805 176.474 310.559 182.645C310.547 182.979 310.602 183.313 310.722 183.626C310.841 183.938 311.023 184.224 311.256 184.464C311.488 184.705 311.767 184.897 312.075 185.028C312.384 185.158 312.716 185.226 313.051 185.226C319.5 185.226 343.21 185.226 349.606 185.226C349.934 185.226 350.259 185.161 350.562 185.036C350.865 184.91 351.141 184.726 351.372 184.495C351.604 184.263 351.788 183.988 351.914 183.685C352.039 183.382 352.104 183.058 352.104 182.73V164.413C352.104 164.175 352.009 163.947 351.841 163.779C351.673 163.61 351.444 163.516 351.206 163.516C350.968 163.516 350.739 163.61 350.571 163.779C350.403 163.947 350.308 164.175 350.308 164.413V182.73C350.308 182.916 350.234 183.094 350.103 183.226C349.971 183.357 349.792 183.431 349.606 183.431C343.21 183.431 319.5 183.431 313.051 183.431C312.957 183.431 312.865 183.413 312.779 183.376C312.693 183.34 312.615 183.287 312.55 183.22C312.485 183.153 312.434 183.073 312.4 182.986C312.366 182.899 312.351 182.806 312.354 182.713C312.589 176.818 314.173 171.055 316.984 165.867C317.042 165.763 317.079 165.649 317.092 165.531C317.106 165.412 317.096 165.293 317.063 165.179C317.03 165.064 316.974 164.958 316.899 164.865C316.825 164.773 316.732 164.696 316.628 164.639C316.523 164.583 316.408 164.548 316.29 164.536C316.171 164.524 316.052 164.536 315.938 164.57C315.824 164.605 315.718 164.662 315.627 164.738C315.535 164.814 315.46 164.907 315.405 165.012V165.011Z" fill="black"/>
<path fill-rule="evenodd" clip-rule="evenodd" d="M356.431 190.826H337.675C337.437 190.826 337.209 190.731 337.04 190.563C336.872 190.395 336.777 190.167 336.777 189.929C336.777 189.691 336.872 189.462 337.04 189.294C337.209 189.126 337.437 189.031 337.675 189.031H356.808C356.926 189.031 357.043 189.055 357.152 189.1C357.261 189.145 357.36 189.211 357.443 189.294L385.581 217.404C385.74 217.574 385.826 217.799 385.822 218.031C385.818 218.264 385.724 218.486 385.559 218.65C385.395 218.814 385.173 218.909 384.94 218.913C384.707 218.917 384.482 218.83 384.312 218.672L356.431 190.826Z" fill="black"/>
<path fill-rule="evenodd" clip-rule="evenodd" d="M316.854 189.792C316.621 190.033 316.439 190.318 316.318 190.631C316.198 190.943 316.142 191.277 316.153 191.612C317.044 213.283 334.905 230.579 356.805 230.579C361.763 230.583 366.68 229.681 371.313 227.917C371.526 227.825 371.696 227.655 371.786 227.442C371.876 227.228 371.88 226.988 371.798 226.772C371.715 226.556 371.552 226.38 371.342 226.281C371.132 226.182 370.893 226.168 370.673 226.242C366.244 227.928 361.544 228.79 356.805 228.785C335.872 228.785 318.799 212.255 317.948 191.546C317.945 191.453 317.961 191.361 317.995 191.274C318.029 191.188 318.079 191.109 318.144 191.042C318.308 190.871 318.397 190.642 318.392 190.405C318.388 190.169 318.29 189.943 318.119 189.779C317.949 189.614 317.721 189.523 317.484 189.526C317.247 189.528 317.021 189.625 316.854 189.793V189.792Z" fill="black"/>
<path d="M327.84 120.71V256.009L245.047 268.265H182.282L98.46 256.008V120.711C98.46 112.063 105.547 104.982 114.198 104.982H312.097C320.756 104.982 327.84 112.064 327.84 120.71Z" fill="white" stroke="black" stroke-width="1.5"/>
<path d="M312.096 120.71H114.198V244.296H312.096V120.71Z" fill="white"/>
<path d="M234.227 255.163H336.087V258.53C336.087 267.18 329.006 274.26 320.347 274.26H105.955C97.2963 274.26 90.2124 267.178 90.2124 258.53V255.163H192.075L194.153 259.291C194.153 259.292 194.153 259.292 194.154 259.293C194.734 260.468 195.768 261.486 196.937 262.208C198.106 262.93 199.479 263.398 200.782 263.398H225.518C226.821 263.398 228.193 262.93 229.363 262.208C230.531 261.486 231.565 260.468 232.146 259.294C232.146 259.293 232.147 259.292 232.147 259.291L234.227 255.163Z" fill="white" stroke="black" stroke-width="1.5"/>
<path d="M260.097 94.0386V109.166C260.094 110.759 259.46 112.287 258.332 113.415C257.205 114.542 255.677 115.178 254.082 115.182H251.856V93.9728L260.097 94.0386Z" fill="#2D4BAA"/>
<path fill-rule="evenodd" clip-rule="evenodd" d="M252.754 114.279H254.082C255.438 114.276 256.738 113.736 257.696 112.777C258.655 111.819 259.196 110.521 259.2 109.166V103.144C259.2 102.906 259.294 102.678 259.463 102.51C259.631 102.342 259.859 102.247 260.098 102.247C260.336 102.247 260.564 102.342 260.733 102.51C260.901 102.678 260.996 102.906 260.996 103.144V109.167C260.991 110.998 260.261 112.752 258.965 114.046C257.67 115.341 255.914 116.07 254.082 116.075H251.856C251.618 116.075 251.389 115.981 251.221 115.812C251.053 115.644 250.958 115.416 250.958 115.178V93.9729C250.958 93.7349 251.053 93.5067 251.221 93.3384C251.389 93.1701 251.618 93.0756 251.856 93.0756C252.094 93.0756 252.323 93.1701 252.491 93.3384C252.659 93.5067 252.754 93.7349 252.754 93.9729V114.279Z" fill="black"/>
<path d="M193.808 91.4304C199.285 91.4304 203.725 86.9942 203.725 81.5218C203.725 76.0495 199.285 71.6133 193.808 71.6133C188.331 71.6133 183.892 76.0495 183.892 81.5218C183.892 86.9942 188.331 91.4304 193.808 91.4304Z" fill="#2D4BAA"/>
<path fill-rule="evenodd" clip-rule="evenodd" d="M187.107 87.5457C185.94 86.2512 185.174 84.6462 184.901 82.9253C184.628 81.2044 184.86 79.4413 185.57 77.8497C186.28 76.2581 187.436 74.9063 188.899 73.9581C190.362 73.0098 192.069 72.5057 193.812 72.507C193.93 72.507 194.047 72.4838 194.156 72.4387C194.265 72.3936 194.364 72.3275 194.447 72.2442C194.531 72.1609 194.597 72.0619 194.642 71.9531C194.687 71.8442 194.71 71.7275 194.71 71.6097C194.71 71.4919 194.687 71.3752 194.642 71.2663C194.597 71.1575 194.531 71.0585 194.447 70.9752C194.364 70.8919 194.265 70.8258 194.156 70.7807C194.047 70.7356 193.93 70.7124 193.812 70.7124C191.722 70.7117 189.675 71.3168 187.922 72.4542C186.168 73.5917 184.782 75.2129 183.932 77.1214C183.081 79.0298 182.803 81.1438 183.13 83.2071C183.457 85.2705 184.376 87.1947 185.776 88.7469C185.939 88.9067 186.156 88.9984 186.385 89.0035C186.613 89.0086 186.835 88.9266 187.005 88.7742C187.174 88.6218 187.28 88.4104 187.299 88.1831C187.319 87.9558 187.251 87.7296 187.11 87.5505L187.107 87.5457Z" fill="#2D2E85"/>
<path d="M250.507 69.0542V93.9895H265.77C268.198 93.9835 270.525 93.0172 272.242 91.302C273.959 89.5867 274.927 87.2619 274.933 84.8359V78.203C274.926 75.778 273.958 73.4545 272.242 71.7402C270.525 70.0259 268.199 69.0602 265.772 69.0542H250.507Z" fill="#B2BFEB"/>
<path fill-rule="evenodd" clip-rule="evenodd" d="M250.507 94.8868H265.77C268.435 94.8799 270.989 93.8188 272.874 91.9357C274.759 90.0525 275.821 87.5003 275.828 84.8371V78.2031C275.828 77.9651 275.733 77.7369 275.565 77.5686C275.396 77.4003 275.168 77.3058 274.93 77.3058C274.692 77.3058 274.463 77.4003 274.295 77.5686C274.126 77.7369 274.032 77.9651 274.032 78.2031V84.8371C274.025 87.0244 273.152 89.1201 271.604 90.6667C270.056 92.2133 267.959 93.0853 265.77 93.0922H250.507C250.269 93.0922 250.04 93.1868 249.872 93.3551C249.704 93.5233 249.609 93.7516 249.609 93.9895C249.609 94.2275 249.704 94.4557 249.872 94.624C250.04 94.7923 250.269 94.8868 250.507 94.8868Z" fill="black"/>
<path fill-rule="evenodd" clip-rule="evenodd" d="M271.31 69.8284C269.669 68.736 267.741 68.1532 265.769 68.1534H250.507C250.269 68.1534 250.04 68.248 249.872 68.4163C249.704 68.5845 249.609 68.8128 249.609 69.0507C249.609 69.2887 249.704 69.5169 249.872 69.6852C250.04 69.8535 250.269 69.948 250.507 69.948H265.77C267.389 69.9467 268.972 70.4242 270.32 71.3203C270.518 71.452 270.761 71.4995 270.995 71.4524C271.228 71.4053 271.433 71.2674 271.565 71.0691C271.697 70.8707 271.744 70.6282 271.697 70.3949C271.65 70.1616 271.512 69.9565 271.314 69.8248L271.31 69.8284Z" fill="black"/>
<path d="M190.049 54.4654V108.581C190.049 113.613 193.888 116.227 198.578 114.384L250.507 93.9895V69.0542L198.578 48.6628C193.888 46.8228 190.049 49.4357 190.049 54.4678V54.4654Z" fill="white"/>
<path d="M190.049 108.58V101.377C190.049 106.409 193.888 109.022 198.578 107.181L250.507 91.5752V93.9895L198.578 114.384C193.888 116.225 190.049 113.612 190.049 108.58Z" fill="#B2BFEB"/>
<path fill-rule="evenodd" clip-rule="evenodd" d="M250.834 68.2192L198.9 47.8254C196.228 46.7786 193.802 47.0466 192.042 48.2441C190.282 49.4417 189.145 51.6 189.145 54.4654V108.581C189.145 111.452 190.282 113.606 192.042 114.802C193.802 115.998 196.233 116.268 198.9 115.22L225.751 104.675C225.861 104.631 225.961 104.567 226.046 104.485C226.132 104.403 226.2 104.305 226.247 104.197C226.294 104.089 226.32 103.972 226.322 103.854C226.324 103.736 226.303 103.619 226.26 103.509C226.217 103.399 226.153 103.298 226.071 103.213C225.989 103.128 225.891 103.06 225.782 103.013C225.674 102.965 225.557 102.94 225.439 102.938C225.321 102.935 225.203 102.956 225.093 103L198.243 113.546C196.225 114.339 194.385 114.221 193.055 113.315C191.725 112.409 190.942 110.743 190.942 108.576V54.4642C190.942 52.2975 191.724 50.6357 193.055 49.7265C194.387 48.8172 196.225 48.7024 198.245 49.4944L250.172 69.8882C250.395 69.9753 250.642 69.9706 250.861 69.8751C251.08 69.7796 251.252 69.6012 251.339 69.3791C251.426 69.157 251.422 68.9094 251.326 68.6907C251.23 68.4721 251.052 68.3003 250.83 68.2132L250.834 68.2192Z" fill="black"/>
<path fill-rule="evenodd" clip-rule="evenodd" d="M237.483 100.068L250.835 94.8247C250.945 94.7816 251.045 94.7172 251.13 94.6353C251.215 94.5533 251.284 94.4554 251.331 94.3472C251.378 94.2389 251.404 94.1224 251.406 94.0043C251.408 93.8862 251.387 93.7688 251.344 93.6588C251.301 93.5488 251.236 93.4484 251.154 93.3633C251.072 93.2782 250.975 93.2101 250.866 93.1628C250.758 93.1155 250.641 93.0901 250.523 93.0878C250.405 93.0856 250.287 93.1066 250.177 93.1497L236.827 98.3935C236.716 98.4367 236.616 98.501 236.531 98.583C236.446 98.6649 236.377 98.7628 236.33 98.8711C236.283 98.9793 236.257 99.0958 236.255 99.2139C236.253 99.3321 236.274 99.4494 236.317 99.5594C236.36 99.6694 236.425 99.7698 236.507 99.8549C236.589 99.94 236.687 100.008 236.795 100.055C236.903 100.103 237.02 100.128 237.138 100.13C237.256 100.133 237.374 100.112 237.484 100.068H237.483Z" fill="black"/>
<path fill-rule="evenodd" clip-rule="evenodd" d="M269.009 83.0497H257.854C257.618 83.0497 257.392 83.1433 257.225 83.31C257.058 83.4767 256.964 83.7028 256.964 83.9386C256.964 84.1744 257.058 84.4005 257.225 84.5672C257.392 84.7339 257.618 84.8275 257.854 84.8275H269.009C269.245 84.8275 269.471 84.7339 269.638 84.5672C269.805 84.4005 269.898 84.1744 269.898 83.9386C269.898 83.7028 269.805 83.4767 269.638 83.31C269.471 83.1433 269.245 83.0497 269.009 83.0497Z" fill="white"/>
<path fill-rule="evenodd" clip-rule="evenodd" d="M269.009 86.7657H257.854C257.618 86.7657 257.392 86.8593 257.225 87.0259C257.058 87.1925 256.965 87.4185 256.965 87.6541C256.965 87.8897 257.058 88.1156 257.225 88.2822C257.392 88.4488 257.618 88.5424 257.854 88.5424H269.009C269.244 88.5424 269.471 88.4488 269.637 88.2822C269.804 88.1156 269.898 87.8897 269.898 87.6541C269.898 87.4185 269.804 87.1925 269.637 87.0259C269.471 86.8593 269.244 86.7657 269.009 86.7657Z" fill="white"/>
<path fill-rule="evenodd" clip-rule="evenodd" d="M170.238 177.838L176.093 172.254C176.381 171.98 176.547 171.603 176.556 171.207C176.566 170.81 176.417 170.426 176.143 170.139C175.868 169.852 175.491 169.686 175.094 169.676C174.697 169.667 174.313 169.816 174.026 170.09L168.17 175.673C168.028 175.809 167.914 175.971 167.835 176.151C167.755 176.331 167.712 176.524 167.707 176.721C167.703 176.917 167.737 177.113 167.808 177.296C167.879 177.479 167.986 177.647 168.121 177.789C168.257 177.931 168.42 178.045 168.599 178.124C168.779 178.204 168.973 178.247 169.17 178.251C169.366 178.256 169.562 178.222 169.745 178.151C169.928 178.08 170.096 177.973 170.238 177.838Z" fill="#2D4BAA"/>
<path fill-rule="evenodd" clip-rule="evenodd" d="M301.388 182.402H125.374C125.136 182.402 124.908 182.497 124.739 182.665C124.571 182.833 124.476 183.061 124.476 183.299C124.476 183.537 124.571 183.766 124.739 183.934C124.908 184.102 125.136 184.197 125.374 184.197H301.388C301.626 184.197 301.855 184.102 302.023 183.934C302.191 183.766 302.286 183.537 302.286 183.299C302.286 183.061 302.191 182.833 302.023 182.665C301.855 182.497 301.626 182.402 301.388 182.402Z" fill="#72D8ED"/>
<path d="M153.801 177.255H136.26V225.605H153.801V177.255Z" fill="#121F55"/>
<path d="M181.02 195.387H163.477V225.606H181.02V195.387Z" fill="#2D4BAA"/>
<path d="M208.238 165.168H190.697V225.606H208.238V165.168Z" fill="#2D4BAA"/>
<path d="M235.456 150.059H217.914V225.605H235.456V150.059Z" fill="#121F55"/>
<path d="M262.674 171.211H245.133V225.605H262.674V171.211Z" fill="#121F55"/>
<path d="M289.892 188.134H272.352V225.605H289.892V188.134Z" fill="#2D4BAA"/>
<path fill-rule="evenodd" clip-rule="evenodd" d="M126.57 234.078H301.387C301.704 234.078 302.009 234.204 302.233 234.428C302.458 234.653 302.584 234.957 302.584 235.274C302.584 235.592 302.458 235.896 302.233 236.12C302.009 236.345 301.704 236.471 301.387 236.471H125.373C125.055 236.471 124.751 236.345 124.526 236.12C124.301 235.896 124.175 235.592 124.175 235.274V134.345C124.175 134.028 124.301 133.724 124.526 133.499C124.751 133.275 125.055 133.149 125.373 133.149C125.69 133.149 125.995 133.275 126.219 133.499C126.444 133.724 126.57 134.028 126.57 134.345V234.078Z" fill="black"/>
<path d="M62.8482 172.891C75.4418 172.891 85.651 162.69 85.651 150.107C85.651 137.523 75.4418 127.322 62.8482 127.322C50.2546 127.322 40.0454 137.523 40.0454 150.107C40.0454 162.69 50.2546 172.891 62.8482 172.891Z" fill="#B2BFEB"/>
<path fill-rule="evenodd" clip-rule="evenodd" d="M84.0333 155.69C81.5571 165.072 73.0079 171.995 62.8482 171.995C59.0676 172 55.3505 171.023 52.0622 169.159C51.8573 169.061 51.6227 169.043 51.4057 169.111C51.1886 169.179 51.0053 169.326 50.8927 169.523C50.7802 169.721 50.7467 169.953 50.7991 170.174C50.8514 170.396 50.9858 170.588 51.175 170.714C54.7337 172.732 58.7565 173.79 62.8482 173.784C73.84 173.784 83.0946 166.291 85.7695 156.144C85.8031 156.028 85.8133 155.908 85.7995 155.789C85.7857 155.67 85.7482 155.555 85.6892 155.45C85.6302 155.346 85.5508 155.255 85.4558 155.181C85.3609 155.108 85.2522 155.055 85.1362 155.024C85.0202 154.994 84.8993 154.987 84.7806 155.004C84.6619 155.021 84.5477 155.061 84.4449 155.123C84.3421 155.185 84.2527 155.266 84.182 155.363C84.1113 155.46 84.0608 155.57 84.0333 155.687V155.69Z" fill="black"/>
<path fill-rule="evenodd" clip-rule="evenodd" d="M43.2906 159.97C41.7423 156.913 40.9379 153.534 40.9426 150.108C40.9426 138.024 50.761 128.22 62.8485 128.22C66.7738 128.22 70.6268 129.274 74.005 131.271C77.3831 133.268 80.1623 136.136 82.052 139.573C82.107 139.68 82.1828 139.775 82.275 139.852C82.3671 139.929 82.4738 139.986 82.5887 140.021C82.7036 140.056 82.8244 140.068 82.9438 140.055C83.0633 140.043 83.179 140.007 83.2842 139.949C83.3893 139.891 83.4818 139.812 83.5561 139.718C83.6304 139.624 83.685 139.515 83.7167 139.4C83.7484 139.284 83.7566 139.163 83.7407 139.044C83.7248 138.925 83.6851 138.811 83.6242 138.707C81.579 134.989 78.572 131.888 74.9173 129.728C71.2627 127.568 67.0946 126.429 62.8485 126.429C49.7672 126.429 39.1465 137.041 39.1465 150.111C39.1414 153.817 40.0111 157.472 41.6849 160.78C41.7934 160.99 41.981 161.15 42.2067 161.223C42.4324 161.296 42.6779 161.277 42.8896 161.17C43.1013 161.063 43.2619 160.876 43.3363 160.651C43.4108 160.426 43.3931 160.18 43.287 159.968L43.2906 159.97Z" fill="black"/>
<path d="M50.0056 159.887C49.7063 159.715 49.4799 159.439 49.3685 159.113C49.2572 158.786 49.2684 158.43 49.4002 158.111C49.532 157.792 49.7753 157.531 50.085 157.378C50.3946 157.225 50.7493 157.189 51.0832 157.278L63.9335 160.719C64.4759 160.864 65.0418 160.901 65.5986 160.828C66.1555 160.755 66.6924 160.573 67.1789 160.292C67.6653 160.012 68.0917 159.638 68.4337 159.193C68.7757 158.748 69.0265 158.24 69.172 157.698C69.3174 157.156 69.3546 156.59 69.2814 156.034C69.2082 155.477 69.026 154.941 68.7452 154.455C68.4645 153.969 68.0907 153.543 67.6451 153.201C67.1996 152.859 66.6911 152.609 66.1486 152.463L58.8075 150.501C56.9815 150.013 55.4245 148.82 54.4791 147.184C53.5336 145.549 53.2771 143.605 53.766 141.78C54.2549 139.956 55.4491 138.4 57.086 137.455C58.7228 136.511 60.6682 136.254 62.4942 136.743L75.3468 140.187C75.5329 140.231 75.7083 140.311 75.8627 140.424C76.0171 140.536 76.1472 140.678 76.2455 140.842C76.3437 141.006 76.408 141.188 76.4346 141.377C76.4611 141.566 76.4493 141.758 76.4 141.943C76.3506 142.127 76.2647 142.3 76.1472 142.451C76.0298 142.601 75.8832 142.727 75.7163 142.82C75.5494 142.912 75.3655 142.971 75.1755 142.991C74.9855 143.012 74.7934 142.994 74.6104 142.939L61.7614 139.501C60.6658 139.207 59.4985 139.361 58.5164 139.928C57.5342 140.495 56.8175 141.428 56.5241 142.523C56.2307 143.617 56.3845 144.784 56.9517 145.765C57.5189 146.746 58.4531 147.462 59.5487 147.756L66.8898 149.72C68.7158 150.209 70.2728 151.402 71.2182 153.037C72.1637 154.673 72.4202 156.617 71.9313 158.441C71.4424 160.266 70.2482 161.821 68.6113 162.766C66.9745 163.711 65.0291 163.967 63.2031 163.479L50.3528 160.038C50.232 160.005 50.116 159.956 50.008 159.893L50.0056 159.887Z" fill="white"/>
<path d="M57.7079 167.848C57.4363 167.691 57.224 167.449 57.1039 167.159C56.9838 166.87 56.9625 166.549 57.0433 166.246L65.8967 133.231C65.9408 133.046 66.0217 132.871 66.1345 132.718C66.2474 132.564 66.3899 132.435 66.5536 132.337C66.7173 132.24 66.899 132.176 67.0878 132.15C67.2766 132.124 67.4688 132.135 67.653 132.185C67.8371 132.234 68.0095 132.32 68.16 132.437C68.3104 132.554 68.4358 132.7 68.5288 132.866C68.6219 133.032 68.6806 133.215 68.7015 133.405C68.7224 133.594 68.7051 133.786 68.6507 133.968L59.7985 166.986C59.741 167.197 59.636 167.392 59.4916 167.555C59.3473 167.719 59.1673 167.848 58.9654 167.931C58.7636 168.015 58.5454 168.051 58.3274 168.037C58.1094 168.023 57.8975 167.96 57.7079 167.851V167.848Z" fill="white"/>
</g>
<defs>
<linearGradient id="paint0_linear_137_5104" x1="253.834" y1="17.2731" x2="147.506" y2="185.151" gradientUnits="userSpaceOnUse">
<stop stop-color="white" stop-opacity="0"/>
<stop offset="1" stop-color="#82A9FF" stop-opacity="0.21"/>
</linearGradient>
<linearGradient id="paint1_linear_137_5104" x1="225.553" y1="307.394" x2="225.012" y2="280.518" gradientUnits="userSpaceOnUse">
<stop stop-color="white" stop-opacity="0"/>
<stop offset="1" stop-color="#82A9FF" stop-opacity="0.21"/>
</linearGradient>
<clipPath id="clip0_137_5104">
<rect width="422" height="310" fill="white" transform="translate(0.822266)"/>
</clipPath>
</defs>
</svg>
