<svg width="422" height="310" viewBox="0 0 422 310" fill="none" xmlns="http://www.w3.org/2000/svg">
<g clip-path="url(#clip0_137_7715)">
<path fill-rule="evenodd" clip-rule="evenodd" d="M183.171 251.162C159.76 257.728 119.402 260.433 67.9664 260.899C20.2337 261.667 1.18454 266.879 2.03186 275.508C7.77485 288.822 86.7959 294.461 222.243 292.667C334.058 291.301 386.059 282.469 400.903 268.354C423.404 244.091 254.975 231.342 183.171 251.162Z" fill="url(#paint0_linear_137_7715)"/>
<path fill-rule="evenodd" clip-rule="evenodd" d="M245.906 61.2819C221.674 85.9256 188.313 90.8447 148.705 84.1183C111.622 79.3382 92.0329 98.8169 84.2518 136.585C75.6225 195.614 130.266 233.659 235.118 248.904C321.565 261.99 369.772 232.337 394.853 173.322C435.674 71.3618 319.916 -12.9084 245.906 61.2819Z" fill="url(#paint1_linear_137_7715)"/>
<g clip-path="url(#clip1_137_7715)">
<path d="M300.992 102.172C309.182 102.172 315.895 108.828 315.997 116.999V117.188V246.613L236.931 258.334H176.974L96.9238 246.612V117.188C96.9238 108.93 103.678 102.172 111.926 102.172H300.992Z" fill="white" stroke="black" stroke-width="1.5"/>
<path fill-rule="evenodd" clip-rule="evenodd" d="M271.833 102.334H300.992C309.161 102.334 315.841 109.021 315.841 117.192C315.841 117.433 315.937 117.664 316.107 117.834C316.277 118.004 316.508 118.1 316.748 118.1C316.989 118.1 317.219 118.004 317.389 117.834C317.56 117.664 317.655 117.433 317.655 117.192C317.655 108.023 310.158 100.519 300.992 100.519H271.833C271.592 100.519 271.361 100.615 271.191 100.785C271.021 100.955 270.926 101.186 270.926 101.426C270.926 101.667 271.021 101.898 271.191 102.068C271.361 102.238 271.592 102.334 271.833 102.334Z" fill="#2D2E85"/>
<path fill-rule="evenodd" clip-rule="evenodd" d="M315.84 157.401V187.222C315.84 187.463 315.935 187.694 316.105 187.864C316.276 188.034 316.506 188.13 316.747 188.13C316.987 188.13 317.218 188.034 317.388 187.864C317.558 187.694 317.654 187.463 317.654 187.222V157.401C317.654 157.161 317.558 156.93 317.388 156.76C317.218 156.589 316.987 156.494 316.747 156.494C316.506 156.494 316.276 156.589 316.105 156.76C315.935 156.93 315.84 157.161 315.84 157.401Z" fill="#2D2E85"/>
<path d="M300.991 117.189H111.927V235.439H300.991V117.189Z" fill="white"/>
<path d="M323.876 245.832V249.022C323.876 257.28 317.124 264.04 308.873 264.04H104.046C95.794 264.04 89.04 257.281 89.04 249.022V245.832H186.301L188.277 249.771C188.277 249.771 188.278 249.772 188.278 249.773C188.838 250.903 189.831 251.88 190.951 252.573C192.071 253.266 193.388 253.716 194.64 253.716H218.273C219.525 253.716 220.842 253.266 221.964 252.573C223.084 251.881 224.077 250.904 224.635 249.773C224.636 249.772 224.636 249.771 224.637 249.77L226.615 245.832H323.876Z" fill="white" stroke="black" stroke-width="1.5"/>
<path d="M231.298 224.13C231.298 226.944 233.744 229.245 236.732 229.245H357.659C360.648 229.245 363.093 226.946 363.093 224.13V97.1225C363.093 94.3093 360.648 92.0079 357.659 92.0079H236.732C233.744 92.0079 231.298 94.3069 231.298 97.1225V224.13Z" fill="white"/>
<path fill-rule="evenodd" clip-rule="evenodd" d="M230.391 224.13C230.391 227.426 233.23 230.152 236.731 230.152H357.659C361.165 230.152 364 227.426 364 224.13V150.639C364 150.398 363.904 150.167 363.734 149.997C363.564 149.827 363.333 149.731 363.093 149.731C362.852 149.731 362.622 149.827 362.452 149.997C362.281 150.167 362.186 150.398 362.186 150.639V224.13C362.186 226.461 360.13 228.337 357.659 228.337H236.731C234.256 228.337 232.204 226.46 232.204 224.13C232.204 223.89 232.109 223.659 231.939 223.489C231.769 223.318 231.538 223.223 231.297 223.223C231.057 223.223 230.826 223.318 230.656 223.489C230.486 223.659 230.391 223.89 230.391 224.13Z" fill="black"/>
<path fill-rule="evenodd" clip-rule="evenodd" d="M364 117.898V97.1225C364 93.8253 361.163 91.1005 357.66 91.1005H236.732C236.492 91.1005 236.261 91.1961 236.091 91.3663C235.921 91.5364 235.825 91.7673 235.825 92.0079C235.825 92.2486 235.921 92.4795 236.091 92.6496C236.261 92.8198 236.492 92.9154 236.732 92.9154H357.66C360.135 92.9154 362.187 94.7921 362.187 97.1225V117.898C362.187 118.139 362.282 118.369 362.452 118.54C362.622 118.71 362.853 118.805 363.093 118.805C363.334 118.805 363.565 118.71 363.735 118.54C363.905 118.369 364 118.139 364 117.898Z" fill="black"/>
<path d="M350.73 106.179V138.213C350.727 139.54 350.198 140.811 349.261 141.749C348.324 142.687 347.054 143.215 345.728 143.219H248.67C247.345 143.215 246.075 142.687 245.137 141.749C244.2 140.811 243.672 139.54 243.668 138.213V106.179C243.672 104.853 244.2 103.582 245.137 102.644C246.075 101.707 247.345 101.178 248.67 101.175H345.728C347.054 101.179 348.323 101.707 349.261 102.645C350.198 103.582 350.726 104.853 350.73 106.179Z" fill="#2D4BAA"/>
<path fill-rule="evenodd" clip-rule="evenodd" d="M256.327 119.236H290.666C290.939 119.243 291.21 119.195 291.464 119.095C291.717 118.995 291.949 118.845 292.144 118.655C292.339 118.464 292.494 118.237 292.6 117.985C292.706 117.734 292.76 117.463 292.76 117.191C292.76 116.918 292.706 116.648 292.6 116.396C292.494 116.145 292.339 115.917 292.144 115.726C291.949 115.536 291.717 115.386 291.464 115.286C291.21 115.186 290.939 115.139 290.666 115.145H256.327C256.054 115.139 255.783 115.186 255.529 115.286C255.275 115.386 255.044 115.536 254.849 115.726C254.654 115.917 254.499 116.145 254.393 116.396C254.287 116.648 254.232 116.918 254.232 117.191C254.232 117.463 254.287 117.734 254.393 117.985C254.499 118.237 254.654 118.464 254.849 118.655C255.044 118.845 255.275 118.995 255.529 119.095C255.783 119.195 256.054 119.243 256.327 119.236Z" fill="url(#paint2_linear_137_7715)"/>
<path fill-rule="evenodd" clip-rule="evenodd" d="M255.326 126.221H314.01C314.281 126.221 314.541 126.114 314.733 125.922C314.925 125.73 315.032 125.47 315.032 125.198C315.032 124.927 314.925 124.667 314.733 124.475C314.541 124.283 314.281 124.175 314.01 124.175H255.326C255.055 124.175 254.795 124.283 254.603 124.475C254.411 124.667 254.304 124.927 254.304 125.198C254.304 125.47 254.411 125.73 254.603 125.922C254.795 126.114 255.055 126.221 255.326 126.221Z" fill="url(#paint3_linear_137_7715)"/>
<path fill-rule="evenodd" clip-rule="evenodd" d="M255.325 132.22H314.009C314.28 132.22 314.54 132.113 314.732 131.921C314.923 131.729 315.031 131.469 315.031 131.198C315.031 130.927 314.923 130.667 314.732 130.475C314.54 130.283 314.28 130.176 314.009 130.176H255.325C255.054 130.176 254.795 130.283 254.603 130.475C254.411 130.667 254.304 130.927 254.304 131.198C254.304 131.469 254.411 131.729 254.603 131.921C254.795 132.113 255.054 132.22 255.325 132.22Z" fill="url(#paint4_linear_137_7715)"/>
<path fill-rule="evenodd" clip-rule="evenodd" d="M248.215 160.371H282.554C283.232 160.371 283.882 160.101 284.361 159.622C284.84 159.142 285.11 158.492 285.11 157.813C285.11 157.135 284.84 156.485 284.361 156.005C283.882 155.525 283.232 155.256 282.554 155.256H248.215C247.537 155.256 246.887 155.525 246.408 156.005C245.928 156.485 245.659 157.135 245.659 157.813C245.659 158.492 245.928 159.142 246.408 159.622C246.887 160.101 247.537 160.371 248.215 160.371Z" fill="#C1CCEF"/>
<path fill-rule="evenodd" clip-rule="evenodd" d="M247.214 167.718H347.542C347.807 167.708 348.058 167.597 348.243 167.406C348.427 167.215 348.53 166.96 348.53 166.694C348.53 166.429 348.427 166.174 348.243 165.983C348.058 165.792 347.807 165.681 347.542 165.671H247.214C247.077 165.667 246.94 165.69 246.812 165.739C246.684 165.788 246.567 165.863 246.468 165.958C246.37 166.054 246.291 166.168 246.238 166.295C246.184 166.421 246.156 166.557 246.156 166.694C246.156 166.832 246.184 166.968 246.238 167.094C246.291 167.221 246.37 167.335 246.468 167.431C246.567 167.526 246.684 167.601 246.812 167.65C246.94 167.699 247.077 167.722 247.214 167.718Z" fill="#C1CCEF"/>
<path fill-rule="evenodd" clip-rule="evenodd" d="M247.214 174.89H347.542C347.807 174.881 348.058 174.769 348.243 174.579C348.427 174.388 348.53 174.133 348.53 173.867C348.53 173.602 348.427 173.347 348.243 173.156C348.058 172.965 347.807 172.853 347.542 172.844H247.214C247.077 172.84 246.94 172.862 246.812 172.912C246.684 172.961 246.567 173.036 246.468 173.131C246.37 173.227 246.291 173.341 246.238 173.467C246.184 173.594 246.156 173.73 246.156 173.867C246.156 174.005 246.184 174.141 246.238 174.267C246.291 174.394 246.37 174.508 246.468 174.603C246.567 174.699 246.684 174.773 246.812 174.823C246.94 174.872 247.077 174.895 247.214 174.89Z" fill="#C1CCEF"/>
<path fill-rule="evenodd" clip-rule="evenodd" d="M247.214 182.063H347.542C347.807 182.054 348.058 181.942 348.243 181.751C348.427 181.56 348.53 181.305 348.53 181.04C348.53 180.775 348.427 180.52 348.243 180.329C348.058 180.138 347.807 180.026 347.542 180.017H247.214C247.077 180.012 246.94 180.035 246.812 180.084C246.684 180.134 246.567 180.208 246.468 180.304C246.37 180.399 246.291 180.514 246.238 180.64C246.184 180.767 246.156 180.903 246.156 181.04C246.156 181.177 246.184 181.313 246.238 181.44C246.291 181.566 246.37 181.681 246.468 181.776C246.567 181.872 246.684 181.946 246.812 181.996C246.94 182.045 247.077 182.068 247.214 182.063Z" fill="#C1CCEF"/>
<path fill-rule="evenodd" clip-rule="evenodd" d="M247.215 189.236H347.542C347.814 189.236 348.074 189.128 348.265 188.936C348.457 188.744 348.565 188.484 348.565 188.213C348.565 187.941 348.457 187.681 348.265 187.489C348.074 187.297 347.814 187.19 347.542 187.19H247.215C246.944 187.19 246.684 187.297 246.492 187.489C246.3 187.681 246.192 187.941 246.192 188.213C246.192 188.484 246.3 188.744 246.492 188.936C246.684 189.128 246.944 189.236 247.215 189.236Z" fill="#C1CCEF"/>
<path d="M348.998 213.427C348.998 215.282 346.7 216.798 343.887 216.798H250.816C248.005 216.798 245.705 215.282 245.705 213.427V207.696C245.705 205.843 248.002 204.325 250.816 204.325H343.887C346.698 204.325 348.998 205.843 348.998 207.696V213.427Z" fill="#C1CCEF"/>
<path d="M64.9072 224.13C64.9072 226.944 67.3521 229.245 70.3411 229.245H191.269C194.258 229.245 196.703 226.946 196.703 224.13V97.1225C196.703 94.3093 194.256 92.0079 191.269 92.0079H70.3411C67.3521 92.0079 64.9084 94.3069 64.9084 97.1225V224.13H64.9072Z" fill="white"/>
<path fill-rule="evenodd" clip-rule="evenodd" d="M197.609 111.064V97.1225C197.609 93.8253 194.771 91.1005 191.269 91.1005H70.3397C66.8332 91.1005 63.999 93.8253 63.999 97.1225V177.648C63.999 177.888 64.0946 178.119 64.2646 178.289C64.4347 178.46 64.6654 178.555 64.9059 178.555C65.1464 178.555 65.377 178.46 65.5471 178.289C65.7172 178.119 65.8127 177.888 65.8127 177.648V97.1225C65.8127 94.7933 67.8682 92.9154 70.3397 92.9154H191.269C193.744 92.9154 195.796 94.7921 195.796 97.1225V111.064C195.796 111.305 195.891 111.535 196.061 111.706C196.231 111.876 196.462 111.971 196.702 111.971C196.943 111.971 197.174 111.876 197.344 111.706C197.514 111.535 197.609 111.305 197.609 111.064Z" fill="black"/>
<path fill-rule="evenodd" clip-rule="evenodd" d="M64 197.397V224.13C64 227.426 66.839 230.152 70.3407 230.152H191.268C191.509 230.152 191.739 230.057 191.91 229.887C192.08 229.716 192.175 229.486 192.175 229.245C192.175 229.004 192.08 228.773 191.91 228.603C191.739 228.433 191.509 228.337 191.268 228.337H70.3407C67.8656 228.337 65.8149 226.46 65.8149 224.13V197.397C65.8149 197.156 65.7194 196.926 65.5493 196.755C65.3792 196.585 65.1486 196.49 64.9081 196.49C64.6675 196.49 64.4369 196.585 64.2668 196.755C64.0968 196.926 64.0012 197.156 64.0012 197.397H64Z" fill="black"/>
<path d="M180.712 106.179V138.213C180.709 139.54 180.18 140.811 179.243 141.749C178.306 142.687 177.036 143.215 175.71 143.219H78.6545C77.329 143.215 76.0589 142.687 75.1217 141.749C74.1844 140.811 73.6562 139.54 73.6523 138.213V106.179C73.6559 104.853 74.184 103.582 75.1213 102.644C76.0587 101.706 77.3289 101.177 78.6545 101.174H175.713C177.038 101.178 178.307 101.707 179.244 102.645C180.181 103.583 180.709 104.853 180.712 106.179Z" fill="#2D4BAA"/>
<path fill-rule="evenodd" clip-rule="evenodd" d="M86.3072 112.397H120.647C121.18 112.384 121.687 112.163 122.06 111.781C122.433 111.399 122.641 110.886 122.641 110.352C122.641 109.818 122.433 109.305 122.06 108.923C121.687 108.541 121.18 108.319 120.647 108.306H86.3072C86.0346 108.3 85.7635 108.348 85.5097 108.448C85.2559 108.547 85.0246 108.697 84.8294 108.888C84.6343 109.078 84.4792 109.306 84.3733 109.557C84.2674 109.809 84.2129 110.079 84.2129 110.352C84.2129 110.625 84.2674 110.895 84.3733 111.146C84.4792 111.398 84.6343 111.625 84.8294 111.816C85.0246 112.007 85.2559 112.156 85.5097 112.256C85.7635 112.356 86.0346 112.404 86.3072 112.397Z" fill="white" fill-opacity="0.8"/>
<path fill-rule="evenodd" clip-rule="evenodd" d="M85.3045 132.545H143.99C144.261 132.545 144.521 132.437 144.713 132.245C144.904 132.053 145.012 131.793 145.012 131.522C145.012 131.25 144.904 130.99 144.713 130.798C144.521 130.606 144.261 130.499 143.99 130.499H85.3045C85.0334 130.499 84.7734 130.606 84.5817 130.798C84.3899 130.99 84.2822 131.25 84.2822 131.522C84.2822 131.793 84.3899 132.053 84.5817 132.245C84.7734 132.437 85.0334 132.545 85.3045 132.545Z" fill="white" fill-opacity="0.8"/>
<path fill-rule="evenodd" clip-rule="evenodd" d="M85.3049 138.55H143.99C144.261 138.55 144.521 138.442 144.713 138.25C144.904 138.059 145.012 137.798 145.012 137.527C145.012 137.256 144.904 136.996 144.713 136.804C144.521 136.613 144.261 136.505 143.99 136.505H85.3049C85.0339 136.505 84.7741 136.613 84.5825 136.804C84.3909 136.996 84.2832 137.256 84.2832 137.527C84.2832 137.798 84.3909 138.059 84.5825 138.25C84.7741 138.442 85.0339 138.55 85.3049 138.55Z" fill="white" fill-opacity="0.8"/>
<path fill-rule="evenodd" clip-rule="evenodd" d="M110.672 154.157H145.012C145.68 154.143 146.316 153.867 146.783 153.389C147.251 152.911 147.512 152.269 147.512 151.6C147.512 150.931 147.251 150.289 146.783 149.811C146.316 149.333 145.68 149.057 145.012 149.043H110.672C110.004 149.057 109.368 149.333 108.901 149.811C108.434 150.289 108.172 150.931 108.172 151.6C108.172 152.269 108.434 152.911 108.901 153.389C109.368 153.867 110.004 154.143 110.672 154.157Z" fill="#B2BFEB" fill-opacity="0.8"/>
<path fill-rule="evenodd" clip-rule="evenodd" d="M77.6801 163.717H178.008C178.145 163.722 178.282 163.699 178.41 163.65C178.538 163.601 178.655 163.526 178.754 163.43C178.853 163.335 178.931 163.221 178.985 163.094C179.038 162.968 179.066 162.832 179.066 162.694C179.066 162.557 179.038 162.421 178.985 162.294C178.931 162.168 178.853 162.054 178.754 161.958C178.655 161.863 178.538 161.788 178.41 161.739C178.282 161.69 178.145 161.667 178.008 161.671H77.6801C77.4151 161.68 77.1639 161.792 76.9797 161.983C76.7954 162.174 76.6924 162.429 76.6924 162.694C76.6924 162.96 76.7954 163.215 76.9797 163.406C77.1639 163.596 77.4151 163.708 77.6801 163.717Z" fill="#B2BFEB" fill-opacity="0.8"/>
<path fill-rule="evenodd" clip-rule="evenodd" d="M77.6801 174.812H178.008C178.145 174.816 178.282 174.793 178.41 174.744C178.538 174.695 178.655 174.62 178.754 174.525C178.853 174.429 178.931 174.315 178.985 174.188C179.038 174.062 179.066 173.926 179.066 173.789C179.066 173.651 179.038 173.515 178.985 173.389C178.931 173.262 178.853 173.148 178.754 173.052C178.655 172.957 178.538 172.882 178.41 172.833C178.282 172.784 178.145 172.761 178.008 172.766H77.6801C77.4151 172.775 77.1639 172.886 76.9797 173.077C76.7954 173.268 76.6924 173.523 76.6924 173.789C76.6924 174.054 76.7954 174.309 76.9797 174.5C77.1639 174.691 77.4151 174.803 77.6801 174.812Z" fill="#B2BFEB" fill-opacity="0.8"/>
<path fill-rule="evenodd" clip-rule="evenodd" d="M77.6801 185.906H178.008C178.145 185.911 178.282 185.888 178.41 185.838C178.538 185.789 178.655 185.715 178.754 185.619C178.853 185.524 178.931 185.409 178.985 185.283C179.038 185.156 179.066 185.02 179.066 184.883C179.066 184.746 179.038 184.61 178.985 184.483C178.931 184.357 178.853 184.242 178.754 184.147C178.655 184.051 178.538 183.977 178.41 183.927C178.282 183.878 178.145 183.855 178.008 183.86H77.6801C77.4151 183.869 77.1639 183.981 76.9797 184.172C76.7954 184.362 76.6924 184.617 76.6924 184.883C76.6924 185.148 76.7954 185.403 76.9797 185.594C77.1639 185.785 77.4151 185.897 77.6801 185.906Z" fill="#B2BFEB" fill-opacity="0.8"/>
<path fill-rule="evenodd" clip-rule="evenodd" d="M77.6801 197.001H178.008C178.145 197.006 178.282 196.983 178.41 196.934C178.538 196.885 178.655 196.81 178.754 196.715C178.853 196.619 178.931 196.505 178.985 196.378C179.038 196.252 179.066 196.116 179.066 195.978C179.066 195.841 179.038 195.705 178.985 195.579C178.931 195.452 178.853 195.338 178.754 195.242C178.655 195.147 178.538 195.072 178.41 195.023C178.282 194.974 178.145 194.951 178.008 194.955H77.6801C77.4151 194.965 77.1639 195.076 76.9797 195.267C76.7954 195.458 76.6924 195.713 76.6924 195.978C76.6924 196.244 76.7954 196.499 76.9797 196.69C77.1639 196.881 77.4151 196.992 77.6801 197.001Z" fill="#B2BFEB" fill-opacity="0.8"/>
<g opacity="0.8">
<path d="M155.701 214.909C155.696 216.264 155.157 217.563 154.199 218.521C153.241 219.479 151.944 220.02 150.59 220.024H104.072C102.718 220.02 101.42 219.48 100.462 218.521C99.5045 217.563 98.9648 216.264 98.9609 214.909V206.213C98.9648 204.858 99.5045 203.559 100.462 202.601C101.42 201.642 102.718 201.102 104.072 201.098H150.588C151.943 201.103 153.24 201.643 154.198 202.601C155.155 203.559 155.695 204.858 155.699 206.213L155.701 214.909Z" fill="#B2BFEB"/>
</g>
<path d="M127.176 83.2767C135.556 83.2767 142.35 76.4786 142.35 68.0927C142.35 59.7068 135.556 52.9087 127.176 52.9087C118.796 52.9087 112.003 59.7068 112.003 68.0927C112.003 76.4786 118.796 83.2767 127.176 83.2767Z" fill="#E2E8F0"/>
<path fill-rule="evenodd" clip-rule="evenodd" d="M135.432 79.7339C133.297 81.2489 130.787 82.1471 128.176 82.3303C125.566 82.5135 122.955 81.9747 120.63 80.7727C118.305 79.5707 116.355 77.7519 114.993 75.5153C113.632 73.2787 112.911 70.7104 112.91 68.0915C112.91 67.8508 112.815 67.62 112.645 67.4498C112.475 67.2796 112.244 67.184 112.004 67.184C111.763 67.184 111.532 67.2796 111.362 67.4498C111.192 67.62 111.097 67.8508 111.097 68.0915C111.097 71.0445 111.909 73.9405 113.444 76.4624C114.979 78.9844 117.178 81.0351 119.8 82.3899C122.422 83.7448 125.366 84.3516 128.309 84.1439C131.253 83.9363 134.082 82.9221 136.488 81.2125C136.685 81.0729 136.817 80.8611 136.857 80.6236C136.897 80.3862 136.841 80.1425 136.702 79.9463C136.562 79.75 136.351 79.6173 136.113 79.5772C135.876 79.5372 135.633 79.5931 135.436 79.7327L135.432 79.7339Z" fill="black"/>
<path fill-rule="evenodd" clip-rule="evenodd" d="M115.152 60.4106C116.813 57.8091 119.273 55.8166 122.161 54.7318C125.05 53.647 128.212 53.5283 131.173 54.3935C134.135 55.2588 136.736 57.0613 138.588 59.5309C140.439 62.0006 141.441 65.0042 141.442 68.0915C141.442 68.3322 141.538 68.563 141.708 68.7332C141.878 68.9034 142.109 68.999 142.349 68.999C142.59 68.999 142.82 68.9034 142.99 68.7332C143.16 68.563 143.256 68.3322 143.256 68.0915C143.255 64.6117 142.126 61.2262 140.04 58.4424C137.953 55.6586 135.021 53.6266 131.683 52.6509C128.345 51.6753 124.782 51.8086 121.526 53.0309C118.27 54.2532 115.498 56.4986 113.625 59.4305C113.559 59.5308 113.514 59.6433 113.491 59.7613C113.469 59.8794 113.47 60.0007 113.495 60.1182C113.52 60.2356 113.568 60.347 113.637 60.4458C113.705 60.5446 113.792 60.6288 113.893 60.6936C113.994 60.7584 114.107 60.8025 114.226 60.8232C114.344 60.844 114.465 60.8411 114.582 60.8147C114.699 60.7882 114.81 60.7388 114.908 60.6692C115.006 60.5996 115.089 60.5113 115.152 60.4094V60.4106Z" fill="black"/>
<path d="M297.197 83.2779C305.578 83.2779 312.372 76.4793 312.372 68.0927C312.372 59.7061 305.578 52.9075 297.197 52.9075C288.816 52.9075 282.022 59.7061 282.022 68.0927C282.022 76.4793 288.816 83.2779 297.197 83.2779Z" fill="white"/>
<path fill-rule="evenodd" clip-rule="evenodd" d="M309.574 60.9902C310.817 63.1612 311.469 65.6212 311.463 68.1237C311.458 70.6262 310.795 73.0833 309.541 75.2486C308.288 77.414 306.488 79.2117 304.321 80.4614C302.154 81.7111 299.698 82.3691 297.197 82.3693C296.956 82.3693 296.726 82.4649 296.556 82.6351C296.386 82.8053 296.29 83.0361 296.29 83.2768C296.29 83.5174 296.386 83.7483 296.556 83.9184C296.726 84.0886 296.956 84.1842 297.197 84.1842C300.016 84.1841 302.785 83.4424 305.228 82.0336C307.67 80.6247 309.699 78.5981 311.112 76.1569C312.525 73.7158 313.272 70.9459 313.278 68.1249C313.283 65.3038 312.548 62.5309 311.145 60.0839C311.087 59.9787 311.008 59.8862 310.914 59.8118C310.819 59.7374 310.711 59.6825 310.595 59.6503C310.479 59.6181 310.358 59.6093 310.239 59.6244C310.12 59.6395 310.005 59.6782 309.901 59.7382C309.796 59.7982 309.705 59.8783 309.632 59.9739C309.559 60.0695 309.506 60.1787 309.475 60.2951C309.445 60.4115 309.438 60.5327 309.455 60.6519C309.472 60.771 309.512 60.8856 309.574 60.9889V60.9902Z" fill="black"/>
<path fill-rule="evenodd" clip-rule="evenodd" d="M289.437 80.0703C286.855 78.3946 284.884 75.9286 283.817 73.0402C282.751 70.1517 282.646 66.9956 283.518 64.0427C284.391 61.0898 286.194 58.4983 288.659 56.6548C291.124 54.8114 294.118 53.8148 297.196 53.8137C297.436 53.8137 297.667 53.7181 297.837 53.548C298.007 53.3778 298.102 53.1469 298.102 52.9063C298.102 52.6656 298.007 52.4348 297.837 52.2646C297.667 52.0944 297.436 51.9988 297.196 51.9988C293.727 51.999 290.351 53.1218 287.572 55.1995C284.793 57.2773 282.759 60.1986 281.776 63.5275C280.792 66.8564 280.91 70.4145 282.113 73.6706C283.315 76.9268 285.538 79.7065 288.449 81.5949C288.549 81.6598 288.66 81.7044 288.777 81.7261C288.894 81.7478 289.015 81.7462 289.131 81.7215C289.248 81.6967 289.358 81.6492 289.456 81.5817C289.554 81.5142 289.638 81.428 289.703 81.3281C289.768 81.2281 289.813 81.1164 289.834 80.9992C289.856 80.882 289.854 80.7617 289.83 80.6451C289.805 80.5286 289.757 80.418 289.69 80.3198C289.623 80.2216 289.536 80.1376 289.437 80.0727V80.0703Z" fill="black"/>
<path d="M295.478 74.8286H295.459C295.223 74.8262 294.99 74.7747 294.774 74.6774C294.559 74.5801 294.367 74.4392 294.209 74.2636L289.794 69.3535C289.644 69.1867 289.529 68.9919 289.454 68.7804C289.379 68.5688 289.347 68.3446 289.359 68.1206C289.371 67.8965 289.427 67.677 289.523 67.4746C289.62 67.2722 289.756 67.0908 289.922 66.9408C290.089 66.7908 290.284 66.6751 290.495 66.6004C290.706 66.5257 290.93 66.4933 291.154 66.5052C291.378 66.5172 291.598 66.5731 291.8 66.6698C292.002 66.7666 292.183 66.9022 292.333 67.0691L295.507 70.5986L302.086 63.6049C302.397 63.275 302.825 63.082 303.278 63.0684C303.73 63.0548 304.17 63.2217 304.5 63.5323C304.829 63.8429 305.022 64.2719 305.036 64.7248C305.049 65.1777 304.883 65.6175 304.572 65.9474L296.724 74.2963C296.563 74.4655 296.37 74.6002 296.156 74.6924C295.942 74.7845 295.711 74.8321 295.478 74.8323V74.8286Z" fill="#2D4BAA"/>
<path fill-rule="evenodd" clip-rule="evenodd" d="M186.688 124.235H238.744C238.984 124.235 239.215 124.139 239.385 123.969C239.555 123.799 239.65 123.568 239.65 123.327C239.65 123.086 239.555 122.856 239.385 122.685C239.215 122.515 238.984 122.42 238.744 122.42H186.688C186.448 122.42 186.217 122.515 186.047 122.685C185.877 122.856 185.781 123.086 185.781 123.327C185.781 123.568 185.877 123.799 186.047 123.969C186.217 124.139 186.448 124.235 186.688 124.235Z" fill="black"/>
<path fill-rule="evenodd" clip-rule="evenodd" d="M186.688 173.2H238.744C238.984 173.2 239.215 173.104 239.385 172.934C239.555 172.764 239.65 172.533 239.65 172.292C239.65 172.052 239.555 171.821 239.385 171.651C239.215 171.481 238.984 171.385 238.744 171.385H186.688C186.448 171.385 186.217 171.481 186.047 171.651C185.877 171.821 185.781 172.052 185.781 172.292C185.781 172.533 185.877 172.764 186.047 172.934C186.217 173.104 186.448 173.2 186.688 173.2Z" fill="black"/>
<path fill-rule="evenodd" clip-rule="evenodd" d="M186.688 212.488H238.744C238.984 212.488 239.215 212.392 239.385 212.222C239.555 212.052 239.65 211.821 239.65 211.58C239.65 211.34 239.555 211.109 239.385 210.939C239.215 210.769 238.984 210.673 238.744 210.673H186.688C186.448 210.673 186.217 210.769 186.047 210.939C185.877 211.109 185.781 211.34 185.781 211.58C185.781 211.821 185.877 212.052 186.047 212.222C186.217 212.392 186.448 212.488 186.688 212.488Z" fill="black"/>
<path d="M124.872 74.8251H124.853C124.617 74.8226 124.384 74.7711 124.169 74.6738C123.954 74.5765 123.761 74.4356 123.603 74.26L119.189 69.3511C119.039 69.1843 118.923 68.9895 118.848 68.778C118.774 68.5664 118.741 68.3422 118.753 68.1182C118.765 67.8942 118.821 67.6746 118.918 67.4722C119.015 67.2698 119.15 67.0884 119.317 66.9384C119.484 66.7884 119.678 66.6727 119.89 66.598C120.101 66.5233 120.325 66.4909 120.549 66.5029C120.773 66.5148 120.992 66.5707 121.194 66.6674C121.397 66.7642 121.578 66.8998 121.728 67.0667L124.902 70.595L131.481 63.6013C131.791 63.2714 132.22 63.0784 132.672 63.0648C133.125 63.0512 133.564 63.218 133.894 63.5287C134.224 63.8393 134.417 64.2683 134.43 64.7212C134.444 65.1741 134.277 65.6139 133.967 65.9438L126.118 74.2927C125.958 74.4621 125.765 74.5971 125.551 74.6894C125.337 74.7818 125.106 74.8296 124.873 74.8299L124.872 74.8251Z" fill="#2D4BAA"/>
</g>
</g>
<defs>
<linearGradient id="paint0_linear_137_7715" x1="195.342" y1="299.25" x2="195.667" y2="254.765" gradientUnits="userSpaceOnUse">
<stop stop-color="white" stop-opacity="0"/>
<stop offset="1" stop-color="#82A9FF" stop-opacity="0.21"/>
</linearGradient>
<linearGradient id="paint1_linear_137_7715" x1="208.214" y1="273.024" x2="259.641" y2="81.1973" gradientUnits="userSpaceOnUse">
<stop stop-color="white" stop-opacity="0"/>
<stop offset="1" stop-color="#82A9FF" stop-opacity="0.21"/>
</linearGradient>
<linearGradient id="paint2_linear_137_7715" x1="253.729" y1="115.836" x2="292.355" y2="115.836" gradientUnits="userSpaceOnUse">
<stop stop-color="white"/>
<stop offset="1" stop-color="#E6F3FB"/>
</linearGradient>
<linearGradient id="paint3_linear_137_7715" x1="254.966" y1="126.165" x2="315.088" y2="126.165" gradientUnits="userSpaceOnUse">
<stop stop-color="white"/>
<stop offset="1" stop-color="#E6F3FB"/>
</linearGradient>
<linearGradient id="paint4_linear_137_7715" x1="254.965" y1="132.437" x2="315.087" y2="132.437" gradientUnits="userSpaceOnUse">
<stop stop-color="white"/>
<stop offset="1" stop-color="#E6F3FB"/>
</linearGradient>
<clipPath id="clip0_137_7715">
<rect width="422" height="310" fill="white"/>
</clipPath>
<clipPath id="clip1_137_7715">
<rect width="300" height="215.878" fill="white" transform="translate(64 52)"/>
</clipPath>
</defs>
</svg>
