<svg width="422" height="310" viewBox="0 0 422 310" fill="none" xmlns="http://www.w3.org/2000/svg">
<path fill-rule="evenodd" clip-rule="evenodd" d="M183.171 251.162C159.76 257.728 119.402 260.433 67.9664 260.899C20.2337 261.667 1.18454 266.879 2.03186 275.508C7.77485 288.822 86.7959 294.461 222.243 292.667C334.058 291.301 386.059 282.469 400.903 268.354C423.404 244.091 254.975 231.342 183.171 251.162Z" fill="url(#paint0_linear_138_9725)"/>
<path opacity="0.1" d="M91.9001 67.9453H280.832V263.576H91.9001V67.9453Z" fill="#72D8ED"/>
<g clip-path="url(#clip0_138_9725)">
<path d="M121.97 146.23C121.968 146.966 121.675 147.67 121.155 148.19C120.635 148.71 119.931 149.003 119.196 149.005H48.6063C47.8712 149.003 47.1667 148.71 46.6469 148.19C46.127 147.67 45.8341 146.966 45.832 146.23V105.345C45.8341 104.61 46.127 103.906 46.6469 103.386C47.1667 102.866 47.8712 102.573 48.6063 102.571H119.195C119.93 102.573 120.634 102.866 121.154 103.386C121.674 103.906 121.967 104.61 121.969 105.345V146.23H121.97Z" fill="white"/>
<path fill-rule="evenodd" clip-rule="evenodd" d="M63.4016 103.403H119.196C119.711 103.405 120.204 103.61 120.568 103.974C120.932 104.338 121.137 104.831 121.138 105.345V129.393C121.138 129.614 121.226 129.825 121.382 129.982C121.538 130.138 121.75 130.225 121.971 130.225C122.191 130.225 122.403 130.138 122.559 129.982C122.715 129.825 122.803 129.614 122.803 129.393V105.345C122.8 104.39 122.419 103.474 121.743 102.798C121.068 102.123 120.152 101.742 119.196 101.739H63.4016C63.1809 101.739 62.9692 101.826 62.8131 101.982C62.657 102.139 62.5693 102.35 62.5693 102.571C62.5693 102.792 62.657 103.003 62.8131 103.16C62.9692 103.316 63.1809 103.403 63.4016 103.403Z" fill="black"/>
<path fill-rule="evenodd" clip-rule="evenodd" d="M119.196 148.168H48.6066C48.092 148.167 47.5989 147.962 47.235 147.598C46.8711 147.234 46.666 146.741 46.6646 146.226V105.345C46.6646 105.125 46.5769 104.913 46.4208 104.757C46.2647 104.601 46.053 104.513 45.8323 104.513C45.6116 104.513 45.3999 104.601 45.2438 104.757C45.0877 104.913 45 105.125 45 105.345V146.23C45.0029 147.186 45.3839 148.102 46.0596 148.778C46.7353 149.453 47.651 149.834 48.6066 149.837H119.195C119.416 149.837 119.627 149.75 119.783 149.593C119.939 149.437 120.027 149.226 120.027 149.005C120.027 148.784 119.939 148.572 119.783 148.416C119.627 148.26 119.416 148.173 119.195 148.173L119.196 148.168Z" fill="black"/>
<path d="M62.234 135.018H52.4141V143.344H62.234V135.018Z" fill="#121F55"/>
<path d="M79.9518 128.188H70.1318V143.344H79.9518V128.188Z" fill="#2D4BAA"/>
<path d="M97.6706 118.795H87.8496V143.344H97.6706V118.795Z" fill="#121F55"/>
<path d="M115.386 109.616H105.566V143.345H115.386V109.616Z" fill="#121F55"/>
<path d="M142.861 143.249L142.861 143.249C145.984 141.137 149.649 140.603 153.495 140.582C155.421 140.572 157.427 140.691 159.459 140.821C159.626 140.832 159.793 140.843 159.96 140.853C161.841 140.974 163.746 141.097 165.681 141.136C167.48 141.172 169.685 141.232 172.189 141.301C180.08 141.517 190.93 141.815 201.315 141.681C208.154 141.594 214.761 141.319 220.162 140.715C222.862 140.413 225.242 140.031 227.188 139.554C229.154 139.073 230.592 138.516 231.474 137.908C244.77 128.75 279.453 103.237 284.582 99.4587L285.373 98.8762L285.97 99.6565L291.687 107.134L291.687 107.134C292.02 107.57 292.307 107.813 292.518 107.931C292.62 107.989 292.692 108.01 292.734 108.018C292.774 108.025 292.79 108.02 292.793 108.019C292.796 108.019 292.812 108.014 292.843 107.989C292.875 107.962 292.927 107.908 292.987 107.807C293.111 107.6 293.239 107.246 293.311 106.702L293.311 106.701L296.336 84.0719C296.336 84.0716 296.336 84.0713 296.336 84.071C296.46 83.121 296.203 82.1607 295.621 81.3995C295.04 80.6384 294.181 80.1379 293.233 80.0071C293.232 80.007 293.232 80.007 293.231 80.0069L270.602 76.9866L270.602 76.9866C270.057 76.9136 269.681 76.9448 269.448 77.01C269.334 77.0416 269.268 77.0774 269.233 77.102C269.2 77.1249 269.191 77.1396 269.19 77.1426C269.188 77.1455 269.18 77.1601 269.176 77.1995C269.172 77.2419 269.174 77.3168 269.202 77.4302C269.261 77.6643 269.42 78.0057 269.753 78.4409L269.753 78.441L275.886 86.4625L276.504 87.2715L275.684 87.8752C269.97 92.0804 235.951 117.093 223.191 125.879L223.19 125.879C222.824 126.131 222.31 126.283 221.818 126.393C221.287 126.513 220.631 126.613 219.879 126.7C218.372 126.873 216.403 126.999 214.122 127.087C209.557 127.263 203.673 127.294 197.596 127.249C187.011 127.172 175.798 126.868 169.862 126.706C168.981 126.682 168.216 126.661 167.586 126.645L167.586 126.645C165.775 126.598 163.931 126.486 162.056 126.373C158.54 126.161 154.913 125.942 151.189 126.126C145.553 126.404 139.913 127.611 134.677 131.152C130.301 134.113 117.789 142.937 106.357 151.03C100.645 155.075 95.2062 158.934 91.1958 161.782C89.1906 163.206 87.5424 164.377 86.3956 165.192L85.0694 166.135L84.7221 166.382L84.6333 166.445L84.6109 166.461L84.6058 166.465C83.9977 166.9 83.5865 167.558 83.4622 168.296C83.338 169.033 83.5103 169.789 83.9416 170.4C83.9419 170.4 83.9421 170.401 83.9424 170.401L89.137 177.7C89.1371 177.7 89.1373 177.7 89.1375 177.7C89.5729 178.308 90.231 178.719 90.9683 178.843C91.7049 178.968 92.4608 178.796 93.0714 178.365L93.0728 178.364L93.0735 178.364M142.861 143.249L143.422 144.078C134.808 149.904 93.6505 179.181 93.6505 179.181L93.0735 178.364M142.861 143.249C138.543 146.17 126.089 154.954 114.728 162.998C109.045 167.022 103.63 170.864 99.637 173.7C97.6403 175.118 95.9988 176.284 94.8565 177.096L93.5353 178.036L93.1893 178.282L93.1008 178.345L93.0784 178.36L93.0735 178.364M142.861 143.249L93.0735 178.364" fill="white" stroke="black" stroke-width="2"/>
<path d="M109.814 209.027C109.81 207.75 109.302 206.527 108.399 205.625C107.496 204.722 106.273 204.213 104.997 204.209H78.7275C77.451 204.213 76.2279 204.722 75.3253 205.625C74.4227 206.527 73.914 207.75 73.9102 209.027V250.35C73.914 251.627 74.4227 252.85 75.3253 253.752C76.2279 254.655 77.451 255.164 78.7275 255.168H104.997C106.273 255.164 107.496 254.655 108.399 253.752C109.302 252.85 109.81 251.627 109.814 250.35V209.027Z" fill="#2D4BAA"/>
<path d="M160.233 171.593C160.229 170.317 159.721 169.093 158.818 168.191C157.915 167.288 156.692 166.779 155.416 166.776H129.145C127.869 166.779 126.646 167.288 125.743 168.191C124.841 169.093 124.332 170.317 124.328 171.593V250.35C124.332 251.627 124.841 252.85 125.743 253.752C126.646 254.655 127.869 255.164 129.145 255.168H155.416C156.692 255.164 157.915 254.655 158.818 253.752C159.721 252.85 160.229 251.627 160.233 250.35V171.593Z" fill="#121F55"/>
<path d="M210.653 179.615C210.649 178.338 210.141 177.115 209.238 176.212C208.335 175.309 207.112 174.801 205.836 174.797H179.566C178.29 174.801 177.067 175.31 176.164 176.212C175.262 177.115 174.753 178.338 174.749 179.615V250.35C174.753 251.627 175.262 252.85 176.164 253.752C177.067 254.655 178.29 255.164 179.566 255.168H205.836C207.112 255.164 208.335 254.655 209.238 253.753C210.141 252.85 210.649 251.627 210.653 250.35V179.615Z" fill="#2D4BAA"/>
<path d="M261.071 158.224C261.067 156.947 260.558 155.724 259.656 154.821C258.753 153.919 257.53 153.41 256.254 153.406H229.984C228.708 153.41 227.484 153.918 226.582 154.821C225.679 155.724 225.171 156.947 225.167 158.224V250.349C225.171 251.626 225.679 252.849 226.582 253.752C227.484 254.654 228.708 255.163 229.984 255.167H256.254C257.53 255.163 258.753 254.654 259.656 253.751C260.558 252.849 261.067 251.626 261.071 250.349V158.224Z" fill="#2D4BAA"/>
<path d="M311.49 129.193C311.486 127.917 310.977 126.694 310.075 125.791C309.172 124.888 307.949 124.38 306.673 124.376H280.403C279.127 124.38 277.904 124.888 277.001 125.791C276.099 126.694 275.59 127.917 275.586 129.193V250.35C275.59 251.627 276.099 252.85 277.001 253.752C277.904 254.655 279.127 255.164 280.403 255.168H306.673C307.949 255.164 309.172 254.655 310.075 253.752C310.977 252.85 311.486 251.627 311.49 250.35V129.193Z" fill="#121F55"/>
<path fill-rule="evenodd" clip-rule="evenodd" d="M59.4051 215.548C61.7158 213.237 64.6599 211.663 67.8649 211.026C71.07 210.389 74.3921 210.716 77.4111 211.967C80.4302 213.217 83.0106 215.335 84.8261 218.052C86.6415 220.769 87.6106 223.964 87.6106 227.232C87.6106 230.5 86.6415 233.695 84.8261 236.412C83.0106 239.129 80.4302 241.247 77.4111 242.497C74.3921 243.748 71.07 244.075 67.8649 243.438C64.6599 242.8 61.7158 241.227 59.4051 238.916C56.3092 235.816 54.5703 231.613 54.5703 227.232C54.5703 222.85 56.3092 218.648 59.4051 215.548Z" fill="white"/>
<path fill-rule="evenodd" clip-rule="evenodd" d="M84.6494 219.331C85.8574 221.405 86.5735 223.729 86.7425 226.124C86.9115 228.519 86.5289 230.92 85.6243 233.144C84.7196 235.367 83.317 237.354 81.5242 238.95C79.7315 240.546 77.5965 241.71 75.2834 242.352C75.0706 242.411 74.8899 242.552 74.781 242.744C74.6722 242.936 74.6441 243.164 74.703 243.376C74.7618 243.589 74.9028 243.77 75.0949 243.879C75.287 243.988 75.5145 244.016 75.7273 243.957C78.2859 243.247 80.6475 241.96 82.6306 240.194C84.6137 238.428 86.1653 236.231 87.1661 233.772C88.1669 231.312 88.5902 228.656 88.4034 226.007C88.2166 223.358 87.4248 220.788 86.0887 218.493C85.9776 218.302 85.7951 218.162 85.5812 218.106C85.3674 218.049 85.1398 218.08 84.9485 218.191C84.7572 218.302 84.6179 218.484 84.5611 218.698C84.5044 218.912 84.535 219.14 84.6461 219.331H84.6494Z" fill="black"/>
<path fill-rule="evenodd" clip-rule="evenodd" d="M66.1815 242.138C62.2732 240.851 59.0267 238.081 57.1411 234.424C55.2556 230.766 54.8819 226.515 56.1006 222.585C57.3193 218.655 60.0328 215.36 63.6568 213.412C67.2807 211.463 71.525 211.016 75.4754 212.166C75.5804 212.197 75.6904 212.206 75.7991 212.194C75.9077 212.182 76.013 212.149 76.1087 212.096C76.2045 212.043 76.289 211.972 76.3573 211.887C76.4256 211.802 76.4765 211.704 76.5069 211.599C76.5374 211.494 76.5469 211.384 76.5348 211.275C76.5228 211.166 76.4895 211.061 76.4367 210.965C76.384 210.87 76.313 210.785 76.2276 210.717C76.1423 210.648 76.0443 210.598 75.9393 210.567C71.5651 209.279 66.8597 209.764 62.8403 211.918C58.8209 214.071 55.8104 217.72 54.4597 222.076C53.1089 226.431 53.5264 231.143 55.6218 235.193C57.7173 239.243 61.3223 242.306 65.6577 243.719C65.762 243.755 65.8722 243.77 65.9822 243.762C66.0921 243.755 66.1995 243.726 66.2981 243.677C66.3968 243.628 66.4847 243.56 66.5568 243.476C66.6288 243.393 66.6836 243.296 66.718 243.192C66.7524 243.087 66.7656 242.976 66.757 242.867C66.7484 242.757 66.718 242.65 66.6677 242.552C66.6174 242.454 66.5481 242.367 66.4639 242.296C66.3797 242.225 66.2822 242.171 66.1771 242.138H66.1815Z" fill="black"/>
<path d="M69.5239 238.827C69.2839 238.887 69.0305 238.859 68.8096 238.748C68.5887 238.637 68.4149 238.45 68.32 238.222C68.225 237.993 68.2151 237.739 68.2921 237.503C68.369 237.268 68.5277 237.069 68.7393 236.941L77.0877 232.116C77.4401 231.912 77.749 231.641 77.9967 231.319C78.2444 230.996 78.4262 230.628 78.5315 230.235C78.6369 229.842 78.6638 229.432 78.6108 229.028C78.5578 228.625 78.4258 228.236 78.2224 227.883C78.0191 227.531 77.7483 227.222 77.4255 226.974C77.1028 226.727 76.7344 226.545 76.3415 226.44C75.9485 226.334 75.5386 226.307 75.1352 226.36C74.7319 226.413 74.3429 226.545 73.9905 226.749L69.2187 229.503C68.0327 230.188 66.6233 230.374 65.3004 230.019C63.9776 229.665 62.8496 228.8 62.1647 227.614C61.4799 226.428 61.2942 225.018 61.6485 223.695C62.0028 222.372 62.8681 221.244 64.054 220.56L72.4014 215.74C72.6386 215.603 72.9206 215.565 73.1853 215.636C73.45 215.707 73.6758 215.88 73.8129 216.117C73.9501 216.354 73.9874 216.636 73.9166 216.901C73.8459 217.166 73.6729 217.392 73.4356 217.529L65.0894 222.348C64.3779 222.759 63.8587 223.436 63.646 224.229C63.4333 225.023 63.5446 225.869 63.9553 226.58C64.366 227.292 65.0425 227.811 65.8361 228.024C66.6296 228.236 67.4751 228.125 68.1866 227.714L72.9585 224.96C74.1428 224.3 75.5393 224.132 76.8463 224.493C78.1534 224.853 79.2661 225.714 79.9441 226.888C80.6221 228.062 80.8111 229.456 80.4702 230.768C80.1292 232.081 79.2858 233.207 78.122 233.902L69.7736 238.723C69.6948 238.768 69.6105 238.803 69.5228 238.826L69.5239 238.827Z" fill="#121F55"/>
<path d="M77.5516 238.962C77.3321 239.02 77.0994 239.005 76.8896 238.918C76.6798 238.831 76.5045 238.677 76.3909 238.48L63.9931 217.016C63.9216 216.898 63.8743 216.768 63.854 216.632C63.8338 216.495 63.8409 216.357 63.875 216.223C63.9091 216.09 63.9695 215.965 64.0527 215.855C64.1358 215.745 64.24 215.653 64.3592 215.585C64.4784 215.516 64.6101 215.472 64.7467 215.454C64.8832 215.437 65.0218 215.447 65.1543 215.484C65.2869 215.521 65.4107 215.585 65.5184 215.67C65.6262 215.756 65.7158 215.862 65.7819 215.983L78.1786 237.454C78.257 237.591 78.303 237.744 78.3129 237.902C78.3229 238.06 78.2966 238.218 78.2361 238.364C78.1755 238.51 78.0824 238.64 77.9638 238.745C77.8452 238.85 77.7042 238.926 77.5516 238.967V238.962Z" fill="#121F55"/>
<path fill-rule="evenodd" clip-rule="evenodd" d="M237.385 162.441C240.541 163.287 243.376 165.05 245.53 167.507C247.685 169.964 249.062 173.005 249.489 176.244C249.915 179.484 249.372 182.778 247.926 185.709C246.481 188.64 244.199 191.077 241.369 192.711C238.539 194.345 235.288 195.103 232.027 194.889C228.767 194.675 225.642 193.5 223.05 191.51C220.457 189.521 218.513 186.808 217.462 183.713C216.412 180.619 216.302 177.282 217.148 174.126C218.284 169.894 221.054 166.287 224.849 164.096C228.643 161.905 233.152 161.31 237.385 162.441Z" fill="white"/>
<path fill-rule="evenodd" clip-rule="evenodd" d="M246.729 186.196C245.537 188.279 243.882 190.061 241.893 191.404C239.904 192.748 237.633 193.617 235.255 193.946C232.877 194.274 230.456 194.052 228.177 193.298C225.898 192.544 223.823 191.277 222.11 189.595C222.032 189.518 221.94 189.457 221.839 189.416C221.737 189.375 221.629 189.354 221.52 189.355C221.41 189.356 221.302 189.378 221.202 189.421C221.101 189.464 221.01 189.526 220.933 189.604C220.856 189.681 220.795 189.774 220.754 189.875C220.713 189.976 220.693 190.085 220.693 190.194C220.694 190.304 220.717 190.412 220.759 190.512C220.802 190.613 220.864 190.704 220.942 190.781C222.836 192.642 225.131 194.044 227.652 194.879C230.173 195.713 232.851 195.958 235.482 195.595C238.112 195.232 240.624 194.271 242.825 192.784C245.025 191.298 246.855 189.327 248.174 187.022C248.236 186.927 248.277 186.821 248.296 186.709C248.315 186.598 248.31 186.484 248.284 186.374C248.257 186.264 248.208 186.161 248.14 186.07C248.072 185.98 247.987 185.904 247.888 185.848C247.79 185.792 247.682 185.757 247.57 185.744C247.457 185.731 247.343 185.741 247.235 185.774C247.127 185.806 247.026 185.861 246.94 185.933C246.853 186.006 246.782 186.096 246.732 186.197L246.729 186.196Z" fill="black"/>
<path fill-rule="evenodd" clip-rule="evenodd" d="M217.746 181.606C216.898 177.574 217.669 173.371 219.893 169.903C222.117 166.435 225.615 163.981 229.632 163.07C233.65 162.16 237.865 162.866 241.366 165.035C244.868 167.205 247.376 170.665 248.349 174.668C248.402 174.883 248.538 175.067 248.727 175.182C248.915 175.296 249.142 175.33 249.356 175.278C249.571 175.225 249.756 175.089 249.87 174.9C249.984 174.711 250.019 174.484 249.966 174.27C248.878 169.854 246.101 166.041 242.232 163.651C238.362 161.262 233.709 160.486 229.274 161.493C224.838 162.499 220.975 165.205 218.515 169.031C216.055 172.856 215.195 177.494 216.119 181.947C216.141 182.055 216.184 182.157 216.245 182.248C216.307 182.339 216.386 182.417 216.477 182.477C216.569 182.538 216.672 182.579 216.78 182.6C216.888 182.62 216.998 182.619 217.106 182.597C217.213 182.574 217.315 182.531 217.406 182.469C217.496 182.406 217.574 182.327 217.633 182.235C217.693 182.143 217.734 182.04 217.754 181.932C217.773 181.824 217.772 181.713 217.748 181.606H217.746Z" fill="black"/>
<path d="M222.283 182.844C222.106 182.667 221.999 182.431 221.983 182.181C221.966 181.931 222.041 181.684 222.194 181.485C222.346 181.286 222.566 181.15 222.812 181.101C223.058 181.053 223.313 181.095 223.53 181.22L231.878 186.039C232.23 186.247 232.621 186.384 233.026 186.44C233.432 186.497 233.844 186.472 234.24 186.368C234.637 186.264 235.008 186.083 235.333 185.835C235.659 185.586 235.932 185.276 236.137 184.921C236.342 184.567 236.474 184.175 236.527 183.769C236.579 183.363 236.551 182.95 236.443 182.555C236.335 182.16 236.15 181.791 235.899 181.468C235.647 181.145 235.334 180.875 234.977 180.673L230.206 177.92C229.618 177.581 229.104 177.13 228.691 176.592C228.278 176.054 227.975 175.44 227.799 174.785C227.445 173.462 227.63 172.052 228.315 170.866C228.999 169.68 230.127 168.814 231.45 168.46C232.772 168.105 234.182 168.291 235.368 168.975L243.715 173.794C243.834 173.861 243.939 173.951 244.023 174.058C244.107 174.166 244.169 174.289 244.205 174.421C244.241 174.553 244.251 174.69 244.233 174.826C244.216 174.961 244.172 175.092 244.104 175.21C244.035 175.329 243.944 175.432 243.836 175.515C243.727 175.598 243.604 175.659 243.471 175.693C243.339 175.728 243.202 175.736 243.066 175.718C242.931 175.699 242.801 175.653 242.683 175.584L234.335 170.765C233.983 170.562 233.594 170.43 233.19 170.377C232.787 170.324 232.377 170.351 231.984 170.456C231.591 170.561 231.223 170.743 230.9 170.991C230.578 171.238 230.307 171.547 230.104 171.899C229.9 172.252 229.768 172.641 229.715 173.044C229.662 173.447 229.689 173.857 229.794 174.25C229.9 174.643 230.081 175.011 230.329 175.334C230.577 175.657 230.885 175.928 231.238 176.131L236.009 178.883C237.196 179.568 238.061 180.696 238.416 182.019C238.771 183.342 238.586 184.751 237.901 185.937C237.216 187.124 236.089 187.99 234.766 188.344C233.443 188.699 232.033 188.514 230.847 187.829L222.499 183.009C222.42 182.964 222.348 182.908 222.284 182.843L222.283 182.844Z" fill="#121F55"/>
<path d="M226.181 189.864C226.021 189.705 225.918 189.497 225.887 189.273C225.857 189.048 225.901 188.82 226.012 188.624L238.405 167.157C238.471 167.037 238.56 166.93 238.668 166.845C238.776 166.759 238.9 166.696 239.032 166.659C239.165 166.622 239.303 166.612 239.44 166.629C239.576 166.646 239.708 166.69 239.827 166.759C239.947 166.828 240.051 166.92 240.134 167.03C240.217 167.139 240.277 167.265 240.312 167.398C240.346 167.531 240.353 167.67 240.333 167.806C240.312 167.942 240.265 168.073 240.193 168.191L227.801 189.657C227.722 189.794 227.612 189.911 227.48 189.999C227.349 190.086 227.199 190.143 227.042 190.164C226.885 190.184 226.725 190.169 226.575 190.118C226.425 190.067 226.289 189.983 226.177 189.871L226.181 189.864Z" fill="#121F55"/>
<path d="M193.577 213.212L186.573 231.957C186.013 233.444 184.886 234.649 183.441 235.308C181.995 235.967 180.347 236.026 178.857 235.474L136.577 219.676C135.09 219.115 133.886 217.989 133.227 216.543C132.568 215.097 132.508 213.45 133.06 211.96L140.065 193.217C140.625 191.73 141.751 190.525 143.197 189.865C144.642 189.206 146.29 189.146 147.78 189.698L190.057 205.492C191.544 206.053 192.749 207.179 193.408 208.625C194.066 210.071 194.126 211.719 193.574 213.208L193.577 213.212Z" fill="white"/>
<path fill-rule="evenodd" clip-rule="evenodd" d="M168.307 207.601C169.292 208.586 169.963 209.842 170.235 211.208C170.507 212.575 170.367 213.992 169.834 215.279C169.301 216.567 168.398 217.667 167.239 218.441C166.081 219.216 164.718 219.629 163.325 219.629C161.931 219.629 160.569 219.216 159.411 218.441C158.252 217.667 157.349 216.567 156.816 215.279C156.282 213.992 156.143 212.575 156.415 211.208C156.686 209.842 157.357 208.586 158.343 207.601C159.665 206.28 161.457 205.538 163.325 205.538C165.193 205.538 166.985 206.28 168.307 207.601Z" fill="#121F55"/>
<path d="M193.577 213.212L192.826 215.222C192.431 215.146 192.043 215.038 191.666 214.897C190.8 214.574 190.005 214.082 189.328 213.452C188.652 212.821 188.106 212.063 187.722 211.221C187.338 210.379 187.124 209.47 187.091 208.545C187.059 207.62 187.209 206.698 187.533 205.832C187.674 205.456 187.846 205.092 188.048 204.744L190.057 205.492C191.544 206.053 192.749 207.179 193.407 208.625C194.066 210.071 194.126 211.719 193.574 213.208L193.577 213.212Z" fill="#121F55"/>
<path d="M187.323 229.952L186.572 231.957C186.012 233.444 184.886 234.649 183.44 235.308C181.994 235.967 180.346 236.026 178.857 235.474L176.846 234.721C177.038 233.713 177.448 232.76 178.047 231.926C178.646 231.093 179.419 230.401 180.313 229.897C181.207 229.393 182.2 229.09 183.223 229.009C184.246 228.928 185.274 229.072 186.236 229.429C186.613 229.57 186.977 229.745 187.323 229.952Z" fill="#121F55"/>
<path d="M149.47 191.607C148.816 193.357 147.494 194.776 145.794 195.551C144.094 196.326 142.155 196.394 140.405 195.741C140.028 195.6 139.664 195.428 139.315 195.226L140.069 193.216C140.629 191.729 141.755 190.524 143.2 189.865C144.646 189.205 146.294 189.145 147.784 189.697L149.789 190.446C149.718 190.842 149.611 191.23 149.47 191.607Z" fill="#121F55"/>
<path d="M139.106 219.341C138.966 219.718 138.792 220.081 138.586 220.426L136.58 219.677C135.094 219.116 133.89 217.99 133.231 216.544C132.572 215.099 132.512 213.451 133.064 211.961L133.814 209.956C134.21 210.027 134.598 210.134 134.975 210.275C135.842 210.599 136.636 211.09 137.313 211.721C137.99 212.352 138.536 213.11 138.92 213.952C139.304 214.793 139.518 215.703 139.551 216.628C139.583 217.552 139.433 218.474 139.108 219.341H139.106Z" fill="#121F55"/>
<path fill-rule="evenodd" clip-rule="evenodd" d="M167.258 230.251L136.872 218.897C135.592 218.414 134.554 217.444 133.987 216.199C133.419 214.954 133.367 213.535 133.842 212.252L137.504 202.44C137.562 202.239 137.542 202.024 137.447 201.837C137.353 201.65 137.192 201.505 136.996 201.432C136.8 201.358 136.584 201.362 136.39 201.44C136.197 201.519 136.04 201.668 135.951 201.858L132.289 211.669C131.66 213.366 131.729 215.242 132.479 216.889C133.23 218.535 134.601 219.818 136.294 220.456L166.68 231.811C166.782 231.85 166.891 231.867 167.001 231.864C167.11 231.86 167.217 231.834 167.317 231.789C167.416 231.744 167.506 231.679 167.581 231.599C167.655 231.519 167.713 231.425 167.751 231.323C167.79 231.22 167.807 231.111 167.803 231.002C167.8 230.893 167.774 230.785 167.729 230.686C167.683 230.586 167.619 230.497 167.539 230.422C167.459 230.347 167.365 230.289 167.263 230.251H167.258Z" fill="black"/>
<path fill-rule="evenodd" clip-rule="evenodd" d="M143.158 190.819C143.812 190.449 144.539 190.227 145.288 190.168C146.037 190.109 146.79 190.214 147.494 190.476L189.774 206.276C191.055 206.758 192.092 207.728 192.659 208.974C193.227 210.219 193.278 211.638 192.803 212.921L185.798 231.665C185.557 232.309 185.189 232.899 184.716 233.399C184.243 233.899 183.674 234.298 183.044 234.575C182.845 234.666 182.69 234.832 182.612 235.036C182.534 235.241 182.54 235.468 182.629 235.668C182.717 235.868 182.881 236.026 183.084 236.106C183.288 236.186 183.515 236.183 183.716 236.097C184.55 235.732 185.301 235.202 185.927 234.541C186.552 233.88 187.039 233.1 187.357 232.248L194.361 213.504C194.989 211.807 194.921 209.931 194.171 208.284C193.42 206.638 192.049 205.356 190.356 204.718L148.075 188.918C147.145 188.57 146.151 188.43 145.16 188.506C144.17 188.583 143.209 188.875 142.344 189.362C142.248 189.415 142.164 189.487 142.097 189.573C142.029 189.658 141.979 189.757 141.949 189.862C141.92 189.967 141.911 190.077 141.924 190.186C141.937 190.294 141.971 190.399 142.024 190.495C142.078 190.59 142.149 190.674 142.235 190.742C142.321 190.809 142.419 190.86 142.524 190.889C142.63 190.919 142.74 190.928 142.848 190.915C142.957 190.902 143.062 190.868 143.157 190.814L143.158 190.819Z" fill="black"/>
<path d="M196.255 67.3392L204.557 85.5461C205.212 86.9938 205.268 88.6423 204.711 90.1309C204.155 91.6195 203.031 92.8272 201.587 93.4898L160.527 112.215C159.079 112.87 157.431 112.925 155.943 112.368C154.455 111.812 153.247 110.689 152.584 109.245L144.284 91.0372C143.629 89.5897 143.573 87.9416 144.129 86.4532C144.685 84.9647 145.808 83.7568 147.252 83.0935L188.317 64.3695C189.764 63.7146 191.412 63.6594 192.9 64.2159C194.388 64.7724 195.595 65.8953 196.258 67.3392H196.255Z" fill="white"/>
<path d="M174.417 95.3365C178.308 95.3365 181.462 92.1819 181.462 88.2906C181.462 84.3992 178.308 81.2446 174.417 81.2446C170.526 81.2446 167.371 84.3992 167.371 88.2906C167.371 92.1819 170.526 95.3365 174.417 95.3365Z" fill="#2D4BAA"/>
<path d="M196.255 67.3392L197.143 69.2913C196.81 69.517 196.46 69.7145 196.094 69.8817C194.394 70.6567 192.456 70.7247 190.706 70.0708C188.956 69.417 187.537 68.0947 186.761 66.3948C186.595 66.0287 186.459 65.6493 186.356 65.2606L188.31 64.3728C189.757 63.7175 191.405 63.662 192.893 64.2182C194.381 64.7745 195.589 65.8974 196.252 67.3414L196.255 67.3392Z" fill="#2D4BAA"/>
<path d="M203.668 83.5984L204.556 85.5461C205.212 86.9938 205.267 88.6423 204.711 90.1309C204.154 91.6195 203.031 92.8272 201.587 93.4898L199.632 94.3776C199.055 93.5289 198.671 92.5645 198.505 91.5518C198.339 90.539 198.396 89.5023 198.672 88.5139C198.948 87.5255 199.436 86.6091 200.103 85.8288C200.769 85.0485 201.598 84.4229 202.531 83.9957C202.897 83.8295 203.278 83.6966 203.668 83.5984Z" fill="#2D4BAA"/>
<path d="M149.79 83.2511C150.174 84.093 150.388 85.0023 150.421 85.927C150.453 86.8518 150.303 87.7739 149.979 88.6406C149.655 89.5074 149.164 90.3019 148.533 90.9787C147.902 91.6556 147.144 92.2015 146.302 92.5854C145.936 92.7523 145.557 92.8881 145.168 92.9915L144.28 91.0372C143.625 89.5897 143.569 87.9416 144.125 86.4532C144.681 84.9647 145.804 83.7568 147.248 83.0935L149.195 82.2057C149.425 82.5359 149.624 82.8862 149.791 83.2522L149.79 83.2511Z" fill="#2D4BAA"/>
<path d="M162.072 110.191C162.239 110.557 162.373 110.938 162.472 111.328L160.524 112.216C159.076 112.871 157.428 112.926 155.939 112.369C154.451 111.813 153.243 110.69 152.58 109.246L151.692 107.298C152.022 107.068 152.372 106.869 152.738 106.703C153.58 106.318 154.489 106.104 155.414 106.071C156.338 106.038 157.261 106.188 158.128 106.512C158.994 106.836 159.789 107.328 160.466 107.959C161.142 108.59 161.688 109.349 162.072 110.191Z" fill="#2D4BAA"/>
<path fill-rule="evenodd" clip-rule="evenodd" d="M189.692 97.9988L160.173 111.457C158.927 112.021 157.508 112.069 156.226 111.591C154.945 111.113 153.904 110.147 153.332 108.905L148.997 99.3694C148.905 99.1678 148.737 99.011 148.529 98.9336C148.321 98.8562 148.091 98.8644 147.89 98.9566C147.688 99.0487 147.531 99.2171 147.454 99.4248C147.377 99.6325 147.385 99.8625 147.477 100.064L151.822 109.595C152.578 111.239 153.954 112.518 155.65 113.15C157.346 113.783 159.223 113.719 160.871 112.972L190.39 99.5137C190.591 99.4221 190.747 99.2545 190.824 99.0478C190.902 98.841 190.894 98.612 190.802 98.4111C190.711 98.2102 190.543 98.0539 190.336 97.9766C190.13 97.8993 189.901 97.9073 189.7 97.9988H189.692Z" fill="black"/>
<path fill-rule="evenodd" clip-rule="evenodd" d="M144.769 87.1575C144.971 86.4339 145.328 85.7631 145.815 85.1919C146.303 84.6207 146.91 84.1628 147.593 83.8504L188.658 65.1274C189.904 64.563 191.322 64.5147 192.604 64.993C193.885 65.4712 194.925 66.4372 195.497 67.6799L203.799 85.8868C204.084 86.5132 204.241 87.1905 204.26 87.8787C204.279 88.5668 204.16 89.2518 203.91 89.893C203.87 89.9951 203.851 90.1038 203.854 90.2132C203.857 90.3225 203.881 90.4303 203.925 90.5303C203.969 90.6303 204.033 90.7206 204.112 90.7961C204.191 90.8715 204.284 90.9307 204.386 90.9701C204.488 91.0095 204.597 91.0284 204.707 91.0258C204.816 91.0232 204.924 90.9991 205.024 90.9548C205.124 90.9106 205.214 90.847 205.289 90.7679C205.365 90.6887 205.424 90.5954 205.463 90.4934C205.794 89.6455 205.951 88.7398 205.926 87.83C205.901 86.9202 205.693 86.0248 205.316 85.1965L197.012 66.993C196.257 65.3487 194.882 64.0701 193.187 63.4365C191.492 62.8029 189.616 62.8658 187.968 63.6115L146.902 82.3355C145.999 82.7482 145.197 83.3531 144.552 84.1079C143.907 84.8628 143.434 85.7494 143.167 86.7058C143.107 86.9183 143.134 87.1459 143.242 87.3385C143.35 87.5311 143.53 87.673 143.742 87.7329C143.955 87.7928 144.182 87.7658 144.375 87.6579C144.568 87.55 144.71 87.37 144.769 87.1575Z" fill="black"/>
<path d="M375.168 195.238C375.166 195.973 374.873 196.678 374.353 197.197C373.833 197.717 373.129 198.01 372.394 198.012H301.807C301.071 198.01 300.367 197.717 299.847 197.197C299.327 196.678 299.034 195.973 299.032 195.238V154.356C299.034 153.621 299.327 152.917 299.847 152.397C300.367 151.877 301.071 151.584 301.807 151.582H372.395C373.13 151.584 373.834 151.877 374.354 152.397C374.874 152.917 375.167 153.621 375.169 154.356V195.238H375.168Z" fill="white"/>
<path fill-rule="evenodd" clip-rule="evenodd" d="M316.6 152.414H372.394C372.909 152.416 373.402 152.621 373.766 152.985C374.13 153.348 374.335 153.842 374.336 154.356V178.404C374.336 178.625 374.424 178.836 374.58 178.992C374.736 179.148 374.948 179.236 375.169 179.236C375.389 179.236 375.601 179.148 375.757 178.992C375.913 178.836 376.001 178.625 376.001 178.404V154.356C375.998 153.401 375.617 152.485 374.941 151.809C374.266 151.133 373.35 150.752 372.394 150.749H316.6C316.379 150.749 316.167 150.837 316.011 150.993C315.855 151.149 315.768 151.361 315.768 151.582C315.768 151.803 315.855 152.014 316.011 152.17C316.167 152.326 316.379 152.414 316.6 152.414Z" fill="black"/>
<path fill-rule="evenodd" clip-rule="evenodd" d="M372.393 197.18H301.806C301.291 197.179 300.798 196.973 300.434 196.61C300.07 196.246 299.865 195.753 299.864 195.238V154.356C299.864 154.135 299.776 153.924 299.62 153.768C299.464 153.612 299.252 153.524 299.032 153.524C298.811 153.524 298.599 153.612 298.443 153.768C298.287 153.924 298.199 154.135 298.199 154.356V195.238C298.202 196.194 298.583 197.109 299.259 197.785C299.935 198.461 300.85 198.842 301.806 198.845H372.394C372.615 198.845 372.827 198.757 372.983 198.601C373.139 198.445 373.226 198.233 373.226 198.012C373.226 197.792 373.139 197.58 372.983 197.424C372.827 197.268 372.615 197.18 372.394 197.18H372.393Z" fill="black"/>
<path d="M315.432 184.029H305.612V192.355H315.432V184.029Z" fill="#2D4BAA"/>
<path d="M333.149 177.2H323.329V192.356H333.149V177.2Z" fill="#2D4BAA"/>
<path d="M350.869 167.807H341.048V192.356H350.869V167.807Z" fill="#121F55"/>
<path d="M368.585 158.627H358.765V192.355H368.585V158.627Z" fill="#2D4BAA"/>
</g>
<defs>
<linearGradient id="paint0_linear_138_9725" x1="195.342" y1="299.25" x2="195.667" y2="254.765" gradientUnits="userSpaceOnUse">
<stop stop-color="white" stop-opacity="0"/>
<stop offset="1" stop-color="#82A9FF" stop-opacity="0.21"/>
</linearGradient>
<clipPath id="clip0_138_9725">
<rect width="331" height="193" fill="white" transform="translate(45 63)"/>
</clipPath>
</defs>
</svg>
