<svg width="423" height="310" viewBox="0 0 423 310" fill="none" xmlns="http://www.w3.org/2000/svg">
<g clip-path="url(#clip0_138_10659)">
<g clip-path="url(#clip1_138_10659)">
<path fill-rule="evenodd" clip-rule="evenodd" d="M168.268 218.101C198.725 201.812 231.988 207.071 267.725 225.307C301.639 240.933 326.127 228.188 344.826 194.466C370.685 140.708 329.975 88.097 234.603 42.2661C156.127 3.98654 101.326 17.9034 59.7912 66.74C-9.57277 151.865 75.5708 266.823 168.268 218.101Z" fill="url(#paint0_linear_138_10659)"/>
<path fill-rule="evenodd" clip-rule="evenodd" d="M195.494 252.748C177.258 257.914 145.823 260.041 105.76 260.408C68.5804 261.012 53.7429 265.112 54.4029 271.9C58.8761 282.374 120.426 286.811 225.926 285.399C313.02 284.325 353.524 277.377 365.086 266.273C382.612 247.186 251.421 237.156 195.494 252.748Z" fill="url(#paint1_linear_138_10659)"/>
<g clip-path="url(#clip2_138_10659)">
<path fill-rule="evenodd" clip-rule="evenodd" d="M25.8956 230.734C38.3125 225.58 50.7737 228.014 53.7396 236.173C56.7055 244.332 49.0252 255.101 36.6082 260.255C24.2135 265.388 11.7523 262.953 8.78637 254.816C5.82048 246.657 13.4787 235.888 25.8956 230.734Z" fill="#E8F2FB"/>
</g>
</g>
<g clip-path="url(#clip3_138_10659)">
<path d="M386.607 144.287L353.214 110.928H307.928C307.673 110.928 307.421 110.98 307.186 111.079C306.952 111.179 306.74 111.324 306.562 111.507C306.385 111.69 306.247 111.907 306.155 112.144C306.064 112.382 306.021 112.635 306.029 112.89C307.063 138.033 327.796 158.103 353.212 158.103C359.414 158.111 365.557 156.895 371.288 154.523C377.019 152.152 382.224 148.674 386.605 144.287H386.607Z" fill="white"/>
<path d="M400.438 110.931C400.438 85.5307 380.35 64.825 355.18 63.7951C354.926 63.7867 354.672 63.8294 354.435 63.9208C354.198 64.0121 353.982 64.1501 353.799 64.3267C353.617 64.5032 353.472 64.7147 353.373 64.9484C353.274 65.1822 353.223 65.4335 353.223 65.6873C353.223 74.5505 353.223 110.931 353.223 110.931L386.613 144.288C391.003 139.912 394.485 134.712 396.859 128.987C399.232 123.262 400.45 117.126 400.443 110.929L400.438 110.931Z" fill="#2D4BAA"/>
<path fill-rule="evenodd" clip-rule="evenodd" d="M372.068 66.5524C366.727 64.2872 361.019 63.0073 355.221 62.7747C354.83 62.7604 354.439 62.8253 354.073 62.9653C353.706 63.1053 353.372 63.3177 353.09 63.5897C352.808 63.8617 352.583 64.1878 352.43 64.5485C352.277 64.9091 352.198 65.2969 352.198 65.6887C352.198 69.5345 352.198 78.5611 352.198 87.5496C352.198 87.8206 352.306 88.0805 352.498 88.2721C352.69 88.4637 352.95 88.5713 353.221 88.5713C353.492 88.5713 353.752 88.4637 353.944 88.2721C354.136 88.0805 354.244 87.8206 354.244 87.5496C354.244 78.5584 354.244 69.5345 354.244 65.6887C354.243 65.5713 354.267 65.4551 354.313 65.3471C354.359 65.239 354.426 65.1413 354.51 65.0599C354.595 64.9785 354.695 64.9149 354.805 64.8732C354.915 64.8314 355.032 64.8122 355.149 64.8168C360.697 65.04 366.158 66.2649 371.269 68.4324C371.519 68.5382 371.8 68.5407 372.052 68.4391C372.303 68.3376 372.504 68.1404 372.61 67.8909C372.716 67.6414 372.718 67.3601 372.617 67.1088C372.515 66.8575 372.318 66.6569 372.068 66.551V66.5524Z" fill="black"/>
<path fill-rule="evenodd" clip-rule="evenodd" d="M352.194 101.806V110.934C352.194 111.205 352.302 111.464 352.494 111.656C352.686 111.848 352.946 111.955 353.217 111.955C353.488 111.955 353.748 111.848 353.94 111.656C354.132 111.464 354.24 111.205 354.24 110.934V101.806C354.24 101.535 354.132 101.275 353.94 101.084C353.748 100.892 353.488 100.784 353.217 100.784C352.946 100.784 352.686 100.892 352.494 101.084C352.302 101.275 352.194 101.535 352.194 101.806Z" fill="#2D2E85"/>
<path fill-rule="evenodd" clip-rule="evenodd" d="M386.599 142.836C394.837 134.255 399.431 122.821 399.417 110.931C399.417 110.66 399.525 110.4 399.717 110.208C399.909 110.017 400.169 109.909 400.44 109.909C400.711 109.909 400.972 110.017 401.163 110.208C401.355 110.4 401.463 110.66 401.463 110.931C401.47 117.261 400.225 123.531 397.8 129.379C395.376 135.228 391.818 140.54 387.333 145.012C387.238 145.107 387.125 145.182 387.001 145.233C386.877 145.285 386.744 145.311 386.609 145.311C386.475 145.311 386.342 145.285 386.218 145.233C386.094 145.182 385.981 145.107 385.886 145.012L352.493 111.653C352.301 111.461 352.193 111.201 352.193 110.93C352.193 110.659 352.301 110.399 352.493 110.207C352.685 110.016 352.945 109.908 353.216 109.908C353.488 109.908 353.748 110.016 353.94 110.207L386.598 142.835L386.599 142.836Z" fill="black"/>
<path d="M344.667 104.29C344.916 104.29 345.163 104.241 345.394 104.145C345.624 104.05 345.834 103.91 346.01 103.734C346.186 103.558 346.326 103.348 346.422 103.118C346.517 102.888 346.566 102.641 346.566 102.392V59.042C346.567 58.7875 346.516 58.5354 346.416 58.301C346.317 58.0666 346.171 57.8545 345.988 57.6775C345.805 57.5005 345.588 57.3622 345.35 57.2708C345.113 57.1795 344.859 57.1369 344.604 57.1457C320.086 58.1511 300.388 77.8255 299.387 102.324C299.378 102.577 299.421 102.83 299.512 103.067C299.603 103.304 299.741 103.52 299.918 103.702C300.094 103.884 300.305 104.029 300.539 104.129C300.773 104.228 301.024 104.279 301.278 104.279C308.932 104.29 337.075 104.29 344.667 104.29Z" fill="#72D8ED"/>
<path fill-rule="evenodd" clip-rule="evenodd" d="M346.699 56.9454C346.417 56.6736 346.084 56.4612 345.718 56.3207C345.352 56.1803 344.962 56.1148 344.57 56.128C337.974 56.3956 331.504 58.0153 325.561 60.8867C319.618 63.758 314.329 67.8196 310.024 72.819C309.847 73.0242 309.758 73.2914 309.778 73.5617C309.798 73.832 309.925 74.0833 310.13 74.2603C310.336 74.4374 310.603 74.5256 310.874 74.5057C311.144 74.4858 311.396 74.3593 311.573 74.1541C315.694 69.3671 320.757 65.4779 326.447 62.7282C332.137 59.9785 338.332 58.427 344.647 58.1701C344.763 58.1669 344.879 58.1871 344.988 58.2294C345.097 58.2718 345.196 58.3355 345.28 58.4167C345.475 58.6048 345.737 58.7076 346.008 58.7027C346.279 58.6977 346.537 58.5853 346.726 58.3902C346.914 58.1951 347.017 57.9332 347.012 57.6623C347.007 57.3914 346.894 57.1335 346.699 56.9454Z" fill="black"/>
<path fill-rule="evenodd" clip-rule="evenodd" d="M304.113 81.3838C300.624 87.8229 298.658 94.975 298.366 102.291C298.352 102.682 298.417 103.072 298.557 103.438C298.697 103.803 298.91 104.137 299.182 104.418C299.454 104.7 299.78 104.924 300.14 105.077C300.501 105.23 300.889 105.309 301.28 105.309C308.933 105.309 337.076 105.309 344.669 105.309C345.444 105.309 346.187 105.001 346.735 104.454C347.283 103.907 347.591 103.165 347.591 102.391V80.655C347.591 80.384 347.483 80.1241 347.292 79.9325C347.1 79.7409 346.84 79.6333 346.568 79.6333C346.297 79.6333 346.037 79.7409 345.845 79.9325C345.653 80.1241 345.546 80.384 345.546 80.655V102.392C345.545 102.624 345.453 102.846 345.288 103.01C345.124 103.174 344.901 103.267 344.669 103.267C337.076 103.267 308.941 103.267 301.28 103.267C301.164 103.266 301.048 103.243 300.941 103.197C300.834 103.152 300.737 103.086 300.656 103.002C300.575 102.918 300.511 102.819 300.469 102.711C300.427 102.602 300.407 102.487 300.41 102.37C300.69 95.3651 302.572 88.517 305.911 82.3511C305.977 82.2329 306.019 82.1028 306.035 81.9683C306.05 81.8338 306.039 81.6976 306.001 81.5676C305.963 81.4375 305.9 81.3163 305.815 81.2109C305.73 81.1055 305.625 81.018 305.506 80.9536C305.386 80.8891 305.256 80.849 305.121 80.8355C304.986 80.822 304.85 80.8354 304.72 80.8749C304.591 80.9144 304.47 80.9793 304.366 81.0657C304.261 81.1522 304.175 81.2584 304.113 81.3784V81.3838Z" fill="black"/>
<path fill-rule="evenodd" clip-rule="evenodd" d="M352.79 111.95H330.504C330.233 111.95 329.973 111.842 329.781 111.651C329.589 111.459 329.481 111.199 329.481 110.928C329.481 110.657 329.589 110.397 329.781 110.206C329.973 110.014 330.233 109.906 330.504 109.906H353.214C353.485 109.907 353.745 110.015 353.937 110.206L387.33 143.564C387.522 143.755 387.63 144.015 387.63 144.286C387.63 144.557 387.522 144.817 387.33 145.009C387.138 145.201 386.878 145.308 386.607 145.308C386.335 145.308 386.075 145.201 385.883 145.009L352.79 111.95Z" fill="black"/>
<path fill-rule="evenodd" clip-rule="evenodd" d="M305.828 110.797C305.555 111.079 305.343 111.412 305.202 111.777C305.061 112.143 304.996 112.533 305.01 112.924C306.066 138.618 327.248 159.125 353.216 159.125C359.095 159.131 364.926 158.062 370.42 155.97C370.662 155.866 370.855 155.672 370.958 155.429C371.061 155.186 371.065 154.913 370.971 154.667C370.877 154.42 370.691 154.22 370.452 154.107C370.213 153.995 369.94 153.979 369.69 154.063C364.429 156.066 358.845 157.09 353.215 157.084C328.347 157.084 308.064 137.448 307.052 112.852C307.049 112.736 307.069 112.62 307.111 112.512C307.153 112.404 307.217 112.306 307.298 112.222C307.392 112.126 307.467 112.012 307.518 111.887C307.568 111.762 307.593 111.628 307.592 111.494C307.59 111.359 307.562 111.226 307.508 111.102C307.455 110.978 307.378 110.866 307.281 110.772C307.184 110.678 307.069 110.604 306.944 110.555C306.818 110.505 306.684 110.481 306.549 110.484C306.414 110.487 306.281 110.516 306.157 110.57C306.034 110.624 305.922 110.703 305.829 110.8L305.828 110.797Z" fill="black"/>
<path d="M320.23 247.249C320.225 248.953 319.544 250.587 318.338 251.793C317.131 252.998 315.496 253.678 313.789 253.683H172.462C170.755 253.678 169.12 252.998 167.913 251.793C166.707 250.587 166.027 248.953 166.021 247.249V67.2744C166.027 65.5698 166.707 63.9365 167.914 62.7312C169.121 61.526 170.756 60.8467 172.462 60.8416H313.785C315.492 60.8456 317.128 61.5244 318.336 62.7298C319.543 63.9352 320.224 65.5691 320.23 67.2744V247.249Z" fill="#2D4BAA"/>
<path d="M311.355 247.249C311.35 248.953 310.67 250.587 309.463 251.793C308.256 252.998 306.621 253.678 304.914 253.683H172.462C170.755 253.678 169.12 252.998 167.913 251.793C166.707 250.587 166.027 248.953 166.021 247.249V72.5738C166.027 70.8689 166.707 69.2353 167.913 68.0297C169.12 66.8242 170.755 66.1447 172.462 66.1396H304.914C306.621 66.1447 308.256 66.8242 309.463 68.0297C310.67 69.2353 311.35 70.8689 311.355 72.5738V247.249Z" fill="white"/>
<path d="M314.034 248.96C314.034 252.566 311.147 255.263 307.618 254.954L172.44 254.218C168.911 253.91 166.022 250.709 166.022 247.103V63.7365C166.022 60.1319 168.911 57.4345 172.44 57.7424L290.874 57.0176C294.403 57.3255 297.291 60.5269 297.291 64.133V144.961C297.291 148.566 299.005 153.894 301.101 156.801L310.227 169.46C312.323 172.365 314.037 177.695 314.037 181.299V248.954L314.034 248.96Z" fill="#B2BFEB"/>
<path d="M75.784 219.951C98.1262 219.951 116.238 201.857 116.238 179.537C116.238 157.216 98.1262 139.122 75.784 139.122C53.4419 139.122 35.3301 157.216 35.3301 179.537C35.3301 201.857 53.4419 219.951 75.784 219.951Z" fill="#2D4BAA"/>
<path fill-rule="evenodd" clip-rule="evenodd" d="M117.26 179.537C117.26 156.668 98.6749 138.101 75.7834 138.101C57.9973 138.101 42.8104 149.31 36.9194 165.035C36.8723 165.161 36.8505 165.294 36.8551 165.428C36.8597 165.562 36.8908 165.694 36.9464 165.816C37.0021 165.939 37.0812 166.049 37.1794 166.14C37.2777 166.232 37.3929 166.303 37.5187 166.35C37.6445 166.397 37.7784 166.419 37.9126 166.414C38.0469 166.41 38.1789 166.379 38.3012 166.323C38.4234 166.268 38.5335 166.188 38.6252 166.09C38.7168 165.992 38.7883 165.877 38.8354 165.751C44.4331 150.8 58.8714 140.14 75.7807 140.14C97.5431 140.14 115.212 157.791 115.212 179.532C115.212 179.803 115.32 180.063 115.511 180.255C115.703 180.447 115.963 180.554 116.235 180.554C116.506 180.554 116.766 180.447 116.958 180.255C117.15 180.063 117.257 179.803 117.257 179.532L117.26 179.537Z" fill="black"/>
<path fill-rule="evenodd" clip-rule="evenodd" d="M37.1521 194.636C43.1985 210.048 58.2246 220.972 75.7842 220.972C79.4689 220.976 83.1375 220.489 86.6934 219.524C86.9553 219.453 87.1781 219.281 87.3129 219.046C87.4476 218.81 87.4833 218.531 87.4121 218.27C87.3408 218.008 87.1685 217.785 86.9329 217.651C86.6974 217.516 86.418 217.48 86.1562 217.552C82.7781 218.468 79.2929 218.931 75.7924 218.929C59.0987 218.929 44.8131 208.543 39.0653 193.891C38.9664 193.638 38.771 193.435 38.522 193.326C38.2731 193.217 37.991 193.211 37.7378 193.31C37.4846 193.409 37.2811 193.604 37.1721 193.853C37.063 194.102 37.0573 194.383 37.1562 194.636H37.1521Z" fill="black"/>
<path d="M75.7849 212.571C94.0473 212.571 108.852 197.781 108.852 179.537C108.852 161.292 94.0473 146.502 75.7849 146.502C57.5224 146.502 42.7178 161.292 42.7178 179.537C42.7178 197.781 57.5224 212.571 75.7849 212.571Z" fill="white"/>
<path d="M75.7849 205.189C89.9662 205.189 101.462 193.704 101.462 179.537C101.462 165.369 89.9662 153.884 75.7849 153.884C61.6036 153.884 50.1074 165.369 50.1074 179.537C50.1074 193.704 61.6036 205.189 75.7849 205.189Z" fill="#B2BFEB"/>
<path d="M75.7847 197.809C85.8864 197.809 94.0753 189.628 94.0753 179.537C94.0753 169.445 85.8864 161.264 75.7847 161.264C65.6831 161.264 57.4941 169.445 57.4941 179.537C57.4941 189.628 65.6831 197.809 75.7847 197.809Z" fill="white"/>
<path d="M86.6868 179.537C86.6865 181.69 86.0471 183.795 84.8495 185.586C83.6519 187.376 81.9498 188.772 79.9583 189.596C77.9669 190.42 75.7755 190.636 73.6613 190.217C71.547 189.797 69.6047 188.76 68.08 187.238C66.5553 185.716 65.5166 183.776 65.0951 181.664C64.6737 179.552 64.8885 177.363 65.7123 175.373C66.5362 173.383 67.9321 171.682 69.7237 170.484C71.5152 169.287 73.622 168.647 75.7776 168.645C77.2099 168.644 78.6284 168.925 79.952 169.472C81.2756 170.019 82.4784 170.821 83.4915 171.832C84.5047 172.844 85.3083 174.045 85.8566 175.367C86.4048 176.689 86.6869 178.106 86.6868 179.537Z" fill="#2D4BAA"/>
<path d="M79.2987 179.537C79.2982 180.231 79.0917 180.909 78.7053 181.486C78.3189 182.063 77.7699 182.513 77.1278 182.778C76.4858 183.043 75.7793 183.112 75.0979 182.977C74.4164 182.841 73.7905 182.507 73.2993 182.016C72.808 181.525 72.4735 180.899 72.338 180.219C72.2025 179.538 72.272 178.832 72.5379 178.191C72.8037 177.549 73.2539 177.001 73.8316 176.615C74.4092 176.229 75.0884 176.023 75.7833 176.023C76.245 176.023 76.7023 176.114 77.1289 176.291C77.5555 176.467 77.9431 176.726 78.2696 177.052C78.596 177.379 78.8549 177.766 79.0315 178.192C79.2081 178.618 79.2989 179.075 79.2987 179.537Z" fill="white"/>
<path d="M75.7859 178.471H22.665V180.794H75.7859V178.471Z" fill="black"/>
<path d="M22.6667 178.471L17.8026 171.984C17.163 171.132 17.5121 170.432 18.5785 170.432H30.6945C31.7622 170.432 33.1572 171.132 33.7954 171.984L38.6596 178.471H22.6667Z" fill="#B2BFEB"/>
<path fill-rule="evenodd" clip-rule="evenodd" d="M18.6761 171.455C18.8153 171.68 18.8621 171.949 18.8067 172.207C18.7514 172.466 18.5981 172.692 18.3792 172.84C18.1602 172.988 17.8925 173.045 17.6321 173C17.3718 172.955 17.1389 172.811 16.9825 172.598C16.3607 171.767 16.3607 170.983 16.6361 170.434C16.9116 169.885 17.5375 169.412 18.578 169.412H30.6953C32.044 169.412 33.8072 170.296 34.6131 171.374L39.4772 177.861C39.64 178.078 39.7098 178.35 39.6715 178.618C39.6331 178.887 39.4897 179.129 39.2727 179.291C39.0557 179.454 38.7829 179.524 38.5144 179.485C38.2459 179.447 38.0036 179.304 37.8408 179.087L32.9753 172.6C32.5063 171.972 31.4753 171.457 30.6953 171.457H18.6761V171.455Z" fill="black"/>
<path d="M22.6667 180.795L17.8026 187.283C17.163 188.135 17.5121 188.833 18.5785 188.833H30.6945C31.7622 188.833 33.1572 188.134 33.7954 187.283L38.6596 180.795H22.6667Z" fill="#B2BFEB"/>
<path fill-rule="evenodd" clip-rule="evenodd" d="M18.6822 187.811H30.6945C31.48 187.811 32.5068 187.298 32.9759 186.67C33.0565 186.562 33.1575 186.472 33.273 186.403C33.3886 186.335 33.5165 186.29 33.6495 186.271C33.7824 186.252 33.9178 186.26 34.0479 186.293C34.1781 186.326 34.3003 186.385 34.4078 186.465C34.5152 186.546 34.6057 186.647 34.6742 186.762C34.7426 186.877 34.7876 187.005 34.8066 187.138C34.8256 187.271 34.8182 187.406 34.7849 187.536C34.7515 187.666 34.6929 187.788 34.6123 187.896C33.8064 188.975 32.0418 189.857 30.6932 189.857H18.5785C17.5381 189.857 16.9108 189.386 16.6367 188.837C16.3626 188.288 16.364 187.505 16.9831 186.672L21.8472 180.185C22.0099 179.968 22.2522 179.825 22.5208 179.787C22.7893 179.748 23.062 179.818 23.279 179.981C23.496 180.143 23.6395 180.385 23.6778 180.654C23.7162 180.922 23.6463 181.194 23.4836 181.411L18.6822 187.814V187.811Z" fill="black"/>
<path fill-rule="evenodd" clip-rule="evenodd" d="M172.474 56.7261L290.867 56H290.962C295.001 56.3528 298.313 60.0079 298.313 64.133V88.2648C298.313 88.5358 298.205 88.7957 298.013 88.9873C297.822 89.1789 297.561 89.2866 297.29 89.2866C297.019 89.2866 296.759 89.1789 296.567 88.9873C296.375 88.7957 296.267 88.5358 296.267 88.2648V64.1371C296.267 61.0664 293.828 58.3295 290.825 58.0448L172.447 58.7696H172.351C169.428 58.5148 167.047 60.7613 167.047 63.7474V247.114C167.047 250.187 169.489 252.925 172.493 253.207L307.624 253.943H307.708C310.632 254.198 313.013 251.953 313.013 248.965V181.305C313.013 177.881 311.386 172.822 309.397 170.062L300.27 157.4C299.259 155.999 298.327 154.063 297.619 152.01C297.538 151.755 297.559 151.479 297.679 151.241C297.799 151.002 298.008 150.82 298.26 150.733C298.513 150.646 298.79 150.661 299.031 150.776C299.273 150.89 299.46 151.095 299.552 151.345C300.189 153.195 301.018 154.943 301.929 156.207L311.055 168.864C313.256 171.917 315.057 177.515 315.057 181.302V248.957C315.057 253.164 311.69 256.305 307.578 255.974L172.433 255.237H172.35C168.312 254.886 165 251.231 165 247.106V63.7393C165 59.5338 168.363 56.3937 172.473 56.722L172.474 56.7261Z" fill="black"/>
<path d="M243.106 248.366C243.101 250.006 242.447 251.577 241.286 252.737C240.125 253.896 238.552 254.55 236.911 254.555H111.98C110.339 254.55 108.766 253.896 107.605 252.736C106.444 251.577 105.79 250.005 105.785 248.366V73.0642C105.79 71.4244 106.444 69.8531 107.605 68.6935C108.766 67.534 110.339 66.8803 111.98 66.8753H236.911C238.552 66.8803 240.125 67.534 241.286 68.6935C242.446 69.8531 243.101 71.4244 243.106 73.0642V248.364V248.366Z" fill="white"/>
<path d="M105.785 86.4421H111.079C112.483 86.446 113.828 87.0054 114.82 87.9978C115.812 88.9902 116.37 90.3348 116.373 91.7374V233.462C116.369 234.863 115.81 236.206 114.818 237.197C113.826 238.188 112.482 238.747 111.079 238.75H105.785V86.4448V86.4421Z" fill="#2D4BAA"/>
<path fill-rule="evenodd" clip-rule="evenodd" d="M244.128 248.366V73.0642C244.122 71.1536 243.36 69.3229 242.007 67.9719C240.655 66.6208 238.823 65.8593 236.91 65.8535H111.979C110.067 65.8593 108.234 66.6208 106.882 67.9719C105.53 69.3229 104.767 71.1536 104.762 73.0642V248.366C104.767 250.276 105.53 252.107 106.882 253.458C108.234 254.809 110.067 255.571 111.979 255.576H236.91C238.823 255.571 240.655 254.809 242.007 253.458C243.36 252.107 244.122 250.276 244.128 248.366ZM242.082 248.366C242.08 249.735 241.534 251.048 240.565 252.017C239.595 252.985 238.281 253.53 236.91 253.533H111.979C110.608 253.53 109.294 252.985 108.325 252.017C107.355 251.048 106.81 249.735 106.807 248.366V73.0642C106.81 71.6946 107.355 70.3817 108.325 69.4132C109.294 68.4447 110.608 67.8995 111.979 67.897H236.91C238.281 67.8995 239.595 68.4447 240.565 69.4132C241.534 70.3817 242.08 71.6946 242.082 73.0642V248.364V248.366Z" fill="black"/>
<path d="M209.775 122.163H143.604V124.807H209.775V122.163Z" fill="#2D4BAA"/>
<path d="M209.775 130.624H143.604V133.269H209.775V130.624Z" fill="#2D4BAA"/>
<path d="M209.775 139.086H143.604V141.73H209.775V139.086Z" fill="#2D4BAA"/>
<path d="M209.775 147.547H143.604V150.191H209.775V147.547Z" fill="#2D4BAA"/>
<path d="M373.178 231.374C373.176 232.078 372.895 232.754 372.396 233.252C371.897 233.75 371.221 234.031 370.515 234.033H289.358C288.652 234.031 287.976 233.75 287.477 233.252C286.978 232.754 286.696 232.078 286.694 231.374V184.002C286.696 183.297 286.978 182.622 287.477 182.124C287.976 181.625 288.652 181.345 289.358 181.343H370.515C371.221 181.345 371.897 181.626 372.396 182.124C372.895 182.623 373.176 183.298 373.178 184.004V231.374Z" fill="white"/>
<path fill-rule="evenodd" clip-rule="evenodd" d="M303.231 233.008H289.358C288.924 233.006 288.509 232.833 288.203 232.527C287.896 232.221 287.723 231.807 287.721 231.374V184.002C287.723 183.569 287.896 183.155 288.203 182.849C288.509 182.542 288.924 182.37 289.358 182.367H345.753C346.024 182.367 346.284 182.26 346.476 182.068C346.668 181.877 346.775 181.617 346.775 181.346C346.775 181.075 346.668 180.815 346.476 180.623C346.284 180.432 346.024 180.324 345.753 180.324H289.358C288.382 180.328 287.448 180.716 286.758 181.405C286.068 182.094 285.679 183.028 285.676 184.002V231.374C285.679 232.348 286.068 233.282 286.758 233.971C287.448 234.66 288.382 235.048 289.358 235.052H303.231C303.503 235.052 303.763 234.944 303.955 234.753C304.146 234.561 304.254 234.301 304.254 234.03C304.254 233.759 304.146 233.499 303.955 233.308C303.763 233.116 303.503 233.008 303.231 233.008Z" fill="black"/>
<path fill-rule="evenodd" clip-rule="evenodd" d="M372.155 191.784V231.374C372.153 231.807 371.98 232.221 371.674 232.527C371.367 232.833 370.952 233.006 370.519 233.008H334.182C333.911 233.008 333.651 233.116 333.459 233.308C333.267 233.499 333.159 233.759 333.159 234.03C333.159 234.301 333.267 234.561 333.459 234.753C333.651 234.944 333.911 235.052 334.182 235.052H370.516C371.492 235.048 372.426 234.66 373.116 233.971C373.805 233.282 374.195 232.348 374.198 231.374V191.784C374.198 191.513 374.09 191.253 373.899 191.061C373.707 190.87 373.447 190.762 373.175 190.762C372.904 190.762 372.644 190.87 372.452 191.061C372.26 191.253 372.153 191.513 372.153 191.784H372.155Z" fill="black"/>
<path d="M305.324 218.161H294.171V227.608H305.324V218.161Z" fill="#2D4BAA"/>
<path d="M325.45 210.41H314.297V227.61H325.45V210.41Z" fill="#2D4BAA"/>
<path d="M345.578 199.752H334.422V227.608H345.578V199.752Z" fill="#121F55"/>
<path d="M365.702 189.336H354.548V227.61H365.702V189.336Z" fill="#2D4BAA"/>
</g>
</g>
<defs>
<linearGradient id="paint0_linear_138_10659" x1="267.45" y1="27.2746" x2="161.014" y2="194.924" gradientUnits="userSpaceOnUse">
<stop stop-color="white" stop-opacity="0"/>
<stop offset="1" stop-color="#82A9FF" stop-opacity="0.21"/>
</linearGradient>
<linearGradient id="paint1_linear_138_10659" x1="204.973" y1="290.578" x2="205.231" y2="255.583" gradientUnits="userSpaceOnUse">
<stop stop-color="white" stop-opacity="0"/>
<stop offset="1" stop-color="#82A9FF" stop-opacity="0.21"/>
</linearGradient>
<clipPath id="clip0_138_10659">
<rect width="422" height="310" fill="white" transform="translate(0.0332031)"/>
</clipPath>
<clipPath id="clip1_138_10659">
<rect width="421" height="310" fill="white" transform="translate(0.0332031)"/>
</clipPath>
<clipPath id="clip2_138_10659">
<rect width="46.237" height="34.8953" fill="white" transform="translate(8.14453 228.037)"/>
</clipPath>
<clipPath id="clip3_138_10659">
<rect width="385" height="200" fill="white" transform="translate(16.459 56)"/>
</clipPath>
</defs>
</svg>
