<svg width="299" height="284" viewBox="0 0 299 284" fill="none" xmlns="http://www.w3.org/2000/svg">
<path d="M133.385 40.1248H224.379V257.773H133.385V40.1248Z" fill="#82A9FF" fill-opacity="0.21"/>
<g clip-path="url(#clip0_119_4966)">
<path d="M77.6914 86.0604C93.0909 86.0604 105.575 73.4717 105.575 57.9429C105.575 42.414 93.0909 29.8253 77.6914 29.8253C62.2919 29.8253 49.8081 42.414 49.8081 57.9429C49.8081 73.4717 62.2919 86.0604 77.6914 86.0604Z" fill="#F3F2FF"/>
<path d="M77.6914 57.9427L80.0262 85.9594C79.259 86.0267 78.4585 86.0603 77.6914 86.0603C62.2822 86.0603 49.8081 73.4814 49.8081 57.9427H77.6914Z" fill="#B5B9FF"/>
<path d="M77.6914 57.9428H49.8081C49.8081 52.8305 51.1756 48.0209 53.5437 43.884L77.6914 57.9428Z" fill="#D9DAFF"/>
<path d="M77.4246 58.4136L50.842 42.9422L51.1089 42.4714C53.8105 37.7627 57.7128 33.8612 62.3823 31.1369C66.885 28.5135 72.1214 27 77.6914 27H78.2251V58.8509L77.4246 58.4136ZM52.2762 42.5386L77.1578 57.0347V28.0763C71.9547 28.1772 67.0851 29.5898 62.8826 32.045C58.5466 34.5675 54.8778 38.1999 52.2762 42.5386Z" fill="white"/>
<path d="M61.1147 38.8054L51.509 33.2223H14.2534V32.2805H51.7425L61.5817 37.9982L61.1147 38.8054Z" fill="#EEEDFF"/>
<path d="M51.8091 55.5883L44.1712 53.5367H14.1533V52.595H44.3046L52.0426 54.6802L51.8091 55.5883Z" fill="#EEEDFF"/>
<path d="M58.7467 76.3402L55.945 79.1654H13.4863V78.2573H55.5781L58.113 75.7012L58.7467 76.3402Z" fill="#EEEDFF"/>
<path d="M1.7459 29.4889H5.98177C6.24859 29.4889 6.48207 29.7243 6.48207 29.9934V34.2648C6.48207 34.5339 6.24859 34.7693 5.98177 34.7693H1.7459C1.47908 34.7693 1.24561 34.5339 1.24561 34.2648V29.9934C1.24561 29.7243 1.47908 29.4889 1.7459 29.4889Z" fill="#EEEDFF"/>
<path d="M7.78301 29.4889H12.0189C12.2857 29.4889 12.5192 29.7243 12.5192 29.9934V34.2648C12.5192 34.5339 12.2857 34.7693 12.0189 34.7693H7.78301C7.51619 34.7693 7.28271 34.5339 7.28271 34.2648V29.9934C7.28271 29.7243 7.48283 29.4889 7.78301 29.4889Z" fill="#EEEDFF"/>
<path d="M2.51299 50.7451H6.74886C7.01568 50.7451 7.24916 50.9806 7.24916 51.2496V55.5211C7.24916 55.7901 7.01568 56.0256 6.74886 56.0256H2.51299C2.24617 56.0256 2.0127 55.7901 2.0127 55.5211V51.2496C2.0127 50.9806 2.24617 50.7451 2.51299 50.7451Z" fill="#D9DAFF"/>
<path d="M1.07891 75.4994H5.31478C5.5816 75.4994 5.81507 75.7348 5.81507 76.0039V80.2753C5.81507 80.5444 5.5816 80.7798 5.31478 80.7798H1.07891C0.812086 80.7798 0.578613 80.5444 0.578613 80.2753V76.0039C0.578613 75.7348 0.812086 75.4994 1.07891 75.4994Z" fill="#B5B9FF"/>
<path d="M7.11578 75.4994H11.3516C11.6185 75.4994 11.8519 75.7348 11.8519 76.0039V80.2753C11.8519 80.5444 11.6185 80.7798 11.3516 80.7798H7.11578C6.84895 80.7798 6.61548 80.5444 6.61548 80.2753V76.0039C6.61548 75.7348 6.8156 75.4994 7.11578 75.4994Z" fill="#B5B9FF"/>
</g>
<g clip-path="url(#clip1_119_4966)">
<path d="M221.462 -9.78051e-05C206.062 -9.91513e-05 193.579 12.5886 193.579 28.1174C193.579 43.6463 206.062 56.235 221.462 56.235C236.861 56.235 249.345 43.6463 249.345 28.1174C249.345 12.5886 236.861 -9.64588e-05 221.462 -9.78051e-05Z" fill="#F3F2FF"/>
<path d="M221.462 28.1176L219.127 0.100911C219.894 0.033645 220.695 1.08467e-05 221.462 1.09138e-05C236.871 1.22609e-05 249.345 12.5789 249.345 28.1176L221.462 28.1176Z" fill="#B5B9FF"/>
<path d="M221.462 28.1175L249.345 28.1175C249.345 33.2298 247.978 38.0394 245.61 42.1763L221.462 28.1175Z" fill="#D9DAFF"/>
<path d="M221.729 27.6467L248.311 43.1181L248.044 43.5889C245.343 48.2976 241.441 52.1991 236.771 54.9234C232.268 57.5468 227.032 59.0603 221.462 59.0603L220.928 59.0603L220.928 27.2094L221.729 27.6467ZM246.877 43.5217L221.996 29.0256L221.996 57.984C227.199 57.8831 232.068 56.4705 236.271 54.0153C240.607 51.4928 244.276 47.8604 246.877 43.5217Z" fill="white"/>
<path d="M238.039 47.2549L247.644 52.838L284.9 52.838L284.9 53.7798L247.411 53.7798L237.572 48.0621L238.039 47.2549Z" fill="#EEEDFF"/>
<path d="M247.344 30.472L254.982 32.5236L285 32.5236L285 33.4653L254.849 33.4653L247.111 31.3801L247.344 30.472Z" fill="#EEEDFF"/>
<path d="M240.407 9.72009L243.208 6.89488L285.667 6.89488L285.667 7.80299L243.575 7.80299L241.04 10.3591L240.407 9.72009Z" fill="#EEEDFF"/>
<path d="M297.407 56.5714L293.172 56.5714C292.905 56.5714 292.671 56.336 292.671 56.0669L292.671 51.7955C292.671 51.5264 292.905 51.291 293.172 51.291L297.407 51.291C297.674 51.291 297.908 51.5264 297.908 51.7955L297.908 56.0669C297.908 56.336 297.674 56.5714 297.407 56.5714Z" fill="#EEEDFF"/>
<path d="M291.37 56.5714L287.134 56.5714C286.868 56.5714 286.634 56.336 286.634 56.0669L286.634 51.7955C286.634 51.5264 286.868 51.291 287.134 51.291L291.37 51.291C291.637 51.291 291.871 51.5264 291.871 51.7955L291.871 56.0669C291.871 56.336 291.67 56.5714 291.37 56.5714Z" fill="#EEEDFF"/>
<path d="M296.64 35.3152L292.404 35.3152C292.138 35.3152 291.904 35.0798 291.904 34.8107L291.904 30.5392C291.904 30.2702 292.138 30.0347 292.404 30.0347L296.64 30.0347C296.907 30.0347 297.141 30.2702 297.141 30.5392L297.141 34.8107C297.141 35.0798 296.907 35.3152 296.64 35.3152Z" fill="#D9DAFF"/>
<path d="M298.074 10.5609L293.839 10.5609C293.572 10.5609 293.338 10.3255 293.338 10.0564L293.338 5.78497C293.338 5.5159 293.572 5.28047 293.839 5.28047L298.074 5.28047C298.341 5.28047 298.575 5.5159 298.575 5.78497L298.575 10.0564C298.575 10.3255 298.341 10.5609 298.074 10.5609Z" fill="#B5B9FF"/>
<path d="M292.038 10.5609L287.802 10.5609C287.535 10.5609 287.301 10.3255 287.301 10.0564L287.301 5.78497C287.301 5.5159 287.535 5.28047 287.802 5.28047L292.038 5.28047C292.304 5.28047 292.538 5.5159 292.538 5.78497L292.538 10.0564C292.538 10.3255 292.338 10.5609 292.038 10.5609Z" fill="#B5B9FF"/>
</g>
<path fill-rule="evenodd" clip-rule="evenodd" d="M171.161 256.183C185.431 259.933 209.951 261.193 241.174 260.998C270.152 261.02 281.762 263.992 281.327 269.213C277.965 277.31 230.057 281.45 147.832 281.622C79.9547 281.833 48.3116 276.979 39.1714 268.589C25.2896 254.138 127.398 244.874 171.161 256.183Z" fill="url(#paint0_linear_119_4966)"/>
<g clip-path="url(#clip2_119_4966)">
<path d="M141.129 16.1024C141.129 16.1024 153.032 14.4467 155.424 12.791C155.424 12.791 160.366 12.791 160.791 15.0876C160.791 15.0876 157.921 18.5592 161.535 24.007C161.535 24.007 162.066 21.6036 164.245 21.3899L163.926 12.8978C163.926 12.8978 164.458 7.28977 159.515 5.04656C154.573 2.80335 143.733 4.7261 140.757 8.14432L139.641 11.4557H138.738C138.738 11.4023 137.409 15.6217 141.129 16.1024Z" fill="url(#paint1_linear_119_4966)"/>
<path d="M160.844 15.0342C160.844 15.0342 157.974 18.5058 161.588 23.9536C161.588 23.9536 162.119 21.5501 164.298 21.3365L163.979 13.4319C161.96 13.1648 160.844 15.0342 160.844 15.0342Z" fill="#4F4387"/>
<path d="M145.15 50.2724L145.668 46.5322L145.772 46.5322L145.792 46.3538L146.055 43.9278C146.242 44.1834 146.434 44.4477 146.628 44.7129C147.465 45.8616 148.314 47.0278 148.788 47.5836L148.91 47.7262L149.06 47.6141L148.94 47.4538C149.06 47.6141 149.06 47.614 149.06 47.614L149.061 47.6136L149.062 47.6123L149.069 47.6072L149.096 47.5869L149.202 47.5076C149.295 47.4381 149.431 47.3358 149.604 47.2048C149.951 46.9428 150.448 46.5659 151.047 46.1062C152.246 45.1868 153.857 43.9356 155.503 42.609C157.148 41.2828 158.83 39.8796 160.172 38.6563C160.843 38.0448 161.431 37.4763 161.888 36.9834C162.208 36.6377 162.471 36.3212 162.652 36.0481C163.251 37.0362 164.001 37.9826 164.79 38.9195C164.746 38.9828 164.686 39.0692 164.612 39.1782C164.44 39.4316 164.19 39.8069 163.877 40.2959C163.253 41.2707 162.377 42.6971 161.369 44.509L153.872 53.4045L148.606 47.9557L148.485 47.8303L148.344 47.9334L145.15 50.2724Z" fill="white" stroke="black" stroke-width="0.4"/>
<path d="M153.883 53.7028L148.462 48.1482L144.742 50.8721C143.255 52.5278 132.892 64.4382 132.042 74.6928C131.139 85.7486 132.042 108.501 129.066 119.29C128.8 120.305 128.535 121.266 128.269 122.227C130.023 123.029 132.52 123.937 135.177 124.15C139.11 124.417 150.428 123.776 155.796 123.402C153.032 114.163 149.95 101.237 149.472 87.885C148.834 70.0996 156.805 53.1153 161.588 44.6232L153.883 53.7028Z" fill="white"/>
<path d="M161.535 44.5697C156.752 53.1153 148.781 70.0461 149.419 87.8316C149.897 101.184 152.979 114.109 155.743 123.349C156.965 127.355 158.081 130.666 158.984 133.016L162.172 132.589C162.172 132.589 162.172 132.589 162.226 132.536C163.66 131.36 164.989 130.132 166.211 128.743C176.999 116.459 177.583 97.018 177.583 97.018C168.602 59.6847 179.443 48.522 179.443 48.522C179.443 48.522 170.462 44.6765 165.095 38.8549C165.042 38.9083 163.607 40.9912 161.535 44.5697Z" fill="#36336B"/>
<path d="M158.824 132.535C158.878 132.749 158.984 132.909 159.037 133.07L162.225 132.642C162.225 132.642 162.225 132.642 162.279 132.589C163.713 131.414 165.042 130.185 166.264 128.797C177.051 116.513 177.636 97.0714 177.636 97.0714C171.791 72.6632 174.341 59.471 176.839 53.222C176.839 53.222 168.071 64.9188 170.515 108.982C170.462 108.982 171.047 124.204 158.824 132.535Z" fill="#27254D"/>
<path d="M179.39 48.5753C179.39 48.5753 168.549 59.7379 177.53 97.0713C177.53 97.0713 176.945 116.512 166.158 128.797C169.24 130.773 174.395 133.657 178.965 134.405C181.409 131.04 183.96 127.301 184.651 125.645L194.11 103.694C194.11 103.694 188.742 66.8414 188.742 52.314C188.796 52.314 185.448 49.8571 179.39 48.5753Z" fill="#36336B"/>
<path d="M170.994 131.574C173.491 132.856 176.361 133.977 179.018 134.458C181.462 131.093 184.013 127.355 184.704 125.699L194.163 103.748C194.163 103.748 188.796 66.8949 188.796 52.3675C188.796 52.3675 187.148 51.1925 184.119 50.0175C185.607 58.7232 186.936 70.4734 184.385 74.1052C180.187 80.0871 195.226 94.1338 189.008 101.878C184.598 107.379 174.235 121.159 170.994 131.574Z" fill="#27254D"/>
<path d="M178.965 134.458C174.395 133.657 169.24 130.773 166.158 128.85C164.989 130.239 163.66 131.467 162.172 132.642C162.172 132.642 167.114 138.464 172.056 140.76L173.81 141.348C173.863 141.348 176.361 138.09 178.965 134.458Z" fill="white"/>
<path d="M129.704 68.8712C129.704 68.8712 127.259 88.4191 125.825 93.7067C125.825 93.7067 119.129 114.269 120.617 139.799L122.955 139.639C122.955 139.639 125.559 131.788 128.269 122.227C128.535 121.266 128.8 120.305 129.066 119.29C132.042 108.501 131.085 85.7486 132.042 74.6928C132.892 64.3847 143.255 52.5278 144.742 50.8721C144.849 50.7653 144.902 50.6585 144.902 50.6585L145.486 46.4391C144.424 47.1334 135.23 53.2221 133.849 54.5574C132.945 55.4653 131.723 62.6222 129.704 68.8712Z" fill="#36336B"/>
<path d="M125.824 93.7066C127.259 88.419 129.704 68.8711 129.704 68.8711C128.588 72.3961 127.153 75.6007 125.399 77.3632C125.399 77.3632 113.496 77.6303 105.153 71.7018C105.153 71.7018 102.815 74.4791 102.443 80.461L103.665 86.2292C103.665 86.2827 117.853 94.668 125.824 93.7066Z" fill="#36336B"/>
<path d="M125.825 93.7066C127.259 88.419 129.704 68.8711 129.704 68.8711C128.588 72.3961 127.153 75.6007 125.4 77.3632C125.4 77.3632 126.037 85.1611 124.23 89.3804C124.23 89.3804 110.255 87.0304 102.868 82.2769L103.665 86.2292C103.665 86.2827 117.854 94.668 125.825 93.7066Z" fill="#27254D"/>
<path d="M100.586 68.4993C100.653 68.4452 100.715 68.3972 100.771 68.3552L101.003 68.6117C102.033 69.8428 103.196 70.9422 104.454 71.8695C104.424 71.9143 104.393 71.9625 104.36 72.0143C104.122 72.3884 103.806 72.9451 103.48 73.6911C102.906 75.0009 102.303 76.8909 102.036 79.396L97.4295 74.7665C97.5987 72.4419 98.5026 70.7939 99.3712 69.7195C99.8202 69.164 100.26 68.7613 100.586 68.4993Z" fill="white" stroke="black"/>
<path d="M100.17 67.5429C100.12 67.581 100.067 67.6225 100.011 67.6673C99.6404 67.9661 99.1473 68.4179 98.6465 69.0375C97.7066 70.2001 96.7414 71.9516 96.5076 74.3744C96.3746 74.3864 96.2366 74.4092 96.0989 74.4376C95.7447 74.5106 95.3355 74.6329 94.9317 74.755L94.9056 74.7628C94.0726 75.0147 93.2692 75.2576 92.6774 75.261C92.6109 75.2563 92.4899 75.225 92.3066 75.1344C92.1229 75.0437 91.9099 74.9102 91.6751 74.7406C91.2057 74.4016 90.6879 73.9466 90.2 73.4826C89.7271 73.0328 89.2916 72.5834 88.9685 72.2398L89.8051 72.0172L91.7683 72.9052L92.225 73.1117L92.4292 72.6572L92.4293 72.657L92.4294 72.6569L92.4323 72.6508C92.4359 72.6435 92.4424 72.6305 92.4522 72.6121C92.4719 72.5754 92.5045 72.5176 92.5521 72.443C92.6472 72.2937 92.8022 72.0772 93.0327 71.8272C93.4927 71.3284 94.2581 70.6911 95.4622 70.1869L95.7843 70.052L95.7685 69.7031L95.7685 69.7031L95.7685 69.7031L95.7685 69.7029L95.7685 69.7018L95.7683 69.6971L95.7674 69.6779L95.7644 69.6026C95.7619 69.5368 95.7584 69.4409 95.7547 69.3214C95.7473 69.0821 95.7391 68.7488 95.7358 68.3727C95.7292 67.6141 95.743 66.7056 95.8189 66.044L95.8852 65.4665L95.3048 65.4873L95.3047 65.4873L95.3045 65.4873L95.3043 65.4873L95.3042 65.4873L95.3002 65.4874L95.28 65.4879C95.2613 65.4882 95.2325 65.4885 95.1949 65.4884C95.1195 65.4881 95.0091 65.486 94.8737 65.4786C94.6016 65.4637 94.2358 65.4277 93.854 65.3448C93.6409 65.2986 93.436 65.2407 93.2454 65.1698C94.1515 65.2103 95.0658 65.1363 95.8394 65.034C96.4865 64.9484 97.0512 64.8407 97.4545 64.7543C97.5855 64.7262 97.6997 64.7004 97.7944 64.6782L100.17 67.5429Z" fill="white" stroke="black"/>
<path d="M91.726 71.8125L91.3304 71.6336L91.9778 71.478C91.8778 71.6011 91.7944 71.7138 91.726 71.8125ZM94.7036 69.4078C94.1696 69.6596 93.7143 69.9364 93.3289 70.2152L94.4036 68.6768L94.6818 68.2785C94.6821 68.32 94.6824 68.3611 94.6827 68.4015C94.6861 68.7833 94.6945 69.1193 94.7021 69.36C94.7026 69.3764 94.7031 69.3923 94.7036 69.4078ZM94.7261 66.4668C94.6927 66.9756 94.6817 67.5283 94.6812 68.0289L94.1004 67.902L91.2717 67.2839L91.6561 66.8546L91.6639 66.8459L91.6713 66.8368L91.2836 66.5211C91.6713 66.8368 91.6715 66.8366 91.6716 66.8364L91.6719 66.836L91.6726 66.8352L91.674 66.8334L91.6774 66.8291L91.6863 66.8178C91.693 66.8089 91.7014 66.7977 91.7111 66.784C91.7304 66.7568 91.7552 66.7198 91.7826 66.6739C91.8371 66.5827 91.9039 66.4527 91.9574 66.2913C92.0135 66.1223 92.0553 65.9167 92.0525 65.6867C92.5395 66.0108 93.1085 66.1939 93.585 66.3012C94.0163 66.3983 94.4226 66.4446 94.7261 66.4668Z" fill="white" stroke="black"/>
<path d="M92.2401 70.9006L93.9937 68.3904L90.327 67.5892L88.6265 68.1767L88.042 71.9688L89.7956 71.4881L92.2401 70.9006Z" fill="white"/>
<path d="M91.0614 65.9765C91.0498 66.0115 91.0369 66.0435 91.0239 66.072L88.1387 66.6243C87.9932 66.4904 87.8506 66.3522 87.7319 66.2284C87.6476 66.1405 87.5806 66.0654 87.5344 66.0079C87.5165 65.9857 87.5052 65.9701 87.4984 65.9606C87.4987 65.9591 87.4989 65.9576 87.4992 65.956C87.5064 65.9147 87.526 65.855 87.5593 65.7828C87.5667 65.7668 87.5744 65.7511 87.5821 65.7357L91.1055 65.6909C91.1082 65.7984 91.0886 65.8946 91.0614 65.9765ZM87.4966 65.9804C87.4965 65.9804 87.4965 65.9796 87.4965 65.978C87.4966 65.9795 87.4966 65.9803 87.4966 65.9804Z" fill="white" stroke="black"/>
<path d="M128.269 122.227C125.559 131.788 122.955 139.639 122.955 139.639C122.955 139.639 115.569 167.946 115.356 193.102C115.356 193.102 129.279 214.359 127.047 248.434C127.047 248.434 133.052 255.057 142.989 251.959C142.989 251.959 144.211 205.119 135.655 193.209C135.655 193.209 137.675 179.429 142.883 174.782C142.883 174.782 144.37 191.553 149.738 199.938C149.738 199.938 158.293 231.824 150.854 253.028C150.854 253.028 150.854 253.508 150.747 254.256C154.573 257.14 163.607 257.407 163.607 257.407C163.607 257.407 179.921 218.739 164.882 189.47C164.882 189.47 163.395 162.445 171.206 144.766L168.443 145.087C165.892 147.383 163.554 148.398 163.554 148.398L157.124 137.93C157.124 137.93 157.071 137.93 153.032 138.517C148.994 139.105 149.844 136.701 149.844 136.701C151.916 136.488 157.602 133.283 157.602 133.283L159.037 133.069C158.187 130.719 157.018 127.408 155.796 123.402C150.482 123.776 139.11 124.417 135.177 124.15C132.467 123.936 129.969 123.028 128.269 122.227Z" fill="#36336B"/>
<path d="M160.047 257.033C162.066 257.3 163.554 257.3 163.554 257.3C163.554 257.3 179.868 218.632 164.829 189.363C164.829 189.363 163.341 162.338 171.153 144.659L168.39 144.98C166.37 146.796 164.51 147.811 163.82 148.184C161.109 156.837 157.549 172.432 159.94 189.15C159.94 189.15 170.568 230.969 159.94 256.232C159.94 256.286 159.993 256.553 160.047 257.033Z" fill="#27254D"/>
<path d="M137.887 252.707C139.429 252.707 141.129 252.44 142.989 251.853C142.989 251.853 144.211 205.013 135.656 193.102C135.656 193.102 137.675 179.322 142.883 174.676C142.883 174.676 141.607 153.579 141.82 146.849C141.82 146.849 128.429 168.854 130.714 191.179C130.66 191.233 138.259 227.605 137.887 252.707Z" fill="#27254D"/>
<path d="M163.554 257.301C163.554 257.301 154.52 257.034 150.694 254.149C150.375 256.072 149.047 259.757 144.264 261.68C143.202 264.03 139.747 266.54 139.747 266.54C139.747 266.54 133.796 268.089 133.424 270.333C133.105 272.629 133.052 272.896 133.052 272.896C133.052 272.896 152.873 276.955 159.144 270.546L159.356 271.134C159.356 271.134 163.979 271.347 165.148 269.531C165.148 269.531 166.636 261.306 163.554 257.301Z" fill="#36336B"/>
<path d="M163.554 257.301C163.554 257.301 162.066 257.247 160.047 257.034C158.771 256.873 157.337 256.66 155.902 256.286C153.936 255.805 152.023 255.111 150.747 254.149C150.641 254.737 150.428 255.485 150.11 256.286C150.003 256.499 149.897 256.767 149.791 256.98C149.897 257.087 150.003 257.14 150.11 257.247C152.023 258.689 155.211 260.185 160.578 260.612C160.897 263.496 161.216 267.448 160.95 271.134C162.385 271.027 164.457 270.706 165.148 269.585C165.148 269.531 166.636 261.306 163.554 257.301Z" fill="#27254D"/>
<path d="M144.264 261.68C144.424 260.078 142.989 251.906 142.989 251.906C133.052 255.004 127.047 248.381 127.047 248.381C127.047 248.381 123.911 259.757 114.718 260.665C105.525 261.573 104.515 261.039 103.718 264.19C103.718 264.19 117.641 270.546 129.651 265.098C129.651 265.098 133.583 264.938 133.795 266.54L139.747 266.487C139.694 266.54 143.201 264.03 144.264 261.68Z" fill="#36336B"/>
<mask id="path-50-inside-1_119_4966" fill="white">
<path fill-rule="evenodd" clip-rule="evenodd" d="M141.259 17.4909C141.251 17.4909 141.243 17.491 141.235 17.491L141.188 16.2092L141.182 16.1023C141.182 16.1023 141.183 16.1022 141.184 16.1021L141.182 16.0489C141.182 16.0489 147.718 15.1409 152.076 13.9659C153.617 13.5386 154.839 13.1114 155.477 12.6841C155.477 12.6841 156.752 12.6841 158.081 13.0045C159.356 13.2716 160.631 13.8591 160.844 14.9807C160.844 14.9807 160.834 14.9926 160.816 15.0162C160.827 15.057 160.836 15.0986 160.844 15.141C160.844 15.141 159.788 16.4375 159.764 18.6613C159.78 20.0787 160.218 21.8551 161.588 23.9001C161.499 23.8205 161.414 23.7411 161.33 23.6619C161.412 23.7936 161.498 23.9264 161.588 24.0604C161.588 24.0604 162.172 21.6035 164.298 21.4433C165.755 21.7363 165.747 23.3237 165.735 25.6752C165.734 25.8959 165.733 26.1233 165.733 26.357C165.733 29.0809 162.651 30.8968 162.651 30.8968H162.651V34.7731C161.535 37.1765 148.94 46.5766 148.94 46.5766C148.25 45.8289 146.921 43.9595 145.911 42.5175L146.234 39.8003C145.863 39.5021 144.917 38.7078 144.37 37.9469C143.68 36.9855 142.085 30.6298 142.085 30.6298L141.554 22.832L141.259 17.4909ZM141.501 22.7784L142.032 30.5762C141.023 30.416 140.013 24.3273 140.013 23.6864C140.013 22.9921 141.501 22.7784 141.501 22.7784Z"/>
</mask>
<path fill-rule="evenodd" clip-rule="evenodd" d="M141.259 17.4909C141.251 17.4909 141.243 17.491 141.235 17.491L141.188 16.2092L141.182 16.1023C141.182 16.1023 141.183 16.1022 141.184 16.1021L141.182 16.0489C141.182 16.0489 147.718 15.1409 152.076 13.9659C153.617 13.5386 154.839 13.1114 155.477 12.6841C155.477 12.6841 156.752 12.6841 158.081 13.0045C159.356 13.2716 160.631 13.8591 160.844 14.9807C160.844 14.9807 160.834 14.9926 160.816 15.0162C160.827 15.057 160.836 15.0986 160.844 15.141C160.844 15.141 159.788 16.4375 159.764 18.6613C159.78 20.0787 160.218 21.8551 161.588 23.9001C161.499 23.8205 161.414 23.7411 161.33 23.6619C161.412 23.7936 161.498 23.9264 161.588 24.0604C161.588 24.0604 162.172 21.6035 164.298 21.4433C165.755 21.7363 165.747 23.3237 165.735 25.6752C165.734 25.8959 165.733 26.1233 165.733 26.357C165.733 29.0809 162.651 30.8968 162.651 30.8968H162.651V34.7731C161.535 37.1765 148.94 46.5766 148.94 46.5766C148.25 45.8289 146.921 43.9595 145.911 42.5175L146.234 39.8003C145.863 39.5021 144.917 38.7078 144.37 37.9469C143.68 36.9855 142.085 30.6298 142.085 30.6298L141.554 22.832L141.259 17.4909ZM141.501 22.7784L142.032 30.5762C141.023 30.416 140.013 24.3273 140.013 23.6864C140.013 22.9921 141.501 22.7784 141.501 22.7784Z" fill="white"/>
<path d="M141.235 17.491L140.236 17.5278L140.271 18.491H141.235V17.491ZM141.259 17.4909L142.257 17.4358L142.205 16.4905L141.258 16.4909L141.259 17.4909ZM141.188 16.2092L142.187 16.1724L142.187 16.1632L142.186 16.154L141.188 16.2092ZM141.182 16.1023L141.045 15.1118L140.133 15.2384L140.184 16.1575L141.182 16.1023ZM141.184 16.1021L141.322 17.0925L142.217 16.9676L142.183 16.0652L141.184 16.1021ZM141.182 16.0489L141.044 15.0584L140.149 15.1827L140.183 16.0857L141.182 16.0489ZM152.076 13.9659L152.336 14.9315L152.343 14.9296L152.076 13.9659ZM155.477 12.6841V11.6841L155.173 11.6841L154.92 11.8533L155.477 12.6841ZM158.081 13.0045L157.846 13.9767L157.861 13.9802L157.876 13.9833L158.081 13.0045ZM160.844 14.9807L161.619 15.612L161.913 15.2514L161.826 14.7945L160.844 14.9807ZM160.816 15.0162L160.015 14.4177L159.728 14.8018L159.848 15.2661L160.816 15.0162ZM160.844 15.141L161.619 15.7723L161.91 15.4156L161.828 14.9629L160.844 15.141ZM159.764 18.6613L158.764 18.6502L158.764 18.6614L158.764 18.6725L159.764 18.6613ZM161.588 23.9001L160.919 24.6433L162.419 23.3436L161.588 23.9001ZM161.33 23.6619L162.02 22.9376L160.481 24.1901L161.33 23.6619ZM161.588 24.0604L160.757 24.6169L162.031 26.5186L162.561 24.2918L161.588 24.0604ZM164.298 21.4433L164.495 20.4629L164.36 20.4358L164.223 20.4461L164.298 21.4433ZM165.735 25.6752L164.735 25.67V25.67L165.735 25.6752ZM162.651 30.8968V31.8968H162.923L163.158 31.7584L162.651 30.8968ZM162.651 30.8968V29.8968H161.651V30.8968H162.651ZM162.651 34.7731L163.558 35.1942L163.651 34.9939V34.7731H162.651ZM148.94 46.5766L148.206 47.2552L148.817 47.9166L149.539 47.378L148.94 46.5766ZM145.911 42.5175L144.918 42.3995L144.873 42.7784L145.092 43.091L145.911 42.5175ZM146.234 39.8003L147.227 39.9183L147.293 39.3682L146.861 39.021L146.234 39.8003ZM144.37 37.9469L143.558 38.5304H143.558L144.37 37.9469ZM142.085 30.6298L141.088 30.6978L141.094 30.7866L141.115 30.8731L142.085 30.6298ZM141.554 22.832L140.555 22.8871L140.556 22.8999L141.554 22.832ZM142.032 30.5762L141.876 31.5639L143.115 31.7606L143.03 30.5082L142.032 30.5762ZM141.501 22.7784L142.499 22.7104L142.425 21.6354L141.359 21.7886L141.501 22.7784ZM141.235 18.491C141.243 18.491 141.251 18.4909 141.259 18.4909L141.258 16.4909C141.251 16.4909 141.243 16.491 141.235 16.491V18.491ZM140.189 16.246L140.236 17.5278L142.234 17.4541L142.187 16.1724L140.189 16.246ZM140.184 16.1575L140.189 16.2644L142.186 16.154L142.18 16.0471L140.184 16.1575ZM141.046 15.1117C141.045 15.1117 141.045 15.1118 141.045 15.1118C141.045 15.1118 141.044 15.1118 141.044 15.1118C141.044 15.1118 141.044 15.1118 141.044 15.1118C141.044 15.1118 141.044 15.1118 141.044 15.1118C141.044 15.1118 141.044 15.1118 141.044 15.1118C141.044 15.1118 141.044 15.1118 141.044 15.1118C141.044 15.1118 141.044 15.1118 141.044 15.1118C141.044 15.1118 141.045 15.1118 141.045 15.1118C141.045 15.1118 141.045 15.1118 141.045 15.1118C141.045 15.1118 141.045 15.1118 141.182 16.1023C141.32 17.0928 141.32 17.0928 141.32 17.0928C141.32 17.0928 141.32 17.0928 141.32 17.0928C141.32 17.0928 141.32 17.0928 141.32 17.0928C141.32 17.0928 141.32 17.0928 141.32 17.0928C141.32 17.0928 141.32 17.0928 141.32 17.0928C141.32 17.0928 141.32 17.0928 141.32 17.0928C141.32 17.0928 141.32 17.0928 141.32 17.0928C141.32 17.0928 141.32 17.0928 141.32 17.0928C141.32 17.0928 141.32 17.0927 141.32 17.0927C141.321 17.0927 141.321 17.0926 141.322 17.0925L141.046 15.1117ZM140.183 16.0857L140.185 16.1389L142.183 16.0652L142.181 16.0121L140.183 16.0857ZM151.815 13.0004C149.683 13.5754 146.997 14.0899 144.826 14.4624C143.744 14.6481 142.797 14.7973 142.121 14.9C141.783 14.9514 141.513 14.9911 141.328 15.0179C141.235 15.0313 141.164 15.0415 141.116 15.0483C141.092 15.0517 141.074 15.0543 141.062 15.0559C141.056 15.0568 141.051 15.0574 141.049 15.0578C141.047 15.058 141.046 15.0582 141.045 15.0583C141.045 15.0583 141.045 15.0584 141.045 15.0584C141.044 15.0584 141.044 15.0584 141.044 15.0584C141.044 15.0584 141.044 15.0584 141.182 16.0489C141.32 17.0394 141.32 17.0394 141.32 17.0394C141.32 17.0393 141.32 17.0393 141.32 17.0393C141.32 17.0393 141.321 17.0392 141.321 17.0392C141.322 17.039 141.323 17.0389 141.325 17.0386C141.328 17.0382 141.333 17.0375 141.34 17.0366C141.353 17.0347 141.372 17.032 141.397 17.0285C141.447 17.0214 141.52 17.011 141.615 16.9973C141.804 16.9698 142.079 16.9294 142.422 16.8773C143.107 16.7731 144.067 16.6219 145.164 16.4336C147.35 16.0585 150.111 15.5315 152.336 14.9314L151.815 13.0004ZM154.92 11.8533C154.436 12.1774 153.369 12.5695 151.809 13.0023L152.343 14.9296C153.864 14.5077 155.242 14.0453 156.033 13.5148L154.92 11.8533ZM158.315 12.0324C157.585 11.8563 156.879 11.7702 156.363 11.7275C156.103 11.706 155.886 11.6952 155.732 11.6897C155.655 11.687 155.594 11.6856 155.551 11.6848C155.529 11.6845 155.512 11.6843 155.499 11.6842C155.493 11.6841 155.488 11.6841 155.484 11.6841C155.482 11.6841 155.481 11.6841 155.48 11.6841C155.479 11.6841 155.478 11.6841 155.478 11.6841C155.478 11.6841 155.477 11.6841 155.477 11.6841C155.477 11.6841 155.477 11.6841 155.477 11.6841C155.477 11.6841 155.477 11.6841 155.477 12.6841C155.477 13.6841 155.477 13.6841 155.476 13.6841C155.476 13.6841 155.476 13.6841 155.476 13.6841C155.476 13.6841 155.476 13.6841 155.476 13.6841C155.476 13.6841 155.476 13.6841 155.476 13.6841C155.476 13.6841 155.476 13.6841 155.476 13.6841C155.477 13.6841 155.48 13.6841 155.483 13.6841C155.49 13.6842 155.502 13.6843 155.517 13.6846C155.549 13.6851 155.598 13.6862 155.661 13.6885C155.788 13.693 155.973 13.7022 156.198 13.7207C156.651 13.7582 157.248 13.8324 157.846 13.9767L158.315 12.0324ZM161.826 14.7945C161.652 13.8743 161.047 13.2407 160.397 12.8279C159.753 12.4193 158.987 12.1727 158.285 12.0258L157.876 13.9833C158.449 14.1034 158.959 14.2841 159.325 14.5164C159.684 14.7445 159.823 14.9655 159.861 15.1669L161.826 14.7945ZM161.618 15.6147C161.622 15.6087 161.625 15.6055 161.625 15.605C161.625 15.6048 161.625 15.6053 161.624 15.6064C161.623 15.607 161.623 15.6077 161.622 15.6087C161.622 15.6091 161.621 15.6097 161.621 15.6102C161.621 15.6105 161.62 15.6108 161.62 15.6111C161.62 15.6112 161.62 15.6114 161.62 15.6115C161.62 15.6116 161.62 15.6117 161.62 15.6118C161.62 15.6118 161.619 15.6118 161.619 15.6119C161.619 15.6119 161.619 15.6119 161.619 15.6119C161.619 15.612 161.619 15.612 160.844 14.9807C160.068 14.3494 160.068 14.3494 160.068 14.3495C160.068 14.3495 160.068 14.3495 160.068 14.3495C160.068 14.3496 160.068 14.3496 160.068 14.3496C160.068 14.3497 160.068 14.3498 160.068 14.3499C160.068 14.35 160.068 14.3502 160.067 14.3504C160.067 14.3507 160.067 14.3511 160.067 14.3515C160.066 14.3522 160.065 14.353 160.065 14.3538C160.063 14.3555 160.062 14.3574 160.06 14.3594C160.057 14.3636 160.053 14.3685 160.049 14.3742C160.04 14.3856 160.029 14.4001 160.015 14.4177L161.618 15.6147ZM161.828 14.9629C161.816 14.8965 161.801 14.8309 161.785 14.7663L159.848 15.2661C159.853 15.2832 159.857 15.3008 159.86 15.319L161.828 14.9629ZM160.764 18.6723C160.774 17.719 161.005 16.973 161.227 16.4725C161.338 16.222 161.447 16.0342 161.523 15.9147C161.56 15.855 161.59 15.8128 161.607 15.7887C161.616 15.7767 161.622 15.7693 161.624 15.7665C161.625 15.7651 161.625 15.7649 161.625 15.7658C161.624 15.7663 161.624 15.7671 161.623 15.7682C161.622 15.7687 161.622 15.7693 161.621 15.77C161.621 15.7703 161.621 15.7707 161.62 15.7711C161.62 15.7713 161.62 15.7716 161.62 15.7717C161.62 15.772 161.619 15.7723 160.844 15.141C160.068 14.5096 160.068 14.51 160.068 14.5103C160.068 14.5104 160.067 14.5107 160.067 14.511C160.067 14.5114 160.066 14.5119 160.066 14.5124C160.065 14.5134 160.064 14.5145 160.063 14.5157C160.062 14.518 160.059 14.5207 160.057 14.5237C160.052 14.5297 160.047 14.537 160.04 14.5457C160.027 14.563 160.01 14.5855 159.989 14.6133C159.949 14.6688 159.896 14.7452 159.835 14.8419C159.712 15.035 159.555 15.3103 159.399 15.6619C159.087 16.3656 158.778 17.3797 158.764 18.6502L160.764 18.6723ZM162.419 23.3436C161.148 21.4468 160.777 19.8579 160.764 18.65L158.764 18.6725C158.782 20.2996 159.288 22.2634 160.757 24.4567L162.419 23.3436ZM160.641 24.3863C160.731 24.4719 160.823 24.5576 160.919 24.6433L162.257 23.157C162.175 23.0834 162.096 23.0103 162.02 22.9376L160.641 24.3863ZM162.419 23.5038C162.335 23.3791 162.255 23.2557 162.18 23.1337L160.481 24.1901C160.569 24.3315 160.661 24.4737 160.757 24.6169L162.419 23.5038ZM164.223 20.4461C162.733 20.5584 161.814 21.4872 161.307 22.2673C161.052 22.6599 160.883 23.0403 160.777 23.3204C160.723 23.4618 160.685 23.5812 160.659 23.6686C160.646 23.7124 160.636 23.7485 160.629 23.7755C160.625 23.7891 160.622 23.8004 160.62 23.8093C160.619 23.8138 160.618 23.8177 160.617 23.8209C160.616 23.8226 160.616 23.8241 160.616 23.8254C160.616 23.8261 160.615 23.8267 160.615 23.8273C160.615 23.8276 160.615 23.828 160.615 23.8281C160.615 23.8285 160.615 23.8289 161.588 24.0604C162.561 24.2918 162.561 24.2922 162.56 24.2926C162.56 24.2927 162.56 24.293 162.56 24.2933C162.56 24.2937 162.56 24.2941 162.56 24.2945C162.56 24.2952 162.56 24.2958 162.56 24.2962C162.559 24.2972 162.559 24.2975 162.559 24.2973C162.559 24.297 162.56 24.2945 162.561 24.29C162.564 24.281 162.568 24.2641 162.575 24.2404C162.59 24.1928 162.613 24.119 162.648 24.0276C162.718 23.842 162.828 23.5982 162.984 23.3565C163.302 22.8681 163.737 22.4884 164.373 22.4405L164.223 20.4461ZM166.735 25.6803C166.741 24.5557 166.754 23.4245 166.539 22.5488C166.426 22.089 166.234 21.6189 165.882 21.2287C165.518 20.8233 165.044 20.5733 164.495 20.4629L164.101 22.4237C164.28 22.4598 164.352 22.5181 164.396 22.5662C164.452 22.6295 164.531 22.7582 164.596 23.0258C164.739 23.6049 164.741 24.4432 164.735 25.67L166.735 25.6803ZM166.733 26.357C166.733 26.1263 166.734 25.9014 166.735 25.6803L164.735 25.67C164.734 25.8903 164.733 26.1203 164.733 26.357H166.733ZM162.651 30.8968C163.158 31.7584 163.159 31.7582 163.159 31.758C163.159 31.758 163.159 31.7578 163.159 31.7577C163.16 31.7574 163.16 31.7571 163.161 31.7567C163.162 31.7561 163.163 31.7553 163.165 31.7544C163.168 31.7526 163.172 31.7504 163.176 31.7477C163.185 31.7423 163.197 31.7351 163.211 31.7262C163.24 31.7082 163.28 31.6831 163.329 31.651C163.428 31.5869 163.564 31.4946 163.725 31.3757C164.046 31.1392 164.476 30.7912 164.909 30.3446C165.753 29.4745 166.733 28.1007 166.733 26.357H164.733C164.733 27.3372 164.171 28.2333 163.474 28.9522C163.136 29.3 162.796 29.5762 162.539 29.7653C162.412 29.8592 162.307 29.9301 162.237 29.9759C162.202 29.9988 162.175 30.0153 162.159 30.0253C162.151 30.0303 162.146 30.0337 162.143 30.0353C162.141 30.0362 162.141 30.0366 162.141 30.0366C162.141 30.0365 162.141 30.0364 162.141 30.0362C162.141 30.0361 162.142 30.036 162.142 30.0358C162.142 30.0357 162.142 30.0356 162.142 30.0355C162.143 30.0354 162.143 30.0352 162.651 30.8968ZM162.651 31.8968H162.651V29.8968H162.651V31.8968ZM163.651 34.7731V30.8968H161.651V34.7731H163.651ZM148.94 46.5766C149.539 47.378 149.539 47.3779 149.539 47.3778C149.539 47.3778 149.539 47.3776 149.539 47.3775C149.54 47.3771 149.54 47.3767 149.541 47.3761C149.543 47.3749 149.545 47.3731 149.548 47.3708C149.554 47.3661 149.564 47.3592 149.576 47.3502C149.6 47.3321 149.636 47.3052 149.682 47.2702C149.776 47.2002 149.912 47.0975 150.086 46.966C150.435 46.703 150.933 46.3249 151.534 45.8638C152.736 44.942 154.352 43.6866 156.005 42.3547C157.655 41.0246 159.352 39.6097 160.711 38.3704C161.39 37.7514 161.997 37.1659 162.475 36.6499C162.929 36.1593 163.346 35.65 163.558 35.1942L161.744 34.3519C161.676 34.497 161.455 34.8072 161.007 35.2907C160.583 35.7487 160.023 36.292 159.364 36.8923C158.048 38.0914 156.387 39.4772 154.749 40.7976C153.114 42.1161 151.511 43.361 150.317 44.2768C149.72 44.7345 149.226 45.1095 148.881 45.37C148.709 45.5002 148.574 45.6018 148.482 45.6707C148.436 45.7051 148.401 45.7313 148.377 45.7489C148.366 45.7577 148.357 45.7644 148.351 45.7688C148.348 45.771 148.346 45.7726 148.344 45.7737C148.344 45.7742 148.343 45.7746 148.343 45.7749C148.343 45.775 148.342 45.7751 148.342 45.7752C148.342 45.7752 148.342 45.7752 148.94 46.5766ZM145.092 43.091C146.082 44.5052 147.458 46.4451 148.206 47.2552L149.675 45.898C149.042 45.2126 147.76 43.4138 146.731 41.9439L145.092 43.091ZM145.241 39.6824L144.918 42.3995L146.904 42.6354L147.227 39.9183L145.241 39.6824ZM143.558 38.5304C144.193 39.4137 145.238 40.2827 145.608 40.5797L146.861 39.021C146.488 38.7216 145.641 38.0018 145.183 37.3633L143.558 38.5304ZM142.085 30.6298C141.115 30.8731 141.115 30.8731 141.115 30.8732C141.115 30.8732 141.116 30.8734 141.116 30.8735C141.116 30.8737 141.116 30.874 141.116 30.8745C141.116 30.8753 141.116 30.8766 141.117 30.8782C141.118 30.8814 141.119 30.8861 141.12 30.8924C141.123 30.9048 141.128 30.923 141.134 30.9468C141.146 30.9943 141.164 31.0639 141.186 31.1526C141.232 31.3299 141.297 31.584 141.378 31.8916C141.539 32.5065 141.762 33.3378 142.007 34.2008C142.251 35.0615 142.52 35.964 142.774 36.7176C142.901 37.0938 143.028 37.4438 143.15 37.738C143.262 38.0102 143.399 38.3086 143.558 38.5304L145.183 37.3633C145.183 37.3643 145.164 37.3358 145.126 37.2595C145.09 37.1879 145.047 37.0935 144.998 36.9749C144.9 36.7375 144.789 36.4332 144.669 36.0784C144.431 35.3699 144.172 34.5032 143.931 33.6549C143.691 32.8087 143.472 31.991 143.313 31.3841C143.233 31.0809 143.169 30.8309 143.124 30.6569C143.102 30.5699 143.085 30.502 143.073 30.4559C143.067 30.4329 143.063 30.4154 143.06 30.4037C143.058 30.3978 143.057 30.3935 143.056 30.3906C143.056 30.3891 143.056 30.3881 143.056 30.3874C143.055 30.387 143.055 30.3868 143.055 30.3866C143.055 30.3866 143.055 30.3865 143.055 30.3865C143.055 30.3865 143.055 30.3865 142.085 30.6298ZM140.556 22.8999L141.088 30.6978L143.083 30.5618L142.552 22.764L140.556 22.8999ZM140.26 17.5461L140.556 22.8871L142.552 22.7768L142.257 17.4358L140.26 17.5461ZM143.03 30.5082L142.499 22.7104L140.503 22.8464L141.035 30.6442L143.03 30.5082ZM139.013 23.6864C139.013 23.9463 139.094 24.5358 139.2 25.175C139.313 25.8557 139.475 26.7033 139.67 27.5388C139.863 28.3663 140.097 29.2171 140.36 29.8873C140.49 30.2181 140.644 30.5499 140.828 30.822C140.976 31.0392 141.309 31.474 141.876 31.5639L142.189 29.5886C142.503 29.6384 142.584 29.8478 142.483 29.6989C142.419 29.6048 142.329 29.4297 142.222 29.1571C142.011 28.6206 141.803 27.8791 141.618 27.0843C141.434 26.2975 141.28 25.4928 141.173 24.8466C141.119 24.5236 141.078 24.2448 141.05 24.0313C141.036 23.9243 141.026 23.8376 141.02 23.7723C141.013 23.6989 141.013 23.6766 141.013 23.6864H139.013ZM141.501 22.7784C141.359 21.7886 141.359 21.7886 141.358 21.7886C141.358 21.7886 141.358 21.7887 141.358 21.7887C141.357 21.7888 141.357 21.7888 141.357 21.7889C141.356 21.789 141.355 21.7891 141.354 21.7892C141.352 21.7895 141.35 21.7899 141.347 21.7903C141.342 21.7911 141.335 21.7921 141.327 21.7934C141.311 21.796 141.289 21.7996 141.263 21.8042C141.21 21.8135 141.138 21.8273 141.052 21.8463C140.885 21.8834 140.649 21.9439 140.404 22.0363C140.17 22.1244 139.865 22.2645 139.601 22.4872C139.33 22.7153 139.013 23.1137 139.013 23.6864H141.013C141.013 23.9119 140.882 24.0232 140.89 24.016C140.905 24.0033 140.971 23.9598 141.11 23.9078C141.236 23.8599 141.373 23.8236 141.484 23.799C141.538 23.7871 141.582 23.7787 141.611 23.7737C141.625 23.7711 141.636 23.7694 141.641 23.7686C141.644 23.7681 141.646 23.7679 141.646 23.7678C141.646 23.7678 141.646 23.7678 141.645 23.7679C141.645 23.7679 141.645 23.768 141.644 23.768C141.644 23.7681 141.644 23.7681 141.644 23.7681C141.644 23.7682 141.643 23.7682 141.643 23.7682C141.643 23.7682 141.643 23.7683 141.501 22.7784Z" fill="black" mask="url(#path-50-inside-1_119_4966)"/>
<path d="M158.027 51.3527C159.25 48.7357 160.472 46.439 161.535 44.5697L158.027 48.7357L153.883 53.6493L152.076 51.78L148.462 48.0947L144.742 50.7652L148.197 49.1629L152.076 52.688L154.68 55.0914L157.496 52.4743C157.709 52.1539 157.868 51.78 158.027 51.3527Z" fill="#0AC41E"/>
<path d="M130.448 127.141C131.936 127.568 133.689 128.049 135.709 128.423C140.013 129.224 145.54 129.705 152.076 129.117C153.776 128.957 155.53 128.743 157.39 128.476V128.423C156.912 126.927 156.327 125.218 155.796 123.402C154.733 123.456 153.457 123.563 152.076 123.616C151.81 123.616 151.491 123.669 151.172 123.669C145.486 123.99 138.153 124.364 135.177 124.15C134.327 124.097 133.53 123.99 132.786 123.776C131.032 123.402 129.491 122.761 128.269 122.227C127.897 123.509 127.525 124.791 127.206 125.966C128.057 126.34 129.172 126.714 130.448 127.141Z" fill="#27254D"/>
<path d="M142.936 251.906C141.129 252.494 139.428 252.707 137.834 252.761C130.979 252.814 126.994 248.435 126.994 248.435C126.994 248.435 126.728 249.503 126.037 250.998C128.163 252.974 131.723 255.057 137.781 255.912C137.675 258.796 137.409 261.52 136.984 263.977C136.825 264.885 136.665 265.793 136.453 266.594H139.694C139.694 266.594 141.288 265.472 142.617 263.977C143.254 263.282 143.892 262.481 144.211 261.734C144.317 261.039 144.052 258.903 143.733 256.873C143.733 256.713 143.68 256.553 143.68 256.339C143.361 253.989 142.936 251.906 142.936 251.906Z" fill="#27254D"/>
<path d="M129.332 122.708C135.496 115.498 132.308 88.152 132.839 76.1348C132.892 74.5859 133.052 73.3041 133.264 72.3427C134.646 66.1472 141.501 55.7857 145.008 50.7118L144.796 50.8186L144.743 50.872C143.255 52.5277 132.892 64.4381 132.042 74.6928C132.042 74.7462 132.042 74.7996 132.042 74.9064C131.139 86.069 132.042 108.555 129.119 119.29C128.854 120.305 128.588 121.266 128.322 122.227C128.588 122.388 128.96 122.548 129.332 122.708Z" fill="#2D4BAA"/>
<path d="M104.09 70.9008C102.974 72.3428 101.486 74.9065 100.742 78.752L102.443 80.5145C102.815 74.5326 105.153 71.7553 105.153 71.7553C104.781 71.4349 104.462 71.1678 104.09 70.9008Z" fill="#EEEDFF"/>
<path d="M166.214 129.529C166.224 129.516 166.235 129.505 166.245 129.493C166.598 129.71 166.992 129.948 167.384 130.184L167.388 130.186L167.388 130.186L167.39 130.188C170.335 131.943 174.356 134.012 178.121 134.808C177.699 135.411 177.263 135.994 176.838 136.561C176.831 136.57 176.825 136.579 176.818 136.589C176.682 136.547 176.558 136.516 176.443 136.487C174.253 135.804 172.436 134.968 170.989 134.085C168.515 132.563 167.038 130.9 166.164 129.585C166.179 129.567 166.194 129.551 166.209 129.534L166.214 129.529Z" fill="#F3F2FF" stroke="black"/>
</g>
<defs>
<linearGradient id="paint0_linear_119_4966" x1="164.221" y1="285.35" x2="163.615" y2="258.476" gradientUnits="userSpaceOnUse">
<stop stop-color="white" stop-opacity="0"/>
<stop offset="1" stop-color="#82A9FF" stop-opacity="0.21"/>
</linearGradient>
<linearGradient id="paint1_linear_119_4966" x1="151.385" y1="10.7054" x2="151.385" y2="-0.0227242" gradientUnits="userSpaceOnUse">
<stop stop-color="#36336B"/>
<stop offset="1" stop-color="#4F4387"/>
</linearGradient>
<clipPath id="clip0_119_4966">
<rect width="104.996" height="59.0603" fill="white" transform="translate(0.578613 27)"/>
</clipPath>
<clipPath id="clip1_119_4966">
<rect width="104.996" height="59.0603" fill="white" transform="translate(298.575 59.0603) rotate(-180)"/>
</clipPath>
<clipPath id="clip2_119_4966">
<rect width="107.183" height="270.146" fill="white" transform="translate(86.9792 4.03174)"/>
</clipPath>
</defs>
</svg>
