<svg width="254" height="365" viewBox="0 0 254 365" fill="none" xmlns="http://www.w3.org/2000/svg">
<g style="mix-blend-mode:luminosity" clip-path="url(#clip0_190_51)">
<path d="M44.618 333.26C44.618 333.26 37.3129 351.946 38.1723 352.805C39.0318 353.736 46.3368 354.022 46.9813 354.022C47.5543 354.022 62.8089 354.022 62.8089 354.022C62.8089 354.022 68.6816 340.42 68.1802 339.99C67.6789 339.632 55.0025 331.614 55.0025 331.614L44.618 333.26Z" fill="#0E3C7E"/>
<path d="M60.1591 339.919C60.1591 339.919 48.6286 341.494 38.6737 335.194C38.6737 335.194 53.7135 248.496 54.5013 243.699C55.2891 238.902 53.7135 178.049 53.7135 178.049L76.7028 171.033C76.7028 171.033 81.6444 264.532 81.358 263.673C81.1431 262.886 60.1591 339.919 60.1591 339.919Z" fill="#0E3C7E"/>
<path d="M12.175 222.221C12.1034 221.935 8.37929 193.513 33.3023 189.217C40.3925 188 46.48 189.217 51.5649 192.797C60.9468 199.383 63.0954 211.697 63.167 212.27L58.9415 212.986C58.7983 212.055 54.7161 189.862 33.9469 193.441C13.1061 197.021 16.1856 220.646 16.3289 221.649L12.175 222.221Z" fill="#00122C"/>
<path d="M84.6524 21.4061C84.6524 21.4061 82.7187 35.0801 78.7081 43.3132C74.6975 51.5463 72.6922 50.7588 71.6895 50.7588C70.6869 50.7588 51.2784 39.5188 51.2784 39.5188L46.1219 21.9072L61.1617 11.7411L73.7664 14.6048L84.6524 21.4061Z" fill="white"/>
<path d="M69.3977 49.6847C69.3977 49.6847 64.8857 49.8995 63.5966 57.4166C62.3791 64.9338 62.3791 64.9338 62.3791 64.9338L44.7611 59.3496L53.2836 38.0868L69.3977 49.6847Z" fill="white"/>
<path d="M58.9415 28.7084C58.9415 28.7084 57.151 22.3367 52.9972 24.4844C48.8434 26.6322 53.785 36.0823 56.6497 35.2948L52.4242 40.2347L50.6338 44.6734C50.6338 44.6734 37.3845 33.863 38.602 22.1219C39.8195 10.4524 46.8381 10.6672 46.8381 10.6672C46.8381 10.6672 45.3341 3.00686 55.0741 0.357953C64.8141 -2.29095 92.1722 12.3854 99.0475 8.59103C99.0475 8.59103 90.7398 32.3596 78.2067 24.6992C65.6736 17.0389 58.9415 28.7084 58.9415 28.7084Z" fill="#00265C"/>
<path d="M44.7611 59.3498L45.3341 52.9065L66.891 59.3498L68.1085 69.1579L44.7611 59.3498Z" fill="#D7E7FF"/>
<path d="M104.777 131.228C104.777 131.228 112.154 129.152 114.732 127.792C117.31 126.36 119.387 124.641 120.605 125.429C121.822 126.217 117.024 130.226 116.666 130.584C116.307 130.942 126.764 131.013 128.196 131.228C129.628 131.514 134.284 132.66 134.284 133.519C134.284 134.378 128.483 144.687 127.122 145.403C125.689 146.119 111.223 145.761 110.22 144.974C109.217 144.258 101.339 141.824 101.339 141.824C101.339 141.824 104.347 131.371 104.777 131.228Z" fill="white"/>
<path d="M106.066 130.226C106.066 130.226 84.8672 125.286 83.6497 119.559C82.5754 114.476 76.7028 124.57 76.7028 124.57L78.0635 138.316C78.0635 138.316 89.7372 143.9 105.207 143.9L108 138.674C108 138.674 109.361 131.157 106.066 130.226Z" fill="#AFD0FF"/>
<path d="M78.2784 343.498C78.2784 343.498 81.6444 351.087 86.7293 355.096C91.8142 359.105 95.3951 356.886 98.1165 363.043C98.1165 363.043 58.5835 363.401 57.366 363.043C56.0768 362.685 64.2413 344.858 65.7453 343.856C67.2492 342.997 78.2784 343.498 78.2784 343.498Z" fill="#0E3C7E"/>
<path d="M57.2227 343.355C57.2227 343.355 69.8275 348.939 81.4296 347.364C81.4296 347.364 99.7638 247.565 99.4057 243.842C99.0476 240.119 84.1511 143.9 84.1511 143.9L44.045 153.422C44.045 153.422 49.2015 190.363 52.5676 190.936C55.9336 191.509 57.8673 193.656 57.8673 193.656C57.8673 193.656 71.2598 249.57 70.7585 254.509C70.2572 259.449 57.2227 343.355 57.2227 343.355Z" fill="#00122C"/>
<path d="M87.6602 144.186C85.2252 148.052 64.8141 152.491 52.7107 153.636C48.1988 154.066 44.9044 154.066 44.0449 153.35C40.8221 150.844 41.5383 142.898 41.037 141.466C40.5357 140.034 41.037 140.392 41.3951 139.318C41.7532 138.244 42.1113 136.096 41.037 134.736C40.464 134.02 39.8911 117.268 39.4614 100.658C39.0317 84.4786 38.8168 68.442 38.8884 67.3681C39.6046 60.9964 44.7611 59.3498 44.7611 59.3498C44.7611 59.3498 63.3818 62.7146 68.1085 69.1579C91.2411 100.587 91.0263 138.888 87.6602 144.186Z" fill="#8BAFFD"/>
<path d="M24.3501 179.624C24.3501 179.624 22.9177 198.739 24.3501 200.1C25.7825 201.46 27.931 199.599 29.5066 200.1C31.0822 200.601 32.801 200.529 33.5172 199.813C34.2334 199.169 34.7347 198.525 36.4535 198.596C38.1724 198.668 39.7479 199.097 40.3209 198.167C40.8938 197.236 41.61 195.947 42.8991 195.733C44.2599 195.446 45.4058 195.446 45.4774 194.014C45.549 192.583 42.4694 185.781 42.4694 185.781L42.6843 189.647C42.6843 189.647 45.1909 189.361 45.9787 187.285C46.6949 185.209 35.5225 174.183 35.5225 174.183L24.3501 179.624Z" fill="white"/>
<path d="M24.1352 182.058C24.1352 182.058 34.7347 176.761 37.8859 176.761C37.8859 176.761 38.3156 171.606 35.8089 171.033L21.9867 176.546C21.9867 176.546 21.9867 180.627 24.1352 182.058Z" fill="#BBD7FF"/>
<path d="M59.1564 92.0674C53.2837 103.021 42.6843 124.857 46.7665 129.08C50.8487 133.304 57.0795 131.371 52.6392 133.448C48.1988 135.524 44.1166 136.526 47.4827 138.173C50.8487 139.748 53.4986 138.889 50.1325 142.11C47.053 145.045 47.9124 152.133 52.7824 153.708C48.2705 154.138 44.976 154.138 44.1166 153.422C40.8938 150.916 41.61 142.969 41.1087 141.537C40.6073 140.106 41.1087 140.464 41.4668 139.39C41.8249 138.316 42.1829 136.168 41.1087 134.808C40.5357 134.092 39.9628 117.339 39.5331 100.73L60.8752 73.2387C60.8752 73.2387 64.9574 81.0423 59.1564 92.0674Z" fill="#6694D6"/>
<path d="M60.0158 84.2639C58.0821 89.1322 55.5755 94.1436 52.9972 99.0119C52.9972 99.0119 52.9972 99.0119 52.9256 99.0835C45.6922 112.543 37.5278 125.286 37.3845 133.09C37.1697 143.828 37.5278 168.886 35.8089 170.962C34.0901 173.038 21.9867 176.474 21.9867 176.474C21.9867 176.474 12.4615 126.074 13.3926 122.279C14.252 118.485 33.0159 76.6036 38.9601 67.3682C44.9044 58.2045 67.3208 65.8648 60.0158 84.2639Z" fill="white"/>
<path d="M74.6258 256.586L14.1803 268.398C11.244 268.971 8.37925 267.038 7.80631 264.174L0.143194 225.658C-0.429749 222.651 1.50393 219.787 4.51188 219.286L66.9627 207.975C69.9706 207.402 72.8353 209.478 73.265 212.485L78.9229 250.429C79.3526 253.292 77.4905 256.013 74.6258 256.586Z" fill="white"/>
<path d="M73.265 212.485L71.7611 234.106L10.5994 245.99L0.143194 225.658C-0.429749 222.651 1.50393 219.787 4.51188 219.286L66.9627 207.975C69.9706 207.402 72.8353 209.478 73.265 212.485Z" fill="#D7E7FF"/>
<path d="M14.252 241.193L19.0504 240.12L21.9867 253.579L17.0451 254.51L14.252 241.193Z" fill="#0E3C7E"/>
<path d="M61.0901 232.029L65.8885 230.956L68.8248 244.415L63.8116 245.346L61.0901 232.029Z" fill="#0E3C7E"/>
<path d="M108.286 130.226C108.286 130.226 110.65 135.882 107.57 143.9H105.278C105.278 143.9 108.788 135.022 106.138 130.226H108.286Z" fill="#BBD7FF"/>
<path d="M52.9973 99.0833C45.7639 112.543 37.5994 125.286 37.4562 133.09C37.2413 143.828 37.5994 168.885 35.8806 170.962C35.8806 170.962 32.7294 134.951 30.0079 132.159C27.2865 129.438 26.6419 127.72 31.6551 126.36C36.5252 125.143 51.923 100.73 52.9973 99.0833Z" fill="#D7E7FF"/>
<path d="M198.883 329.466C198.883 329.466 198.74 336.983 188.069 343.283C177.398 349.655 175.106 350.013 174.748 354.094L217.074 352.089L228.676 342.782C228.676 342.782 227.458 333.475 226.885 333.117C226.313 332.759 203.681 330.325 203.681 330.325L198.883 329.466Z" fill="#0E3C7E"/>
<path d="M217.647 160.652V337.771C217.647 337.771 211.273 338.63 204.397 337.771C200.458 337.27 196.376 336.124 193.297 333.977C193.297 333.977 188.355 252.004 188.713 247.923C189.071 243.842 200.387 159.435 200.96 159.292C201.533 159.077 217.647 160.652 217.647 160.652Z" fill="#0E3C7E"/>
<path d="M217.647 273.553V337.771C217.647 337.771 211.273 338.63 204.397 337.771C208.265 337.699 209.411 334.907 209.411 334.907C209.411 334.907 198.382 257.803 197.092 253.221C195.875 248.639 204.183 179.839 204.183 179.839L217.647 273.553Z" fill="#002F7A"/>
<path d="M141.181 136.952L141.181 136.952L141.19 136.953C141.509 136.979 141.847 137.007 142.199 137.035C143.782 137.166 145.645 137.319 147.31 137.436C148.328 137.508 149.275 137.567 150.042 137.598C150.793 137.629 151.413 137.637 151.749 137.595L151.762 137.593L151.776 137.591C152.695 137.423 153.641 136.782 154.015 135.931C154.211 135.486 154.253 134.973 154.026 134.468C153.805 133.974 153.357 133.554 152.703 133.218C151.656 132.678 151.305 131.876 151.335 131.356C151.351 131.097 151.454 130.916 151.594 130.812C151.733 130.709 151.976 130.63 152.37 130.715C153.334 130.921 155.965 131.802 158.398 132.649C159.604 133.069 160.749 133.475 161.592 133.777C162.013 133.928 162.359 134.053 162.599 134.139L162.754 134.195C162.771 134.246 162.792 134.304 162.814 134.37C162.901 134.624 163.022 134.989 163.159 135.431C163.432 136.319 163.765 137.513 164.007 138.751C164.25 139.997 164.394 141.255 164.309 142.281C164.222 143.333 163.91 143.979 163.41 144.247L163.41 144.247L163.406 144.249C163.276 144.32 162.885 144.47 162.236 144.681C161.608 144.886 160.78 145.135 159.817 145.409C157.892 145.956 155.434 146.596 152.954 147.162C150.472 147.729 147.979 148.219 145.98 148.47C144.979 148.596 144.116 148.659 143.447 148.646C143.113 148.639 142.839 148.613 142.627 148.571C142.41 148.528 142.295 148.474 142.244 148.438C141.998 148.252 141.706 147.818 141.4 147.116C141.103 146.434 140.824 145.575 140.567 144.628C140.055 142.739 139.647 140.559 139.361 138.881C139.197 137.769 140.08 136.842 141.181 136.952Z" fill="white" stroke="black"/>
<path d="M165.294 132.231C165.294 132.231 189.501 124.857 190.289 123.783C191.077 122.709 209.411 72.9524 209.84 72.1649C210.27 71.3774 213.994 74.3126 213.994 74.3126L203.61 134.02L167.443 143.9L165.294 132.231Z" fill="#AFD0FF"/>
<path d="M161.14 133.089C161.14 133.089 163.504 136.741 163.575 144.687L167.443 143.9C167.443 143.9 167.657 133.805 165.294 132.23L161.14 133.089Z" fill="#0E3C7E"/>
<path d="M220.726 339.704C220.726 339.704 218.936 352.089 209.554 355.669C200.172 359.249 198.883 363.83 198.883 363.83C198.883 363.83 241.639 364.904 242.355 363.83C243.071 362.757 233.331 337.914 232.758 337.771C232.257 337.628 220.726 339.704 220.726 339.704Z" fill="#0E3C7E"/>
<path d="M236.339 341.136C236.339 341.136 222.302 343.069 212.419 341.136C212.419 341.136 198.74 257.087 199.098 249.283C199.456 241.48 204.254 179.767 204.254 179.767C204.254 179.767 201.031 177.978 201.39 172.179C201.748 166.308 204.397 154.066 204.397 154.066L243.931 168.098C243.931 168.098 240.564 197.021 233.832 197.164C233.832 197.164 221.443 247.135 221.514 249.784C221.586 252.505 236.339 341.136 236.339 341.136Z" fill="#00122C"/>
<path d="M251.967 107.701L251.966 107.703C251.609 109.214 250.431 113.139 248.972 118C247.959 121.375 246.81 125.201 245.706 128.985C244.363 133.591 243.09 138.125 242.218 141.677C241.783 143.451 241.446 144.99 241.252 146.173C241.155 146.763 241.091 147.276 241.07 147.691C241.051 148.08 241.063 148.464 241.175 148.741C241.329 149.119 241.582 149.545 241.873 150C242.033 150.25 242.216 150.526 242.41 150.817C242.566 151.053 242.729 151.298 242.892 151.547C243.635 152.687 244.46 154.047 245.096 155.63C246.331 158.709 246.86 162.658 244.569 167.485L244.376 167.46C244.018 167.414 243.492 167.346 242.824 167.259C241.486 167.086 239.575 166.836 237.281 166.531C232.693 165.92 226.574 165.088 220.449 164.202C214.322 163.317 208.194 162.378 203.587 161.554C201.282 161.142 199.366 160.76 198.024 160.429C197.351 160.263 196.837 160.114 196.496 159.984C196.388 159.944 196.306 159.908 196.246 159.878C196.254 159.778 196.267 159.646 196.283 159.486C196.318 159.136 196.372 158.651 196.443 158.044C196.586 156.831 196.8 155.134 197.086 153.06L197.086 153.06L197.087 153.054C197.462 150.058 198 146.245 198.607 141.941C198.696 141.314 198.786 140.678 198.877 140.032L198.877 140.031C200.595 127.72 202.94 111.831 205.133 98.4932C206.229 91.8238 207.286 85.7963 208.208 81.1745C208.669 78.8631 209.095 76.9082 209.474 75.4024C209.857 73.8772 210.181 72.8643 210.426 72.3973L210.428 72.3944C211.99 69.3759 213.898 67.8952 215.387 67.1635C216.135 66.7959 216.785 66.614 217.241 66.524C217.469 66.479 217.649 66.457 217.769 66.4463C217.828 66.441 217.873 66.4384 217.901 66.4372C217.915 66.4366 217.925 66.4364 217.93 66.4362L217.933 66.4362L217.934 66.4362L217.934 66.4362L217.935 66.4362L217.935 66.4362L217.938 66.4361L217.933 65.9362C217.938 66.4361 217.938 66.4361 217.939 66.4361L217.939 66.4361L217.943 66.4361L217.958 66.4359L218.019 66.4354L218.254 66.4337C218.461 66.4323 218.765 66.4306 219.154 66.4296C219.931 66.4275 221.046 66.4278 222.395 66.4373C225.093 66.4563 228.726 66.5121 232.47 66.6595C236.216 66.807 240.063 67.0457 243.192 67.4291C244.757 67.621 246.131 67.8477 247.218 68.1141C248.327 68.3859 249.059 68.6817 249.413 68.9701C249.556 69.091 249.726 69.3156 249.907 69.6772C250.085 70.0343 250.26 70.4936 250.427 71.0495C250.763 72.1612 251.058 73.6147 251.314 75.3131C251.825 78.7072 252.169 83.0235 252.365 87.4182C252.562 91.8108 252.611 96.2699 252.535 99.9455C252.459 103.643 252.256 106.492 251.967 107.701Z" fill="white" stroke="black"/>
<path d="M238.774 60.2088L236.339 68.5851L225.31 71.234L219.724 69.1578L218.363 68.6567C218.363 68.6567 218.291 63.0009 218.291 59.9225C218.291 56.7724 214.496 56.5576 214.496 56.5576L224.236 48.6825L224.737 48.3246L235.193 47.9666L238.774 60.2088Z" fill="white"/>
<path d="M220.225 61.7839C220.297 65.2203 220.01 67.5829 219.795 69.1579L218.434 68.6567C218.434 68.6567 218.363 63.001 218.363 59.9225C218.363 56.7725 214.567 56.5577 214.567 56.5577L224.307 48.6826C225.74 50.4008 227.745 52.9781 227.745 52.9781C227.745 52.9781 220.153 55.1975 220.225 61.7839Z" fill="#515BD4"/>
<path d="M219.652 68.0124L218.506 68.6567L220.225 70.4465L219.652 68.0124Z" fill="#E5E5E6"/>
<path d="M238.774 60.2088L219.652 68.0124L216.286 81.6864L240.135 66.5089L238.774 60.2088Z" fill="#AFD0FF"/>
<path d="M218.506 68.6567L218.434 63.3589L214.066 67.726L218.506 68.6567Z" fill="#E5E5E5"/>
<path d="M145.825 142.918L145.84 142.891L145.85 142.863L145.851 142.863L145.851 142.863L145.851 142.863L145.851 142.862L145.854 142.855C145.857 142.847 145.862 142.836 145.868 142.82C145.882 142.788 145.903 142.739 145.931 142.676C145.988 142.551 146.076 142.369 146.195 142.153C146.434 141.719 146.795 141.152 147.285 140.612C148.264 139.533 149.715 138.597 151.744 138.951C153.564 139.269 155.764 139.919 157.837 140.531C158.294 140.666 158.745 140.799 159.184 140.926C160.387 141.275 161.507 141.581 162.403 141.749C162.85 141.833 163.261 141.887 163.608 141.889C163.933 141.892 164.298 141.853 164.575 141.663C164.706 141.573 164.846 141.431 164.903 141.222C164.961 141.008 164.906 140.816 164.833 140.677C164.703 140.432 164.451 140.231 164.228 140.077C163.845 139.811 163.29 139.515 162.726 139.213C162.596 139.143 162.465 139.073 162.336 139.003C161.621 138.617 160.93 138.222 160.45 137.825C160.211 137.627 160.052 137.452 159.967 137.303C159.888 137.166 159.886 137.082 159.902 137.022C159.904 137.02 159.909 137.015 159.917 137.009C159.947 136.987 160.012 136.953 160.134 136.923C160.383 136.862 160.76 136.843 161.263 136.873C162.262 136.933 163.602 137.176 165.057 137.481C165.694 137.614 166.359 137.76 167.022 137.906C167.847 138.087 168.668 138.268 169.424 138.421C170.787 138.697 172.045 138.907 172.897 138.887C173.855 138.865 174.903 138.803 175.9 138.744C176.542 138.706 177.162 138.669 177.723 138.645C178.454 138.614 179.09 138.604 179.582 138.635C179.828 138.65 180.024 138.675 180.171 138.708C180.234 138.722 180.282 138.736 180.318 138.75C180.318 138.75 180.318 138.75 180.318 138.75C180.34 138.84 180.361 138.978 180.378 139.17C180.411 139.551 180.422 140.08 180.416 140.716C180.402 141.983 180.318 143.628 180.211 145.263C180.104 146.897 179.974 148.513 179.871 149.721C179.82 150.325 179.775 150.827 179.744 151.178C179.735 151.272 179.727 151.354 179.721 151.425C179.633 151.461 179.526 151.504 179.4 151.554C179.015 151.709 178.463 151.93 177.794 152.195C176.456 152.726 174.652 153.434 172.788 154.145C170.923 154.855 169.003 155.567 167.43 156.104C166.643 156.373 165.948 156.597 165.393 156.755C164.819 156.918 164.445 156.996 164.273 157.003C164.103 157.009 163.712 156.955 163.099 156.823C162.506 156.696 161.757 156.509 160.904 156.277C159.199 155.814 157.099 155.181 155.045 154.521C152.99 153.86 150.989 153.174 149.482 152.605C148.727 152.32 148.104 152.068 147.663 151.864C147.441 151.762 147.276 151.678 147.166 151.612C147.137 151.595 147.115 151.58 147.099 151.569C147.09 151.546 147.08 151.517 147.069 151.482C147.042 151.399 147.01 151.291 146.974 151.16C146.902 150.897 146.818 150.554 146.728 150.154C146.548 149.354 146.346 148.341 146.173 147.316C145.999 146.289 145.856 145.261 145.792 144.429C145.76 144.011 145.748 143.655 145.76 143.377C145.766 143.238 145.777 143.127 145.792 143.043C145.8 143.002 145.808 142.971 145.815 142.948C145.821 142.927 145.825 142.918 145.825 142.918ZM147.06 151.539C147.06 151.539 147.062 151.541 147.066 151.545C147.061 151.541 147.059 151.539 147.06 151.539Z" fill="white" stroke="black"/>
<path d="M231.111 146.978C227.1 146.048 205.973 150.773 196.591 152.992C197.021 149.556 197.665 145.045 198.382 139.962L237.986 100.014L250.806 95.5753C250.806 95.5753 237.986 132.302 233.689 135.452C229.464 138.602 231.183 141.824 233.689 142.182C236.124 142.611 236.339 148.195 231.111 146.978Z" fill="#DBE5FF"/>
<path d="M186.934 150.477L187.201 136.724C187.37 136.657 187.605 136.563 187.898 136.446C188.537 136.19 189.451 135.824 190.548 135.382C192.743 134.5 195.674 133.316 198.616 132.111C201.557 130.908 204.513 129.682 206.756 128.717C207.877 128.235 208.824 127.816 209.505 127.497C209.844 127.337 210.123 127.199 210.327 127.089C210.428 127.034 210.518 126.981 210.592 126.933C210.628 126.908 210.668 126.88 210.705 126.848C210.733 126.824 210.8 126.765 210.85 126.674C210.88 126.622 210.918 126.529 210.951 126.448C210.991 126.351 211.043 126.218 211.108 126.054C211.236 125.725 211.414 125.263 211.635 124.684C212.077 123.528 212.691 121.905 213.426 119.958C213.77 119.047 214.14 118.066 214.531 117.028C215.815 113.627 217.327 109.62 218.884 105.516C222.954 94.7898 227.313 83.4524 228.698 80.541C230.019 77.7637 232.843 75.7039 235.971 74.5771C239.106 73.448 242.427 73.2982 244.675 74.2035C245.743 74.6339 246.805 75.6251 247.761 77.0655C248.711 78.498 249.526 80.3332 250.12 82.3805C251.308 86.4818 251.582 91.355 250.328 95.4279C249.703 97.4422 247.772 101.179 245.173 105.713C242.584 110.229 239.361 115.487 236.185 120.518C233.009 125.548 229.882 130.348 227.488 133.948C226.29 135.748 225.276 137.247 224.531 138.324C224.159 138.862 223.855 139.293 223.629 139.603C223.517 139.758 223.425 139.88 223.356 139.969C223.297 140.044 223.265 140.081 223.255 140.093C223.248 140.097 223.219 140.115 223.155 140.147C223.068 140.191 222.946 140.244 222.787 140.308C222.469 140.435 222.031 140.593 221.485 140.777C220.394 141.144 218.896 141.608 217.127 142.134C213.59 143.187 208.986 144.483 204.417 145.745C199.848 147.006 195.317 148.232 191.928 149.142C190.234 149.597 188.825 149.974 187.84 150.236C187.479 150.332 187.175 150.413 186.934 150.477Z" fill="white" stroke="black"/>
<path d="M179.546 138.173C179.546 138.173 180.334 144.616 178.615 152.419L186.779 150.988C186.779 150.988 190.074 141.537 186.708 136.383L179.546 138.173Z" fill="#0E3C7E"/>
<path d="M140.514 103.809C140.443 103.451 140.371 103.164 140.299 102.949C140.371 103.236 140.443 103.451 140.514 103.809Z" fill="#F9A826"/>
<path d="M208.122 27.4915C208.122 27.4915 207.835 50.7589 208.122 53.8373C208.408 56.9158 210.485 57.4169 210.843 57.4885C211.273 57.5601 235.981 50.6873 235.981 50.6873L243.358 38.0871L232.758 22.0505L214.567 17.397C214.639 17.397 208.122 23.3391 208.122 27.4915Z" fill="white"/>
<path d="M209.769 24.1982C209.769 24.1982 212.777 21.8357 214.066 24.1982C215.355 26.5608 216.143 32.5029 223.09 32.6461C230.037 32.7893 229.965 38.5882 229.965 38.5882C229.965 38.5882 225.31 14.9629 224.809 14.6049C224.379 14.247 209.411 12.3856 209.411 12.3856L209.769 24.1982Z" fill="#CBCBCB"/>
<path d="M229.893 38.588C229.893 38.588 232.686 34.2925 235.48 36.1539C238.273 38.0153 234.692 46.5347 229.177 47.895C229.177 47.895 231.039 57.202 231.397 57.0588C231.755 56.9156 240.708 54.1951 240.708 54.1951C240.708 54.1951 253.026 40.521 250.448 28.9947C247.869 17.4684 221.442 4.43867 215.498 5.29777C209.554 6.15687 208.48 12.8149 208.48 12.8149C208.48 12.8149 203.323 12.6717 202.464 15.1775C201.604 17.7548 198.525 31.4288 208.121 34.1493C208.121 34.1493 207.978 25.7731 209.769 24.0549C209.769 24.0549 211.201 20.7616 213.063 21.5491C214.925 22.3367 214.997 32.2879 223.09 32.5027C231.182 32.8607 229.893 38.588 229.893 38.588Z" fill="#00265C"/>
<path d="M234.907 38.5882C234.907 38.5882 231.827 36.4404 230.538 43.0985C230.466 43.0985 232.185 38.5166 234.907 38.5882Z" fill="#515BD4"/>
</g>
<defs>
<clipPath id="clip0_190_51">
<rect width="253.098" height="364.332" fill="white"/>
</clipPath>
</defs>
</svg>
