<svg width="468" height="359" viewBox="0 0 468 359" fill="none" xmlns="http://www.w3.org/2000/svg">
<path opacity="0.4" d="M322.46 90.2959L317.604 96.4383L291.018 130.001L286.163 114.798L159.074 148.055C151.876 149.921 144.27 148.835 137.887 145.034L137.14 144.593C129.093 139.774 119.042 139.74 110.961 144.559L64.9538 171.946L58.3668 153.586L55.0054 144.22L118.703 117.139C127.361 113.44 137.276 114.187 145.323 119.074C150.789 123.451 157.614 125.521 164.473 125.046C166.034 124.944 167.596 124.707 169.158 124.3L277.403 97.6939L270.442 82.0834L322.46 90.2959Z" fill="#184688"/>
<path opacity="0.4" d="M426.384 5.92356L422.33 48.544L409.985 38.4254L321.424 135.434C316.398 140.914 309.425 144.138 302 144.419L301.134 144.455C291.759 144.786 283.307 150.222 279.146 158.66L255.434 206.657L239.92 194.831L278.048 136.928C283.313 128.947 292.115 124.175 301.759 124.073C308.896 124.908 315.909 122.993 321.434 118.847C322.718 117.894 323.881 116.817 324.989 115.654L401.713 33.0285L386.841 23.1316L426.384 5.92356Z" fill="#6681A9"/>
<path opacity="0.5" d="M206.677 336.296C206.677 336.296 208.205 329.17 200.26 328.457C200.26 328.457 198.868 334.396 206.677 336.296Z" fill="#285698"/>
<path d="M207.016 338.943C207.016 338.943 213.06 340.233 213.637 333.48C213.637 333.446 208.578 332.292 207.016 338.943Z" fill="#285698"/>
<path d="M206.575 335.346C206.575 335.346 208.273 344.136 206.949 348.513" stroke="#285698" stroke-miterlimit="10" stroke-linecap="round" stroke-linejoin="round"/>
<path d="M284.024 324.996C284.024 324.996 276.86 323.638 279.304 316.003C279.304 316.003 285.314 317.055 284.024 324.996Z" fill="#285698"/>
<path opacity="0.5" d="M284.873 316.376C285.144 316.07 284.363 314.306 284.228 313.932C283.005 310.064 284.126 304.838 287.589 302.394C287.725 303.989 287.827 305.516 288.2 307.077C288.811 309.521 288.54 310.878 287.182 312.914C286.435 314.136 285.857 315.29 284.873 316.376Z" fill="#285698"/>
<path opacity="0.5" d="M283.922 332.292C283.922 332.292 282.394 325.166 290.339 324.453C290.339 324.453 291.765 330.392 283.922 332.292Z" fill="#285698"/>
<path d="M283.854 338.875C283.854 338.875 277.81 340.165 277.233 333.412C277.199 333.378 282.258 332.224 283.854 338.875Z" fill="#285698"/>
<path d="M286.672 304.837C286.672 304.837 282.631 323.027 283.955 348.445" stroke="#285698" stroke-miterlimit="10" stroke-linecap="round" stroke-linejoin="round"/>
<path d="M362.797 279.216C362.797 279.216 365.819 272.564 358.179 270.189C358.179 270.189 355.565 275.686 362.797 279.216Z" fill="#285698"/>
<path opacity="0.5" d="M364.494 292.96C364.426 292.655 365.683 291.773 365.886 291.569C368.229 289.465 369.587 285.494 368.229 282.474C367.482 283.492 366.837 284.476 365.92 285.393C364.528 286.784 364.155 287.802 364.257 289.736C364.359 290.822 364.257 291.84 364.494 292.96Z" fill="#285698"/>
<path opacity="0.5" d="M366.056 330.867C366.056 330.867 367.584 323.74 359.639 323.028C359.639 323.028 358.247 328.967 366.056 330.867Z" fill="#285698"/>
<path d="M365.818 305.754C365.818 305.754 365.649 298.458 357.737 299.646C357.703 299.68 357.771 305.788 365.818 305.754Z" fill="#285698"/>
<path d="M366.26 319.464C366.26 319.464 373.424 318.073 370.945 310.471C370.979 310.471 364.969 311.523 366.26 319.464Z" fill="#285698"/>
<path d="M366.158 337.077C366.158 337.077 372.202 338.367 372.779 331.613C372.779 331.613 367.72 330.459 366.158 337.077Z" fill="#285698"/>
<path d="M362.254 277.384C362.254 277.384 368.841 306.637 365.445 348.446" stroke="#285698" stroke-miterlimit="10" stroke-linecap="round" stroke-linejoin="round"/>
<path d="M456.578 279.216C456.578 279.216 453.556 272.564 461.195 270.189C461.161 270.189 463.81 275.686 456.578 279.216Z" fill="#285698"/>
<path opacity="0.5" d="M454.88 292.96C454.948 292.655 453.691 291.773 453.488 291.569C451.145 289.465 449.787 285.494 451.145 282.474C451.892 283.492 452.537 284.476 453.454 285.393C454.846 286.784 456.883 287.802 456.781 289.736C456.679 290.822 455.083 291.84 454.88 292.96Z" fill="#285698"/>
<path opacity="0.5" d="M459.022 264.149C459.09 263.844 457.834 262.961 457.63 262.758C455.287 260.654 453.929 256.683 455.287 253.663C456.034 254.681 456.679 255.665 457.596 256.581C458.988 257.973 459.361 258.991 459.26 260.925C459.158 262.045 459.26 263.063 459.022 264.149Z" fill="#285698"/>
<path opacity="0.5" d="M453.317 330.867C453.317 330.867 451.789 323.74 459.735 323.028C459.735 323.028 461.127 328.967 453.317 330.867Z" fill="#285698"/>
<path d="M453.827 305.754C453.827 305.754 453.997 298.458 461.908 299.646C461.908 299.68 462.621 305.788 453.827 305.754Z" fill="#285698"/>
<path d="M460.482 251.423C460.482 251.423 458.615 244.365 466.526 243.279C466.526 243.313 468.902 248.946 460.482 251.423Z" fill="#285698"/>
<path d="M453.08 319.464C453.08 319.464 445.916 318.073 448.394 310.471C448.394 310.471 454.404 311.523 453.08 319.464Z" fill="#285698"/>
<path d="M453.216 337.077C453.216 337.077 447.172 338.367 446.595 331.613C446.561 331.613 451.62 330.459 453.216 337.077Z" fill="#285698"/>
<path opacity="0.5" d="M462.995 234.183C462.995 234.183 460.143 227.702 467.579 225.496C467.579 225.496 470.057 230.858 462.995 234.183Z" fill="#285698"/>
<path d="M463.572 232.588C463.572 232.588 450.5 306.67 453.895 348.445" stroke="#285698" stroke-miterlimit="10" stroke-linecap="round" stroke-linejoin="round"/>
<path opacity="0.2" d="M188.783 289.668H145.458V348.513H188.783V289.668Z" fill="#285698"/>
<path opacity="0.5" d="M155.882 282.61L145.458 289.668H188.749L199.173 282.61H155.882Z" fill="#285698"/>
<path d="M188.75 348.513L199.173 341.454V282.61L188.75 289.668V348.513Z" fill="#3C6AAC"/>
<path opacity="0.2" d="M260.698 262.927H217.373V348.514H260.698V262.927Z" fill="#285698"/>
<path opacity="0.5" d="M227.796 256.276L217.373 262.928H260.664L271.088 256.276H227.796Z" fill="#285698"/>
<path d="M260.663 348.514L271.087 339.012V259.602V256.276L260.663 262.928V348.514Z" fill="#3C6AAC"/>
<path opacity="0.2" d="M343.307 222.713H299.982V348.344H343.307V222.713Z" fill="#285698"/>
<path opacity="0.5" d="M310.406 216.028L299.982 222.713H343.307L353.731 216.028H310.406Z" fill="#285698"/>
<path d="M343.307 348.513L353.731 339.011V219.387V216.028L343.307 222.713V348.513Z" fill="#3C6AAC"/>
<path opacity="0.2" d="M424.898 173.913H381.573V348.514H424.898V173.913Z" fill="#285698"/>
<path d="M391.997 167.262L381.573 173.914H424.864L435.288 167.262H391.997Z" fill="#3C6AAC"/>
<path d="M424.864 348.514L435.288 339.012V170.588V167.262L424.864 173.914V348.514Z" fill="#3C6AAC"/>
<path d="M402.76 274.431C409.567 274.431 415.085 268.916 415.085 262.113C415.085 255.309 409.567 249.794 402.76 249.794C395.953 249.794 390.435 255.309 390.435 262.113C390.435 268.916 395.953 274.431 402.76 274.431Z" fill="#A0BAFF"/>
<path d="M402.183 269.34C401.64 269.307 401.164 269.205 400.757 269.103C400.349 268.967 399.976 268.831 399.67 268.662C399.365 268.492 399.093 268.356 398.923 268.187C398.72 268.017 398.584 267.915 398.482 267.847C398.38 267.746 398.312 267.678 398.312 267.61C398.278 267.542 398.312 267.406 398.414 267.27L399.161 266.083C399.229 265.947 399.331 265.879 399.466 265.879C399.602 265.879 399.738 265.947 399.942 266.117C400.247 266.354 400.587 266.592 400.994 266.795C401.402 266.999 401.809 267.135 402.217 267.203V263.402C401.775 263.232 401.3 262.994 400.859 262.791C400.417 262.553 399.976 262.282 399.602 261.942C399.229 261.603 398.923 261.196 398.686 260.755C398.448 260.28 398.346 259.737 398.346 259.092C398.346 258.617 398.414 258.176 398.584 257.768C398.72 257.361 398.957 256.954 399.297 256.648C399.602 256.309 400.01 256.038 400.519 255.834C400.994 255.596 401.572 255.461 402.251 255.427V254.816C402.251 254.714 402.285 254.612 402.353 254.544C402.42 254.477 402.522 254.443 402.624 254.443H402.862C402.964 254.443 403.066 254.477 403.134 254.544C403.201 254.612 403.235 254.714 403.235 254.816V255.461C403.677 255.495 404.084 255.563 404.458 255.698C404.831 255.8 405.171 255.936 405.476 256.072C405.782 256.207 406.02 256.343 406.223 256.479C406.427 256.615 406.563 256.682 406.665 256.75C406.767 256.818 406.834 256.92 406.834 257.056C406.868 257.191 406.834 257.293 406.767 257.395L405.986 258.515C405.816 258.753 405.646 258.786 405.442 258.685C405.171 258.515 404.831 258.311 404.458 258.108C404.084 257.904 403.677 257.734 403.201 257.633V261.196C403.643 261.366 404.084 261.603 404.56 261.841C405.035 262.078 405.476 262.384 405.884 262.723C406.291 263.062 406.597 263.504 406.868 263.979C407.14 264.454 407.276 264.997 407.276 265.641C407.276 266.693 406.936 267.61 406.223 268.322C405.51 269.035 404.526 269.442 403.201 269.51V271.546C403.201 271.648 403.167 271.75 403.1 271.784C403.032 271.852 402.93 271.886 402.828 271.886C402.726 271.886 402.59 271.886 402.42 271.852C402.285 271.818 402.217 271.716 402.217 271.546V269.34H402.183ZM402.183 257.463C401.673 257.531 401.3 257.7 401.062 257.938C400.825 258.21 400.689 258.515 400.689 258.888C400.689 259.295 400.825 259.601 401.062 259.872C401.3 260.11 401.673 260.381 402.183 260.653V257.463ZM403.167 267.203C403.609 267.135 403.982 266.999 404.254 266.761C404.526 266.524 404.661 266.184 404.661 265.743C404.661 265.37 404.56 264.997 404.322 264.657C404.084 264.318 403.711 264.013 403.167 263.741V267.203Z" fill="#F6F7F7"/>
<path opacity="0.9" d="M333.596 261.094C333.596 268.357 329.658 274.228 324.802 274.228C324.632 274.228 324.463 274.228 324.259 274.194H320.388C321.135 274.194 321.848 274.058 322.561 273.786C323.546 273.413 324.463 272.802 325.278 271.954C327.62 269.612 329.148 265.608 329.148 261.061C329.148 256.513 327.62 252.543 325.278 250.167C324.463 249.353 323.546 248.742 322.561 248.335C321.848 248.063 321.135 247.927 320.354 247.927H324.734C324.904 247.927 325.074 247.927 325.244 247.961C329.929 248.368 333.596 254.104 333.596 261.094Z" fill="#6492D4"/>
<path d="M329.216 261.095C329.216 265.643 327.688 269.613 325.345 271.989C324.531 272.803 323.614 273.448 322.629 273.821C321.95 274.093 321.203 274.228 320.456 274.228C320.32 274.228 320.184 274.228 320.049 274.228C315.397 273.923 311.662 268.154 311.662 261.129C311.662 254.104 315.363 248.335 320.049 248.03C320.184 248.03 320.32 248.03 320.456 248.03C321.203 248.03 321.95 248.166 322.663 248.437C323.648 248.81 324.565 249.421 325.379 250.27C327.654 252.543 329.216 256.548 329.216 261.095Z" fill="#A0BAFF"/>
<path d="M320.015 268.764C319.642 268.73 319.302 268.629 318.996 268.493C318.691 268.357 318.453 268.187 318.216 268.052C317.978 267.916 317.808 267.712 317.672 267.543C317.536 267.373 317.435 267.237 317.367 267.169C317.299 267.067 317.265 266.966 317.231 266.898C317.197 266.83 317.231 266.694 317.299 266.558L317.842 265.303C317.91 265.167 317.978 265.099 318.046 265.099C318.148 265.099 318.249 265.167 318.385 265.371C318.589 265.642 318.861 265.88 319.132 266.083C319.404 266.287 319.709 266.423 320.015 266.491V262.418C319.676 262.215 319.37 262.011 319.03 261.74C318.691 261.502 318.419 261.197 318.148 260.823C317.876 260.484 317.672 260.043 317.502 259.568C317.333 259.093 317.265 258.482 317.265 257.803C317.265 257.294 317.333 256.819 317.435 256.378C317.536 255.937 317.706 255.529 317.944 255.156C318.182 254.817 318.453 254.511 318.793 254.274C319.132 254.036 319.54 253.9 320.015 253.832V253.154C320.015 253.052 320.049 252.95 320.083 252.882C320.151 252.814 320.185 252.78 320.287 252.78H320.456C320.524 252.78 320.592 252.814 320.66 252.882C320.694 252.95 320.728 253.052 320.728 253.154V253.832C321.034 253.866 321.339 253.968 321.611 254.07C321.883 254.172 322.12 254.308 322.358 254.477C322.562 254.613 322.765 254.749 322.901 254.885C323.037 255.02 323.139 255.122 323.207 255.19C323.275 255.258 323.309 255.36 323.343 255.495C323.343 255.631 323.343 255.767 323.309 255.869L322.765 257.09C322.629 257.328 322.528 257.396 322.392 257.26C322.188 257.056 321.95 256.853 321.679 256.649C321.407 256.412 321.102 256.276 320.796 256.14V259.941C321.102 260.145 321.441 260.348 321.781 260.62C322.12 260.891 322.426 261.197 322.697 261.57C322.969 261.943 323.207 262.384 323.41 262.893C323.614 263.402 323.682 263.979 323.682 264.658C323.682 265.812 323.444 266.728 322.935 267.509C322.426 268.255 321.713 268.696 320.796 268.764V270.936C320.796 271.038 320.762 271.14 320.728 271.208C320.66 271.276 320.592 271.309 320.524 271.309C320.456 271.309 320.355 271.276 320.253 271.242C320.151 271.208 320.083 271.106 320.083 270.936V268.764H320.015ZM320.015 256.14C319.676 256.208 319.404 256.378 319.234 256.649C319.064 256.921 318.962 257.26 318.962 257.667C318.962 258.074 319.064 258.414 319.234 258.685C319.404 258.957 319.676 259.228 320.015 259.5V256.14ZM320.728 266.525C321.034 266.457 321.305 266.321 321.509 266.083C321.713 265.846 321.815 265.473 321.815 264.997C321.815 264.59 321.747 264.217 321.577 263.844C321.407 263.47 321.136 263.165 320.762 262.859V266.525H320.728Z" fill="#F6F7F7"/>
<path opacity="0.9" d="M413.218 314.985C413.218 322.247 409.279 328.118 404.424 328.118C404.254 328.118 404.084 328.118 403.881 328.084H400.01C400.757 328.084 401.47 327.948 402.183 327.677C403.167 327.304 404.084 326.693 404.899 325.844C407.242 323.503 408.77 319.498 408.77 314.951C408.77 310.404 407.242 306.433 404.899 304.057C404.084 303.243 403.167 302.632 402.183 302.225C401.47 301.953 400.757 301.818 399.976 301.818H404.356C404.526 301.818 404.695 301.818 404.865 301.852C409.551 302.259 413.218 307.994 413.218 314.985Z" fill="#6492D4"/>
<path d="M408.838 314.985C408.838 319.533 407.31 323.503 404.967 325.879C404.152 326.693 403.236 327.338 402.251 327.711C401.572 327.983 400.825 328.119 400.078 328.119C399.942 328.119 399.806 328.119 399.671 328.119C395.019 327.813 391.284 322.044 391.284 315.019C391.284 307.995 394.985 302.226 399.671 301.92C399.806 301.92 399.942 301.92 400.078 301.92C400.825 301.92 401.572 302.056 402.285 302.327C403.27 302.701 404.186 303.312 405.001 304.16C407.31 306.434 408.838 310.438 408.838 314.985Z" fill="#A0BAFF"/>
<path d="M399.637 322.655C399.263 322.621 398.924 322.519 398.618 322.384C398.312 322.248 398.075 322.078 397.837 321.942C397.599 321.773 397.43 321.603 397.294 321.433C397.158 321.264 397.056 321.128 396.988 321.06C396.92 320.958 396.886 320.857 396.852 320.789C396.818 320.721 396.852 320.585 396.92 320.449L397.464 319.194C397.531 319.058 397.599 318.99 397.667 318.99C397.769 318.99 397.871 319.058 398.007 319.262C398.211 319.533 398.482 319.771 398.754 319.974C399.025 320.178 399.331 320.314 399.637 320.381V316.309C399.297 316.106 398.991 315.902 398.652 315.63C398.312 315.393 398.041 315.087 397.769 314.714C397.498 314.375 397.294 313.934 397.124 313.459C396.954 312.983 396.886 312.373 396.886 311.694C396.886 311.185 396.954 310.71 397.056 310.269C397.158 309.827 397.328 309.42 397.565 309.047C397.803 308.708 398.075 308.402 398.414 308.165C398.754 307.927 399.161 307.791 399.637 307.723V307.045C399.637 306.943 399.671 306.841 399.704 306.773C399.772 306.705 399.806 306.671 399.908 306.671H400.078C400.146 306.671 400.214 306.705 400.282 306.773C400.316 306.841 400.35 306.943 400.35 307.045V307.723C400.655 307.757 400.961 307.859 401.232 307.961C401.504 308.063 401.742 308.198 401.979 308.368C402.217 308.538 402.387 308.64 402.523 308.775C402.658 308.911 402.76 309.013 402.828 309.081C402.896 309.149 402.93 309.25 402.964 309.386C402.964 309.522 402.964 309.658 402.93 309.76L402.387 310.981C402.251 311.219 402.149 311.287 402.013 311.151C401.81 310.947 401.572 310.744 401.3 310.54C401.029 310.303 400.723 310.167 400.418 310.031V313.832C400.723 314.035 401.063 314.239 401.402 314.511C401.742 314.782 402.047 315.087 402.319 315.461C402.591 315.834 402.828 316.275 403.032 316.784C403.236 317.293 403.304 317.87 403.304 318.549C403.304 319.703 403.066 320.619 402.557 321.4C402.047 322.146 401.334 322.587 400.418 322.655V324.827C400.418 324.929 400.384 325.031 400.35 325.099C400.282 325.166 400.214 325.2 400.146 325.2C400.078 325.2 399.976 325.166 399.874 325.132C399.772 325.099 399.704 324.997 399.704 324.827V322.655H399.637ZM399.637 310.031C399.297 310.099 399.025 310.269 398.856 310.54C398.686 310.812 398.584 311.151 398.584 311.558C398.584 311.965 398.686 312.305 398.856 312.576C399.025 312.848 399.297 313.119 399.637 313.391V310.031ZM400.35 320.381C400.655 320.314 400.927 320.178 401.131 319.94C401.334 319.703 401.436 319.329 401.436 318.854C401.436 318.447 401.368 318.074 401.198 317.701C401.029 317.327 400.757 317.022 400.384 316.716V320.381H400.35Z" fill="#F6F7F7"/>
<path opacity="0.9" d="M247.218 304.838C247.218 312.575 245.113 318.854 242.532 318.854H238.186C238.967 318.854 239.748 318.311 240.393 317.327C241.31 316.003 242.057 313.899 242.532 311.32C242.872 309.386 243.075 307.18 243.075 304.838C243.075 302.497 242.872 300.291 242.532 298.356C242.057 295.777 241.31 293.673 240.393 292.35C239.748 291.399 238.967 290.823 238.186 290.823H242.532C245.113 290.823 247.218 297.101 247.218 304.838Z" fill="#6492D4"/>
<path d="M243.075 304.838C243.075 307.18 242.872 309.386 242.532 311.32C242.057 313.899 241.31 316.003 240.393 317.327C239.748 318.277 238.967 318.854 238.186 318.854H238.152C235.436 318.854 233.229 312.576 233.229 304.838C233.229 297.101 235.436 290.823 238.152 290.823H238.186C238.967 290.823 239.748 291.366 240.393 292.35C241.31 293.673 242.057 295.777 242.532 298.356C242.872 300.291 243.075 302.497 243.075 304.838Z" fill="#A0BAFF"/>
<path d="M237.914 313.051C237.711 313.017 237.507 312.916 237.337 312.746C237.167 312.61 237.032 312.44 236.896 312.271C236.76 312.101 236.658 311.931 236.59 311.728C236.522 311.558 236.454 311.422 236.42 311.321C236.386 311.219 236.353 311.117 236.353 311.015C236.353 310.913 236.353 310.811 236.387 310.642L236.692 309.318C236.726 309.183 236.76 309.081 236.828 309.081C236.862 309.081 236.93 309.183 237.032 309.352C237.167 309.624 237.303 309.895 237.439 310.099C237.609 310.336 237.745 310.472 237.914 310.54V306.196C237.745 305.993 237.541 305.755 237.371 305.484C237.201 305.212 237.032 304.907 236.862 304.533C236.726 304.16 236.59 303.719 236.488 303.176C236.387 302.667 236.353 302.022 236.353 301.276C236.353 300.733 236.387 300.223 236.454 299.748C236.522 299.273 236.624 298.832 236.726 298.459C236.862 298.086 236.998 297.78 237.201 297.509C237.405 297.271 237.643 297.101 237.88 297.034V296.321C237.88 296.219 237.881 296.117 237.914 296.015C237.948 295.948 237.982 295.88 238.016 295.88H238.118C238.152 295.88 238.186 295.914 238.22 296.015C238.254 296.083 238.254 296.185 238.254 296.321V297.067C238.424 297.101 238.594 297.203 238.729 297.339C238.899 297.475 239.035 297.61 239.137 297.746C239.273 297.916 239.341 298.052 239.442 298.187C239.51 298.323 239.578 298.425 239.612 298.493C239.646 298.561 239.68 298.662 239.68 298.832C239.68 298.968 239.68 299.104 239.646 299.239L239.341 300.529C239.273 300.8 239.205 300.868 239.137 300.699C239.035 300.495 238.899 300.257 238.763 300.02C238.628 299.782 238.458 299.613 238.254 299.477V303.549C238.424 303.753 238.594 303.99 238.797 304.262C239.001 304.533 239.171 304.873 239.307 305.28C239.476 305.687 239.612 306.162 239.714 306.705C239.816 307.248 239.884 307.893 239.884 308.606C239.884 309.827 239.748 310.845 239.476 311.626C239.205 312.44 238.797 312.882 238.288 312.983V315.291C238.288 315.393 238.288 315.495 238.254 315.596C238.22 315.664 238.186 315.698 238.152 315.698C238.118 315.698 238.05 315.664 237.982 315.63C237.914 315.596 237.88 315.495 237.88 315.291V313.051H237.914ZM237.914 299.579C237.711 299.647 237.575 299.85 237.473 300.122C237.371 300.427 237.337 300.766 237.337 301.208C237.337 301.649 237.371 302.022 237.473 302.294C237.575 302.599 237.711 302.87 237.914 303.176V299.579ZM238.322 310.642C238.492 310.574 238.628 310.404 238.763 310.167C238.865 309.895 238.933 309.522 238.933 309.013C238.933 308.572 238.899 308.164 238.797 307.791C238.695 307.418 238.56 307.045 238.322 306.739V310.642Z" fill="#F6F7F7"/>
<path opacity="0.9" d="M327.79 314.068C327.79 321.806 325.685 328.084 323.105 328.084H318.759C319.539 328.084 320.32 327.541 320.966 326.557C321.882 325.233 322.629 323.129 323.105 320.55C323.444 318.616 323.648 316.41 323.648 314.068C323.648 311.727 323.444 309.521 323.105 307.587C322.629 305.008 321.882 302.904 320.966 301.58C320.32 300.63 319.539 300.053 318.759 300.053H323.105C325.719 300.053 327.79 306.331 327.79 314.068Z" fill="#6492D4"/>
<path d="M323.682 314.069C323.682 316.41 323.478 318.616 323.139 320.55C322.663 323.13 321.916 325.234 321 326.557C320.355 327.507 319.574 328.084 318.793 328.084H318.759C316.042 328.084 313.835 321.806 313.835 314.069C313.835 306.331 316.042 300.053 318.759 300.053H318.793C319.574 300.053 320.355 300.596 321 301.58C321.916 302.904 322.663 305.008 323.139 307.587C323.478 309.521 323.682 311.727 323.682 314.069Z" fill="#A0BAFF"/>
<path d="M318.521 322.282C318.317 322.248 318.113 322.146 317.943 321.976C317.774 321.84 317.638 321.671 317.502 321.501C317.366 321.331 317.264 321.162 317.196 320.958C317.129 320.788 317.061 320.653 317.027 320.551C316.993 320.449 316.959 320.347 316.959 320.245C316.959 320.144 316.959 320.042 316.993 319.872L317.298 318.549C317.332 318.413 317.366 318.311 317.434 318.311C317.468 318.311 317.536 318.413 317.638 318.583C317.774 318.854 317.909 319.126 318.045 319.329C318.215 319.567 318.351 319.703 318.521 319.77V315.427C318.351 315.223 318.147 314.985 317.977 314.714C317.808 314.442 317.638 314.137 317.468 313.764C317.332 313.39 317.196 312.949 317.095 312.406C316.993 311.897 316.959 311.252 316.959 310.506C316.959 309.963 316.993 309.454 317.061 308.979C317.129 308.504 317.23 308.063 317.332 307.689C317.468 307.316 317.604 307.01 317.808 306.739C318.011 306.501 318.249 306.332 318.487 306.264V305.551C318.487 305.449 318.487 305.348 318.521 305.246C318.555 305.178 318.589 305.11 318.622 305.11H318.724C318.758 305.11 318.792 305.144 318.826 305.246C318.86 305.314 318.86 305.416 318.86 305.551V306.298C319.03 306.332 319.2 306.434 319.336 306.569C319.505 306.705 319.641 306.841 319.743 306.977C319.879 307.146 319.947 307.282 320.049 307.418C320.116 307.553 320.184 307.655 320.218 307.723C320.252 307.791 320.286 307.893 320.286 308.063C320.286 308.198 320.286 308.334 320.252 308.47L319.947 309.759C319.879 310.031 319.811 310.099 319.743 309.929C319.641 309.725 319.505 309.488 319.369 309.25C319.234 309.013 319.064 308.843 318.86 308.707V312.78C319.03 312.983 319.2 313.221 319.403 313.492C319.607 313.764 319.777 314.103 319.913 314.51C320.082 314.918 320.218 315.393 320.32 315.936C320.422 316.479 320.49 317.123 320.49 317.836C320.49 319.058 320.354 320.076 320.082 320.856C319.811 321.671 319.403 322.112 318.894 322.214V324.521C318.894 324.623 318.894 324.725 318.86 324.827C318.826 324.895 318.792 324.929 318.758 324.929C318.724 324.929 318.656 324.895 318.589 324.861C318.521 324.827 318.487 324.725 318.487 324.521V322.282H318.521ZM318.521 308.775C318.317 308.843 318.181 309.047 318.079 309.318C317.977 309.624 317.943 309.963 317.943 310.404C317.943 310.845 317.977 311.219 318.079 311.49C318.181 311.795 318.317 312.067 318.521 312.372V308.775ZM318.928 319.838C319.098 319.77 319.234 319.601 319.369 319.363C319.471 319.092 319.539 318.718 319.539 318.209C319.539 317.768 319.505 317.361 319.403 316.988C319.302 316.614 319.166 316.241 318.928 315.936V319.838Z" fill="#F6F7F7"/>
<path opacity="0.9" d="M412.131 210.36C412.131 218.097 410.026 224.375 407.446 224.375H403.1C403.881 224.375 404.661 223.832 405.307 222.848C406.223 221.525 406.97 219.421 407.446 216.842C407.785 214.907 407.989 212.701 407.989 210.36C407.989 208.018 407.785 205.812 407.446 203.878C406.97 201.299 406.223 199.195 405.307 197.871C404.661 196.921 403.881 196.344 403.1 196.344H407.446C410.026 196.344 412.131 202.622 412.131 210.36Z" fill="#6492D4"/>
<path d="M407.989 210.361C407.989 212.702 407.786 214.908 407.446 216.843C406.971 219.422 406.224 221.526 405.307 222.849C404.662 223.799 403.881 224.376 403.1 224.376H403.066C400.35 224.376 398.143 218.098 398.143 210.361C398.143 202.623 400.35 196.345 403.066 196.345H403.1C403.881 196.345 404.662 196.888 405.307 197.872C406.224 199.196 406.971 201.3 407.446 203.879C407.786 205.813 407.989 208.019 407.989 210.361Z" fill="#A0BAFF"/>
<path d="M402.862 218.573C402.659 218.539 402.455 218.437 402.285 218.267C402.115 218.131 401.98 217.962 401.844 217.792C401.708 217.622 401.606 217.453 401.538 217.249C401.47 217.079 401.402 216.944 401.368 216.842C401.334 216.74 401.301 216.638 401.301 216.536C401.301 216.435 401.301 216.333 401.334 216.163L401.64 214.84C401.674 214.704 401.708 214.602 401.776 214.602C401.81 214.602 401.878 214.704 401.98 214.873C402.115 215.145 402.251 215.416 402.387 215.62C402.557 215.858 402.693 215.993 402.862 216.061V211.717C402.693 211.514 402.489 211.276 402.319 211.005C402.149 210.733 401.98 210.428 401.81 210.055C401.674 209.681 401.538 209.24 401.436 208.697C401.334 208.188 401.301 207.543 401.301 206.797C401.301 206.254 401.334 205.745 401.402 205.27C401.47 204.795 401.572 204.353 401.674 203.98C401.81 203.607 401.946 203.301 402.149 203.03C402.353 202.792 402.591 202.623 402.828 202.555V201.842C402.828 201.74 402.828 201.638 402.862 201.537C402.896 201.469 402.93 201.401 402.964 201.401H403.066C403.1 201.401 403.134 201.435 403.168 201.537C403.202 201.605 403.202 201.706 403.202 201.842V202.589C403.372 202.623 403.541 202.724 403.677 202.86C403.847 202.996 403.983 203.132 404.085 203.267C404.22 203.437 404.288 203.573 404.39 203.709C404.458 203.844 404.526 203.946 404.56 204.014C404.594 204.082 404.628 204.184 404.628 204.353C404.628 204.489 404.628 204.625 404.594 204.761L404.288 206.05C404.22 206.322 404.153 206.39 404.085 206.22C403.983 206.016 403.847 205.779 403.711 205.541C403.575 205.304 403.406 205.134 403.202 204.998V209.07C403.372 209.274 403.541 209.512 403.745 209.783C403.949 210.055 404.119 210.394 404.254 210.801C404.424 211.208 404.56 211.684 404.662 212.226C404.764 212.769 404.832 213.414 404.832 214.127C404.832 215.349 404.696 216.367 404.424 217.147C404.153 217.962 403.745 218.403 403.236 218.505V220.812C403.236 220.914 403.236 221.016 403.202 221.118C403.168 221.186 403.134 221.22 403.1 221.22C403.066 221.22 402.998 221.186 402.93 221.152C402.862 221.118 402.828 221.016 402.828 220.812V218.573H402.862ZM402.862 205.1C402.659 205.168 402.523 205.371 402.421 205.643C402.319 205.948 402.285 206.288 402.285 206.729C402.285 207.17 402.319 207.543 402.421 207.815C402.523 208.12 402.659 208.392 402.862 208.697V205.1ZM403.236 216.163C403.406 216.095 403.541 215.926 403.677 215.688C403.779 215.416 403.847 215.043 403.847 214.534C403.847 214.093 403.813 213.686 403.711 213.312C403.609 212.939 403.473 212.566 403.236 212.26V216.163V216.163Z" fill="#F6F7F7"/>
<path d="M167.121 330.155C173.928 330.155 179.446 324.64 179.446 317.836C179.446 311.033 173.928 305.517 167.121 305.517C160.314 305.517 154.795 311.033 154.795 317.836C154.795 324.64 160.314 330.155 167.121 330.155Z" fill="#A0BAFF"/>
<path d="M166.543 325.065C166 325.031 165.525 324.93 165.117 324.828C164.71 324.692 164.336 324.556 164.031 324.387C163.725 324.217 163.454 324.081 163.284 323.912C163.08 323.742 162.944 323.64 162.842 323.572C162.741 323.47 162.673 323.403 162.673 323.335C162.639 323.267 162.673 323.131 162.775 322.995L163.521 321.808C163.589 321.672 163.691 321.604 163.827 321.604C163.963 321.604 164.099 321.672 164.302 321.841C164.608 322.079 164.948 322.317 165.355 322.52C165.762 322.724 166.17 322.86 166.577 322.927V319.127C166.136 318.957 165.661 318.719 165.219 318.516C164.778 318.278 164.336 318.007 163.963 317.667C163.589 317.328 163.284 316.921 163.046 316.48C162.808 316.004 162.707 315.462 162.707 314.817C162.707 314.342 162.775 313.9 162.944 313.493C163.08 313.086 163.318 312.679 163.657 312.373C163.963 312.034 164.37 311.763 164.88 311.559C165.355 311.321 165.932 311.186 166.611 311.152V310.541C166.611 310.439 166.645 310.337 166.713 310.269C166.781 310.201 166.883 310.168 166.985 310.168H167.222C167.324 310.168 167.426 310.201 167.494 310.269C167.562 310.337 167.596 310.439 167.596 310.541V311.186C168.037 311.22 168.445 311.287 168.818 311.423C169.192 311.525 169.531 311.661 169.837 311.796C170.142 311.932 170.38 312.068 170.584 312.204C170.788 312.339 170.923 312.407 171.025 312.475C171.127 312.543 171.195 312.645 171.195 312.781C171.229 312.916 171.195 313.018 171.127 313.12L170.346 314.24C170.176 314.477 170.007 314.511 169.803 314.409C169.531 314.24 169.192 314.036 168.818 313.833C168.445 313.629 168.037 313.459 167.562 313.357V316.921C168.003 317.09 168.445 317.328 168.92 317.566C169.396 317.803 169.837 318.109 170.244 318.448C170.652 318.787 170.957 319.228 171.229 319.704C171.501 320.179 171.636 320.722 171.636 321.366C171.636 322.418 171.297 323.335 170.584 324.047C169.871 324.76 168.886 325.167 167.562 325.235V327.271C167.562 327.373 167.528 327.475 167.46 327.509C167.392 327.577 167.29 327.611 167.189 327.611C167.087 327.611 166.951 327.611 166.781 327.577C166.645 327.543 166.577 327.441 166.577 327.271V325.065H166.543ZM166.543 313.188C166.034 313.256 165.661 313.425 165.423 313.663C165.185 313.934 165.049 314.24 165.049 314.613C165.049 315.02 165.185 315.326 165.423 315.597C165.661 315.835 166.034 316.106 166.543 316.378V313.188ZM167.528 322.927C167.969 322.86 168.343 322.724 168.615 322.486C168.886 322.249 169.022 321.909 169.022 321.468C169.022 321.095 168.92 320.722 168.682 320.382C168.445 320.043 168.071 319.737 167.528 319.466V322.927Z" fill="#F6F7F7"/>
<path d="M213.332 134.819C213.027 135.565 212.585 136.21 212.008 136.753C211.465 137.296 210.786 137.737 210.039 138.042L201.414 141.436C201.007 141.606 201.075 142.217 201.516 142.284L204.708 142.793C205.659 142.929 206.066 144.049 205.455 144.796C205.353 144.931 205.183 144.999 205.013 144.999H204.979L196.219 144.456L194.624 144.354C193.265 144.287 191.907 144.456 190.617 144.897L186.882 146.153L187.595 138.755L187.697 137.737L202.229 133.427C203.01 133.19 203.825 133.088 204.64 133.088L212.246 133.19C213.094 133.156 213.638 134.038 213.332 134.819Z" fill="#7DABED"/>
<path d="M196.219 144.423L194.623 144.321C193.265 144.253 191.907 144.423 190.617 144.864L189.089 145.373C189.734 144.389 190.141 143.201 190.141 141.946V138.111C190.956 138.959 191.364 140.962 192.382 141.505C192.994 141.844 193.741 141.878 194.318 142.217C194.691 142.455 194.997 142.794 195.268 143.134C195.642 143.541 195.981 143.982 196.219 144.423Z" fill="#5A88CA"/>
<path d="M170.855 258.516L166.984 271.377L165.015 277.893L164.777 278.775L162.163 278.198L161.518 278.029L157.409 277.112L157.545 274.771L158.224 263.844L158.462 259.907L170.855 258.516Z" fill="#6C9ADC"/>
<path d="M169.362 272.803C168.14 274.126 167.596 275.993 166.238 277.18C165.865 277.486 165.457 277.723 165.016 277.927C164.133 278.3 163.114 278.368 162.164 278.198C161.926 278.165 161.722 278.097 161.485 278.063C161.179 277.961 160.873 277.859 160.602 277.723C159.312 277.113 158.293 276.027 157.546 274.805L158.225 263.878C158.565 263.945 158.904 264.081 159.244 264.353C160.805 265.574 161.926 267.407 163.454 268.696C163.726 268.934 165.457 270.291 166.951 271.411C168.173 272.26 169.226 272.938 169.362 272.803Z" fill="#6C9ADC"/>
<path d="M50.8967 324.555L37.8924 333.955L34.2593 336.568L27.8081 333.649L29.2681 331.953L34.0556 326.489L44.2757 314.815L50.4553 323.91L50.8967 324.555Z" fill="#6C9ADC"/>
<path d="M68.5528 246.469L53.5452 280.337L27.3668 268.764L15.3132 263.436L12.495 262.181L0.169769 256.717L0 256.649L1.15443 254.07L2.37677 251.254L5.53447 244.161L7.40193 239.953L15.0076 222.747L33.7841 231.096L40.7446 234.184L47.06 236.966L47.9088 237.34L53.3415 239.749L58.7062 242.125L67.5002 245.993L67.7718 246.129L68.5528 246.469Z" fill="#608ED0"/>
<path d="M50.8627 324.589L37.8584 333.956C36.7719 334.193 35.7193 334.431 34.6328 334.668C32.969 335.041 30.8979 335.279 29.8792 333.888C29.4718 333.345 29.336 332.632 29.2681 331.953L34.0556 326.49C38.843 326.965 43.9022 326.693 48.1803 324.929C48.3162 324.861 48.418 324.827 48.5538 324.759L49.912 325.234L50.8627 324.589Z" fill="#6C9ADC"/>
<path d="M35.4141 221.526L41.6616 224.308L40.7788 225.734L35.482 223.392L32.3582 230.451L30.8303 229.772L34.2936 221.933C34.4973 221.526 35.0066 221.356 35.4141 221.526Z" fill="#3462A4"/>
<path d="M55.8882 231.503L52.4249 239.342L50.8969 238.663L54.0207 231.604L51.2704 230.383L49.1313 229.433L49.5048 227.905C49.5048 227.871 49.5048 227.804 49.5048 227.77L51.8477 228.788L55.4807 230.417C55.8881 230.586 56.0919 231.095 55.8882 231.503Z" fill="#3462A4"/>
<path d="M49.505 227.905L49.1315 229.433L47.5696 228.72L47.5356 228.686C47.7733 228.177 48.011 227.668 48.2147 227.159L48.8259 227.43L49.505 227.736C49.505 227.804 49.505 227.838 49.505 227.905Z" fill="#3462A4"/>
<path opacity="0.5" d="M14.9395 222.883L21.6623 242.498C22.0698 243.651 22.9186 244.602 24.0391 245.111L45.5997 254.647C46.7202 255.156 48.0105 255.156 49.1309 254.681L68.3488 246.4" fill="#A0BAFF"/>
<path d="M27.0949 249.964L26.5516 249.726C25.8386 249.421 25.4991 248.572 25.8386 247.86L26.8572 245.552C27.1628 244.839 28.0117 244.5 28.7247 244.839L29.2679 245.077C29.981 245.382 30.3205 246.231 29.981 246.943L28.9624 249.251C28.6568 249.93 27.8079 250.269 27.0949 249.964Z" fill="#4B79BB"/>
<path d="M40.6767 255.97L40.1334 255.733C39.4204 255.427 39.0809 254.579 39.4204 253.866L40.439 251.559C40.7446 250.846 41.5934 250.507 42.3065 250.846L42.8497 251.084C43.5628 251.389 43.9023 252.237 43.5628 252.95L42.5441 255.258C42.2386 255.97 41.3897 256.276 40.6767 255.97Z" fill="#4B79BB"/>
<path opacity="0.15" d="M47.9088 237.339L2.37671 251.253L5.53441 244.16L39.4203 234.251L40.7445 234.183L47.0599 236.966L47.9088 237.339Z" fill="#F6F7F7"/>
<path d="M14.1587 222.373L0.577132 253.085C0.0678252 254.273 -8.24604e-05 255.529 0.339456 256.683C0.339456 256.717 0.37341 256.784 0.37341 256.818C0.814809 258.176 1.79947 259.33 3.22553 259.94L49.4027 280.404C52.2209 281.659 55.4805 280.37 56.7367 277.553L70.1825 247.181L14.1587 222.373ZM55.786 275.279C54.5297 278.096 51.2702 279.352 48.452 278.13L15.3131 263.47H15.2791L12.461 262.214L4.75345 258.753C3.53111 258.21 2.61436 257.26 2.10505 256.106C1.52784 254.816 1.49389 253.289 2.10505 251.898L15.0075 222.781L67.5001 245.993L67.7717 246.129L68.5527 246.468L55.786 275.279Z" fill="#3462A4"/>
<path opacity="0.15" d="M67.7714 246.129L17.8933 264.285L15.3128 263.403H15.2788L12.4607 262.147L4.75314 258.754C3.5308 258.211 2.61404 257.26 2.10474 256.107L53.3411 239.749L58.7058 242.125L67.4659 245.994L67.7714 246.129Z" fill="#F6F7F7"/>
<path d="M184.913 214.161L170.448 262.214C170.041 263.572 168.852 264.556 167.46 264.692L163.352 265.608L156.833 267.135L159.617 227.668L126.037 238.799C122.573 240.258 119.925 243.142 118.669 246.672L107.294 276.094L104.612 283.051C103.186 286.682 100.775 289.838 97.6513 292.146C97.5155 292.248 97.3457 292.349 97.2099 292.451L50.9308 324.555L50.8969 324.589L49.9462 325.233L48.588 324.758L44.2759 323.197L38.4019 321.059L75.5134 281.795C76.498 280.811 77.3809 279.759 78.0939 278.605C78.1618 278.504 78.2297 278.368 78.2976 278.266C79.2483 276.705 79.9274 275.042 80.3688 273.278L84.9526 254.443L86.2088 249.285L91.6754 226.955L91.981 225.699L136.427 210.666L140.094 209.41L145.356 207.408L145.458 207.374L170.89 197.668C172.112 197.193 173.368 196.99 174.625 196.99C178.326 196.99 181.857 198.958 183.792 202.318C185.795 205.915 186.237 210.191 184.913 214.161Z" fill="#3C6AAC"/>
<path opacity="0.2" d="M145.458 207.34C145.458 207.34 143.726 222.985 121.181 232.555C111.64 236.593 104.578 241.141 99.0432 245.077L78.2974 278.232C79.2481 276.671 79.9271 275.009 80.3685 273.244L84.9523 254.409L86.2086 249.251L91.6752 226.921L136.426 210.632L145.356 207.374L145.458 207.34Z" fill="black"/>
<path d="M132.25 168.755L133.201 220.779C133.201 220.779 124.95 226.683 123.218 226.48L122.2 226.887L121.453 227.193C121.453 227.193 115.035 230.62 114.696 230.756L111.708 206.39L106.954 167.771L105.019 155.69L107.294 155.486L108.414 155.384L114.526 154.807H114.56H114.594L129.5 153.925L129.805 153.891H129.941L130.654 153.857L131.877 153.789L133.303 153.314L134.932 152.771L135.374 152.601L137.004 151.923L137.751 151.617L139.346 150.939L140.127 157.251L132.25 168.755Z" fill="white"/>
<path d="M133.201 154.706C133.201 154.706 132.42 160.373 132.182 161.697C132.148 161.832 132.148 161.9 132.148 161.934C132.148 161.968 132.114 161.968 132.08 162.002C131.537 162.409 127.632 163.733 124.678 164.717C122.743 165.362 121.215 165.837 121.215 165.837L111.368 156.674C111.368 156.674 110.452 156.029 113.915 156.097C114.085 156.097 113.745 155.011 113.813 154.808C113.813 154.774 113.847 154.774 113.847 154.774C113.915 154.774 113.983 154.774 114.051 154.774C114.221 154.774 114.39 154.774 114.56 154.74C115.273 154.604 115.918 154.163 116.461 153.552C117.31 152.636 117.955 151.312 118.465 150.023C119.28 147.953 119.653 145.984 119.653 145.984C119.653 145.984 120.128 145.407 120.875 144.729C122.471 143.235 125.323 141.267 126.885 144.016C127.327 144.796 127.666 145.916 127.87 147.511C128.006 148.631 128.176 149.581 128.379 150.43C128.719 151.855 129.16 152.873 129.602 153.552C129.67 153.654 129.737 153.722 129.771 153.823C131.367 155.995 133.201 154.706 133.201 154.706Z" fill="#7DABED"/>
<path d="M49.1313 229.433L51.2704 230.383L50.6593 232.149C50.5914 232.318 50.4555 232.454 50.2858 232.488C49.369 232.759 48.5202 231.945 48.7239 231.028L49.1313 229.433Z" fill="#6C9ADC"/>
<path d="M58.6385 215.892L57.2464 217.521L56.1938 218.709C55.2091 219.829 54.4622 221.119 53.9868 222.51L53.1719 224.852L51.8138 228.788L49.4709 227.77C49.437 227.431 49.0635 227.261 48.7919 227.465C48.7579 227.465 48.7579 227.499 48.724 227.499L47.5356 228.72L42.2727 234.184C41.7295 234.761 41.0504 235.202 40.3374 235.507C39.6243 235.813 38.8434 235.982 38.0285 235.982C37.1797 235.982 36.6024 235.134 36.908 234.32L39.7262 227.261C39.9639 226.684 40.2355 226.175 40.575 225.666C40.7109 225.496 40.8127 225.327 40.9485 225.157L41.5257 224.478L50.5235 213.415L58.6385 215.892Z" fill="#6C9ADC"/>
<path d="M129.941 153.044L124.475 159.458C123.422 160.679 121.555 160.815 120.332 159.763L114.56 154.775L115.273 162.817L122.234 166.991L125.799 167.976L128.821 159.729L129.941 153.044Z" fill="#5A88CA"/>
<g opacity="0.15">
<path opacity="0.15" d="M116.394 156.776L125.324 165.6L121.623 171.505L110.418 157.353L116.394 156.776Z" fill="#285698"/>
<path opacity="0.15" d="M139.313 150.905L136.257 162.002L136.121 163.767L131.198 168.586L124.95 165.226H124.916L124.78 165.158V165.09L124.916 164.819L129.907 153.891L130.62 153.858L131.843 153.756L133.303 153.315L134.899 152.772L135.34 152.602L139.313 150.905Z" fill="#285698"/>
</g>
<path d="M124.543 164.716L120.672 170.893L108.415 155.384L114.526 154.807H114.56L124.543 164.716Z" fill="white"/>
<path d="M135.34 152.602L132.182 161.73L132.08 162.036L130.145 167.669L125.459 165.192L124.679 164.785L124.543 164.717L129.466 153.925L129.602 153.654C129.67 153.755 130.009 153.688 130.077 153.755H130.315C130.519 153.755 130.756 153.755 130.96 153.755C131.741 153.721 132.522 153.586 133.269 153.314L134.899 152.771L135.34 152.602Z" fill="white"/>
<path d="M190.175 137.024V142.726C190.175 143.981 189.801 145.169 189.122 146.153C188.409 147.239 187.323 148.121 186.032 148.597C180.939 150.429 173.3 154.366 165.83 158.472C157.647 162.985 149.634 167.77 145.39 170.349C143.217 171.673 141.655 173.777 141.078 176.254C137.241 192.849 144.711 209.342 144.711 209.342C144.711 209.342 143.522 211.276 141.655 213.584C139.312 216.502 135.917 219.998 132.521 220.982C131.027 221.423 129.533 220.235 129.567 218.674L130.314 179.105L130.382 175.881C130.382 175.847 130.382 175.813 130.382 175.813C130.45 172.487 131.095 169.196 132.284 166.107L137.954 151.244L143.285 149.784L190.175 137.024Z" fill="#285698"/>
<path d="M143.285 149.819L130.315 179.14L130.383 175.916C130.383 175.882 130.383 175.848 130.383 175.848C130.451 172.522 131.096 169.23 132.284 166.142L137.955 151.278L143.285 149.819Z" fill="#3C6AAC"/>
<path d="M123.728 169.129L118.567 198.382L123.728 205.135L128.38 197.601L126.886 168.959L123.728 169.129Z" fill="#A0BAFF"/>
<path d="M124.509 171.369L121.249 178.767L117.956 186.131L117.65 185.927L128.244 173.88L129.704 172.217L128.685 174.185L119.551 192.07L119.042 191.662L125.154 185.859L131.265 180.056L133.439 178.02L131.741 180.464L125.969 188.914L123.083 193.156L120.196 197.364L119.823 197.024L132.759 188.337L133.71 187.692L132.963 188.54L124.509 198.042L132.725 188.371L132.929 188.574L120.129 197.432L119.008 198.212L119.755 197.092L122.607 192.85L125.493 188.608L131.232 180.124L131.707 180.531L125.629 186.334L119.483 192.138L118.091 193.461L118.974 191.764L128.176 173.948L128.651 174.253L117.922 186.165L117.107 187.047L117.616 185.961L121.045 178.665L124.509 171.369Z" fill="#F6F7F7"/>
<path d="M124.169 164.921L121.453 167.806L123.524 171.063L126.444 170.894L127.87 166.855L124.169 164.921Z" fill="#608ED0"/>
<path d="M153.335 282.983C153.437 283.73 153.607 284.408 153.811 285.087C153.879 285.392 154.014 285.698 154.252 285.901C154.456 286.105 154.66 286.139 154.931 286.207C158.157 287.021 161.281 287.191 164.574 286.648C164.268 286.037 164.642 285.46 165.253 285.257C165.864 285.053 166.475 285.223 167.053 285.358C168.139 285.63 169.124 285.969 170.244 286.207C175.881 287.429 181.245 287.361 186.848 285.969C188.24 285.63 189.496 285.087 190.719 284.34C191.024 284.171 191.262 283.967 191.432 283.628C191.601 283.288 191.499 282.813 191.432 282.44C191.296 281.829 191.126 281.218 190.617 280.811C190.277 280.54 189.904 280.472 189.496 280.404C187.323 280.031 185.184 280.336 183.011 279.793C179.65 278.945 177.001 276.739 174.149 274.804C172.383 273.583 170.516 272.395 168.649 271.377C167.46 270.732 166.849 271.275 166.136 272.191C165.423 273.074 164.914 274.058 163.963 274.737C162.808 275.585 161.484 275.755 160.296 274.906C159.617 274.431 159.311 273.583 158.802 272.904C158.462 272.463 158.021 271.954 157.478 271.75C156.765 271.479 156.459 271.682 155.984 272.259C155.135 273.243 154.524 274.397 154.116 275.653C153.301 278.028 153.03 280.438 153.335 282.983Z" fill="#1D4B8D"/>
<path d="M182.74 286.751C182.842 286.717 182.944 286.717 183.045 286.683C183.011 286.547 182.977 286.411 182.944 286.275C182.842 286.309 182.74 286.309 182.638 286.343C182.672 286.479 182.706 286.615 182.74 286.751Z" fill="#444445"/>
<path d="M153.301 282.576C153.301 282.678 153.335 282.881 153.369 283.017C153.369 283.153 153.403 283.289 153.437 283.39C153.437 283.492 153.471 283.56 153.471 283.662C153.471 283.73 153.505 283.764 153.505 283.831C153.539 283.933 153.573 284.103 153.573 284.205C153.607 284.307 153.607 284.374 153.641 284.408C153.641 284.476 153.675 284.544 153.675 284.578C153.675 284.612 153.675 284.612 153.675 284.646C153.675 284.68 153.675 284.68 153.709 284.714C153.709 284.748 153.709 284.782 153.743 284.85C153.777 284.917 153.777 285.019 153.811 285.121C153.845 285.223 153.878 285.359 153.946 285.494C153.946 285.528 153.946 285.528 153.98 285.596C154.014 285.664 154.048 285.834 154.082 285.902C157.579 287.123 160.907 287.191 164.54 286.716C164.438 286.275 164.54 285.325 165.049 285.257C165.796 285.121 166.543 285.359 167.188 285.46C167.867 285.528 168.309 285.732 168.92 285.902C168.92 285.902 168.92 285.902 168.954 285.902C169.327 286.003 169.769 286.139 170.142 286.241C171.806 286.648 173.674 287.089 175.337 287.191C177.442 287.293 179.344 287.123 181.313 287.021C181.721 286.988 182.026 286.954 182.298 286.92C182.603 286.886 182.875 286.852 183.045 286.818C185.15 286.479 187.119 286.037 189.089 285.291C189.224 285.257 189.258 285.223 189.326 285.189C189.428 285.155 189.53 285.087 189.598 285.053C189.666 285.019 189.666 285.019 189.734 284.985C189.768 284.951 189.802 284.951 189.836 284.951C190.447 284.578 191.024 284.239 191.465 283.662C191.499 283.628 191.465 283.594 191.499 283.492C191.533 283.39 191.533 283.187 191.533 283.051C191.533 283.017 191.533 282.949 191.533 282.915C191.533 282.881 191.533 282.847 191.533 282.813C191.533 282.644 191.499 282.474 191.465 282.304C191.364 282.372 191.363 282.406 191.262 282.474C189.903 283.356 188.953 283.967 187.221 284.374C184.199 285.121 180.396 285.562 177.341 285.698C175.847 285.766 174.013 285.494 172.961 285.325C170.652 284.951 168.58 284.341 166.747 283.831C165.287 283.424 165.083 283.356 163.793 283.221C163.352 283.187 163.114 283.255 162.469 283.255C159.549 283.255 156.391 283.119 153.471 282.644C153.403 282.576 153.301 282.542 153.301 282.576Z" fill="#002963"/>
<path d="M153.336 283.018C153.302 283.153 153.37 283.255 153.404 283.391C153.404 283.391 153.404 283.391 153.404 283.425C153.404 283.459 153.438 283.594 153.438 283.662C153.438 283.73 153.471 283.764 153.471 283.832C153.471 283.9 153.505 283.934 153.505 284.002C153.505 284.07 153.539 284.171 153.573 284.239C153.607 284.307 153.607 284.409 153.641 284.443C153.675 284.477 153.641 284.511 153.675 284.545C153.675 284.579 153.675 284.579 153.709 284.613C153.709 284.646 153.709 284.646 153.709 284.68C153.709 284.714 153.709 284.714 153.743 284.748C153.743 284.782 153.743 284.816 153.777 284.85C153.777 284.884 153.777 284.816 153.777 284.884C153.811 284.952 153.811 285.054 153.845 285.156C153.879 285.257 153.913 285.393 153.981 285.529C153.981 285.563 153.981 285.563 154.015 285.631C154.049 285.699 154.083 285.868 154.117 285.936C157.614 287.158 160.941 287.226 164.574 286.751C164.574 286.241 164.506 285.393 165.118 285.257C165.865 285.122 166.544 285.359 167.257 285.461C167.834 285.529 168.377 285.766 168.954 285.902C168.954 285.902 168.954 285.902 168.988 285.902C169.396 286.004 169.769 286.14 170.177 286.241C171.908 286.683 173.64 287.056 175.44 287.226C175.474 287.226 175.541 287.226 175.575 287.226C177.205 287.26 178.869 287.192 180.499 287.09C180.804 287.056 181.11 287.056 181.416 287.022C181.721 286.988 182.095 286.954 182.4 286.92C182.672 286.886 182.909 286.852 183.181 286.818C185.116 286.547 186.95 286.14 188.783 285.461C188.953 285.393 189.089 285.325 189.191 285.291C189.293 285.257 189.361 285.223 189.429 285.189C189.53 285.156 189.632 285.088 189.7 285.054C189.768 285.02 189.768 285.02 189.836 284.986C189.87 284.952 189.87 284.952 189.938 284.952C190.583 284.613 191.194 284.341 191.568 283.662C191.602 283.594 191.568 283.594 191.602 283.493C191.602 283.391 191.636 283.187 191.636 283.051C191.636 283.018 191.636 282.95 191.636 282.916C191.636 282.882 191.67 282.848 191.636 282.848C191.602 282.848 191.805 282.78 191.568 282.814C191.5 282.848 192.213 282.373 191.262 283.085C190.277 283.764 189.191 284.477 187.12 284.952C183.453 285.732 176.968 286.479 173.165 285.834C169.362 285.189 167.427 283.968 163.861 283.764C160.364 283.459 156.765 283.628 153.336 283.018C153.336 283.018 153.37 283.018 153.336 283.018Z" fill="#002963"/>
<path d="M170.312 271.818C170.516 271.954 170.686 272.056 170.89 272.192C170.55 272.803 170.177 273.414 169.837 274.025C169.769 274.127 169.701 274.16 169.599 274.194C169.498 274.228 169.464 274.194 169.396 274.161C169.26 274.025 169.158 273.923 169.26 273.719C169.565 273.074 169.973 272.463 170.312 271.818Z" fill="#002963"/>
<path d="M171.263 274.873C171.195 274.975 171.127 275.008 171.025 275.008C170.923 275.042 170.855 275.008 170.821 274.975C170.686 274.839 170.584 274.737 170.686 274.533C170.991 273.922 171.399 273.345 171.704 272.734C171.908 272.87 172.078 272.972 172.281 273.108C171.976 273.685 171.602 274.296 171.263 274.873Z" fill="#002963"/>
<path d="M172.689 275.755C172.621 275.857 172.553 275.891 172.452 275.891C172.35 275.891 172.316 275.891 172.248 275.823C172.112 275.687 172.01 275.551 172.146 275.381C172.452 274.804 172.825 274.227 173.165 273.65C173.368 273.786 173.538 273.922 173.742 274.058C173.402 274.635 173.029 275.212 172.689 275.755Z" fill="#002963"/>
<path d="M22.0024 333.751C21.9684 333.819 21.7307 334.022 21.7307 334.09C21.7307 334.192 21.6289 334.26 21.6289 334.328C21.5949 334.396 21.5949 334.43 21.5609 334.497C21.527 334.565 21.527 334.599 21.493 334.667C21.4591 334.735 21.4251 334.837 21.3912 334.871C21.3572 334.939 21.3233 335.006 21.3233 335.074C21.2893 335.142 21.2893 335.142 21.2893 335.176C21.2554 335.21 21.2554 335.244 21.2554 335.312C21.2214 335.346 21.2214 335.414 21.1875 335.448C21.1875 335.482 21.1875 335.448 21.1535 335.515C21.1195 335.583 21.0856 335.719 21.0516 335.787C21.0177 335.889 20.9498 336.058 20.9498 336.126C20.9158 336.194 20.9498 336.16 20.9158 336.262C20.8819 336.33 20.8479 336.5 20.814 336.601C23.021 339.69 25.6015 341.862 28.9629 343.694C29.0987 343.253 29.608 342.54 30.1173 342.744C30.8643 343.015 31.3397 343.626 31.9169 344.033C32.4941 344.441 32.8336 344.882 33.3429 345.323C33.3429 345.323 33.3429 345.323 33.3429 345.357C33.6485 345.628 33.9881 345.968 34.3276 346.205C35.8216 347.223 37.4513 348.275 39.149 348.717C41.2881 349.26 43.2914 349.124 45.3626 349.09C45.77 349.09 46.0756 349.056 46.3812 349.056C46.6868 349.056 46.9584 349.056 47.1621 349.056C49.3012 348.954 51.3045 348.683 53.3417 348.241C53.4776 348.208 53.5115 348.174 53.6134 348.174C53.7152 348.14 53.8171 348.106 53.885 348.072C53.9529 348.038 53.9869 348.038 54.0208 348.038C54.0548 348.038 54.0887 348.004 54.1227 348.004C54.7678 347.732 55.345 347.461 55.8883 346.952C55.9222 346.918 55.9222 346.85 55.9222 346.782C55.9562 346.714 55.9901 346.477 55.9901 346.375C55.9901 346.273 56.0241 346.239 55.9901 346.137C55.9562 346.07 56.058 346.137 56.058 346.103C55.0394 344.678 56.4655 344.441 54.1906 343.524C52.2213 342.744 49.3012 343.049 46.7207 342.099C44.1063 341.149 41.9672 335.855 41.1184 333.615C40.2695 331.409 41.2881 332.461 39.5565 332.529C37.7909 332.597 35.1425 333.921 33.5467 332.495C31.9169 331.07 33.8522 329.441 32.9694 327.846C32.0866 326.251 32.2225 326.183 29.7099 327.133C27.5029 327.914 23.0889 330.9 22.0024 333.751Z" fill="#1D4B8D"/>
<path d="M46.822 348.989C46.9239 348.989 47.0258 348.955 47.1276 348.955C47.1276 348.819 47.0937 348.683 47.0937 348.514C46.9918 348.514 46.8899 348.548 46.7881 348.548C46.822 348.683 46.822 348.853 46.822 348.989Z" fill="#1D4B8D"/>
<path d="M22.1377 333.378C22.0698 333.446 21.9679 333.65 21.9 333.751C21.8321 333.853 21.7642 333.989 21.7302 334.091C21.6963 334.193 21.6623 334.261 21.6284 334.328C21.5944 334.396 21.5944 334.43 21.5605 334.498C21.5265 334.6 21.4586 334.77 21.4246 334.837C21.3907 334.939 21.3567 335.007 21.3228 335.041C21.2888 335.109 21.2888 335.177 21.2549 335.211C21.2549 335.245 21.2549 335.245 21.2209 335.279C21.2209 335.313 21.2209 335.313 21.187 335.346C21.153 335.38 21.153 335.414 21.153 335.482C21.1191 335.55 21.0851 335.652 21.0512 335.754C21.0172 335.856 20.9832 335.991 20.9493 336.127C20.9493 336.161 20.9493 336.161 20.9153 336.229C20.8814 336.297 20.8474 336.466 20.8135 336.534C23.0205 339.622 25.601 341.794 28.9284 343.627C29.0643 343.186 29.5736 342.473 30.0829 342.677C30.8299 342.948 31.3052 343.559 31.8824 343.966C32.4596 344.373 32.7992 344.815 33.3085 345.256C33.3085 345.256 33.3085 345.256 33.3085 345.29C33.6141 345.561 33.9536 345.901 34.2931 346.138C35.7871 347.156 37.4169 348.208 39.1146 348.649C41.2537 349.192 43.257 349.057 45.3281 349.023C45.7356 349.023 46.0412 348.989 46.3468 348.989C46.6523 348.989 46.924 348.989 47.1277 348.989C49.2668 348.887 51.2701 348.615 53.3073 348.174C53.4431 348.14 53.4771 348.106 53.5789 348.106C53.6808 348.072 53.7826 348.039 53.8506 348.005C53.9185 347.971 53.9524 347.971 53.9864 347.971C54.0203 347.971 54.0543 347.937 54.0882 347.937C54.7334 347.665 55.3106 347.394 55.8538 346.885C55.8878 346.851 55.8878 346.783 55.8878 346.715C55.9217 346.647 55.9557 346.41 55.9557 346.308C55.9557 346.24 55.9557 346.206 55.9557 346.138C55.9557 346.104 55.9557 346.07 55.9557 346.036C55.9557 345.867 55.9557 345.697 55.9557 345.527C55.8538 345.561 55.8538 345.629 55.718 345.697C54.224 346.342 53.2394 346.817 51.4738 347.02C48.4179 347.36 44.6491 347.733 41.5593 347.665C40.0653 347.631 38.4016 346.885 37.4169 346.41C35.2778 345.358 33.682 343.763 32.2899 342.439C31.1694 341.387 31.0675 341.014 30.015 340.165C29.6415 339.86 29.4378 339.792 28.9624 339.419C26.6196 337.688 24.3107 335.584 22.2395 333.446C22.2056 333.446 22.2056 333.31 22.1377 333.378Z" fill="#002963"/>
<path d="M21.9 333.751C21.7982 333.852 21.7642 333.954 21.7302 334.09C21.7302 334.09 21.7302 334.09 21.7302 334.124C21.7302 334.158 21.6623 334.294 21.6284 334.328C21.5944 334.395 21.5944 334.429 21.5605 334.497C21.5265 334.565 21.5265 334.599 21.4926 334.667C21.4586 334.735 21.4247 334.837 21.3907 334.871C21.3568 334.938 21.3228 335.006 21.3228 335.074C21.2888 335.108 21.2888 335.142 21.2888 335.176C21.2888 335.21 21.2549 335.244 21.2549 335.244C21.2549 335.278 21.2549 335.278 21.2209 335.312C21.2209 335.346 21.2209 335.346 21.187 335.38C21.187 335.414 21.153 335.447 21.153 335.481C21.153 335.515 21.153 335.481 21.1191 335.549C21.0851 335.617 21.0512 335.753 21.0172 335.821C20.9833 335.923 20.9154 336.092 20.9154 336.16C20.8814 336.228 20.9154 336.194 20.8814 336.296C20.8474 336.364 20.8135 336.533 20.7795 336.635C22.9865 339.723 25.567 341.895 28.8945 343.728C29.1661 343.287 29.4717 342.574 30.0829 342.778C30.7959 343.049 31.2713 343.626 31.8824 344.101C32.3578 344.474 32.7992 344.949 33.2406 345.357C33.2406 345.357 33.2406 345.357 33.2745 345.391C33.6141 345.662 33.9197 346.002 34.2592 346.239C35.7871 347.325 37.383 348.173 39.1486 348.818C39.1825 348.818 39.2504 348.852 39.2844 348.852C40.9821 349.158 42.6798 349.259 44.4114 349.191C44.717 349.191 45.0565 349.124 45.3621 349.09C45.6677 349.056 46.0751 349.056 46.3468 349.056C46.6524 349.056 46.89 349.056 47.1277 349.056C49.0631 348.954 50.9305 348.716 52.832 348.343C53.0017 348.309 53.1375 348.275 53.2734 348.241C53.4092 348.207 53.4431 348.173 53.545 348.173C53.6468 348.139 53.7487 348.106 53.8166 348.072C53.8845 348.038 53.8845 348.038 53.9524 348.038C53.9864 348.004 54.0203 348.004 54.0543 348.004C54.7334 347.766 55.3106 347.529 55.7859 346.986C55.8199 346.952 55.8199 346.884 55.8199 346.816C55.8538 346.748 55.8878 346.511 55.8878 346.443C55.8878 346.375 55.8878 346.341 55.8878 346.273C55.8878 346.205 55.9218 346.239 55.8878 346.171C55.8538 346.137 56.0576 346.171 55.8538 346.103C55.7859 346.069 56.4311 345.9 55.3445 346.409C54.258 346.918 53.1036 347.427 51.0324 347.596C47.3654 347.902 40.9821 348.513 37.4509 346.816C33.9197 345.119 32.6634 342.744 29.7434 340.606C27.027 338.57 24.3786 336.194 21.9 333.751Z" fill="#002963"/>
<path d="M41.797 334.056C41.8649 334.225 41.9328 334.395 41.9668 334.599C41.3556 334.938 40.7105 335.278 40.1333 335.583C40.0314 335.651 39.9635 335.651 39.8616 335.617C39.7598 335.583 39.7258 335.549 39.7258 335.481C39.6919 335.278 39.7258 335.176 39.9295 335.074C40.5407 334.735 41.1858 334.395 41.797 334.056Z" fill="#002963"/>
<path d="M40.6423 336.839C40.5404 336.907 40.4725 336.907 40.3707 336.873C40.2688 336.839 40.2349 336.839 40.2349 336.738C40.2349 336.534 40.2349 336.432 40.4046 336.33C40.9818 335.991 41.627 335.685 42.2042 335.346C42.2721 335.516 42.34 335.685 42.374 335.855C41.8307 336.194 41.2195 336.534 40.6423 336.839Z" fill="#002963"/>
<path d="M41.1861 338.129C41.0843 338.196 41.0164 338.196 40.9145 338.163C40.8126 338.129 40.7787 338.129 40.7787 338.027C40.7447 337.823 40.7787 337.721 40.9484 337.619C41.4917 337.28 42.1029 336.941 42.6801 336.635C42.748 336.805 42.8159 336.974 42.8838 337.144C42.3406 337.45 41.7294 337.789 41.1861 338.129Z" fill="#002963"/>
<path opacity="0.07" d="M107.192 359H21.7301C15.8561 359 11.0686 354.215 11.0686 348.344C11.0686 342.473 15.8561 337.688 21.7301 337.688H107.192C113.066 337.688 117.853 342.473 117.853 348.344C117.853 354.249 113.1 359 107.192 359Z" fill="#285698"/>
<path opacity="0.39" d="M122.199 226.922L121.453 227.227C121.453 227.227 119.313 228.381 117.446 229.365C118.465 228.008 119.076 226.379 119.144 224.614L121.045 186.402L121.453 178.19L122.199 226.922Z" fill="#C9BDA3"/>
<path d="M121.181 183.823L121.045 186.402L119.144 224.614C119.042 226.345 118.431 228.007 117.446 229.365C116.631 230.451 115.579 231.333 114.357 231.944C106.208 235.881 97.8889 239.444 91.3358 242.125C88.0083 243.482 85.1562 244.602 83.0171 245.417C81.2855 246.061 79.5538 244.5 80.0292 242.736L93.6107 191.085L94.3577 188.201C94.4596 187.827 94.0182 187.59 93.7465 187.827L57.2461 219.693L55.9219 219.15L50.0479 216.707C49.5386 216.503 49.1991 216.13 48.9954 215.689C48.7237 215.044 48.7577 214.263 49.233 213.653L89.6381 161.527C91.0981 159.661 93.1693 158.337 95.4782 157.828L105.019 155.724L118.159 173.676C120.264 176.595 121.351 180.158 121.181 183.823Z" fill="#285698"/>
<path d="M121.181 183.823L121.045 186.402L95.478 157.828L105.019 155.724L118.159 173.676C120.264 176.595 121.351 180.158 121.181 183.823Z" fill="#3C6AAC"/>
<path opacity="0.2" d="M93.5766 191.017L91.3017 242.091C87.9742 243.448 85.1221 244.568 82.983 245.383C81.2514 246.027 79.5197 244.466 79.9951 242.702L93.5766 191.017Z" fill="black"/>
<path opacity="0.2" d="M165.831 158.507C157.648 163.02 149.635 167.805 145.39 170.384C143.217 171.708 141.655 173.812 141.078 176.289C137.241 192.884 144.711 209.377 144.711 209.377C144.711 209.377 143.523 211.311 141.655 213.619C137.309 209.105 136.494 194.615 136.494 184.434C136.494 178.054 140.026 172.183 145.696 169.163L165.831 158.507Z" fill="black"/>
<path d="M126.41 225.191C126.274 226.616 126.07 228.041 125.833 229.466C125.595 230.892 125.289 232.283 124.95 233.708C124.576 235.1 124.203 236.491 123.693 237.849C123.184 239.206 122.607 240.53 121.792 241.717C121.962 241.378 122.098 241.073 122.267 240.767C122.403 240.428 122.539 240.122 122.675 239.783C122.811 239.444 122.946 239.104 123.048 238.765C123.184 238.426 123.286 238.086 123.388 237.747C123.625 237.068 123.829 236.389 124.033 235.711C124.203 235.032 124.406 234.319 124.576 233.641C124.95 232.249 125.255 230.858 125.527 229.433C125.663 228.72 125.832 228.041 125.968 227.329C126.138 226.616 126.274 225.903 126.41 225.191Z" fill="#231F20"/>
<path opacity="0.4" d="M159.617 227.668L126.036 238.799C122.573 240.258 119.925 243.143 118.668 246.672L107.294 276.095C107.43 275.484 116.326 235.236 126.444 234.15C136.63 233.098 159.617 227.668 159.617 227.668Z" fill="black"/>
<path opacity="0.2" d="M162.231 265.88L156.866 267.136L159.616 227.668L162.231 265.88Z" fill="black"/>
<path opacity="0.2" d="M98.0927 291.671L97.6173 292.146C97.4815 292.248 97.3118 292.35 97.176 292.452L49.9122 325.267L44.2759 323.197L98.0927 291.671Z" fill="black"/>
<path d="M128.379 150.498C123.49 151.788 120.366 151.075 118.465 150.091C118.906 149.005 119.212 147.952 119.382 147.172C120.298 148.054 121.385 148.733 122.573 149.208C123.083 149.412 123.626 149.548 124.169 149.65C124.746 149.752 125.357 149.819 125.969 149.819C126.716 149.819 127.429 149.718 128.142 149.582C128.244 149.887 128.311 150.193 128.379 150.498Z" fill="#5A88CA"/>
<path d="M55.8881 219.082C55.0732 220.1 54.4281 221.288 53.9867 222.51L53.1718 224.851C52.6964 223.765 52.1192 222.713 51.4401 221.695C50.5913 220.338 48.0447 217.962 48.554 216.164C48.6219 215.926 48.7578 215.723 48.9275 215.587C49.1312 216.028 49.4708 216.401 49.9801 216.605L55.8881 219.082Z" fill="#5A88CA"/>
<path opacity="0.35" d="M110.011 136.516L110.486 138.315C110.927 139.91 112.082 141.233 113.61 141.844L114.187 142.048C114.696 143.778 115.647 145.339 116.869 146.561L134.152 141.572C134.22 141.742 134.457 141.776 134.627 141.708C134.797 141.606 134.865 141.437 134.933 141.267C135.001 141.097 135.069 140.928 135.136 140.758C135.306 139.774 135.34 138.722 135.204 137.704L134.729 133.665L134.322 130.374C134.152 128.948 133.71 127.625 133.065 126.471C130.994 122.738 126.852 120.464 122.37 121.007C118.635 121.448 115.579 123.756 114.017 126.878C113.338 128.236 112.931 129.763 112.897 131.358C112.897 131.392 112.897 131.46 112.897 131.493V131.663C112.897 132.104 112.931 132.512 112.965 132.953L113.134 134.446L113.168 134.683L111.844 134.48C110.656 134.31 109.705 135.396 110.011 136.516Z" fill="black"/>
<path opacity="0.19" d="M137.106 123.858C137.106 123.892 137.071 123.961 137.071 123.996C137.106 123.961 137.106 123.927 137.106 123.858Z" fill="white"/>
<path d="M134.118 129.424C133.235 129.695 132.352 129.899 131.469 130.034C131.299 130.068 131.13 130.068 130.994 130.102C129.058 130.34 127.055 130.306 125.12 130.17C123.456 130.068 121.758 129.865 120.197 129.254C117.209 128.066 116.19 129.458 115.273 132.172C114.934 133.191 114.357 133.903 113.779 134.582L113.168 134.684L113.134 134.446L113.066 133.903L112.964 132.919C112.896 132.478 112.896 132.037 112.896 131.629V131.46C112.896 131.426 112.896 131.358 112.896 131.324C112.93 129.729 113.338 128.202 114.017 126.811C115.579 123.688 118.635 121.381 122.37 120.94C126.478 120.431 130.349 122.365 132.556 125.555C132.59 125.623 132.624 125.691 132.692 125.725C132.827 125.928 132.963 126.166 133.099 126.403C133.54 127.387 133.914 128.372 134.118 129.424Z" fill="#6F9DDF"/>
<path d="M113.745 134.582C113.338 135.057 112.964 135.566 112.625 136.177C112.082 137.229 112.829 139.672 113.915 141.98L113.576 141.844C112.523 141.437 111.64 140.657 111.029 139.706C110.757 139.265 110.554 138.824 110.418 138.315L109.943 136.516C109.637 135.397 110.588 134.311 111.742 134.48L113.066 134.684" fill="#7DABED"/>
<path d="M141.417 122.297C141.248 122.772 141.044 123.247 140.806 123.722C139.448 126.403 137.071 128.473 134.117 129.424C133.88 128.372 133.506 127.387 133.031 126.471C132.895 126.234 132.759 126.03 132.623 125.792C132.589 125.725 132.556 125.657 132.488 125.623C130.281 122.433 126.444 120.498 122.301 121.008C118.567 121.449 115.511 123.756 113.949 126.878C113.27 128.236 112.862 129.763 112.828 131.392C112.828 131.426 112.828 131.494 112.828 131.528V131.697C112.828 132.138 112.862 132.546 112.896 132.987L112.998 133.971L113.066 134.514L113.1 134.752L112.557 134.684L111.776 134.548C110.859 134.412 110.078 135.057 109.942 135.905C109.908 136.109 109.908 136.347 109.976 136.584L110.452 138.383C110.587 138.892 110.791 139.333 111.063 139.774C111.64 140.724 112.523 141.471 113.609 141.912L113.949 142.048C114.153 142.489 114.39 142.964 114.628 143.405C115.069 144.22 115.579 145.17 116.224 145.849C116.495 146.154 117.242 147.07 117.548 147.206C114.017 145.543 110.689 143.236 108.414 140.113C108.279 139.944 108.177 139.774 108.041 139.604C105.732 136.211 104.747 131.765 106.072 127.863C106.377 126.946 106.853 126.03 107.532 125.317C108.754 124.028 110.587 123.451 112.319 122.976C111.368 121.347 112.081 119.243 113.236 117.784C115.714 114.628 120.23 113.27 124.033 114.56C125.12 114.933 126.036 115.238 126.953 114.39C128.515 112.931 129.466 110.963 131.062 109.537C132.929 107.84 135.476 107.569 137.75 108.689C142.47 110.929 142.945 117.885 141.417 122.297Z" fill="#6F9DDF"/>
<path d="M135.102 140.792C134.558 144.016 132.589 146.798 129.771 148.393C129.533 148.529 129.296 148.665 129.058 148.767C128.311 149.106 127.53 149.377 126.681 149.547C126.545 149.581 126.41 149.615 126.274 149.615C126.104 149.649 125.968 149.649 125.798 149.683C124.746 149.819 123.761 149.785 122.777 149.615C121.69 149.445 120.637 149.106 119.687 148.597C118.974 148.224 118.295 147.782 117.65 147.273C117.378 147.07 117.106 146.832 116.869 146.561C115.952 145.645 115.171 144.525 114.628 143.269C114.458 142.862 114.288 142.455 114.186 142.013L113.949 141.912C112.828 139.604 112.115 137.161 112.658 136.109C113.269 134.955 114.118 134.208 114.763 133.156C114.967 132.817 115.137 132.477 115.273 132.07C116.189 129.355 117.208 127.964 120.196 129.152C121.758 129.763 123.456 129.966 125.119 130.068C127.224 130.204 129.398 130.238 131.503 129.932C131.706 129.898 131.876 129.864 132.08 129.83C132.25 129.796 132.385 129.763 132.555 129.729C132.657 129.729 132.725 129.695 132.827 129.661C132.861 129.661 132.895 129.661 132.929 129.627C132.997 129.627 133.065 129.593 133.132 129.559C133.166 129.559 133.234 129.525 133.268 129.525C133.336 129.491 133.404 129.491 133.506 129.457C133.54 129.457 133.608 129.423 133.642 129.423C133.71 129.389 133.778 129.389 133.845 129.355C133.947 129.321 134.083 129.287 134.185 129.254C134.253 129.559 134.321 129.898 134.355 130.238L134.525 131.595L134.558 132.002L134.592 132.308L134.626 132.579L134.694 133.258L134.728 133.529L135.204 137.568C135.305 138.756 135.272 139.808 135.102 140.792Z" fill="#7DABED"/>
<path d="M131.469 130.035C131.673 130.001 131.842 129.967 132.046 129.933C131.842 129.967 131.639 130.001 131.469 130.035Z" fill="#FF8500"/>
<path d="M140.806 123.723C140.263 125.793 138.056 128.372 137.309 129.186C136.324 130.306 135.306 131.46 134.559 132.716L134.525 132.444L134.287 130.374C134.253 130.035 134.185 129.729 134.117 129.39C137.071 128.474 139.448 126.438 140.806 123.723Z" fill="#5A88CA"/>
<path d="M117.514 147.138C113.983 145.475 110.655 143.167 108.38 140.045C108.346 139.468 108.346 138.891 108.414 138.314C108.516 137.5 108.754 136.617 109.399 136.142C109.569 136.007 109.772 135.939 109.976 135.837C109.942 136.04 109.942 136.278 110.01 136.516L110.485 138.314C110.621 138.823 110.825 139.264 111.097 139.706C111.674 140.656 112.557 141.402 113.643 141.844L113.983 141.979C114.186 142.42 114.424 142.896 114.662 143.337C115.103 144.151 115.612 145.101 116.258 145.78C116.495 146.052 117.242 147.002 117.514 147.138Z" fill="#5A88CA"/>
<path d="M118.906 126.03C123.15 126.267 126.919 129.152 130.96 130.068C129.024 130.306 127.021 130.272 125.086 130.136C123.422 130.034 121.724 129.83 120.163 129.22C117.175 128.032 116.156 129.423 115.239 132.138C114.9 133.156 114.322 133.869 113.745 134.548L113.134 134.649L112.591 134.581C112.761 134.378 112.896 134.14 113.032 133.903C113.44 133.156 113.643 132.24 113.779 131.392C114.017 129.83 114.187 128.1 115.307 127.048C116.258 126.199 117.65 125.962 118.906 126.03Z" fill="#5A88CA"/>
<path d="M132.318 130.306H132.148L131.333 130.272C131.401 130.238 131.469 130.238 131.537 130.204C131.809 130.137 132.08 130.204 132.318 130.306Z" fill="#FF8500"/>
<path d="M133.812 130.34C133.336 130.374 132.827 130.34 132.352 130.306H132.318L133.812 130.34Z" fill="#FF8500"/>
<path d="M134.806 131.766C131.581 133.361 127.574 133.123 124.043 132.207C122.311 131.766 120.512 131.155 118.746 131.528C117.422 131.834 116.301 132.614 115.113 133.259C115.317 132.92 115.487 132.581 115.622 132.173C116.539 129.458 117.558 128.067 120.546 129.255C122.108 129.866 123.805 130.069 125.469 130.171C127.574 130.307 129.747 130.341 131.852 130.035C132.056 130.001 132.226 129.967 132.429 129.934C132.599 129.9 132.735 129.866 132.905 129.832C133.007 129.832 133.075 129.798 133.176 129.764C133.21 129.764 133.244 129.764 133.278 129.73C133.346 129.73 133.414 129.696 133.482 129.662C133.516 129.662 133.584 129.628 133.618 129.628C133.686 129.594 133.754 129.594 133.856 129.56C133.89 129.56 133.957 129.526 133.991 129.526C134.059 129.492 134.127 129.492 134.195 129.458C134.297 129.424 134.433 129.391 134.535 129.357C134.603 129.662 134.67 130.001 134.704 130.341L134.806 131.766Z" fill="#6C9ADC"/>
<path d="M433.964 173.574C433.659 173.676 433.319 173.744 432.98 173.812C432.844 173.846 432.708 173.846 432.572 173.879H395.495C381.438 172.318 368.807 169.536 364.563 166.957C360.93 164.751 358.247 162.172 356.482 159.491C353.256 154.57 353.086 149.378 355.497 145.645C355.938 144.932 356.414 144.253 356.923 143.575C357.059 143.405 357.161 143.235 357.297 143.066C357.432 142.896 357.534 142.726 357.67 142.557C358.485 141.471 359.3 140.521 360.115 139.672C360.251 139.536 360.42 139.367 360.556 139.231C360.624 139.163 360.692 139.095 360.794 139.027C360.998 138.824 361.201 138.654 361.405 138.45C361.507 138.349 361.609 138.281 361.711 138.179C361.812 138.111 361.88 138.009 361.982 137.941C362.016 137.907 362.05 137.874 362.084 137.84C363.476 136.652 365.004 135.532 366.872 134.242C368.06 131.392 369.35 128.473 370.81 125.555C371.659 123.858 372.576 122.127 373.526 120.464C373.56 120.43 373.594 120.363 373.594 120.329C373.696 120.159 373.764 119.989 373.866 119.854C373.866 119.82 373.9 119.82 373.9 119.786C374.07 119.48 374.24 119.209 374.409 118.903C374.443 118.869 374.443 118.836 374.477 118.802C374.681 118.496 374.851 118.191 375.054 117.851C375.088 117.783 375.156 117.716 375.19 117.648C379.061 111.471 383.747 106.042 389.451 102.886C389.485 102.886 389.485 102.852 389.519 102.852C389.688 102.75 389.858 102.682 390.028 102.58C390.164 102.512 390.3 102.444 390.435 102.377C390.639 102.275 390.877 102.173 391.081 102.071C391.115 102.071 391.148 102.037 391.182 102.037C391.216 102.037 391.25 102.003 391.284 102.003C394.306 100.612 396.955 99.7975 399.263 99.2884C399.263 99.2884 399.263 99.2884 399.297 99.2884C399.399 99.2545 399.501 99.2545 399.603 99.2206L401.335 98.8473L402.455 98.9151L402.217 92.5352C402.183 91.5171 402.251 90.533 402.387 89.5488C402.998 85.748 404.696 76.2799 407.175 74.9225C409.042 73.9044 410.842 74.108 412.2 75.3976C412.37 75.6012 412.539 75.7709 412.709 75.9745C413.354 76.7889 413.83 77.9088 414.101 79.2663C414.95 83.6101 417.497 85.1372 421.13 85.6801C423.303 86.0195 423.846 84.2888 424.627 82.4562C425.136 81.2006 425.781 79.911 427.038 79.1645C430.195 77.2301 431.825 82.8295 434.575 83.7458C436.647 84.4245 425.646 93.3157 420.077 97.6934C419.975 97.6934 419.873 97.6934 419.772 97.6934C418.821 97.6934 417.938 98.1007 417.089 98.5418C417.055 98.5418 417.055 98.5079 417.021 98.5079C416.818 98.44 416.648 98.4061 416.478 98.4061C414.78 97.5577 412.607 97.4559 411.283 99.0509C411.147 99.2206 411.045 99.3902 410.944 99.5599C410.91 99.6278 410.876 99.6957 410.842 99.7635C410.57 100.408 410.536 101.155 410.842 101.8C411.249 102.716 412.132 103.395 413.185 103.395C413.965 103.395 414.577 103.021 415.018 102.444C414.882 103.021 414.712 103.598 414.577 104.175C414.203 105.634 413.898 107.128 413.66 108.621C413.558 109.367 413.422 110.114 413.354 110.861C413.32 111.234 413.252 111.607 413.218 112.014C413.184 112.456 413.185 112.863 413.185 113.304C413.185 114.017 413.049 114.763 413.015 115.51C412.947 116.324 412.947 117.105 412.947 117.919C412.947 118.394 413.456 118.7 413.864 118.7C414.271 118.7 414.746 118.36 414.78 117.919C414.848 117.139 414.882 116.392 414.95 115.612C414.984 114.899 414.984 114.152 415.086 113.44C415.12 113.236 415.188 113.066 415.222 112.897C415.256 112.693 415.256 112.523 415.29 112.32C415.324 111.947 415.358 111.539 415.391 111.166C415.459 110.419 415.561 109.673 415.663 108.926C415.867 107.433 416.037 105.906 416.24 104.413C416.376 103.429 416.546 102.478 416.716 101.528C416.953 102.309 417.191 103.055 417.395 103.836C417.938 106.008 418.278 108.248 418.345 110.487C418.413 112.659 418.074 114.865 417.836 117.037C417.768 117.478 418.074 117.885 418.481 118.021C418.889 118.123 419.398 117.919 419.534 117.512C420.009 116.053 420.179 114.526 420.281 112.999C420.417 110.623 420.213 108.248 419.704 105.906C419.432 104.684 419.092 103.496 418.617 102.309C418.923 102.444 419.228 102.58 419.568 102.682C420.247 102.852 420.96 102.818 421.571 102.512C434.338 109.639 439.057 124.774 441.502 138.281C442.045 141.369 442.86 145.441 443.335 149.717C444.354 159.694 443.709 170.825 433.964 173.574Z" fill="white"/>
<path opacity="0.3" d="M433.964 173.574C433.659 173.676 433.319 173.744 432.98 173.812C432.844 173.846 432.708 173.846 432.572 173.879H395.495C381.438 172.318 368.807 169.536 364.563 166.957C360.93 164.751 358.247 162.172 356.482 159.491C353.256 154.57 353.086 149.378 355.497 145.645C355.938 144.932 356.414 144.253 356.923 143.575C357.059 143.405 357.161 143.235 357.297 143.066C357.432 142.896 357.534 142.726 357.67 142.557C358.485 141.471 359.3 140.521 360.115 139.672C360.251 139.536 360.42 139.367 360.556 139.231C360.624 139.163 360.692 139.095 360.794 139.027C360.998 138.824 361.201 138.654 361.405 138.45C361.507 138.349 361.609 138.281 361.711 138.179C361.812 138.111 361.88 138.009 361.982 137.941C362.016 137.907 362.05 137.874 362.084 137.84C363.476 136.652 365.004 135.532 366.872 134.242C368.06 131.392 369.35 128.473 370.81 125.555C371.659 123.858 372.576 122.127 373.526 120.464C373.56 120.43 373.594 120.363 373.594 120.329C373.696 120.159 373.764 119.989 373.866 119.854C373.866 119.82 373.9 119.82 373.9 119.786C374.07 119.48 374.24 119.209 374.409 118.903C374.443 118.869 374.443 118.836 374.477 118.802C374.681 118.496 374.851 118.191 375.054 117.851C375.088 117.783 375.156 117.716 375.19 117.648C379.061 111.471 383.747 106.042 389.451 102.886C389.485 102.886 389.485 102.852 389.519 102.852C389.688 102.75 389.858 102.682 390.028 102.58C390.164 102.512 390.3 102.444 390.435 102.377C390.639 102.275 390.877 102.173 391.081 102.071C391.115 102.071 391.148 102.037 391.182 102.037C391.216 102.037 391.25 102.003 391.284 102.003C394.306 100.612 396.955 99.7975 399.263 99.2884C399.263 99.2884 399.263 99.2884 399.297 99.2884C399.399 99.2545 399.501 99.2545 399.603 99.2206L401.335 98.8473L402.455 98.9151L402.217 92.5352C402.183 91.5171 402.251 90.533 402.387 89.5488C402.998 85.748 404.696 76.2799 407.175 74.9225C409.042 73.9044 410.842 74.108 412.2 75.3976C412.37 75.6012 412.539 75.7709 412.709 75.9745C413.354 76.7889 413.83 77.9088 414.101 79.2663C414.95 83.6101 417.497 85.1372 421.13 85.6801C423.303 86.0195 423.846 84.2888 424.627 82.4562C425.136 81.2006 425.781 79.911 427.038 79.1645C430.195 77.2301 431.825 82.8295 434.575 83.7458C436.647 84.4245 425.646 93.3157 420.077 97.6934C419.975 97.6934 419.873 97.6934 419.772 97.6934C418.821 97.6934 417.938 98.1007 417.089 98.5418C417.055 98.5418 417.055 98.5079 417.021 98.5079C416.818 98.44 416.648 98.4061 416.478 98.4061C414.78 97.5577 412.607 97.4559 411.283 99.0509C411.147 99.2206 411.045 99.3902 410.944 99.5599C410.91 99.6278 410.876 99.6957 410.842 99.7635C410.57 100.408 410.536 101.155 410.842 101.8C411.249 102.716 412.132 103.395 413.185 103.395C413.965 103.395 414.577 103.021 415.018 102.444C414.882 103.021 414.712 103.598 414.577 104.175C414.203 105.634 413.898 107.128 413.66 108.621C413.558 109.367 413.422 110.114 413.354 110.861C413.32 111.234 413.252 111.607 413.218 112.014C413.184 112.456 413.185 112.863 413.185 113.304C413.185 114.017 413.049 114.763 413.015 115.51C412.947 116.324 412.947 117.105 412.947 117.919C412.947 118.394 413.456 118.7 413.864 118.7C414.271 118.7 414.746 118.36 414.78 117.919C414.848 117.139 414.882 116.392 414.95 115.612C414.984 114.899 414.984 114.152 415.086 113.44C415.12 113.236 415.188 113.066 415.222 112.897C415.256 112.693 415.256 112.523 415.29 112.32C415.324 111.947 415.358 111.539 415.392 111.166C415.459 110.419 415.561 109.673 415.663 108.926C415.867 107.433 416.037 105.906 416.24 104.413C416.376 103.429 416.546 102.478 416.716 101.528C416.953 102.309 417.191 103.055 417.395 103.836C417.938 106.008 418.278 108.248 418.345 110.487C418.413 112.659 418.074 114.865 417.836 117.037C417.768 117.478 418.074 117.885 418.481 118.021C418.889 118.123 419.398 117.919 419.534 117.512C420.009 116.053 420.179 114.526 420.281 112.999C420.417 110.623 420.213 108.248 419.704 105.906C419.432 104.684 419.092 103.496 418.617 102.309C418.923 102.444 419.228 102.58 419.568 102.682C420.247 102.852 420.96 102.818 421.571 102.512C434.338 109.639 439.057 124.774 441.502 138.281C442.045 141.369 442.86 145.441 443.335 149.717C444.354 159.694 443.709 170.825 433.964 173.574Z" fill="#E2EAFF"/>
<path opacity="0.8" d="M424.592 82.4561C423.811 84.2886 423.268 86.0194 421.095 85.68C417.462 85.137 414.915 83.6439 414.1 79.2661C413.829 77.8748 413.353 76.7888 412.708 75.9743C417.699 81.4041 421.978 82.49 424.592 82.4561Z" fill="#76A2E2"/>
<path opacity="0.5" d="M441.603 165.802C441.196 168.822 438.547 171.096 435.763 172.386C427.818 176.119 419.193 173.879 410.807 173.879C405.816 173.879 400.451 174.422 395.46 173.879C381.403 172.318 368.772 169.535 364.528 166.956C360.895 164.75 358.212 162.171 356.447 159.49C353.221 154.569 353.051 149.377 355.462 145.644C357.296 142.827 359.367 140.147 361.913 137.941C367.957 132.749 370.232 125.826 374.239 119.14C378.313 112.319 383.644 105.498 391.012 102.071C391.046 102.071 391.08 102.037 391.114 102.037C391.148 102.037 391.182 102.003 391.216 102.003C392.2 101.595 396.003 100.136 399.195 99.2878C399.195 99.2878 399.195 99.2878 399.229 99.2878C399.331 99.2538 399.432 99.2199 399.534 99.2199C400.145 99.0502 400.723 98.9484 401.266 98.8466C401.673 98.7787 402.047 98.7448 402.386 98.7109C403.065 98.6769 403.575 98.7448 403.812 99.0163C403.88 99.0841 403.914 99.186 403.914 99.3217C403.914 99.3896 403.914 99.4235 403.914 99.4914C403.778 100.374 402.352 101.731 401.843 102.512C399.772 105.702 397.938 109.061 396.41 112.523C394.034 117.851 392.302 123.552 391.555 129.321C391.012 133.699 389.654 138.009 387.549 141.911C386.088 144.626 383.304 146.255 382.116 149.14C379.705 154.943 385.579 156.979 389.586 159.185C393.592 161.39 397.667 163.427 402.013 164.818C408.328 166.82 414.949 167.77 421.536 167.838C423.302 167.872 441.569 166.175 441.603 165.802Z" fill="#B9D6FF"/>
<g opacity="0.8">
<path opacity="0.8" d="M406.698 151.448C405.748 151.143 404.967 150.77 404.254 150.328C403.575 149.887 402.997 149.48 402.488 149.073C402.013 148.665 401.605 148.258 401.334 147.885C401.062 147.512 400.858 147.24 400.723 147.071C400.587 146.867 400.519 146.697 400.519 146.528C400.485 146.358 400.587 146.188 400.824 145.985L402.726 144.254C402.93 144.05 403.133 143.982 403.371 144.016C403.609 144.05 403.846 144.288 404.118 144.661C404.525 145.238 405.069 145.781 405.646 146.324C406.257 146.867 406.936 147.274 407.649 147.58L409.415 140.758C408.668 140.215 407.955 139.639 407.276 139.028C406.563 138.383 405.951 137.704 405.442 136.924C404.933 136.143 404.559 135.295 404.356 134.378C404.152 133.428 404.186 132.41 404.491 131.222C404.695 130.374 405.035 129.627 405.51 128.949C405.985 128.27 406.563 127.693 407.276 127.252C407.989 126.811 408.838 126.505 409.822 126.336C410.807 126.166 411.893 126.2 413.116 126.404L413.387 125.284C413.421 125.114 413.523 124.944 413.693 124.876C413.863 124.775 414.033 124.775 414.202 124.809L414.644 124.91C414.813 124.944 414.983 125.08 415.051 125.216C415.153 125.385 415.153 125.555 415.119 125.725L414.813 126.879C415.56 127.15 416.24 127.456 416.885 127.829C417.53 128.202 418.073 128.575 418.548 128.949C419.024 129.322 419.397 129.695 419.703 130.001C420.008 130.306 420.212 130.544 420.348 130.713C420.518 130.883 420.586 131.087 420.552 131.324C420.518 131.562 420.416 131.765 420.28 131.935L418.345 133.598C417.937 133.937 417.598 133.937 417.292 133.632C416.885 133.191 416.409 132.682 415.832 132.139C415.255 131.596 414.576 131.121 413.829 130.713L412.165 137.093C412.844 137.602 413.557 138.213 414.304 138.858C415.051 139.503 415.696 140.249 416.24 141.064C416.783 141.878 417.19 142.761 417.462 143.745C417.733 144.729 417.7 145.781 417.394 146.901C416.885 148.801 415.866 150.227 414.304 151.177C412.742 152.127 410.739 152.365 408.362 151.889L407.411 155.521C407.378 155.69 407.242 155.826 407.072 155.928C406.902 155.996 406.732 156.03 406.529 155.962C406.325 155.894 406.087 155.826 405.85 155.69C405.612 155.554 405.544 155.351 405.612 155.045L406.698 151.448ZM412.165 130.272C411.248 130.17 410.501 130.272 409.958 130.646C409.381 130.985 409.041 131.494 408.838 132.173C408.668 132.885 408.736 133.496 409.041 134.073C409.381 134.65 409.924 135.261 410.671 135.973L412.165 130.272ZM409.449 148.123C410.264 148.224 410.977 148.156 411.588 147.851C412.199 147.546 412.606 147.037 412.81 146.222C412.98 145.543 412.946 144.865 412.674 144.152C412.403 143.439 411.859 142.727 411.045 141.98L409.449 148.123Z" fill="#AFD0FF"/>
</g>
<path opacity="0.8" d="M422.42 99.0853C421.91 98.203 421.027 97.7279 420.043 97.66C419.941 97.66 419.839 97.66 419.737 97.66C418.787 97.66 417.904 98.0673 417.055 98.5084C417.021 98.5084 417.021 98.4745 416.987 98.4745C416.783 98.4066 416.614 98.3727 416.444 98.3727C414.746 97.5243 412.573 97.4225 411.249 99.0175C411.113 99.1871 411.011 99.3568 410.909 99.5265C410.875 99.5944 410.841 99.6623 410.807 99.7301C410.536 100.375 410.502 101.121 410.807 101.766C411.215 102.683 412.098 103.361 413.15 103.361C413.931 103.361 414.542 102.988 414.984 102.411C414.848 102.988 414.678 103.565 414.542 104.142C414.169 105.601 413.863 107.094 413.626 108.587C413.524 109.334 413.388 110.081 413.32 110.827C413.286 111.2 413.218 111.574 413.184 111.981C413.15 112.422 413.15 112.829 413.15 113.271C413.15 113.983 413.014 114.73 412.98 115.476C412.913 116.291 412.913 117.071 412.913 117.886C412.913 118.361 413.422 118.666 413.829 118.666C414.237 118.666 414.712 118.327 414.746 117.886C414.814 117.105 414.848 116.359 414.916 115.578C414.95 114.866 414.95 114.119 415.052 113.406C415.086 113.203 415.154 113.033 415.187 112.863C415.221 112.66 415.221 112.49 415.255 112.286C415.289 111.913 415.323 111.506 415.357 111.133C415.425 110.386 415.527 109.639 415.629 108.893C415.833 107.4 416.002 105.873 416.206 104.379C416.342 103.395 416.512 102.445 416.681 101.495C416.919 102.275 417.157 103.022 417.36 103.802C417.904 105.974 418.243 108.214 418.311 110.454C418.379 112.626 418.04 114.832 417.802 117.003C417.734 117.445 418.04 117.852 418.447 117.988C418.854 118.089 419.364 117.886 419.5 117.479C419.975 116.019 420.145 114.492 420.247 112.965C420.382 110.59 420.179 108.214 419.669 105.873C419.398 104.651 419.058 103.463 418.583 102.275C418.888 102.411 419.194 102.547 419.534 102.649C420.213 102.818 420.926 102.784 421.537 102.479C421.808 102.343 422.046 102.174 422.25 101.936C422.861 101.189 422.929 99.9677 422.42 99.0853ZM418.922 99.5944C419.33 99.5604 419.703 99.6283 419.975 99.7301C420.043 99.7641 420.111 99.798 420.179 99.8319C420.213 99.8659 420.247 99.8659 420.281 99.8998C420.281 99.8998 420.247 99.8998 420.213 99.8659C420.247 99.8998 420.314 99.9337 420.348 99.9677C420.28 99.9337 420.484 100.171 420.45 100.103C420.484 100.137 420.484 100.205 420.518 100.273C420.518 100.273 420.518 100.307 420.518 100.341C420.518 100.341 420.518 100.443 420.518 100.477V100.511C420.484 100.511 420.45 100.545 420.45 100.545C420.45 100.545 420.45 100.545 420.484 100.545C420.45 100.545 420.382 100.545 420.382 100.545C420.348 100.545 420.348 100.545 420.348 100.545H420.314C420.247 100.545 420.145 100.511 420.077 100.511C420.043 100.511 419.941 100.477 419.941 100.477C419.873 100.443 419.805 100.443 419.737 100.409C419.601 100.341 419.432 100.273 419.296 100.205C419.024 100.036 418.753 99.8659 418.481 99.6623C418.583 99.6283 418.753 99.5944 418.922 99.5944Z" fill="#76A2E2"/>
<g opacity="0.5">
<g opacity="0.6">
<g opacity="0.6">
<path opacity="0.6" d="M211.804 218.639C211.838 220.607 211.905 222.609 211.939 224.578L212.041 230.516C212.041 230.652 211.939 230.754 211.838 230.754C211.702 230.754 211.6 230.652 211.6 230.55L211.702 224.611C211.736 222.609 211.77 220.641 211.804 218.639Z" fill="#231F20"/>
<path opacity="0.6" d="M212.177 242.394L212.245 248.332L212.279 254.271C212.279 254.509 212.076 254.746 211.838 254.746C211.6 254.746 211.363 254.543 211.363 254.305L211.396 248.366L211.464 242.428C211.464 242.224 211.634 242.054 211.838 242.054C212.008 242.054 212.177 242.224 212.177 242.394Z" fill="#231F20"/>
<path opacity="0.6" d="M212.314 266.149C212.314 270.12 212.314 274.056 212.314 278.027C212.314 278.298 212.076 278.536 211.804 278.536C211.533 278.536 211.295 278.298 211.295 278.027C211.295 274.056 211.295 270.12 211.295 266.149C211.295 265.878 211.533 265.64 211.804 265.64C212.076 265.674 212.314 265.878 212.314 266.149Z" fill="#231F20"/>
<path opacity="0.6" d="M212.279 289.904L212.245 295.843L212.177 301.782C212.177 301.985 212.008 302.121 211.804 302.121C211.6 302.121 211.464 301.951 211.464 301.782L211.396 295.843L211.363 289.904C211.363 289.667 211.566 289.463 211.804 289.429C212.076 289.463 212.279 289.667 212.279 289.904Z" fill="#231F20"/>
<path opacity="0.6" d="M212.041 313.66L211.939 319.327C211.905 321.227 211.871 323.094 211.838 324.994C211.804 323.094 211.736 321.227 211.736 319.327L211.634 313.66C211.634 313.524 211.736 313.456 211.838 313.456C211.939 313.456 212.041 313.558 212.041 313.66Z" fill="#231F20"/>
</g>
</g>
<g opacity="0.6">
<g opacity="0.6">
<path opacity="0.6" d="M239.103 218.639C239.239 220.607 239.34 222.609 239.408 224.578C239.442 225.562 239.476 226.546 239.51 227.564C239.544 228.548 239.578 229.532 239.578 230.55C239.578 230.788 239.374 230.991 239.137 230.991C238.899 230.991 238.695 230.788 238.695 230.55C238.695 229.566 238.729 228.582 238.763 227.564C238.797 226.58 238.831 225.596 238.865 224.578C238.899 222.609 238.967 220.641 239.103 218.639Z" fill="#231F20"/>
<path opacity="0.6" d="M239.578 242.393L239.544 245.38L239.476 248.332C239.408 250.3 239.34 252.303 239.238 254.271C239.238 254.339 239.17 254.373 239.102 254.373C239.035 254.373 239.001 254.339 239.001 254.271C238.899 252.303 238.831 250.3 238.763 248.332L238.695 245.38L238.661 242.393C238.661 242.122 238.865 241.918 239.136 241.918C239.374 241.918 239.578 242.122 239.578 242.393Z" fill="#231F20"/>
</g>
</g>
<g opacity="0.6">
<g opacity="0.6">
<path opacity="0.6" d="M263.278 194.885C263.38 196.853 263.414 198.855 263.481 200.823C263.549 202.792 263.583 204.794 263.617 206.762C263.617 206.966 263.481 207.102 263.278 207.102C263.074 207.102 262.938 206.966 262.938 206.762C262.972 204.794 263.006 202.792 263.074 200.823C263.142 198.821 263.176 196.853 263.278 194.885Z" fill="#231F20"/>
<path opacity="0.6" d="M263.753 218.639L263.787 224.578V230.517C263.787 230.788 263.549 231.026 263.278 231.026C263.006 231.026 262.768 230.822 262.768 230.517V224.578L262.802 218.639C262.802 218.368 263.006 218.164 263.278 218.164C263.549 218.164 263.753 218.368 263.753 218.639Z" fill="#231F20"/>
<path opacity="0.6" d="M263.651 242.396C263.617 244.364 263.583 246.366 263.549 248.334L263.38 254.273C263.38 254.307 263.346 254.341 263.312 254.341C263.278 254.341 263.244 254.307 263.244 254.273L263.074 248.334C263.04 246.366 262.972 244.364 262.972 242.396C262.972 242.192 263.142 242.022 263.346 242.022C263.481 242.022 263.617 242.158 263.651 242.396Z" fill="#231F20"/>
</g>
</g>
<g opacity="0.6">
<g opacity="0.6">
<path opacity="0.6" d="M291.358 194.885L291.46 200.823L291.528 206.762C291.528 206.864 291.46 206.932 291.358 206.932C291.256 206.932 291.188 206.864 291.188 206.762L291.256 200.823L291.358 194.885Z" fill="#231F20"/>
<path opacity="0.6" d="M291.663 218.64L291.765 230.518C291.765 230.755 291.595 230.925 291.358 230.925C291.12 230.925 290.95 230.755 290.95 230.518L291.052 218.64C291.052 218.47 291.188 218.335 291.358 218.335C291.527 218.335 291.663 218.47 291.663 218.64Z" fill="#231F20"/>
<path opacity="0.6" d="M291.833 242.395L291.867 254.273C291.867 254.545 291.663 254.748 291.392 254.748C291.12 254.748 290.916 254.545 290.916 254.273L290.95 242.395C290.95 242.158 291.154 241.954 291.392 241.954C291.629 241.92 291.833 242.124 291.833 242.395Z" fill="#231F20"/>
<path opacity="0.6" d="M291.867 266.15L291.833 278.027C291.833 278.299 291.629 278.502 291.357 278.502C291.086 278.502 290.882 278.299 290.882 278.027L290.848 266.15C290.848 265.878 291.086 265.64 291.357 265.64C291.629 265.64 291.867 265.878 291.867 266.15Z" fill="#231F20"/>
<path opacity="0.6" d="M291.799 289.905L291.765 295.843L291.731 301.782C291.731 301.986 291.561 302.122 291.392 302.122C291.188 302.122 291.052 301.952 291.052 301.782L291.018 295.843L290.984 289.905C290.984 289.667 291.188 289.464 291.426 289.464C291.595 289.464 291.799 289.667 291.799 289.905Z" fill="#231F20"/>
<path opacity="0.6" d="M291.595 313.66L291.426 325.538C291.426 325.572 291.392 325.606 291.358 325.606C291.324 325.606 291.29 325.572 291.29 325.538L291.12 313.66C291.12 313.525 291.222 313.423 291.358 313.423C291.494 313.423 291.595 313.525 291.595 313.66Z" fill="#231F20"/>
</g>
</g>
<g opacity="0.6">
<g opacity="0.6">
<path opacity="0.6" d="M314.039 173.301C314.175 175.27 314.243 177.272 314.311 179.24C314.379 181.208 314.413 183.211 314.48 185.179C314.48 185.416 314.311 185.62 314.073 185.62C313.835 185.62 313.632 185.45 313.632 185.213C313.632 185.213 313.632 185.213 313.632 185.179C313.666 183.211 313.733 181.208 313.801 179.24C313.835 177.238 313.903 175.27 314.039 173.301Z" fill="#231F20"/>
<path opacity="0.6" d="M314.514 197.057C314.514 198.041 314.514 199.025 314.48 200.043L314.446 203.029L314.412 205.948C314.378 206.932 314.378 207.916 314.344 208.934C314.344 209.104 314.208 209.24 314.039 209.206C313.869 209.206 313.767 209.07 313.767 208.934C313.733 207.95 313.699 206.966 313.699 205.948L313.631 202.961L313.597 199.975C313.597 198.991 313.597 198.007 313.563 196.989C313.563 196.717 313.767 196.48 314.072 196.48C314.378 196.48 314.514 196.751 314.514 197.057C314.514 197.057 314.514 197.023 314.514 197.057Z" fill="#231F20"/>
</g>
</g>
</g>
<path opacity="0.3" d="M211.804 218.674C213.435 218.674 214.758 217.352 214.758 215.722C214.758 214.091 213.435 212.769 211.804 212.769C210.172 212.769 208.85 214.091 208.85 215.722C208.85 217.352 210.172 218.674 211.804 218.674Z" fill="#285698"/>
<path opacity="0.3" d="M239.103 218.674C240.735 218.674 242.057 217.352 242.057 215.722C242.057 214.091 240.735 212.769 239.103 212.769C237.472 212.769 236.149 214.091 236.149 215.722C236.149 217.352 237.472 218.674 239.103 218.674Z" fill="#285698"/>
<path opacity="0.3" d="M264.161 196.48C265.792 196.48 267.115 195.158 267.115 193.528C267.115 191.897 265.792 190.575 264.161 190.575C262.529 190.575 261.207 191.897 261.207 193.528C261.207 195.158 262.529 196.48 264.161 196.48Z" fill="#285698"/>
<path opacity="0.3" d="M291.46 196.48C293.091 196.48 294.414 195.158 294.414 193.528C294.414 191.897 293.091 190.575 291.46 190.575C289.828 190.575 288.506 191.897 288.506 193.528C288.506 195.158 289.828 196.48 291.46 196.48Z" fill="#285698"/>
<path opacity="0.3" d="M313.428 175.813C315.059 175.813 316.382 174.492 316.382 172.861C316.382 171.23 315.059 169.909 313.428 169.909C311.796 169.909 310.474 171.23 310.474 172.861C310.474 174.492 311.796 175.813 313.428 175.813Z" fill="#285698"/>
<path opacity="0.4" d="M335.158 163.223L313.428 172.861L291.46 193.528H264.161L239.103 215.722H211.804" stroke="#285698" stroke-width="5" stroke-miterlimit="10" stroke-linecap="round" stroke-linejoin="round"/>
<path opacity="0.4" d="M330.778 163.223H335.158L332.238 166.142" stroke="#285698" stroke-width="5" stroke-miterlimit="10" stroke-linecap="round" stroke-linejoin="round"/>
</svg>
