<svg width="297" height="252" viewBox="0 0 297 252" fill="none" xmlns="http://www.w3.org/2000/svg">
<path fill-rule="evenodd" clip-rule="evenodd" d="M189.626 225.405C203.493 229.057 227.32 230.284 257.66 230.094C285.819 230.115 297.101 233.009 296.679 238.094C293.412 245.979 246.857 250.01 166.957 250.178C100.997 250.383 70.2485 245.656 61.3667 237.486C47.8772 223.414 147.099 214.392 189.626 225.405Z" fill="url(#paint0_linear_119_5036)"/>
<path d="M215.31 78.8605L172.565 36.3628L171.787 43.0804L207.809 78.8605H215.31Z" fill="#2D4BAA"/>
<path d="M129.325 78.8605L165.347 43.0804L164.568 36.3628L121.894 78.8605H129.325Z" fill="#2D4BAA"/>
<path d="M173.06 234.851H163.223V35.444C163.223 32.7569 165.417 30.4941 168.177 30.4941C170.866 30.4941 173.13 32.6862 173.13 35.444L173.06 234.851Z" fill="#2D4BAA"/>
<path d="M163.294 211.022L141.71 234.71H131.165L163.365 199.142L163.294 211.022Z" fill="#2D4BAA"/>
<path d="M172.848 211.022L194.433 234.71H204.978L172.848 199.142V211.022Z" fill="#2D4BAA"/>
<path d="M168.178 43.3627C169.507 43.3627 170.584 42.2546 170.584 40.8878C170.584 39.5209 169.507 38.4128 168.178 38.4128C166.849 38.4128 165.772 39.5209 165.772 40.8878C165.772 42.2546 166.849 43.3627 168.178 43.3627Z" fill="#8EDEF2"/>
<path d="M260.178 173.331H77.0275V183.018H260.178V173.331Z" fill="#2D4BAA"/>
<path d="M260.178 58.0723H77.0275V62.8099H260.178V58.0723Z" fill="#566CD3"/>
<path d="M82.9049 172.831V63.3086H254.228V172.831H82.9049Z" fill="white" stroke="black"/>
<path d="M93.5201 133.375V130.132H152.603V133.375H93.5201Z" stroke="black"/>
<path d="M93.5201 141.365V138.122H152.603V141.365H93.5201Z" stroke="black"/>
<path d="M93.5201 149.427V146.185H152.603V149.427H93.5201Z" stroke="black"/>
<path d="M93.5201 157.487V154.245H152.603V157.487H93.5201Z" stroke="black"/>
<path d="M93.5201 165.548V162.305H152.603V165.548H93.5201Z" stroke="black"/>
<path d="M246.094 106.298H168.319V166.049H246.094V106.298Z" fill="#E5E9FF"/>
<path d="M177.731 105.378H174.971V166.968H177.731V105.378Z" fill="white"/>
<path d="M186.577 105.378H183.817V166.968H186.577V105.378Z" fill="white"/>
<path d="M195.423 105.378H192.663V166.968H195.423V105.378Z" fill="white"/>
<path d="M204.27 105.378H201.51V166.968H204.27V105.378Z" fill="white"/>
<path d="M213.116 105.378H210.356V166.968H213.116V105.378Z" fill="white"/>
<path d="M221.962 105.378H219.202V166.968H221.962V105.378Z" fill="white"/>
<path d="M230.808 105.378H228.048V166.968H230.808V105.378Z" fill="white"/>
<path d="M239.654 105.378H236.894V166.968H239.654V105.378Z" fill="white"/>
<path d="M246.377 112.238H166.904V114.996H246.377V112.238Z" fill="white"/>
<path d="M246.377 121.147H166.904V123.905H246.377V121.147Z" fill="white"/>
<path d="M246.377 130.057H166.904V132.815H246.377V130.057Z" fill="white"/>
<path d="M246.377 139.037H166.904V141.795H246.377V139.037Z" fill="white"/>
<path d="M246.377 147.947H166.904V150.705H246.377V147.947Z" fill="white"/>
<path d="M246.377 156.856H166.904V159.614H246.377V156.856Z" fill="white"/>
<path d="M168.601 145.26L167.823 142.998L201.297 131.966L229.251 139.179L245.881 130.552L246.943 132.674L229.534 141.725L229.109 141.583L201.367 134.441L168.601 145.26Z" fill="#2747B3"/>
<path d="M229.393 143.422C231.23 143.422 232.719 141.934 232.719 140.099C232.719 138.263 231.23 136.775 229.393 136.775C227.556 136.775 226.067 138.263 226.067 140.099C226.067 141.934 227.556 143.422 229.393 143.422Z" fill="#F7B75D"/>
<path d="M245.882 135.005C247.719 135.005 249.208 133.517 249.208 131.682C249.208 129.846 247.719 128.358 245.882 128.358C244.045 128.358 242.556 129.846 242.556 131.682C242.556 133.517 244.045 135.005 245.882 135.005Z" fill="#F7B75D"/>
<path d="M201.368 136.491C203.205 136.491 204.694 135.003 204.694 133.168C204.694 131.332 203.205 129.844 201.368 129.844C199.531 129.844 198.042 131.332 198.042 133.168C198.042 135.003 199.531 136.491 201.368 136.491Z" fill="#F7B75D"/>
<path d="M168.531 147.239C170.368 147.239 171.857 145.751 171.857 143.915C171.857 142.08 170.368 140.592 168.531 140.592C166.694 140.592 165.205 142.08 165.205 143.915C165.205 145.751 166.694 147.239 168.531 147.239Z" fill="#F7B75D"/>
<path d="M183.887 90.5283H178.651V98.5895H183.887V90.5283Z" fill="#2747B3"/>
<path d="M194.292 81.6897H189.055V98.5898H194.292V81.6897Z" fill="#F7B75D"/>
<path d="M204.695 87.488H199.458V98.5898H204.695V87.488Z" fill="#121F55"/>
<path d="M215.097 75.5376H209.86V98.5896H215.097V75.5376Z" fill="#2747B3"/>
<path d="M225.5 72.0725H220.263V98.5894H225.5V72.0725Z" fill="#F7B75D"/>
<path d="M235.904 65.7786H230.667V98.5888H235.904V65.7786Z" fill="#121F55"/>
<path d="M124.23 96.6103H147.583C146.805 108.066 137.322 117.046 125.716 117.046C113.614 117.046 103.777 107.217 103.777 95.1253C103.777 83.5286 112.836 74.0532 124.23 73.2754V96.6103Z" fill="#121F55"/>
<path d="M127.131 92.7902V74.688C134.137 75.183 140.153 79.2135 143.479 85.0119L127.131 92.7902Z" fill="#72D8ED"/>
<path d="M146.097 93.6397H132.156L144.752 87.6292C145.531 89.6091 145.955 91.589 146.097 93.6397Z" fill="#2D4BAA"/>
<path d="M128.011 4.3147C128.011 4.3147 127.94 4.3147 127.799 4.3147C127.657 4.3147 127.445 4.3147 127.232 4.3147C126.737 4.3147 126.029 4.38541 125.109 4.45612C123.269 4.59754 120.651 4.88039 117.537 5.5168C115.98 5.79964 114.282 6.22391 112.583 6.7189C110.814 7.21388 109.045 7.85028 107.205 8.62811C106.285 9.05238 105.365 9.40594 104.445 9.90092C104.02 10.1131 103.525 10.3959 103.1 10.608C102.888 10.7495 102.675 10.8909 102.463 11.0323L102.109 11.2444L101.755 11.4566C100.835 12.0223 99.9862 12.6587 99.137 13.2951C98.7123 13.6486 98.2877 13.9315 97.9339 14.2851C97.7216 14.4972 97.5093 14.6386 97.3677 14.8507L96.8016 15.4164C96.0231 16.1943 95.3154 16.9721 94.6785 17.8206C94.3246 18.2449 94.0416 18.6692 93.7585 19.0934C93.617 19.3056 93.4754 19.5177 93.3339 19.7299C93.1923 19.942 93.0508 20.1541 92.9093 20.3663C91.8477 22.1341 90.9985 24.0433 90.4323 25.9525C89.8662 27.8617 89.5123 29.7002 89.3708 31.5387C89.2293 33.3065 89.2293 35.0036 89.3 36.5592C89.3 36.9128 89.3708 37.3371 89.3708 37.6906C89.4416 38.0442 89.4416 38.3978 89.5123 38.7513C89.5123 38.8927 89.5831 39.1049 89.5831 39.2463C89.5831 39.3877 89.6539 39.5999 89.6539 39.7413C89.7246 40.0948 89.7246 40.3777 89.7954 40.7312C90.0077 42.0041 90.22 43.0647 90.4323 43.9133C90.6446 44.7618 90.7862 45.4689 90.9277 45.9639C91.0693 46.4589 91.14 46.671 91.14 46.671C91.14 46.671 91.0693 46.3882 90.9985 45.9639C90.9277 45.4689 90.7154 44.8325 90.5739 43.9133C90.4323 43.0647 90.22 41.9333 90.0785 40.7312C90.0785 40.4484 90.0077 40.0948 90.0077 39.7413C90.0077 39.5999 90.0077 39.3877 89.9369 39.2463C89.9369 39.1049 89.9369 38.8927 89.9369 38.7513C89.9369 38.3978 89.8662 38.0442 89.8662 37.6906C89.8662 37.3371 89.8662 36.9128 89.8662 36.5592C89.8662 35.0036 89.8662 33.3772 90.1493 31.6094C90.3616 29.8416 90.7862 28.0738 91.4231 26.2353C92.06 24.3968 92.9093 22.629 94.0416 20.932C94.1831 20.7198 94.3246 20.5077 94.4662 20.2955C94.6077 20.0834 94.7493 19.8713 94.8908 19.6591C95.1739 19.2349 95.5277 18.8813 95.8816 18.457C96.5185 17.6792 97.2262 16.9721 98.0046 16.265L98.5708 15.77C98.7831 15.6286 98.9954 15.4164 99.137 15.275C99.5616 14.9215 99.9154 14.6386 100.34 14.3558C101.189 13.7901 102.038 13.2244 102.888 12.7294L103.242 12.5173L103.595 12.3051C103.808 12.1637 104.02 12.093 104.232 11.9516C104.657 11.7394 105.082 11.5273 105.577 11.3152C106.426 10.8909 107.346 10.5373 108.266 10.1838C110.035 9.54736 111.805 8.98167 113.503 8.5574C115.202 8.13313 116.829 7.77957 118.315 7.56744C121.358 7.07245 123.835 6.93103 125.605 6.86032C126.454 6.86032 127.162 6.78961 127.657 6.78961C127.869 6.78961 128.082 6.78961 128.152 6.78961C128.294 6.78961 128.294 6.78961 128.294 6.78961L128.011 4.3147Z" fill="#F7B75D"/>
<path d="M136.008 11.0307C135.725 10.96 135.513 10.6772 135.584 10.3943L136.716 5.58592C136.787 5.30308 137.07 5.09094 137.353 5.16165C137.636 5.23237 137.848 5.51521 137.777 5.79806L136.645 10.6065C136.645 10.8893 136.291 11.1014 136.008 11.0307Z" fill="#B9B8F1"/>
<path d="M139.052 11.9509C137.07 12.7994 134.593 14.0015 132.046 13.7894L131.762 14.85C134.239 15.9107 137.778 17.4664 138.769 17.8906C140.396 18.5978 141.104 18.1028 141.104 18.1028L146.978 15.4865C146.978 15.6279 141.033 11.173 139.052 11.9509Z" fill="#72D8ED"/>
<path d="M145.208 1.34352C145.208 1.34352 144.854 0.565694 143.014 0.494982C141.882 0.42427 138.061 0.212135 135.372 0L135.089 1.06068C137.495 2.05064 139.122 4.31341 140.467 5.93978C141.882 7.63686 149.241 6.29334 149.241 6.29334L145.208 1.34352Z" fill="#72D8ED"/>
<path d="M137.116 11.905C136.935 11.8175 136.783 11.7426 136.66 11.6822L137.485 8.32322L136.999 8.20402L137.485 8.32322L138.31 4.9615C138.447 4.9638 138.618 4.96705 138.82 4.97164C139.402 4.98483 140.239 5.00903 141.259 5.05306C143.3 5.14115 146.071 5.30846 148.994 5.62515C151.919 5.94211 154.984 6.40737 157.618 7.08826C160.274 7.77482 162.402 8.65932 163.54 9.76241C165.581 11.8029 166.847 14.4127 167.271 15.4913C166.409 16.2685 164.113 18.0332 161.269 18.8981L161.266 18.8991C159.756 19.3696 157.463 19.1914 154.788 18.5935C152.138 18.0011 149.202 17.0183 146.458 15.9662C143.715 14.915 141.176 13.7993 139.321 12.946C138.394 12.5195 137.639 12.1588 137.116 11.905Z" stroke="black"/>
<path d="M162.193 19.0929C165.661 17.8908 167.854 15.6281 167.854 15.6281C167.854 15.6281 166.935 12.5875 164.387 9.97112C164.175 9.75899 163.962 9.54685 163.75 9.33472C162.547 11.1025 160.778 14.5674 161.344 19.3758C161.627 19.3051 161.91 19.1637 162.193 19.0929Z" fill="#72D8ED"/>
<path d="M124.048 5.09043C124.048 5.09043 134.521 15.6265 136.361 8.06033C138.13 0.494169 124.048 5.09043 124.048 5.09043Z" fill="#F7B75D"/>
<path d="M137.848 7.42591C137.707 7.3552 136.928 7.14307 136.716 7.21378C136.574 7.21378 134.522 7.14307 133.39 7.14307L133.248 7.63805C134.31 8.13303 136.15 9.05228 136.291 9.12299C136.504 9.19371 137.211 9.40584 137.424 9.40584C137.565 9.40584 138.273 9.26442 138.627 9.12299L138.839 8.20374C138.556 7.9209 137.99 7.49662 137.848 7.42591Z" fill="#2D4BAA"/>
<path d="M143.651 10.323C143.934 9.12093 145.137 8.41381 146.34 8.69666C146.906 8.83808 147.402 9.19164 147.755 9.68662C148.039 10.1816 148.18 10.818 148.039 11.3837C147.755 12.5858 146.552 13.2929 145.349 13.0101C144.783 12.8686 144.288 12.5151 143.934 12.0201C143.58 11.5251 143.51 10.8887 143.651 10.323Z" fill="#2D4BAA"/>
<path d="M152.356 10.8194C152.073 10.3245 151.577 9.97089 150.941 9.82947C149.738 9.54662 148.535 10.2537 148.251 11.4558C148.11 12.0215 148.181 12.6579 148.535 13.1529C148.818 13.6479 149.313 14.0015 149.95 14.1429C151.153 14.4257 152.356 13.7186 152.639 12.5165C152.78 11.8801 152.71 11.3144 152.356 10.8194Z" fill="#2D4BAA"/>
<path d="M157.309 13.5783C157.451 13.0126 157.38 12.3762 157.026 11.8812C156.743 11.3862 156.248 11.0327 155.611 10.8912C154.408 10.6084 153.205 11.3155 152.922 12.5176C152.78 13.0833 152.851 13.7197 153.205 14.2147C153.488 14.7097 153.983 15.0632 154.62 15.2047C155.823 15.5582 157.026 14.7804 157.309 13.5783Z" fill="#2D4BAA"/>
<path d="M88.7435 88.1769L88.8283 88.5721H89.2324H90.9309C90.9443 88.5721 91.0049 88.5834 91.0845 88.658C91.1481 88.7175 91.1898 88.7869 91.2094 88.8426V91.7491C91.2094 91.814 91.1849 91.8609 91.1472 91.8961C91.1045 91.9359 91.0485 91.9562 91.0017 91.9562H89.3032H88.9055L88.816 92.3437C88.6145 93.2164 88.2786 94.0882 87.8099 94.8912L87.6154 95.2243L87.8883 95.4969L89.0913 96.699C89.179 96.7866 89.179 96.8941 89.0913 96.9816L86.9683 99.103C86.8804 99.1907 86.7722 99.1907 86.6843 99.103L85.4812 97.9009L85.2088 97.6286L84.876 97.8226C84.0427 98.3083 83.2475 98.7014 82.3339 98.897L81.9386 98.9817V99.386V101.083C81.9386 101.148 81.9141 101.195 81.8764 101.23C81.8337 101.27 81.7777 101.29 81.7309 101.29H78.7586C78.6932 101.29 78.6461 101.266 78.6109 101.228C78.571 101.185 78.5509 101.129 78.5509 101.083V99.386V98.9881L78.1632 98.8987C77.2898 98.6973 76.4171 98.3617 75.6134 97.8933L75.2807 97.6994L75.0083 97.9716L73.8052 99.1737C73.7173 99.2615 73.6091 99.2615 73.5212 99.1737L71.3981 97.0523C71.3105 96.9648 71.3105 96.8573 71.3981 96.7698L72.6012 95.5677L72.8741 95.295L72.6796 94.9619C72.1935 94.1292 71.8001 93.3347 71.6044 92.4221L71.5196 92.0269H71.1155H69.417C69.3517 92.0269 69.3046 92.0023 69.2694 91.9646C69.2295 91.922 69.2094 91.8662 69.2094 91.8198V88.8499C69.2094 88.785 69.2338 88.7381 69.2715 88.7029C69.3143 88.6631 69.3702 88.6428 69.417 88.6428H71.1155H71.5132L71.6027 88.2553C71.8042 87.3826 72.1401 86.5108 72.6088 85.7078L72.8033 85.3747L72.5305 85.102L71.3274 83.8999C71.2398 83.8124 71.2398 83.7049 71.3274 83.6174L73.4505 81.496C73.5369 81.4096 73.6432 81.4083 73.7303 81.492L74.8562 82.6873L75.1286 82.9765L75.4719 82.7764C76.3053 82.2907 77.1005 81.8976 78.014 81.702L78.4094 81.6173V81.213V79.516C78.4094 79.4511 78.4338 79.4041 78.4715 79.369C78.5143 79.3291 78.5702 79.3088 78.617 79.3088H81.5894C81.6547 79.3088 81.7018 79.3334 81.737 79.3711C81.7769 79.4138 81.797 79.4695 81.797 79.516V81.213V81.6109L82.1847 81.7003C83.0582 81.9017 83.9308 82.2373 84.7345 82.7057L85.0672 82.8996L85.3397 82.6274L86.5428 81.4253C86.6306 81.3375 86.7389 81.3375 86.8267 81.4253L88.9498 83.5467C89.0374 83.6342 89.0374 83.7417 88.9498 83.8292L87.7467 85.0313L87.4738 85.304L87.6683 85.6371C88.1545 86.4698 88.5478 87.2643 88.7435 88.1769Z" fill="white" stroke="black"/>
<path d="M86.679 90.2656C86.679 93.8783 83.7895 96.7661 80.1733 96.7661C76.557 96.7661 73.6676 93.8783 73.6676 90.2656C73.6676 86.6529 76.557 83.7651 80.1733 83.7651C83.7895 83.7651 86.679 86.6529 86.679 90.2656Z" fill="white" stroke="black"/>
<path d="M80.4656 85.826C82.9193 86.0007 84.7669 88.1299 84.593 90.581C84.4191 93.0321 82.2895 94.8782 79.8357 94.7035C77.3819 94.5289 75.5344 92.3997 75.7083 89.9486C75.8822 87.4975 78.0118 85.6514 80.4656 85.826Z" fill="white" stroke="black"/>
<path fill-rule="evenodd" clip-rule="evenodd" d="M79.9616 90.8316C80.8108 91.1144 81.023 91.2559 81.023 91.6094C81.023 91.963 80.4569 92.1044 80.1031 92.1044C79.7493 92.1044 79.3955 92.0337 79.1124 91.8216C79.0416 91.7508 78.9001 91.8216 78.8293 91.8923L78.4048 92.5994C78.334 92.6701 78.334 92.8115 78.4755 92.8822C78.8293 93.0944 79.2539 93.2358 79.6785 93.3065V93.7308C79.6785 93.8722 79.7493 93.9429 79.8908 93.9429H80.6692C80.8108 93.9429 80.8815 93.8722 80.8815 93.7308V93.2358C81.7307 93.0237 82.226 92.3873 82.226 91.6801C82.226 90.3366 81.0938 89.9831 80.3154 89.7709C79.4662 89.4881 79.3247 89.4174 79.3247 89.1345C79.3247 88.781 79.8908 88.7102 80.2446 88.7102C80.6692 88.7102 81.0938 88.9224 81.3769 89.1345C81.4476 89.2052 81.4476 89.2052 81.5184 89.2052C81.5892 89.2052 81.6599 89.2052 81.6599 89.1345L82.226 88.5688C82.2968 88.4981 82.2968 88.3567 82.226 88.286C81.8722 87.9324 81.3769 87.6496 80.8815 87.5081V87.0132C80.8815 86.8717 80.8108 86.801 80.6692 86.801H79.8908C79.7493 86.801 79.6785 86.8717 79.6785 87.0132V87.4374C78.7586 87.5789 78.1217 88.2153 78.1217 89.0638C78.1217 90.2659 79.2539 90.6195 79.9616 90.8316Z" fill="#2D4BAA"/>
<path d="M64.4598 18.3185H70.3395C69.9069 20.976 67.6213 22.9754 64.8136 22.9754C61.7635 22.9754 59.2279 20.4412 59.2279 17.3942C59.2279 14.5893 61.2286 12.3048 63.8891 11.8727V17.8185V18.3185H64.3891H64.4598Z" stroke="black"/>
<g clip-path="url(#clip0_119_5036)">
<path d="M34.3357 65.5449C34.3357 75.122 26.6744 82.8408 17.1688 82.8408C7.6632 82.8408 0.00195312 75.122 0.00195312 65.5449C0.00195312 55.9678 7.6632 48.249 17.1688 48.249C26.6744 48.249 34.3357 55.9678 34.3357 65.5449Z" fill="white"/>
<path d="M30.647 65.545C30.647 73.0494 24.6174 79.1244 17.1689 79.1244C9.72048 79.1244 3.6908 73.0494 3.6908 65.545C3.6908 58.0406 9.72048 51.9656 17.1689 51.9656C24.6174 51.9656 30.647 58.0406 30.647 65.545Z" fill="#2D4BAA"/>
<path d="M26.3198 65.5452C26.3198 70.6196 22.2054 74.6935 17.2398 74.6935C12.2032 74.6935 8.15979 70.5482 8.15979 65.5452C8.15979 60.4708 12.2742 56.397 17.2398 56.397C22.2054 56.397 26.3198 60.4708 26.3198 65.5452Z" fill="white"/>
<path d="M21.4245 65.5448C21.4245 67.9034 19.5093 69.8331 17.1686 69.8331C14.8278 69.8331 12.9126 67.9034 12.9126 65.5448C12.9126 63.1863 14.8278 61.2566 17.1686 61.2566C19.5093 61.2566 21.4245 63.1863 21.4245 65.5448Z" fill="#72D8ED"/>
<path d="M42.5644 66.9029H17.1687C16.3884 66.9029 15.8209 66.2597 15.8209 65.545C15.8209 64.7588 16.4594 64.187 17.1687 64.187H42.5644C43.3447 64.187 43.9122 64.8302 43.9122 65.545C43.9122 66.3311 43.3447 66.9029 42.5644 66.9029Z" fill="#000C2D"/>
<path d="M41.9258 65.2589L46.2527 62.6145H51.5726L48.5935 65.5448L51.5726 68.4751H46.2527L41.9258 65.8307V65.2589Z" fill="#000C2D"/>
</g>
<defs>
<linearGradient id="paint0_linear_119_5036" x1="182.882" y1="253.808" x2="182.29" y2="227.638" gradientUnits="userSpaceOnUse">
<stop stop-color="white" stop-opacity="0"/>
<stop offset="1" stop-color="#82A9FF" stop-opacity="0.21"/>
</linearGradient>
<clipPath id="clip0_119_5036">
<rect width="119.246" height="34.5918" fill="white" transform="translate(0.00195312 48.249)"/>
</clipPath>
</defs>
</svg>
