<svg width="200" height="58" viewBox="0 0 200 58" fill="none" xmlns="http://www.w3.org/2000/svg">
<path d="M18.3735 32.6821H18.5033L31.1006 5.24268L35.5905 6.77595C35.7675 6.83066 35.9306 6.92209 36.0691 7.04416C36.2076 7.16622 36.3181 7.31612 36.3935 7.48385C36.4689 7.65159 36.5073 7.8333 36.5061 8.01689C36.505 8.20048 36.4644 8.38171 36.387 8.54853L23.4116 35.2945C22.953 36.2003 22.2464 36.9601 21.3725 37.487C20.4986 38.014 19.4928 38.2869 18.4698 38.2746C17.4225 38.2871 16.3925 38.0093 15.4963 37.4724C14.6001 36.9356 13.8734 36.1613 13.3982 35.2369L0.232612 8.54188C0.154958 8.37593 0.113762 8.19554 0.11177 8.01264C0.109778 7.82975 0.147039 7.64852 0.22106 7.48095C0.295081 7.31337 0.404172 7.16328 0.541146 7.0406C0.67812 6.91792 0.83985 6.82545 1.01561 6.7693L5.3825 5.24489L18.3735 32.6821Z" fill="white"/>
<path opacity="0.8" d="M7.3064 5.01221L18.3131 29.2123L29.3825 5.01221H7.3064Z" fill="white"/>
<path d="M18.9686 40.4771C18.9359 40.4369 18.8925 40.4064 18.8433 40.3891C18.7942 40.3719 18.7411 40.3684 18.6901 40.3792C18.6391 40.39 18.5921 40.4146 18.5544 40.4503C18.5166 40.486 18.4896 40.5313 18.4764 40.5813C18.4182 40.6898 18.1319 41.0776 17.8298 41.4853C16.4339 43.3686 13.8366 46.8717 13.8366 48.8791C13.7988 49.5414 13.8979 50.2043 14.1278 50.8272C14.3577 51.4502 14.7135 52.0202 15.1735 52.5023C15.6335 52.9843 16.188 53.3683 16.803 53.6308C17.4181 53.8932 18.0807 54.0286 18.7504 54.0286C19.4201 54.0286 20.0828 53.8932 20.6978 53.6308C21.3129 53.3683 21.8674 52.9843 22.3274 52.5023C22.7874 52.0202 23.1432 51.4502 23.3731 50.8272C23.603 50.2043 23.7021 49.5414 23.6643 48.8791C23.6643 46.2779 19.161 40.712 18.9663 40.4771H18.9686Z" fill="#2BA337"/>
<path d="M64.2818 19.6357V39.6193H60.5145V26.9897L55.3981 39.6193H52.6845L47.595 27.0518V39.6193H43.7919V19.6357H48.0201L54.0603 34.4368L60.1006 19.6357H64.2818Z" fill="white"/>
<path d="M69.2773 37.5436C67.9351 36.0074 67.2639 34.0465 67.2639 31.6609C67.2639 29.2753 67.9283 27.324 69.2572 25.807C69.8743 25.0754 70.6499 24.491 71.5263 24.097C72.4028 23.7031 73.3576 23.5097 74.3198 23.5314C76.3661 23.5314 77.9276 24.4281 79.0044 26.2213V23.7596H82.774V39.6198H79.0044V36.9609C77.8739 38.8886 76.3034 39.8487 74.293 39.8413C73.3362 39.857 72.3883 39.6585 71.5198 39.2606C70.6514 38.8628 69.8848 38.2759 69.2773 37.5436ZM77.8277 35.1063C78.6166 34.2762 79.0118 33.1358 79.0133 31.6853C79.0148 30.2347 78.6196 29.0944 77.8277 28.2642C77.4826 27.8745 77.0578 27.5619 76.5813 27.3474C76.1049 27.1329 75.5878 27.0213 75.0645 27.02C74.5411 27.0188 74.0235 27.1279 73.546 27.3401C73.0686 27.5523 72.6422 27.8628 72.2952 28.2509C71.5137 29.0722 71.123 30.2081 71.123 31.6587C71.123 33.1092 71.5182 34.2548 72.3086 35.0953C72.6498 35.4893 73.0727 35.8058 73.5486 36.0232C74.0245 36.2406 74.5421 36.3538 75.0662 36.3551C75.5903 36.3563 76.1084 36.2456 76.5854 36.0305C77.0623 35.8154 77.4868 35.5009 77.8299 35.1086L77.8277 35.1063Z" fill="white"/>
<path d="M87.8075 37.6144C86.4428 36.1254 85.7605 34.1498 85.7605 31.6874C85.7605 29.2249 86.4428 27.2493 87.8075 25.7603C89.1706 24.2713 90.9387 23.5269 93.1117 23.5269C94.9253 23.5269 96.4421 23.9944 97.6621 24.9294C98.8821 25.8644 99.7023 27.1939 100.123 28.9177H96.029C95.5442 27.6016 94.5748 26.9428 93.1207 26.9413C92.6184 26.923 92.1195 27.0301 91.67 27.2527C91.2204 27.4754 90.8346 27.8064 90.548 28.2153C89.929 29.0647 89.6196 30.2242 89.6196 31.694C89.6196 33.1638 89.929 34.3233 90.548 35.1727C90.8344 35.5818 91.2202 35.9129 91.6698 36.1355C92.1194 36.3582 92.6184 36.4652 93.1207 36.4467C94.5569 36.4467 95.5264 35.782 96.029 34.4526H100.112C99.7481 36.0069 98.872 37.397 97.6218 38.4032C96.3914 39.3766 94.888 39.8633 93.1117 39.8633C90.9462 39.853 89.1781 39.1034 87.8075 37.6144Z" fill="white"/>
<path d="M106.774 23.7592V26.5643C107.779 24.5421 109.233 23.5303 111.136 23.5288V27.6523H110.195C109.064 27.6523 108.212 27.9529 107.638 28.5541C107.063 29.1553 106.776 30.1893 106.776 31.6561V39.6149H102.973V23.7592H106.774Z" fill="white"/>
<path d="M114.987 37.5855C113.532 36.0773 112.805 34.1016 112.805 31.6584C112.805 29.2152 113.541 27.2492 115.013 25.7602C116.472 24.3292 118.441 23.5264 120.494 23.5264C122.547 23.5264 124.517 24.3292 125.975 25.7602C127.447 27.2492 128.183 29.2152 128.183 31.6584C128.183 34.1016 127.443 36.0773 125.962 37.5855C125.253 38.3209 124.398 38.9019 123.45 39.2914C122.502 39.6809 121.482 39.8704 120.456 39.8477C118.264 39.8477 116.441 39.0937 114.987 37.5855ZM120.452 36.44C120.971 36.4414 121.485 36.3307 121.957 36.1157C122.429 35.9006 122.849 35.5864 123.186 35.1947C123.949 34.3646 124.331 33.191 124.331 31.674C124.331 30.1569 123.954 28.9878 123.201 28.1665C122.864 27.7764 122.444 27.4641 121.972 27.2513C121.5 27.0386 120.986 26.9304 120.467 26.9345C119.952 26.9288 119.442 27.0364 118.974 27.2494C118.506 27.4624 118.092 27.7757 117.761 28.1665C117.024 28.9878 116.656 30.1614 116.658 31.6873C116.659 33.2131 117.027 34.3867 117.761 35.208C118.088 35.5993 118.5 35.9135 118.965 36.1281C119.431 36.3427 119.938 36.4522 120.452 36.4488V36.44Z" fill="white"/>
<path d="M137.013 22.1262C136.2 22.0906 135.403 22.356 134.776 22.8707C134.202 23.367 133.915 24.0878 133.915 25.0332C133.915 25.9786 134.256 26.6987 134.937 27.1935C135.681 27.7172 136.523 28.0872 137.414 28.2815C138.383 28.5104 139.353 28.7726 140.322 29.068C141.292 29.3651 142.153 29.9375 142.799 30.7143C143.48 31.5164 143.821 32.6523 143.821 34.1221C143.821 35.5919 143.238 36.9087 142.072 38.0727C140.904 39.2367 139.342 39.8187 137.387 39.8187C135.432 39.8187 133.843 39.332 132.622 38.3585C131.4 37.3851 130.79 36.0394 130.792 34.3215H134.076C134.107 35.1068 134.433 35.8522 134.991 36.4109C135.529 36.9265 136.319 37.1842 137.36 37.1842C138.401 37.1842 139.221 36.8976 139.821 36.3245C140.105 36.0668 140.332 35.7527 140.486 35.4027C140.64 35.0527 140.719 34.6745 140.716 34.2927C140.716 33.5098 140.532 32.899 140.163 32.4603C139.783 32.0127 139.291 31.6719 138.736 31.4721C138.106 31.2386 137.463 31.0426 136.81 30.8849C136.11 30.7136 135.406 30.5134 134.696 30.2845C134.015 30.0691 133.363 29.7714 132.756 29.3982C132.145 29.0054 131.652 28.4566 131.329 27.8095C130.938 27.0119 130.748 26.1322 130.776 25.2459C130.776 23.5103 131.364 22.1122 132.539 21.0516C133.714 19.991 135.24 19.4614 137.116 19.4629C138.992 19.4629 140.491 19.9208 141.613 20.8366C142.734 21.7525 143.359 23.0819 143.485 24.8249H140.092C140.036 24.0954 139.71 23.412 139.177 22.9061C138.649 22.3862 137.928 22.1262 137.013 22.1262Z" fill="white"/>
<path d="M150.53 23.8457H147.461V39.6194H150.53V23.8457Z" fill="white"/>
<path d="M150.53 17.6152H147.461V20.879H150.53V17.6152Z" fill="white"/>
<path d="M160.79 23.8458V26.5047H158.042V39.6173H154.946V26.5069H153.197V23.848H154.946V22.7402C154.946 20.9277 155.4 19.6057 156.306 18.7741C157.213 17.9424 158.636 17.5273 160.575 17.5288V20.2497C159.641 20.2497 158.986 20.4358 158.608 20.8081C158.231 21.1803 158.042 21.8244 158.042 22.7402V23.848L160.79 23.8458Z" fill="white"/>
<path d="M170.698 26.507H167.089V35.2391C167.089 35.83 167.22 36.2546 167.481 36.5131C167.742 36.7716 168.189 36.9002 168.823 36.8987H170.707V39.6174H168.284C165.429 39.6174 164.002 38.1572 164.002 35.2369V26.507H162.253V23.8481H164.002V19.9263H167.098V23.8481H170.707L170.698 26.507Z" fill="white"/>
<path d="M179.772 39.8766C177.618 39.8766 175.868 39.1321 174.521 37.6432C173.175 36.1542 172.503 34.1785 172.508 31.7161C172.508 29.2537 173.19 27.2832 174.555 25.8046C175.919 24.326 177.683 23.5874 179.846 23.5889C182.008 23.5889 183.763 24.3001 185.11 25.7226C186.456 27.1451 187.128 29.0011 187.123 31.2907C187.126 31.8096 187.09 32.328 187.016 32.8417H175.653C175.725 34.1579 176.142 35.2029 176.906 35.977C177.277 36.3565 177.723 36.6555 178.217 36.855C178.711 37.0545 179.241 37.1501 179.774 37.1358C181.443 37.1358 182.619 36.4009 183.302 34.9311H186.613C186.188 36.3446 185.328 37.5911 184.152 38.4962C182.974 39.4165 181.514 39.8766 179.772 39.8766ZM182.707 27.4952C182.331 27.1188 181.882 26.822 181.386 26.6228C180.891 26.4236 180.36 26.3261 179.825 26.3364C179.297 26.3232 178.771 26.4194 178.282 26.6189C177.792 26.8185 177.35 27.1169 176.984 27.4952C176.221 28.2677 175.785 29.3017 175.678 30.5972H183.917C183.901 29.3017 183.497 28.2677 182.707 27.4952Z" fill="white"/>
<path d="M193.208 23.8458V26.5933C194.16 24.5962 195.641 23.5977 197.651 23.5977V26.9656H196.87C195.668 26.9656 194.757 27.2898 194.136 27.9382C193.516 28.5867 193.207 29.713 193.208 31.3172V39.6195H190.139V23.8458H193.208Z" fill="white"/>
</svg>
