<svg xmlns="http://www.w3.org/2000/svg" data-name="Layer 1" viewBox="0 0 512 512"><path fill="#57565c" d="M383,37.5v437a30,30,0,0,1-30,30H99a30,30,0,0,1-30-30V37.5a30,30,0,0,1,30-30H353A30,30,0,0,1,383,37.5Z"/><path fill="#3c3b41" d="M373.86,496.05c-.19-.3-.36-.61-.52-.92A17.35,17.35,0,0,0,358,485.76l-.8,0-.83,0a17.3,17.3,0,0,1-17.27-18.12c0-.27,0-.53,0-.8a17.35,17.35,0,0,0-9.37-15.39,17.31,17.31,0,0,1-6.63-24.73,17.31,17.31,0,0,0,0-18.69,17.31,17.31,0,0,1,6.63-24.73A17.35,17.35,0,0,0,339.07,368c0-.27,0-.53,0-.8s0-.56,0-.83A17.32,17.32,0,0,1,357.15,349l.82,0a17.3,17.3,0,0,0,15.37-9.36,17.25,17.25,0,0,1,9.66-8.39V474.5"/><rect width="254" height="107" x="99" y="37.5" fill="#52bbe9" rx="4"/><path fill="#1cabe1" d="M349,37.5H319a4,4,0,0,1,4,4v99a4,4,0,0,1-4,4h30a4,4,0,0,0,4-4v-99A4,4,0,0,0,349,37.5Z"/><path fill="#eb304a" d="M160.87,182h-62a7.5,7.5,0,0,1,0-15h62a7.5,7.5,0,0,1,0,15Z"/><rect width="62" height="45" x="98.87" y="204.5" fill="#fff" rx="4"/><rect width="62" height="45" x="195" y="204.5" fill="#fff" rx="4"/><path fill="#e1e1e3" d="M253,204.5H238a4,4,0,0,1,4,4v37a4,4,0,0,1-4,4h15a4,4,0,0,0,4-4v-37A4,4,0,0,0,253,204.5Z"/><rect width="62" height="45" x="291" y="204.5" fill="#fff" rx="4"/><path fill="#e1e1e3" d="M349,204.5H334a4,4,0,0,1,4,4v37a4,4,0,0,1-4,4h15a4,4,0,0,0,4-4v-37A4,4,0,0,0,349,204.5Z"/><rect width="62" height="45" x="98.87" y="279.5" fill="#fff" rx="4"/><rect width="62" height="45" x="195" y="279.5" fill="#fff" rx="4"/><path fill="#e1e1e3" d="M253,279.5H238a4,4,0,0,1,4,4v37a4,4,0,0,1-4,4h15a4,4,0,0,0,4-4v-37A4,4,0,0,0,253,279.5Z"/><rect width="62" height="45" x="291" y="279.5" fill="#fff" rx="4"/><path fill="#e1e1e3" d="M349,279.5H334a4,4,0,0,1,4,4v37a4,4,0,0,1-4,4h15a4,4,0,0,0,4-4v-37A4,4,0,0,0,349,279.5Z"/><rect width="62" height="45" x="98.87" y="354.5" fill="#fff" rx="4"/><rect width="62" height="45" x="195" y="354.5" fill="#fff" rx="4"/><rect width="62" height="45" x="98.87" y="429.5" fill="#fff" rx="4"/><path fill="#e1e1e3" d="M253,354.5H238a4,4,0,0,1,4,4v37a4,4,0,0,1-4,4h15a4,4,0,0,0,4-4v-37A4,4,0,0,0,253,354.5Z"/><rect width="62" height="45" x="195" y="429.5" fill="#fff" rx="4"/><path fill="#fff" d="M353,358.5v112a4,4,0,0,1-4,4H323.85a96.71,96.71,0,0,1,1.3-120H349A4,4,0,0,1,353,358.5Z"/><path fill="#e1e1e3" d="M253 429.5H238a4 4 0 0 1 4 4v37a4 4 0 0 1-4 4h15a4 4 0 0 0 4-4v-37A4 4 0 0 0 253 429.5zM156.87 204.5h-15a4 4 0 0 1 4 4v37a4 4 0 0 1-4 4h15a4 4 0 0 0 4-4v-37A4 4 0 0 0 156.87 204.5zM156.87 279.5h-15a4 4 0 0 1 4 4v37a4 4 0 0 1-4 4h15a4 4 0 0 0 4-4v-37A4 4 0 0 0 156.87 279.5zM156.87 354.5h-15a4 4 0 0 1 4 4v37a4 4 0 0 1-4 4h15a4 4 0 0 0 4-4v-37A4 4 0 0 0 156.87 354.5zM156.87 429.5h-15a4 4 0 0 1 4 4v37a4 4 0 0 1-4 4h15a4 4 0 0 0 4-4v-37A4 4 0 0 0 156.87 429.5z"/><path fill="#f8be32" d="M257,182H195a7.5,7.5,0,0,1,0-15h62a7.5,7.5,0,0,1,0,15Z"/><path fill="#19ac66" d="M353,182H291a7.5,7.5,0,0,1,0-15h62a7.5,7.5,0,0,1,0,15Z"/><path fill="#17a454" d="M353,167H338a7.5,7.5,0,0,1,0,15h15a7.5,7.5,0,0,0,0-15Z"/><path fill="#fed030" d="M257,167H242a7.5,7.5,0,0,1,0,15h15a7.5,7.5,0,0,0,0-15Z"/><path fill="#e4222e" d="M160.87,167h-15a7.5,7.5,0,0,1,0,15h15a7.5,7.5,0,0,0,0-15Z"/><path fill="#fff" d="M291,429.5v41a4,4,0,0,0,4,4h54a4,4,0,0,0,4-4v-112a4,4,0,0,0-4-4H295a4,4,0,0,0-4,4v71Z"/><path fill="#fff" d="M339.05,467.68a17.38,17.38,0,0,0,1.05,6.82H295a4,4,0,0,1-4-4v-112a4,4,0,0,1,4-4h48.71A17.24,17.24,0,0,0,339,366.32c0,.27,0,.55,0,.83s0,.53,0,.8a17.35,17.35,0,0,1-9.37,15.39,17.31,17.31,0,0,0-6.63,24.73,17.31,17.31,0,0,1,0,18.69,17.31,17.31,0,0,0,6.63,24.73,17.35,17.35,0,0,1,9.37,15.39C339.07,467.15,339.06,467.41,339.05,467.68Z"/><path fill="#e1e1e3" d="M353,358.5v112a4,4,0,0,1-4,4h-8.9a17.38,17.38,0,0,1-1.05-6.82c0-.27,0-.53,0-.8a17.35,17.35,0,0,0-9.37-15.39,17.31,17.31,0,0,1-6.63-24.73,17.31,17.31,0,0,0,0-18.69,17.31,17.31,0,0,1,6.63-24.73A17.35,17.35,0,0,0,339.07,368c0-.27,0-.53,0-.8s0-.56,0-.83a17.24,17.24,0,0,1,4.68-11.82H349A4,4,0,0,1,353,358.5Z"/><path fill="#eb304a" d="M426.76,333.07h0a17.32,17.32,0,0,1,24.73,6.63h0A17.31,17.31,0,0,0,467.68,349h0a17.32,17.32,0,0,1,18.1,18.11h0a17.33,17.33,0,0,0,9.35,16.19h0a17.32,17.32,0,0,1,6.63,24.73h0a17.32,17.32,0,0,0,0,18.69h0a17.32,17.32,0,0,1-6.63,24.73h0a17.33,17.33,0,0,0-9.35,16.19h0a17.3,17.3,0,0,1-18.1,18.1h0a17.33,17.33,0,0,0-16.19,9.35h0a17.32,17.32,0,0,1-24.73,6.63h0a17.32,17.32,0,0,0-18.69,0h0a17.32,17.32,0,0,1-24.73-6.63h0a17.33,17.33,0,0,0-16.19-9.35h0A17.32,17.32,0,0,1,349,467.68h0a17.31,17.31,0,0,0-9.34-16.19h0a17.32,17.32,0,0,1-6.63-24.73h0a17.32,17.32,0,0,0,0-18.69h0a17.32,17.32,0,0,1,6.63-24.73h0A17.31,17.31,0,0,0,349,367.15h0A17.33,17.33,0,0,1,367.15,349h0a17.31,17.31,0,0,0,16.19-9.34h0a17.32,17.32,0,0,1,24.73-6.63h0A17.32,17.32,0,0,0,426.76,333.07Z"/><path fill="#e4222e" d="M406.76 333.07c.21-.14.44-.24.65-.37a17.28 17.28 0 0 0-18.63.79A17.3 17.3 0 0 0 406.76 333.07zM406.76 501.76a17.3 17.3 0 0 0-18-.42 17.3 17.3 0 0 0 18.63.79C407.2 502 407 501.89 406.76 501.76zM501.76 426.76a17.32 17.32 0 0 1 0-18.69 17.32 17.32 0 0 0-6.63-24.73h0a17.33 17.33 0 0 1-9.35-16.19A17.32 17.32 0 0 0 467.68 349a17.31 17.31 0 0 1-16.19-9.34h0a17.32 17.32 0 0 0-24.73-6.63c-.23.15-.47.28-.71.42a17.19 17.19 0 0 1 5.44 6.21h0A17.31 17.31 0 0 0 447.68 349a17.32 17.32 0 0 1 18.1 18.11 17.33 17.33 0 0 0 9.35 16.19h0a17.32 17.32 0 0 1 6.63 24.73 17.32 17.32 0 0 0 0 18.69h0a17.32 17.32 0 0 1-6.63 24.73h0a17.33 17.33 0 0 0-9.35 16.19 17.3 17.3 0 0 1-18.1 18.1 17.33 17.33 0 0 0-16.19 9.35 17.19 17.19 0 0 1-5.44 6.21c.24.13.48.27.71.42a17.32 17.32 0 0 0 24.73-6.63 17.33 17.33 0 0 1 16.19-9.35 17.3 17.3 0 0 0 18.1-18.1 17.33 17.33 0 0 1 9.35-16.19h0a17.32 17.32 0 0 0 6.63-24.73z"/><path fill="#fff" d="M447.13 469.62A22.48 22.48 0 1 1 463 463 22.42 22.42 0 0 1 447.13 469.62zm0-30a7.44 7.44 0 0 0-5.3 2.2 7.5 7.5 0 1 0 5.3-2.2zM383.49 406a22.49 22.49 0 1 1 15.91-6.57A22.46 22.46 0 0 1 383.49 406zm0-30a7.5 7.5 0 1 0 5.31 2.19A7.47 7.47 0 0 0 383.49 376zM377.23 460.9a7.51 7.51 0 0 1-5.31-12.81l76.18-76.17a7.5 7.5 0 0 1 10.6 10.61L382.53 458.7A7.44 7.44 0 0 1 377.23 460.9z"/></svg>