<svg xmlns="http://www.w3.org/2000/svg" data-name="Layer 1" viewBox="0 0 512 512"><path fill="#c8c5cc" d="M172.61,7.5h302.5A29.39,29.39,0,0,1,504.5,36.89V69.72H444.11"/><path fill="#e1e1e3" d="M473.75,7.5h0A30.75,30.75,0,0,0,443,38.25V474.5a30,30,0,0,1-30,30H69V37.5a30,30,0,0,1,30-30H473.75Z"/><path fill="#fff" d="M328.35 81.63H211.65a7.5 7.5 0 1 1 0-15h116.7a7.5 7.5 0 0 1 0 15zM323 126.63H102a7.5 7.5 0 0 1 0-15H323a7.5 7.5 0 0 1 0 15zM263 156.63H102a7.5 7.5 0 0 1 0-15H263a7.5 7.5 0 0 1 0 15zM398.06 126.63h-30a7.5 7.5 0 0 1 0-15h30a7.5 7.5 0 1 1 0 15zM323 201.63H102a7.5 7.5 0 0 1 0-15H323a7.5 7.5 0 0 1 0 15zM203 231.63H102a7.5 7.5 0 0 1 0-15H203a7.5 7.5 0 0 1 0 15zM398.06 201.63h-30a7.5 7.5 0 0 1 0-15h30a7.5 7.5 0 1 1 0 15zM323 276.63H102a7.5 7.5 0 0 1 0-15H323a7.5 7.5 0 0 1 0 15zM263 306.63H102a7.5 7.5 0 0 1 0-15H263a7.5 7.5 0 0 1 0 15zM398.06 276.63h-30a7.5 7.5 0 0 1 0-15h30a7.5 7.5 0 1 1 0 15zM323 351.63H102a7.5 7.5 0 0 1 0-15H323a7.5 7.5 0 0 1 0 15zM203 381.63H102a7.5 7.5 0 0 1 0-15H203a7.5 7.5 0 0 1 0 15zM398.06 351.63h-30a7.5 7.5 0 0 1 0-15h30a7.5 7.5 0 1 1 0 15z"/><path fill="#dadadc" d="M69,398H288.64a19.15,19.15,0,0,0,19.13-19.15V228.27a19.13,19.13,0,0,0-19.13-19.14H69Z"/><path fill="#fee27d" d="M292.78,213.27v150.6A19.15,19.15,0,0,1,273.64,383H24.75A19.14,19.14,0,0,1,5.62,363.87V213.27a19.15,19.15,0,0,1,19.13-19.14H273.64a19.13,19.13,0,0,1,19.14,19.14Z"/><path fill="#f8be32" d="M287,377.57A19.06,19.06,0,0,1,273.63,383H24.76a19.11,19.11,0,0,1-13.16-5.24l137.81-139Z"/><path fill="#fed030" d="M292.78,213.27v13.29L163.69,315.49a31,31,0,0,1-28.5-.09L5.62,225V213.27a19.15,19.15,0,0,1,19.13-19.14H273.64a19.13,19.13,0,0,1,19.14,19.14Z"/><path fill="#c8c5cc" d="M411.89,504.5h0a29.39,29.39,0,0,1-29.39-29.39v-26H22.5v26A29.39,29.39,0,0,0,51.89,504.5h360Z"/></svg>