<svg xmlns="http://www.w3.org/2000/svg" data-name="Layer 1" viewBox="0 0 512 512"><ellipse cx="41.62" cy="134.42" rx="7.47" ry="7.5"/><ellipse cx="470.38" cy="134.42" rx="7.47" ry="7.5"/><ellipse cx="41.62" cy="441.53" rx="7.5" ry="7.53"/><ellipse cx="470.38" cy="441.53" rx="7.5" ry="7.53"/><rect width="497" height="383.82" x="7.5" y="91.99" fill="#b28b6a" rx="30"/><path fill="#a17855" d="M37.5,107h437a30,30,0,0,1,30,30v97.67a60,60,0,0,1-60,60H67.5a60,60,0,0,1-60-60V137A30,30,0,0,1,37.5,107Z"/><path fill="#a17855" d="M474.5,92h-30a30,30,0,0,1,30,30V445.8a30,30,0,0,1-30,30h30a30,30,0,0,0,30-30V122A30,30,0,0,0,474.5,92Z"/><path fill="#896848" d="M401,276.75h51.18a0,0,0,0,1,0,0v44.31a10,10,0,0,1-10,10H411a10,10,0,0,1-10-10V276.75A0,0,0,0,1,401,276.75Z"/><path fill="#72553b" d="M437.18,276.75v44.31a10,10,0,0,1-10,10h15a10,10,0,0,0,10-10V276.75Z"/><path fill="#896848" d="M101,331.06H69.82a10,10,0,0,1-10-10v-56.4l51.17,15v41.4A10,10,0,0,1,101,331.06Z"/><path fill="#72553b" d="M59.82,264.66v4.39L96,279.66v41.4a10,10,0,0,1-10,10h15a10,10,0,0,0,10-10v-41.4Z"/><path fill="#b28b6a" d="M37.5,92h437a30,30,0,0,1,30,30v97.67a60,60,0,0,1-60,60H67.5a60,60,0,0,1-60-60V122A30,30,0,0,1,37.5,92Z"/><path fill="#896848" d="M474.5,92h-30a30,30,0,0,1,30,30v97.67a60,60,0,0,1-60,60h30a60,60,0,0,0,60-60V122A30,30,0,0,0,474.5,92Z"/><ellipse cx="41.62" cy="134.42" fill="#f8be32" rx="7.47" ry="7.5"/><ellipse cx="470.38" cy="134.42" fill="#f8be32" rx="7.47" ry="7.5"/><ellipse cx="41.62" cy="441.53" fill="#f8be32" rx="7.5" ry="7.53"/><ellipse cx="470.38" cy="441.53" fill="#f8be32" rx="7.5" ry="7.53"/><path fill="#896848" d="M340.73,36.2V91.87H306.61V43.47a3,3,0,0,0-3-3H208.39a3,3,0,0,0-3,3v48.4H171.27V36.2a30,30,0,0,1,30-30H310.73A30,30,0,0,1,340.73,36.2Z"/><path fill="#a17855" d="M256,394.83a100,100,0,1,1,70.71-29.29A99.34,99.34,0,0,1,256,394.83Zm0-185a85,85,0,1,0,60.1,24.89A84.45,84.45,0,0,0,256,209.83Z"/><path fill="#fed947" d="M256,372.33a92.49,92.49,0,1,1,65.41-27.09A91.9,91.9,0,0,1,256,372.33Z"/><path fill="#fecc30" d="M321.41,214.42A91.9,91.9,0,0,0,256,187.33a93.34,93.34,0,0,0-11.38.72,92.48,92.48,0,0,1,0,183.56,93.34,93.34,0,0,0,11.38.72,92.5,92.5,0,0,0,65.41-157.91Z"/><path fill="#f8be32" d="M256,379.83a100,100,0,1,1,70.71-29.29A99.34,99.34,0,0,1,256,379.83Zm0-185a85,85,0,1,0,60.1,24.89A84.45,84.45,0,0,0,256,194.83Z"/><path fill="#fff" d="M245.16,296.06H220.33a7.5,7.5,0,1,1,0-15h24.83a23,23,0,0,0,0-46H227.33a7.5,7.5,0,1,1,0-15h17.83a38,38,0,0,1,0,76Z"/><path fill="#fff" d="M292.33 235.06h-72a7.5 7.5 0 1 1 0-15h72a7.5 7.5 0 0 1 0 15zM292.33 265.06h-72a7.5 7.5 0 1 1 0-15h72a7.5 7.5 0 0 1 0 15zM274.49 349a7.46 7.46 0 0 1-5.23-2.12l-54.58-53a7.5 7.5 0 0 1 10.46-10.76l54.57 53A7.5 7.5 0 0 1 274.49 349z"/></svg>