<svg xmlns="http://www.w3.org/2000/svg" data-name="Layer 1" viewBox="0 0 512 512"><path fill="#f8be32" d="M429.84,124.47v99.85q0,11.73-1.1,23.23-1.15,12.12-3.47,23.94C408.16,358.78,344.38,433,256,475.63,173.71,435.9,112.74,368.85,90.93,289.34q-2.3-8.34-4-16.87a244.56,244.56,0,0,1-4.77-48.15V124.47A321.67,321.67,0,0,0,192.38,85.09,318.33,318.33,0,0,0,256,36.37a295.37,295.37,0,0,0,76.19,57.11A296.65,296.65,0,0,0,429.84,124.47Z"/><path fill="#227fc0" d="M256,442c-41.57-22.35-76.43-52.51-101.39-87.84-27.77-39.31-42.45-84.2-42.45-129.8V149.05a348.8,348.8,0,0,0,95.32-38,347.66,347.66,0,0,0,48.06-33.73,324.57,324.57,0,0,0,62.76,42.78,324.86,324.86,0,0,0,81.54,29.56v74.69c0,45.6-14.68,90.49-42.45,129.8C332.43,389.45,297.57,419.61,256,442Z"/><path fill="#2370b5" d="M318.3,120.07a324.57,324.57,0,0,1-62.76-42.78q-7.47,6.25-15.29,12a325,325,0,0,0,48.05,30.73,324.86,324.86,0,0,0,81.54,29.56v74.69c0,45.6-14.68,90.49-42.45,129.8-21.9,31-51.41,58-86.39,79.26q7.35,4.47,15,8.58c41.57-22.35,76.43-52.51,101.39-87.84,27.77-39.31,42.45-84.2,42.45-129.8V149.63A324.86,324.86,0,0,1,318.3,120.07Z"/><path fill="#aeadb3" d="M332.19,93.48A295.37,295.37,0,0,1,256,36.37a318.33,318.33,0,0,1-63.62,48.72A321.67,321.67,0,0,1,82.16,124.47v99.85a243.94,243.94,0,0,0,3.28,40q.68,4.1,1.49,8.16,1.69,8.52,4,16.87C112.74,368.85,173.71,435.9,256,475.63,344.38,433,408.16,358.78,425.27,271.49q2.31-11.81,3.47-23.94,1.1-11.49,1.1-23.23V124.47A296.65,296.65,0,0,1,332.19,93.48ZM380.36,314h0L344,348.4a7.5,7.5,0,0,1-10,.26l-1.81-1.55L173.42,211.28l-57.26,54.18q-1.75-9-2.74-18L168,195.75a7.49,7.49,0,0,1,10-.25L338.58,332.87l4.67-4.42,48.52-45.91A225,225,0,0,1,380.36,314Z"/><path fill="#8b8893" d="M344,348.4,380.35,314a238.93,238.93,0,0,1-23,40.13c-25,35.33-59.82,65.49-101.39,87.84q-7.65-4.11-15-8.58c-35-21.25-64.49-48.27-86.39-79.26-19.35-27.39-32.35-57.5-38.45-88.66l57.26-54.18L332.15,347.11l1.81,1.55A7.5,7.5,0,0,0,344,348.4Z"/><path fill="#8b8893" d="M399.84,149.63v74.69a215.05,215.05,0,0,1-8.07,58.22l-48.52,45.91-4.67,4.42L178,195.5a7.49,7.49,0,0,0-10,.25l-54.59,51.66a211.71,211.71,0,0,1-1.26-23.09V149.05a348.8,348.8,0,0,0,95.32-38,347.28,347.28,0,0,0,32.79-21.67q3.67-2.75,7.28-5.59c1-.79,2-1.59,3-2.39.72-.57,1.43-1.15,2.14-1.74,1-.77,1.9-1.55,2.84-2.34a324.57,324.57,0,0,0,62.76,42.78A324.86,324.86,0,0,0,399.84,149.63Z"/><path fill="#787681" d="M344 348.4L380.35 314a238.93 238.93 0 0 1-23 40.13c-25 35.33-59.82 65.49-101.39 87.84q-7.65-4.11-15-8.58c35-21.25 64.49-48.27 86.39-79.26 1.64-2.32 3.23-4.65 4.76-7l1.81 1.55A7.5 7.5 0 0 0 344 348.4zM399.84 149.63v74.69a215.05 215.05 0 0 1-8.07 58.22l-48.52 45.91c17.47-32.68 26.59-68.18 26.59-104.13V149.63a324.86 324.86 0 0 1-81.54-29.56 324.7 324.7 0 0 1-48-30.72h0q3.67-2.75 7.3-5.58c1-.79 2-1.59 3-2.39.72-.57 1.43-1.15 2.14-1.74 1-.77 1.9-1.55 2.84-2.34a324.57 324.57 0 0 0 62.76 42.78A324.86 324.86 0 0 0 399.84 149.63z"/><path fill="#787681" d="M428.74,247.55C428,255.63,380.36,314,380.36,314h0L344,348.4a7.5,7.5,0,0,1-10,.26L173.42,211.28l-57.26,54.18L90.93,289.34l-4-16.87,26.49-25.06L168,195.75a7.49,7.49,0,0,1,10-.25L338.58,332.87l53.19-50.33Z"/><path fill="#8b8893" d="M116.16 265.46L90.93 289.34q-2.3-8.34-4-16.87-.81-4.07-1.49-8.16l28-16.9Q114.41 256.49 116.16 265.46zM428.74 247.55q-1.15 12.12-3.47 23.94L380.36 314a225 225 0 0 0 11.41-31.44z"/><path fill="#eb304a" d="M7.5,350.46a7.5,7.5,0,0,1-5.16-12.95L168,180.75a7.49,7.49,0,0,1,10-.25L338.58,317.87,499.34,165.75a7.5,7.5,0,1,1,10.32,10.89L344,333.4a7.5,7.5,0,0,1-10,.26L173.42,196.28,12.66,348.4A7.46,7.46,0,0,1,7.5,350.46Z"/><path fill="#eb304a" d="M504.5,213.37a7.5,7.5,0,0,1-7.5-7.5V178.21l-27.47-1.72a7.5,7.5,0,0,1,.94-15l34.5,2.17a7.5,7.5,0,0,1,7,7.48v34.71A7.5,7.5,0,0,1,504.5,213.37Z"/><path fill="#fed947" d="M256,331.25a75.13,75.13,0,1,1,53-22A74.38,74.38,0,0,1,256,331.25Z"/><path fill="#fecc30" d="M309,202.79a74.38,74.38,0,0,0-53-22,75.14,75.14,0,0,0-12.5,1.06,75.27,75.27,0,0,1,0,148.38,75.14,75.14,0,0,0,12.5,1.06,75.3,75.3,0,0,0,53-128.46Z"/><path fill="#f8be32" d="M256,338.75a82.62,82.62,0,1,1,58.35-24.25A81.8,81.8,0,0,1,256,338.75Zm0-150.5a67.64,67.64,0,1,0,47.72,19.84A67,67,0,0,0,256,188.25Z"/><path fill="#fff" d="M247.77,270.39H228.91a7.5,7.5,0,1,1,0-15h18.86a15.75,15.75,0,0,0,0-31.49H234.23a7.5,7.5,0,0,1,0-15h13.54a30.75,30.75,0,0,1,0,61.49Z"/><path fill="#fff" d="M283.61 223.9h-54.7a7.5 7.5 0 0 1 0-15h54.7a7.5 7.5 0 0 1 0 15zM283.61 246.77h-54.7a7.5 7.5 0 0 1 0-15h54.7a7.5 7.5 0 0 1 0 15zM270.05 310.76a7.49 7.49 0 0 1-5.24-2.13l-41.45-40.41a7.5 7.5 0 1 1 10.47-10.74l41.46 40.41a7.5 7.5 0 0 1-5.24 12.87z"/></svg>